<svg  viewBox="0 0 86 64" fill="none" xmlns="http://www.w3.org/2000/svg">
  <path d="M6.39412 -0.00390625C4.61987 2.11163 3.50349 4.14809 2.58646 6.39214C1.71928 8.65596 1.05144 11.1472 0.563025 14.3699C0.45338 15.2497 0.254026 16.5546 0.144382 18.1858C0.0546726 18.9964 0.0546726 19.896 0.0048342 20.8549L-0.0151012 21.28C-0.0250689 21.5173 -0.0151012 21.7545 -0.0151012 21.9918C-0.0151012 22.4663 -0.00513349 22.9507 0.0048342 23.4351C0.0048342 24.4039 0.124446 25.3924 0.164317 26.381C0.373638 28.368 0.642766 30.3946 1.14115 32.4311C2.08808 36.4941 3.6231 40.6461 6.02532 44.462C8.40759 48.2877 11.5474 51.807 15.3152 54.6541C19.073 57.5111 23.4488 59.7354 28.1336 60.9612C32.8184 62.1969 37.8322 62.4045 42.5967 61.4159C47.3713 60.4867 51.8767 58.213 55.3953 55.01C57.1595 53.4085 58.6946 51.5797 59.9206 49.5827C61.1366 47.576 62.0238 45.411 62.562 43.1966C63.0803 40.9921 63.3196 38.7085 63.1302 36.5435C63.0106 34.339 62.4524 32.1543 61.5752 30.2266C59.8209 26.3612 56.7808 23.2374 53.0827 21.8138C51.2487 21.1119 49.2851 20.8351 47.4809 21.0526C47.0224 21.0625 46.5938 21.1713 46.1652 21.2602L45.5272 21.3986C45.3279 21.4184 44.9093 21.5766 44.7597 21.6458C43.9225 21.9918 43.1549 22.4366 42.4771 22.9705C41.1315 24.0183 40.0251 25.5407 39.746 27.3202C39.6862 27.7551 39.6563 28.1901 39.6862 28.6152C39.6862 28.8327 39.7261 29.0304 39.756 29.2281L39.8158 29.5741C39.8457 29.7026 39.8955 29.8311 39.9055 29.8806C40.065 30.3946 40.2244 30.879 40.364 31.3338C40.9421 33.0835 41.0617 34.1808 40.9521 34.7048C40.9122 34.9816 40.8424 35.1397 40.7926 35.2485C40.7527 35.3671 40.7029 35.4165 40.7029 35.4165C40.7029 35.4165 40.663 35.466 40.6032 35.5747C40.5135 35.6736 40.4039 35.8416 40.1547 36.0393C39.6164 36.4941 38.6396 37.1169 37.2042 37.3541C35.7988 37.5815 33.7853 37.4036 31.9214 36.2964C29.9478 35.1694 28.0041 33.212 26.7083 30.5627C25.4025 27.9331 24.7347 24.5522 25.1533 21.0823C25.6916 17.5729 27.0372 13.8361 29.5889 10.6924C32.0908 7.51911 35.6592 4.8994 39.8058 3.26826L41.3807 2.69489L43.0054 2.22038C43.5536 2.08198 44.1118 1.98312 44.67 1.86449C45.2282 1.73598 45.7964 1.64701 46.3645 1.58769C48.6471 1.25158 50.9895 1.23181 53.3319 1.44929C54.5081 1.52838 55.6644 1.76563 56.8306 1.96335C57.9769 2.25003 59.1431 2.51695 60.2595 2.91237C62.5122 3.67357 64.715 4.64237 66.7584 5.88797C70.8551 8.33962 74.4734 11.6118 77.2344 15.4079C80.0354 19.1842 82.0189 23.445 83.1652 27.7749C83.4942 28.8426 83.6337 29.9596 83.8729 31.0273C84.0922 32.1048 84.142 33.2021 84.2816 34.2698C84.4112 35.3375 84.3713 36.415 84.4211 37.4728C84.451 37.9967 84.4211 38.5305 84.3912 39.0446C84.3713 39.4993 84.3414 39.9442 84.3215 40.389C84.3015 41.4369 84.1221 42.4354 84.0025 43.3646C83.9427 43.8293 83.8829 44.2741 83.8231 44.7091C83.7334 45.1342 83.6437 45.5494 83.5639 45.9349C83.3945 46.7159 83.235 47.4178 83.1054 48.0307C82.926 48.6337 82.7765 49.1478 82.6569 49.5531C81.7897 52.588 80.8228 54.8617 80.0453 57.0662C79.6367 58.1635 79.1981 59.2114 78.8392 60.3582C78.4306 61.4752 77.992 62.6319 77.5933 63.9664C78.5103 62.9581 79.3476 61.9893 80.0553 60.981C80.7132 59.9528 81.3511 58.9445 81.8794 57.8472C82.8961 55.6427 83.7832 53.191 84.3813 49.9683C84.461 49.5333 84.5707 48.9896 84.6903 48.3569C84.77 47.7144 84.8597 46.9729 84.9694 46.1623C85.0192 45.757 85.069 45.3319 85.1289 44.887C85.1488 44.4422 85.1787 43.9776 85.2086 43.4932C85.2584 42.5342 85.3481 41.5061 85.2983 40.4286C85.2983 39.9739 85.2883 39.5191 85.2784 39.0545C85.2784 38.5207 85.2684 37.9868 85.1986 37.453C85.079 36.3853 85.0591 35.2979 84.8697 34.2105C84.6703 33.1329 84.5607 32.0356 84.2916 30.9482C84.0025 29.8707 83.8131 28.7635 83.4443 27.6958C82.1385 23.3758 80.0653 19.1645 77.2444 15.4079C71.7024 7.84534 62.9707 2.14129 53.4216 0.777064C51.0493 0.431064 48.6372 0.312436 46.2649 0.520036C45.6668 0.549693 45.0787 0.599121 44.4906 0.697978C43.9025 0.786949 43.3144 0.846264 42.7263 0.955006L40.992 1.34055C40.4238 1.49872 39.8556 1.66678 39.2974 1.82495C34.812 3.2386 30.7352 5.74957 27.6951 9.09093C24.6051 12.4125 22.7511 16.5052 21.9038 20.5485C21.1463 24.7005 21.7344 28.7635 23.2295 32.1444C24.7347 35.5352 27.1468 38.1845 29.8082 39.7761C32.5693 41.4765 35.4998 41.8225 37.8521 41.4666C40.2244 41.1008 41.899 40.0628 42.8858 39.2127C43.4241 38.7678 43.7829 38.3032 44.0221 38.0066C44.2314 37.6705 44.3411 37.5024 44.3411 37.5024C44.3411 37.5024 44.4607 37.3344 44.6202 36.9686C44.7896 36.6127 45.0089 36.0393 45.1086 35.3177C45.3777 33.8249 44.979 31.917 44.3411 30.0684C44.1916 29.6235 44.0421 29.1589 43.8826 28.6646C43.8527 28.5855 43.8626 28.5954 43.8626 28.5954C43.8626 28.5855 43.8626 28.5756 43.8626 28.546C43.8626 28.4768 43.8327 28.4175 43.8327 28.3483C43.8228 28.2198 43.8327 28.0912 43.8327 27.9528C43.8925 27.4289 44.2813 26.7369 45.0289 26.124C45.3977 25.8274 45.8462 25.5506 46.3247 25.343C46.5041 25.2738 46.4243 25.2936 46.5838 25.2639L47.0224 25.1651C47.3115 25.0959 47.6105 24.997 47.9195 24.997C49.1356 24.8092 50.4313 24.9674 51.7271 25.4221C54.3187 26.3217 56.8505 28.6152 58.4055 31.7094C59.183 33.2615 59.7113 34.9618 59.9006 36.8104C60.1598 38.6986 60.0502 40.6263 59.7013 42.5738C58.3656 50.423 51.2886 57.8373 42.2778 60.0418C37.7923 61.2281 32.9381 61.2775 28.3131 60.2494C23.6781 59.2312 19.2724 57.1947 15.4747 54.4366C11.6571 51.6983 8.45743 48.2284 6.05522 44.4224C3.63307 40.6263 2.05818 36.4644 1.23086 32.3816C0.792281 30.3452 0.602895 28.3087 0.503218 26.3316C0.503218 25.343 0.45338 24.3643 0.513186 23.4054C0.543089 22.9309 0.563025 22.4465 0.592928 21.9819C0.602895 21.7446 0.612863 21.5074 0.652734 21.28L0.702572 20.8648C0.812217 19.9257 0.891958 19.0458 1.05144 18.2649C1.30063 16.6831 1.62957 15.4277 1.82892 14.5874C3.52343 8.46814 5.05845 5.3146 6.39412 -0.00390625Z" fill="#E4C1A4"/>
</svg>
