<svg viewBox="0 0 86 64" fill="none" xmlns="http://www.w3.org/2000/svg">
  <path d="M0.017379 10.5692C0.775615 9.98934 1.38336 9.25035 1.99689 8.62505C2.622 8.02249 3.17187 7.27213 3.79119 6.66956C4.09796 6.33986 4.40473 6.01015 4.71728 5.66908C5.03562 5.32801 5.37712 5.05515 5.7244 4.71408C6.41897 4.02056 7.20615 3.47485 8.09172 2.84955C8.3927 2.6449 8.79786 2.44026 9.38246 2.12192C9.67765 1.96276 10.0134 1.78085 10.4185 1.64442C10.8237 1.49662 11.2809 1.32609 11.8134 1.13281C14.175 0.393819 17.4047 0.166437 20.837 0.939536C24.2751 1.71263 27.8695 3.49758 31.105 5.56676C34.3463 7.59046 37.2693 9.68237 39.4109 11.1376C41.5641 12.5701 42.9011 13.4683 42.9011 13.4683C42.9011 13.4683 44.024 14.2186 45.8877 15.3442C47.7573 16.447 50.3851 17.8795 53.4006 18.9596C56.4162 20.0283 59.8196 20.7445 63.0956 20.79C66.3717 20.8582 69.5262 20.4603 72.125 19.6758C72.8312 19.4371 73.4736 19.2097 74.0524 19.0164C74.6255 18.7777 75.1348 18.5616 75.5863 18.3684C76.0377 18.1524 76.4197 17.9363 76.7554 17.7658C77.0854 17.5839 77.369 17.4702 77.5947 17.3224C78.4919 16.7312 79.308 16.2765 80.0315 15.6398C80.3961 15.3328 80.755 15.0827 81.0849 14.753C81.409 14.4119 81.7274 14.0822 82.0399 13.7525C83.2786 12.3996 84.3494 10.717 85.3333 8.22713C84.5925 8.90928 84.0079 9.70511 83.4001 10.3645C82.7866 11.0126 82.2541 11.797 81.6464 12.4337C81.3512 12.7861 81.0502 13.1386 80.7492 13.5024C80.4424 13.8662 80.1067 14.1845 79.771 14.5483C79.1054 15.3101 78.3414 15.9467 77.4847 16.7085C77.2706 16.8904 77.0043 17.0723 76.686 17.2997C76.3619 17.5271 75.9914 17.8113 75.5515 18.0728C75.1059 18.3115 74.6081 18.5844 74.0409 18.8913C73.4736 19.1528 72.8312 19.3802 72.125 19.6531C69.532 20.5058 66.3485 20.6308 63.1304 19.8236C59.9064 19.0505 56.694 17.2315 53.8405 15.4692C50.9812 13.6729 48.4576 11.9562 46.617 10.7852C44.7764 9.61416 43.6535 8.89791 43.6535 8.89791C43.6535 8.89791 42.3107 8.03385 40.1286 6.73778C37.9465 5.45307 34.9136 3.7477 31.5102 2.41752C28.13 1.0646 24.3619 0.189176 20.8775 0.0300081C17.3873 -0.129159 14.175 0.359712 11.8192 1.14418C11.2925 1.34882 10.8295 1.51936 10.4243 1.66716C10.0191 1.80359 9.67765 1.97412 9.38246 2.11055C8.79208 2.39478 8.38112 2.54258 8.06857 2.71312C7.16563 3.22473 6.33794 3.59991 5.60285 4.13425C5.23242 4.38437 4.86777 4.58902 4.52628 4.86188C4.19057 5.1461 3.86065 5.41896 3.53652 5.69182C2.25157 6.81736 1.08817 8.24987 0.0115909 10.5805L0.017379 10.5692Z" fill="#E4C1A4"/>
  <path d="M0.0173642 31.0335C0.7756 30.4536 1.38335 29.7146 1.99688 29.0893C2.62199 28.4868 3.17186 27.7364 3.79118 27.1339C4.09794 26.8042 4.40471 26.4744 4.71727 26.1334C5.03561 25.7923 5.37711 25.5194 5.72439 25.1784C6.41896 24.4849 7.20613 23.9391 8.0917 23.3138C8.39268 23.1092 8.79785 22.9046 9.38244 22.5862C9.67763 22.4271 10.0133 22.2451 10.4185 22.1087C10.8237 21.9609 11.2809 21.7904 11.8134 21.5971C14.175 20.8581 17.4047 20.6307 20.837 21.4038C24.2751 22.1769 27.8695 23.9619 31.105 26.0311C34.3463 28.0548 37.2693 30.1467 39.4109 31.6019C41.564 33.0344 42.9011 33.9326 42.9011 33.9326C42.9011 33.9326 44.024 34.6829 45.8877 35.8085C47.7573 36.9113 50.385 38.3438 53.4006 39.4239C56.4162 40.4925 59.8196 41.2088 63.0956 41.2543C66.3717 41.3225 69.5262 40.9246 72.125 40.1401C72.8311 39.9014 73.4736 39.674 74.0524 39.4807C74.6254 39.2419 75.1348 39.0259 75.5862 38.8327C76.0377 38.6166 76.4197 38.4006 76.7554 38.2301C77.0854 38.0482 77.369 37.9345 77.5947 37.7867C78.4919 37.1955 79.308 36.7407 80.0315 36.1041C80.3961 35.7971 80.755 35.547 81.0849 35.2173C81.409 34.8762 81.7274 34.5465 82.0399 34.2168C83.2786 32.8639 84.3494 31.1813 85.3333 28.6914C84.5925 29.3736 84.0079 30.1694 83.4001 30.8288C82.7866 31.4769 82.2541 32.2613 81.6463 32.898C81.3512 33.2504 81.0502 33.6029 80.7492 33.9667C80.4424 34.3305 80.1067 34.6488 79.771 35.0126C79.1054 35.7744 78.3414 36.411 77.4847 37.1728C77.2706 37.3547 77.0043 37.5366 76.686 37.764C76.3618 37.9913 75.9914 38.2756 75.5515 38.5371C75.1058 38.7758 74.6081 39.0487 74.0408 39.3556C73.4736 39.6171 72.8311 39.8445 72.125 40.1174C69.5319 40.9701 66.3485 41.0951 63.1303 40.2879C59.9064 39.5148 56.694 37.6958 53.8405 35.9335C50.9812 34.1372 48.4576 32.4205 46.617 31.2495C44.7764 30.0785 43.6535 29.3622 43.6535 29.3622C43.6535 29.3622 42.3107 28.4981 40.1286 27.2021C37.9465 25.9174 34.9136 24.212 31.5102 22.8818C28.1184 21.4948 24.3504 20.6194 20.8659 20.4488C17.3757 20.2897 14.1634 20.7785 11.8076 21.563C11.2809 21.7676 10.8179 21.9382 10.4127 22.086C10.0076 22.2224 9.66606 22.3929 9.37087 22.5294C8.78048 22.8136 8.36953 22.9614 8.05698 23.1319C7.15404 23.6435 6.32635 24.0187 5.59126 24.5531C5.22083 24.8032 4.85618 25.0078 4.51469 25.2807C4.17898 25.5649 3.84906 25.8378 3.52493 26.1106C2.23998 27.2362 1.07658 28.6687 0 30.9994L0.0173642 31.0335Z" fill="#E4C1A4"/>
  <path d="M0.0173642 53.7717C0.7756 53.1918 1.38335 52.4528 1.99688 51.8275C2.62199 51.225 3.17186 50.4746 3.79118 49.8721C4.09794 49.5424 4.40471 49.2127 4.71727 48.8716C5.03561 48.5305 5.37711 48.2576 5.72439 47.9166C6.41896 47.2231 7.20613 46.6773 8.0917 46.052C8.39268 45.8474 8.79785 45.6428 9.38244 45.3244C9.67763 45.1652 10.0133 44.9833 10.4185 44.8469C10.8237 44.6991 11.2809 44.5286 11.8134 44.3353C14.175 43.5963 17.4047 43.3689 20.837 44.142C24.2751 44.9151 27.8695 46.7001 31.105 48.7693C34.3463 50.793 37.2693 52.8849 39.4109 54.3401C41.564 55.7726 42.9011 56.6708 42.9011 56.6708C42.9011 56.6708 44.024 57.4211 45.8877 58.5467C47.7573 59.6495 50.385 61.082 53.4006 62.1621C56.4162 63.2307 59.8196 63.947 63.0956 63.9925C66.3717 64.0607 69.5262 63.6628 72.125 62.8783C72.8311 62.6396 73.4736 62.4122 74.0524 62.2189C74.6254 61.9801 75.1348 61.7641 75.5862 61.5709C76.0377 61.3548 76.4197 61.1388 76.7554 60.9683C77.0854 60.7864 77.369 60.6727 77.5947 60.5249C78.4919 59.9337 79.308 59.4789 80.0315 58.8423C80.3961 58.5353 80.755 58.2852 81.0849 57.9555C81.409 57.6144 81.7274 57.2847 82.0399 56.955C83.2786 55.6021 84.3494 53.9195 85.3333 51.4296C84.5925 52.1118 84.0079 52.9076 83.4001 53.567C82.7866 54.2151 82.2541 54.9995 81.6463 55.6362C81.3512 55.9886 81.0502 56.3411 80.7492 56.7049C80.4424 57.0687 80.1067 57.387 79.771 57.7508C79.1054 58.5126 78.3414 59.1492 77.4847 59.911C77.2706 60.0929 77.0043 60.2748 76.686 60.5022C76.3618 60.7295 75.9914 61.0138 75.5515 61.2753C75.1058 61.514 74.6081 61.7869 74.0408 62.0938C73.4736 62.3553 72.8311 62.5827 72.125 62.8556C69.5319 63.7083 66.3485 63.8333 63.1303 63.0261C59.9064 62.253 56.694 60.434 53.8405 58.6717C50.9812 56.8754 48.4576 55.1587 46.617 53.9877C44.7764 52.8167 43.6535 52.1004 43.6535 52.1004C43.6535 52.1004 42.3107 51.2363 40.1286 49.9403C37.9465 48.6556 34.9136 46.9502 31.5102 45.62C28.1184 44.233 24.3504 43.3576 20.8659 43.187C17.3757 43.0279 14.1634 43.5167 11.8076 44.3012C11.2809 44.5058 10.8179 44.6764 10.4127 44.8242C10.0076 44.9606 9.66606 45.1311 9.37087 45.2676C8.78048 45.5518 8.36953 45.6996 8.05698 45.8701C7.15404 46.3817 6.32635 46.7569 5.59126 47.2913C5.22083 47.5414 4.85618 47.746 4.51469 48.0189C4.17898 48.3031 3.84906 48.576 3.52493 48.8488C2.23998 49.9744 1.07658 51.4069 0 53.7376L0.0173642 53.7717Z" fill="#E4C1A4"/>
</svg>
