<svg viewBox="0 0 86 64" fill="none" xmlns="http://www.w3.org/2000/svg">
  <path d="M15.5947 15.5039C19.4316 14.9858 23.4397 16.2629 26.7815 18.7569C30.1327 21.2389 32.8746 24.8654 34.5407 28.8655C35.3786 30.8534 35.9593 32.9258 36.3021 34.9499C36.6638 36.9619 36.7019 38.9258 36.6638 40.6969C36.521 44.2632 35.8165 47.1187 35.1881 48.9982C35.0453 49.4802 34.893 49.8898 34.7502 50.2392C34.6169 50.5886 34.4931 50.9019 34.3979 51.1428C34.3122 51.3958 34.217 51.5645 34.1599 51.685C34.1028 51.8055 34.0742 51.8657 34.0742 51.8657C34.0742 51.8657 33.96 52.1187 33.741 52.5886C33.5411 53.0706 33.1507 53.7091 32.7033 54.5525C31.7322 56.167 30.1803 58.4441 27.7811 60.3598C26.6006 61.3478 25.1915 62.1791 23.6492 62.8176C22.0973 63.4562 20.3931 63.8899 18.6033 63.9743C15.033 64.1791 11.1201 63.167 7.71169 60.6971C6.0075 59.4682 4.45564 57.8899 3.15132 56.0224C1.847 54.167 0.79021 52.0465 0 49.8296L0.0666442 49.7934C0.885416 51.9862 1.98029 54.0465 3.31317 55.8296C4.64605 57.6128 6.22647 59.0827 7.92114 60.1791C11.3295 62.396 15.1378 63.0948 18.5176 62.7092C20.2122 62.5285 21.8117 62.0345 23.2398 61.3718C24.6679 60.7092 25.9532 59.8899 27.029 58.9381C29.2187 57.0947 30.6278 54.9621 31.5227 53.4561C31.9321 52.6609 32.2939 52.0705 32.4843 51.6248C32.6842 51.191 32.789 50.9621 32.789 50.9621C32.789 50.9621 32.8175 50.9019 32.8651 50.7934C32.9127 50.6729 32.9984 50.5163 33.0841 50.2874C33.1698 50.0585 33.284 49.7814 33.4078 49.444C33.5411 49.1187 33.6839 48.7332 33.8172 48.2874C34.4075 46.5404 35.0929 43.9138 35.3214 40.5885C35.4071 38.9379 35.4357 37.1065 35.1691 35.2029C34.9216 33.2993 34.4741 31.2992 33.7601 29.3354C32.3605 25.3956 29.8757 21.6124 26.6386 18.9738C25.0201 17.6605 23.2208 16.6485 21.3262 16.034C19.4411 15.4195 17.4608 15.2509 15.5567 15.5159L15.5947 15.5039Z" fill="#E4C1A4"/>
  <path d="M35.7023 8.69657C39.9104 8.1303 44.3184 9.52791 47.9838 12.2629C51.6588 14.9858 54.6768 18.9617 56.4953 23.3594C57.4188 25.5522 58.0566 27.8173 58.4279 30.0342C58.8278 32.251 58.8659 34.3956 58.8278 36.3475C58.6659 40.2632 57.8948 43.3957 57.2093 45.456C57.057 45.9861 56.8856 46.4319 56.7333 46.8175C56.5809 47.203 56.4572 47.5404 56.3524 47.8054C56.2572 48.0825 56.1525 48.2633 56.0954 48.3958C56.0383 48.5283 56.0002 48.6006 56.0002 48.6006C56.0002 48.6006 55.8764 48.8777 55.6384 49.3838C55.4194 49.9139 54.991 50.6127 54.4959 51.5404C53.4296 53.3115 51.735 55.8176 49.0977 57.914C47.8029 58.9983 46.2606 59.914 44.5564 60.6128C42.8522 61.3116 40.9862 61.7935 39.0154 61.8779C35.0929 62.1068 30.7991 60.9863 27.0671 58.2875C25.201 56.9381 23.4968 55.2031 22.0688 53.1549C20.6407 51.1187 19.4792 48.7934 18.6128 46.3596L18.6794 46.3235C19.5744 48.7332 20.7835 50.9982 22.2496 52.9501C23.7158 54.9019 25.4486 56.5164 27.3146 57.7212C31.0562 60.155 35.2357 60.9261 38.9393 60.4923C40.8053 60.2995 42.5476 59.7453 44.1185 59.0224C45.6894 58.2995 47.0984 57.3959 48.279 56.3477C50.6782 54.3236 52.23 51.9862 53.2106 50.3356C53.6676 49.4681 54.058 48.8175 54.2579 48.3235C54.4769 47.8416 54.5911 47.5886 54.5911 47.5886C54.5911 47.5886 54.6197 47.5283 54.6768 47.3958C54.7339 47.2753 54.8291 47.0946 54.9148 46.8416C55.01 46.5886 55.1338 46.2873 55.2671 45.9259C55.4099 45.5644 55.5718 45.1428 55.7146 44.6608C56.362 42.7451 57.1141 39.8656 57.3616 36.2149C57.4568 34.3956 57.4854 32.3956 57.1998 30.2992C56.9332 28.2028 56.4381 26.01 55.6574 23.8534C54.1246 19.528 51.4017 15.3713 47.841 12.4918C46.0702 11.046 44.0899 9.93755 42.0144 9.27489C39.9389 8.60019 37.7777 8.41946 35.6832 8.69657H35.7023Z" fill="#E4C1A4"/>
  <path d="M58.4089 0.142262C63.3025 -0.508348 68.4341 1.10613 72.6993 4.29893C76.9836 7.46764 80.4777 12.0942 82.6007 17.2027C83.6766 19.7449 84.4097 22.3955 84.8571 24.9618C85.3236 27.5402 85.3712 30.0342 85.3141 32.3113C85.1332 36.8656 84.2288 40.5042 83.4386 42.9018C83.2577 43.5162 83.0577 44.0343 82.8768 44.4921C82.7055 44.95 82.5531 45.3355 82.4294 45.6367C82.3151 45.95 82.1914 46.1669 82.1247 46.3235C82.0581 46.4801 82.02 46.5524 82.02 46.5524C82.02 46.5524 81.8772 46.8657 81.6011 47.4681C81.344 48.0826 80.849 48.9018 80.2777 49.9741C79.0305 52.0344 77.0598 54.9501 73.9941 57.3959C72.4899 58.661 70.6905 59.7212 68.7197 60.5405C66.7394 61.3478 64.5592 61.902 62.2743 62.0225C57.7139 62.2875 52.7156 60.9863 48.3742 57.8417C46.2035 56.2754 44.2137 54.2513 42.5571 51.8778C40.891 49.5043 39.5486 46.8054 38.5394 43.9741L38.6251 43.9259C39.6723 46.7211 41.0719 49.3597 42.7761 51.6368C44.4803 53.9139 46.4986 55.7935 48.6598 57.1911C53.0107 60.0104 57.8757 60.9261 62.1886 60.42C64.3593 60.1911 66.3872 59.5526 68.2151 58.7092C70.0431 57.8658 71.6806 56.8176 73.0516 55.6007C75.8411 53.2513 77.6405 50.5284 78.7925 48.6006C79.3161 47.5886 79.7826 46.8416 80.0111 46.2633C80.2682 45.709 80.4015 45.4078 80.4015 45.4078C80.4015 45.4078 80.4396 45.3355 80.5062 45.191C80.5633 45.0464 80.6776 44.8415 80.7823 44.5524C80.8966 44.2632 81.0298 43.9018 81.1917 43.4801C81.3631 43.0584 81.544 42.5765 81.7153 42.0102C82.4675 39.7813 83.3434 36.4198 83.6385 32.1908C83.7432 30.0823 83.7813 27.745 83.4481 25.3112C83.1339 22.8775 82.5627 20.3232 81.6582 17.8172C79.8778 12.781 76.7075 7.94958 72.566 4.58809C70.5001 2.91338 68.1961 1.61216 65.7874 0.841065C63.3786 0.0579235 60.8557 -0.158946 58.4184 0.178407L58.4089 0.142262Z" fill="#E4C1A4"/>
</svg>
