<svg width="110" height="50" viewBox="0 0 110 50" fill="none" xmlns="http://www.w3.org/2000/svg">
<path d="M1 49C17.8877 36.389 34.6368 23.3805 51.8926 11.2896C52.1385 11.1174 50.9278 13.635 50.5487 14.0904C47.5761 17.6609 44.367 22.0273 42.331 26.1974C41.804 27.2768 37.9407 36.962 38.6738 37.0915C41.3172 37.5584 44.6476 35.177 46.7593 34.0261C54.5354 29.7883 62.1194 25.2934 70.2228 21.6986C79.3769 17.6377 87.7265 12.185 96.7046 7.78324C100.731 5.80913 105.065 4.32938 108.998 2.18182C109.118 2.1162 103.27 2.45557 102.168 2.64493C99.7352 3.06332 97.3542 3.67555 94.9421 4.18863C93.6515 4.46315 96.0804 3.67502 96.1318 3.65936C97.4865 3.24667 105.504 -0.15768 106.398 1.40997C108.108 4.4038 103.361 8.9903 102.212 11.2896C102.079 11.5562 102.023 13.7724 102.917 12.8774" stroke="url(#paint0_linear_4402_24481)" stroke-width="2" stroke-linecap="round"/>
<defs>
<linearGradient id="paint0_linear_4402_24481" x1="117" y1="-8" x2="0.999996" y2="58" gradientUnits="userSpaceOnUse">
<stop offset="0.271222" stop-color="#D9EAF9"/>
<stop offset="1" stop-color="#D9EAF9" stop-opacity="0"/>
</linearGradient>
</defs>
</svg>
