<svg width="52" height="66" viewBox="0 0 52 66" fill="none" xmlns="http://www.w3.org/2000/svg">
<path d="M16.5828 41.3738C7.73286 34.9397 1.97898 24.4323 1.27599 13.4633C1.13877 10.8085 1.05209 7.85743 2.20287 5.44553C3.64254 2.32925 7.25377 1.34554 10.4437 1.45484C20.8512 1.57386 29.6722 10.6385 29.7276 21.2018C29.7228 21.2771 29.8335 21.2917 29.8552 21.2261C31.4899 18.2191 33.2883 15.0931 36.1315 13.1694C40.7539 9.96571 45.7976 11.5129 48.6215 16.2274C50.9303 20.2132 50.6799 25.1974 49.6712 29.5645C47.8656 37.0261 43.1036 43.3995 37.3617 48.2841C34.675 50.4749 32.0219 52.7484 29.0752 54.6065C26.8844 56.0638 24.1976 56.7245 22.2957 58.6118C20.8079 60.0934 20.1723 62.9085 22.0381 64.3658C24.0532 65.8572 27.1612 64.9706 28.3963 62.8526C29.3978 61.2908 29.6554 59.389 29.6217 57.5746C29.458 52.1873 27.3538 47.072 24.8212 42.4328C22.0309 37.0553 14.6833 26.9826 14.5027 21.2893C14.6231 18.0977 18.126 17.641 20.2782 19.3194C21.3375 20.0821 22.1898 21.1119 23.0011 22.1321C24.3493 23.8566 25.476 25.7584 26.3668 27.7598C27.7824 30.9709 28.5431 34.466 28.5792 37.9467C28.5792 38.1701 28.7622 38.3499 28.9837 38.3426C29.2052 38.3353 29.3761 38.1434 29.3617 37.9199C29.0583 33.6038 30.2091 29.1079 32.5684 25.4524C34.2489 22.8656 36.9717 22.29 38.9531 24.918C40.0172 26.3268 40.4481 28.1193 40.4457 29.8706C40.4891 33.3876 38.9362 36.8804 36.4228 39.302C35.1589 40.514 33.647 41.471 31.9906 42.0321C33.647 41.4734 35.1637 40.5189 36.43 39.3093C38.8857 36.963 40.3976 33.6135 40.4891 30.1985C40.4746 29.2196 40.4241 28.1946 40.1448 27.2522C39.4779 24.7529 37.0969 22.0689 34.3789 23.57C31.8606 25.0346 30.0141 29.8657 29.3039 32.6395C28.873 34.364 28.6394 36.1396 28.5817 37.9345L29.3617 37.9078C29.2293 36.5695 29.0535 35.2409 28.7502 33.9317C27.7005 29.1686 25.4808 24.6727 22.2981 21.0002C21.1594 19.6838 19.7486 18.3527 17.9334 18.1827C17.0498 18.1025 16.1061 18.2944 15.3935 18.8725C13.9056 20.0894 14.1632 22.2802 14.676 23.9198C15.7546 27.3008 17.3628 30.4681 19.0745 33.5479C22.4883 39.6493 26.4366 45.5807 28.1411 52.4448C28.9693 56.0177 29.8889 62.0924 26.0971 64.1764C24.8308 64.8103 23.1263 64.8467 22.014 63.8776C20.5142 62.4956 21.1136 60.0448 22.4065 58.7113C23.6126 57.4216 25.281 56.7464 26.841 55.9958L29.2269 54.8785C30.8206 54.1353 32.4264 53.3823 33.9648 52.4909C41.5941 47.9464 47.3119 40.1958 49.6399 31.5999C51.2962 25.1391 52.0257 15.9044 45.954 11.5324C42.6895 9.17875 38.486 9.77626 35.4189 12.1614C32.5227 14.3596 30.8519 17.7989 29.7372 21.1751C29.7324 21.1775 29.8624 21.2042 29.8624 21.2042C29.9274 19.2538 29.6963 17.2791 29.1883 15.3846C27.9485 10.7138 25.0138 6.50939 20.986 3.86188C16.6357 0.947203 10.2415 -0.668017 5.21945 1.28725C0.96302 2.96319 -0.00719452 7.43237 0.257629 11.5712C0.327446 12.3558 0.365963 13.4269 0.481522 14.1896C0.613934 15.4113 0.890793 16.8662 1.14598 18.0637C1.80564 20.7986 2.73011 23.5214 3.92663 26.0669C6.76264 32.1392 11.1419 37.5022 16.5852 41.3714L16.5828 41.3738Z" fill="#C4E0FA"/>
<path d="M17.305 41.3738C8.98957 35.3113 2.92271 25.8823 1.51192 15.5813C0.573006 8.10032 1.11951 1.36254 10.3185 1.44999C16.2048 1.54471 22.0285 4.46668 25.5892 9.2249C28.1844 12.6424 29.6361 16.8759 29.73 21.2042C29.73 21.2771 29.8335 21.2893 29.8552 21.2261C30.6954 19.6886 31.5404 18.1657 32.5468 16.7788C35.3154 12.7395 40.4987 9.73983 45.0825 12.5914C47.9739 14.3037 49.6423 17.6022 50.6318 20.7549C52.4591 27.1065 48.6721 35.0247 44.9501 40.0477C42.4271 43.5283 39.4514 46.6737 36.1339 49.3892C34.1863 50.968 32.1086 52.7897 30.0069 54.1572C27.8739 55.6728 25.2521 56.4039 23.3622 58.2741C22.0646 59.4473 21.1666 61.3491 21.8239 63.1004C22.5485 65.0192 24.7249 65.5997 26.4583 64.6621C30.6906 62.2648 29.7132 56.2873 28.9861 52.2577C27.9702 47.0356 25.6229 42.2094 22.8326 37.7499C20.1458 33.2832 17.3339 28.8067 15.6438 23.8469C15.2707 22.6324 14.9962 21.282 15.4801 20.0724C15.9616 18.8433 17.3146 18.2458 18.5762 18.3673C21.1666 18.6053 22.9939 21.1265 24.4119 23.1012C27.349 27.4319 28.5528 32.7512 28.5817 37.9467C28.5961 38.4786 29.3809 38.464 29.3617 37.9199C29.1282 34.4248 30.3391 30.9563 31.916 27.8691C32.7346 26.3438 33.5218 24.646 35.0265 23.6963C37.6843 22.0641 40.1063 24.6946 40.8044 27.1793C41.5243 29.737 41.168 32.5302 40.14 34.9518C38.7581 38.1944 36.0641 40.9172 32.7129 42.0321C37.7542 40.3586 41.2883 35.1121 41.2113 29.7928C41.1969 28.0246 40.7491 26.2175 39.6488 24.8087C38.551 23.3125 36.6467 22.5984 34.988 23.6356C33.8396 24.3327 33.0909 25.501 32.4216 26.6353C31.2949 28.5444 30.3054 30.5312 29.5832 32.6444C29.0102 34.3349 28.6394 36.1104 28.5768 37.9369L29.3569 37.9102C29.0559 34.3908 28.3626 30.8907 27.0361 27.6311C26.049 25.1901 24.6839 22.8972 22.9457 20.9249C22.3703 20.2667 21.7516 19.6327 21.0294 19.1251C19.3153 17.7795 16.2457 17.7042 15.2755 19.9874C13.3351 24.5343 22.7218 37.9151 24.8669 42.6077C26.3981 45.7167 27.5705 49.0055 28.247 52.4083C28.6972 54.9295 29.1089 57.5455 28.6972 60.0861C28.4228 61.7086 27.6355 63.336 26.1934 64.1739C25.151 64.7957 23.733 64.8395 22.8085 63.9869C21.0944 62.4567 21.9033 59.7363 23.4537 58.3786C25.228 56.5642 27.9774 55.6558 30.2043 54.5263C32.1736 53.5815 34.1574 52.5808 35.9582 51.308C37.0127 50.5891 38.084 49.6491 39.0446 48.7966C45.6338 42.6466 50.9423 33.7787 51.4744 24.6071C51.5996 21.4787 50.6366 18.4256 49.3438 15.6105C47.8824 12.4481 44.6973 9.90742 41.1222 10.0313C35.0024 10.3058 31.4201 15.8267 29.7348 21.1775L29.86 21.2042C29.9082 19.4627 29.7541 17.7018 29.3352 15.9991C28.1507 10.8328 24.8717 6.1912 20.3553 3.45869C14.1994 -0.517425 1.7623 -1.88975 0.414112 7.77242C0.014473 10.4151 0.288925 13.0966 0.707825 15.7076C2.58566 26.0232 8.86438 35.372 17.305 41.3714V41.3738Z" fill="#C4E0FA"/>
<path d="M18.0273 41.3738C9.72144 35.287 3.24049 26.1131 1.57452 15.7902C1.06173 12.0133 0.587452 6.66241 3.38494 3.74044C6.40633 0.794182 11.385 1.17309 15.184 2.16651C23.6535 4.47154 29.588 12.3728 29.73 21.2018C29.7252 21.2795 29.8335 21.2917 29.8552 21.2285C30.6858 19.708 31.5212 18.1973 32.5155 16.8225C36.7358 10.7478 43.874 9.11317 48.3808 15.8485C51.3251 20.7525 51.8452 25.1318 50.0997 30.5919C48.5301 35.5202 45.4461 39.7708 42.1021 43.6254C39.8896 46.2244 37.3858 48.5172 34.7978 50.7203C32.8742 52.3938 30.8664 54.0697 28.613 55.3036C27.8618 55.7286 27.0673 56.0614 26.321 56.4986C25.5699 56.9334 24.8934 57.4872 24.2699 58.0871C23.6343 58.6773 23.0469 59.3526 22.705 60.1687C21.3809 62.8769 23.7739 66.5227 26.7496 64.531C29.1137 63.0129 29.7397 59.9598 29.6217 57.3196C29.3304 51.2036 27.7174 45.1241 24.5732 39.8655C21.5374 34.6798 18.2752 29.4844 16.3396 23.7594C15.4416 21.1022 15.9737 18.224 19.3128 18.3673C21.8527 18.6053 23.7234 21.0852 25.074 23.0623C27.9076 27.4417 28.5528 32.8217 28.5817 37.9467C28.5961 38.481 29.3858 38.4616 29.3617 37.9175C29.2365 36.2051 29.6217 34.4539 30.2236 32.8047C31.136 30.3175 32.4986 27.9906 33.842 25.7123C35.4213 23.1085 38.1153 22.1199 40.2603 24.7383C43.0241 28.3015 42.0082 33.7277 39.6176 37.2301C38.1297 39.4331 35.9582 41.1917 33.4375 42.0321C38.5101 40.3488 42.0515 35.049 41.936 29.6981C41.9047 27.9177 41.4304 26.1058 40.2965 24.7091C39.1553 23.2129 37.2053 22.6081 35.5802 23.7206C34.0803 24.731 33.3027 26.441 32.3638 27.9299C31.4514 29.4552 30.5678 31.0073 29.8624 32.6589C29.1595 34.3057 28.637 36.074 28.5841 37.9369C28.5841 37.9369 29.3665 37.9102 29.3641 37.9102C28.8248 31.1287 27.3875 23.519 21.7492 19.1202C20.3601 18.0904 18.2752 17.7358 16.8356 18.8798C15.3718 20.0699 15.6005 22.222 16.094 23.8372C17.6806 28.8188 20.2349 33.3852 22.7917 37.9054C23.5452 39.2121 24.6141 41.0994 25.2521 42.4474C26.7231 45.5467 27.7342 48.8524 28.3048 52.2383C28.8224 56.042 29.9178 61.4074 26.4342 64.0695C24.8886 65.2694 23.3141 64.4411 22.7074 62.7093C22.457 61.9175 22.5654 61.0309 22.8759 60.2464C23.1841 59.4352 23.7498 58.7866 24.3613 58.1891C24.9632 57.577 25.6421 57.0427 26.3812 56.6128C27.6668 55.8987 29.6819 55.0048 31.0204 54.3296C34.1718 52.8431 37.1378 50.8927 39.5887 48.3788C46.4283 41.4589 53.3667 30.4778 50.9688 20.3493C50.1551 16.9027 48.7636 13.2447 45.6218 11.304C42.35 9.1496 38.1755 9.93657 35.26 12.2805C32.4408 14.532 30.8399 17.8426 29.7324 21.1751L29.8576 21.2018C29.9058 19.453 29.7493 17.6848 29.328 15.9772C28.1339 10.7891 24.8236 6.13776 20.2758 3.41254C14.9385 0.0436512 4.22757 -1.8266 1.09784 5.31922C0.380409 7.00731 0.204662 8.84842 0.214291 10.6507C0.536896 23.0624 8.24565 34.3495 18.0224 41.369L18.0273 41.3738Z" fill="#C4E0FA"/>
</svg>
