<svg width="79" height="72" viewBox="0 0 79 72" fill="none" xmlns="http://www.w3.org/2000/svg">
<path d="M75.8556 16.143C74.9099 13.5826 73.6652 11.6723 72.7034 10.4523C71.7254 9.24033 71.103 8.61427 71.103 8.61427C71.103 8.61427 70.7312 8.25308 70.0442 7.58689C69.6805 7.28189 69.244 6.89662 68.7187 6.47123C68.161 6.08596 67.5628 5.58832 66.8112 5.16293C65.3563 4.25595 63.4973 3.34094 61.2826 2.73093C59.0842 2.1129 56.522 1.81593 53.879 2.12093C51.2521 2.40988 48.5768 3.22054 46.1277 4.50476C43.6949 5.81306 41.4641 7.52268 39.6374 9.52125C39.5889 9.56941 39.5485 9.62559 39.5081 9.67375C39.4677 9.62559 39.4273 9.56941 39.3788 9.52125C37.5521 7.52268 35.3213 5.81306 32.8884 4.50476C30.4394 3.22054 27.764 2.40988 25.1372 2.12093C22.4942 1.81593 19.932 2.1129 17.7335 2.73093C15.5189 3.34094 13.6599 4.25595 12.205 5.16293C11.4533 5.58832 10.8552 6.08596 10.2975 6.47123C9.77215 6.89662 9.33569 7.28189 8.97197 7.58689C8.28495 8.25308 7.91315 8.61427 7.91315 8.61427C7.91315 8.61427 7.29079 9.24033 6.31279 10.4523C5.35096 11.6723 4.10624 13.5826 3.16057 16.143C2.25532 18.7034 1.71378 21.9541 2.15833 25.3573C2.23915 26.2161 2.43313 27.0669 2.61095 27.9338C2.85343 28.7846 3.07974 29.6514 3.41921 30.4942C4.05774 32.1797 4.89025 33.8492 5.95715 35.3742C7.20996 37.1721 8.75374 38.8175 10.4834 40.166C12.0029 42.0843 13.668 43.4889 16.0281 45.7282C16.7879 46.4426 18.2427 47.8151 20.4897 50.1267C22.2355 51.9166 24.2885 54.0917 26.3658 56.3953C28.443 58.6908 30.6819 60.1998 32.5813 62.3669C34.4726 64.534 36.0406 65.746 37.2773 67.1105C37.6087 67.4717 37.9077 67.8008 38.1664 68.0897C38.6917 68.6435 39.1444 69.1171 39.5162 69.5024C39.7021 69.687 39.8718 69.8957 40.0092 70C40.1466 69.8395 40.2598 69.703 40.3568 69.5907C40.5427 69.3659 40.6397 69.2535 40.6397 69.2535C40.6397 69.2535 40.7609 69.1171 40.9791 68.8522C41.1893 68.6275 41.4964 68.2984 41.8925 67.865C42.2966 67.4155 42.8785 66.7573 43.5979 65.9547C45.0285 64.3334 48.205 61.6044 50.355 59.1564C52.5049 56.7003 55.8107 53.6824 55.8107 53.6824C55.8107 53.6824 60.0864 48.995 61.6383 47.3496C63.2952 45.5918 64.1035 44.757 64.6127 44.2514C65.3563 43.5049 66.0352 42.8468 66.6576 42.2368C67.2719 41.6348 67.8942 41.081 68.4034 40.471C68.5893 40.2542 68.7672 40.0375 68.953 39.8288C70.5049 38.5446 71.8951 37.0357 73.0429 35.3903C74.1098 33.8652 74.9423 32.1958 75.5808 30.5102C75.9203 29.6675 76.1466 28.8006 76.3891 27.9498C76.5669 27.083 76.7609 26.2322 76.8417 25.3733C77.2862 21.9702 76.7447 18.7195 75.8394 16.1591L75.8556 16.143ZM74.522 25.1727C74.4816 26.7137 74.2552 28.319 73.8107 29.9243C73.3742 31.5215 72.76 33.1429 71.9032 34.6599C71.103 36.0966 70.1008 37.4691 68.9369 38.6971L68.9126 38.7373C68.5408 39.1386 68.1852 39.5479 67.8376 39.9813C67.3689 40.5994 66.8273 41.1532 66.2454 41.8194C65.6634 42.4695 65.033 43.1758 64.3136 43.9464C63.8287 44.4681 63.0204 45.3109 61.3312 47.0365C59.747 48.6579 57.597 50.817 55.2288 53.1205C52.8606 55.4161 50.2903 57.8641 47.9221 60.1035C45.562 62.3509 43.4039 64.4056 41.844 65.8985C41.068 66.645 40.4376 67.255 40.0011 67.6804L39.9607 67.6402L39.8556 67.5439C39.7829 67.4797 39.7101 67.4075 39.6374 67.3352C39.4838 67.1908 39.3222 67.0463 39.1525 66.8858C37.8027 65.6256 35.9113 63.8919 33.7613 61.9656C31.6195 60.0312 29.2351 57.9123 26.9639 55.8013C24.6927 53.6984 22.5427 51.6035 20.7807 49.8377C18.4933 47.5582 17.1516 46.0814 16.4403 45.3109C15.0178 43.7537 13.9266 42.5097 12.8193 41.394C12.1969 40.7679 11.5827 40.174 10.8956 39.6041L10.734 39.3713C9.28719 37.9828 8.05863 36.3695 7.0968 34.6599C6.24005 33.1429 5.62577 31.5215 5.18931 29.9243C4.74476 28.319 4.51845 26.7137 4.47804 25.1727C4.42146 24.4102 4.4942 23.6557 4.51037 22.9333C4.59927 22.211 4.64777 21.5046 4.80134 20.8304C5.02765 19.482 5.46411 18.27 5.87633 17.1784C6.79775 15.0193 7.89698 13.406 8.75374 12.3626C9.61858 11.3272 10.1601 10.7894 10.1601 10.7894C10.1601 10.7894 10.4834 10.4764 11.0734 9.89849C11.3887 9.63362 11.7766 9.30454 12.2293 8.9273C12.7142 8.59019 13.2234 8.14874 13.862 7.76347C15.0986 6.93675 16.6828 6.07793 18.566 5.41174C20.4412 4.74555 22.6316 4.272 24.9998 4.272C27.368 4.26397 29.914 4.68134 32.3631 5.6124C34.7959 6.55951 37.1399 7.97216 39.0878 9.79415C39.1444 9.85033 39.2009 9.89849 39.2494 9.95467C39.3303 10.0269 39.4111 10.1072 39.4919 10.1955C39.5727 10.1072 39.6536 10.0269 39.7344 9.95467C39.7829 9.89849 39.8395 9.85033 39.896 9.79415C41.844 7.97216 44.1879 6.55951 46.6208 5.6124C49.0698 4.68134 51.6158 4.26397 53.9841 4.272C56.3523 4.272 58.5426 4.74555 60.4178 5.41174C62.3011 6.07793 63.8853 6.93675 65.1219 7.76347C65.7604 8.14874 66.2696 8.59019 66.7546 8.9273C67.2072 9.30454 67.5952 9.63362 67.9104 9.89849C68.5004 10.4764 68.8237 10.7894 68.8237 10.7894C68.8237 10.7894 69.3653 11.3272 70.2301 12.3626C71.0869 13.406 72.1861 15.0193 73.1075 17.1784C73.5197 18.27 73.9562 19.482 74.1825 20.8304C74.3361 21.5046 74.3765 22.211 74.4735 22.9333C74.4896 23.6557 74.5624 24.4102 74.5058 25.1727H74.522Z" fill="#E4C1A4"/>
<path d="M60.3439 24.9034C59.8017 23.4726 59.0881 22.4051 58.5366 21.7233C57.9759 21.0461 57.6191 20.6962 57.6191 20.6962C57.6191 20.6962 57.4059 20.4944 57.012 20.1221C56.8035 19.9516 56.5532 19.7363 56.252 19.4986C55.9323 19.2833 55.5894 19.0052 55.1584 18.7675C54.3243 18.2607 53.2584 17.7493 51.9887 17.4085C50.7283 17.0631 49.2593 16.8971 47.7439 17.0676C46.2379 17.229 44.704 17.6821 43.2999 18.3997C41.9051 19.1308 40.6261 20.0862 39.5788 21.2031C39.551 21.23 39.5278 21.2614 39.5046 21.2883C39.4815 21.2614 39.4583 21.23 39.4305 21.2031C38.3832 20.0862 37.1042 19.1308 35.7094 18.3997C34.3053 17.6821 32.7714 17.229 31.2653 17.0676C29.75 16.8971 28.281 17.0631 27.0206 17.4085C25.7508 17.7493 24.685 18.2607 23.8509 18.7675C23.4199 19.0052 23.077 19.2833 22.7572 19.4986C22.456 19.7363 22.2058 19.9516 21.9973 20.1221C21.6034 20.4944 21.3902 20.6962 21.3902 20.6962C21.3902 20.6962 21.0334 21.0461 20.4727 21.7233C19.9212 22.4051 19.2076 23.4726 18.6654 24.9034C18.1464 26.3343 17.8359 28.1508 18.0908 30.0526C18.1371 30.5325 18.2483 31.008 18.3503 31.4924C18.4893 31.9678 18.6191 32.4523 18.8137 32.9232C19.1798 33.8651 19.6571 34.7981 20.2688 35.6503C20.987 36.655 21.8721 37.5745 22.8638 38.328C23.735 39.4 24.6896 40.185 26.0428 41.4364C26.4784 41.8356 27.3125 42.6026 28.6008 43.8943C29.6017 44.8946 30.7788 46.1101 31.9697 47.3974C33.1606 48.6802 34.4443 49.5234 35.5333 50.7345C36.6176 51.9455 37.5166 52.6228 38.2256 53.3853C38.4156 53.5871 38.5871 53.771 38.7354 53.9325C39.0366 54.242 39.2961 54.5066 39.5093 54.7219C39.6159 54.8251 39.7132 54.9417 39.7919 55C39.8707 54.9103 39.9356 54.834 39.9912 54.7712C40.0978 54.6457 40.1534 54.5829 40.1534 54.5829C40.1534 54.5829 40.2229 54.5066 40.348 54.3586C40.4685 54.233 40.6446 54.0491 40.8717 53.8069C41.1034 53.5557 41.437 53.1879 41.8495 52.7394C42.6697 51.8334 44.4909 50.3083 45.7235 48.9403C46.9562 47.5678 48.8515 45.8813 48.8515 45.8813C48.8515 45.8813 51.3029 43.2619 52.1926 42.3424C53.1426 41.3601 53.606 40.8936 53.8979 40.6111C54.3243 40.1939 54.7135 39.8261 55.0704 39.4852C55.4225 39.1488 55.7794 38.8394 56.0713 38.4985C56.1779 38.3774 56.2798 38.2563 56.3864 38.1397C57.2761 37.422 58.0732 36.5788 58.7312 35.6593C59.3429 34.8071 59.8202 33.8741 60.1863 32.9322C60.381 32.4612 60.5107 31.9768 60.6497 31.5014C60.7517 31.0169 60.8629 30.5415 60.9092 30.0616C61.1641 28.1598 60.8536 26.3432 60.3346 24.9124L60.3439 24.9034ZM59.5793 29.9494C59.5561 30.8106 59.4263 31.7077 59.1715 32.6048C58.9212 33.4973 58.569 34.4034 58.0778 35.2511C57.6191 36.054 57.0444 36.821 56.3771 37.5072L56.3632 37.5296C56.1501 37.7539 55.9462 37.9827 55.7469 38.2249C55.4781 38.5702 55.1677 38.8797 54.834 39.252C54.5004 39.6153 54.1389 40.01 53.7265 40.4406C53.4484 40.7322 52.985 41.2031 52.0165 42.1675C51.1083 43.0735 49.8756 44.2801 48.5178 45.5674C47.1601 46.8502 45.6864 48.2182 44.3287 49.4696C42.9755 50.7255 41.7382 51.8737 40.8439 52.708C40.399 53.1251 40.0375 53.466 39.7873 53.7037L39.7641 53.6813L39.7039 53.6275C39.6622 53.5916 39.6205 53.5512 39.5788 53.5109C39.4907 53.4301 39.3981 53.3494 39.3007 53.2597C38.5269 52.5555 37.4425 51.5867 36.2098 50.5102C34.9818 49.4292 33.6148 48.2451 32.3126 47.0655C31.0105 45.8903 29.7778 44.7196 28.7676 43.7329C27.4562 42.459 26.6869 41.6337 26.2791 41.2031C25.4635 40.333 24.8379 39.6378 24.2031 39.0143C23.8462 38.6644 23.4941 38.3325 23.1002 38.0141L23.0075 37.884C22.178 37.108 21.4736 36.2065 20.9222 35.2511C20.431 34.4034 20.0788 33.4973 19.8285 32.6048C19.5737 31.7077 19.4439 30.8106 19.4207 29.9494C19.3883 29.5233 19.43 29.1017 19.4393 28.698C19.4903 28.2944 19.5181 27.8996 19.6061 27.5229C19.7359 26.7693 19.9861 26.0921 20.2224 25.4821C20.7507 24.2755 21.3809 23.3739 21.8721 22.7909C22.368 22.2122 22.6785 21.9117 22.6785 21.9117C22.6785 21.9117 22.8638 21.7368 23.2021 21.4139C23.3828 21.2658 23.6053 21.0819 23.8648 20.8711C24.1428 20.6828 24.4348 20.4361 24.8009 20.2208C25.5099 19.7588 26.4181 19.2788 27.4979 18.9066C28.573 18.5343 29.8288 18.2696 31.1865 18.2696C32.5443 18.2652 34.004 18.4984 35.4081 19.0187C36.803 19.548 38.1469 20.3374 39.2637 21.3556C39.2961 21.3869 39.3285 21.4139 39.3563 21.4453C39.4027 21.4856 39.449 21.5305 39.4954 21.5798C39.5417 21.5305 39.588 21.4856 39.6344 21.4453C39.6622 21.4139 39.6946 21.3869 39.7271 21.3556C40.8439 20.3374 42.1877 19.548 43.5826 19.0187C44.9867 18.4984 46.4464 18.2652 47.8042 18.2696C49.162 18.2696 50.4178 18.5343 51.4929 18.9066C52.5726 19.2788 53.4809 19.7588 54.1899 20.2208C54.556 20.4361 54.8479 20.6828 55.126 20.8711C55.3855 21.0819 55.6079 21.2658 55.7886 21.4139C56.1269 21.7368 56.3123 21.9117 56.3123 21.9117C56.3123 21.9117 56.6227 22.2122 57.1186 22.7909C57.6098 23.3739 58.24 24.2755 58.7683 25.4821C59.0046 26.0921 59.2549 26.7693 59.3846 27.5229C59.4727 27.8996 59.4958 28.2944 59.5515 28.698C59.5607 29.1017 59.6024 29.5233 59.57 29.9494H59.5793Z" fill="#E4C1A4"/>
</svg>
