<svg width="87" height="51" viewBox="0 0 87 51" fill="none" xmlns="http://www.w3.org/2000/svg">
<path d="M15.8993 12.3547C19.8111 11.9418 23.8975 12.9595 27.3045 14.9469C30.7212 16.9247 33.5167 19.8146 35.2154 23.0022C36.0695 24.5863 36.6616 26.2377 37.0111 27.8507C37.3799 29.4541 37.4188 31.019 37.3799 32.4304C37.2343 35.2723 36.516 37.5477 35.8754 39.0455C35.7298 39.4295 35.5745 39.7559 35.4289 40.0344C35.293 40.3128 35.1668 40.5624 35.0698 40.7544C34.9824 40.9561 34.8853 41.0905 34.8271 41.1865C34.7689 41.2825 34.7397 41.3305 34.7397 41.3305C34.7397 41.3305 34.6233 41.5321 34.4 41.9066C34.1962 42.2906 33.7982 42.7994 33.342 43.4715C32.3519 44.7581 30.7698 46.5726 28.3237 48.0992C27.1201 48.8865 25.6835 49.549 24.1111 50.0578C22.5289 50.5667 20.7914 50.9123 18.9666 50.9795C15.3266 51.1427 11.3372 50.3362 7.86231 48.368C6.12483 47.3887 4.54267 46.131 3.21287 44.6428C1.88307 43.1643 0.805644 41.4745 0 39.7079L0.0679459 39.6791C0.902709 41.4265 2.01896 43.0683 3.37788 44.4892C4.7368 45.9102 6.34808 47.0815 8.07585 47.9552C11.5508 49.7218 15.4334 50.2786 18.8792 49.9714C20.607 49.8274 22.2377 49.4337 23.6937 48.9057C25.1497 48.3776 26.4601 47.7248 27.5569 46.9663C29.7894 45.4973 31.226 43.798 32.1384 42.5978C32.5558 41.9642 32.9246 41.4937 33.1187 41.1385C33.3226 40.7928 33.4294 40.6104 33.4294 40.6104C33.4294 40.6104 33.4585 40.5624 33.507 40.476C33.5555 40.38 33.6429 40.2552 33.7303 40.0728C33.8176 39.8904 33.9341 39.6695 34.0603 39.4007C34.1962 39.1415 34.3418 38.8342 34.4777 38.479C35.0795 37.0869 35.7783 34.9938 36.0113 32.344C36.0987 31.0286 36.1278 29.5693 35.856 28.0523C35.6036 26.5353 35.1474 24.9416 34.4194 23.3766C32.9926 20.2371 30.4592 17.2224 27.1589 15.1197C25.5088 14.0732 23.6743 13.2667 21.7427 12.7771C19.8208 12.2874 17.8018 12.153 15.8605 12.3643L15.8993 12.3547Z" fill="#C4E0FA"/>
<path d="M36.3996 6.93008C40.6899 6.47883 45.184 7.59255 48.921 9.77198C52.6677 11.9418 55.7447 15.1101 57.5987 18.6145C58.5402 20.3619 59.1905 22.1669 59.5691 23.9335C59.9768 25.7001 60.0156 27.409 59.9768 28.9644C59.8118 32.0847 59.0255 34.581 58.3267 36.2228C58.1714 36.6452 57.9966 37.0004 57.8413 37.3077C57.686 37.6149 57.5598 37.8837 57.4531 38.095C57.356 38.3158 57.2492 38.4598 57.191 38.5654C57.1328 38.671 57.0939 38.7286 57.0939 38.7286C57.0939 38.7286 56.9677 38.9494 56.7251 39.3527C56.5018 39.7751 56.065 40.332 55.5603 41.0713C54.4732 42.4826 52.7454 44.4796 50.0567 46.1502C48.7366 47.0143 47.1641 47.744 45.4267 48.3008C43.6892 48.8577 41.7867 49.2417 39.7774 49.3089C35.7783 49.4914 31.4007 48.5985 27.5957 46.4478C25.6932 45.3725 23.9558 43.99 22.4998 42.3578C21.0438 40.7352 19.8596 38.8822 18.9763 36.9428L19.0443 36.914C19.9567 38.8342 21.1894 40.6392 22.6842 42.1946C24.179 43.75 25.9456 45.0365 27.8481 45.9966C31.6628 47.936 35.9239 48.5505 39.6998 48.2048C41.6023 48.0512 43.3786 47.6096 44.9802 47.0335C46.5817 46.4574 48.0183 45.7374 49.2219 44.9021C51.668 43.2891 53.2501 41.4265 54.2499 40.1112C54.7158 39.4199 55.1138 38.9014 55.3176 38.5078C55.5409 38.1238 55.6574 37.9221 55.6574 37.9221C55.6574 37.9221 55.6865 37.8741 55.7447 37.7685C55.803 37.6725 55.9 37.5285 55.9874 37.3269C56.0844 37.1253 56.2106 36.8852 56.3465 36.5972C56.4921 36.3092 56.6571 35.9731 56.8027 35.5891C57.4628 34.0625 58.2296 31.7679 58.482 28.8588C58.579 27.409 58.6081 25.8153 58.317 24.1447C58.0452 22.4741 57.5404 20.7267 56.7445 19.0082C55.1817 15.5614 52.4057 12.249 48.7754 9.9544C46.97 8.80228 44.951 7.91899 42.835 7.39093C40.719 6.85327 38.5156 6.70926 36.3801 6.93008H36.3996Z" fill="#C4E0FA"/>
<path d="M59.5497 0.113365C64.5388 -0.40509 69.7707 0.881445 74.1192 3.42571C78.4872 5.95078 82.0495 9.63757 84.214 13.7084C85.3109 15.7342 86.0583 17.8464 86.5145 19.8914C86.9901 21.9461 87.0386 23.9335 86.9804 25.7481C86.796 29.3772 85.8738 32.2767 85.0682 34.1874C84.8838 34.677 84.6799 35.0898 84.4955 35.4547C84.3208 35.8195 84.1655 36.1268 84.0393 36.3668C83.9228 36.6164 83.7967 36.7892 83.7287 36.914C83.6608 37.0388 83.6219 37.0965 83.6219 37.0965C83.6219 37.0965 83.4763 37.3461 83.1948 37.8261C82.9328 38.3158 82.428 38.9687 81.8456 39.8231C80.5741 41.4649 78.5648 43.7884 75.4393 45.7374C73.9057 46.7455 72.0711 47.5904 70.0619 48.2432C68.0429 48.8865 65.8201 49.3281 63.4905 49.4242C58.8411 49.6354 53.7452 48.5985 49.319 46.0926C47.1059 44.8445 45.0772 43.2315 43.3883 41.3401C41.6896 39.4487 40.321 37.2981 39.2921 35.0418L39.3795 35.0034C40.4472 37.2309 41.8741 39.3335 43.6115 41.1481C45.349 42.9627 47.4068 44.4604 49.6102 45.5741C54.0461 47.8208 59.0061 48.5505 63.4032 48.1472C65.6163 47.9648 67.6838 47.4559 69.5474 46.7839C71.4111 46.1118 73.0806 45.2765 74.4784 44.3068C77.3224 42.4346 79.1569 40.2648 80.3314 38.7286C80.8653 37.9221 81.3409 37.3269 81.5739 36.866C81.8359 36.4244 81.9718 36.1844 81.9718 36.1844C81.9718 36.1844 82.0106 36.1268 82.0786 36.0115C82.1368 35.8963 82.2533 35.7331 82.3601 35.5027C82.4766 35.2723 82.6124 34.9842 82.7775 34.6482C82.9522 34.3122 83.1366 33.9281 83.3113 33.4769C84.0781 31.7007 84.9711 29.022 85.272 25.652C85.3788 23.9719 85.4176 22.1093 85.0779 20.1699C84.7576 18.2305 84.1752 16.1951 83.2531 14.198C81.438 10.1848 78.2057 6.33482 73.9833 3.65614C71.877 2.3216 69.528 1.28469 67.0723 0.670223C64.6165 0.0461578 62.0443 -0.12666 59.5594 0.142168L59.5497 0.113365Z" fill="#C4E0FA"/>
</svg>
