<svg width="150" height="41" viewBox="0 0 150 41" fill="none" xmlns="http://www.w3.org/2000/svg">
<path d="M109.727 41C108.661 39.2302 107.551 38.0003 106.347 36.7369C105.138 35.4792 103.801 34.2158 102.163 32.5295C101.605 31.9619 100.717 31.0157 98.8816 29.0289C95.1711 25.0274 88.9934 18.1987 83.8569 12.2382C81.2862 9.26076 78.9671 6.50591 77.3043 4.48568C76.8898 3.97923 76.5148 3.52287 76.1842 3.1166C76.0214 2.91625 75.8684 2.72703 75.7253 2.54893C75.6562 2.45989 75.5872 2.37641 75.523 2.29849L75.4737 2.23727L75.3849 2.13153C75.3207 2.05918 75.2615 1.98683 75.1974 1.92005C74.9556 1.64178 74.7434 1.39134 74.5559 1.17986C74.3635 0.940546 74.2007 0.734627 74.0674 0.573232C73.8059 0.244876 73.6678 0.0723497 73.6678 0.0723497C73.6678 0.0723497 73.6678 0.0667843 73.6234 0.0166961C73.6184 0.0166961 73.6135 0 73.6036 0L73.5839 0.0222614C73.5839 0.0222614 73.5493 0.0612189 73.5247 0.0890457C73.4803 0.139134 73.4211 0.205918 73.347 0.289399C73.1941 0.461925 72.972 0.712366 72.6464 1.08525C72.4836 1.26334 72.2961 1.47482 72.074 1.7197C71.9655 1.84213 71.847 1.97014 71.7237 2.10927C71.6595 2.18719 71.5905 2.2651 71.5164 2.34858C71.3832 2.50998 70.4803 3.58966 69.0888 5.2537C67.7023 6.92331 65.8421 9.2051 63.7796 11.7485C61.7122 14.2918 59.4622 17.0857 57.2171 19.7459C54.972 22.4117 52.7516 24.9328 50.8668 27.0254C48.449 29.7079 46.8849 31.2884 46.0707 32.1177C44.4227 33.7929 43.1102 35.084 41.9359 36.3863C40.7664 37.6942 39.7105 38.9853 38.6743 40.7774C40.2878 39.6476 41.4622 38.4956 42.6464 37.2044C43.8306 35.9133 45.0049 34.4663 46.5296 32.6464C47.2845 31.7504 48.7253 30.0251 51.1628 27.3593C53.0625 25.2834 55.352 22.8402 57.7697 20.3748C60.1776 17.9093 62.7237 15.4105 65.023 13.1565C67.3273 10.897 69.3898 8.85449 70.9046 7.33514C72.4145 5.80467 73.3914 4.81404 73.5345 4.66934C73.5987 4.60255 73.6924 4.50794 73.7122 4.48011L73.6924 4.46898C73.6924 4.46898 73.6678 4.45785 73.6579 4.44672C73.6579 4.43003 73.648 4.41889 73.648 4.41333C73.6431 4.4022 73.648 4.39663 73.648 4.39663C73.648 4.39663 73.648 4.3855 73.6579 4.36881C73.6579 4.36324 73.6628 4.35211 73.6678 4.33541C73.6678 4.33541 73.6678 4.34655 73.6727 4.35768C74.1661 4.8196 74.8816 5.49301 75.7599 6.31668C77.6349 8.08647 80.1908 10.5575 82.9539 13.3012C88.4951 18.7831 94.8454 25.4003 98.5806 29.374C100.431 31.3385 101.314 32.2902 101.847 32.8913C103.421 34.6499 104.61 36.0914 105.785 37.3881C106.964 38.6848 108.109 39.8758 109.732 40.9833L109.727 41Z" fill="#C4E0FA"/>
<path d="M98.6793 25.7954C100.194 24.7992 101.146 23.5804 102.197 22.3393C103.229 21.076 104.324 19.7515 105.839 18.1987C106.347 17.67 107.171 16.7963 108.928 15.0487C110.156 13.8299 111.883 12.1659 113.536 10.6911C114.36 9.95086 115.164 9.24963 115.875 8.66526C116.053 8.52056 116.22 8.38143 116.383 8.24786L116.507 8.15325C116.536 8.13099 116.526 8.15325 116.541 8.15325L116.586 8.17551C116.586 8.17551 116.61 8.24786 116.61 8.25343C117.676 9.2051 118.594 10.0288 119.373 10.7244C120.237 11.4925 120.947 12.1269 121.51 12.6222C122.635 13.6184 123.168 14.0915 123.168 14.0915C123.168 14.0915 125.447 16.1284 128.423 18.6495C129.913 19.9073 131.561 21.2986 133.16 22.651C134.758 24.009 136.283 25.3502 137.541 26.4911C139.979 28.7061 141.444 30.1309 142.204 30.8877C143.743 32.4071 144.923 33.6426 146.092 34.7278C147.271 35.8075 148.416 36.7815 150 37.6441C148.939 36.0635 147.863 34.9894 146.689 33.9042C145.51 32.8245 144.207 31.7671 142.579 30.3702C141.775 29.6801 140.24 28.3388 137.832 26.0904C136.594 24.9272 135.118 23.5081 133.623 22.011C132.128 20.5083 130.589 18.9667 129.202 17.5698C126.424 14.7816 124.199 12.6668 124.199 12.6668C124.199 12.6668 123.681 12.1714 122.595 11.1252C122.048 10.602 121.362 9.9453 120.518 9.14388C119.59 8.27012 118.5 7.2461 117.237 6.04955C117.044 5.87702 116.832 5.6878 116.595 5.48188C116.566 5.45962 116.536 5.42066 116.507 5.40953L116.423 5.50971C116.368 5.57649 116.309 5.64327 116.255 5.71006C116.141 5.84919 116.023 5.98833 115.9 6.13859C115.786 6.28329 115.663 6.42799 115.539 6.57825C115.48 6.6506 115.421 6.72295 115.362 6.7953L115.268 6.92887C115.14 7.1014 115.007 7.28505 114.868 7.47984C114.306 8.2423 113.64 9.10493 112.934 9.98982C111.528 11.7652 109.954 13.6073 108.799 14.9207C107.146 16.7963 106.322 17.67 105.824 18.2099C104.359 19.8238 103.12 20.9758 101.941 22.0611C100.776 23.1686 99.6414 24.1704 98.6694 25.8121L98.6793 25.7954Z" fill="#C4E0FA"/>
<path d="M51.3257 25.7954C50.3487 24.1537 49.2188 23.1463 48.0543 22.0444C46.875 20.9591 45.6365 19.8071 44.1711 18.1932C43.6727 17.6533 42.8487 16.7796 41.1957 14.9096C40.0411 13.6017 38.4622 11.7652 37.0461 9.99538C36.3355 9.11606 35.6645 8.25343 35.102 7.5021C34.9589 7.31288 34.8257 7.12922 34.6974 6.9567L34.6036 6.8287L34.5543 6.76191L34.4605 6.6506C34.3372 6.50034 34.2188 6.35564 34.1003 6.21094C33.977 6.06624 33.8586 5.92711 33.7451 5.78797C33.6859 5.72119 33.6316 5.6544 33.5773 5.58762L33.4934 5.49301C33.4638 5.50414 33.4342 5.5431 33.4046 5.56536C33.1727 5.77684 32.9556 5.96606 32.773 6.14416C28.0411 10.7411 25.9145 12.8115 25.9145 12.8115C25.9145 12.8115 25.3618 13.3457 24.4539 14.2139C23.551 15.0877 22.2928 16.3065 20.8816 17.67C19.4803 19.0447 17.9211 20.5696 16.4112 22.0444C14.8964 23.5192 13.4112 24.9217 12.1628 26.0681C9.7352 28.2943 8.19572 29.6188 7.38651 30.3089C5.75329 31.7003 4.45559 32.7633 3.28618 33.8596C2.12171 34.9616 1.06579 36.058 0 37.6385C1.58388 36.7815 2.74835 35.8298 3.9375 34.7612C5.12171 33.6871 6.30592 32.4627 7.84046 30.9378C8.60033 30.1809 10.0609 28.7451 12.4737 26.5022C13.722 25.3502 15.2368 23.9867 16.8158 22.6065C18.3997 21.2318 20.0329 19.8182 21.5082 18.5382C22.9737 17.2526 24.2813 16.1006 25.2237 15.2769C26.1612 14.4477 26.7336 13.9412 26.7336 13.9412C26.7336 13.9412 27.2664 13.4682 28.3964 12.4775C28.9638 11.9822 29.6743 11.3589 30.5477 10.5964C30.9819 10.218 31.4605 9.80616 31.9737 9.35537C32.2303 9.13275 32.5016 8.89901 32.778 8.6597C32.9161 8.53726 33.0592 8.41482 33.2023 8.29239L33.3109 8.19777C33.3454 8.16995 33.3997 8.11986 33.3849 8.13655L33.3947 8.14769C33.3947 8.14769 33.3947 8.15882 33.3997 8.16438C33.4046 8.16438 33.4095 8.11429 33.4243 8.0976L33.4687 8.07534H33.4786C33.4786 8.07534 33.5132 8.0976 33.5329 8.11429L33.6513 8.21447C33.8141 8.34804 33.9819 8.49274 34.1595 8.63744C34.8602 9.22737 35.6645 9.93417 36.4836 10.6799C38.1316 12.1659 39.8536 13.8299 41.0822 15.0543C42.8388 16.8074 43.6579 17.6811 44.1711 18.2099C45.6859 19.7626 46.7812 21.0871 47.8125 22.3505C48.8586 23.5916 49.8158 24.8104 51.3306 25.8066L51.3257 25.7954Z" fill="#C4E0FA"/>
</svg>
