<svg width="95" height="42" viewBox="0 0 95 42" fill="none" xmlns="http://www.w3.org/2000/svg">
<path d="M0.0193477 6.93601C0.863477 6.5555 1.54007 6.07054 2.22311 5.66019C2.91903 5.26476 3.53118 4.77233 4.22066 4.3769C4.56218 4.16053 4.9037 3.94416 5.25166 3.72033C5.60607 3.49651 5.98625 3.31744 6.37287 3.09361C7.14612 2.63849 8.02247 2.28037 9.00836 1.87001C9.34343 1.73572 9.79449 1.60142 10.4453 1.39251C10.7739 1.28806 11.1477 1.16868 11.5987 1.07915C12.0498 0.982158 12.5589 0.870244 13.1517 0.743407C15.7807 0.258444 19.3763 0.109224 23.1975 0.616571C27.025 1.12392 31.0266 2.29529 34.6287 3.65319C38.2371 4.98124 41.4912 6.35406 43.8754 7.30906C46.2725 8.24914 47.761 8.83856 47.761 8.83856C47.761 8.83856 49.0111 9.33099 51.086 10.0696C53.1673 10.7933 56.0927 11.7334 59.4499 12.4422C62.8071 13.1435 66.596 13.6136 70.2432 13.6434C73.8903 13.6882 77.4022 13.4271 80.2954 12.9123C81.0815 12.7556 81.7968 12.6064 82.4412 12.4795C83.0791 12.3228 83.6461 12.1811 84.1488 12.0542C84.6514 11.9125 85.0767 11.7707 85.4504 11.6588C85.8177 11.5394 86.1334 11.4648 86.3847 11.3678C87.3835 10.9799 88.2921 10.6814 89.0975 10.2636C89.5035 10.0622 89.903 9.89802 90.2703 9.68165C90.6311 9.45782 90.9856 9.24145 91.3335 9.02509C92.7125 8.13723 93.9046 7.03301 95 5.39905C94.1752 5.84671 93.5244 6.36898 92.8478 6.80172C92.1648 7.22699 91.5719 7.7418 90.8953 8.15961C90.5667 8.3909 90.2316 8.62219 89.8966 8.86094C89.555 9.0997 89.1813 9.3086 88.8076 9.54735C88.0665 10.0472 87.216 10.4651 86.2623 10.9649C86.0239 11.0843 85.7275 11.2037 85.3731 11.3529C85.0122 11.5021 84.5998 11.6887 84.1101 11.8603C83.6139 12.0169 83.0598 12.196 82.4283 12.3974C81.7968 12.569 81.0815 12.7183 80.2954 12.8973C77.4086 13.4569 73.8646 13.539 70.2818 13.0092C66.6927 12.5019 63.1164 11.3081 59.9396 10.1517C56.7564 8.97286 53.947 7.84625 51.8979 7.07777C49.8488 6.30929 48.5987 5.83925 48.5987 5.83925C48.5987 5.83925 47.1037 5.27222 44.6744 4.42167C42.2452 3.57858 38.8686 2.45943 35.0797 1.5865C31.3166 0.698641 27.1217 0.124146 23.2426 0.0196928C19.357 -0.0847608 15.7807 0.236061 13.1581 0.750868C12.5717 0.885166 12.0562 0.99708 11.6052 1.09407C11.1541 1.1836 10.7739 1.29552 10.4453 1.38505C9.78805 1.57157 9.33055 1.66857 8.98258 1.78048C7.97736 2.11623 7.05591 2.36244 6.23755 2.7131C5.82515 2.87724 5.4192 3.01154 5.03902 3.19061C4.66528 3.37713 4.29799 3.55619 3.93714 3.73526C2.50663 4.47389 1.21144 5.41398 0.0129039 6.94347L0.0193477 6.93601Z" fill="#C4E0FA"/>
<path d="M0.0193312 20.3657C0.863461 19.9852 1.54005 19.5002 2.22309 19.0899C2.91901 18.6944 3.53117 18.202 4.22065 17.8066C4.56216 17.5902 4.90368 17.3739 5.25164 17.15C5.60605 16.9262 5.98623 16.7471 6.37285 16.5233C7.1461 16.0682 8.02245 15.7101 9.00834 15.2997C9.34342 15.1654 9.79448 15.0311 10.4453 14.8222C10.7739 14.7178 11.1477 14.5984 11.5987 14.5088C12.0498 14.4119 12.5588 14.2999 13.1517 14.1731C15.7807 13.6881 19.3763 13.5389 23.1974 14.0463C27.025 14.5536 31.0266 15.725 34.6286 17.0829C38.2371 18.4109 41.4912 19.7838 43.8754 20.7388C46.2725 21.6788 47.761 22.2683 47.761 22.2683C47.761 22.2683 49.0111 22.7607 51.0859 23.4993C53.1673 24.223 56.0927 25.1631 59.4499 25.8719C62.8071 26.5732 66.596 27.0433 70.2432 27.0731C73.8903 27.1179 77.4022 26.8568 80.2954 26.3419C81.0815 26.1853 81.7968 26.036 82.4412 25.9092C83.0791 25.7525 83.6461 25.6108 84.1487 25.4839C84.6514 25.3422 85.0766 25.2004 85.4504 25.0885C85.8177 24.9691 86.1334 24.8945 86.3847 24.7975C87.3835 24.4096 88.2921 24.1111 89.0975 23.6933C89.5035 23.4919 89.903 23.3277 90.2703 23.1113C90.6311 22.8875 90.9855 22.6711 91.3335 22.4548C92.7125 21.5669 93.9046 20.4627 95 18.8287C94.1752 19.2764 93.5244 19.7987 92.8478 20.2314C92.1647 20.6567 91.5719 21.1715 90.8953 21.5893C90.5667 21.8206 90.2316 22.0519 89.8966 22.2906C89.555 22.5294 89.1813 22.7383 88.8076 22.977C88.0665 23.4769 87.216 23.8947 86.2623 24.3946C86.0239 24.514 85.7275 24.6334 85.3731 24.7826C85.0122 24.9318 84.5998 25.1183 84.1101 25.2899C83.6139 25.4466 83.0597 25.6257 82.4283 25.8271C81.7968 25.9987 81.0815 26.148 80.2954 26.327C77.4086 26.8866 73.8645 26.9687 70.2818 26.4389C66.6927 25.9316 63.1164 24.7378 59.9396 23.5814C56.7564 22.4026 53.947 21.2759 51.8978 20.5075C49.8487 19.739 48.5987 19.2689 48.5987 19.2689C48.5987 19.2689 47.1037 18.7019 44.6744 17.8514C42.2451 17.0083 38.8686 15.8891 35.0797 15.0162C31.3037 14.106 27.1088 13.5315 23.2297 13.4195C19.3441 13.3151 15.7678 13.6359 13.1452 14.1507C12.5588 14.285 12.0433 14.3969 11.5923 14.4939C11.1412 14.5835 10.761 14.6954 10.4324 14.7849C9.77515 14.9714 9.31764 15.0684 8.96968 15.1803C7.96446 15.5161 7.043 15.7623 6.22465 16.113C5.81225 16.2771 5.40629 16.4114 5.02611 16.5905C4.65238 16.777 4.28508 16.956 3.92424 17.1351C2.49373 17.8737 1.19853 18.8138 0 20.3433L0.0193312 20.3657Z" fill="#C4E0FA"/>
<path d="M0.0193312 35.2876C0.863461 34.9071 1.54005 34.4222 2.22309 34.0118C2.91901 33.6164 3.53117 33.124 4.22065 32.7285C4.56216 32.5122 4.90368 32.2958 5.25164 32.072C5.60605 31.8481 5.98623 31.6691 6.37285 31.4452C7.1461 30.9901 8.02245 30.632 9.00834 30.2216C9.34342 30.0874 9.79448 29.9531 10.4453 29.7441C10.7739 29.6397 11.1477 29.5203 11.5987 29.4308C12.0498 29.3338 12.5588 29.2219 13.1517 29.095C15.7807 28.6101 19.3763 28.4609 23.1974 28.9682C27.025 29.4756 31.0266 30.6469 34.6286 32.0048C38.2371 33.3329 41.4912 34.7057 43.8754 35.6607C46.2725 36.6008 47.761 37.1902 47.761 37.1902C47.761 37.1902 49.0111 37.6826 51.0859 38.4213C53.1673 39.145 56.0927 40.0851 59.4499 40.7938C62.8071 41.4952 66.596 41.9652 70.2432 41.9951C73.8903 42.0398 77.4022 41.7787 80.2954 41.2639C81.0815 41.1072 81.7968 40.958 82.4412 40.8312C83.0791 40.6745 83.6461 40.5327 84.1487 40.4059C84.6514 40.2641 85.0766 40.1224 85.4504 40.0104C85.8177 39.8911 86.1334 39.8165 86.3847 39.7195C87.3835 39.3315 88.2921 39.0331 89.0975 38.6152C89.5035 38.4138 89.903 38.2497 90.2703 38.0333C90.6311 37.8095 90.9855 37.5931 91.3335 37.3767C92.7125 36.4889 93.9046 35.3846 95 33.7507C94.1752 34.1983 93.5244 34.7206 92.8478 35.1534C92.1647 35.5786 91.5719 36.0934 90.8953 36.5112C90.5667 36.7425 90.2316 36.9738 89.8966 37.2126C89.555 37.4513 89.1813 37.6602 88.8076 37.899C88.0665 38.3989 87.216 38.8167 86.2623 39.3166C86.0239 39.436 85.7275 39.5553 85.3731 39.7045C85.0122 39.8538 84.5998 40.0403 84.1101 40.2119C83.6139 40.3686 83.0597 40.5476 82.4283 40.7491C81.7968 40.9207 81.0815 41.0699 80.2954 41.249C77.4086 41.8085 73.8645 41.8906 70.2818 41.3609C66.6927 40.8535 63.1164 39.6598 59.9396 38.5033C56.7564 37.3245 53.947 36.1979 51.8978 35.4294C49.8487 34.6609 48.5987 34.1909 48.5987 34.1909C48.5987 34.1909 47.1037 33.6239 44.6744 32.7733C42.2451 31.9302 38.8686 30.8111 35.0797 29.9381C31.3037 29.0279 27.1088 28.4534 23.2297 28.3415C19.3441 28.237 15.7678 28.5579 13.1452 29.0727C12.5588 29.207 12.0433 29.3189 11.5923 29.4159C11.1412 29.5054 10.761 29.6173 10.4324 29.7068C9.77515 29.8934 9.31764 29.9904 8.96968 30.1023C7.96446 30.438 7.043 30.6842 6.22465 31.0349C5.81225 31.199 5.40629 31.3333 5.02611 31.5124C4.65238 31.6989 4.28508 31.878 3.92424 32.0571C2.49373 32.7957 1.19853 33.7358 0 35.2653L0.0193312 35.2876Z" fill="#C4E0FA"/>
</svg>
