<svg width="720" height="720" viewBox="0 0 720 720" fill="none" xmlns="http://www.w3.org/2000/svg">
<g clip-path="url(#clip0_10587_64546)">
<mask id="mask0_10587_64546" style="mask-type:luminance" maskUnits="userSpaceOnUse" x="0" y="0" width="720" height="720">
<path d="M720 0H0V720H720V0Z" fill="white"/>
</mask>
<g mask="url(#mask0_10587_64546)">
<path d="M598.076 331.492C600.746 327.038 604.736 318.584 605.31 313.59C605.481 312.101 604.8 309.23 605.032 308.487C605.21 307.925 609.086 305.724 609.983 305.105C610.605 304.676 611.044 303.982 611.676 303.562C612.257 303.176 613.469 303.043 613.721 302.696C614.082 302.197 614.053 298.393 613.892 297.472C617.984 298.438 615.604 299.519 615.156 301.295C614.985 301.977 615.407 302.554 615.201 303.025C614.911 303.692 613.327 304.124 613.195 304.628C612.985 305.431 614.437 306.705 614.53 307.412C614.656 308.363 613.814 310.314 613.892 311.881C614.04 314.963 614.972 319.061 615.378 322.316C615.462 322.98 615.037 323.33 616.114 323.182C616.056 319.151 613.93 313.402 614.714 309.538C614.898 308.632 615.817 307.801 615.753 307.053C615.694 306.367 614.585 305.476 614.646 304.574C614.692 303.906 615.459 303.692 615.662 303.124C615.859 302.578 615.665 301.862 615.914 301.273C616.214 300.552 617.246 299.785 617.226 299.024C617.197 297.97 615.475 297.535 615.004 296.778C616.423 296.91 618.2 296.533 619.555 296.859C620.909 297.182 625.002 299.241 626.65 299.951C635.683 303.855 657.269 313.3 663.109 320.048C663.877 320.936 664.174 322.159 664.948 322.844C665.747 323.557 667.286 323.985 668.314 324.906C668.821 325.359 673.329 330.48 673.497 330.831C673.833 331.537 673.584 332.295 673.768 333.011C674.126 334.402 675.577 334.68 676.477 335.689C677.277 335.118 676.438 335.112 676.187 334.895C675.616 334.409 674.365 333.723 674.136 333.011C673.794 331.951 674.536 330.613 674.268 330.13C674.149 329.913 670.421 327.301 671.095 326.655C674.571 328.684 683.859 328.808 686.12 331.878C686.801 332.802 686.82 333.992 687.358 334.889C688.845 337.377 691.235 339.457 693.563 341.244C694.215 340.807 693.405 340.511 693.125 340.266C691.138 338.545 689.877 338.02 688.594 335.471C686.072 330.459 689.113 329.734 691.606 326.214C692.593 324.822 693.705 323.14 694.554 321.676C695.531 319.991 697.566 314.74 698.772 313.81C700.61 312.394 709.318 313.961 710.456 311.536C710.527 311.382 710.55 310.966 710.276 311.02C708.67 312.771 705.341 312.312 703.032 312.406C704.035 310.948 706.122 306.262 708.028 306.204C708.95 306.177 713.024 306.917 713.894 307.285C715.371 307.916 716.729 310.253 718.258 311.017L716.777 308.589C720.112 307.031 723.363 308.547 726.517 308.49C728.791 308.448 731.329 307.394 733.683 307.201C735.36 307.062 737.208 307.373 738.853 307.173C739.298 307.119 740.801 306.684 740.917 306.156C738.63 306.53 736.35 306.551 734.032 306.518C733.129 306.506 732.048 306.092 731.455 306.15C730.748 306.216 730.461 306.893 729.878 307.116C725.762 308.68 724.682 307.216 721.057 307.17C719.48 307.149 717.558 307.986 716.6 307.892C715.765 307.81 715.439 306.923 714.642 306.588C713.217 305.993 708.115 305.416 706.76 305.984C705.019 306.714 703.426 311.225 702.136 312.083C701 312.838 699.078 311.896 698.046 313.122C694.995 319.173 692.477 327.132 685.465 330.052L670.369 326.117C666.644 323.068 664.051 319.157 660.133 316.235C649.903 308.602 633.581 302.859 621.729 297.264C621.248 297.037 620.922 296.373 620.574 296.237C619.964 295.995 619.216 296.509 618.539 296.454C617.149 296.34 613.489 295.241 613.153 296.944C612.573 299.9 614.017 300.642 611.286 303.535C609.528 305.398 608.161 305.6 606.081 306.657C602.652 308.402 604.304 308.203 604.568 310.878C605.013 315.374 601.856 324.218 599.202 328.019C598.766 328.644 597.608 329.282 597.373 329.783C596.979 330.619 597.434 331.631 596.818 332.389C597.247 332.591 597.908 331.767 598.079 331.486L598.076 331.492Z" fill="#3B576B"/>
<path d="M414.631 572.668C416.298 572.632 417.978 572.692 419.642 572.668C419.988 571.427 418.978 571.729 418.527 570.935C420.255 570.759 422.177 570.319 423.896 570.222C435.919 569.537 447.849 568.528 459.956 568.833C462.216 568.89 465.1 569.512 467.354 569.558C470.386 569.618 490.62 569.887 491.7 569.358C491.874 569.274 492.061 568.688 492.774 568.299C494.203 567.517 496.051 567.227 497.65 567.625C498.618 567.867 499.24 568.803 500.237 568.848C498.334 565.309 492.158 565.859 490.723 569.223C475.52 569.977 460.198 567.535 445.066 568.145C439.706 568.359 434.287 569.558 429.105 569.893C426.734 570.047 417.627 569.346 416.517 571.282C416.401 571.487 416.682 571.94 416.653 571.958C415.666 572.565 402.395 572.402 400.121 572.342C372.263 571.569 344.834 570.21 316.941 571.288C312.542 571.457 309.768 571.336 305.437 571.27C300.428 571.191 295.365 571.212 290.376 571.457C292.727 571.457 295.329 571.913 297.606 571.991C311.893 572.484 326.019 571.318 340.319 571.267C365.062 571.179 390.056 573.217 414.624 572.674L414.631 572.668Z" fill="#3B576B"/>
<path d="M515.47 517.591C515.47 523.309 507.501 526.863 503.198 529.738C498.122 530.088 493.072 530.976 487.986 530.973L491.898 531.332C496.09 530.299 500.702 531.377 504.579 529.644C508.026 528.101 511.325 525.043 514.844 523.611C516.963 522.748 519.504 522.304 521.781 521.933L520.585 521.682C519.553 521.757 516.602 522.953 516.095 521.863C515.947 521.54 515.486 518.952 515.508 518.614C515.544 518.083 516.192 517.678 516.231 516.914C516.447 512.82 516.028 508.656 516.208 504.559L552.197 504.598C552.316 506.374 552.184 508.164 552.239 509.942C552.28 511.22 552.268 512.231 552.261 513.478C552.251 515.245 552.358 517.029 552.235 518.804C548.843 518.113 545.421 517.79 541.96 517.548L538.126 518.454C540.886 518.412 543.699 518.496 546.433 518.85C547.498 518.989 552.745 520.417 552.974 520.187C553.058 520.103 552.826 519.484 553.061 519.23C553.138 519.146 554.757 518.119 554.928 518.028C559.047 515.857 565.261 514.78 569.215 512.624C569.641 512.391 570.099 512.273 570.08 511.688C570.089 510.513 568.303 510.912 567.445 510.661C566.087 510.263 564.865 509.465 563.384 509.42L566.722 508.732H562.639C561.511 509.628 567.828 511.066 568.206 511.331C564.007 513.907 559.343 515.598 554.838 517.624C554.145 517.917 553.796 517.31 553.354 516.89C554.825 516.546 553.59 516.407 553.264 515.586C552.826 514.472 552.855 505.039 553.351 504.556C553.667 504.251 557.47 505.643 557.063 504.043C556.95 503.59 555.538 503.402 555.077 503.116C549.355 499.553 544.392 494.933 538.674 491.361C539.638 492.831 541.502 493.9 542.912 495.036C543.315 495.362 543.489 495.917 543.879 496.213C545.385 497.355 552.584 501.524 552.922 502.702C553.051 503.149 553.042 503.417 552.613 503.695C540.78 503.907 528.815 504.094 517.04 503.599C516.805 503.499 516.231 503.155 516.218 502.995C516.208 502.862 518.266 500.628 516.763 501.077C516.524 501.15 514.089 504.251 513.606 504.731L515.46 504.556V517.585L515.47 517.591Z" fill="#3B576B"/>
<path d="M695.419 577.883C679.626 576.585 664.081 576.902 648.259 576.485L645.472 575.797L646.953 575.265C647.062 574.912 646.824 574.77 646.572 574.586C645.779 574.009 640.183 572.666 638.861 572.418C626.331 570.09 612.609 569.024 599.963 569.879C595.697 570.166 591.478 568.608 587.395 570.978C586.412 571.548 585.902 572.62 584.77 573.037C583.054 573.671 581.339 573.067 579.713 573.517C578.585 573.831 577.611 575.129 576.73 575.591C575.601 576.183 573.666 576.597 572.376 577.095C571.822 577.306 571.364 576.884 571.56 577.877C573.279 577.134 575.743 576.935 577.394 576.216C578.568 575.706 579.246 574.674 580.91 574.293C582.213 573.997 583.364 574.184 584.567 573.892C586.147 573.508 586.608 572.059 588.073 571.265C590.662 569.861 593.762 570.217 596.642 570.22C603.553 570.223 610.413 570.003 617.424 570.585C626.802 571.364 636.361 572.645 645.469 574.755C645.398 575.365 643.937 575.703 644.727 576.313C646.42 577.614 652.283 577.071 654.583 577.168C667.196 577.705 679.784 577.165 692.452 578.227C695.728 578.502 699.266 579.402 702.488 579.61C706.893 579.894 711.302 579.523 715.817 579.997C717.291 580.151 719.51 581.337 720.868 580.48C714.717 578.475 708.37 579.336 702.117 578.913C699.95 578.768 697.57 578.058 695.422 577.88L695.419 577.883Z" fill="#3B576B"/>
<path d="M263.324 574.465C256.45 575.164 249.559 574.076 242.675 573.706C235.421 573.316 228.236 572.666 221.003 572.245C203.283 571.208 150.445 573.2 132.8 574.108C128.121 574.349 122.484 573.477 118.009 574.642C117.64 574.739 117.121 574.732 117.237 575.199C119.069 575.186 120.477 576.602 122.354 576.869L125.895 578.903C116.369 579.447 106.873 580.5 97.3529 581.124C94.5021 581.311 91.5521 580.957 88.7013 581.131C83.8952 581.427 77.4689 582.675 72.8474 583.992C72.0475 584.22 70.417 584.51 70 585.199C75.7119 583.947 81.6323 582.267 87.522 581.874C98.3852 581.147 109.368 580.352 120.197 579.653C122.853 579.483 125.598 579.766 128.261 579.647C128.398 578.894 127.755 578.591 127.215 578.228C125.321 576.947 122.593 576.47 120.467 575.669C119.872 575.444 119.401 575.885 119.602 574.835C123.588 574.678 127.639 575.038 131.624 574.848C138.454 574.526 145.609 573.355 152.476 572.985C172.931 571.884 226.715 573.525 247.009 574.446C252.082 574.678 257.688 575.811 262.747 575.202C263.321 575.135 263.967 574.919 263.328 574.462L263.324 574.465Z" fill="#3B576B"/>
<path d="M432.841 582.402C433.635 582.402 434.364 582.082 434.876 581.515C435.051 580.787 432.396 579.03 432.651 579.784L433.761 581.696C428.272 581.774 422.615 580.594 417.229 580.31C405.67 579.706 394.041 579.833 382.443 579.691C392.944 579.875 403.387 580.183 413.517 580.657C419.793 580.95 426.62 582.411 432.845 582.399L432.841 582.402Z" fill="#3B576B"/>
<path d="M331.799 578.991C331.064 579.022 324.555 579.447 324.552 579.789C325.933 580.368 327.426 579.65 328.813 579.601C331.412 579.511 334.04 579.665 336.643 579.629C350.043 579.453 363.995 579.429 377.904 579.622C362.672 579.324 346.973 578.342 331.799 578.991Z" fill="#3B576B"/>
<path d="M382.446 579.694C380.937 579.667 379.427 579.643 377.915 579.621C378.018 579.621 378.118 579.627 378.221 579.627C379.627 579.655 381.037 579.676 382.446 579.691V579.694Z" fill="#3B576B"/>
<path d="M700.995 569.89C710.338 570.062 719.906 570.693 729.175 572.022C733.574 572.653 737.609 574.295 742.043 574.054C741.901 573.465 741.114 573.293 740.579 573.169C730.923 570.986 717.278 569.769 707.303 569.525C704.184 569.449 700.227 569.078 697.273 569.18C694.187 569.289 690.484 570.086 687.259 570.231C680.635 570.53 674.166 569.775 667.593 569.525C665.925 569.461 664.232 569.597 662.565 569.543C662.565 570.128 663.8 570.204 664.232 570.237C672.305 570.841 682.657 571.677 690.6 570.926C694.454 570.56 696.699 569.814 701.001 569.893L700.995 569.89Z" fill="#3B576B"/>
<path d="M357.795 499.007C361.027 499.203 364.378 499.934 367.642 500.049C365.561 502.978 362.452 505.133 360.591 508.213L368.38 500.74C368.351 501.35 368.37 501.948 368.486 502.555C368.996 505.257 370.07 510.583 371.079 512.984C371.618 514.267 373.463 514.605 374.043 515.771C374.285 516.257 374.911 519.234 374.695 519.503C370.434 517.432 366.277 514.841 362.797 511.698C362.598 511.516 359.114 507.232 359.908 509.883C360.288 511.157 365.2 514.436 366.629 515.409C370.825 518.262 375.407 520.656 379.781 523.259L380.642 523.319L380.268 522.284C382.528 521.813 383.973 520.729 386.395 520.892C387.382 520.958 393.381 522.326 394.129 522.697C394.913 523.084 394.922 523.685 395.412 524.026C397.151 525.237 397.88 525.083 399.957 524.708L396.993 524.183C395.274 521.798 387.382 519.913 384.715 520.348C383.386 520.566 380.545 522.148 379.713 522.148C379.539 522.148 376.81 520.94 376.655 520.798C375.233 519.476 375.536 516.393 374.872 514.995C374.482 514.177 372.895 513.588 372.266 512.918C370.222 510.741 369.393 502.431 368.751 499.351C366.867 499.243 364.874 499.49 363.004 499.342C360.056 499.11 355.483 497.959 352.622 498.328C350.494 498.602 349.346 500.789 348.507 502.467C351.058 498.947 353.454 498.741 357.792 499.004L357.795 499.007Z" fill="#3B576B"/>
<path d="M542.363 569.552C543.137 569.618 549.065 570.79 549.748 571.01C550.403 571.221 550.864 572.012 551.619 572.387C555.537 574.34 561.823 576.822 566.228 577.158C566.941 577.212 567.931 577.36 568.221 576.49C562.545 575.832 557.111 574.531 552.125 571.913C551.29 571.475 550.848 570.533 549.761 570.303C548.874 570.116 547.903 570.316 546.968 570.137C543.782 569.527 540.718 569.038 537.774 568.317C532.565 567.039 517.14 567.698 511.215 568.151C509.242 568.302 506.816 569.15 504.714 569.192L508.984 569.467C516.72 568.951 529.717 567.583 537.054 568.99C537.803 569.135 538.419 569.784 539.102 569.881C540.192 570.035 541.179 569.449 542.366 569.549L542.363 569.552Z" fill="#3B576B"/>
<path d="M454.935 528.533C453.848 527.09 452.29 525.97 450.739 524.991C449.588 524.264 448.391 524.783 449.275 523.068C450.268 521.141 452.868 521.22 449.736 518.466C452.345 517.053 454.196 513.982 456.231 511.854C458.105 509.894 461.824 507.4 462.907 504.897C463.439 503.665 462.752 502.225 463.301 501.096C463.713 500.247 465.678 499.275 466.445 498.478C469.889 494.915 468.299 492.478 469.057 488.761C469.367 487.239 477.42 483.067 478.81 483.411C479.468 483.574 479.687 484.579 480.564 484.407C480.232 483.338 478.729 482.934 478.755 481.814C478.765 481.327 480.4 477.629 480.609 477.505C481.396 477.037 483.422 478.338 484.276 478.679C484.818 478.894 485.537 478.785 486.118 479.042C487.647 479.715 489.675 486.312 490.52 488.127L493.929 494.492C493.742 491.566 491.491 489.284 490.307 486.59C489.375 484.471 489.001 481.826 488.185 479.887C487.366 477.94 485.937 478.679 487.988 475.902C490.433 472.592 494.29 469.135 497.061 465.971L498.022 462.701C496.357 462.55 497.096 463.908 496.735 464.971L485.592 477.84C484.189 478.812 482.022 476.213 480.564 476.922C479.636 477.375 477.791 481.871 476.862 482.864C475.398 484.229 469.951 486.128 469.019 487.342C468.454 488.076 468.599 493.487 467.954 495.38C466.926 498.402 463.355 499.492 462.639 501.18C462.085 502.488 462.565 503.686 461.766 505.226C460.405 507.841 457.973 508.967 456.218 510.806C453.822 513.321 451.594 517.201 448.249 518.469C447.472 519.236 450.275 519.671 450.426 519.897C451.439 521.407 447.195 523.258 446.376 524.185L443.421 524.716C445.689 524.976 448.098 524.958 450.21 525.84C451.89 526.54 453.132 528.077 454.935 528.539V528.533Z" fill="#3B576B"/>
<path d="M357.443 574.737C350.2 574.647 341.069 575.172 333.652 575.444C333.152 575.462 332.107 575.154 332.352 575.96L394.009 575.447C391.619 574.526 389.065 575.413 386.785 575.456C376.932 575.637 367.183 574.855 357.443 574.734V574.737Z" fill="#3B576B"/>
<path d="M746.716 575.82C744.661 576.068 742.3 577.188 739.998 577.212C738.092 577.23 735.65 576.56 733.702 576.472C730.068 576.312 726.291 576.998 722.898 576.847C715.007 576.493 706.244 573.906 698.046 573.694C695.431 573.628 693.708 574.265 691.357 574.416C689.003 574.567 686.475 574.277 684.104 574.407C684.017 575.014 684.946 574.733 685.398 574.751C690.377 574.941 695.405 574.045 700.252 574.41C703.39 574.646 706.818 575.739 709.96 576.098C719.551 577.203 728.658 576.98 738.15 577.523C742.378 577.765 744.868 576.367 748.528 576.128C753.682 575.793 759.132 577.749 764.518 577.529C764.969 577.511 765.898 577.792 765.811 577.185C759.58 577.795 752.85 575.083 746.716 575.82Z" fill="#3B576B"/>
<path d="M537.567 580.657C538.019 580.642 538.951 580.92 538.861 580.313C534.491 579.893 530.06 579.549 525.673 579.271C519.691 578.891 513.808 578.281 507.845 577.882C500.06 577.36 492.23 577.266 484.464 576.475L477.949 576.493L479.242 576.838C485.089 576.62 490.904 577.46 496.706 577.876C510.019 578.83 524.383 581.14 537.564 580.66L537.567 580.657Z" fill="#3B576B"/>
<path d="M550.006 385.956C550.013 382.435 547.317 382.233 551.167 379.328C554.321 376.949 558.546 375.838 560.349 371.934L569.531 350.641C571.118 349.222 581.347 348.518 584.121 347.612C585.795 347.066 587.681 344.792 588.475 344.717C590.045 344.563 590.9 346.184 591.135 347.377C591.226 347.839 590.442 348.905 591.242 348.89C592.103 347.631 591.09 346.118 591.393 345.064C591.539 344.569 592.271 343.953 592.545 343.334C593.751 340.598 594.938 337.821 595.889 335C594.635 335.945 591.648 343.72 591.21 344.007C590.91 344.204 590.055 343.72 589.575 343.751C586.688 343.917 586.285 346.233 584.192 346.987C582.444 347.622 579.68 347.579 577.787 347.945C576.468 348.198 569.521 349.503 569.047 350.022C565.828 357.731 562.571 365.481 558.862 372.982C556.914 376.149 552.77 377.17 550.045 379.328C547.201 381.584 548.674 381.738 548.89 384.516C549.194 388.393 546.233 389.404 543.879 391.977C539.731 396.509 535.342 401.334 532.365 406.57C536.361 401.651 540.286 396.645 544.62 391.98C545.849 390.657 549.993 387.725 549.997 385.959L550.006 385.956Z" fill="#3B576B"/>
<path d="M663.589 563.876C669.755 564.993 672.329 563.112 677.586 561.192C682.859 559.265 691.831 561.871 697.655 562.24C698.823 562.312 700.013 562.203 701.177 562.24L695.756 560.89C690.205 560.842 684.249 559.45 678.798 560.241C675.422 560.73 671.181 562.925 667.565 563.284C665.863 563.453 663.915 563.16 662.18 563.284C662.115 563.807 663.173 563.801 663.589 563.876Z" fill="#3B576B"/>
<path d="M695.049 581.008C691.934 580.806 688.512 580.709 685.409 580.643C675.196 580.422 664.972 581.371 654.752 581.008C654.665 581.615 655.594 581.334 656.045 581.352C662.002 581.582 668.272 581.361 674.267 581.368C684.023 581.377 693.817 581.715 703.589 582.397C705.011 582.497 706.701 582.871 708.159 582.989C708.572 583.022 709.42 583.403 709.349 582.744C704.631 582.11 699.809 581.316 695.049 581.008Z" fill="#3B576B"/>
<path d="M617.243 492.397C619.826 491.569 623.045 491.521 625.499 490.573C628.234 489.519 631.975 486.554 634.819 485.044C639.18 482.731 643.808 480.832 648.052 478.311L648.842 477.315L651.409 469.123L648.9 474.244C648.429 475.126 648.461 476.388 647.99 477.215C647.126 478.743 637.164 483.103 634.819 484.35C631.314 486.213 627.995 488.417 624.554 490.383C622.9 490.917 621.158 491.104 619.474 491.536C618.897 491.684 617.446 491.883 617.243 492.4V492.397Z" fill="#3B576B"/>
<path d="M597.75 598.71C593.861 598.517 589.758 598.834 585.834 598.74C578.806 598.574 571.75 598.306 564.661 598.363C563.784 598.369 562.971 598.731 562.091 598.74C559.117 598.768 556.257 598.13 553.344 598.553C562.871 599.821 572.54 598.275 582.147 598.713C586.369 599.556 590.99 598.958 595.115 599.057C597.75 599.124 600.314 599.628 602.917 599.782C603.349 599.809 604.974 600.033 604.974 599.423C602.568 599.604 600.098 598.828 597.75 598.71Z" fill="#3B576B"/>
<path d="M620.296 350.725C619.851 348.663 621.238 344.807 621.345 342.479C621.377 341.767 621.693 340.622 620.59 340.906C621.045 344.019 618.829 348.147 619.551 351.085C620.093 353.289 624.167 357.075 625.192 359.358C625.718 360.529 626.04 363.048 626.16 364.361C626.324 366.209 626.04 368.226 626.16 370.095H626.53V362.972C626.53 362.51 626.105 359.406 625.956 358.993C625.179 356.837 620.8 353.053 620.296 350.731V350.725Z" fill="#3B576B"/>
<path d="M681.227 517.501C679.288 516.834 677.266 516.77 675.554 516.206C674.344 515.807 673.096 514.427 671.474 514.642C671.842 515.55 673.1 515.264 673.851 515.717C674.58 516.154 674.515 516.939 675.718 517.444C679.766 519.135 687.748 521.197 692.276 522.456C696.343 523.588 715.067 527.187 716.799 529.047C718.083 530.427 717.267 533.655 720.498 533.229C720.176 532.637 719.028 532.604 718.737 532.272C717.889 531.303 719.053 529.847 716.538 528.247C712.365 525.593 699.164 524.056 693.466 522.38C689.147 521.109 685.268 518.893 681.227 517.501Z" fill="#3B576B"/>
<path d="M531.437 515.504C532.011 516.31 536.039 516.18 536.306 515.824C536.851 515.099 536.929 509.323 536.077 509.076C534.894 508.734 532.104 509.326 530.692 509.076C530.582 509.812 530.646 509.64 531.163 509.855C532.14 510.265 535.197 510.522 535.436 511.718C535.5 512.035 535.058 514.215 534.816 514.499C534.191 515.238 532.269 515.075 531.437 515.504Z" fill="#3B576B"/>
<path d="M588.263 594.036C593.898 594.791 599.451 595.519 605.182 595.268C606.869 595.192 609.388 595.032 611.019 594.824C611.448 594.77 613.048 594.383 613.148 593.867C604.898 595.032 596.539 593.734 588.26 594.036H588.263Z" fill="#3B576B"/>
<path d="M509.098 447.346C509.972 445.728 511.417 444.607 511.391 442.533C511.381 441.681 510.724 440.963 510.836 440.25C511.088 438.638 513.146 435.939 513.239 434.027L510.353 440.184C510.614 447.382 504.151 453.487 501.674 460.209L498.762 462.866C499.52 462.398 500.674 462.156 501.332 461.625C502.932 460.335 507.679 449.976 509.098 447.346Z" fill="#3B576B"/>
<path d="M553.724 601.154L555.949 601.848C551.16 601.758 546.435 602.316 541.636 602.214C536.983 602.114 532.245 601.317 527.533 601.504C525.001 601.607 526.024 602.347 527.92 602.214C531.681 601.951 534.648 602.47 538.292 602.561C544.574 602.715 551.282 602.833 557.436 601.848C556.746 601.033 554.211 599.783 553.724 601.154Z" fill="#3B576B"/>
<path d="M290.942 557.371L294.847 555.297C290.909 555.656 289.213 557.767 287.61 560.856L276.822 568.489L277.038 569.349L281.105 572.314C278.345 572.704 275.935 572.526 273.31 573.552C272.727 573.779 272.394 573.504 272.565 574.401C273.568 574.205 275.107 574.262 276.003 574.036C276.3 573.96 276.293 573.453 276.568 573.392C278.751 572.912 281.092 572.598 283.334 572.662L280.244 571.215L277.771 569.017C281.95 564.86 287.871 562.453 290.945 557.371H290.942Z" fill="#3B576B"/>
<path d="M440.079 540.696C449.345 539.096 458.771 539.999 468.124 539.658C468.576 539.642 469.508 539.92 469.417 539.313C468.492 539.153 467.605 538.996 466.65 538.945C461.368 538.661 454.118 538.939 448.79 539.295C446.752 539.431 444.201 539.736 442.179 540.062C441.663 540.144 440.163 540.162 440.076 540.696H440.079Z" fill="#3B576B"/>
<path d="M522.748 412.475C522.525 410.86 521.455 409.19 521.042 407.62L532.181 407.267L529.769 406.576H520.484C520.252 406.576 519.952 407.089 519.981 407.382C520.171 409.269 522.47 411.404 522.135 414.36C521.78 417.494 518.375 422.732 516.891 425.8C516.43 426.757 515.669 428.14 515.656 429.167C517.301 426.389 519.097 423.674 520.365 420.712C521.164 418.843 522.993 414.251 522.748 412.478V412.475Z" fill="#3B576B"/>
<path d="M434.501 541.396L423.607 542.141C422.649 542.591 422.697 543.355 423.752 543.669C422.278 545.78 425.9 547.362 427.819 546.948C426.429 545.553 422.53 546.061 425.003 543.449L434.501 541.396Z" fill="#3B576B"/>
<path d="M502.657 605.675C501.915 605.72 501.583 605.4 501.738 606.369C505.269 605.566 509.03 606.819 512.687 606.366L523.646 604.984C520.279 604.796 516.767 605.569 513.448 605.69C509.907 605.82 506.166 605.458 502.654 605.675H502.657Z" fill="#3B576B"/>
<path d="M330.86 529.408C330.548 526.289 329.661 523.228 329.277 520.118L328.267 517.418C328.819 521.522 330.206 525.613 330.49 529.756C330.58 531.09 330.725 534.128 330.486 535.302C330.29 536.272 329.142 536.619 329.029 537.093C328.906 537.615 329.87 537.965 330.048 538.506C330.312 539.318 330.086 540.644 330.119 541.568C330.135 541.987 329.841 542.86 330.486 542.778C330.177 540.357 331.251 537.63 331.267 535.308C331.276 533.787 331.018 530.994 330.86 529.405V529.408Z" fill="#3B576B"/>
<path d="M654.387 513.943C654.252 513.312 653.658 513.291 653.1 513.233C651.994 513.122 647.273 512.79 646.489 512.986C645.341 513.273 644.012 514.973 642.864 515.501L637.852 520.537C639.233 519.481 645.096 513.943 646.399 513.943H654.387Z" fill="#3B576B"/>
<path d="M340.738 504.933C346.733 504.604 344.108 505.67 343.534 508.59C343.469 508.922 343.208 510.193 343.869 510.121C343.64 507.119 347.114 505.459 348.149 502.832C347.182 503.143 346.778 504.417 345.914 504.574C344.26 504.873 341.696 503.583 339.796 504.396C336.645 506.379 333.665 508.674 330.55 510.688C329.086 511.636 325.941 512.077 327.344 513.943C331.559 510.655 335.587 506.917 340.741 504.933H340.738Z" fill="#3B576B"/>
<path d="M617.244 433.335C615.767 433.063 614.093 432.77 612.6 432.64C611.742 432.565 605.93 432.23 605.598 432.335C604.869 432.571 604.008 435.907 603.879 436.804C604.682 436.411 605.34 433.12 605.982 432.969C607.185 432.685 612.7 433.594 614.444 433.694C615.041 433.727 616.989 433.954 617.244 433.338V433.335Z" fill="#3B576B"/>
<path d="M585.671 505.608C584.19 505.493 569.752 505.722 569.684 506.498C569.884 508.817 570.394 508.473 572.67 508.379C572.422 507.736 572.019 507.018 571.187 506.987L572.206 506.387C576.254 506.063 580.32 506.106 584.377 505.952C584.829 505.934 585.758 506.214 585.671 505.608Z" fill="#3B576B"/>
<path d="M464.955 556.855C468.109 556.9 471.263 556.613 474.446 556.668C476.256 556.698 477.952 557.115 480.006 557.03C480.458 557.012 481.387 557.293 481.3 556.686C475.83 556.281 470.338 555.288 464.955 556.855Z" fill="#3B576B"/>
<path d="M614.638 532.709C611.735 532.787 608.694 532.86 605.953 533.787L596.448 540.529L604.469 535.529L614.638 532.712V532.709Z" fill="#3B576B"/>
<path d="M431.578 613.897C431.121 613.915 429.131 614.388 429.215 615.001L447.73 612.793C447.82 612.793 454.134 612.903 454.025 612.553C448.516 612.658 437.084 613.683 431.578 613.897Z" fill="#3B576B"/>
<path d="M464.958 575.445H440.815V575.792H464.958V575.445Z" fill="#3B576B"/>
<path d="M435.788 577.895C436.198 577.913 437.543 578.128 437.475 577.536C432.934 577.473 428.103 575.915 423.736 577.705L426.89 578.23L425.965 577.539C429.264 577.258 432.537 577.762 435.788 577.898V577.895Z" fill="#3B576B"/>
<path d="M622.001 429.626C621.504 430.32 620.533 430.8 620.385 431.585C622.878 430.148 623.881 427.24 625.619 425.021C626.619 423.744 628.835 423.022 626.7 421.525C626.503 421.827 626.803 421.944 626.525 422.379C625.029 424.743 623.62 427.364 622.001 429.629V429.626Z" fill="#3B576B"/>
<path d="M318.53 545.835C319.155 543.133 320.548 541.605 323.454 540.886L324.373 540.014C323.099 540.883 319.955 541.52 318.994 542.622C318.249 543.477 318.697 544.796 317.649 545.533C316.259 546.511 308.903 548.29 306.474 549.326C305.555 549.718 303.485 550.609 302.749 551.053C302.249 551.352 301.746 551.466 301.901 552.167C307.187 549.54 312.731 547.324 318.526 545.835H318.53Z" fill="#3B576B"/>
<path d="M618.354 326.314C617.909 326.691 621.402 330.121 621.627 331.081C621.882 332.174 621.35 333.304 621.308 334.463C621.295 334.849 621.076 335.782 621.692 335.689C621.879 333.88 622.459 331.471 621.976 329.695C621.818 329.113 619.105 325.673 618.354 326.311V326.314Z" fill="#3B576B"/>
<path d="M600.468 446.474C599.903 446.945 594.401 447.105 593.208 448.023C592.937 448.232 591.063 451.299 590.792 451.843L590.873 452.788C591.218 451.707 592.405 449.687 593.344 449.017C595.179 447.706 599.526 447.875 600.535 447.057C601.026 446.661 601.622 443.85 601.645 443.062C600.735 443.486 600.932 446.088 600.468 446.474Z" fill="#3B576B"/>
<path d="M672.587 437.68C675.683 436.399 679.901 436.239 681.865 433.682C677.186 435.868 671.69 436.644 667.759 440.11C669.446 439.431 670.894 438.38 672.587 437.68Z" fill="#3B576B"/>
<path d="M405.341 546.94C402.938 547.136 400.526 547.592 398.11 547.653L398.587 548.429L403.306 550.428C399.287 550.506 395.253 550.621 391.231 550.778C390.773 550.796 389.851 550.512 389.935 551.125H402.377C402.509 551.125 404.76 550.518 404.789 550.086C403.248 550.286 402.122 548.927 401.077 548.003L406.089 547.306C406.692 546.838 405.638 546.919 405.338 546.943L405.341 546.94Z" fill="#3B576B"/>
<path d="M689.139 345.747C688.474 344.863 688.365 343.758 687.636 342.982C686.488 341.762 683.011 339.343 681.466 338.329C680.696 337.821 680.199 337.405 680.386 338.468C683.556 340.198 686.459 342.447 688.365 345.427L692.635 349.075C691.848 347.574 690.08 346.994 689.139 345.747Z" fill="#3B576B"/>
<path d="M703.217 448.272C703.868 447.586 705.268 447.635 705.903 447.133C706.855 446.382 707.958 443.549 708.422 442.375C707.145 443.416 706.39 444.866 705.271 446.025C704.546 446.777 702.736 447.514 703.217 448.272Z" fill="#3B576B"/>
<path d="M636.008 587.261C634.098 587.079 631.68 587.261 629.693 587.261C629.196 587.261 627.8 587.979 626.91 587.611V587.955H638.049V587.611C637.288 587.886 636.478 587.306 636.008 587.261Z" fill="#3B576B"/>
<path d="M603.118 495.531L583.436 499.347C589.396 498.167 595.943 497.602 601.819 496.222C602.335 496.101 602.977 496.228 603.118 495.531Z" fill="#3B576B"/>
<path d="M711.132 348.102C712.709 348.352 714.337 348.995 715.895 349.207C716.285 349.261 717.246 349.5 717.153 348.899L707.129 346.465L711.135 348.099L711.132 348.102Z" fill="#3B576B"/>
<path d="M579.714 503.164C580.721 502.451 578.927 501.002 577.873 501.068L578.237 500.398C574.664 500.425 578.566 503.973 579.711 503.167L579.714 503.164Z" fill="#3B576B"/>
<path d="M588.279 361.406V367.14C588.279 367.406 588.74 369.858 589.398 368.873C588.908 367.161 589.146 365.431 588.975 363.71C588.93 363.251 588.775 361.572 588.279 361.409V361.406Z" fill="#3B576B"/>
<path d="M703.038 366.266L699.329 361.055C699.526 363.108 700.835 365.605 703.038 366.266Z" fill="#3B576B"/>
<path d="M618.714 409.356C617.859 407.107 618.804 405.008 619.085 402.756C618.546 402.75 618.365 403.816 618.24 404.217C617.762 405.739 616.811 408.58 618.714 409.353V409.356Z" fill="#3B576B"/>
<path d="M342.028 539.135C340.741 537.707 338.719 535.777 336.825 535.143L342.766 540.352C342.927 539.7 342.379 539.524 342.028 539.135Z" fill="#3B576B"/>
<path d="M588.648 375.654L589.755 383.643C589.722 381.593 589.626 379.283 589.345 377.257C589.293 376.883 589.2 375.633 588.648 375.657V375.654Z" fill="#3B576B"/>
<path d="M704.63 345.672C704.35 345.461 704.275 344.769 703.798 344.552C702.708 344.057 701.512 344.15 701.928 345.421C703.772 344.944 703.656 346.225 705.111 346.442C705.495 346.499 706.117 346.674 706.014 346.122C705.536 346.068 705.011 345.956 704.63 345.672Z" fill="#3B576B"/>
<path d="M493.185 503.171C493.662 501.582 494.133 499.988 493.93 498.309C493.094 498.639 492.969 500.194 492.866 500.96C492.804 501.413 492.475 503.08 493.185 503.174V503.171Z" fill="#3B576B"/>
<path d="M378.414 552.51L389.553 551.127C386.309 551.423 382.929 551.48 379.698 551.803C379.143 551.858 378.553 551.882 378.414 552.51Z" fill="#3B576B"/>
<path d="M585.853 464.262C581.651 467.477 579.28 472.036 575.636 475.717C576.052 476.098 577.942 474.129 578.225 473.8C579.677 472.127 580.693 469.826 582.167 468.105C583.311 466.768 584.995 465.81 585.853 464.262Z" fill="#3B576B"/>
<path d="M522.156 497.61L526.981 494.139C526.103 494.054 521.588 497.024 522.156 497.61Z" fill="#3B576B"/>
<path d="M342.938 513.602L342.445 515.432L344.602 518.807C344.402 516.963 342.854 515.435 342.938 513.605V513.602Z" fill="#3B576B"/>
<path d="M477.207 576.141H469.779V576.488H477.207V576.141Z" fill="#3B576B"/>
<path d="M423.732 546.604H416.675V546.951H423.732V546.604Z" fill="#3B576B"/>
<path d="M531.829 491.19C533.042 490.613 534.08 490.06 535.535 490.314C534.667 488.542 532.468 489.746 531.829 491.19Z" fill="#3B576B"/>
<path d="M531.094 606.178L529.962 606.369C531.465 606.414 532.652 607.105 533.949 607.682C534.268 607.824 535.219 608.395 535.151 607.588C535.106 607.051 531.759 606.405 531.091 606.178H531.094Z" fill="#3B576B"/>
<path d="M608.77 494.051C608.215 494.263 607.76 493.84 607.954 494.83L611.666 493.444C610.66 493.387 609.682 493.701 608.773 494.048L608.77 494.051Z" fill="#3B576B"/>
<path d="M426.319 555.295C425.268 555.404 423.53 554.83 422.978 555.983C424.033 555.875 425.768 556.448 426.319 555.295Z" fill="#3B576B"/>
<path d="M494.303 606.025L490.962 606.366C492.058 606.418 493.664 607.345 494.303 606.025Z" fill="#3B576B"/>
<path d="M702.666 401.017C701.527 400.839 702.085 401.307 701.921 401.862C700.979 405.002 703.095 403.112 702.666 401.017Z" fill="#3B576B"/>
<path d="M695.78 410.04L695.977 411.091L697.835 406.58L695.78 410.04Z" fill="#3B576B"/>
<path d="M715.296 314.495L717.892 313.806C717.237 313.589 715.08 313.254 715.296 314.495Z" fill="#3B576B"/>
<path d="M625.786 375.302L626.156 372.18C625.663 372.225 625.563 373.795 625.524 374.19C625.486 374.574 625.086 375.371 625.786 375.302Z" fill="#3B576B"/>
<path d="M680.383 575.095C681.241 574.89 683.205 575.557 683.721 574.754C682.863 574.956 680.867 574.295 680.383 575.095Z" fill="#3B576B"/>
<path d="M465.694 576.137C466.43 575.944 468.336 576.584 468.661 575.796C467.926 575.989 466.02 575.349 465.694 576.137Z" fill="#3B576B"/>
<path d="M417.23 527.835L419.836 525.07C418.997 526.036 417.301 526.401 417.23 527.835Z" fill="#3B576B"/>
<path d="M716.772 436.803V436.462L714.546 436.115C714.034 436.335 716.159 437.072 716.772 436.803Z" fill="#3B576B"/>
<path d="M416.669 532.358V530.625H416.305C416.324 531.567 415.299 532.603 416.669 532.358Z" fill="#3B576B"/>
<path d="M580.47 548C579.641 548.1 577.948 548.272 577.503 549.036L580.47 548Z" fill="#3B576B"/>
<path d="M704.148 376.002H703.784V377.735H704.148V376.002Z" fill="#3B576B"/>
<path d="M641.758 587.611H639.904V587.952H641.758V587.611Z" fill="#3B576B"/>
<path d="M485.009 488.227L483.899 487.188C483.777 487.845 484.332 488.344 485.009 488.227Z" fill="#3B576B"/>
<path d="M578.987 592.822H577.133V593.164H578.987V592.822Z" fill="#3B576B"/>
<path d="M693.372 350.982H693.008V352.368H693.372V350.982Z" fill="#3B576B"/>
<path d="M589.752 354.459H589.388V355.844H589.752V354.459Z" fill="#3B576B"/>
<path d="M589.382 356.193H589.018V357.579H589.382V356.193Z" fill="#3B576B"/>
<path d="M523.646 521.244H522.162V521.585H523.646V521.244Z" fill="#3B576B"/>
<path d="M590.493 458.35C589.271 459.551 588.12 461.025 587.336 462.513C588.407 461.23 589.871 459.887 590.493 458.35Z" fill="#3B576B"/>
<path d="M493.932 496.225H493.568V497.611H493.932V496.225Z" fill="#3B576B"/>
<path d="M400.33 524.363C405.08 522.455 403.629 529.566 404.79 530.619C404.819 530.647 405.574 530.749 405.522 530.45C403.958 527.995 404.513 524.753 403.955 522.186C403.6 520.553 402.255 518.11 401.707 516.298C401.162 514.505 400.917 512.602 400.326 510.815C403.877 510.99 407.357 511.256 410.927 511.174C412.427 511.141 413.985 510.371 415.549 510.993C416.777 511.482 419.477 515.241 420.564 516.377C421.218 517.062 425.217 520.408 425.205 520.716C425.195 520.939 424.318 521.144 424.079 521.483C423.76 521.936 423.498 523.068 423.163 523.663C424.073 523.397 424.269 522.485 424.85 522.126C428.088 520.127 431.868 522.099 435.138 522.893L441.92 523.675C439.475 522.195 437.247 522.615 434.767 522.198C433.032 521.908 431.081 520.83 429.381 520.631C428.191 520.492 426.859 520.936 426.066 520.643C423.318 519.626 417.21 510.528 416.042 510.187C412.833 510.317 409.66 510.537 406.435 510.486C405.196 510.465 399.549 509.417 399.227 510.667L402.939 522.482C403.303 523.934 400.933 523.46 400.323 524.366L400.33 524.363Z" fill="#3B576B"/>
<path d="M652.521 466.342C652.05 466.366 651.031 468.682 651.776 468.77L652.521 466.342Z" fill="#3B576B"/>
<path d="M690.79 450.007C691.49 449.789 693.076 449.681 693.386 448.971C692.683 449.189 691.086 449.303 690.79 450.007Z" fill="#3B576B"/>
<path d="M330.127 544.519H330.492C330.676 543.072 329.943 543.072 330.127 544.519Z" fill="#3B576B"/>
<path d="M623.927 381.905H624.291C624.475 380.459 623.743 380.459 623.927 381.905Z" fill="#3B576B"/>
<path d="M589.761 353.07C589.493 353.559 589.996 353.997 590.125 353.761C590.393 353.272 589.89 352.834 589.761 353.07Z" fill="#3B576B"/>
<path d="M616.13 492.744C616.652 492.994 617.12 492.523 616.868 492.403C616.346 492.152 615.878 492.623 616.13 492.744Z" fill="#3B576B"/>
<path d="M615.021 493.091C615.543 493.342 616.011 492.871 615.759 492.75C615.237 492.499 614.769 492.97 615.021 493.091Z" fill="#3B576B"/>
<path d="M659.396 462.178L656.613 463.739C657.419 463.522 659.219 463.066 659.396 462.178Z" fill="#3B576B"/>
<path d="M703.417 369.745C703.15 370.234 703.653 370.673 703.782 370.437C704.05 369.948 703.546 369.509 703.417 369.745Z" fill="#3B576B"/>
<path d="M74.8015 584.478C75.324 584.728 75.7916 584.257 75.54 584.137C75.0176 583.886 74.55 584.357 74.8015 584.478Z" fill="#3B576B"/>
<path d="M707.502 398.587C707.235 399.076 707.738 399.514 707.867 399.279C708.135 398.79 707.631 398.352 707.502 398.587Z" fill="#3B576B"/>
<path d="M525.504 605.324C526.026 605.574 526.494 605.103 526.242 604.983C525.72 604.732 525.252 605.203 525.504 605.324Z" fill="#3B576B"/>
<path d="M695.612 412.134C695.88 411.645 695.377 411.207 695.248 411.443C694.98 411.932 695.483 412.37 695.612 412.134Z" fill="#3B576B"/>
<path d="M590.134 453.139C589.924 453.725 589.563 455.029 590.498 455.22C589.934 454.673 590.821 453.296 590.134 453.139Z" fill="#3B576B"/>
<path d="M528.85 606.021C529.372 606.272 529.84 605.801 529.588 605.68C529.066 605.429 528.598 605.9 528.85 606.021Z" fill="#3B576B"/>
<path d="M688.548 450.707C688.026 450.457 687.558 450.928 687.81 451.049C688.332 451.299 688.8 450.828 688.548 450.707Z" fill="#3B576B"/>
<path d="M690.406 450.013C689.951 449.934 688.503 450.523 688.925 450.701C689.38 450.78 690.828 450.191 690.406 450.013Z" fill="#3B576B"/>
<path d="M664.234 459.744L662.195 460.955C662.795 460.916 664.392 460.366 664.234 459.744Z" fill="#3B576B"/>
<path d="M537.758 518.463C537.235 518.213 536.768 518.684 537.019 518.804C537.542 519.055 538.009 518.584 537.758 518.463Z" fill="#3B576B"/>
<path d="M602.01 442.363C602.278 441.874 601.775 441.436 601.646 441.671C601.378 442.16 601.881 442.598 602.01 442.363Z" fill="#3B576B"/>
<path d="M460.121 530.279C460.066 530.231 458.767 529.878 458.641 529.929C458.538 530.433 459.557 530.527 460.121 530.617C460.102 530.506 460.173 530.321 460.121 530.276V530.279Z" fill="#3B576B"/>
<path d="M443.047 524.026C442.525 523.775 442.057 524.246 442.309 524.367C442.831 524.618 443.299 524.147 443.047 524.026Z" fill="#3B576B"/>
<path d="M346.289 522.284C346.531 522.169 346.531 522.051 346.289 521.936V522.284Z" fill="#3B576B"/>
<path d="M345.55 520.895C345.792 520.78 345.792 520.662 345.55 520.547V520.895Z" fill="#3B576B"/>
<path d="M602.197 440.977V441.324C602.439 441.209 602.439 441.091 602.197 440.977Z" fill="#3B576B"/>
<path d="M345.18 520.197C345.422 520.083 345.422 519.965 345.18 519.85V520.197Z" fill="#3B576B"/>
<path d="M328.471 537.58L327.916 538.096C327.91 538.462 328.845 537.891 328.471 537.58Z" fill="#3B576B"/>
<path d="M344.81 519.503C345.052 519.388 345.052 519.27 344.81 519.156V519.503Z" fill="#3B576B"/>
<path d="M586.967 462.873L586.412 463.389C586.405 463.754 587.341 463.184 586.967 462.873Z" fill="#3B576B"/>
<path d="M655.319 464.603C655.561 464.488 655.561 464.37 655.319 464.256V464.603Z" fill="#3B576B"/>
<path d="M412.775 546.951C413.017 546.837 413.017 546.719 412.775 546.604V546.951Z" fill="#3B576B"/>
<path d="M569.887 553.207C570.129 553.092 570.129 552.974 569.887 552.859V553.207Z" fill="#3B576B"/>
<path d="M653.822 464.951V465.298C654.064 465.184 654.064 465.066 653.822 464.951Z" fill="#3B576B"/>
<path d="M625.22 419.438C624.852 419.679 625.42 419.915 625.597 420.121C625.968 419.891 625.423 419.662 625.22 419.438Z" fill="#3B576B"/>
<path d="M624.111 418.049C623.743 418.291 624.311 418.526 624.488 418.732C624.859 418.502 624.314 418.273 624.111 418.049Z" fill="#3B576B"/>
<path d="M623.749 417.346V417.693C623.991 417.578 623.991 417.461 623.749 417.346Z" fill="#3B576B"/>
<path d="M653.083 465.303L652.528 465.82C652.522 466.185 653.457 465.614 653.083 465.303Z" fill="#3B576B"/>
<path d="M667.204 458.35V458.697C667.446 458.582 667.446 458.464 667.204 458.35Z" fill="#3B576B"/>
<path d="M666.465 458.697V459.044C666.707 458.929 666.707 458.811 666.465 458.697Z" fill="#3B576B"/>
<path d="M665.707 459.045V459.392C665.949 459.278 665.949 459.16 665.707 459.045Z" fill="#3B576B"/>
<path d="M664.968 459.391V459.738C665.21 459.624 665.21 459.506 664.968 459.391Z" fill="#3B576B"/>
<path d="M396.066 611.581C396.308 611.466 396.308 611.348 396.066 611.234V611.581Z" fill="#3B576B"/>
<path d="M661.622 461.475C661.864 461.36 661.864 461.242 661.622 461.127V461.475Z" fill="#3B576B"/>
<path d="M660.144 462.169C660.385 462.054 660.385 461.937 660.144 461.822V462.169Z" fill="#3B576B"/>
<path d="M660.883 461.822C661.125 461.707 661.125 461.589 660.883 461.475V461.822Z" fill="#3B576B"/>
<path d="M169.846 236.581C171.223 236.666 172.701 236.717 174.168 236.866C175.115 236.963 176.043 237.227 176.987 237.373C177.924 237.518 178.848 237.378 179.742 237.093C180.241 236.934 180.721 236.719 181.259 236.511C181.45 236.547 181.72 236.599 182 236.652C181.955 237.41 181.277 238.027 180.311 238.092C179.834 238.124 179.353 238.111 178.874 238.098C177.266 238.051 175.692 238.253 174.114 238.547C172.756 238.8 171.371 238.971 169.99 239.048C168.43 239.134 166.957 239.417 165.58 240.151C164.981 240.472 164.327 240.694 163.718 240.999C163.519 241.099 163.327 241.291 163.232 241.486C162.994 241.975 162.807 242.488 162.612 242.995C162.394 243.563 162.015 243.906 161.352 243.868C160.921 243.842 160.488 243.77 160.058 243.783C159.781 243.792 159.506 243.917 159.188 244C159.156 243.905 159.102 243.744 159.041 243.559C157.874 243.567 158.312 242.746 158.304 242.177C157.85 242.233 157.446 242.3 157.039 242.326C156.719 242.345 156.485 242.209 156.388 241.88C156.353 241.759 156.251 241.649 156.161 241.549C155.645 240.974 155.437 240.292 155.344 239.548C155.286 239.073 155.528 238.934 155.931 238.901C156.366 238.865 156.804 238.853 157.239 238.816C158.274 238.731 159.312 238.659 160.343 238.54C161.011 238.463 161.016 238.365 160.827 237.74C160.74 237.453 160.812 237.119 160.812 236.776C160.682 236.843 160.532 236.922 160.385 236.997C160.31 236.965 160.233 236.955 160.201 236.914C159.443 235.947 158.632 235.011 158.142 233.875C157.519 233.655 157.579 233.026 157.301 232.601C156.811 231.85 156.316 231.098 155.647 230.461C155.308 230.138 155.116 229.671 154.863 229.267C154.6 228.847 154.367 228.408 154.079 228.005C153.706 227.481 153.28 226.994 152.901 226.474C152.694 226.189 152.541 225.866 152.356 225.564C151.853 224.743 151.353 223.921 150.839 223.107C150.711 222.903 150.523 222.734 150.384 222.535C150.205 222.28 150 222.072 150.044 221.68C150.073 221.421 149.758 221.128 149.601 220.847C149.518 220.696 149.444 220.539 149.32 220.295C149.551 220.322 149.678 220.337 149.808 220.353C149.805 220.318 149.815 220.278 149.8 220.25C149.665 220.002 149.496 219.765 149.395 219.505C149.31 219.286 148.956 219.092 149.304 218.774C149.364 218.719 149.109 218.345 149 218.117C149.368 217.839 149.511 218.121 149.684 218.299C150.879 219.525 152.003 220.828 153.284 221.966C155.151 223.622 157.11 225.183 159.068 226.74C160.316 227.732 161.401 228.83 162.268 230.16C163.163 231.535 164.172 232.84 165.149 234.164C165.574 234.739 166.048 235.281 166.813 235.458C167.179 235.542 167.526 235.584 167.891 235.364C168.353 235.085 169.356 235.24 169.669 235.664C169.825 235.876 169.784 236.222 169.845 236.582L169.846 236.581Z" fill="#3B576B"/>
<path d="M522.994 154.504C522.812 154.504 522.625 154.471 522.45 154.51C521.193 154.785 519.936 154.686 518.678 154.522C517.555 154.375 516.43 154.235 515.306 154.092C515.14 154.07 514.975 154.046 514.809 154.027C514.282 153.969 513.773 153.986 513.274 154.253C512.673 154.573 512.045 154.829 511.431 155.121C511.135 155.261 510.838 155.262 510.522 155.233C510.209 155.204 509.889 155.267 509.572 155.289C509.468 155.296 509.363 155.299 509.259 155.305C509.107 155.314 508.946 155.293 508.802 155.336C508.283 155.495 508.173 155.695 508.256 156.331C507.814 156.448 507.367 156.572 506.918 156.684C506.557 156.774 506.197 156.883 505.831 156.924C504.999 157.014 504.387 157.517 503.871 158.183C502.509 159.944 501.301 161.836 500.105 163.739C500.066 163.801 500.048 163.88 500 164C500.092 163.98 500.15 163.985 500.19 163.956C500.756 163.55 501.327 163.152 501.883 162.728C502.753 162.065 503.614 161.387 504.477 160.711C504.816 160.444 505.13 160.129 505.488 159.903C506.023 159.566 506.584 159.282 507.139 158.986C507.469 158.81 507.798 158.615 508.146 158.496C508.689 158.31 509.247 158.176 509.801 158.03C509.89 158.006 509.992 158.015 510.083 158.034C510.622 158.145 511.156 158.29 511.698 158.373C512.202 158.45 512.716 158.44 513.221 158.514C513.483 158.553 513.731 158.701 513.989 158.783C514.27 158.873 514.555 158.944 514.852 159.026C514.907 158.808 514.944 158.66 514.993 158.466C515.61 158.736 515.952 158.312 516.296 157.859C516.172 157.593 515.941 157.613 515.737 157.581C515.136 157.487 514.526 157.424 513.996 157.049C513.858 156.952 513.732 156.835 513.613 156.738C513.652 156.47 513.763 156.326 513.958 156.285C514.528 156.163 515.038 155.885 515.537 155.569C516 155.277 516.507 155.161 517.038 155.145C517.739 155.123 518.44 155.078 519.14 155.052C519.863 155.026 520.587 155.013 521.309 154.993C521.895 154.977 522.447 154.791 523 154.614C522.998 154.578 522.996 154.542 522.994 154.507V154.504Z" fill="#3B576B"/>
<path d="M710.495 567C706.493 568.2 699.166 576.5 696.003 580.5L675.995 588.5L686.495 599L731.495 585.5L721.495 559.5C714.995 566 715.498 565.5 710.495 567Z" fill="#B2C8DB"/>
<path d="M77.8721 727.067C79.5767 726.701 80.9879 725.275 82.52 724.342C83.7051 723.617 85.1888 723.117 86.2914 722.271C86.644 722.001 86.9813 721.685 87.3074 721.339C89.5753 718.934 91.3375 714.964 94.0137 713.504C98.9397 710.823 104.725 711.386 109.945 711.11C115.275 710.831 121.017 710.031 126.307 710.337C128.16 710.446 130.406 710.551 131.747 712.513C131.265 710.568 129.355 710.39 130.527 708.087C134.379 706.041 137.775 702.858 141.38 700.206C144.328 698.038 147.835 695.118 150.744 693.222C152.327 692.194 154.327 691.493 156.025 690.458C158.003 689.254 160.077 687.209 162.161 686.899C167.555 686.094 176.626 688.147 182.243 689.243C184.453 689.673 188.319 690.066 190.287 690.985C192.919 692.216 191.572 694.542 190.406 696.545C190.753 696.841 191.34 695.657 191.582 695.216C191.857 694.703 191.996 694.047 192.29 693.546C193.205 691.985 197.673 690.041 199.304 688.989C203.511 686.265 204.414 684.418 209.565 684.228C214.738 684.042 219.827 685.108 224.974 685.515C225.861 685.587 227.375 685.846 228.158 685.55C228.836 685.287 230.58 682.801 231.329 682.051C233.537 679.845 235.909 677.76 238.191 675.693C239.383 674.611 244.251 669.864 245.245 669.799C252.419 669.337 262.571 673.773 269.82 675.977C271.822 676.585 278.94 676.891 280.898 677.549C283.32 678.366 284.576 679.877 286.567 681.829C286.804 681.401 284.601 679.314 284.422 678.781L284.669 676.74C288.855 674.182 293.153 671.883 296.969 668.392C299.292 666.266 303.133 662.682 304.864 659.836C305.387 658.978 305.567 657.992 306.228 657.126C307.096 655.989 308.258 655.392 309.32 654.692C309.655 654.95 309.622 655.334 309.668 655.775C309.864 657.712 308.606 661.686 308.433 663.971C308.415 664.233 308.245 665.035 308.595 664.974C309.034 661.525 309.775 657.534 311.124 654.581C311.769 653.163 316.338 646.333 317.312 645.33C318.295 644.317 320.211 644.439 321.486 644.422C328.278 644.314 336.361 645.558 343.184 646.675C355.557 648.701 363.282 651.792 375.507 655.335C381.76 657.148 383.997 658.129 390.626 657.653C393.613 657.435 397.526 657.317 400.528 657.798C401.093 657.886 401.516 658.564 402.226 658.66C405.759 659.135 412.079 657.504 415.79 656.846C419.278 656.227 421.374 655.251 425.044 655.861C426.741 656.144 428.744 656.665 430.43 657.171C432.629 657.823 436.198 659.805 438.142 659.982C440.637 660.207 443.82 659.555 446.408 659.462C451.6 659.283 456.837 659.227 462.04 658.774C463.198 658.677 464.535 658.09 465.778 658.301C467.058 658.514 468.521 661.408 469.874 661.782C468.857 659.378 466.25 658.65 466.917 655.291C469.226 651.214 471.261 646.231 473.632 642.297C474.146 641.444 474.744 640.733 475.333 639.988L485.256 640.837L492.637 640.898C497.741 640.511 502.862 640.697 507.978 640.923C508.911 641.183 508.136 642.831 507.766 643.472C507.021 644.748 505.147 647.612 504.289 648.669C503.588 649.53 502.614 650.024 501.997 650.936C501.788 651.245 501.767 651.476 502.107 651.303C502.739 650.991 504.066 649.318 504.647 648.647C508.464 644.203 511.507 638.919 515.135 634.509C517.566 631.55 522.453 629.811 525.495 627.585C531.552 623.151 537.387 617.279 543.593 613.067C551.924 613.005 560.288 614.967 568.613 615.939C570.892 616.209 574.625 616.889 576.743 616.729C577.375 616.681 577.977 616.083 578.54 615.927C587.249 613.519 596.47 611.701 605.038 608.919C607.566 608.103 609.964 606.851 612.483 606.036C612.802 605.929 612.934 605.851 612.854 605.813C617.85 603.254 626.773 599.536 631.825 597.422C641.052 593.555 650.042 597.662 659.411 598.662C660.258 598.75 661.712 598.791 662.459 599.028C663.278 599.287 663.977 600.979 665.04 600.814C664.301 600.302 663.364 598.585 664.061 597.603C664.501 596.976 666.828 595.638 667.573 595.039C669.634 593.382 675.069 587.734 676.916 587.334C678.66 586.953 681.505 587.636 682.883 585.825C684.319 585.358 685.756 584.818 687.216 584.485C689.073 584.062 691.099 584.082 692.9 583.602C694.571 583.156 694.508 582.89 695.56 581.325C698.129 577.505 702.316 573.843 705.614 571.032C707.968 569.017 710.513 566.691 713.274 566.104C714.055 565.939 714.979 566.161 715.739 565.897C716.918 565.481 718.844 562.645 720.251 562.176C721.431 561.882 723.858 564.221 725.056 564.926C727.536 566.383 730.221 567.619 732.794 568.661C732.514 569.814 732.039 570.139 731.422 570.781C731.248 570.961 730.892 571.318 731.419 571.238C732.872 569.683 734.735 568.629 736.183 567.153C740.551 562.71 745.12 558.542 749.902 554.892C750.682 554.296 753.141 552.51 753.89 552.373C754.945 552.177 757.391 553.498 758.503 554.034C763.113 556.252 767.604 559.143 772.126 561.702L772.148 561.709C774 563.287 778.429 565.873 778.704 566.178C779.86 567.473 779.693 567.81 781.486 567.917C786.759 568.242 792.318 567.371 797.519 568.761C798.479 569.02 799.447 569.339 800.413 569.68C802.242 570.333 804.073 571.065 805.902 571.605C811.355 573.224 816.869 574.482 822.299 576.245C822.89 576.435 825.878 577.827 826.12 577.438L825.964 576.677C819.149 574.929 812.293 573.223 805.513 571.129C803.798 570.599 802.096 569.938 800.389 569.299C797.991 568.406 795.584 567.571 793.127 567.247C789.26 566.74 785.026 566.978 781.231 566.411C780.056 566.239 772.541 561.381 771.405 560.924L771.416 560.936C767.147 558.062 762.729 555.506 758.28 553.3C756.876 552.598 754.92 551.309 753.477 551.659C752.632 551.863 750.521 553.505 749.678 554.153C746.12 556.898 742.687 560.048 739.364 563.209C738.51 564.023 734.92 567.513 734.231 567.76C733.11 568.164 731.788 567.666 730.678 567.225C727.564 565.985 724.929 563.664 722.059 562.017C721.573 561.738 720.479 561.101 720.043 561.227C719.88 561.276 718.041 562.768 717.732 563.03C717.122 563.555 716.261 564.821 715.646 565.089C714.966 565.383 714.281 565.182 713.607 565.362C710.548 566.189 708.124 568.247 705.515 570.446C702.811 572.73 698.174 576.65 695.922 579.463C694.492 581.251 694.861 582.277 692.676 582.863C690.029 583.577 687.269 583.525 684.544 584.444C683.781 584.7 682.798 584.79 682.402 585.785C681.708 586.201 680.824 586.89 680.393 586.943C679.731 587.023 678.701 586.755 677.969 586.761C675.158 586.777 670.221 592.455 667.516 594.508C666.385 595.36 663.523 597.654 662.421 597.96C661.563 598.2 658.409 598.098 657.412 598.006C650.081 597.329 642.297 593.401 634.766 595.489C631.554 596.377 627.125 598.697 623.971 600.265C621.114 601.688 615.428 604.576 612.35 605.818C609.696 606.667 607.175 607.9 604.51 608.734C595.602 611.515 586.363 613.108 577.408 615.696C566.207 615.33 555.057 612.778 543.859 612.007C537.287 616.315 531.158 622.484 524.747 627.13C521.605 629.411 517.296 630.879 514.665 633.933C513.71 635.044 510.949 639.419 510.014 639.772C507.034 639.955 504.021 639.596 501.043 639.613C495.726 639.639 490.329 640.095 485.018 639.851C483.455 639.777 475.794 638.577 475.021 639.277C471.398 644.892 468.378 651.213 465.149 657.274L459.124 658.204C453.113 658.246 446.949 659.059 440.964 659.065C434.357 659.074 427.582 653.835 420.892 654.789C415.734 655.523 410.494 657.309 405.227 657.758C401.181 658.102 397.055 656.68 393.067 656.494C390.419 656.374 387.323 657.364 384.49 657.233C381.362 657.09 378.338 655.479 375.284 654.601C354.79 648.707 339.017 644.495 318.194 643.392C317.252 643.533 316.127 645.189 315.552 646.168C314.469 648.005 312.607 651.764 311.204 653.072C310.269 653.947 308.202 654.382 306.942 655.464C305.183 656.981 303.998 660.202 302.284 662.212C296.635 668.86 289.879 672.98 283.075 676.981C273.021 676.031 258.175 669.85 248.088 669.128C246.061 668.983 244.957 668.677 243.189 670.046C238.705 673.518 233.944 678.476 229.985 682.942C229.54 683.443 228.466 684.701 227.965 684.849C227.101 685.106 225.508 684.882 224.55 684.819C219.027 684.449 208.719 682.266 203.893 685.15C201.176 686.769 196.559 691.062 193.612 691.125C191.372 691.175 187.08 689.59 184.578 689.1C180.715 688.345 176.822 687.574 172.947 687.025C170.078 686.622 162.245 685.254 159.96 686.512C159.273 686.893 158.561 687.789 157.822 688.278C155.789 689.62 153.36 690.63 151.449 692.009C149.966 693.078 148.439 694.707 146.887 695.876C140.612 700.593 134.176 704.975 127.786 709.394C122.138 709.901 116.472 710.253 110.812 710.561C105.34 710.853 96.1905 709.969 91.7503 714.656C90.0902 716.41 88.7779 718.583 87.2503 720.407C85.8773 722.048 84.3278 723.413 82.1885 723.936L77.8721 727.067Z" fill="#3B576B"/>
</g>
</g>
<defs>
<clipPath id="clip0_10587_64546">
<rect width="720" height="720" fill="white"/>
</clipPath>
</defs>
</svg>
