<svg width="20" height="20" viewBox="0 0 20 20" fill="none" xmlns="http://www.w3.org/2000/svg">
<path d="M17.5 10C17.5 14.1421 14.1421 17.5 10 17.5C5.85786 17.5 2.5 14.1421 2.5 10C2.5 5.85786 5.85786 2.5 10 2.5C14.1421 2.5 17.5 5.85786 17.5 10ZM10.2688 8.03684C9.53928 8.34026 8.08135 8.9683 5.89495 9.92087C5.53991 10.062 5.35393 10.2002 5.337 10.3352C5.30838 10.5635 5.59421 10.6533 5.98343 10.7757C6.03638 10.7924 6.09124 10.8096 6.14747 10.8279C6.53041 10.9523 7.04553 11.098 7.31332 11.1038C7.55623 11.109 7.82735 11.0089 8.12667 10.8033C10.1695 9.42438 11.224 8.7274 11.2902 8.7124C11.3369 8.70175 11.4017 8.68847 11.4455 8.7274C11.4894 8.7664 11.485 8.8402 11.4804 8.86C11.4521 8.98075 10.3301 10.0238 9.7495 10.5636C9.57633 10.7246 9.40758 10.889 9.23748 11.0529C8.88175 11.3958 8.61497 11.653 9.25225 12.073C9.8983 12.4988 10.5492 12.9237 11.1793 13.3728C11.49 13.5944 11.7692 13.7934 12.1141 13.7617C12.3146 13.7432 12.5216 13.5548 12.6266 12.9927C12.8751 11.6645 13.3635 8.78657 13.4764 7.60062C13.4863 7.49673 13.4739 7.36375 13.4639 7.30538C13.4539 7.247 13.433 7.16383 13.3572 7.10226C13.2672 7.02935 13.1285 7.01397 13.0665 7.01507C12.7844 7.02004 12.3516 7.17053 10.2688 8.03684Z" fill="currentColor"/>
</svg>
