<svg width="20" height="20" viewBox="0 0 20 20" fill="none" xmlns="http://www.w3.org/2000/svg">
<path d="M3.55 3.55C2.5 4.61 2.5 6.305 2.5 9.7V10.3C2.5 13.69 2.5 15.385 3.55 16.45C4.61 17.5 6.305 17.5 9.7 17.5H10.3C13.69 17.5 15.385 17.5 16.45 16.45C17.5 15.39 17.5 13.695 17.5 10.3V9.7C17.5 6.31 17.5 4.615 16.45 3.55C15.39 2.5 13.695 2.5 10.3 2.5H9.7C6.31 2.5 4.615 2.5 3.55 3.55ZM5.03011 7.06514H6.75011C6.80511 9.92517 8.06511 11.1352 9.06508 11.3852V7.06514H10.6801V9.53017C11.6651 9.42517 12.7051 8.30014 13.0551 7.06014H14.6651C14.5338 7.70202 14.2716 8.30994 13.8947 8.84592C13.518 9.38183 13.0347 9.83433 12.4751 10.1752C13.0996 10.4859 13.6511 10.9256 14.0932 11.4652C14.5353 12.0047 14.8581 12.6318 15.0401 13.3052H13.2651C12.8851 12.1202 11.9351 11.2002 10.6801 11.0752V13.3052H10.4851H10.4801C7.06011 13.3052 5.11011 10.9652 5.03011 7.06514Z" fill="currentColor"/>
</svg>
