<svg width="20" height="20" viewBox="0 0 20 20" fill="none" xmlns="http://www.w3.org/2000/svg">
<path d="M10 2.5C14.1421 2.5 17.5 5.85786 17.5 10C17.5 14.1421 14.1421 17.5 10 17.5C8.62459 17.5 7.33564 17.1298 6.22741 16.4835L2.50314 17.5L3.5171 13.7736C2.87047 12.6652 2.5 11.3759 2.5 10C2.5 5.85786 5.85786 2.5 10 2.5ZM7.2935 6.48125C7.19646 6.48807 7.10131 6.51177 7.01469 6.55608C6.9497 6.58933 6.88937 6.63738 6.79458 6.72689C6.70507 6.81141 6.65319 6.88523 6.59853 6.9564C6.32125 7.3174 6.17223 7.76054 6.175 8.21574C6.1765 8.5837 6.27208 8.9413 6.42303 9.2752C6.72913 9.9523 7.23392 10.6681 7.90071 11.3319C8.06088 11.4914 8.21781 11.6526 8.38701 11.8015C9.21461 12.5302 10.2009 13.0556 11.2673 13.3362C11.2673 13.3362 11.6873 13.4007 11.6934 13.401C11.8326 13.4085 11.9715 13.3985 12.1107 13.3913C12.3292 13.3801 12.5425 13.321 12.7356 13.2182C12.8597 13.1521 12.9184 13.1192 13.0226 13.0535C13.0226 13.0535 13.0545 13.0319 13.1162 12.986C13.2174 12.9106 13.28 12.8575 13.3642 12.7701C13.4263 12.7056 13.4797 12.6293 13.521 12.5435C13.5796 12.4211 13.6386 12.1874 13.6621 11.9934C13.68 11.8452 13.6746 11.7642 13.6727 11.7141C13.6695 11.6334 13.6028 11.5503 13.5297 11.5151L13.0936 11.319C13.0936 11.319 12.4415 11.0352 12.0426 10.8533C12.0011 10.8343 11.9556 10.8255 11.91 10.8228C11.8099 10.8166 11.6978 10.8427 11.6265 10.9178C11.6227 10.9163 11.5731 10.9593 11.0304 11.6166C11.0005 11.6524 10.9304 11.7302 10.8091 11.7229C10.7908 11.7216 10.7726 11.719 10.7548 11.7143C10.7057 11.7014 10.6578 11.6843 10.611 11.6645C10.5183 11.6251 10.4857 11.6102 10.4223 11.5829C9.98936 11.3937 9.59201 11.1407 9.24078 10.831C9.14658 10.748 9.05898 10.6587 8.96868 10.5712C8.65353 10.2657 8.39553 9.94082 8.20359 9.62035C8.19311 9.60288 8.17696 9.5776 8.15957 9.54932C8.12817 9.49825 8.09353 9.4375 8.08267 9.3958C8.05479 9.28547 8.12875 9.19683 8.12875 9.19683C8.12875 9.19683 8.3113 8.99725 8.39612 8.88873C8.47772 8.78425 8.54816 8.6821 8.59301 8.60928C8.68136 8.46725 8.70933 8.32046 8.66291 8.20722C8.45249 7.69424 8.23539 7.18402 8.01165 6.67671C7.96749 6.57659 7.83615 6.50384 7.7167 6.49005C7.67625 6.48538 7.63582 6.48068 7.5952 6.47801C7.49466 6.47311 7.39391 6.47419 7.2935 6.48125Z" fill="currentColor"/>
</svg>
