<svg width="36" height="37" viewBox="0 0 36 37" fill="none" xmlns="http://www.w3.org/2000/svg">
<path d="M30.339 5.24577C28.7408 3.63406 26.8427 2.344 24.6958 1.40982C22.5422 0.475645 20.2147 0 17.7679 0C15.3212 0 12.9903 0.472223 10.84 1.40982C8.69313 2.344 6.79502 3.63063 5.19679 5.24577C3.59516 6.85748 2.31385 8.7669 1.39376 10.9124C0.473674 13.0477 0.00681547 15.3712 0 17.8144H4.51183C4.52206 16.0487 4.87986 14.3446 5.58186 12.7534C6.29748 11.1314 7.26869 9.69082 8.46481 8.4692C9.66092 7.24758 11.0785 6.27234 12.6836 5.56743C14.2818 4.86594 15.9891 4.50664 17.7679 4.50664C19.5468 4.50664 21.254 4.86252 22.8557 5.56743C24.4573 6.26892 25.8783 7.24758 27.0744 8.46578C28.2705 9.69082 29.2452 11.1314 29.9574 12.75C30.6594 14.3412 31.0206 16.0453 31.0274 17.811H35.5392C35.529 15.3677 35.0656 13.0477 34.1455 10.909C33.2186 8.76006 31.9407 6.85064 30.3424 5.24235L30.339 5.24577Z" fill="#C4E0FA"/>
<path d="M9.83296 29.9907C13.2918 30.0284 5.23252 28.6493 7.31464 27.3456C9.54671 26.0418 4.88493 26.2198 1.59647 26.1205C-1.70903 26.0213 2.69717 27.3456 2.69717 27.3456C4.74181 27.6433 2.64265 28.2558 2.74147 29.279C2.84711 30.309 6.3707 29.9496 9.83977 29.9907H9.83296Z" fill="#C4E0FA"/>
<path d="M5.8645 24.5966C6.15075 24.073 4.18789 23.9327 3.95275 23.6761C3.71081 23.416 6.10985 23.6453 4.8524 22.3176C4.57297 22.0473 4.43325 21.8556 4.38213 21.7085H0.592735C0.545027 22.3963 -0.555672 23.6624 0.548433 24.3673C1.87404 25.2536 5.59188 25.1236 5.8645 24.5966Z" fill="#C4E0FA"/>
<path d="M31.6243 28.4235C27.702 26.9555 23.3946 28.444 25.0781 28.8957C26.7649 29.3474 26.7376 30.4287 25.8823 30.5314C25.7289 30.5519 23.0675 30.7264 23.1834 31.5853C23.2992 32.4442 29.6376 32.4442 28.5267 31.2842C27.4158 30.1208 34.7083 29.5733 31.6277 28.4235H31.6243Z" fill="#C4E0FA"/>
<path d="M16.1834 32.0118C15.3008 30.8244 6.35886 31.2761 7.12901 32.4464C7.89915 33.6133 12.0736 32.7817 12.1111 32.727C12.9085 31.519 17.066 33.2026 16.1834 32.0152V32.0118Z" fill="#C4E0FA"/>
<path d="M31.208 21.8566C30.3254 21.9593 28.3421 22.192 30.08 23.4581C30.1481 23.5094 30.2436 24.5154 29.4189 24.6694C28.6044 24.8234 28.6419 25.8158 30.9694 26.1477C33.2526 26.483 34.217 25.2751 33.624 24.6968C33.0107 24.1185 35.2052 23.5642 34.493 22.9585C33.8694 22.4486 35.3961 22.0996 35.5187 21.6992H31.5317C31.4669 21.7745 31.3715 21.8327 31.2114 21.8532L31.208 21.8566Z" fill="#C4E0FA"/>
<path d="M20.5632 34.3202C19.4488 34.7547 18.0994 34.3646 16.1059 33.8856C14.1123 33.4099 13.7307 35.1003 13.7307 35.1003C13.7034 35.665 16.5454 36.7463 19.1251 36.5341C21.7048 36.3151 23.6983 34.6897 23.0542 33.9745C22.4102 33.2594 21.6741 33.889 20.5598 34.3202H20.5632Z" fill="#C4E0FA"/>
</svg>
