<svg width="99" height="43" viewBox="0 0 99 43" fill="none" xmlns="http://www.w3.org/2000/svg">
<path d="M98.7656 29.2131C98.5237 29.2131 98.3087 29.2131 98.0668 29.2131C65.6556 29.2131 33.2712 29.2131 0.859949 29.2131C0.752449 29.2131 0.671825 29.2131 0.564325 29.2131C0.403075 29.1863 0.161199 29.3207 0.107449 29.1057C0.0536986 28.8638 0.0805736 28.595 0.107449 28.3531C0.107449 28.2725 0.188073 28.2725 0.268698 28.2457C0.349323 28.2457 0.456825 28.2457 0.564325 28.2457C33.2981 28.2457 66.0318 28.2457 98.7656 28.2457C98.7656 28.5682 98.7656 28.8906 98.7656 29.2131Z" fill="#C4E0FA"/>
<path d="M45.5531 43C44.9349 42.7312 44.3437 42.4356 43.8868 41.925C42.4893 40.4737 42.7581 37.84 44.3974 36.6575C46.1443 35.3944 48.8049 35.905 49.7724 38.0012C50.6324 39.8556 49.7993 42.1669 47.7837 42.8656C47.6762 42.8925 47.5687 42.8925 47.4881 43C46.8431 43 46.1981 43 45.5531 43ZM46.5206 42.1937C47.9718 42.1669 49.1543 41.1725 49.1543 39.5331C49.1543 37.9206 47.9718 36.8994 46.5206 36.8725C45.2574 36.8456 43.9674 37.8937 43.9406 39.4525C43.8599 41.0112 45.1231 42.1937 46.5206 42.1937Z" fill="#C4E0FA"/>
<path d="M0.83307 21.1506C0.83307 21.0163 0.83307 20.8819 0.83307 20.7744C0.83307 14.0288 0.83307 7.31001 0.83307 0.564384C0.83307 0.430009 0.752444 0.215009 0.886819 0.161259C1.04807 0.0806344 1.15557 0.268756 1.28994 0.376256C2.71432 1.50501 4.16557 2.63376 5.58994 3.73563C7.17557 4.97188 8.76119 6.23501 10.3468 7.49813C10.6156 7.71313 10.8843 7.90126 11.1262 8.11626C11.3143 8.27751 11.4756 8.25064 11.6637 8.08938C13.0343 7.01438 14.4318 5.91251 15.8024 4.83751C17.1193 3.81626 18.4093 2.76813 19.7262 1.74688C20.3443 1.26313 20.9356 0.779384 21.5537 0.295634C21.6612 0.215009 21.7687 0.0806327 21.9031 0.134383C22.0374 0.188133 21.9568 0.349382 21.9568 0.456882C21.9568 7.25626 21.9568 14.0288 21.9568 20.8281C21.9568 20.9356 22.0106 21.07 21.8762 21.1775C21.4193 20.7206 21.1237 20.1563 20.7206 19.6456C20.3712 19.2425 20.1024 18.7588 19.7531 18.3556C19.4574 18.0331 19.3768 17.6569 19.3768 17.2269C19.4037 13.4375 19.3768 9.67501 19.3768 5.88563C19.3768 5.75126 19.4574 5.59001 19.3231 5.50938C19.1887 5.45563 19.0812 5.59001 18.9737 5.67063C16.6087 7.52501 14.2168 9.37938 11.8518 11.2338C11.3681 11.61 11.3949 11.61 10.9112 11.2338C8.86869 9.64813 6.79932 8.03563 4.75682 6.45001C4.40744 6.18126 4.08495 5.88563 3.73557 5.61688C3.65495 5.56313 3.57432 5.42876 3.46682 5.48251C3.33244 5.53626 3.38619 5.67063 3.38619 5.77813C3.38619 7.14876 3.38619 8.51938 3.38619 9.89001C3.38619 12.4163 3.38619 14.9156 3.38619 17.4419C3.38619 17.6838 3.33244 17.8988 3.19807 18.1138C2.44557 19.135 1.66619 20.1563 0.913694 21.1775C0.886819 21.1775 0.859945 21.1775 0.83307 21.1506Z" fill="#C4E0FA"/>
<path d="M58.7219 14.9693C58.7219 13.2493 58.7219 11.5025 58.7219 9.78247C58.7219 9.37935 58.8294 9.29873 59.2326 9.29873C62.4576 9.3256 65.6826 9.3256 68.9076 9.29873C70.4663 9.29873 71.7563 8.41185 72.0519 6.93372C72.3744 5.40185 72.0251 3.92372 70.4663 3.1981C70.0632 3.00997 69.6332 2.92935 69.1763 2.92935C65.8438 2.92935 62.5382 2.92935 59.2057 2.92935C58.8294 2.92935 58.6951 2.82185 58.7219 2.4456C58.7488 1.85435 58.7488 1.2631 58.7219 0.671848C58.7219 0.429973 58.8026 0.349348 59.0444 0.349348C62.5651 0.349348 66.0857 0.322471 69.6063 0.376221C70.9232 0.376221 72.1326 0.833098 73.1269 1.74685C73.9601 2.49935 74.4169 3.49372 74.6051 4.5956C74.7932 5.6706 74.7932 6.7456 74.5244 7.8206C74.1213 9.37935 73.1538 10.4812 71.7563 11.2337C71.0038 11.6368 70.2244 11.825 69.3644 11.825C66.8113 11.7981 64.2851 11.825 61.7319 11.7981C61.3288 11.7981 61.1944 11.9056 61.1944 12.3087C61.2213 14.9156 61.1944 17.5493 61.2213 20.1562C61.2213 20.5862 61.0869 20.6937 60.7107 20.6668C60.2001 20.64 59.6626 20.64 59.1251 20.6668C58.8026 20.6937 58.6951 20.5862 58.6951 20.2368C58.7219 18.49 58.7219 16.7162 58.7219 14.9693Z" fill="#C4E0FA"/>
<path d="M91.0794 20.6669C88.6875 20.6669 86.3225 20.6669 83.9306 20.6669C83.5812 20.6669 83.5006 20.5594 83.5006 20.2369C83.5006 16.6894 83.5006 13.1687 83.5006 9.62124C83.5006 9.27187 83.6081 9.19124 83.9306 9.19124C88.1231 9.19124 92.2887 9.19124 96.4812 9.19124C96.8037 9.19124 96.9381 9.27187 96.9112 9.62124C96.8844 10.1856 96.8844 10.7769 96.9112 11.3412C96.9381 11.6637 96.8306 11.7712 96.4812 11.7712C94.3044 11.7444 92.1544 11.7712 89.9775 11.7712C88.795 11.7712 87.6394 11.7981 86.4569 11.7712C86.0806 11.7712 85.9731 11.9056 85.9731 12.255C86 14.0287 85.9731 15.7756 85.9731 17.5494C85.9731 18.06 86 18.0869 86.5106 18.0869C89.9775 18.0869 93.4444 18.0869 96.9381 18.0869C97.2606 18.0869 97.4487 18.1944 97.5831 18.49C97.8519 19.0812 98.1744 19.6456 98.47 20.21C98.685 20.6131 98.6312 20.6669 98.1744 20.6669C95.8094 20.6669 93.4444 20.6669 91.0794 20.6669Z" fill="#C4E0FA"/>
<path d="M48.4826 10.5081C48.1332 10.5081 47.8107 10.5081 47.4613 10.5081C47.2732 10.5081 47.1657 10.4544 47.1657 10.2394C47.1119 9.2719 46.9238 8.35815 46.4938 7.49815C45.3651 5.1869 43.5913 3.62815 41.0382 3.09065C38.4851 2.55315 36.2813 3.33252 34.4269 5.10627C33.0026 6.4769 32.1963 8.1969 32.0888 10.2125C32.0888 10.4544 32.0082 10.535 31.7663 10.535C31.1213 10.535 30.5032 10.5081 29.8582 10.535C29.5894 10.535 29.4819 10.4544 29.4819 10.1588C29.5357 8.8419 29.8044 7.57877 30.3419 6.39627C31.2826 4.30002 32.7607 2.68752 34.8032 1.58565C36.0126 0.940646 37.3026 0.537524 38.7001 0.430024C40.9307 0.241899 42.9732 0.752522 44.8813 1.88127C46.8701 3.06377 48.2407 4.78377 49.0738 6.9069C49.4769 7.92815 49.6919 8.97627 49.7457 10.0781C49.7726 10.4275 49.6919 10.5888 49.3157 10.535C49.0469 10.4813 48.7513 10.5081 48.4826 10.5081Z" fill="#C4E0FA"/>
<path d="M91.1062 0.349388C93.4981 0.349388 95.89 0.349388 98.2819 0.349388C98.6312 0.349388 98.7119 0.403136 98.5237 0.725637C98.1744 1.37064 97.825 2.01564 97.5025 2.68751C97.4219 2.87564 97.2875 2.92939 97.0994 2.92939C92.665 2.92939 88.2575 2.92939 83.8231 2.92939C83.5812 2.92939 83.5006 2.84876 83.5006 2.60689C83.5006 1.98876 83.5275 1.37064 83.5006 0.752513C83.5006 0.430013 83.6081 0.349388 83.9037 0.349388C86.3225 0.349388 88.7144 0.349388 91.1062 0.349388Z" fill="#C4E0FA"/>
<path d="M73.4225 20.6669C73.0463 20.6669 72.6969 20.64 72.3207 20.6669C72.0519 20.6938 71.8907 20.5863 71.7563 20.3444C70.9232 18.7319 70.09 17.0925 69.23 15.48C69.0957 15.2113 68.9344 14.9694 68.8 14.7006C68.6925 14.5125 68.6925 14.3781 68.9882 14.3781C69.7944 14.3781 70.5738 14.3781 71.38 14.3781C71.5682 14.3781 71.6488 14.4588 71.7294 14.5931C72.2669 15.6144 72.8044 16.6088 73.315 17.63C73.7988 18.5438 74.2557 19.4844 74.7394 20.3713C74.9007 20.6669 74.7932 20.6669 74.5513 20.6669C74.175 20.6669 73.7988 20.6669 73.4225 20.6669Z" fill="#C4E0FA"/>
<path d="M68.8537 37.7325C68.2894 38.0819 67.8325 38.5119 67.3219 38.8881C67.1606 38.9956 67.0262 39.13 66.8919 39.2375C66.1125 39.8019 66.3812 39.8287 65.575 39.2106C65.0106 38.7806 64.4731 38.3237 63.9087 37.8937C63.8281 37.84 63.7206 37.7862 63.64 37.7325C63.5594 37.8669 63.5862 38.0012 63.5862 38.1356C63.5862 39.6137 63.5594 41.0919 63.5862 42.57C63.5862 42.9462 63.3981 42.9194 63.1294 42.9194C62.8606 42.9194 62.6725 42.9462 62.6725 42.5431C62.6994 40.42 62.6725 38.27 62.6725 36.1469C62.6725 36.0394 62.6187 35.905 62.7531 35.8512C62.8606 35.8244 62.9144 35.9319 62.9681 35.9856C63.9894 36.7919 65.0375 37.5981 66.0587 38.4312C66.1931 38.5387 66.2737 38.5119 66.4081 38.4044C67.4294 37.5981 68.4775 36.765 69.4987 35.9587C69.5794 35.905 69.6062 35.7706 69.7406 35.8512C69.8212 35.905 69.7944 35.9856 69.7944 36.0662C69.7944 38.2431 69.7944 40.42 69.7944 42.5969C69.7944 43 69.5256 42.8656 69.3106 42.8925C69.0956 42.9194 68.8806 42.9194 68.9075 42.57C68.9344 41.0919 68.9075 39.5869 68.9075 38.1087C68.8806 38.0012 68.9344 37.8669 68.8537 37.7325Z" fill="#C4E0FA"/>
<path d="M0.591206 39.5062C0.591206 38.485 0.591206 37.4906 0.591206 36.4962C0.591206 36.335 0.564329 36.1469 0.806204 36.1469C2.01558 36.1737 3.22496 36.0125 4.38058 36.4694C5.45558 36.8994 6.04683 37.7325 6.23495 38.8612C6.3962 39.8019 6.31558 40.7156 5.80496 41.5219C5.32121 42.2744 4.64933 42.7044 3.73558 42.8387C2.79496 42.9731 1.85433 42.8656 0.913705 42.9194C0.644955 42.9194 0.564331 42.8387 0.564331 42.57C0.591206 41.5487 0.591206 40.5275 0.591206 39.5062ZM1.47808 39.4794C1.47808 40.205 1.47808 40.9575 1.47808 41.6831C1.47808 41.925 1.53183 42.0325 1.80058 42.0056C2.23058 41.9787 2.66058 42.0325 3.09058 41.9787C3.8162 41.925 4.51495 41.7637 4.97183 41.065C5.37495 40.4737 5.4287 39.8287 5.37495 39.1569C5.29433 38.2969 4.89121 37.7056 4.13871 37.3294C3.35933 36.9531 2.52621 37.0069 1.69308 36.98C1.45121 36.98 1.50496 37.1681 1.50496 37.3025C1.47808 38.055 1.47808 38.7806 1.47808 39.4794Z" fill="#C4E0FA"/>
<path d="M86.9944 40.9575C86.9944 39.4256 86.9944 38.0281 86.9944 36.6037C86.9944 36.2006 87.4244 35.9587 87.7738 36.1737C87.935 36.2812 87.8813 36.4425 87.8813 36.5768C87.8813 38.3775 87.8813 40.1781 87.8813 41.9787C87.8813 42.1937 87.8813 42.4356 87.8813 42.6506C87.8813 42.7581 87.9082 42.8656 87.7469 42.8925C87.6394 42.9193 87.5319 42.9193 87.4513 42.8118C86.8869 42.1668 86.2957 41.495 85.7313 40.85C84.9788 39.99 84.2532 39.13 83.5007 38.27C83.3932 38.4312 83.4469 38.5656 83.4469 38.6731C83.4469 39.9631 83.4201 41.2531 83.4469 42.5431C83.4469 42.9731 83.205 42.8925 82.9632 42.8925C82.6944 42.8925 82.4794 42.9462 82.4794 42.5162C82.5063 40.5006 82.4794 38.485 82.4794 36.4693C82.4794 36.335 82.4257 36.1737 82.5869 36.12C82.775 36.0662 82.8825 36.1468 82.99 36.2812C84.0113 37.4637 85.0594 38.6731 86.1076 39.8556C86.3763 40.2318 86.645 40.5275 86.9944 40.9575Z" fill="#C4E0FA"/>
<path d="M27.3857 39.56C27.3857 38.5657 27.3857 37.5444 27.3857 36.55C27.3857 36.2544 27.4663 36.1738 27.7619 36.1738C28.9713 36.2006 30.1538 36.2006 31.3632 36.1738C31.6588 36.1738 31.7663 36.2544 31.7394 36.5769C31.7125 36.8456 31.7663 37.0875 31.3632 37.0875C30.4763 37.0606 29.6163 37.0875 28.7294 37.0875C28.4338 37.0875 28.3263 37.1413 28.3263 37.4638C28.3532 37.8938 28.3532 38.3506 28.3263 38.7806C28.3263 39.0225 28.4069 39.1031 28.6488 39.1031C29.4819 39.1031 30.2882 39.1031 31.1213 39.1031C31.4438 39.1031 31.4975 39.2375 31.4975 39.5063C31.4975 39.775 31.4707 39.9363 31.1213 39.9094C30.315 39.8825 29.5088 39.9094 28.7025 39.9094C28.4338 39.9094 28.3263 39.9631 28.3263 40.2588C28.3532 40.7694 28.3532 41.3069 28.3263 41.8175C28.3263 42.0863 28.4338 42.1669 28.6757 42.1669C29.6163 42.1669 30.5569 42.1669 31.4975 42.1669C31.8469 42.1669 31.8738 42.3281 31.8738 42.5969C31.8738 42.8925 31.7932 43 31.4707 42.9731C30.2075 42.9463 28.9713 42.9463 27.7082 42.9731C27.3857 42.9731 27.3319 42.8656 27.3319 42.57C27.4125 41.5488 27.3857 40.5544 27.3857 39.56Z" fill="#C4E0FA"/>
<path d="M54.0457 39.5331C54.0457 38.5387 54.0457 37.5175 54.0457 36.5231C54.0457 36.2544 54.1263 36.1469 54.4219 36.1469C55.5238 36.1737 56.5988 36.1469 57.7007 36.1469C58.7757 36.1469 59.4744 36.9263 59.4744 38.055C59.4744 39.13 58.6682 39.99 57.6469 40.0169C56.8675 40.0169 56.115 40.0169 55.3357 40.0169C55.04 40.0169 54.9325 40.0975 54.9325 40.3931C54.9594 41.1187 54.9057 41.8444 54.9594 42.57C54.9863 42.9731 54.7444 42.9194 54.5025 42.9194C54.2338 42.9194 53.9919 42.9194 54.0725 42.5431V42.5163C54.0457 41.5219 54.0457 40.5275 54.0457 39.5331ZM56.4375 37.0337C56.0344 37.0337 55.6313 37.0337 55.2282 37.0337C55.04 37.0337 54.9325 37.0875 54.9325 37.3025C54.9325 37.8131 54.9325 38.3237 54.9325 38.8344C54.9325 39.0762 55.0132 39.13 55.255 39.13C56.0344 39.13 56.8138 39.13 57.5932 39.13C58.1575 39.13 58.5875 38.6463 58.5875 38.055C58.5875 37.4638 58.1844 37.0337 57.5932 37.0337C57.19 37.0337 56.8138 37.0337 56.4375 37.0337Z" fill="#C4E0FA"/>
<path d="M73.9062 39.5331C73.9062 38.5119 73.9062 37.5175 73.9062 36.4962C73.9062 36.2006 73.9869 36.12 74.2825 36.12C75.4919 36.12 76.6744 36.1468 77.8837 36.12C78.26 36.12 78.26 36.335 78.2869 36.6037C78.3137 36.8994 78.1794 37.0069 77.8837 37.0069C76.9969 37.0069 76.1369 37.0069 75.25 37.0069C74.9813 37.0069 74.8737 37.0875 74.8737 37.3831C74.9006 37.8131 74.9006 38.2431 74.8737 38.6731C74.8469 38.9956 74.9812 39.0493 75.2769 39.0493C76.0831 39.0225 76.8625 39.0493 77.6688 39.0493C77.9913 39.0493 78.045 39.1568 78.045 39.4525C78.045 39.7481 77.9912 39.8825 77.6419 39.8825C76.8356 39.8556 76.0563 39.8825 75.25 39.8556C74.9544 39.8556 74.8469 39.9631 74.8737 40.2587C74.9006 40.7693 74.9006 41.28 74.8737 41.7906C74.8737 42.0593 74.9544 42.14 75.2231 42.14C76.1369 42.14 77.0238 42.14 77.9375 42.14C78.26 42.14 78.3675 42.2206 78.3675 42.57C78.3675 42.8925 78.26 42.9731 77.9375 42.9731C76.7281 42.9462 75.5188 42.9462 74.3094 42.9731C73.9869 42.9731 73.9062 42.8656 73.9062 42.57C73.9062 41.5218 73.9062 40.5275 73.9062 39.5331Z" fill="#C4E0FA"/>
<path d="M9.54065 39.5331C9.54065 38.5387 9.54065 37.5443 9.54065 36.55C9.54065 36.2543 9.5944 36.12 9.94377 36.12C11.1263 36.1468 12.2819 36.1468 13.4644 36.12C13.8675 36.12 13.8407 36.3081 13.8675 36.5769C13.8675 36.8725 13.8406 37.0069 13.4913 37.0069C12.6581 36.98 11.7981 37.0069 10.9381 36.98C10.6425 36.98 10.5081 37.0337 10.535 37.3562C10.5619 37.7862 10.5619 38.2431 10.535 38.6731C10.535 38.915 10.6157 38.9956 10.8575 38.9956C11.6907 38.9956 12.4969 38.9956 13.33 38.9956C13.6525 38.9956 13.7063 39.13 13.7063 39.3987C13.7063 39.6675 13.6794 39.8287 13.3569 39.8019C12.5506 39.775 11.7444 39.8019 10.9381 39.8019C10.6694 39.8019 10.535 39.8556 10.5619 40.1512C10.5888 40.6618 10.5888 41.1994 10.5619 41.71C10.5619 41.9787 10.6425 42.0593 10.9113 42.0593C11.825 42.0593 12.7119 42.0593 13.6256 42.0593C13.9481 42.0593 14.0825 42.14 14.0556 42.4894C14.0556 42.8119 13.9481 42.8925 13.6256 42.8925C12.3894 42.8656 11.18 42.8656 9.94377 42.8925C9.67502 42.8925 9.56753 42.8118 9.56753 42.5431C9.56753 41.5487 9.54065 40.5544 9.54065 39.5331Z" fill="#C4E0FA"/>
<path d="M20.9625 40.9306C21.4463 39.8556 21.8763 38.8612 22.3063 37.8669C22.5213 37.3831 22.7363 36.8725 22.9513 36.3887C23.0588 36.1737 23.7844 36.0125 23.9457 36.1737C24.0532 36.2812 23.9725 36.3619 23.9188 36.4694C23.3275 37.8669 22.7094 39.2375 22.1182 40.635C21.8225 41.3069 21.5269 41.9787 21.2313 42.6506C21.1775 42.7581 21.1775 42.9194 20.9894 42.9194C20.8013 42.9194 20.7744 42.785 20.7207 42.6775C20.2638 41.6562 19.8338 40.635 19.4038 39.6137C18.9738 38.5925 18.5438 37.5444 18.0869 36.5231C17.9525 36.2275 18.0332 36.1737 18.3288 36.1469C18.7588 36.12 18.9738 36.2275 19.1619 36.6575C19.6725 38.0819 20.3175 39.4525 20.9625 40.9306Z" fill="#C4E0FA"/>
<path d="M95.2182 39.99C95.2182 40.8231 95.1913 41.6562 95.2182 42.4894C95.2182 42.8119 95.1375 42.9194 94.7882 42.9194C94.4657 42.9194 94.385 42.8119 94.385 42.4894C94.385 40.8231 94.385 39.13 94.4119 37.4637C94.4119 37.1143 94.3044 37.0069 93.955 37.0069C93.4175 37.0337 92.8532 37.0068 92.2888 37.0337C91.9125 37.0606 91.9663 36.8187 91.9663 36.5769C91.9663 36.3619 91.9125 36.12 92.2888 36.12C93.9282 36.1468 95.5675 36.1468 97.2069 36.12C97.61 36.12 97.5294 36.3619 97.5294 36.6037C97.5563 36.8725 97.5294 37.0337 97.18 37.0337C96.6425 37.0068 96.0782 37.0337 95.5138 37.0337C95.245 37.0337 95.1644 37.1144 95.1644 37.3831C95.245 38.2431 95.2182 39.13 95.2182 39.99Z" fill="#C4E0FA"/>
<path d="M35.3944 39.5331C35.3944 38.5925 35.3944 37.625 35.3944 36.6844C35.3944 36.3619 35.3675 36.12 35.8244 36.1469C36.2544 36.1469 36.2812 36.335 36.2812 36.6844C36.2544 38.3238 36.2813 39.99 36.2544 41.6294C36.2544 41.9519 36.335 42.0594 36.6844 42.0594C37.5981 42.0325 38.5119 42.0594 39.4256 42.0325C39.775 42.0325 39.8287 42.1669 39.8287 42.4625C39.8019 42.7313 39.8556 42.9462 39.4525 42.9462C38.2162 42.9194 36.98 42.9194 35.7437 42.9462C35.4481 42.9462 35.3675 42.8656 35.3944 42.57C35.3944 41.5487 35.3944 40.5275 35.3944 39.5331Z" fill="#C4E0FA"/>
<path d="M44.2631 18.6512C43.8331 18.6781 43.43 18.5975 43.0537 18.49C42.8925 18.4362 42.7043 18.4362 42.7043 18.2212C42.7043 18.0062 42.8925 17.9525 43.0537 17.8719C43.3762 17.7375 43.7256 17.6569 44.075 17.6569C44.29 17.6569 44.4512 17.63 44.5318 17.3881C44.5856 17.1731 44.4512 17.0387 44.29 16.9312C44.1556 16.8506 43.9943 16.7969 43.86 16.7431C43.7525 16.6894 43.6181 16.6356 43.6181 16.5012C43.6181 16.3669 43.7525 16.3669 43.86 16.34C44.8006 15.9906 45.7681 15.9906 46.7356 16.2056C47.0312 16.2594 47.3268 16.34 47.6225 16.4475C47.7837 16.5012 47.9987 16.555 47.9987 16.77C47.9987 16.9581 47.8106 17.0119 47.6493 17.0656C47.2731 17.2 46.8968 17.3344 46.5206 17.4687C46.3325 17.5494 46.1443 17.63 45.9562 17.7106C45.8218 17.7644 45.7143 17.8719 45.795 18.0331C45.9293 18.3287 45.7412 18.4094 45.4993 18.4631C45.0693 18.5975 44.6662 18.6781 44.2631 18.6512Z" fill="#C4E0FA"/>
<path d="M35.5287 17.2538C35.4481 17.3881 35.3675 17.3613 35.2869 17.3613C34.1581 17.3075 33.0294 17.4688 31.9275 17.3613C31.82 17.3613 31.7125 17.3344 31.605 17.3075C30.9869 17.1731 30.9062 16.9044 31.2825 16.4206C31.605 16.0444 31.5781 15.9906 31.0944 15.8831C30.6912 15.8025 30.3419 15.6413 29.9656 15.48C29.8581 15.4263 29.7506 15.3725 29.7775 15.2381C29.8044 15.1306 29.9387 15.1575 30.0194 15.1575C31.1481 15.1844 32.3037 15.1038 33.4325 15.2381C33.54 15.2381 33.6475 15.2919 33.755 15.3188C33.8625 15.3456 33.97 15.3725 33.9969 15.48C34.0237 15.6144 33.9431 15.6681 33.8625 15.7488C33.4056 16.125 33.4325 16.2594 33.9431 16.5281C34.4269 16.8238 35.0181 16.9313 35.5287 17.2538Z" fill="#C4E0FA"/>
<path d="M49.6649 12.7925C49.5574 12.8731 49.4231 12.9537 49.3156 13.0344C49.235 13.0881 49.1006 13.1956 49.1812 13.2762C49.45 13.6525 49.1274 13.7869 48.9393 13.9481C48.7243 14.1094 48.5899 14.2169 48.8049 14.4856C48.9124 14.62 48.8049 14.7544 48.6974 14.8887C48.3481 15.265 47.8912 15.3187 47.4343 15.265C47.0043 15.2112 46.5206 15.2112 46.1712 14.835C45.9831 14.62 45.9562 14.4856 46.2518 14.3781C46.7356 14.19 46.7893 13.8944 46.4668 13.5181C46.1712 13.1956 46.2249 12.9806 46.6549 12.8731C47.1118 12.7656 47.5956 12.685 48.0793 12.685C48.6168 12.7119 49.1274 12.685 49.6649 12.685C49.6381 12.7119 49.6381 12.7387 49.6649 12.7925Z" fill="#C4E0FA"/>
<path d="M39.9362 21.07C39.13 21.0968 38.3237 20.9625 37.5981 20.5593C37.2756 20.3981 37.2219 20.2369 37.4369 19.9144C37.7056 19.565 38.0819 19.4306 38.5387 19.5112C39.2106 19.6456 39.8825 19.8875 40.5812 19.8606C40.9306 19.8337 41.28 19.78 41.5756 19.5918C41.7906 19.4575 42.0056 19.4037 42.2744 19.4306C42.4625 19.4306 42.57 19.4844 42.6506 19.6456C42.7312 19.8337 42.6506 19.9681 42.5431 20.0756C42.14 20.5593 41.5756 20.7743 40.9844 20.9356C40.6619 21.07 40.3125 21.07 39.9362 21.07Z" fill="#C4E0FA"/>
<path d="M31.7394 13.7868C32.0619 13.8675 32.3038 13.9212 32.5456 14.0018C32.6531 14.0287 32.7875 14.0825 32.7875 14.2437C32.7875 14.405 32.6531 14.4318 32.5188 14.4318C31.7125 14.5662 30.8794 14.5931 30.1 14.3243C29.4819 14.1362 29.4013 13.8137 29.5894 13.1956C29.7238 12.7656 29.9656 12.5775 30.4225 12.6312C30.8256 12.685 31.2556 12.6312 31.6588 12.6312C31.7931 12.6312 31.9275 12.6312 32.035 12.7387C32.1963 12.9268 32.4919 13.0612 32.4113 13.3568C32.3844 13.7062 32.035 13.6525 31.7394 13.7868Z" fill="#C4E0FA"/>
<path d="M38.3775 18.8125C37.7863 18.7319 37.195 18.5169 36.6575 18.7588C35.9588 19.1082 35.2332 19.1082 34.4807 19.1082C34.2119 19.1082 33.97 19.0544 33.755 18.9469C33.6475 18.8932 33.54 18.8125 33.54 18.6782C33.54 18.5169 33.6475 18.4363 33.7819 18.4094C34.1044 18.3288 34.4538 18.1944 34.8032 18.1675C35.9319 18.06 37.0338 17.9794 38.1625 18.2213C38.27 18.2482 38.3775 18.275 38.4582 18.3019C38.5925 18.3825 38.8075 18.4094 38.7269 18.6244C38.7 18.8394 38.5119 18.7857 38.3775 18.8125Z" fill="#C4E0FA"/>
</svg>
