<svg width="154" height="16" viewBox="0 0 154 16" fill="none" xmlns="http://www.w3.org/2000/svg">
<g clip-path="url(#clip0_6036_6909)">
<path d="M93.8996 7.75999L89.2676 0.737854H86.9834L92.9268 9.51621V15.2635H94.8545V9.47598L100.796 0.737854H98.5703L93.8996 7.75999Z" fill="#3B576B"/>
<path d="M116.79 9.15692C116.79 12.1894 115.18 13.7264 112.656 13.7264C110.131 13.7264 108.462 12.0507 108.462 9.05843V0.737854H106.534V9.15831C106.534 13.3089 108.959 15.4827 112.616 15.4827C116.272 15.4827 118.697 13.2867 118.697 9.03762V0.737854H116.79V9.15831V9.15692Z" fill="#3B576B"/>
<path d="M131.105 11.1698L126.634 0.737854H124.415L131.084 15.7116L137.753 0.737854H135.593L131.105 11.1698Z" fill="#3B576B"/>
<path d="M149.839 10.3858H144.653L147.246 4.51924L149.839 10.3858ZM147.276 0.288208L140.588 15.2633H142.545L143.47 13.1589L143.928 12.0616V12.1018H150.583L151.024 13.1589L151.95 15.2633H153.966L147.276 0.288208Z" fill="#3B576B"/>
<path d="M60.0739 13.4285V8.93115H67.8109V7.10556H60.0739V2.57211H68.1592L69.074 0.746521H58.2637V2.57211V7.10556V8.93115V13.4285V15.2541H60.0739H69.074L68.1605 13.4285H60.0739Z" fill="#3B576B"/>
<path d="M32.7265 2.87051C32.0784 2.21713 31.3087 1.69415 30.4382 1.31543C29.5648 0.936721 28.621 0.743896 27.6288 0.743896C26.6367 0.743896 25.6915 0.935334 24.8195 1.31543C23.9489 1.69415 23.1793 2.21574 22.5312 2.87051C21.8817 3.5239 21.3621 4.29797 20.989 5.16776C20.6159 6.03339 20.4266 6.97531 20.4238 7.96579H22.2534C22.2576 7.24998 22.4026 6.55914 22.6873 5.91408C22.9775 5.25654 23.3713 4.67252 23.8564 4.17728C24.3414 3.68204 24.9163 3.28668 25.5671 3.00091C26.2152 2.71653 26.9075 2.57087 27.6288 2.57087C28.3502 2.57087 29.0425 2.71514 29.692 3.00091C30.3414 3.28529 30.9177 3.68204 31.4027 4.17589C31.8877 4.67252 32.2829 5.25654 32.5717 5.9127C32.8564 6.55776 33.0029 7.24859 33.0057 7.9644H34.8352C34.8311 6.97392 34.6432 6.03339 34.2701 5.16637C33.8942 4.29519 33.376 3.52112 32.7279 2.86913L32.7265 2.87051Z" fill="#3B576B"/>
<path d="M24.4118 12.9019C25.8144 12.9171 22.5463 12.3581 23.3906 11.8295C24.2957 11.301 22.4053 11.3731 21.0718 11.3329C19.7314 11.2927 21.5182 11.8295 21.5182 11.8295C22.3473 11.9502 21.4961 12.1985 21.5361 12.6133C21.579 13.0309 23.0078 12.8852 24.4145 12.9019H24.4118Z" fill="#3B576B"/>
<path d="M22.8026 10.7151C22.9187 10.5028 22.1227 10.4459 22.0274 10.3419C21.9292 10.2365 22.9021 10.3294 22.3922 9.79118C22.2789 9.68159 22.2222 9.6039 22.2015 9.54425H20.6648C20.6455 9.82308 20.1992 10.3364 20.6469 10.6221C21.1844 10.9814 22.692 10.9287 22.8026 10.7151Z" fill="#3B576B"/>
<path d="M33.2486 12.2666C31.6581 11.6715 29.9114 12.275 30.594 12.4581C31.278 12.6412 31.267 13.0796 30.9201 13.1212C30.858 13.1295 29.7787 13.2002 29.8257 13.5484C29.8727 13.8966 32.4429 13.8966 31.9925 13.4264C31.542 12.9547 34.4992 12.7328 33.25 12.2666H33.2486Z" fill="#3B576B"/>
<path d="M26.9875 13.7211C26.6296 13.2397 23.0036 13.4228 23.3159 13.8972C23.6282 14.3703 25.321 14.0332 25.3362 14.011C25.6596 13.5213 27.3454 14.2038 26.9875 13.7224V13.7211Z" fill="#3B576B"/>
<path d="M33.0818 9.60458C32.7239 9.6462 31.9197 9.74053 32.6244 10.2538C32.6521 10.2746 32.6908 10.6825 32.3563 10.7449C32.0261 10.8073 32.0413 11.2096 32.9851 11.3442C33.9109 11.4801 34.302 10.9904 34.0616 10.756C33.8128 10.5215 34.7027 10.2968 34.4139 10.0513C34.1611 9.84457 34.7801 9.70308 34.8299 9.54077H33.2131C33.1868 9.57129 33.1481 9.59487 33.0832 9.6032L33.0818 9.60458Z" fill="#3B576B"/>
<path d="M28.7648 14.657C28.313 14.8331 27.7658 14.675 26.9574 14.4808C26.149 14.288 25.9942 14.9732 25.9942 14.9732C25.9832 15.2021 27.1356 15.6405 28.1817 15.5545C29.2278 15.4657 30.0362 14.8068 29.775 14.5168C29.5138 14.2269 29.2153 14.4822 28.7635 14.657H28.7648Z" fill="#3B576B"/>
<path d="M42.4339 7.10556V2.57072H48.1285C48.3634 2.57072 48.6094 2.61095 48.8567 2.69141C49.0999 2.76909 49.3224 2.89533 49.52 3.06735C49.7176 3.23936 49.8876 3.46964 50.0203 3.74986C50.1529 4.02869 50.2206 4.38521 50.2206 4.8097C50.2206 5.23419 50.146 5.57406 49.9954 5.86399C49.8434 6.15947 49.6568 6.39946 49.4413 6.57703C49.2215 6.75875 48.9894 6.89331 48.7503 6.97794C48.5099 7.06256 48.2998 7.10556 48.1285 7.10556H42.4339ZM49.8157 10.815L48.8236 8.90895C49.3307 8.81462 49.7909 8.57324 50.193 8.32077C50.4155 8.19037 50.6393 8.01974 50.8632 7.81582C51.0871 7.60912 51.2888 7.35942 51.4615 7.07227C51.6315 6.78788 51.7711 6.45495 51.8775 6.0804C51.9825 5.70585 52.035 5.27304 52.035 4.79306C52.035 4.28949 51.9825 3.83726 51.8775 3.45022C51.7725 3.06319 51.6329 2.72332 51.4615 2.43894C51.2888 2.15178 51.0871 1.90485 50.8604 1.70232C50.6366 1.50395 50.4086 1.34164 50.1888 1.22373C49.6651 0.933796 49.0571 0.774265 48.3717 0.746521H40.625V15.2541H42.4366V8.93253H46.6941V8.93531H46.7549L48.181 11.6751L48.1921 11.6709L50.0548 15.2569H52.1331L49.8199 10.8178H49.8171L49.8157 10.815Z" fill="#3B576B"/>
<path d="M0.0302734 0.504011V15.253H1.85985V13.2471V4.3272L7.55311 8.82459L13.2478 4.3272V7.99919V15.253H15.0594V0.502625L7.55311 6.42607L0.0302734 0.504011Z" fill="#3B576B"/>
</g>
<defs>
<clipPath id="clip0_6036_6909">
<rect width="154" height="16" fill="white"/>
</clipPath>
</defs>
</svg>
