<svg viewBox="0 0 25 24" fill="none" xmlns="http://www.w3.org/2000/svg">
<rect x="0.742188" width="24" height="24" rx="12" fill="#DAEBF9"/>
<path d="M16.1025 14.0059C16.9075 14.006 17.5281 14.3099 18.0381 14.5596C18.5371 14.8039 18.9225 14.9905 19.3818 15.0109C19.4276 15.0129 19.4648 15.0499 19.4648 15.0958V15.9296C19.4648 15.9755 19.4276 16.0128 19.3817 16.0115C18.6571 15.99 18.079 15.6932 17.5986 15.458C17.0813 15.2047 16.6504 15.006 16.1025 15.0059C15.5577 15.0059 15.1517 15.202 14.6445 15.4561C14.1475 15.705 13.5477 16.0126 12.7393 16.0127C11.9307 16.0126 11.3311 15.705 10.834 15.4561C10.3269 15.2021 9.92148 15.006 9.37695 15.0059C8.82891 15.0059 8.39723 15.2047 7.87988 15.458C7.39954 15.6932 6.82144 15.99 6.09682 16.0115C6.05095 16.0128 6.01367 15.9755 6.01367 15.9296V15.0958C6.01367 15.0499 6.05092 15.0129 6.09675 15.0109C6.55609 14.9905 6.94133 14.8039 7.44043 14.5596C7.95054 14.3098 8.57172 14.0059 9.37695 14.0059C10.1853 14.0061 10.7852 14.3126 11.2822 14.5615C11.7894 14.8156 12.1945 15.0126 12.7393 15.0127C13.284 15.0126 13.69 14.8156 14.1973 14.5615C14.6943 14.3126 15.2942 14.0059 16.1025 14.0059ZM16.1025 10.9844C16.9075 10.9845 17.5281 11.2884 18.0381 11.5381C18.5371 11.7824 18.9225 11.969 19.3818 11.9894C19.4276 11.9914 19.4648 12.0284 19.4648 12.0743V12.9081C19.4648 12.954 19.4276 12.9913 19.3817 12.99C18.6571 12.9685 18.079 12.6717 17.5986 12.4365C17.0813 12.1832 16.6504 11.9845 16.1025 11.9844C15.5578 11.9844 15.1517 12.1805 14.6445 12.4346C14.1475 12.6835 13.5477 12.9911 12.7393 12.9912C11.9307 12.9912 11.3311 12.6836 10.834 12.4346C10.3269 12.1806 9.92148 11.9846 9.37695 11.9844C8.82892 11.9844 8.39721 12.1833 7.87988 12.4365C7.39954 12.6717 6.82144 12.9685 6.09682 12.99C6.05095 12.9913 6.01367 12.954 6.01367 12.9081V12.0743C6.01367 12.0284 6.05092 11.9914 6.09675 11.9894C6.55609 11.969 6.94133 11.7824 7.44043 11.5381C7.95053 11.2883 8.57174 10.9844 9.37695 10.9844C10.1853 10.9846 10.7852 11.2911 11.2822 11.54C11.7895 11.7941 12.1945 11.9912 12.7393 11.9912C13.284 11.9911 13.69 11.7941 14.1973 11.54C14.6943 11.2911 15.2943 10.9844 16.1025 10.9844ZM16.1025 7.9668C16.9075 7.96694 17.5281 8.27081 18.0381 8.52051C18.5371 8.7648 18.9225 8.95144 19.3818 8.97179C19.4276 8.97382 19.4648 9.01082 19.4648 9.0567V9.89053C19.4648 9.93643 19.4276 9.97375 19.3817 9.97239C18.6571 9.95089 18.079 9.65412 17.5986 9.41895C17.0813 9.16567 16.6504 8.96693 16.1025 8.9668C15.5577 8.9668 15.1517 9.16295 14.6445 9.41699C14.1475 9.66596 13.5477 9.97353 12.7393 9.97363C11.9307 9.97357 11.3311 9.66598 10.834 9.41699C10.3269 9.163 9.92148 8.96699 9.37695 8.9668C8.82891 8.9668 8.39723 9.16566 7.87988 9.41895C7.39954 9.65412 6.82144 9.9509 6.09682 9.97239C6.05095 9.97375 6.01367 9.93643 6.01367 9.89053V9.0567C6.01367 9.01082 6.05092 8.97382 6.09675 8.97179C6.55609 8.95146 6.94133 8.76487 7.44043 8.52051C7.95054 8.27076 8.57171 7.9668 9.37695 7.9668C10.1853 7.967 10.7852 8.27351 11.2822 8.52246C11.7894 8.77651 12.1945 8.97358 12.7393 8.97363C13.284 8.97353 13.69 8.77654 14.1973 8.52246C14.6943 8.2735 15.2942 7.9668 16.1025 7.9668Z" fill="#3B576B"/>
</svg>
