<svg viewBox="0 0 16 16" fill="none" xmlns="http://www.w3.org/2000/svg">
  <path d="M14 8C14 11.3137 11.3137 14 8 14C4.68629 14 2 11.3137 2 8C2 4.68629 4.68629 2 8 2C11.3137 2 14 4.68629 14 8ZM8.21504 6.42948C7.63142 6.67221 6.46508 7.17464 4.71596 7.9367C4.43193 8.04962 4.28314 8.16014 4.2696 8.26814C4.24671 8.45078 4.47537 8.52266 4.78675 8.62058C4.8291 8.6339 4.87299 8.6477 4.91798 8.66234C5.22433 8.76188 5.63643 8.8784 5.85066 8.88302C6.04498 8.88722 6.26188 8.80712 6.50133 8.64266C8.1356 7.5395 8.9792 6.98192 9.03218 6.96992C9.06956 6.9614 9.12134 6.95078 9.15638 6.98192C9.19148 7.01312 9.188 7.07216 9.18434 7.088C9.16166 7.1846 8.26406 8.01908 7.7996 8.4509C7.66106 8.57966 7.52606 8.71118 7.38998 8.84234C7.1054 9.11666 6.89198 9.3224 7.4018 9.6584C7.91864 9.99902 8.43938 10.3389 8.94344 10.6983C9.19202 10.8755 9.4154 11.0347 9.69128 11.0094C9.85166 10.9946 10.0173 10.8438 10.1013 10.3942C10.3001 9.33158 10.6908 7.02926 10.7811 6.0805C10.789 5.99738 10.7791 5.891 10.7711 5.8443C10.7631 5.7976 10.7464 5.73106 10.6857 5.68181C10.6138 5.62348 10.5028 5.61118 10.4532 5.61205C10.2275 5.61603 9.8813 5.73642 8.21504 6.42948Z" fill="currentColor"/>
</svg>
