<svg viewBox="0 0 16 16" fill="none" xmlns="http://www.w3.org/2000/svg">
  <path d="M2.84 2.84C2 3.688 2 5.044 2 7.76V8.24C2 10.952 2 12.308 2.84 13.16C3.688 14 5.044 14 7.76 14H8.24C10.952 14 12.308 14 13.16 13.16C14 12.312 14 10.956 14 8.24V7.76C14 5.048 14 3.692 13.16 2.84C12.312 2 10.956 2 8.24 2H7.76C5.048 2 3.692 2 2.84 2.84ZM4.02409 5.65211H5.40009C5.44409 7.94013 6.45209 8.90813 7.25207 9.10813V5.65211H8.54407V7.62413C9.33207 7.54013 10.1641 6.64011 10.4441 5.64811H11.7321C11.6271 6.16162 11.4173 6.64795 11.1158 7.07673C10.8144 7.50547 10.4277 7.86747 9.98007 8.14013C10.4797 8.38873 10.9209 8.74047 11.2745 9.17213C11.6283 9.60373 11.8865 10.1054 12.0321 10.6441H10.6121C10.3081 9.69613 9.54807 8.96013 8.54407 8.86013V10.6441H8.38807H8.38407C5.64809 10.6441 4.08809 8.77213 4.02409 5.65211Z" fill="currentColor"/>
</svg>
