<svg viewBox="0 0 16 16" fill="none" xmlns="http://www.w3.org/2000/svg">
  <path d="M8.00001 2C11.3137 2 14 4.68629 14 8C14 11.3137 11.3137 14 8.00001 14C6.89967 14 5.86851 13.7038 4.98193 13.1868L2.00251 14L2.81368 11.0189C2.29638 10.1322 2 9.1007 2 8C2 4.68629 4.68629 2 8.00001 2ZM5.8348 5.185C5.75717 5.19045 5.68105 5.20941 5.61175 5.24487C5.55976 5.27146 5.5115 5.30991 5.43566 5.38152C5.36405 5.44913 5.32255 5.50818 5.27882 5.56512C5.057 5.85392 4.93778 6.20843 4.94 6.57259C4.9412 6.86696 5.01767 7.15304 5.13842 7.42016C5.3833 7.96184 5.78714 8.53448 6.32057 9.06554C6.44871 9.1931 6.57425 9.32204 6.70961 9.4412C7.37169 10.0242 8.16069 10.4445 9.01383 10.6689C9.01383 10.6689 9.34982 10.7205 9.35474 10.7208C9.46604 10.7268 9.57716 10.7188 9.68858 10.7131C9.86336 10.7041 10.034 10.6568 10.1884 10.5745C10.2877 10.5217 10.3347 10.4954 10.4181 10.4428C10.4181 10.4428 10.4436 10.4256 10.4929 10.3888C10.5739 10.3285 10.624 10.286 10.6914 10.216C10.741 10.1644 10.7838 10.1035 10.8168 10.0348C10.8637 9.93686 10.9109 9.74996 10.9297 9.59474C10.944 9.47618 10.9397 9.41138 10.9381 9.37124C10.9356 9.30668 10.8822 9.24026 10.8238 9.21206L10.4749 9.05522C10.4749 9.05522 9.95318 8.82818 9.6341 8.68262C9.60086 8.66744 9.5645 8.66042 9.52796 8.6582C9.44792 8.65328 9.35822 8.67416 9.30116 8.73428C9.29816 8.73308 9.25845 8.7674 8.82435 9.2933C8.80041 9.32192 8.74431 9.38414 8.64729 9.37832C8.63265 9.3773 8.61807 9.3752 8.60385 9.37148C8.56455 9.3611 8.52627 9.34742 8.48883 9.33158C8.41461 9.30008 8.38857 9.28814 8.33787 9.2663C7.99149 9.11498 7.67361 8.91254 7.39263 8.6648C7.31727 8.59844 7.24719 8.52698 7.17495 8.45696C6.92283 8.21258 6.71642 7.95266 6.56287 7.69628C6.55449 7.6823 6.54157 7.66208 6.52766 7.63946C6.50253 7.5986 6.47483 7.55 6.46614 7.51664C6.44384 7.42838 6.503 7.35746 6.503 7.35746C6.503 7.35746 6.64904 7.1978 6.7169 7.11098C6.78218 7.0274 6.83853 6.94568 6.87441 6.88742C6.94509 6.7738 6.96747 6.65637 6.93033 6.56578C6.76199 6.15539 6.58832 5.74722 6.40932 5.34136C6.374 5.26127 6.26892 5.20308 6.17336 5.19204C6.141 5.1883 6.10866 5.18455 6.07616 5.18241C5.99573 5.17849 5.91513 5.17935 5.8348 5.185Z" fill="currentColor"/>
</svg>
