<svg viewBox="0 0 402 412" fill="none" xmlns="http://www.w3.org/2000/svg">
  <path d="M202.674 345.626C279.116 345.626 341.085 283.175 341.085 206.138C341.085 129.101 279.116 66.6504 202.674 66.6504C126.231 66.6504 64.2617 129.101 64.2617 206.138C64.2617 283.175 126.231 345.626 202.674 345.626Z" stroke="#3B576B" stroke-opacity="0.3" stroke-width="11.7595" stroke-miterlimit="10"/>
  <path d="M202.683 298.396C253.244 298.396 294.233 257.09 294.233 206.135C294.233 155.18 253.244 113.873 202.683 113.873C152.121 113.873 111.133 155.18 111.133 206.135C111.133 257.09 152.121 298.396 202.683 298.396Z" stroke="#3B576B" stroke-opacity="0.3" stroke-width="4.87332" stroke-miterlimit="10"/>
  <path d="M202.685 323.007C266.731 323.007 318.651 270.683 318.651 206.139C318.651 141.595 266.731 89.2715 202.685 89.2715C138.639 89.2715 86.7188 141.595 86.7188 206.139C86.7188 270.683 138.639 323.007 202.685 323.007Z" stroke="#B0C6DD" stroke-opacity="0.5" stroke-width="29.3987" stroke-miterlimit="10"/>
  <path d="M202.672 328.026C269.466 328.026 323.613 273.458 323.613 206.145C323.613 138.832 269.466 84.2637 202.672 84.2637C135.878 84.2637 81.7305 138.832 81.7305 206.145C81.7305 273.458 135.878 328.026 202.672 328.026Z" stroke="#3B576B" stroke-opacity="0.5" stroke-width="1.76392" stroke-miterlimit="10" stroke-dasharray="5.88 4.12"/>
  <path d="M202.672 275.985C240.951 275.985 271.981 244.713 271.981 206.137C271.981 167.561 240.951 136.289 202.672 136.289C164.394 136.289 133.363 167.561 133.363 206.137C133.363 244.713 164.394 275.985 202.672 275.985Z" stroke="#3B576B" stroke-opacity="0.5" stroke-width="1.76392" stroke-miterlimit="10" stroke-dasharray="5.88 4.12"/>
  <path d="M276.66 280.926L276.797 281.029L276.558 280.788L237.509 226.818L371.327 206.443L237.625 184.669L276.626 131.911L277.207 131.333L276.879 131.574L276.982 131.436L276.743 131.67L223.189 171.023L202.971 36.1641L181.365 170.906L129.021 131.601L128.447 131.016L128.686 131.346L128.55 131.243L128.789 131.484L167.838 185.454L34.0195 205.829L167.722 227.603L128.721 280.361L128.146 280.939L128.474 280.698L128.372 280.836L128.604 280.602L182.165 241.249L202.383 376.108L223.989 241.366L276.332 280.671L276.907 281.256L276.667 280.926H276.66ZM202.677 206.243L202.574 206.139L202.677 206.036L202.779 206.139L202.677 206.243Z" fill="#B0C6DD"/>
  <path d="M202.965 36.1719V206.037L223.183 171.031L202.965 36.1719Z" fill="#3B576B"/>
  <path d="M202.965 206.041L277.201 131.338L237.626 184.674L202.965 206.041Z" fill="#3B576B"/>
  <path d="M371.321 206.453L202.965 206.047L237.51 226.829L371.321 206.453Z" fill="#3B576B"/>
  <path d="M276.897 281.246L202.77 206.129L223.972 241.356L276.897 281.246Z" fill="#3B576B"/>
  <path d="M202.375 376.119L202.969 206.047L182.156 241.267L202.375 376.119Z" fill="#3B576B"/>
  <path d="M128.586 280.598L167.704 227.6L202.563 206.129L128.586 280.598Z" fill="#3B576B"/>
  <path d="M34.0176 205.831L202.579 206.134L167.836 185.455L34.0176 205.831Z" fill="#3B576B"/>
  <path d="M129.008 131.615L202.657 206.043L181.358 170.92L129.008 131.615Z" fill="#3B576B"/>
  <path d="M213.512 -0.00287734V7.87732H212.863C212.378 5.81772 211.468 4.24719 210.136 3.15196C208.803 2.05672 207.299 1.50566 205.611 1.50566C204.203 1.50566 202.911 1.91207 201.735 2.73177C200.56 3.54459 199.698 4.61227 199.158 5.93482C198.461 7.62245 198.113 9.50296 198.113 11.5694C198.113 13.6359 198.365 15.4544 198.878 17.1283C199.391 18.8021 200.19 20.0627 201.277 20.9168C202.364 21.771 203.772 22.1981 205.501 22.1981C206.923 22.1981 208.222 21.8881 209.404 21.2613C210.587 20.6344 211.831 19.5599 213.136 18.0238V19.9869C211.872 21.3164 210.553 22.2807 209.186 22.88C207.819 23.4793 206.219 23.7755 204.387 23.7755C201.981 23.7755 199.842 23.2864 197.976 22.3152C196.11 21.3439 194.668 19.9456 193.649 18.1202C192.631 16.3017 192.125 14.3592 192.125 12.2996C192.125 10.1298 192.685 8.07708 193.813 6.1277C194.941 4.1852 196.458 2.67667 198.372 1.60209C200.286 0.527521 202.316 -0.00976562 204.469 -0.00976562C206.055 -0.00976562 207.73 0.334649 209.493 1.03037C210.512 1.42989 211.161 1.63653 211.441 1.63653C211.797 1.63653 212.104 1.50566 212.364 1.2439C212.624 0.982147 212.794 0.561962 212.87 -0.00287734H213.519H213.512Z" fill="#3B576B"/>
  <path d="M393.89 205.438C396.029 205.94 397.533 206.547 398.401 207.263C399.645 208.283 400.267 209.598 400.267 211.217C400.267 212.925 399.584 214.344 398.223 215.46C396.549 216.81 394.115 217.492 390.917 217.492H379.454V216.872C380.493 216.872 381.204 216.776 381.573 216.576C381.942 216.383 382.202 216.128 382.352 215.811C382.503 215.501 382.578 214.73 382.578 213.497V198.742C382.578 197.516 382.503 196.738 382.352 196.421C382.202 196.104 381.942 195.849 381.559 195.656C381.183 195.463 380.479 195.374 379.447 195.374V194.754H390.26C392.844 194.754 394.676 194.988 395.749 195.45C396.822 195.911 397.677 196.607 398.292 197.53C398.914 198.453 399.221 199.431 399.221 200.471C399.221 201.566 398.825 202.545 398.039 203.399C397.253 204.253 395.865 204.935 393.883 205.438H393.89ZM387.834 206.292V213.586L387.82 214.427C387.82 215.033 387.971 215.488 388.278 215.791C388.586 216.101 389.037 216.252 389.632 216.252C390.52 216.252 391.34 216.052 392.085 215.66C392.837 215.26 393.411 214.689 393.808 213.931C394.204 213.173 394.409 212.333 394.409 211.41C394.409 210.349 394.163 209.398 393.678 208.551C393.193 207.711 392.516 207.118 391.662 206.781C390.807 206.443 389.529 206.285 387.834 206.292ZM387.834 204.983C389.406 204.983 390.568 204.804 391.32 204.446C392.065 204.088 392.639 203.585 393.042 202.937C393.439 202.29 393.644 201.463 393.644 200.457C393.644 199.452 393.446 198.625 393.056 197.985C392.66 197.344 392.099 196.855 391.368 196.517C390.636 196.18 389.461 196.021 387.841 196.028V204.983H387.834Z" fill="#3B576B"/>
  <path d="M4.33287 199.142V191.455H5.00955C5.14625 192.344 5.48117 192.785 6.01432 192.785C6.26038 192.785 6.68416 192.661 7.29249 192.413C8.91242 191.772 10.464 191.455 11.9404 191.455C14.4762 191.455 16.4379 192.089 17.8255 193.356C19.213 194.624 19.9033 196.077 19.9033 197.73C19.9033 198.502 19.7325 199.287 19.3839 200.079C19.0353 200.871 18.4475 201.595 17.6272 202.235C16.807 202.883 15.481 203.441 13.6628 203.923C16.3081 204.364 18.1672 205.225 19.2472 206.492C20.3203 207.767 20.8603 209.13 20.8603 210.598C20.8603 211.865 20.4912 213.057 19.753 214.166C19.0148 215.282 17.9485 216.129 16.5473 216.721C15.1529 217.314 13.3826 217.61 11.25 217.61C9.11747 217.61 7.55906 217.327 6.35607 216.763C5.15309 216.198 4.07997 215.268 3.12305 213.98L3.88858 213.208C5.5837 215.054 7.36767 215.977 9.23367 215.977C10.7716 215.977 11.9814 215.475 12.8631 214.476C13.7449 213.477 14.1892 212.168 14.1892 210.556C14.1892 209.33 13.9089 208.262 13.3484 207.353C12.7879 206.451 12.1113 205.852 11.3184 205.562C10.5255 205.273 9.34987 205.108 7.78462 205.073V203.448C8.2084 203.461 8.56383 203.468 8.84407 203.468C10.5529 203.468 11.7627 202.993 12.4735 202.042C13.1844 201.092 13.5466 199.7 13.5466 197.868C13.5466 196.036 13.1776 194.872 12.4462 194.114C11.7148 193.356 10.8468 192.977 9.84883 192.977C8.49547 192.977 7.39502 193.515 6.54746 194.589C5.6999 195.664 5.22827 197.186 5.12575 199.156H4.3192L4.33287 199.142Z" fill="#3B576B"/>
  <path d="M197.766 400.13H193.87V407.17C193.87 408.23 193.918 408.919 194.014 409.222C194.109 409.532 194.349 409.808 194.731 410.063C195.114 410.311 195.64 410.442 196.317 410.442H197.069V411.062H185.271V410.442H186.023C186.734 410.442 187.267 410.324 187.623 410.09C187.978 409.856 188.204 409.574 188.306 409.243C188.409 408.912 188.457 408.224 188.457 407.17V392.215C188.457 391.154 188.409 390.466 188.32 390.162C188.231 389.852 187.999 389.577 187.616 389.322C187.233 389.074 186.707 388.943 186.03 388.943H185.278V388.323H197.076V388.943H196.324C195.613 388.943 195.08 389.06 194.724 389.294C194.369 389.529 194.137 389.811 194.034 390.142C193.932 390.472 193.877 391.161 193.877 392.215V398.656H197.773C198.04 395.37 199.325 392.739 201.621 390.769C203.918 388.799 206.645 387.807 209.796 387.807C212.216 387.807 214.328 388.358 216.132 389.453C217.937 390.548 219.324 391.988 220.274 393.772C221.231 395.556 221.703 397.505 221.703 399.613C221.703 402.92 220.623 405.744 218.47 408.079C216.31 410.414 213.419 411.585 209.796 411.585C206.173 411.585 203.446 410.517 201.273 408.382C199.092 406.247 197.923 403.498 197.773 400.13H197.766ZM209.775 389.081C207.889 389.081 206.413 389.963 205.353 391.733C204.287 393.496 203.754 396.183 203.754 399.778C203.754 403.14 204.26 405.744 205.278 407.576C206.296 409.408 207.78 410.324 209.748 410.324C211.717 410.324 213.214 409.422 214.218 407.624C215.223 405.826 215.722 403.257 215.722 399.909C215.722 392.69 213.74 389.081 209.782 389.081H209.775Z" fill="#3B576B"/>
</svg>
