<svg width="31" height="30" viewBox="0 0 31 30" fill="none" xmlns="http://www.w3.org/2000/svg">
<path d="M24.2705 4.04718C24.0529 3.68633 23.7459 3.38764 23.3793 3.17992C23.0126 2.97221 22.5986 2.86248 22.1772 2.86133H8.90446C8.05201 2.86133 7.24963 3.31564 6.8112 4.04718L3.50277 9.56001C3.38828 9.74981 3.32789 9.96731 3.32813 10.189C3.333 11.3678 3.76717 12.5044 4.5494 13.3863V23.623C4.5494 24.97 5.64488 26.0655 6.99194 26.0655H24.0898C25.4368 26.0655 26.5323 24.97 26.5323 23.623V13.3863C27.3145 12.5044 27.7487 11.3678 27.7536 10.189C27.7538 9.96731 27.6934 9.74981 27.5789 9.56001L24.2705 4.04718ZM25.2915 10.4955C25.2161 11.0852 24.9286 11.6272 24.4827 12.0203C24.0367 12.4134 23.4629 12.6307 22.8685 12.6315C21.5214 12.6315 20.4259 11.536 20.4259 10.189C20.4259 10.1059 20.3954 10.0326 20.3783 9.95448L20.4027 9.94959L19.4734 5.30387H22.1772L25.2915 10.4955ZM14.0985 5.30387H16.982L17.9748 10.2683C17.9321 11.5775 16.8598 12.6315 15.5409 12.6315C14.2219 12.6315 13.1496 11.5775 13.1069 10.2683L14.0985 5.30387ZM8.90446 5.30387H11.6084L10.6802 9.94959L10.7046 9.95448C10.6863 10.0326 10.6558 10.1059 10.6558 10.189C10.6558 11.536 9.56028 12.6315 8.21322 12.6315C7.61876 12.6307 7.04496 12.4134 6.59903 12.0203C6.15311 11.6272 5.86559 11.0852 5.79021 10.4955L8.90446 5.30387ZM13.0983 23.623V19.9591H17.9834V23.623H13.0983ZM20.4259 23.623V19.9591C20.4259 18.6121 19.3305 17.5166 17.9834 17.5166H13.0983C11.7512 17.5166 10.6558 18.6121 10.6558 19.9591V23.623H6.99194V14.9006C7.38397 15.002 7.78821 15.0741 8.21322 15.0741C8.90667 15.0744 9.59222 14.9268 10.224 14.641C10.8559 14.3552 11.4194 13.9378 11.877 13.4168C12.7722 14.4329 14.0839 15.0741 15.5409 15.0741C16.9978 15.0741 18.3095 14.4329 19.2047 13.4168C19.6623 13.9378 20.2258 14.3552 20.8577 14.641C21.4895 14.9268 22.175 15.0744 22.8685 15.0741C23.2935 15.0741 23.6977 15.002 24.0898 14.9006V23.623H20.4259Z" fill="#3B576B"/>
</svg>
