<svg width="31" height="30" viewBox="0 0 31 30" fill="none" xmlns="http://www.w3.org/2000/svg">
<path d="M23.9332 10.1258C25.2836 10.1258 26.3782 9.03113 26.3782 7.6808C26.3782 6.33048 25.2836 5.23582 23.9332 5.23582C22.5829 5.23582 21.4883 6.33048 21.4883 7.6808C21.4883 9.03113 22.5829 10.1258 23.9332 10.1258Z" fill="#3B576B"/>
<path d="M23.7769 16.4948C23.0845 17.0481 22.5825 17.4486 21.4834 17.4486C20.3855 17.4486 19.9104 17.0688 19.1923 16.4948C18.3618 15.8317 17.3298 15.0061 15.3734 15.0061C13.4181 15.0061 12.3874 15.8317 11.5581 16.4948C10.84 17.0688 10.3674 17.4486 9.26823 17.4486C8.17152 17.4486 7.69767 17.0688 6.98078 16.4961C6.15154 15.8317 5.122 15.0061 3.16797 15.0061V17.4486C4.26345 17.4486 4.7373 17.8285 5.45419 18.4012C6.28344 19.0656 7.31419 19.8912 9.26823 19.8912C11.2223 19.8912 12.2555 19.0656 13.0847 18.4012C13.8016 17.8272 14.2767 17.4486 15.3734 17.4486C16.4725 17.4486 16.9745 17.8492 17.6669 18.4025C18.4962 19.0656 19.5281 19.8912 21.4834 19.8912C23.4399 19.8912 24.4718 19.0656 25.3023 18.4025C26.0204 17.8285 26.4955 17.4486 27.5934 17.4486V15.0061C25.6382 15.0061 24.6062 15.8317 23.7769 16.4948ZM21.4834 23.555C20.3855 23.555 19.9104 23.1752 19.1923 22.6012C18.3618 21.938 17.3298 21.1125 15.3734 21.1125C13.4181 21.1125 12.3874 21.938 11.5581 22.6012C10.84 23.1752 10.3674 23.555 9.26823 23.555C8.17152 23.555 7.69767 23.1752 6.98078 22.6024C6.15154 21.938 5.122 21.1125 3.16797 21.1125V23.555C4.26345 23.555 4.7373 23.9348 5.45419 24.5076C6.28344 25.172 7.31419 25.9976 9.26823 25.9976C11.2223 25.9976 12.2555 25.172 13.0847 24.5076C13.8016 23.9336 14.2767 23.555 15.3734 23.555C16.4725 23.555 16.9745 23.9556 17.6669 24.5088C18.4962 25.172 19.5281 25.9976 21.4834 25.9976C23.4399 25.9976 24.4718 25.172 25.3023 24.5088C26.0204 23.9348 26.4955 23.555 27.5934 23.555V21.1125C25.6382 21.1125 24.6062 21.938 23.7769 22.6012C23.0845 23.1544 22.5825 23.555 21.4834 23.555ZM14.1594 6.96891L16.729 9.53846L14.2168 12.6771C14.5661 12.6087 14.9447 12.5636 15.3734 12.5636C17.3298 12.5636 18.3618 13.3891 19.1923 14.0523C19.9104 14.6263 20.3855 15.0061 21.4834 15.0061C22.5825 15.0061 23.0845 14.6055 23.7769 14.0523C23.9382 13.9241 24.1116 13.7873 24.2935 13.6542L21.7338 11.1017L21.7399 11.0956L15.0229 4.37859C14.9095 4.26507 14.775 4.17502 14.6268 4.11358C14.4786 4.05213 14.3198 4.02051 14.1594 4.02051C13.999 4.02051 13.8402 4.05213 13.692 4.11358C13.5439 4.17502 13.4093 4.26507 13.296 4.37859L8.41089 9.26368L10.1378 10.9906L14.1594 6.96891Z" fill="#3B576B"/>
</svg>
