<svg width="53" height="25" viewBox="0 0 53 25" fill="none" xmlns="http://www.w3.org/2000/svg">
<path d="M15.8934 10.2972C15.6424 10.0985 15.3796 9.91722 15.1197 9.7301C15.0215 9.65883 14.9293 9.57885 14.8252 9.52213C14.212 9.18487 13.6018 8.83594 12.9767 8.52195C12.2156 8.13625 11.4604 7.7477 10.7645 7.25161C10.6576 7.17731 10.5389 7.12336 10.4291 7.05195C10.2125 6.90918 9.9693 6.79243 9.7879 6.61495C9.16305 6.00559 8.36635 5.68676 7.62298 5.27787C7.56515 5.24506 7.48948 5.24715 7.41978 5.23468C7.3967 5.21688 7.37361 5.19907 7.35344 5.1813C7.11285 5.09675 6.87515 5.01515 6.63456 4.9306C6.53315 4.89146 6.43468 4.84943 6.33326 4.81028C6.17113 4.73538 6.00897 4.66339 5.84684 4.58848C5.68824 4.45512 5.49621 4.45592 5.30721 4.44505C5.26939 4.44463 5.23451 4.44132 5.19673 4.43798C5.23135 4.46468 5.2631 4.48843 5.29773 4.51513C5.48076 4.54056 5.66378 4.56598 5.84678 4.59433C5.97403 4.66593 6.09837 4.73749 6.22563 4.80909C6.34431 4.86597 6.46593 4.91996 6.58461 4.97684C6.8017 5.0816 7.01882 5.18344 7.23592 5.2882C7.32566 5.33014 7.42132 5.36337 7.50515 5.41401C7.85491 5.62845 8.20764 5.83707 8.54554 6.07185C8.89789 6.31556 9.23539 6.58835 9.5818 6.84369C9.7983 7.00401 10.0207 7.15855 10.246 7.30727C10.4223 7.42328 10.6074 7.52476 10.7866 7.63495C11.0583 7.80173 11.321 7.99473 11.6046 8.13825C12.5365 8.60479 13.4773 9.05097 14.4092 9.51459C14.632 9.62526 14.8429 9.76505 15.048 9.90477C15.3051 10.0772 15.5504 10.2671 15.8075 10.4396C15.9519 10.5377 16.076 10.6385 16.1381 10.8147C16.1663 10.8969 16.2616 10.9593 16.3278 11.0302C16.3627 11.0336 16.4005 11.0369 16.4353 11.0402C16.3611 10.9107 16.2985 10.7755 16.2096 10.6575C16.1149 10.5307 16.0115 10.4097 15.8903 10.3118L15.8934 10.2972Z" fill="#567F95"/>
<path d="M3.75858 3.97459C3.43366 3.88618 3.11065 3.89137 2.78402 3.96378C2.63822 3.99433 2.48103 4.00136 2.34659 4.05836C2.13028 4.15246 1.91958 4.2671 1.72035 4.39649C1.55041 4.50866 1.47283 4.68911 1.49683 4.89409C1.53697 5.22207 1.57711 5.55005 1.63474 5.8753C1.77746 6.67817 2.01653 7.44995 2.42792 8.15929C2.55155 8.57008 2.76001 8.93795 3.03288 9.26851C3.0383 9.30659 3.03783 9.35045 3.052 9.3857C3.24536 9.80603 3.44162 10.2264 3.6464 10.6673C3.65569 10.6148 3.67655 10.5682 3.66532 10.5301C3.53083 10.0461 3.32033 9.59631 3.05134 9.17513C2.90903 8.87819 2.76385 8.57829 2.61864 8.28131C2.57876 8.20191 2.53887 8.12251 2.49899 8.0431L2.48166 8.03121C2.47027 8.00769 2.45885 7.9871 2.44746 7.96357C2.40264 7.80223 2.36075 7.638 2.31301 7.47663C2.23161 7.19791 2.12978 6.92481 2.06296 6.64332C1.99335 6.35011 1.94999 6.05134 1.89787 5.75539C1.85407 5.49756 1.81315 5.24268 1.77226 4.98488C1.73963 4.77103 1.83438 4.61709 1.99284 4.49017C2.25992 4.2738 2.56653 4.169 2.90424 4.14935C2.99442 4.15035 3.08466 4.1455 3.17197 4.14355C3.7801 4.13859 4.3882 4.13657 4.95858 4.39732C5.02518 4.4273 5.10673 4.41943 5.18521 4.42615C4.90837 4.19497 4.56866 4.12979 4.23195 4.05587C4.07514 4.02781 3.9183 4.00268 3.75858 3.97459Z" fill="#567F95"/>
<path d="M43.6033 12.1955C43.043 11.8091 42.4945 11.4024 41.9224 11.0275C41.5959 10.8134 41.2428 10.6427 40.8956 10.4634C40.531 10.2751 40.1605 10.0985 39.7929 9.91603C39.5614 9.80234 39.3269 9.69153 39.0924 9.5778C39.0519 9.55688 39.0143 9.536 38.9738 9.51507C38.8928 9.47616 38.8117 9.43724 38.7307 9.39833C38.4205 9.28961 38.1133 9.178 37.8001 9.08094C37.745 9.06278 37.643 9.0792 37.6135 9.11689C37.5221 9.23285 37.4148 9.19949 37.3163 9.16331C37.1568 9.1089 37.0065 9.01658 36.844 8.97676C36.5567 8.90631 36.2604 8.86208 35.9701 8.80622C35.7997 8.95932 35.6643 8.83792 35.5197 8.75443C34.9847 8.45021 34.4196 8.23338 33.8187 8.10974C33.653 8.09621 33.4873 8.08559 33.3216 8.07206C33.0024 7.99541 32.6802 7.92165 32.3611 7.83622C32.1203 7.77214 31.8827 7.67885 31.6389 7.62643C30.9741 7.48746 30.3032 7.36889 29.6384 7.23576C29.5513 7.21725 29.4674 7.1783 29.3863 7.13939C28.8884 6.89991 28.3935 6.65754 27.8956 6.42099C27.7017 6.32818 27.5048 6.23242 27.2628 6.2853C27.9081 6.6083 28.5535 6.93129 29.2249 7.26627C29.1607 7.28603 29.1344 7.29744 29.1053 7.30004C28.7675 7.32554 28.7143 7.40098 28.7835 7.73806C28.811 7.88166 28.821 8.03384 28.8137 8.17998C28.799 8.46056 28.764 8.74092 28.7378 9.02137C28.7288 9.04759 28.7198 9.07088 28.7108 9.0971C28.6407 9.38877 28.5216 9.65064 28.3126 9.87351C28.2538 9.93427 28.2237 10.0246 28.1822 10.1002C28.0496 10.2595 28.1087 10.4415 28.133 10.6143C28.2085 11.1766 28.1156 11.7049 27.8397 12.199C27.7923 12.2833 27.7767 12.3826 27.7466 12.4729C27.7283 12.5516 27.7071 12.6304 27.6888 12.712C27.674 12.7353 27.6563 12.7556 27.6415 12.7788L27.6327 12.7904C27.6209 12.8049 27.6091 12.8223 27.5973 12.8368C27.5676 12.8862 27.5235 12.9325 27.5113 12.985C27.4619 13.2476 27.4474 13.5194 27.3748 13.776C27.2178 14.3153 27.1418 14.8964 26.7009 15.3155C26.0324 15.7906 25.3355 16.2069 24.4966 16.3029C24.4413 16.3082 24.3914 16.3456 24.3359 16.3684C24.2425 16.3908 24.1435 16.4043 24.0529 16.4384C23.8572 16.5093 23.8241 16.6171 23.968 16.7562C24.0804 16.8627 24.2192 16.9403 24.3463 17.0294C24.378 17.0532 24.4127 17.077 24.4445 17.0978C24.4646 17.1185 24.4819 17.1362 24.502 17.1569C24.5163 17.1834 24.5305 17.2099 24.5448 17.2363C24.5723 17.3887 24.5968 17.5411 24.6243 17.6934C24.6728 17.7876 24.7154 17.8845 24.7697 17.9729C24.827 18.0612 24.9457 18.1152 24.8944 18.2842C24.3601 18.1877 23.8502 17.9831 23.3043 17.8835C23.4304 18.0662 24.0248 18.257 25.1512 18.4889C25.2409 18.5279 25.3337 18.5611 25.4205 18.6059C25.6201 18.7134 25.8138 18.8296 26.0105 18.94C26.0399 19.183 26.216 19.3107 26.4071 19.3947C26.8212 19.5748 27.2444 19.7257 27.6645 19.8912C28.6235 20.2674 29.5526 20.7281 30.5444 21.0227C31.0241 21.3322 31.5579 21.4785 32.1161 21.5198C32.7004 21.5643 33.2486 21.7254 33.7904 21.9331C33.8223 21.9452 33.8482 21.9689 33.8829 21.9897C33.8301 22.033 33.8007 22.059 33.7714 22.0821C33.7479 22.0994 33.7274 22.1167 33.7039 22.1311C33.6862 22.1542 33.6685 22.1775 33.6508 22.2036C33.6418 22.2298 33.6328 22.256 33.6238 22.2822C33.635 22.3175 33.6463 22.3556 33.6575 22.3908C33.6748 22.4115 33.6949 22.4292 33.7122 22.4499L33.7151 22.4529C33.7352 22.4706 33.7554 22.4855 33.7756 22.5032C33.8161 22.53 33.8971 22.5689 33.8941 22.5806C33.8217 22.8167 34.0394 22.8688 34.1428 22.9928C34.1745 23.0194 34.2062 23.0461 34.238 23.0728C34.2829 23.2254 34.3806 23.3376 34.5196 23.4034C34.8032 23.5382 35.0899 23.6642 35.3766 23.7931C35.0272 23.5494 34.6332 23.3842 34.3457 23.0623C34.3168 23.0415 34.2851 23.0207 34.2562 22.9999C34.2562 22.9999 34.2591 22.9999 34.262 22.9999C34.2134 22.9204 34.1648 22.8409 34.1047 22.7438C34.239 22.6985 34.35 22.6588 34.5369 22.5965C34.3779 22.4982 34.2825 22.4416 34.1842 22.382C34.3095 22.3659 34.4348 22.3497 34.563 22.3336C34.5806 22.3162 34.6011 22.3018 34.6188 22.2845C34.7047 22.1392 34.5681 22.1231 34.4928 22.093C34.2727 21.9999 34.0436 21.9301 33.8265 21.8283C33.1635 21.5226 32.4637 21.3891 31.7454 21.3548C31.5186 21.3435 31.3155 21.2886 31.1158 21.1958C30.945 21.1149 30.7711 21.0457 30.6003 20.9707C30.5772 20.9558 30.557 20.941 30.5338 20.9261C29.5782 20.509 28.6165 20.1065 27.6668 19.6748C27.1862 19.456 26.679 19.2749 26.2844 18.8962C26.2585 18.8726 26.209 18.872 26.1713 18.8599C25.8797 18.649 25.5583 18.5022 25.2011 18.4426C25.1493 18.3894 25.0917 18.3391 25.0516 18.2801C25.0029 18.2065 24.9894 18.104 24.9289 18.0507C24.7646 17.9055 24.7083 17.7324 24.7308 17.525C24.7326 17.3642 24.7343 17.2034 24.736 17.0396C24.7188 17.016 24.7016 16.9924 24.6873 16.9718C24.6671 16.9511 24.6499 16.9275 24.6298 16.9068C24.6096 16.8891 24.5866 16.8683 24.5664 16.8506C24.5462 16.8328 24.5232 16.8121 24.503 16.7943C24.4828 16.7794 24.4626 16.7617 24.4395 16.7468C24.428 16.735 24.4135 16.729 24.399 16.7259C24.3909 16.6673 24.3798 16.6116 24.3717 16.553C24.3719 16.5326 24.3751 16.5121 24.3782 16.4917C24.4571 16.4575 24.5334 16.3998 24.6179 16.3891C25.3695 16.2921 26.0079 15.9073 26.669 15.5784C26.7363 15.544 26.7893 15.4773 26.851 15.4254L26.8657 15.4139C26.8833 15.3994 26.9009 15.385 26.9185 15.3706C27.3497 15.0449 27.5263 14.5819 27.619 14.0711C27.6369 14.0245 27.652 13.975 27.67 13.9284C27.6761 13.8992 27.6851 13.8701 27.6913 13.838C27.7035 13.7884 27.7156 13.7388 27.7249 13.6863C27.7709 13.4645 27.9128 13.2614 27.8484 13.0209C27.8585 12.8923 27.8599 12.7607 27.8787 12.6352C27.9006 12.4892 27.9197 12.3374 27.9793 12.2064C28.1432 11.8456 28.2461 11.4724 28.259 11.0807C28.268 10.7825 28.2479 10.484 28.2424 10.1827C28.2424 10.1827 28.2573 10.1536 28.2545 10.139C28.2693 10.1158 28.2841 10.0896 28.2989 10.0664C28.3845 9.95034 28.4731 9.83434 28.5587 9.71832C28.5764 9.69512 28.5941 9.67192 28.6118 9.64872C28.6681 9.55576 28.7388 9.46589 28.7807 9.364C28.8733 9.13108 28.9428 8.88912 29.0413 8.65918C29.1935 8.30702 29.2757 7.957 29.1168 7.58383C29.1111 7.56915 29.1259 7.54592 29.1379 7.51096C29.2342 7.49155 29.3477 7.48696 29.4441 7.44709C29.7247 7.32738 29.9917 7.38883 30.2644 7.46789C30.4558 7.52265 30.6471 7.58911 30.8446 7.62347C31.4284 7.7206 32 7.86146 32.5445 8.09561C32.8602 8.23071 33.1912 8.29287 33.5341 8.32884C33.6998 8.3453 33.8711 8.38229 34.0275 8.44544C34.5084 8.64379 34.9803 8.85958 35.4552 9.06955C35.5363 9.10555 35.6173 9.15324 35.7043 9.17467C35.8523 9.21141 35.9947 9.23053 36.1183 9.09153C36.1625 9.04231 36.2588 9.01413 36.3285 9.02368C36.4651 9.04274 36.6044 9.07645 36.7318 9.1305C37.0156 9.25355 37.2905 9.39697 37.5743 9.52587C37.6901 9.5798 37.8202 9.65435 37.9367 9.64394C38.0328 9.63624 38.1242 9.5232 38.2327 9.44544C38.3343 9.46412 38.4533 9.48883 38.5695 9.51059C38.6247 9.5112 38.677 9.51763 38.7323 9.52117C38.677 9.52056 38.6247 9.51413 38.5695 9.51059C38.6245 9.52875 38.6796 9.5469 38.7347 9.56506C38.752 9.57695 38.7724 9.5801 38.7927 9.58325C38.8333 9.60125 38.8709 9.61629 38.9115 9.63429L38.9259 9.64029C39.4556 9.90352 39.9852 10.1638 40.5119 10.427C40.8882 10.6125 41.291 10.7603 41.6406 10.9893C42.6345 11.6466 43.6076 12.3388 44.5866 13.0164C44.809 13.1681 45.0255 13.3284 45.3044 13.3695C45.2353 13.3015 45.1545 13.245 45.0765 13.1915C44.5854 12.8614 44.0943 12.5343 43.6062 12.1984L43.6033 12.1955Z" fill="#567F95"/>
<path d="M22.04 22.3965C21.8982 22.3189 21.7585 22.329 21.6152 22.3918C21.557 22.3911 21.4989 22.3876 21.4436 22.384C21.3594 22.3685 21.2781 22.3529 21.1939 22.3374C21.1736 22.3313 21.1562 22.3253 21.1359 22.3192C21.0809 22.301 21.0259 22.2712 20.9706 22.2706C20.6419 22.2669 20.3102 22.2691 19.9814 22.2684C19.8447 22.2668 19.708 22.2653 19.5713 22.2609C19.4724 22.2598 19.3705 22.2587 19.2716 22.2576C18.8496 22.2704 18.4305 22.2863 18.0085 22.2991C17.9707 22.2987 17.9299 22.3012 17.892 22.3037C17.8919 22.3183 17.8888 22.3329 17.8858 22.3475C17.8858 22.3475 17.889 22.3183 17.892 22.3037C17.3306 22.2916 16.7693 22.2766 16.2108 22.2646C16.1848 22.2497 16.1617 22.226 16.1327 22.2228C15.7405 22.1628 15.339 22.1701 14.9622 22.0314C14.9158 22.0162 14.8633 22.0274 14.814 22.018C14.4625 21.9674 14.1081 21.9137 13.7566 21.863C13.6694 21.8504 13.5822 21.8406 13.4922 21.8279C13.2136 21.7634 12.9349 21.6989 12.6563 21.6344C12.6185 21.6311 12.5807 21.6277 12.543 21.6244C12.4821 21.6062 12.4182 21.5879 12.3573 21.5697C12.34 21.5607 12.3255 21.5576 12.3051 21.5574C12.2617 21.5394 12.2182 21.5243 12.1776 21.5063C11.9345 21.3895 11.6913 21.2757 11.4541 21.1502C11.3239 21.0815 11.2145 20.9692 11.0814 20.9034C10.6328 20.682 10.1782 20.4752 9.72659 20.2625C9.83779 20.2023 9.9433 20.1304 10.0602 20.082C10.3086 19.9765 10.5627 19.8829 10.814 19.7833C10.7533 19.7504 10.7011 19.7352 10.6573 19.7494C10.3769 19.8457 10.0937 19.9449 9.81611 20.053C9.73722 20.0843 9.67535 20.1567 9.60497 20.2085C9.56727 20.1964 9.52661 20.1901 9.48894 20.1751C8.64576 19.8499 7.80258 19.5247 6.95939 19.1995C6.7276 19.1092 6.49277 19.0306 6.25801 18.9461C6.11271 18.9299 5.96741 18.9136 5.82211 18.8974C5.78726 18.8911 5.75532 18.8849 5.72051 18.8758C5.67412 18.8606 5.63064 18.8455 5.58428 18.8275C5.50867 18.8237 5.43306 18.82 5.35458 18.8132C5.29036 18.833 5.22905 18.8528 5.16486 18.8696L5.17938 18.8727C5.35355 18.9097 5.52772 18.9468 5.70187 18.9867C6.06485 19.0521 6.41573 19.1613 6.75157 19.3171C7.0208 19.4429 7.3049 19.5397 7.58011 19.6509C7.61777 19.666 7.64952 19.6897 7.68719 19.7047C8.22009 19.9329 8.75306 20.1552 9.28594 20.3863C9.78985 20.6054 10.2938 20.8245 10.7888 21.0551C11.0146 21.16 11.2106 21.3318 11.4396 21.4191C11.7351 21.5335 12.0516 21.5955 12.362 21.6809C12.7017 21.746 13.0385 21.8112 13.3782 21.8764C13.6452 21.9378 13.9121 22.0139 14.1822 22.0607C14.5829 22.1295 14.9839 22.1808 15.3848 22.232C15.6405 22.267 15.8963 22.2932 16.152 22.3224C16.3322 22.3419 16.5123 22.3644 16.6925 22.384C16.7099 22.39 16.7302 22.3902 16.7477 22.3904C17.0675 22.4144 17.3902 22.4356 17.71 22.4596C17.7856 22.4604 17.8613 22.4613 17.934 22.4621C18.0998 22.4639 18.2656 22.4657 18.4315 22.4676C18.6235 22.4697 18.8126 22.4718 19.0046 22.4739C19.2955 22.4772 19.5864 22.4804 19.8773 22.4836C20.0052 22.4938 20.133 22.5157 20.2581 22.5142C20.5839 22.5178 20.9099 22.5097 21.2358 22.5045C21.4016 22.5034 21.5705 22.4965 21.7363 22.4925C21.8963 22.5031 22.0563 22.5049 22.2131 22.5271C22.5094 22.5713 22.7724 22.466 23.0412 22.3608C22.7676 22.3724 22.4939 22.3869 22.2203 22.3985C22.1621 22.3978 22.104 22.3913 22.0458 22.3907L22.04 22.3965Z" fill="#567F95"/>
<path d="M49.2964 13.0745C49.259 13.039 49.2186 13.0035 49.1351 12.9265C49.148 13.3536 48.8539 13.3767 48.6033 13.4119C48.1867 13.4658 47.7766 13.4495 47.3621 13.3046C46.4403 12.9814 45.5512 12.6031 44.8046 11.9514C44.7815 11.9307 44.7555 11.9187 44.7295 11.9009C43.8495 11.2068 42.9666 10.5127 42.0896 9.81283C41.7059 9.50736 41.331 9.19321 40.9532 8.88196C40.4857 8.51999 40.0331 8.1348 39.5449 7.80185C38.9412 7.38866 38.3051 7.0219 37.6837 6.63484C36.7848 6.07508 35.8026 5.69278 34.8323 5.28137C34.3631 5.08023 33.8641 4.9431 33.4069 4.71577C32.1161 4.07855 30.7683 3.59277 29.4116 3.13029C28.226 2.72527 27.0223 2.37269 25.8276 2.00266C25.7232 1.96933 25.6128 1.95641 25.5054 1.93182C25.2268 1.86732 24.9452 1.80278 24.6666 1.73828C24.5446 1.71938 24.4226 1.70048 24.3006 1.68158C24.2396 1.67798 24.1784 1.68607 24.1233 1.66792C23.613 1.50434 23.0863 1.51312 22.5622 1.54532C22.3208 1.54264 22.0764 1.53993 21.835 1.53433C21.5763 1.50514 21.3177 1.47888 21.059 1.44969C20.6962 1.36671 20.3326 1.35975 19.9652 1.43756C19.6768 1.47238 19.3884 1.51012 19.1 1.54201C18.8437 1.56841 18.6272 1.68007 18.4048 1.80042C18.0448 1.99529 17.7855 2.30533 17.4917 2.57404C17.3803 2.64884 17.3823 2.73952 17.451 2.83971C17.4592 2.88952 17.4674 2.9364 17.4756 2.98621C17.4726 2.99495 17.4638 3.00362 17.4667 3.00658C17.4723 3.02126 17.4839 3.03309 17.4925 3.04488C17.4981 3.06541 17.5065 3.0889 17.5121 3.10944C17.5263 3.14761 17.5375 3.18575 17.5516 3.22685C17.5963 3.40281 17.6322 3.57868 17.6857 3.75181C17.894 4.40919 18.1051 5.0666 18.3163 5.72401C18.3277 5.75046 18.3391 5.77398 18.3504 5.80043C18.3502 5.81797 18.3501 5.83259 18.3616 5.84442C18.4121 6.01752 18.5034 6.18815 18.5074 6.36073C18.5211 6.98378 18.526 7.61259 18.2521 8.20028C18.1776 8.36322 18.1262 8.54104 18.0836 8.71604C17.9831 9.13604 17.9116 9.56513 17.7155 9.95483C17.5319 10.2511 17.331 10.5354 17.1677 10.8436C17.0668 11.0326 16.9718 11.2129 16.7901 11.3307C16.6719 11.23 16.5537 11.1293 16.4355 11.0285C16.4006 11.0252 16.3628 11.0219 16.3279 11.0185C16.4574 11.1545 16.6426 11.2501 16.6518 11.4754C16.1142 11.9637 15.7555 12.5855 15.3968 13.2074C15.1196 13.5523 14.808 13.853 14.4388 14.0975C14.2865 14.1981 14.1542 14.3254 14.0103 14.4437C14.0835 14.4035 14.1567 14.3634 14.2298 14.3233C14.7156 14.0655 15.1869 13.7899 15.5091 13.3198C15.7776 12.9718 16.0345 12.615 16.3145 12.2759C16.5179 12.0296 16.7299 11.7892 16.9707 11.5842C17.094 11.4774 17.2173 11.3793 17.28 11.2309C17.3517 11.0562 17.4089 10.8726 17.4719 10.692C17.4838 10.6687 17.4928 10.6454 17.5047 10.6193C17.5315 10.5581 17.5584 10.497 17.5852 10.4359C17.606 10.3981 17.6268 10.3574 17.6447 10.3196L17.6447 10.3167C17.6536 10.2992 17.6655 10.2789 17.6744 10.2614C17.7101 10.1858 17.7429 10.1072 17.7787 10.0316C17.8802 9.78412 18.0021 9.53982 18.0834 9.28337C18.1887 8.957 18.2303 8.60946 18.3587 8.29505C18.529 7.87582 18.6122 7.44685 18.6372 7.00554C18.6623 6.56423 18.7107 6.11733 18.424 5.72521C18.4242 5.70474 18.4185 5.69005 18.41 5.67241C18.3959 5.63131 18.3789 5.58726 18.3648 5.54616C18.3504 5.52846 18.339 5.50786 18.3247 5.49015C18.3191 5.46962 18.3105 5.44905 18.3049 5.42852C18.2937 5.39038 18.2825 5.34931 18.2742 5.3112C18.2657 5.28771 18.2601 5.26426 18.2517 5.24077C18.252 5.20568 18.2524 5.17059 18.2528 5.1355C18.2471 5.12666 18.2443 5.11786 18.2414 5.10905C18.2413 5.11783 18.2471 5.12666 18.2528 5.1355C18.2558 5.12968 18.2646 5.12101 18.2617 5.11513C18.256 5.10337 18.2474 5.09157 18.2389 5.07686C18.0837 4.3528 17.9285 3.62875 17.7733 2.90178C17.7594 2.83728 17.7486 2.75821 17.7754 2.70294C17.8737 2.49347 17.9921 2.29885 18.2058 2.17839C18.598 1.95756 18.9902 1.73966 19.4615 1.74781C19.6098 1.74945 19.7558 1.70721 19.9044 1.68546C20.3669 1.69059 20.8324 1.69575 21.2949 1.70381C21.3385 1.70721 21.3821 1.71355 21.4257 1.71695C21.8757 1.80675 22.3266 1.81468 22.7813 1.73199C22.825 1.72663 22.8687 1.72126 22.9154 1.71593C23.119 1.71819 23.3197 1.72334 23.5233 1.72852C23.5727 1.73784 23.622 1.75301 23.6685 1.75645C24.5461 1.85392 25.4116 1.99219 26.2493 2.28515C26.9103 2.51474 27.577 2.73854 28.25 2.92732C29.7671 3.35357 31.2364 3.90211 32.6815 4.52641C33.1304 4.72148 33.5792 4.92239 34.0311 5.11457C34.9144 5.49284 35.8186 5.82748 36.6782 6.25228C37.4306 6.62618 38.1267 7.10766 38.8554 7.52808C39.4482 7.87096 39.9937 8.27474 40.5216 8.70756C40.6225 8.79056 40.7324 8.85611 40.8392 8.93041C41.09 9.14667 41.3379 9.36291 41.5888 9.57917C41.9607 9.89913 42.3237 10.2336 42.7074 10.5391C43.4777 11.1471 44.2775 11.7233 45.036 12.3459C45.8436 13.0099 46.8153 13.2897 47.766 13.6249C48.0851 13.7132 48.4081 13.7051 48.7318 13.6385C48.8281 13.6133 48.9272 13.5939 49.0206 13.5657C49.1636 13.5234 49.2721 13.4427 49.2971 13.2822C49.4306 13.3129 49.5702 13.3232 49.6918 13.3801C50.3576 13.6917 51.0416 13.9449 51.7586 14.0961C51.8341 14.1116 51.9208 14.1594 52.0238 14.0581C51.0486 13.8309 50.1562 13.4818 49.2877 13.0744L49.2964 13.0745ZM23.521 1.67293C23.7826 1.69338 24.0443 1.71383 24.303 1.73425C24.0413 1.7138 23.7797 1.69335 23.521 1.67293Z" fill="#567F95"/>
<path d="M23.7647 12.3673C24.1453 12.4154 24.5259 12.4635 24.9067 12.5028C25.2438 12.5358 25.5811 12.5571 25.9183 12.5842C25.9793 12.5878 26.0435 12.5768 26.0986 12.595C26.4755 12.7161 26.8495 12.5653 27.2219 12.5723C27.2393 12.5725 27.2543 12.5347 27.3014 12.4767C26.0601 12.656 24.8821 12.3475 23.6894 12.3372C23.7154 12.3492 23.7385 12.367 23.7647 12.3702L23.7647 12.3673Z" fill="#567F95"/>
<path d="M22.704 13.0691C22.9474 13.1625 23.1908 13.2558 23.4458 13.3522C23.3897 13.4276 23.3483 13.4857 23.3099 13.5408C23.3185 13.5584 23.327 13.5732 23.3356 13.5908C23.4376 13.5685 23.5397 13.5463 23.6418 13.524C23.729 13.525 23.8191 13.5348 23.9065 13.527C23.9793 13.519 24.0147 13.4755 23.9368 13.4162C24.0477 13.3794 24.1558 13.3396 24.2989 13.2915C23.7472 13.1889 23.2361 13.0926 22.728 12.9992C22.7219 13.0254 22.7129 13.0517 22.7068 13.0779L22.704 13.0691Z" fill="#567F95"/>
<path d="M13.9986 14.449C13.9986 14.449 14.0071 14.4406 14.01 14.4378C14.0043 14.4377 13.9986 14.4433 13.9958 14.4461L13.9986 14.449Z" fill="#567F95"/>
<path d="M6.47004 16.799C6.75432 16.6062 7.0386 16.4134 7.30529 16.2321C6.91656 16.1255 6.51558 16.3491 6.47004 16.799Z" fill="#567F95"/>
<path d="M26.6484 23.2313C26.5206 23.2094 26.355 23.1813 26.1895 23.1531C25.9626 23.1477 25.7358 23.1393 25.5118 23.1339C25.3166 23.161 25.4001 22.9718 25.3374 22.8454C25.2861 23.0203 25.1367 23.1151 25.2455 23.283C25.3328 23.2782 25.4201 23.2733 25.5104 23.2684C25.8158 23.2718 26.1241 23.2811 26.4296 23.2874C26.4873 23.329 26.5945 23.3682 26.5999 23.4121C26.6151 23.6228 26.7462 23.6038 26.9036 23.5822C26.6534 23.5823 26.7897 23.347 26.6513 23.2284L26.6484 23.2313Z" fill="#567F95"/>
<path d="M28.4753 21.8859C28.1704 21.8357 27.8655 21.7797 27.5575 21.7412C27.3483 21.7155 27.1586 21.7719 27.0343 21.9664C26.9306 22.1378 26.7822 22.1449 26.6021 22.1137C26.1259 22.0295 25.6436 21.9656 25.1643 21.893C25.0655 21.8832 24.9666 21.8733 24.8824 21.8636C24.8865 22.0186 24.8882 22.1327 24.8958 22.2439C24.9084 22.4254 25.0648 22.4944 25.2521 22.3912C25.2327 22.3003 25.2104 22.2035 25.1882 22.1097C25.1593 22.0889 25.1304 22.0652 25.0409 21.9999C25.1571 22.0187 25.2065 22.0251 25.253 22.0315C25.3634 22.0415 25.4768 22.0515 25.5873 22.0615C25.909 22.1733 26.2279 22.285 26.5496 22.3968C26.6915 22.4598 26.8336 22.5052 26.9715 22.3927C27.0138 22.2528 27.056 22.11 27.0983 21.9701C27.3205 21.8614 27.5449 21.8317 27.7944 21.893C28.1224 21.9726 28.4623 22.0144 28.7963 22.0708C28.8573 22.0802 28.9185 22.0721 28.9825 22.0728C28.9856 22.0524 28.9917 22.032 28.9948 22.0116C28.9369 21.9875 28.8819 21.9547 28.8239 21.9424C28.7077 21.9177 28.5886 21.9018 28.4695 21.8829L28.4753 21.8859Z" fill="#567F95"/>
<path d="M4.867 18.6996C4.30276 18.6817 3.73826 18.6871 3.17386 18.6838C3.15647 18.6777 3.13902 18.6775 3.12153 18.6803C3.04007 18.6794 2.95862 18.6785 2.87716 18.6776C2.83622 18.6976 2.79527 18.7176 2.75435 18.7347C2.7953 18.7147 2.83625 18.6946 2.87716 18.6776C2.83637 18.683 2.79555 18.6913 2.75476 18.6967C2.60151 18.6072 2.70974 18.5529 2.78873 18.5128C2.92326 18.447 3.06641 18.3931 3.20376 18.3361C3.19522 18.3185 3.18668 18.3008 3.17814 18.2832C2.73129 18.442 2.30441 18.639 1.90877 18.9066C1.80655 18.9435 1.70141 18.9804 1.59919 19.0172C1.58486 18.9966 1.57053 18.976 1.55621 18.9553C1.61229 18.8799 1.65687 18.7927 1.72443 18.732C1.89769 18.5819 2.07671 18.4377 2.26139 18.3081C2.6366 18.0461 3.02904 17.8048 3.39274 17.5311C3.55405 17.41 3.66951 17.2241 3.80501 17.0677C4.04668 16.778 4.28259 16.4823 4.5329 16.2014C4.64479 16.0769 4.77691 15.9643 4.91464 15.8722C5.26045 15.6392 5.61773 15.4209 6.03192 15.3231L6.04359 15.3204C6.10196 15.3035 6.16033 15.2866 6.2187 15.2697C6.24203 15.2641 6.2654 15.2556 6.28583 15.2499C6.58603 15.2006 6.88335 15.1484 7.18355 15.099C7.20395 15.0963 7.22728 15.0908 7.24768 15.0881L7.2738 15.0942L7.30001 15.0916C7.4805 15.0819 7.6639 15.0722 7.84436 15.0654C8.07168 15.0299 8.30178 15.0062 8.52344 14.956C8.76549 14.9031 8.99634 14.8092 9.23829 14.7651C9.93504 14.6353 10.6263 14.4734 11.3421 14.4726C11.5166 14.4774 11.6882 14.4764 11.8407 14.3699C11.7857 14.34 11.7306 14.3277 11.6782 14.3301C11.3813 14.3385 11.0815 14.3468 10.7846 14.3611C10.7089 14.3661 10.633 14.3887 10.5543 14.4053C10.4786 14.4103 10.4058 14.4125 10.3301 14.4175C10.1235 14.4269 9.91968 14.4392 9.71301 14.4486C9.61106 14.4592 9.512 14.4727 9.35762 14.4886C9.44052 14.355 9.48787 14.2794 9.53232 14.2039C9.71609 13.8872 9.85359 13.5436 9.84298 13.175C9.8262 12.5666 9.73381 11.9543 9.44855 11.4219C9.04917 10.6775 8.71998 9.89892 8.25041 9.18893C7.62621 8.24619 6.89613 7.41049 5.9366 6.80911C5.58112 6.58584 5.19302 6.42069 4.81977 6.22646C4.77632 6.20843 4.73578 6.19044 4.69233 6.17241C4.63146 6.15126 4.57349 6.13015 4.51262 6.109C4.49814 6.10299 4.48074 6.09695 4.46329 6.09676C4.23187 5.97137 4.21736 5.96828 3.98125 6.00953C4.14644 6.06985 4.27104 6.11802 4.39566 6.16327C4.77438 6.38973 5.15902 6.60748 5.52886 6.84846C6.3957 7.41078 7.14176 8.11215 7.78488 8.91765C8.33328 9.60219 8.71174 10.3989 9.14296 11.1582C9.14869 11.167 9.1515 11.1758 9.15432 11.1846C9.19946 11.3167 9.15492 11.401 9.01803 11.4142C8.63068 11.4508 8.28572 11.6049 7.94345 11.7795C7.91711 11.7938 7.89371 11.8053 7.86737 11.8196C7.84992 11.8194 7.83531 11.8251 7.82067 11.8337C7.77976 11.8508 7.73593 11.8678 7.69505 11.882L7.68923 11.8819C7.39131 11.9898 7.08486 12.08 6.79548 12.2054C6.45643 12.3508 6.13443 12.5344 5.79822 12.6857C5.59359 12.777 5.41197 12.8919 5.28197 13.0777C5.28182 13.0923 5.28166 13.1069 5.2786 13.1215C5.48351 13.0039 5.68562 12.8774 5.89623 12.7716C6.0542 12.6914 6.23791 12.6525 6.39015 12.5635C6.84097 12.3053 7.29741 12.0648 7.81911 11.9799C7.8366 11.9772 7.85133 11.9598 7.86891 11.9483C7.92725 11.9343 7.98565 11.9145 8.04393 11.9063C8.42568 11.8492 8.7967 11.7071 9.19209 11.7348C9.35199 11.7454 9.44165 11.7961 9.49517 11.9605C9.77128 12.8058 9.6086 13.5994 9.23375 14.3731C9.17128 14.5011 9.05749 14.532 8.94087 14.5541C8.59972 14.6234 8.25576 14.684 7.91176 14.7474C7.70791 14.7656 7.50405 14.7838 7.30019 14.802C7.20113 14.8156 7.10206 14.8291 7.00299 14.8426C6.8835 14.8618 6.76692 14.8809 6.64743 14.9001L6.64161 14.9C6.58033 14.9169 6.51905 14.9338 6.46065 14.9536C6.41973 14.9707 6.37879 14.9907 6.33787 15.0078C6.29693 15.0278 6.25307 15.0478 6.21212 15.0678C6.19467 15.0676 6.17715 15.0733 6.16248 15.0848C6.12448 15.1019 6.08356 15.119 6.04556 15.1361L6.04265 15.1361C5.66662 15.2021 5.37036 15.4269 5.05412 15.6164C4.49188 15.9553 4.0996 16.4539 3.73607 16.9851C3.71839 17.0053 3.70072 17.0256 3.68305 17.0459C3.59202 17.1238 3.50672 17.2106 3.40421 17.2738C3.01749 17.524 2.63077 17.7741 2.23545 18.0124C1.73177 18.3168 1.33774 18.7073 1.13962 19.2783C1.08854 19.4298 1.13415 19.518 1.29721 19.5052C1.4341 19.4921 1.57699 19.4615 1.70271 19.4044C2.11486 19.2247 2.52135 19.0304 2.93069 18.8419C2.94817 18.8392 2.96278 18.8335 2.9803 18.8278C2.96278 18.8335 2.9482 18.8363 2.93069 18.8419C3.33509 18.8435 3.74243 18.8422 4.14683 18.8437C4.48425 18.8504 4.82456 18.86 5.16199 18.8667C5.2262 18.8469 5.28751 18.8271 5.3517 18.8103C5.19214 18.7676 5.02998 18.6956 4.87001 18.6909L4.867 18.6996ZM6.0103 15.1679C5.98978 15.1823 5.96632 15.1996 5.94286 15.2169C5.96632 15.1996 5.98975 15.1852 6.0103 15.1679ZM2.47548 18.6936C2.47548 18.6936 2.48712 18.6937 2.49294 18.6938C2.48991 18.7054 2.48687 18.7171 2.48384 18.7288C2.47808 18.7228 2.46942 18.7169 2.46657 18.711C2.4666 18.7081 2.47251 18.6994 2.47548 18.6936Z" fill="#567F95"/>
<path d="M5.18521 4.42615C5.18521 4.42615 5.18796 4.42618 5.19066 4.43169L5.19343 4.42898C5.19068 4.42895 5.18793 4.42892 5.18518 4.42889L5.18521 4.42615Z" fill="#567F95"/>
<path d="M18.1493 20.0109C17.6294 19.9261 17.1156 19.8181 16.5864 19.783C17.0877 19.9728 17.6045 20.0779 18.1493 20.0109Z" fill="#567F95"/>
<path d="M22.7037 20.7252C21.5298 20.5865 20.3558 20.4477 19.179 20.3089C20.081 20.5704 21.0051 20.6771 21.9352 20.7635C21.9729 20.7785 22.0075 20.8023 22.0453 20.8057C22.6123 20.8383 23.1764 20.8679 23.7434 20.8976C23.7813 20.898 23.8192 20.8838 23.8572 20.8755C23.8574 20.8521 23.8547 20.8316 23.8521 20.8081C23.4683 20.7805 23.0845 20.7528 22.7037 20.7252Z" fill="#567F95"/>
<path d="M25.0793 9.14163C25.4234 9.33846 26.2144 9.37648 26.4227 9.21502C25.9836 9.18968 25.5591 9.16743 25.0793 9.14163Z" fill="#567F95"/>
<path d="M13.9986 14.449C13.9898 14.4548 13.9782 14.4608 13.9694 14.4666C13.9811 14.4609 13.9899 14.4551 14.0016 14.4494L13.9986 14.449Z" fill="#567F95"/>
<path d="M13.9665 14.4636C13.6564 14.6181 13.355 14.7815 13.1493 14.9722C13.3865 14.8257 13.6765 14.6447 13.9665 14.4636Z" fill="#567F95"/>
<path d="M4.60666 13.6521C4.52746 13.7127 4.45402 13.7791 4.37197 13.8338C4.15807 13.9747 3.94133 14.1097 3.72456 14.2477C3.76938 14.1371 3.8229 14.0294 3.85612 13.9158C3.91342 13.7263 3.99402 13.5342 4.00481 13.3413C4.02707 12.8912 4.01443 12.4407 4.01923 11.9904C4.00178 11.9902 3.98439 11.9841 3.9699 11.9781C3.94076 12.2556 3.91449 12.5361 3.88825 12.8136C3.85216 13.1963 3.76968 13.5639 3.57406 13.9009C3.50296 14.0201 3.44628 14.151 3.37809 14.2702C3.32473 14.3632 3.32682 14.4392 3.41629 14.5075C3.4512 14.5079 3.48611 14.5082 3.52102 14.5086L3.52684 14.5087C3.64063 14.4778 3.78027 14.4793 3.86245 14.413C4.12367 14.1995 4.36481 13.9594 4.61455 13.7312C4.8378 13.5319 5.06395 13.3326 5.28723 13.1303C5.28739 13.1157 5.29045 13.1011 5.29061 13.0865C5.06454 13.277 4.83851 13.4646 4.61536 13.6551L4.60666 13.6521Z" fill="#567F95"/>
<path d="M7.88053 16.5836C8.01456 16.5646 8.14572 16.5427 8.27976 16.5237C8.04769 16.4597 7.81852 16.3958 7.56033 16.3256C7.62543 16.496 7.76181 16.5297 7.88053 16.5836Z" fill="#567F95"/>
<path d="M8.3544 16.6181C8.50574 16.6139 8.67381 16.6772 8.87032 16.5302C8.63177 16.5276 8.45431 16.5256 8.27685 16.5237C8.14282 16.5426 8.01165 16.5646 7.87762 16.5836C8.03458 16.597 8.19434 16.6222 8.35149 16.6181L8.3544 16.6181Z" fill="#567F95"/>
<path d="M3.85258 11.2487C3.85258 11.2487 3.82349 11.2483 3.80895 11.2482C3.86166 11.4886 3.91434 11.7319 3.96706 11.9723C3.98154 11.9783 3.99893 11.9843 4.01639 11.9845C4.05123 11.7188 4.02776 11.4641 3.85261 11.2457L3.85258 11.2487Z" fill="#567F95"/>
<path d="M7.30595 14.808C7.50981 14.7897 7.71366 14.7715 7.91752 14.7533C7.71376 14.7628 7.50705 14.7751 7.30329 14.7845C7.20413 14.8068 7.10788 14.8292 7.00872 14.8515C7.10779 14.8379 7.20685 14.8244 7.30592 14.8109L7.30595 14.808Z" fill="#567F95"/>
<path d="M3.68723 10.931C3.72974 11.0367 3.76934 11.1425 3.81182 11.2511C3.82637 11.2513 3.84092 11.2515 3.85546 11.2516C3.85974 11.123 3.8319 11.0057 3.75144 10.9112C3.73102 10.9168 3.71056 10.9254 3.69013 10.931L3.68723 10.931Z" fill="#567F95"/>
<path d="M5.19101 4.42877C5.19101 4.42877 5.1965 4.42883 5.19925 4.42886C5.19925 4.42886 5.19653 4.42609 5.19381 4.42332L5.19103 4.42603L5.19101 4.42877Z" fill="#567F95"/>
<path d="M3.86601 5.90297C3.86601 5.90297 3.85146 5.90281 3.84564 5.90274C3.8514 5.90866 3.85425 5.91454 3.86291 5.92048C3.86582 5.92051 3.87455 5.92061 3.87746 5.92064C3.87461 5.91476 3.87179 5.90596 3.86601 5.90297Z" fill="#567F95"/>
<path d="M5.18521 4.42615C5.10673 4.41943 5.02518 4.4273 4.95858 4.39732C4.3882 4.13657 3.7801 4.13859 3.17197 4.14355C3.08466 4.1455 2.99442 4.15035 2.90424 4.14935C2.56653 4.169 2.25992 4.2738 1.99284 4.49017C1.83438 4.61709 1.73963 4.77103 1.77226 4.98488C1.81315 5.24268 1.85407 5.49756 1.89787 5.75539C1.94999 6.05134 1.99335 6.35011 2.06296 6.64332C2.12978 6.92481 2.23161 7.19791 2.31301 7.47663C2.36075 7.638 2.40264 7.80223 2.44746 7.96357C2.45885 7.9871 2.47027 8.00769 2.48166 8.03121L2.49899 8.0431C2.53887 8.12251 2.57876 8.20191 2.61864 8.28131C2.76385 8.57829 2.90904 8.87819 3.05134 9.17513C3.32033 9.59631 3.53083 10.0461 3.66532 10.5301C3.67655 10.5682 3.65569 10.6148 3.6464 10.6673C3.44162 10.2264 3.24536 9.80603 3.052 9.3857C3.03783 9.35045 3.0383 9.30659 3.03288 9.26851C2.76001 8.93795 2.55155 8.57008 2.42792 8.15929C2.01653 7.44995 1.77746 6.67817 1.63474 5.8753C1.57711 5.55005 1.53697 5.22207 1.49683 4.89409C1.47283 4.68911 1.55041 4.50866 1.72035 4.39649C1.91958 4.2671 2.13028 4.15246 2.34659 4.05836C2.48103 4.00136 2.63822 3.99433 2.78402 3.96378C3.11065 3.89137 3.43366 3.88618 3.75858 3.97459C3.9183 4.00268 4.07514 4.02781 4.23195 4.05587C4.56866 4.12979 4.90837 4.19497 5.18521 4.42615ZM5.18521 4.42615C5.18521 4.42615 5.18796 4.42618 5.19065 4.43169L5.19343 4.42898C5.19068 4.42895 5.18793 4.42892 5.18519 4.42889L5.18521 4.42615ZM34.3457 23.0623C34.6332 23.3842 35.0272 23.5494 35.3766 23.7931C35.0899 23.6642 34.8032 23.5382 34.5196 23.4034C34.3806 23.3376 34.2829 23.2254 34.238 23.0728C34.2062 23.0461 34.1745 23.0194 34.1428 22.9928C34.0394 22.8688 33.8217 22.8167 33.8941 22.5806C33.8971 22.5689 33.8161 22.53 33.7756 22.5032C33.7554 22.4855 33.7352 22.4706 33.7151 22.4529L33.7122 22.4499C33.6949 22.4292 33.6748 22.4115 33.6575 22.3908C33.6463 22.3556 33.635 22.3175 33.6238 22.2822C33.6328 22.256 33.6418 22.2298 33.6508 22.2036C33.6685 22.1774 33.6862 22.1542 33.7039 22.1311C33.7274 22.1167 33.7479 22.0994 33.7714 22.0821C33.8007 22.059 33.8301 22.033 33.8829 21.9897C33.8482 21.9689 33.8223 21.9452 33.7904 21.9331C33.2486 21.7254 32.7004 21.5643 32.1161 21.5198C31.5579 21.4785 31.0241 21.3322 30.5444 21.0227C29.5526 20.7281 28.6235 20.2674 27.6645 19.8912C27.2444 19.7257 26.8212 19.5748 26.4071 19.3947C26.216 19.3107 26.0399 19.183 26.0105 18.94C25.8138 18.8296 25.6201 18.7134 25.4205 18.6059C25.3337 18.5611 25.2409 18.5279 25.1512 18.4889C24.0248 18.257 23.4304 18.0662 23.3043 17.8835C23.8502 17.9831 24.3601 18.1877 24.8944 18.2842C24.9457 18.1152 24.827 18.0612 24.7697 17.9729C24.7154 17.8845 24.6728 17.7876 24.6243 17.6934C24.5968 17.5411 24.5723 17.3887 24.5448 17.2363C24.5305 17.2099 24.5163 17.1834 24.502 17.1569C24.4819 17.1362 24.4646 17.1185 24.4445 17.0978C24.4127 17.077 24.378 17.0532 24.3463 17.0294C24.2192 16.9403 24.0804 16.8627 23.968 16.7562C23.8241 16.6171 23.8572 16.5093 24.0529 16.4384C24.1435 16.4043 24.2425 16.3908 24.3359 16.3684C24.3914 16.3456 24.4413 16.3082 24.4966 16.3029C25.3355 16.2069 26.0324 15.7906 26.7009 15.3155C27.1418 14.8964 27.2178 14.3153 27.3748 13.776C27.4474 13.5194 27.4619 13.2476 27.5113 12.985C27.5235 12.9325 27.5676 12.8862 27.5973 12.8368C27.6091 12.8223 27.6209 12.8049 27.6327 12.7904L27.6415 12.7788C27.6563 12.7556 27.674 12.7353 27.6888 12.712C27.7071 12.6304 27.7283 12.5516 27.7466 12.4729C27.7767 12.3826 27.7923 12.2833 27.8397 12.199C28.1156 11.7049 28.2085 11.1766 28.133 10.6143C28.1087 10.4415 28.0496 10.2595 28.1822 10.1002C28.2237 10.0246 28.2538 9.93427 28.3126 9.87351C28.5216 9.65064 28.6407 9.38877 28.7108 9.0971C28.7198 9.07088 28.7288 9.04759 28.7378 9.02137C28.764 8.74092 28.799 8.46056 28.8137 8.17998C28.821 8.03384 28.811 7.88166 28.7835 7.73806C28.7143 7.40098 28.7675 7.32554 29.1053 7.30004C29.1344 7.29744 29.1607 7.28603 29.2249 7.26627C28.5535 6.93129 27.9081 6.6083 27.2628 6.2853C27.5048 6.23242 27.7017 6.32818 27.8956 6.42099C28.3935 6.65754 28.8884 6.89991 29.3863 7.13939C29.4674 7.1783 29.5513 7.21725 29.6384 7.23577C30.3032 7.36889 30.9741 7.48746 31.6389 7.62643C31.8827 7.67885 32.1203 7.77214 32.3611 7.83622C32.6802 7.92165 33.0024 7.99541 33.3216 8.07206C33.4873 8.08559 33.653 8.09621 33.8187 8.10974C34.4196 8.23338 34.9847 8.45021 35.5197 8.75443C35.6643 8.83792 35.7997 8.95932 35.9701 8.80622C36.2604 8.86208 36.5567 8.90631 36.844 8.97676C37.0065 9.01658 37.1568 9.1089 37.3163 9.16331C37.4148 9.19949 37.5221 9.23285 37.6135 9.11689C37.643 9.0792 37.745 9.06278 37.8001 9.08094C38.1133 9.178 38.4205 9.28961 38.7307 9.39833C38.8117 9.43724 38.8928 9.47616 38.9738 9.51508C39.0143 9.536 39.0519 9.55688 39.0924 9.5778C39.3269 9.69153 39.5614 9.80234 39.7929 9.91603C40.1605 10.0985 40.531 10.2751 40.8956 10.4634C41.2428 10.6427 41.5959 10.8134 41.9224 11.0275C42.4945 11.4024 43.043 11.8091 43.6033 12.1955L43.6062 12.1984C44.0943 12.5343 44.5854 12.8614 45.0765 13.1915C45.1545 13.245 45.2353 13.3015 45.3044 13.3695C45.0255 13.3284 44.809 13.1681 44.5866 13.0164C43.6076 12.3388 42.6345 11.6466 41.6406 10.9893C41.291 10.7603 40.8882 10.6125 40.5119 10.427C39.9852 10.1638 39.4556 9.90352 38.9259 9.64029L38.9115 9.63428C38.8709 9.61629 38.8333 9.60125 38.7927 9.58325C38.7724 9.5801 38.752 9.57695 38.7347 9.56506C38.6796 9.5469 38.6245 9.52875 38.5695 9.51059M34.3457 23.0623C34.3166 23.062 34.2876 23.0558 34.2585 23.0555M34.3457 23.0623C34.3168 23.0415 34.2851 23.0207 34.2562 22.9999C34.2562 22.9999 34.2591 22.9999 34.262 22.9999C34.2134 22.9204 34.1648 22.8409 34.1047 22.7438C34.239 22.6985 34.35 22.6588 34.5369 22.5965C34.3779 22.4982 34.2825 22.4416 34.1842 22.382C34.3095 22.3659 34.4348 22.3497 34.563 22.3336C34.5806 22.3162 34.6011 22.3018 34.6188 22.2845M34.6188 22.2845C34.6101 22.2844 34.5984 22.2843 34.5897 22.2842M34.6188 22.2845C34.7047 22.1392 34.5681 22.1231 34.4928 22.093C34.2727 21.9999 34.0436 21.9301 33.8265 21.8283C33.1635 21.5226 32.4637 21.3891 31.7454 21.3548C31.5186 21.3435 31.3155 21.2886 31.1158 21.1958C30.945 21.1149 30.7711 21.0457 30.6003 20.9707C30.5772 20.9558 30.557 20.941 30.5338 20.9261C29.5782 20.509 28.6165 20.1065 27.6668 19.6748C27.1862 19.456 26.679 19.2749 26.2844 18.8962C26.2585 18.8726 26.209 18.872 26.1713 18.8599C25.8797 18.649 25.5583 18.5022 25.2011 18.4426C25.1493 18.3894 25.0917 18.3391 25.0516 18.2801C25.0029 18.2065 24.9894 18.104 24.9289 18.0507C24.7646 17.9055 24.7083 17.7324 24.7308 17.525C24.7326 17.3642 24.7343 17.2034 24.736 17.0396C24.7188 17.016 24.7016 16.9924 24.6873 16.9718C24.6671 16.9511 24.6499 16.9275 24.6298 16.9068C24.6096 16.8891 24.5866 16.8683 24.5664 16.8506C24.5462 16.8328 24.5232 16.8121 24.503 16.7943C24.4828 16.7794 24.4626 16.7617 24.4395 16.7468C24.428 16.735 24.4135 16.729 24.399 16.7259C24.3909 16.6673 24.3798 16.6116 24.3717 16.553C24.3719 16.5326 24.3751 16.5121 24.3782 16.4917C24.4571 16.4575 24.5334 16.3998 24.6179 16.3891C25.3695 16.2921 26.0079 15.9073 26.669 15.5784C26.7363 15.544 26.7893 15.4773 26.851 15.4254L26.8657 15.4139C26.8833 15.3994 26.9009 15.385 26.9185 15.3706C27.3497 15.0449 27.5263 14.5819 27.619 14.0711C27.6369 14.0245 27.652 13.975 27.67 13.9284C27.6761 13.8992 27.6851 13.8701 27.6913 13.838C27.7035 13.7884 27.7156 13.7388 27.7249 13.6863C27.7709 13.4645 27.9128 13.2614 27.8484 13.0209C27.8585 12.8923 27.8599 12.7607 27.8787 12.6352C27.9006 12.4892 27.9197 12.3374 27.9793 12.2064C28.1432 11.8456 28.2461 11.4724 28.259 11.0807C28.268 10.7825 28.2479 10.484 28.2424 10.1827C28.2424 10.1827 28.2573 10.1536 28.2545 10.139C28.2693 10.1158 28.2841 10.0896 28.2989 10.0664C28.3845 9.95034 28.4731 9.83434 28.5587 9.71832C28.5764 9.69512 28.5941 9.67192 28.6118 9.64872C28.6681 9.55576 28.7388 9.46589 28.7807 9.364C28.8733 9.13108 28.9428 8.88912 29.0413 8.65918C29.1935 8.30702 29.2757 7.957 29.1168 7.58383C29.1111 7.56915 29.1259 7.54592 29.1379 7.51096C29.2342 7.49155 29.3477 7.48696 29.4441 7.44709C29.7247 7.32738 29.9917 7.38883 30.2644 7.46789C30.4558 7.52265 30.6471 7.58911 30.8446 7.62347C31.4284 7.7206 32 7.86146 32.5445 8.09561C32.8602 8.23071 33.1912 8.29287 33.5341 8.32884C33.6998 8.3453 33.8711 8.38229 34.0275 8.44544C34.5084 8.64379 34.9803 8.85958 35.4552 9.06955C35.5363 9.10555 35.6173 9.15324 35.7043 9.17467C35.8523 9.21141 35.9947 9.23053 36.1183 9.09153C36.1625 9.04231 36.2588 9.01413 36.3285 9.02368C36.4651 9.04274 36.6044 9.07645 36.7318 9.1305C37.0156 9.25355 37.2905 9.39697 37.5743 9.52587C37.6901 9.5798 37.8202 9.65435 37.9367 9.64394C38.0328 9.63624 38.1242 9.5232 38.2327 9.44544C38.3343 9.46412 38.4533 9.48883 38.5695 9.51059M38.5695 9.51059C38.6247 9.5112 38.677 9.51763 38.7323 9.52117C38.677 9.52056 38.6247 9.51413 38.5695 9.51059ZM17.892 22.3037C17.9299 22.3012 17.9707 22.2987 18.0085 22.2991C18.4305 22.2863 18.8496 22.2704 19.2716 22.2576C19.3705 22.2587 19.4724 22.2598 19.5713 22.2609C19.708 22.2653 19.8447 22.2668 19.9814 22.2684C20.3102 22.2691 20.6419 22.2669 20.9706 22.2706C21.0259 22.2712 21.0809 22.301 21.1359 22.3192C21.1562 22.3253 21.1736 22.3313 21.1939 22.3374C21.2781 22.3529 21.3594 22.3685 21.4436 22.384C21.4989 22.3876 21.557 22.3911 21.6152 22.3918C21.7585 22.329 21.8982 22.3189 22.04 22.3965L22.0458 22.3907C22.104 22.3913 22.1621 22.3978 22.2203 22.3985C22.4939 22.3869 22.7676 22.3724 23.0412 22.3608C22.7724 22.466 22.5094 22.5713 22.2131 22.5271C22.0563 22.5049 21.8963 22.5031 21.7363 22.4925C21.5705 22.4965 21.4016 22.5034 21.2358 22.5045C20.9099 22.5097 20.5839 22.5178 20.2581 22.5142C20.133 22.5157 20.0052 22.4938 19.8773 22.4836C19.5864 22.4804 19.2955 22.4772 19.0046 22.4739C18.8126 22.4718 18.6235 22.4697 18.4315 22.4676C18.2656 22.4657 18.0998 22.4639 17.934 22.4621C17.8613 22.4613 17.7856 22.4604 17.71 22.4596C17.3902 22.4356 17.0675 22.4144 16.7477 22.3904C16.7302 22.3902 16.7099 22.39 16.6925 22.384C16.5123 22.3644 16.3322 22.3419 16.152 22.3224C15.8963 22.2932 15.6405 22.267 15.3848 22.232C14.9839 22.1808 14.5829 22.1295 14.1822 22.0607C13.9121 22.0139 13.6452 21.9378 13.3782 21.8764C13.0385 21.8112 12.7017 21.746 12.362 21.6809C12.0516 21.5955 11.7351 21.5335 11.4396 21.4191C11.2106 21.3318 11.0146 21.16 10.7888 21.0551C10.2938 20.8245 9.78985 20.6054 9.28594 20.3863C8.75306 20.1552 8.22009 19.9329 7.68719 19.7047C7.64952 19.6897 7.61777 19.666 7.58011 19.6509C7.3049 19.5397 7.0208 19.4429 6.75157 19.3171C6.41573 19.1613 6.06485 19.0521 5.70187 18.9867C5.52772 18.9468 5.35355 18.9097 5.17938 18.8727L5.16486 18.8696C5.22905 18.8528 5.29036 18.833 5.35458 18.8132C5.43306 18.82 5.50867 18.8237 5.58428 18.8275C5.63064 18.8455 5.67412 18.8606 5.72051 18.8758C5.75532 18.8849 5.78726 18.8911 5.82211 18.8974C5.96741 18.9136 6.11271 18.9299 6.25801 18.9461C6.49277 19.0306 6.7276 19.1092 6.95939 19.1995C7.80258 19.5247 8.64576 19.8499 9.48894 20.1751C9.52661 20.1901 9.56727 20.1964 9.60497 20.2085C9.67535 20.1567 9.73722 20.0843 9.81611 20.053C10.0937 19.9449 10.3769 19.8457 10.6573 19.7494C10.7011 19.7352 10.7533 19.7504 10.814 19.7833C10.5627 19.8829 10.3086 19.9765 10.0602 20.082C9.9433 20.1304 9.83779 20.2023 9.72659 20.2625C10.1782 20.4752 10.6328 20.682 11.0814 20.9034C11.2145 20.9692 11.3239 21.0815 11.4541 21.1502C11.6913 21.2757 11.9345 21.3895 12.1776 21.5063C12.2182 21.5243 12.2617 21.5394 12.3051 21.5574C12.3255 21.5576 12.34 21.5607 12.3573 21.5697C12.4182 21.5879 12.4821 21.6062 12.543 21.6244C12.5807 21.6277 12.6185 21.6311 12.6563 21.6344C12.9349 21.6989 13.2136 21.7634 13.4922 21.8279C13.5822 21.8406 13.6694 21.8504 13.7566 21.863C14.1081 21.9137 14.4625 21.9674 14.814 22.018C14.8633 22.0274 14.9158 22.0162 14.9622 22.0314C15.339 22.1701 15.7405 22.1628 16.1327 22.2228C16.1617 22.226 16.1848 22.2497 16.2108 22.2646C16.7693 22.2766 17.3306 22.2916 17.892 22.3037ZM17.892 22.3037C17.8919 22.3183 17.8888 22.3329 17.8858 22.3475C17.8858 22.3475 17.889 22.3183 17.892 22.3037ZM18.2528 5.1355C18.2524 5.17059 18.252 5.20568 18.2517 5.24077C18.2601 5.26426 18.2657 5.28771 18.2742 5.3112C18.2825 5.34931 18.2937 5.39038 18.3049 5.42852C18.3105 5.44905 18.3191 5.46962 18.3247 5.49015C18.339 5.50786 18.3504 5.52845 18.3648 5.54616C18.3789 5.58726 18.3959 5.63131 18.41 5.67241C18.4185 5.69005 18.4242 5.70474 18.424 5.72521C18.7107 6.11733 18.6623 6.56423 18.6372 7.00554C18.6122 7.44685 18.529 7.87582 18.3587 8.29505C18.2303 8.60946 18.1887 8.957 18.0834 9.28337C18.0021 9.53982 17.8802 9.78412 17.7787 10.0316C17.7429 10.1072 17.7101 10.1858 17.6744 10.2614C17.6655 10.2789 17.6536 10.2992 17.6447 10.3167L17.6447 10.3196C17.6268 10.3574 17.606 10.3981 17.5852 10.4359C17.5584 10.497 17.5315 10.5581 17.5047 10.6193C17.4928 10.6454 17.4838 10.6687 17.4719 10.692C17.4089 10.8726 17.3517 11.0562 17.28 11.2309C17.2173 11.3793 17.094 11.4774 16.9707 11.5842C16.7299 11.7892 16.5179 12.0296 16.3145 12.2759C16.0345 12.615 15.7776 12.9718 15.5091 13.3198C15.1869 13.7899 14.7156 14.0655 14.2298 14.3233C14.1567 14.3634 14.0835 14.4035 14.0103 14.4437C14.1542 14.3254 14.2865 14.1981 14.4388 14.0975C14.808 13.853 15.1196 13.5523 15.3968 13.2074C15.7555 12.5855 16.1142 11.9637 16.6518 11.4754C16.6426 11.2501 16.4574 11.1545 16.3279 11.0185C16.3628 11.0219 16.4006 11.0252 16.4355 11.0285C16.5537 11.1293 16.6719 11.23 16.7901 11.3307C16.9718 11.2129 17.0668 11.0326 17.1677 10.8436C17.331 10.5354 17.5319 10.2511 17.7155 9.95483C17.9117 9.56513 17.9831 9.13604 18.0836 8.71604C18.1262 8.54104 18.1776 8.36322 18.2521 8.20028C18.526 7.61259 18.5211 6.98378 18.5074 6.36073C18.5034 6.18815 18.4121 6.01752 18.3616 5.84442C18.3501 5.83259 18.3502 5.81797 18.3504 5.80043C18.3391 5.77398 18.3277 5.75046 18.3163 5.72401C18.1051 5.0666 17.894 4.40919 17.6857 3.75181C17.6322 3.57868 17.5963 3.40281 17.5516 3.22685C17.5375 3.18575 17.5263 3.14761 17.5121 3.10944C17.5065 3.0889 17.4981 3.06541 17.4925 3.04488C17.4839 3.03309 17.4723 3.02126 17.4667 3.00658C17.4638 3.00362 17.4726 2.99495 17.4756 2.98621C17.4674 2.9364 17.4592 2.88952 17.451 2.83971C17.3823 2.73952 17.3803 2.64884 17.4917 2.57404C17.7855 2.30533 18.0448 1.99529 18.4048 1.80042C18.6272 1.68007 18.8437 1.56841 19.1 1.54201C19.3884 1.51012 19.6768 1.47238 19.9652 1.43756C20.3326 1.35975 20.6962 1.36671 21.059 1.44969C21.3177 1.47888 21.5763 1.50514 21.835 1.53433C22.0764 1.53993 22.3208 1.54264 22.5622 1.54532C23.0863 1.51312 23.613 1.50434 24.1233 1.66792C24.1784 1.68607 24.2396 1.67798 24.3006 1.68158C24.4226 1.70048 24.5446 1.71938 24.6666 1.73828C24.9452 1.80278 25.2268 1.86732 25.5054 1.93182C25.6128 1.95641 25.7232 1.96933 25.8276 2.00266C27.0223 2.37269 28.226 2.72527 29.4116 3.13029C30.7683 3.59277 32.1161 4.07855 33.4069 4.71577C33.8641 4.9431 34.3631 5.08023 34.8323 5.28137C35.8026 5.69278 36.7848 6.07508 37.6837 6.63484C38.3051 7.0219 38.9412 7.38866 39.5449 7.80185C40.0331 8.1348 40.4857 8.51999 40.9532 8.88196C41.331 9.19321 41.7059 9.50736 42.0896 9.81283C42.9666 10.5127 43.8495 11.2068 44.7295 11.9009C44.7555 11.9187 44.7815 11.9307 44.8046 11.9514C45.5512 12.6031 46.4403 12.9814 47.3621 13.3046C47.7766 13.4495 48.1867 13.4658 48.6033 13.4119C48.8539 13.3767 49.148 13.3536 49.1351 12.9265C49.2186 13.0035 49.259 13.039 49.2964 13.0745L49.2877 13.0744C50.1562 13.4818 51.0486 13.8309 52.0238 14.0581C51.9208 14.1594 51.8341 14.1116 51.7586 14.0961C51.0416 13.9449 50.3576 13.6917 49.6918 13.3801C49.5702 13.3232 49.4306 13.3129 49.2971 13.2822C49.2721 13.4427 49.1636 13.5234 49.0206 13.5657C48.9272 13.5939 48.8281 13.6133 48.7318 13.6385C48.4081 13.7051 48.0851 13.7132 47.766 13.6249C46.8153 13.2897 45.8436 13.0099 45.036 12.3459C44.2775 11.7233 43.4777 11.1471 42.7074 10.5391C42.3237 10.2336 41.9607 9.89913 41.5888 9.57917C41.3379 9.36291 41.09 9.14667 40.8392 8.93041C40.7324 8.85611 40.6225 8.79056 40.5216 8.70755C39.9937 8.27474 39.4482 7.87096 38.8554 7.52808C38.1267 7.10766 37.4306 6.62618 36.6782 6.25228C35.8186 5.82748 34.9144 5.49284 34.0311 5.11457C33.5792 4.92239 33.1304 4.72148 32.6815 4.52641C31.2364 3.90211 29.7671 3.35357 28.25 2.92732C27.577 2.73854 26.9103 2.51474 26.2493 2.28515C25.4116 1.99219 24.5461 1.85392 23.6685 1.75645C23.622 1.75301 23.5727 1.73784 23.5233 1.72852C23.3197 1.72334 23.119 1.71819 22.9154 1.71593C22.8687 1.72126 22.825 1.72663 22.7813 1.73199C22.3266 1.81468 21.8757 1.80675 21.4257 1.71695C21.3821 1.71355 21.3385 1.70721 21.2949 1.70381C20.8324 1.69575 20.3669 1.69059 19.9044 1.68546C19.7558 1.70721 19.6098 1.74945 19.4615 1.74781C18.9902 1.73966 18.598 1.95756 18.2058 2.17839C17.9921 2.29885 17.8737 2.49347 17.7754 2.70294C17.7486 2.75821 17.7594 2.83728 17.7733 2.90178C17.9285 3.62875 18.0837 4.3528 18.2389 5.07686C18.2474 5.09157 18.256 5.10337 18.2617 5.11513C18.2646 5.12101 18.2558 5.12968 18.2528 5.1355ZM18.2528 5.1355C18.2471 5.12666 18.2443 5.11786 18.2414 5.10905C18.2413 5.11783 18.2471 5.12666 18.2528 5.1355ZM13.9986 14.449C13.9986 14.449 14.0071 14.4406 14.01 14.4378C14.0043 14.4377 13.9986 14.4433 13.9958 14.4461L13.9986 14.449ZM13.9986 14.449C13.9898 14.4548 13.9782 14.4608 13.9694 14.4666C13.9811 14.4609 13.9899 14.4551 14.0016 14.4494L13.9986 14.449ZM2.87716 18.6776C2.95862 18.6785 3.04007 18.6794 3.12153 18.6803C3.13901 18.6775 3.15647 18.6777 3.17386 18.6838C3.73826 18.6871 4.30276 18.6817 4.867 18.6996L4.87001 18.6909C5.02998 18.6956 5.19214 18.7676 5.3517 18.8103C5.28751 18.8271 5.22621 18.8469 5.16199 18.8667C4.82456 18.86 4.48425 18.8504 4.14683 18.8437C3.74243 18.8421 3.33509 18.8435 2.93069 18.8419M2.87716 18.6776C2.83622 18.6976 2.79527 18.7176 2.75435 18.7347C2.7953 18.7147 2.83625 18.6947 2.87716 18.6776ZM2.87716 18.6776C2.83637 18.683 2.79555 18.6913 2.75476 18.6967C2.60151 18.6072 2.70974 18.5529 2.78873 18.5128C2.92327 18.447 3.06641 18.3931 3.20376 18.3361C3.19522 18.3185 3.18668 18.3008 3.17814 18.2832C2.73129 18.442 2.30441 18.639 1.90877 18.9066C1.80655 18.9435 1.70141 18.9804 1.59919 19.0172C1.58486 18.9966 1.57053 18.976 1.55621 18.9553C1.61229 18.8799 1.65687 18.7927 1.72443 18.732C1.89769 18.5819 2.07671 18.4377 2.26139 18.3081C2.6366 18.0461 3.02904 17.8048 3.39274 17.5311C3.55405 17.41 3.66951 17.2241 3.80501 17.0677C4.04668 16.778 4.28259 16.4823 4.5329 16.2014C4.64479 16.0769 4.77691 15.9643 4.91464 15.8722C5.26045 15.6392 5.61773 15.4209 6.03192 15.3231L6.04359 15.3204C6.10196 15.3035 6.16033 15.2866 6.2187 15.2697C6.24203 15.2641 6.2654 15.2556 6.28583 15.2499C6.58603 15.2006 6.88335 15.1484 7.18355 15.099C7.20395 15.0963 7.22728 15.0908 7.24768 15.0881L7.2738 15.0942L7.30001 15.0916C7.4805 15.0819 7.6639 15.0722 7.84436 15.0654M7.84436 15.0654C7.66694 15.0605 7.48663 15.0527 7.30921 15.0478M7.84436 15.0654C8.07168 15.0299 8.30178 15.0062 8.52344 14.956C8.76549 14.9031 8.99634 14.8092 9.23829 14.7651C9.93504 14.6353 10.6263 14.4734 11.3421 14.4726C11.5166 14.4774 11.6882 14.4764 11.8407 14.3699C11.7857 14.34 11.7306 14.3277 11.6782 14.3301C11.3813 14.3385 11.0815 14.3468 10.7846 14.3611C10.7089 14.3661 10.633 14.3887 10.5543 14.4053C10.4786 14.4103 10.4058 14.4125 10.3301 14.4175C10.1235 14.4269 9.91968 14.4392 9.71301 14.4486C9.61106 14.4592 9.51199 14.4727 9.35762 14.4886C9.44052 14.355 9.48787 14.2794 9.53232 14.2039C9.71609 13.8872 9.85359 13.5436 9.84298 13.175C9.8262 12.5666 9.73381 11.9543 9.44855 11.4219C9.04917 10.6775 8.71998 9.89892 8.25041 9.18893C7.62621 8.24619 6.89613 7.41049 5.9366 6.80911C5.58112 6.58584 5.19302 6.42069 4.81977 6.22646C4.77632 6.20843 4.73578 6.19044 4.69233 6.17241C4.63146 6.15126 4.57349 6.13015 4.51262 6.109C4.49814 6.10299 4.48074 6.09695 4.46329 6.09676C4.23187 5.97137 4.21736 5.96828 3.98125 6.00953C4.14644 6.06985 4.27104 6.11802 4.39566 6.16327C4.77438 6.38973 5.15902 6.60748 5.52886 6.84846C6.3957 7.41078 7.14176 8.11215 7.78488 8.91765C8.33328 9.60219 8.71174 10.3989 9.14296 11.1582C9.14869 11.167 9.1515 11.1758 9.15432 11.1846C9.19946 11.3167 9.15492 11.401 9.01803 11.4142C8.63068 11.4508 8.28572 11.6049 7.94345 11.7795C7.91711 11.7938 7.89371 11.8053 7.86737 11.8196C7.84992 11.8194 7.83531 11.8251 7.82067 11.8337C7.77976 11.8508 7.73593 11.8678 7.69505 11.882L7.68923 11.8819C7.39131 11.9898 7.08486 12.08 6.79548 12.2054C6.45643 12.3508 6.13443 12.5344 5.79822 12.6857C5.59359 12.777 5.41197 12.8919 5.28197 13.0777C5.28182 13.0923 5.28166 13.1069 5.2786 13.1215C5.48351 13.0039 5.68562 12.8774 5.89623 12.7716C6.0542 12.6914 6.23791 12.6525 6.39015 12.5635C6.84097 12.3053 7.29741 12.0648 7.81911 11.9799C7.8366 11.9772 7.85133 11.9598 7.86891 11.9483C7.92725 11.9343 7.98565 11.9145 8.04393 11.9063C8.42568 11.8492 8.7967 11.7071 9.19209 11.7348C9.35199 11.7454 9.44165 11.7961 9.49517 11.9605C9.77128 12.8058 9.6086 13.5994 9.23375 14.3731C9.17128 14.5011 9.05749 14.532 8.94087 14.5541C8.59972 14.6234 8.25576 14.684 7.91176 14.7474C7.70791 14.7656 7.50405 14.7838 7.30019 14.802C7.20113 14.8156 7.10206 14.8291 7.00299 14.8426C6.8835 14.8618 6.76692 14.8809 6.64743 14.9001L6.64161 14.9C6.58033 14.9169 6.51905 14.9338 6.46065 14.9536C6.41973 14.9707 6.37879 14.9907 6.33787 15.0078C6.29693 15.0278 6.25307 15.0478 6.21212 15.0678C6.19467 15.0676 6.17715 15.0733 6.16248 15.0848C6.12448 15.1019 6.08356 15.119 6.04556 15.1361L6.04265 15.1361C5.66662 15.2021 5.37036 15.4269 5.05412 15.6164C4.49188 15.9553 4.0996 16.4539 3.73607 16.9851C3.71839 17.0053 3.70072 17.0256 3.68305 17.0459C3.59202 17.1238 3.50672 17.2106 3.40421 17.2738C3.01749 17.524 2.63077 17.7741 2.23545 18.0124C1.73177 18.3168 1.33774 18.7073 1.13962 19.2783C1.08854 19.4298 1.13415 19.518 1.29721 19.5052C1.4341 19.4921 1.57699 19.4615 1.70271 19.4044C2.11486 19.2247 2.52135 19.0304 2.93069 18.8419M2.93069 18.8419C2.94817 18.8392 2.96278 18.8335 2.9803 18.8278C2.96278 18.8335 2.9482 18.8363 2.93069 18.8419ZM15.8934 10.2972C15.6424 10.0985 15.3796 9.91722 15.1197 9.7301C15.0215 9.65883 14.9293 9.57885 14.8252 9.52213C14.212 9.18487 13.6018 8.83594 12.9767 8.52194C12.2156 8.13625 11.4604 7.7477 10.7645 7.25161C10.6576 7.17731 10.5389 7.12336 10.4291 7.05195C10.2125 6.90918 9.9693 6.79243 9.7879 6.61495C9.16305 6.00559 8.36635 5.68676 7.62298 5.27787C7.56515 5.24506 7.48948 5.24715 7.41978 5.23468C7.3967 5.21688 7.37361 5.19907 7.35344 5.1813C7.11285 5.09675 6.87515 5.01515 6.63456 4.9306C6.53315 4.89146 6.43468 4.84943 6.33326 4.81028C6.17113 4.73538 6.00897 4.66339 5.84684 4.58848C5.68824 4.45512 5.49621 4.45592 5.30721 4.44505C5.26939 4.44463 5.23451 4.44132 5.19673 4.43797C5.23135 4.46468 5.2631 4.48843 5.29773 4.51513C5.48076 4.54056 5.66378 4.56598 5.84678 4.59433C5.97403 4.66593 6.09837 4.73749 6.22563 4.80909C6.34431 4.86597 6.46593 4.91996 6.58461 4.97684C6.8017 5.0816 7.01882 5.18344 7.23592 5.2882C7.32566 5.33014 7.42132 5.36337 7.50515 5.41401C7.85491 5.62845 8.20764 5.83707 8.54554 6.07185C8.89789 6.31556 9.23539 6.58835 9.5818 6.84369C9.7983 7.00401 10.0207 7.15855 10.246 7.30727C10.4223 7.42328 10.6074 7.52476 10.7866 7.63495C11.0583 7.80173 11.321 7.99473 11.6046 8.13825C12.5365 8.6048 13.4773 9.05097 14.4092 9.51459C14.632 9.62526 14.8429 9.76505 15.048 9.90477C15.3051 10.0772 15.5504 10.2671 15.8075 10.4396C15.9519 10.5377 16.076 10.6385 16.1381 10.8147C16.1663 10.8969 16.2616 10.9593 16.3278 11.0302C16.3627 11.0336 16.4005 11.0369 16.4353 11.0402C16.3611 10.9107 16.2985 10.7755 16.2096 10.6575C16.1149 10.5307 16.0115 10.4097 15.8903 10.3118L15.8934 10.2972ZM23.521 1.67293C23.7826 1.69338 24.0442 1.71383 24.303 1.73425C24.0413 1.7138 23.7797 1.69335 23.521 1.67293ZM23.7647 12.3673C24.1453 12.4154 24.5259 12.4635 24.9067 12.5028C25.2438 12.5358 25.5811 12.5571 25.9183 12.5842C25.9793 12.5878 26.0435 12.5768 26.0986 12.595C26.4755 12.7161 26.8495 12.5653 27.2219 12.5723C27.2393 12.5725 27.2543 12.5347 27.3014 12.4767C26.0601 12.656 24.8821 12.3475 23.6894 12.3372C23.7154 12.3492 23.7385 12.367 23.7647 12.3702L23.7647 12.3673ZM22.704 13.0691C22.9474 13.1625 23.1908 13.2558 23.4458 13.3522C23.3897 13.4276 23.3483 13.4857 23.3099 13.5408C23.3185 13.5584 23.327 13.5732 23.3356 13.5908C23.4376 13.5685 23.5397 13.5463 23.6418 13.524C23.729 13.525 23.8191 13.5348 23.9065 13.527C23.9793 13.519 24.0147 13.4755 23.9368 13.4162C24.0477 13.3794 24.1558 13.3396 24.2989 13.2915C23.7472 13.1889 23.2361 13.0926 22.728 12.9992C22.7219 13.0254 22.7129 13.0517 22.7068 13.0779L22.704 13.0691ZM6.47004 16.799C6.75432 16.6062 7.0386 16.4134 7.30529 16.2321C6.91656 16.1255 6.51558 16.3491 6.47004 16.799ZM26.6484 23.2313C26.5206 23.2094 26.355 23.1813 26.1895 23.1531C25.9626 23.1477 25.7358 23.1393 25.5118 23.1339C25.3166 23.161 25.4001 22.9718 25.3374 22.8454C25.2861 23.0203 25.1367 23.1151 25.2455 23.283C25.3328 23.2782 25.4201 23.2733 25.5104 23.2684C25.8158 23.2718 26.1241 23.2811 26.4296 23.2874C26.4873 23.329 26.5945 23.3682 26.5999 23.4121C26.6151 23.6228 26.7462 23.6038 26.9036 23.5822C26.6534 23.5823 26.7897 23.347 26.6513 23.2284L26.6484 23.2313ZM28.4753 21.8859C28.1704 21.8357 27.8655 21.7797 27.5575 21.7412C27.3483 21.7155 27.1586 21.7719 27.0343 21.9664C26.9306 22.1378 26.7822 22.1449 26.6021 22.1137C26.1259 22.0295 25.6436 21.9656 25.1643 21.893C25.0655 21.8832 24.9666 21.8733 24.8824 21.8636C24.8865 22.0186 24.8882 22.1327 24.8958 22.2439C24.9084 22.4254 25.0648 22.4944 25.2521 22.3912C25.2327 22.3003 25.2104 22.2035 25.1882 22.1097C25.1593 22.0889 25.1304 22.0652 25.0409 21.9999C25.1571 22.0187 25.2065 22.0251 25.253 22.0315C25.3634 22.0415 25.4768 22.0515 25.5873 22.0615C25.909 22.1733 26.2279 22.285 26.5496 22.3968C26.6915 22.4598 26.8336 22.5052 26.9715 22.3927C27.0138 22.2528 27.056 22.11 27.0983 21.9701C27.3205 21.8614 27.5449 21.8317 27.7944 21.893C28.1224 21.9726 28.4623 22.0144 28.7963 22.0708C28.8573 22.0802 28.9185 22.0721 28.9825 22.0728C28.9856 22.0524 28.9917 22.032 28.9948 22.0116C28.9369 21.9875 28.8819 21.9547 28.8239 21.9424C28.7077 21.9177 28.5886 21.9018 28.4695 21.8829L28.4753 21.8859ZM6.0103 15.1679C5.98978 15.1823 5.96632 15.1996 5.94286 15.2169C5.96632 15.1996 5.98975 15.1852 6.0103 15.1679ZM2.47548 18.6936C2.47548 18.6936 2.48712 18.6937 2.49294 18.6938C2.48991 18.7054 2.48687 18.7171 2.48384 18.7288C2.47808 18.7228 2.46942 18.7169 2.46657 18.711C2.4666 18.7081 2.47251 18.6994 2.47548 18.6936ZM18.1493 20.0109C17.6294 19.9261 17.1156 19.8181 16.5864 19.783C17.0877 19.9728 17.6045 20.0779 18.1493 20.0109ZM22.7037 20.7252C21.5298 20.5865 20.3558 20.4477 19.179 20.3089C20.081 20.5704 21.0051 20.6771 21.9352 20.7635C21.9729 20.7785 22.0075 20.8023 22.0453 20.8057C22.6123 20.8383 23.1764 20.8679 23.7434 20.8976C23.7813 20.898 23.8192 20.8838 23.8572 20.8755C23.8574 20.8521 23.8547 20.8316 23.8521 20.8081C23.4683 20.7805 23.0845 20.7528 22.7037 20.7252ZM25.0793 9.14163C25.4234 9.33846 26.2144 9.37648 26.4227 9.21502C25.9836 9.18968 25.5591 9.16743 25.0793 9.14163ZM13.9665 14.4636C13.6564 14.6181 13.355 14.7815 13.1493 14.9722C13.3865 14.8257 13.6765 14.6447 13.9665 14.4636ZM4.60666 13.6521C4.52746 13.7127 4.45402 13.7791 4.37197 13.8338C4.15807 13.9747 3.94133 14.1097 3.72456 14.2477C3.76938 14.1371 3.8229 14.0294 3.85612 13.9158C3.91342 13.7263 3.99402 13.5342 4.00481 13.3413C4.02707 12.8912 4.01443 12.4407 4.01923 11.9904C4.00178 11.9902 3.98439 11.9841 3.9699 11.9781C3.94076 12.2556 3.91449 12.5361 3.88825 12.8136C3.85216 13.1963 3.76968 13.5639 3.57406 13.9009C3.50296 14.0201 3.44628 14.151 3.37809 14.2702C3.32473 14.3632 3.32682 14.4392 3.41629 14.5075C3.4512 14.5079 3.48611 14.5082 3.52102 14.5086L3.52684 14.5087C3.64063 14.4778 3.78027 14.4793 3.86245 14.413C4.12367 14.1995 4.36481 13.9594 4.61455 13.7312C4.8378 13.5319 5.06395 13.3326 5.28723 13.1303C5.28739 13.1157 5.29045 13.1011 5.29061 13.0865C5.06454 13.277 4.83851 13.4646 4.61536 13.6551L4.60666 13.6521ZM7.88053 16.5836C8.01456 16.5646 8.14572 16.5427 8.27976 16.5237C8.04769 16.4597 7.81852 16.3958 7.56033 16.3256C7.62543 16.496 7.76181 16.5296 7.88053 16.5836ZM8.3544 16.6181C8.50574 16.6139 8.67381 16.6772 8.87032 16.5302C8.63177 16.5276 8.45431 16.5256 8.27685 16.5237C8.14282 16.5426 8.01165 16.5646 7.87762 16.5836C8.03458 16.597 8.19434 16.6222 8.35149 16.6181L8.3544 16.6181ZM3.85258 11.2487C3.85258 11.2487 3.82349 11.2483 3.80895 11.2482C3.86166 11.4886 3.91434 11.7319 3.96706 11.9723C3.98154 11.9783 3.99893 11.9843 4.01639 11.9845C4.05123 11.7188 4.02776 11.4641 3.85261 11.2457L3.85258 11.2487ZM7.30595 14.808C7.50981 14.7897 7.71366 14.7715 7.91752 14.7533C7.71376 14.7628 7.50705 14.7751 7.30329 14.7845C7.20413 14.8068 7.10788 14.8292 7.00872 14.8515C7.10779 14.8379 7.20685 14.8244 7.30592 14.8109L7.30595 14.808ZM3.68723 10.931C3.72974 11.0367 3.76934 11.1425 3.81182 11.2511C3.82637 11.2513 3.84092 11.2515 3.85546 11.2516C3.85974 11.123 3.8319 11.0057 3.75144 10.9112C3.73102 10.9169 3.71056 10.9254 3.69013 10.931L3.68723 10.931ZM5.19101 4.42877C5.19101 4.42877 5.1965 4.42883 5.19925 4.42886C5.19925 4.42886 5.19653 4.42609 5.19381 4.42332L5.19103 4.42603L5.19101 4.42877ZM3.86601 5.90297C3.86601 5.90297 3.85146 5.90281 3.84564 5.90274C3.8514 5.90866 3.85425 5.91454 3.86291 5.92048C3.86582 5.92051 3.87455 5.92061 3.87746 5.92064C3.87461 5.91476 3.87179 5.90596 3.86601 5.90297Z" stroke="#5c463e" stroke-width="0.8"/>
</svg>
