<svg width="82" height="96" viewBox="0 0 82 96" fill="none" xmlns="http://www.w3.org/2000/svg">
<path d="M69.0036 0.252012C69.1064 0.252012 69.2119 0.2357 69.311 0.254797C70.0216 0.392454 70.7318 0.34312 71.4428 0.260764C72.0777 0.187559 72.7135 0.117537 73.3488 0.0459236C73.4427 0.0351815 73.5361 0.0228482 73.6295 0.0136975C73.9276 -0.0153458 74.2151 -0.00699142 74.4974 0.12629C74.8371 0.286625 75.1922 0.414734 75.5392 0.560348C75.7063 0.630371 75.8741 0.630769 76.0529 0.616446C76.2296 0.602123 76.4104 0.633554 76.5895 0.644296C76.6486 0.647877 76.7076 0.649468 76.7667 0.652651C76.8528 0.657027 76.9434 0.646286 77.0247 0.668168C77.3183 0.747738 77.3806 0.8476 77.3337 1.16549C77.5836 1.22397 77.836 1.28603 78.09 1.34213C78.2938 1.38709 78.4972 1.44159 78.7043 1.46189C79.1746 1.50724 79.5204 1.75829 79.812 2.09169C80.5821 2.97214 81.2647 3.91824 81.9405 4.8695C81.9628 4.90054 81.9729 4.93992 82 5C81.9482 4.99005 81.9151 4.99244 81.8924 4.97812C81.5725 4.77521 81.2498 4.57589 80.9359 4.36423C80.4438 4.03242 79.9572 3.69345 79.4695 3.35527C79.2778 3.22199 79.1006 3.06444 78.898 2.95145C78.5959 2.78276 78.2784 2.64113 77.965 2.49312C77.7782 2.4048 77.5925 2.30772 77.396 2.24805C77.089 2.15495 76.7735 2.08811 76.4605 2.0149C76.41 2.00297 76.3525 2.00774 76.3008 2.01689C75.9962 2.07259 75.6945 2.145 75.388 2.18638C75.1033 2.22497 74.8125 2.2198 74.5273 2.2572C74.3793 2.27669 74.239 2.35069 74.093 2.39167C73.9345 2.43663 73.7735 2.47204 73.6056 2.51302C73.5745 2.404 73.5535 2.33 73.5256 2.23293C73.177 2.3682 72.9836 2.15614 72.7891 1.92936C72.8591 1.79648 72.9897 1.80643 73.105 1.79051C73.4451 1.74357 73.7897 1.71214 74.0893 1.52435C74.167 1.47581 74.2382 1.41772 74.3057 1.36919C74.2839 1.23511 74.2208 1.1631 74.1108 1.14241C73.7885 1.08154 73.5001 0.942687 73.2182 0.784739C72.9565 0.638328 72.6702 0.58064 72.3697 0.572285C71.9734 0.561543 71.5774 0.538865 71.1815 0.526134C70.773 0.513004 70.3641 0.506638 69.9557 0.496692C69.6248 0.488734 69.3126 0.395637 69 0.306916C69.0012 0.289012 69.0024 0.271109 69.0036 0.253603V0.252012Z" fill="#5c463e"/>
<path d="M8.21219 40.1465C8.75451 40.1794 9.33673 40.1988 9.91452 40.2563C10.2879 40.2933 10.6534 40.3952 11.0253 40.4512C11.3942 40.5067 11.7582 40.453 12.1104 40.3433C12.3069 40.2822 12.4961 40.1998 12.7079 40.1197C12.7833 40.1336 12.8897 40.1535 13 40.1738C12.9823 40.4655 12.7153 40.7026 12.3345 40.7276C12.1469 40.7401 11.9572 40.735 11.7686 40.7299C11.1351 40.7118 10.515 40.7896 9.89334 40.9026C9.3584 40.9998 8.81263 41.0656 8.26883 41.0952C7.6541 41.1286 7.07385 41.2374 6.53153 41.5198C6.29558 41.6429 6.03797 41.7286 5.79808 41.8457C5.71976 41.8842 5.64391 41.9582 5.60647 42.0333C5.51288 42.2212 5.439 42.4185 5.36215 42.6134C5.27645 42.8319 5.1272 42.9639 4.86613 42.9491C4.6962 42.9393 4.52577 42.9116 4.35632 42.9167C4.24697 42.9199 4.1386 42.9681 4.01349 43C4.00068 42.9634 3.9795 42.9014 3.95536 42.8305C3.49579 42.8333 3.6682 42.5176 3.66524 42.299C3.48644 42.3203 3.32733 42.3462 3.16676 42.356C3.04066 42.3634 2.94854 42.3111 2.91062 42.1847C2.89682 42.1379 2.85643 42.0958 2.82097 42.0573C2.61754 41.836 2.53577 41.574 2.49932 41.2878C2.47617 41.1049 2.57173 41.0517 2.73033 41.0387C2.90175 41.0248 3.07415 41.0202 3.24557 41.0063C3.65342 40.9734 4.06225 40.9457 4.46863 40.8998C4.73166 40.8702 4.73363 40.8327 4.65925 40.5924C4.62477 40.4817 4.65334 40.3535 4.65334 40.2215C4.60211 40.2475 4.54301 40.2776 4.48488 40.3067C4.45533 40.2942 4.42528 40.2905 4.41247 40.2748C4.11397 39.9025 3.79429 39.5428 3.6012 39.1057C3.3559 39.021 3.37955 38.7793 3.27019 38.6158C3.07711 38.3269 2.88205 38.0376 2.61852 37.7926C2.48503 37.6685 2.40918 37.4889 2.30968 37.3333C2.20624 37.1717 2.11413 37.0032 2.00083 36.8481C1.85405 36.6467 1.68608 36.4592 1.53683 36.2592C1.45506 36.1494 1.39497 36.0254 1.32207 35.9091C1.12405 35.5934 0.927023 35.2771 0.724575 34.9642C0.67384 34.8859 0.599955 34.8206 0.545279 34.7442C0.474841 34.6461 0.394059 34.566 0.411299 34.4155C0.422628 34.316 0.298499 34.203 0.236928 34.0951C0.203925 34.0368 0.174863 33.9766 0.126099 33.8826C0.217225 33.8932 0.266974 33.8988 0.318202 33.9048C0.317217 33.8914 0.321158 33.8761 0.315247 33.8655C0.262049 33.7701 0.195552 33.6789 0.155653 33.5789C0.122158 33.4946 -0.0172404 33.4201 0.119695 33.2978C0.143339 33.2765 0.0428539 33.1325 0 33.045C0.144817 32.9381 0.201463 33.0464 0.269438 33.1149C0.740338 33.5867 1.18316 34.0877 1.68756 34.5252C2.42297 35.1623 3.19483 35.7628 3.9662 36.3615C4.45779 36.743 4.88534 37.1653 5.2267 37.6769C5.57938 38.2056 5.97689 38.7075 6.36159 39.2168C6.52906 39.4381 6.71575 39.6465 7.0172 39.7145C7.16153 39.747 7.29797 39.7632 7.4418 39.6784C7.62405 39.571 8.0191 39.6307 8.14224 39.7937C8.20381 39.8752 8.18756 40.0086 8.21169 40.147L8.21219 40.1465Z" fill="#5c463e"/>
<path d="M32.5781 94.5733C32.286 94.5897 31.9725 94.5994 31.6614 94.6281C31.4604 94.6466 31.2636 94.6976 31.0633 94.7256C30.8647 94.7534 30.6686 94.7265 30.479 94.6717C30.3732 94.6411 30.2713 94.5999 30.1573 94.5598C30.1167 94.5668 30.0594 94.5767 30 94.5869C30.0095 94.7328 30.1533 94.8513 30.3583 94.8638C30.4594 94.87 30.5615 94.8675 30.6631 94.865C31.0042 94.8559 31.3381 94.8948 31.6728 94.9513C31.9609 94.9999 32.2547 95.0328 32.5476 95.0476C32.8786 95.0643 33.191 95.1187 33.483 95.2599C33.6101 95.3215 33.7488 95.3643 33.878 95.4229C33.9201 95.4421 33.961 95.4791 33.9811 95.5166C34.0315 95.6106 34.0713 95.7092 34.1127 95.8067C34.1588 95.916 34.2392 95.9819 34.3798 95.9745C34.4713 95.9697 34.563 95.9558 34.6543 95.9583C34.7132 95.96 34.7715 95.984 34.8389 96C34.8458 95.9817 34.8572 95.9507 34.8702 95.9153C35.1176 95.9167 35.0248 95.7588 35.0264 95.6495C35.1227 95.6602 35.2084 95.6731 35.2948 95.678C35.3627 95.6817 35.4123 95.6555 35.4327 95.5923C35.4402 95.5689 35.4619 95.5479 35.481 95.5287C35.5906 95.418 35.6346 95.287 35.6542 95.1439C35.6667 95.0525 35.6152 95.0258 35.5298 95.0194C35.4375 95.0124 35.3447 95.0101 35.2524 95.0032C35.0328 94.9867 34.8126 94.9728 34.5938 94.9499C34.4522 94.9351 34.4511 94.9163 34.4912 94.7962C34.5097 94.7409 34.4944 94.6767 34.4944 94.6108C34.5219 94.6237 34.5538 94.6388 34.5851 94.6534C34.601 94.6471 34.6172 94.6453 34.6241 94.6374C34.7848 94.4513 34.9569 94.2714 35.0609 94.0529C35.193 94.0105 35.1802 93.8896 35.2391 93.8079C35.3431 93.6635 35.4481 93.5188 35.59 93.3963C35.6619 93.3343 35.7028 93.2445 35.7563 93.1667C35.812 93.0859 35.8616 93.0016 35.9226 92.9241C36.0017 92.8234 36.0921 92.7296 36.1725 92.6296C36.2165 92.5747 36.2489 92.5127 36.2881 92.4546C36.3947 92.2967 36.5008 92.1386 36.6098 91.9821C36.6372 91.943 36.6769 91.9103 36.7064 91.8721C36.7443 91.823 36.7878 91.783 36.7785 91.7078C36.7724 91.658 36.8393 91.6015 36.8724 91.5476C36.8902 91.5184 36.9058 91.4883 36.9321 91.4413C36.883 91.4466 36.8562 91.4494 36.8287 91.4524C36.8292 91.4457 36.8271 91.4381 36.8303 91.4327C36.8589 91.385 36.8947 91.3394 36.9162 91.2894C36.9342 91.2473 37.0093 91.21 36.9355 91.1489C36.9228 91.1383 36.9769 91.0663 37 91.0225C36.922 90.969 36.8915 91.0232 36.8549 91.0575C36.6014 91.2934 36.3629 91.5438 36.0913 91.7626C35.6953 92.0812 35.2797 92.3814 34.8644 92.6807C34.5997 92.8715 34.3694 93.0826 34.1856 93.3384C33.9957 93.6028 33.7817 93.8538 33.5745 94.1084C33.4844 94.2191 33.3838 94.3232 33.2215 94.3573C33.1438 94.3735 33.0703 94.3816 32.9929 94.3392C32.8947 94.2855 32.682 94.3154 32.6157 94.3969C32.5826 94.4376 32.5913 94.5043 32.5783 94.5735L32.5781 94.5733Z" fill="#5c463e"/>
</svg>
