<svg width="1920" height="793" viewBox="0 0 1920 793" fill="none" xmlns="http://www.w3.org/2000/svg">
<g clip-path="url(#clip0_7273_119146)">
<g clip-path="url(#clip1_7273_119146)">
<path d="M639.795 -16.2436C623.009 -38.8177 606.962 -60.0271 586.446 -79.3176C582.102 -83.4022 573.41 -82.2185 567.506 -84.3635C562.793 -86.0757 542.75 -101.351 538.149 -94.4554C533.253 -87.1193 538.896 -75.1712 531.835 -67.3335C526.189 -61.0656 511.644 -69.7542 505.161 -71.4333C498.773 -73.088 489.275 -70.7751 483.538 -73.6409C479.328 -75.7435 476.743 -81.3258 473.278 -84.5212C451.359 -104.735 458.979 -76.8026 454.496 -63.8645C449.787 -50.2745 419.561 -92.7078 415.984 -98.5552C412.523 -104.212 404.124 -105.411 398.306 -107.701C386.126 -112.494 387.169 -117.882 379.682 -125.362C375.841 -129.199 372.071 -124.973 374.947 -131.038C379.127 -139.856 384.17 -152.362 382.365 -162.102C380.468 -172.335 376.735 -181.554 375.42 -192.062C374.745 -197.461 368.779 -204.656 370.527 -194.428C374.741 -169.768 361.622 -219.558 360.584 -224.861C358.487 -235.567 374.06 -241.23 364.214 -246.148C352.64 -251.93 338.171 -257.502 325.071 -257.502C316.963 -257.502 310.592 -249.302 303.289 -249.302C300.91 -249.302 296.2 -258.293 293.188 -259.709C290.515 -260.966 281.273 -248.328 279.14 -246.464C268.611 -237.259 247.639 -247.765 237.472 -252.14C225.285 -257.385 212.844 -262.943 201.643 -270.117C197.724 -272.626 192.814 -279.372 188.069 -280.208C183.665 -280.985 160.338 -302.926 159.659 -293.769C156.702 -253.894 107.716 -279.226 84.687 -287.147C71.3102 -291.747 66.424 -294.074 54.5404 -290.931C49.9685 -289.722 37.2683 -288.762 41.9135 -281.47C56.0639 -259.255 36.0889 -275.205 23.2889 -274.532C8.29922 -273.744 6.13397 -223.98 -19.3267 -244.572C-33.7514 -256.238 -54.9706 -248.747 -71.2546 -242.049C-76.8262 -239.757 -80.5562 -236.309 -84.6707 -231.957C-88.5198 -227.885 -85.2591 -220.701 -88.9322 -217.765C-98.7882 -209.888 -120.233 -217.765 -131.706 -217.765C-157.167 -217.765 -169.443 -204.671 -188.211 -188.751C-191.655 -185.829 -208.708 -175.768 -206.204 -169.513C-201.109 -156.788 -195.896 -143.737 -189.947 -131.354C-184.086 -119.154 -184.048 -124.462 -171.796 -119.685C-160.678 -115.35 -176.473 -113.95 -173.69 -111.17C-168.512 -105.997 -152.108 -100.412 -145.279 -102.97C-125.172 -110.503 -187.913 -97.4189 -209.361 -96.3476C-212.603 -96.1856 -261.925 -95.6798 -242.664 -104.232C-239.744 -105.528 -258.816 -108.091 -263.025 -106.439C-272.019 -102.909 -269.419 -64.1178 -264.603 -57.5571C-256.133 -46.0173 -229.517 -37.3528 -216.621 -31.6967C-211.827 -29.5938 -207.007 -32.4872 -202.732 -34.535C-189.145 -41.0428 -176.067 -47.8109 -160.905 -49.8305C-152.741 -50.9179 -124.787 -47.1387 -124.445 -34.8504C-124.203 -26.1229 -129.812 -17.4859 -129.812 -9.46312C-129.812 -3.98938 -118.143 -15.994 -113.712 -12.7745C-94.985 0.832398 -39.7152 -3.7876 -34.6367 19.5509C-32.2632 30.4588 -19.3316 88.4975 -47.8949 81.3635C-61.2465 78.0288 -86.6279 52.3496 -97.6132 66.068C-99.1264 67.9578 -90.4909 99.5321 -103.453 92.5591C-147.06 69.1009 -181.282 118.382 -194.209 156.264C-199.377 171.409 -164.547 173.144 -156.644 175.817C-130.305 184.723 -110.492 200.8 -87.9851 216.184C-86.7089 217.057 -75.7084 226.609 -73.78 225.645C-72.5868 225.049 -72.2037 218.236 -70.4654 216.5C-60.9728 207.016 -45.2452 212.871 -33.8476 213.504C-17.1217 214.432 2.09509 215.277 3.40163 232.899C4.17001 243.262 19.8134 246.564 27.5505 249.14C42.9148 254.257 52.0148 257.749 64.3262 268.22C101.133 299.526 147.467 318.959 189.332 342.332C204.334 350.708 221.525 365.499 239.839 359.678C263.002 352.315 318.973 356.081 305.815 318.522C304.363 314.377 296.413 301.784 299.343 297.392C307.002 285.915 343.989 294.742 355.691 292.504C357.959 292.07 355.543 282.097 366.739 282.097C377.433 282.097 362.381 281.892 359.163 276.105C356.781 271.821 364.626 264.403 361.373 257.498C357.525 249.329 356.086 256.822 362.635 253.082C370.891 248.369 353.117 225.406 350.009 222.176C347.885 219.97 342.67 212.701 339.276 212.084C338.455 211.935 338.736 217.13 338.013 217.761C332.359 222.704 320.027 218.654 314.653 215.238C307.875 210.929 293.261 211.372 285.296 210.823C270.296 209.789 261.936 184.478 261.936 175.501C261.936 162.013 224.033 181.931 222.004 182.124C216.212 182.675 188.015 186.963 193.12 176.763C195.313 172.381 196.29 168.15 198.013 163.675C204.659 146.412 185.531 111.57 201.643 99.4973C218.331 86.9931 241.878 114.301 261.305 110.851C270.783 109.167 275.008 107.632 283.402 113.689C289.715 118.244 295.585 124.997 303.605 121.258C312.446 117.136 347.125 111.484 345.274 97.9204C343.71 86.4674 319.073 82.0992 319.073 70.4832C319.073 55.4318 359.102 82.0913 362.32 85.3056C373.938 96.9125 373.537 94.4513 389.783 94.4513C408.624 94.4513 463.727 120.172 460.651 84.8326C459.78 74.8207 457.978 80.0672 464.913 80.2597C473.399 80.4952 506.593 88.2659 511.474 84.2018C516.393 80.1066 510.063 63.8155 512.579 61.0221C517.048 56.0619 526.175 57.553 531.835 57.553C544.94 57.553 558.022 53.3335 570.978 51.2456C578.446 50.0424 585.342 48.5597 585.815 40.523C586.069 36.2128 595.412 33.0659 598.442 30.5889C603.461 26.486 611.403 -4.57488 612.174 -4.57488C616.81 -4.57488 654 6.11246 654 -4.89025C654 -6.53093 624.179 -36.1053 636.954 -27.5969" stroke="#D9EAF9" stroke-opacity="0.3" stroke-linecap="round"/>
<path d="M1355.01 -93.6501C1371.55 -115.949 1387.38 -136.9 1407.6 -155.956C1411.88 -159.991 1420.45 -158.822 1426.28 -160.941C1430.92 -162.632 1450.68 -177.721 1455.22 -170.909C1460.05 -163.663 1454.48 -151.86 1461.44 -144.118C1467.01 -137.926 1481.35 -146.509 1487.74 -148.168C1494.04 -149.802 1503.41 -147.518 1509.06 -150.349C1513.21 -152.425 1515.76 -157.94 1519.18 -161.096C1540.79 -181.064 1533.27 -153.472 1537.69 -140.691C1542.34 -127.267 1572.14 -169.183 1575.66 -174.959C1579.08 -180.548 1587.36 -181.732 1593.09 -183.994C1605.1 -188.729 1604.07 -194.051 1611.45 -201.439C1615.24 -205.23 1618.96 -201.055 1616.12 -207.047C1612 -215.757 1607.03 -228.111 1608.81 -237.733C1610.68 -247.841 1614.36 -256.947 1615.66 -267.328C1616.32 -272.661 1622.2 -279.768 1620.48 -269.664C1616.33 -245.305 1629.26 -294.489 1630.28 -299.727C1632.35 -310.303 1617 -315.897 1626.7 -320.755C1638.12 -326.467 1652.38 -331.97 1665.3 -331.97C1673.29 -331.97 1679.57 -323.871 1686.77 -323.871C1689.12 -323.871 1693.76 -332.752 1696.73 -334.151C1699.37 -335.392 1708.48 -322.909 1710.58 -321.067C1720.96 -311.974 1741.64 -322.352 1751.66 -326.674C1763.68 -331.855 1775.94 -337.346 1786.99 -344.432C1790.85 -346.911 1795.69 -353.574 1800.37 -354.401C1804.71 -355.168 1827.71 -376.841 1828.38 -367.796C1831.29 -328.407 1879.59 -353.43 1902.29 -361.254C1915.48 -365.799 1920.3 -368.097 1932.02 -364.993C1936.52 -363.798 1949.05 -362.851 1944.47 -355.647C1930.51 -333.702 1950.21 -349.458 1962.83 -348.793C1977.61 -348.015 1979.74 -298.857 2004.84 -319.198C2019.06 -330.722 2039.99 -323.323 2056.04 -316.706C2061.53 -314.441 2065.21 -311.036 2069.27 -306.737C2073.06 -302.714 2069.85 -295.618 2073.47 -292.718C2083.19 -284.936 2104.33 -292.718 2115.64 -292.718C2140.74 -292.718 2152.84 -279.783 2171.35 -264.057C2174.74 -261.171 2191.56 -251.232 2189.09 -245.054C2184.07 -232.483 2178.93 -219.591 2173.06 -207.358C2167.28 -195.307 2167.24 -200.551 2155.16 -195.832C2144.2 -191.55 2159.78 -190.167 2157.03 -187.421C2151.93 -182.31 2135.75 -176.794 2129.02 -179.321C2109.2 -186.762 2171.06 -173.837 2192.2 -172.779C2195.4 -172.619 2244.02 -172.119 2225.03 -180.567C2222.16 -181.848 2240.96 -184.379 2245.11 -182.748C2253.98 -179.26 2251.41 -140.941 2246.67 -134.46C2238.31 -123.061 2212.07 -114.502 2199.36 -108.915C2194.63 -106.838 2189.88 -109.696 2185.66 -111.719C2172.27 -118.147 2159.38 -124.833 2144.43 -126.828C2136.38 -127.902 2108.82 -124.169 2108.48 -112.03C2108.24 -103.409 2113.77 -94.8773 2113.77 -86.9522C2113.77 -81.5451 2102.27 -93.4035 2097.9 -90.2232C2079.44 -76.782 2024.94 -81.3458 2019.94 -58.2914C2017.6 -47.5163 2004.85 9.81565 2033.01 2.76849C2046.17 -0.525601 2071.2 -25.8921 2082.03 -12.3407C2083.52 -10.474 2075.01 20.7159 2087.78 13.8278C2130.78 -9.34483 2164.52 39.3365 2177.26 76.7568C2182.36 91.7175 2148.02 93.4317 2140.23 96.0717C2114.26 104.869 2094.72 120.75 2072.53 135.948C2071.28 136.809 2060.43 146.245 2058.53 145.293C2057.35 144.705 2056.98 137.975 2055.26 136.259C2045.9 126.891 2030.4 132.675 2019.16 133.3C2002.67 134.217 1983.72 135.052 1982.44 152.459C1981.68 162.696 1966.25 165.957 1958.63 168.502C1943.48 173.557 1934.51 177.006 1922.37 187.35C1886.08 218.274 1840.4 237.471 1799.12 260.56C1784.33 268.833 1767.38 283.445 1749.33 277.694C1726.49 270.42 1671.31 274.141 1684.28 237.039C1685.71 232.945 1693.55 220.505 1690.66 216.167C1683.11 204.829 1646.64 213.549 1635.11 211.338C1632.87 210.909 1635.25 201.057 1624.21 201.057C1613.67 201.057 1628.51 200.855 1631.68 195.138C1634.03 190.907 1626.3 183.579 1629.51 176.758C1633.3 168.689 1634.72 176.09 1628.26 172.397C1620.12 167.741 1637.65 145.057 1640.71 141.867C1642.8 139.688 1647.95 132.507 1651.29 131.898C1652.1 131.75 1651.82 136.881 1652.54 137.505C1658.11 142.388 1670.27 138.387 1675.57 135.013C1682.25 130.756 1696.66 131.194 1704.51 130.652C1719.3 129.631 1727.54 104.628 1727.54 95.7602C1727.54 82.436 1764.91 102.112 1766.91 102.302C1772.62 102.847 1800.42 107.082 1795.39 97.0063C1793.23 92.6777 1792.26 88.4987 1790.56 84.0778C1784.01 67.025 1802.87 32.6073 1786.99 20.6815C1770.53 8.32954 1747.32 35.3049 1728.16 31.8965C1718.82 30.2336 1714.65 28.7175 1706.38 34.7003C1700.15 39.1999 1694.37 45.8704 1686.46 42.177C1677.74 38.1053 1643.55 32.5221 1645.38 19.1238C1646.92 7.81023 1671.21 3.49523 1671.21 -7.97932C1671.21 -22.8475 1631.74 3.48741 1628.57 6.6626C1617.12 18.1282 1617.51 15.697 1601.5 15.697C1582.92 15.697 1528.59 41.1043 1531.63 6.1953C1532.48 -3.69469 1534.26 1.48801 1527.42 1.67811C1519.06 1.91073 1486.33 9.58686 1481.52 5.57226C1476.67 1.52693 1482.91 -14.5659 1480.43 -17.3252C1476.02 -22.225 1467.02 -20.752 1461.44 -20.752C1448.52 -20.752 1435.63 -24.9202 1422.85 -26.9826C1415.49 -28.1713 1408.69 -29.6358 1408.22 -37.5747C1407.97 -41.8324 1398.76 -44.941 1395.78 -47.3878C1390.83 -51.4408 1383 -82.1234 1382.24 -82.1234C1377.67 -82.1234 1341 -71.5662 1341 -82.435C1341 -84.0557 1370.4 -113.27 1357.81 -104.865" stroke="#D9EAF9" stroke-opacity="0.3" stroke-linecap="round"/>
</g>
<path d="M1520.84 458.062C1525.08 452.338 1529.13 446.96 1534.31 442.068C1535.41 441.033 1537.6 441.333 1539.09 440.789C1540.28 440.355 1545.34 436.481 1546.5 438.23C1547.73 440.09 1546.31 443.12 1548.09 445.107C1549.52 446.696 1553.19 444.493 1554.83 444.067C1556.44 443.648 1558.84 444.234 1560.28 443.508C1561.35 442.974 1562 441.559 1562.87 440.749C1568.41 435.623 1566.48 442.706 1567.61 445.987C1568.8 449.433 1576.43 438.673 1577.33 437.19C1578.21 435.756 1580.33 435.452 1581.8 434.871C1584.87 433.656 1584.61 432.29 1586.5 430.393C1587.47 429.42 1588.42 430.492 1587.69 428.954C1586.64 426.718 1585.36 423.547 1585.82 421.077C1586.3 418.482 1587.24 416.145 1587.57 413.48C1587.74 412.111 1589.25 410.287 1588.81 412.88C1587.74 419.133 1591.06 406.508 1591.32 405.163C1591.85 402.449 1587.92 401.013 1590.4 399.766C1593.32 398.3 1596.97 396.887 1600.28 396.887C1602.33 396.887 1603.94 398.966 1605.78 398.966C1606.38 398.966 1607.57 396.686 1608.33 396.327C1609 396.008 1611.34 399.213 1611.87 399.686C1614.53 402.02 1619.83 399.356 1622.39 398.246C1625.47 396.916 1628.61 395.507 1631.43 393.688C1632.42 393.052 1633.66 391.341 1634.86 391.129C1635.97 390.932 1641.86 385.369 1642.03 387.691C1642.78 397.802 1655.14 391.378 1660.96 389.37C1664.33 388.203 1665.56 387.613 1668.56 388.41C1669.72 388.717 1672.92 388.96 1671.75 390.809C1668.18 396.442 1673.22 392.398 1676.45 392.569C1680.24 392.768 1680.78 405.387 1687.21 400.165C1690.85 397.207 1696.21 399.107 1700.32 400.805C1701.72 401.386 1702.66 402.261 1703.7 403.364C1704.67 404.397 1703.85 406.218 1704.78 406.963C1707.26 408.96 1712.68 406.963 1715.57 406.963C1722 406.963 1725.1 410.283 1729.84 414.32C1730.71 415.061 1735.01 417.612 1734.38 419.198C1733.09 422.424 1731.78 425.734 1730.27 428.874C1728.79 431.967 1728.78 430.621 1725.69 431.832C1722.89 432.932 1726.87 433.287 1726.17 433.992C1724.86 435.303 1720.72 436.719 1719 436.071C1713.92 434.161 1729.76 437.478 1735.17 437.75C1735.99 437.791 1748.44 437.919 1743.58 435.751C1742.84 435.422 1747.66 434.772 1748.72 435.191C1750.99 436.086 1750.33 445.922 1749.12 447.586C1746.98 450.512 1740.26 452.709 1737.01 454.143C1735.8 454.676 1734.58 453.943 1733.5 453.424C1730.07 451.773 1726.77 450.057 1722.94 449.545C1720.88 449.269 1713.83 450.228 1713.74 453.344C1713.68 455.557 1715.1 457.747 1715.1 459.781C1715.1 461.169 1712.15 458.125 1711.03 458.941C1706.31 462.391 1692.35 461.22 1691.07 467.138C1690.47 469.904 1687.21 484.62 1694.42 482.811C1697.79 481.966 1704.2 475.454 1706.97 478.933C1707.35 479.412 1705.17 487.418 1708.44 485.65C1719.45 479.702 1728.09 492.198 1731.35 501.804C1732.65 505.644 1723.86 506.084 1721.87 506.762C1715.22 509.02 1710.22 513.096 1704.54 516.997C1704.22 517.219 1701.44 519.641 1700.95 519.396C1700.65 519.245 1700.55 517.518 1700.12 517.077C1697.72 514.673 1693.75 516.157 1690.87 516.318C1686.65 516.553 1681.8 516.767 1681.47 521.236C1681.28 523.863 1677.33 524.701 1675.38 525.354C1671.5 526.651 1669.2 527.537 1666.09 530.192C1656.8 538.13 1645.11 543.058 1634.54 548.984C1630.76 551.108 1626.42 554.859 1621.79 553.382C1615.95 551.515 1601.82 552.47 1605.14 542.947C1605.51 541.896 1607.51 538.703 1606.77 537.589C1604.84 534.679 1595.51 536.917 1592.55 536.349C1591.98 536.239 1592.59 533.71 1589.76 533.71C1587.06 533.71 1590.86 533.658 1591.68 532.191C1592.28 531.105 1590.3 529.224 1591.12 527.473C1592.09 525.402 1592.45 527.302 1590.8 526.353C1588.72 525.158 1593.2 519.336 1593.99 518.517C1594.52 517.957 1595.84 516.114 1596.7 515.958C1596.9 515.92 1596.83 517.237 1597.01 517.397C1598.44 518.65 1601.55 517.624 1602.91 516.757C1604.62 515.665 1608.31 515.777 1610.32 515.638C1614.11 515.376 1616.22 508.958 1616.22 506.682C1616.22 503.261 1625.78 508.312 1626.3 508.361C1627.76 508.501 1634.87 509.588 1633.59 507.001C1633.03 505.89 1632.79 504.818 1632.35 503.683C1630.67 499.305 1635.5 490.471 1631.43 487.41C1627.22 484.239 1621.28 491.163 1616.38 490.288C1613.98 489.861 1612.92 489.472 1610.8 491.008C1609.21 492.163 1607.72 493.875 1605.7 492.927C1603.47 491.882 1594.71 490.449 1595.18 487.01C1595.58 484.106 1601.79 482.998 1601.79 480.053C1601.79 476.236 1591.69 482.996 1590.88 483.811C1587.95 486.754 1588.05 486.13 1583.95 486.13C1579.19 486.13 1565.28 492.652 1566.06 483.691C1566.28 481.152 1566.73 482.483 1564.98 482.532C1562.84 482.591 1554.46 484.562 1553.23 483.531C1551.99 482.493 1553.59 478.362 1552.95 477.654C1551.83 476.396 1549.52 476.774 1548.09 476.774C1544.79 476.774 1541.48 475.704 1538.21 475.175C1536.33 474.869 1534.59 474.494 1534.47 472.456C1534.4 471.363 1532.05 470.565 1531.28 469.937C1530.01 468.896 1528.01 461.02 1527.81 461.02C1526.64 461.02 1517.26 463.73 1517.26 460.94C1517.26 460.524 1524.78 453.025 1521.56 455.183" stroke="#D9EAF9" stroke-opacity="0.3" stroke-linecap="round"/>
<path d="M1922.56 466.779C1923.04 466.296 1925.66 469.772 1931.04 470.256C1937.02 470.795 1957.76 474.721 1957.76 464.714C1957.76 457.252 1957.76 449.79 1957.76 442.328C1957.76 438.868 1955.31 428.824 1956.67 432.004C1959.14 437.748 2001.8 435.017 2009.8 431.461C2013.78 429.69 2023.16 428.045 2024.14 422.659C2025.66 414.294 2027 416.687 2033.59 411.14C2041.42 404.556 2042.28 392.526 2048.58 384.624C2053.58 378.362 2064.13 367.497 2072.27 365.172C2076.39 363.994 2061.9 369.248 2060.32 368.541C2052.38 365.011 2040.71 373.724 2034.24 378.756C2024.91 386.013 2009.97 382.668 1998.39 382.668C1989.84 382.668 1971.58 384.962 1965.8 391.47C1956.11 402.374 1948.63 398.154 1937.12 393.752C1922.07 387.996 1909.17 399.129 1904.42 414.834C1902.94 419.736 1905.45 430.868 1901.7 434.612C1897.13 439.188 1888.96 441.407 1883.02 443.741C1878.76 445.415 1876.41 448.988 1872.81 451.565C1868.76 454.453 1862.87 455.122 1859.12 458.194C1847.54 467.666 1859.7 475.641 1867.37 480.471C1872.04 483.409 1875.2 481.728 1880.41 480.906C1888.28 479.662 1911.42 482.437 1916.48 475.472C1920.34 470.157 1931.24 464.517 1924.52 474.603" stroke="#D9EAF9" stroke-opacity="0.3" stroke-linecap="round"/>
</g>
<defs>
<clipPath id="clip0_7273_119146">
<rect width="1920" height="793" fill="white"/>
</clipPath>
<clipPath id="clip1_7273_119146">
<rect width="1920" height="2072" fill="white" transform="translate(0 -158)"/>
</clipPath>
</defs>
</svg>
