<svg width="1920" height="793" viewBox="0 0 1920 793" fill="none" xmlns="http://www.w3.org/2000/svg">
<path d="M639.795 -16.2436C623.009 -38.8177 606.962 -60.0271 586.446 -79.3176C582.102 -83.4022 573.41 -82.2185 567.506 -84.3635C562.793 -86.0757 542.75 -101.351 538.149 -94.4554C533.253 -87.1193 538.896 -75.1712 531.835 -67.3335C526.189 -61.0656 511.644 -69.7542 505.161 -71.4333C498.773 -73.088 489.275 -70.7751 483.538 -73.6409C479.328 -75.7435 476.743 -81.3258 473.278 -84.5212C451.359 -104.735 458.979 -76.8026 454.496 -63.8645C449.787 -50.2745 419.561 -92.7078 415.984 -98.5552C412.523 -104.212 404.124 -105.411 398.306 -107.701C386.126 -112.494 387.169 -117.882 379.682 -125.362C375.841 -129.199 372.071 -124.973 374.947 -131.038C379.127 -139.856 384.17 -152.362 382.365 -162.102C380.468 -172.335 376.735 -181.554 375.42 -192.062C374.745 -197.461 368.779 -204.656 370.527 -194.428C374.741 -169.768 361.622 -219.558 360.584 -224.861C358.487 -235.567 374.06 -241.23 364.214 -246.148C352.64 -251.93 338.171 -257.502 325.071 -257.502C316.963 -257.502 310.592 -249.302 303.289 -249.302C300.91 -249.302 296.2 -258.293 293.188 -259.709C290.515 -260.966 281.273 -248.328 279.14 -246.464C268.611 -237.259 247.639 -247.765 237.472 -252.14C225.285 -257.385 212.844 -262.943 201.643 -270.117C197.724 -272.626 192.814 -279.372 188.069 -280.208C183.665 -280.985 160.338 -302.926 159.659 -293.769C156.702 -253.894 107.716 -279.226 84.687 -287.147C71.3102 -291.747 66.424 -294.074 54.5404 -290.931C49.9685 -289.722 37.2683 -288.762 41.9135 -281.47C56.0639 -259.255 36.0889 -275.205 23.2889 -274.532C8.29922 -273.744 6.13397 -223.98 -19.3267 -244.572C-33.7514 -256.238 -54.9706 -248.747 -71.2546 -242.049C-76.8262 -239.757 -80.5562 -236.309 -84.6707 -231.957C-88.5198 -227.885 -85.2591 -220.701 -88.9322 -217.765C-98.7882 -209.888 -120.233 -217.765 -131.706 -217.765C-157.167 -217.765 -169.443 -204.671 -188.211 -188.751C-191.655 -185.829 -208.708 -175.768 -206.204 -169.513C-201.109 -156.788 -195.896 -143.737 -189.947 -131.354C-184.086 -119.154 -184.048 -124.462 -171.796 -119.685C-160.678 -115.35 -176.473 -113.95 -173.69 -111.17C-168.512 -105.997 -152.108 -100.412 -145.279 -102.97C-125.172 -110.503 -187.913 -97.4189 -209.361 -96.3476C-212.603 -96.1856 -261.925 -95.6798 -242.664 -104.232C-239.744 -105.528 -258.816 -108.091 -263.025 -106.439C-272.019 -102.909 -269.419 -64.1178 -264.603 -57.5571C-256.133 -46.0173 -229.517 -37.3528 -216.621 -31.6967C-211.827 -29.5938 -207.007 -32.4872 -202.732 -34.535C-189.145 -41.0428 -176.067 -47.8109 -160.905 -49.8305C-152.741 -50.9179 -124.787 -47.1387 -124.445 -34.8504C-124.203 -26.1229 -129.812 -17.4859 -129.812 -9.46312C-129.812 -3.98938 -118.143 -15.994 -113.712 -12.7745C-94.985 0.832398 -39.7152 -3.7876 -34.6367 19.5509C-32.2632 30.4588 -19.3316 88.4975 -47.8949 81.3635C-61.2465 78.0288 -86.6279 52.3496 -97.6132 66.068C-99.1264 67.9578 -90.4909 99.5321 -103.453 92.5591C-147.06 69.1009 -181.282 118.382 -194.209 156.264C-199.377 171.409 -164.547 173.144 -156.644 175.817C-130.305 184.723 -110.492 200.8 -87.9851 216.184C-86.7089 217.057 -75.7084 226.609 -73.78 225.645C-72.5868 225.049 -72.2037 218.236 -70.4654 216.5C-60.9728 207.016 -45.2452 212.871 -33.8476 213.504C-17.1217 214.432 2.09509 215.277 3.40163 232.899C4.17001 243.262 19.8134 246.564 27.5505 249.14C42.9148 254.257 52.0148 257.749 64.3262 268.22C101.133 299.526 147.467 318.959 189.332 342.332C204.334 350.708 221.525 365.499 239.839 359.678C263.002 352.315 318.973 356.081 305.815 318.522C304.363 314.377 296.413 301.784 299.343 297.392C307.002 285.915 343.989 294.742 355.691 292.504C357.959 292.07 355.543 282.097 366.739 282.097C377.433 282.097 362.381 281.892 359.163 276.105C356.781 271.821 364.626 264.403 361.373 257.498C357.525 249.329 356.086 256.822 362.635 253.082C370.891 248.369 353.117 225.406 350.009 222.176C347.885 219.97 342.67 212.701 339.276 212.084C338.455 211.935 338.736 217.13 338.013 217.761C332.359 222.704 320.027 218.654 314.653 215.238C307.875 210.929 293.261 211.372 285.296 210.823C270.296 209.789 261.936 184.478 261.936 175.501C261.936 162.013 224.033 181.931 222.004 182.124C216.212 182.675 188.015 186.963 193.12 176.763C195.313 172.381 196.29 168.15 198.013 163.675C204.659 146.412 185.531 111.57 201.643 99.4973C218.331 86.9931 241.878 114.301 261.305 110.851C270.783 109.167 275.008 107.632 283.402 113.689C289.715 118.244 295.585 124.997 303.605 121.258C312.446 117.136 347.125 111.484 345.274 97.9204C343.71 86.4674 319.073 82.0992 319.073 70.4832C319.073 55.4318 359.102 82.0913 362.32 85.3056C373.938 96.9125 373.537 94.4513 389.783 94.4513C408.624 94.4513 463.727 120.172 460.651 84.8326C459.78 74.8207 457.978 80.0672 464.913 80.2597C473.399 80.4952 506.593 88.2659 511.474 84.2018C516.393 80.1066 510.063 63.8155 512.579 61.0221C517.048 56.0619 526.175 57.553 531.835 57.553C544.94 57.553 558.022 53.3335 570.978 51.2456C578.446 50.0424 585.342 48.5597 585.815 40.523C586.069 36.2128 595.412 33.0659 598.442 30.5889C603.461 26.486 611.403 -4.57488 612.174 -4.57488C616.81 -4.57488 654 6.11246 654 -4.89025C654 -6.53093 624.179 -36.1053 636.954 -27.5969" stroke="#D9EAF9" stroke-opacity="0.3" stroke-linecap="round"/>
<path d="M1355.01 -93.6501C1371.55 -115.949 1387.38 -136.9 1407.6 -155.956C1411.88 -159.991 1420.45 -158.822 1426.28 -160.941C1430.92 -162.632 1450.68 -177.721 1455.22 -170.909C1460.05 -163.663 1454.48 -151.86 1461.44 -144.118C1467.01 -137.926 1481.35 -146.509 1487.74 -148.168C1494.04 -149.802 1503.41 -147.518 1509.06 -150.349C1513.21 -152.425 1515.76 -157.94 1519.18 -161.096C1540.79 -181.064 1533.27 -153.472 1537.69 -140.691C1542.34 -127.267 1572.14 -169.183 1575.66 -174.959C1579.08 -180.548 1587.36 -181.732 1593.09 -183.994C1605.1 -188.729 1604.07 -194.051 1611.45 -201.439C1615.24 -205.23 1618.96 -201.055 1616.12 -207.047C1612 -215.757 1607.03 -228.111 1608.81 -237.733C1610.68 -247.841 1614.36 -256.947 1615.66 -267.328C1616.32 -272.661 1622.2 -279.768 1620.48 -269.664C1616.33 -245.305 1629.26 -294.489 1630.28 -299.727C1632.35 -310.303 1617 -315.897 1626.7 -320.755C1638.12 -326.467 1652.38 -331.97 1665.3 -331.97C1673.29 -331.97 1679.57 -323.871 1686.77 -323.871C1689.12 -323.871 1693.76 -332.752 1696.73 -334.151C1699.37 -335.392 1708.48 -322.909 1710.58 -321.067C1720.96 -311.974 1741.64 -322.352 1751.66 -326.674C1763.68 -331.855 1775.94 -337.346 1786.99 -344.432C1790.85 -346.911 1795.69 -353.574 1800.37 -354.401C1804.71 -355.168 1827.71 -376.841 1828.38 -367.796C1831.29 -328.407 1879.59 -353.43 1902.29 -361.254C1915.48 -365.799 1920.3 -368.097 1932.02 -364.993C1936.52 -363.798 1949.05 -362.851 1944.47 -355.647C1930.51 -333.702 1950.21 -349.458 1962.83 -348.793C1977.61 -348.015 1979.74 -298.857 2004.84 -319.198C2019.06 -330.722 2039.99 -323.323 2056.04 -316.706C2061.53 -314.441 2065.21 -311.036 2069.27 -306.737C2073.06 -302.714 2069.85 -295.618 2073.47 -292.718C2083.19 -284.936 2104.33 -292.718 2115.64 -292.718C2140.74 -292.718 2152.84 -279.783 2171.35 -264.057C2174.74 -261.171 2191.56 -251.232 2189.09 -245.054C2184.07 -232.483 2178.93 -219.591 2173.06 -207.358C2167.28 -195.307 2167.24 -200.551 2155.16 -195.832C2144.2 -191.55 2159.78 -190.167 2157.03 -187.421C2151.93 -182.31 2135.75 -176.794 2129.02 -179.321C2109.2 -186.762 2171.06 -173.837 2192.2 -172.779C2195.4 -172.619 2244.02 -172.119 2225.03 -180.567C2222.16 -181.848 2240.96 -184.379 2245.11 -182.748C2253.98 -179.26 2251.41 -140.941 2246.67 -134.46C2238.31 -123.061 2212.07 -114.502 2199.36 -108.915C2194.63 -106.838 2189.88 -109.696 2185.66 -111.719C2172.27 -118.147 2159.38 -124.833 2144.43 -126.828C2136.38 -127.902 2108.82 -124.169 2108.48 -112.03C2108.24 -103.409 2113.77 -94.8773 2113.77 -86.9522C2113.77 -81.5451 2102.27 -93.4035 2097.9 -90.2232C2079.44 -76.782 2024.94 -81.3458 2019.94 -58.2914C2017.6 -47.5163 2004.85 9.81565 2033.01 2.76849C2046.17 -0.525601 2071.2 -25.8921 2082.03 -12.3407C2083.52 -10.474 2075.01 20.7159 2087.78 13.8278C2130.78 -9.34483 2164.52 39.3365 2177.26 76.7568C2182.36 91.7175 2148.02 93.4317 2140.23 96.0717C2114.26 104.869 2094.72 120.75 2072.53 135.948C2071.28 136.809 2060.43 146.245 2058.53 145.293C2057.35 144.705 2056.98 137.975 2055.26 136.259C2045.9 126.891 2030.4 132.675 2019.16 133.3C2002.67 134.217 1983.72 135.052 1982.44 152.459C1981.68 162.696 1966.25 165.957 1958.63 168.502C1943.48 173.557 1934.51 177.006 1922.37 187.35C1886.08 218.274 1840.4 237.471 1799.12 260.56C1784.33 268.833 1767.38 283.445 1749.33 277.694C1726.49 270.42 1671.31 274.141 1684.28 237.039C1685.71 232.945 1693.55 220.505 1690.66 216.167C1683.11 204.829 1646.64 213.549 1635.11 211.338C1632.87 210.909 1635.25 201.057 1624.21 201.057C1613.67 201.057 1628.51 200.855 1631.68 195.138C1634.03 190.907 1626.3 183.579 1629.51 176.758C1633.3 168.689 1634.72 176.09 1628.26 172.397C1620.12 167.741 1637.65 145.057 1640.71 141.867C1642.8 139.688 1647.95 132.507 1651.29 131.898C1652.1 131.75 1651.82 136.881 1652.54 137.505C1658.11 142.388 1670.27 138.387 1675.57 135.013C1682.25 130.756 1696.66 131.194 1704.51 130.652C1719.3 129.631 1727.54 104.628 1727.54 95.7602C1727.54 82.436 1764.91 102.112 1766.91 102.302C1772.62 102.847 1800.42 107.082 1795.39 97.0063C1793.23 92.6777 1792.26 88.4987 1790.56 84.0778C1784.01 67.025 1802.87 32.6073 1786.99 20.6815C1770.53 8.32954 1747.32 35.3049 1728.16 31.8965C1718.82 30.2336 1714.65 28.7175 1706.38 34.7003C1700.15 39.1999 1694.37 45.8704 1686.46 42.177C1677.74 38.1053 1643.55 32.5221 1645.38 19.1238C1646.92 7.81023 1671.21 3.49523 1671.21 -7.97932C1671.21 -22.8475 1631.74 3.48741 1628.57 6.6626C1617.12 18.1282 1617.51 15.697 1601.5 15.697C1582.92 15.697 1528.59 41.1043 1531.63 6.1953C1532.48 -3.69469 1534.26 1.48801 1527.42 1.67811C1519.06 1.91073 1486.33 9.58686 1481.52 5.57226C1476.67 1.52693 1482.91 -14.5659 1480.43 -17.3252C1476.02 -22.225 1467.02 -20.752 1461.44 -20.752C1448.52 -20.752 1435.63 -24.9202 1422.85 -26.9826C1415.49 -28.1713 1408.69 -29.6358 1408.22 -37.5747C1407.97 -41.8324 1398.76 -44.941 1395.78 -47.3878C1390.83 -51.4408 1383 -82.1234 1382.24 -82.1234C1377.67 -82.1234 1341 -71.5662 1341 -82.435C1341 -84.0557 1370.4 -113.27 1357.81 -104.865" stroke="#D9EAF9" stroke-opacity="0.3" stroke-linecap="round"/>
<!-- <path d="M-176 530.817C-156.727 529.64 -131.787 525.844 -113.308 534.644C-105.114 538.545 -100.385 549.939 -89.4667 548.379C-84.3271 547.645 -84.871 543.179 -78.0859 543.179C-69.6664 543.179 -66.3483 545.182 -58.6601 547.104C-54.2606 548.204 -50.4543 549.55 -46.102 550.341C-40.6879 551.326 -28.9775 549.903 -25.0082 552.99C-19.9781 556.903 -17.5785 562.898 -11.3709 565.352C-2.27139 568.95 5.75359 567.126 15.1189 565.745C26.8136 564.019 41.4407 562.972 52.6951 567.118C58.2554 569.167 60.8124 571.599 67.3135 572.809C73.7009 573.997 80.6042 575.293 87.1318 574.967C97.4095 574.453 103.011 575.744 112.739 581.148C115.269 582.554 120.096 582.554 122.844 581.639C128.441 579.773 136.953 578.803 141.877 576.341C149.429 572.565 158.107 563.577 167.484 568.786C176.262 573.663 182.275 573.201 192.699 573.201M192.699 573.201C207.171 573.201 220.861 567.564 235.475 566.235C250.123 564.904 258.542 570.264 271.775 572.809C286.102 575.564 297.567 578.499 312.295 578.499C320.863 578.499 328.893 576.233 337.902 576.733C339.48 576.821 345.439 580.152 346.634 581.148C350.522 584.389 360.376 580.944 364.195 579.382C377.608 573.895 403.267 576.733 417.776 576.733M192.699 573.201C192.171 576.014 189.554 581.639 183.307 581.639C175.498 581.639 175.702 585.609 171.593 585.609C167.484 585.609 157.277 588.212 154.023 589.514C151.42 590.555 147.299 589.948 145.563 589.514C143.321 589.297 139.141 589.384 140.357 591.466C141.877 594.069 138.405 600.576 132.548 601.878C126.691 603.179 132.949 604.481 122.844 605.782C105.217 609.687 105.867 610.338 100.661 612.941C85.5638 617.626 79.1865 619.665 77.885 620.099L100.661 625.305C103.481 624.437 106.648 623.743 96.7568 627.908C84.3925 633.114 94.1538 628.559 77.885 637.669C61.6161 646.78 56.1384 643.526 52.6951 645.478C49.2519 647.431 64.8699 638.971 35.5861 648.081" stroke="#D9EAF9" stroke-opacity="0.3" stroke-linecap="round"/> -->
<!-- <path d="M301.435 660.8C258.062 659.524 213.911 663.242 170.85 658.936C160.517 657.902 156.586 653.55 145.243 657.66C131.96 662.473 119.969 668.681 105.803 671.003C91.5698 673.337 77.0819 673.39 63.3208 678.46C42.2649 686.217 17.157 695.733 -5.25829 694.452C-23.7107 693.397 -40.1987 698.667 -57.6492 704.949C-62.5391 706.71 -66.7244 706.752 -71.9733 707.598C-80.5758 708.986 -75.5311 708.887 -71.1884 706.715" stroke="#D9EAF9" stroke-opacity="0.3" stroke-linecap="round"/> -->
<!-- <path d="M1061.73 643.304C1072.97 644.605 1100.88 659.526 1108.97 644.09C1111.41 639.427 1115.26 642.41 1118.77 643.304C1124.31 644.714 1130.41 646.841 1136.06 646.841C1138.21 646.841 1141.74 645.986 1143.7 647.234C1154.72 654.25 1159.71 650.702 1171.33 643.304C1179.38 638.181 1186.97 634.488 1195.65 632.788C1203.03 631.343 1202.8 643.342 1212.09 641.142C1219.38 639.414 1226.57 639.766 1234.01 639.766C1237.22 639.766 1238.52 643.189 1241.58 643.304C1245.37 643.446 1249.2 643.304 1253 643.304C1258.38 643.304 1264.48 644.206 1269.83 642.91C1272.14 642.349 1275.31 637.703 1276.31 638.979C1279.83 643.464 1284.69 644.042 1289.28 639.373C1295.12 633.422 1306.02 635.001 1312.97 631.904C1318.75 629.331 1324.91 630.451 1330.65 626.99C1333.25 625.421 1335.83 623.845 1338.91 623.845C1343.79 623.845 1346.21 618.703 1350.72 618.539C1362.64 618.105 1373.12 614.237 1384.68 611.561C1393.93 609.42 1403.08 609.694 1412.47 609.694C1419.73 609.694 1421.29 616.192 1427.14 619.914C1430 621.74 1431.97 625.166 1435.55 625.516C1439.72 625.925 1442.97 625.454 1446.9 626.99C1451.46 628.779 1449.06 628.976 1452.14 632.69C1454.49 635.514 1458.95 634.459 1461.95 634.459C1470.84 634.459 1476.91 631.54 1485.49 632.69C1492.01 633.563 1497.55 641.672 1504.17 643.205C1509.52 644.444 1515.72 645.075 1520.84 646.94C1522.7 647.616 1526.19 651.657 1528.48 652.934C1532.78 655.326 1536.46 655.36 1541.07 655.686C1543.84 655.882 1546.61 659.224 1550.1 659.224C1553.78 659.224 1554.13 659.731 1556.66 662.369C1562.71 668.675 1572.71 667.746 1577.96 675.046C1583 682.046 1594.08 677.888 1600.04 682.22C1603.35 684.629 1604.79 688.252 1609.3 689.296C1614.27 690.447 1619.31 691.186 1624.12 693.227C1633.15 697.057 1642.47 695.677 1651.52 698.239C1654.86 699.183 1657.7 704.117 1659.86 706.985C1665.26 714.164 1672.02 716.829 1679.39 718.974C1693.02 722.941 1707.64 721.346 1721.38 725.067C1746.16 731.781 1769.68 746.109 1794.71 751.208C1804.26 753.153 1811.47 759.633 1820.56 763.492C1840.72 772.047 1862.23 772.264 1882.55 780.887C1896.04 786.615 1911.69 791.893 1925.93 791.893" stroke="#D9EAF9" stroke-opacity="0.3" stroke-linecap="round"/> -->
<!-- <path d="M1556.3 657.173C1558.99 662.632 1579.89 653.652 1585.92 653.652C1589.47 653.652 1593.02 653.652 1596.57 653.652C1600.28 653.652 1603.44 655.578 1606.9 657.173C1611.04 659.08 1612.95 652.017 1618.01 651.892C1620.3 651.835 1622.59 651.892 1624.88 651.892C1625.26 651.892 1623.1 651.603 1623.1 652.772C1623.1 652.906 1624.54 660.173 1624.65 660.303C1626.17 662.238 1631.69 658.933 1633.52 658.933C1638.99 658.933 1643.45 655.647 1648.25 655.412C1656.89 654.991 1665.45 651.677 1674.02 655.021C1681.91 658.099 1688.3 654.789 1695.16 650.522C1700.21 647.377 1706.19 646.442 1711.28 644.068C1717.21 641.296 1718.35 641.264 1720.46 646.61C1725.53 659.472 1734.7 648.806 1743.68 650.229C1752.32 651.598 1761.32 652.169 1770.06 653.554C1782.58 655.537 1795.39 658.933 1808.33 658.933C1810.3 658.933 1814.45 657.828 1814.58 655.412C1814.64 654.165 1815.81 653.721 1815.81 652.772C1815.81 651.827 1813.08 651.1 1814.04 650.131C1821.78 642.275 1838.79 647.289 1844.58 650.229C1847.69 651.803 1849.18 656.512 1852.07 658.542C1855.79 661.165 1859.66 660.694 1863.79 660.694C1872.87 660.694 1881.18 662.454 1890.25 662.454C1898.69 662.454 1903.68 659.689 1911.24 666.073C1914.59 668.905 1928.81 680.892 1929.83 678.298" stroke="#D9EAF9" stroke-opacity="0.3" stroke-linecap="round"/> -->
<path d="M1520.84 458.063C1525.08 452.339 1529.13 446.961 1534.31 442.069C1535.41 441.033 1537.6 441.334 1539.09 440.79C1540.28 440.356 1545.34 436.482 1546.5 438.231C1547.73 440.091 1546.31 443.121 1548.09 445.108C1549.52 446.697 1553.19 444.494 1554.83 444.068C1556.44 443.649 1558.84 444.235 1560.28 443.509C1561.35 442.975 1562 441.56 1562.87 440.75C1568.41 435.624 1566.48 442.707 1567.61 445.988C1568.8 449.434 1576.43 438.674 1577.33 437.191C1578.21 435.757 1580.33 435.453 1581.8 434.872C1584.87 433.657 1584.61 432.291 1586.5 430.394C1587.47 429.421 1588.42 430.493 1587.69 428.955C1586.64 426.719 1585.36 423.548 1585.82 421.078C1586.3 418.483 1587.24 416.146 1587.57 413.481C1587.74 412.112 1589.25 410.288 1588.81 412.881C1587.74 419.134 1591.06 406.509 1591.32 405.164C1591.85 402.45 1587.92 401.014 1590.4 399.767C1593.32 398.301 1596.97 396.888 1600.28 396.888C1602.33 396.888 1603.94 398.967 1605.78 398.967C1606.38 398.967 1607.57 396.687 1608.33 396.328C1609 396.009 1611.34 399.214 1611.87 399.687C1614.53 402.021 1619.83 399.357 1622.39 398.247C1625.47 396.917 1628.61 395.508 1631.43 393.689C1632.42 393.053 1633.66 391.342 1634.86 391.13C1635.97 390.933 1641.86 385.37 1642.03 387.692C1642.78 397.803 1655.14 391.379 1660.96 389.371C1664.33 388.204 1665.56 387.614 1668.56 388.411C1669.72 388.718 1672.92 388.961 1671.75 390.81C1668.18 396.443 1673.22 392.399 1676.45 392.57C1680.24 392.769 1680.78 405.388 1687.21 400.166C1690.85 397.208 1696.21 399.108 1700.32 400.806C1701.72 401.387 1702.66 402.262 1703.7 403.365C1704.67 404.398 1703.85 406.219 1704.78 406.964C1707.26 408.961 1712.68 406.964 1715.57 406.964C1722 406.964 1725.1 410.284 1729.84 414.321C1730.71 415.061 1735.01 417.613 1734.38 419.199C1733.09 422.425 1731.78 425.735 1730.27 428.875C1728.79 431.968 1728.78 430.622 1725.69 431.833C1722.89 432.933 1726.87 433.288 1726.17 433.993C1724.86 435.304 1720.72 436.72 1719 436.072C1713.92 434.162 1729.76 437.479 1735.17 437.751C1735.99 437.792 1748.44 437.92 1743.58 435.752C1742.84 435.423 1747.66 434.773 1748.72 435.192C1750.99 436.087 1750.33 445.923 1749.12 447.587C1746.98 450.513 1740.26 452.71 1737.01 454.144C1735.8 454.677 1734.58 453.944 1733.5 453.425C1730.07 451.774 1726.77 450.058 1722.94 449.546C1720.88 449.27 1713.83 450.229 1713.74 453.345C1713.68 455.558 1715.1 457.748 1715.1 459.782C1715.1 461.17 1712.15 458.126 1711.03 458.942C1706.31 462.392 1692.35 461.221 1691.07 467.139C1690.47 469.905 1687.21 484.621 1694.42 482.812C1697.79 481.967 1704.2 475.455 1706.97 478.934C1707.35 479.413 1705.17 487.419 1708.44 485.651C1719.45 479.703 1728.09 492.199 1731.35 501.805C1732.65 505.645 1723.86 506.085 1721.87 506.763C1715.22 509.021 1710.22 513.097 1704.54 516.998C1704.22 517.219 1701.44 519.642 1700.95 519.397C1700.65 519.246 1700.55 517.519 1700.12 517.078C1697.72 514.674 1693.75 516.158 1690.87 516.319C1686.65 516.554 1681.8 516.768 1681.47 521.237C1681.28 523.864 1677.33 524.702 1675.38 525.355C1671.5 526.652 1669.2 527.538 1666.09 530.193C1656.8 538.131 1645.11 543.059 1634.54 548.985C1630.76 551.109 1626.42 554.859 1621.79 553.383C1615.95 551.516 1601.82 552.471 1605.14 542.948C1605.51 541.897 1607.51 538.703 1606.77 537.59C1604.84 534.68 1595.51 536.918 1592.55 536.35C1591.98 536.24 1592.59 533.711 1589.76 533.711C1587.06 533.711 1590.86 533.659 1591.68 532.192C1592.28 531.106 1590.3 529.225 1591.12 527.474C1592.09 525.403 1592.45 527.303 1590.8 526.354C1588.72 525.159 1593.2 519.337 1593.99 518.518C1594.52 517.958 1595.84 516.115 1596.7 515.959C1596.9 515.921 1596.83 517.238 1597.01 517.398C1598.44 518.651 1601.55 517.625 1602.91 516.758C1604.62 515.666 1608.31 515.778 1610.32 515.639C1614.11 515.377 1616.22 508.959 1616.22 506.683C1616.22 503.262 1625.78 508.313 1626.3 508.362C1627.76 508.502 1634.87 509.589 1633.59 507.002C1633.03 505.891 1632.79 504.819 1632.35 503.684C1630.67 499.306 1635.5 490.472 1631.43 487.41C1627.22 484.24 1621.28 491.164 1616.38 490.289C1613.98 489.862 1612.92 489.473 1610.8 491.009C1609.21 492.164 1607.72 493.876 1605.7 492.928C1603.47 491.883 1594.71 490.45 1595.18 487.011C1595.58 484.107 1601.79 482.999 1601.79 480.054C1601.79 476.237 1591.69 482.997 1590.88 483.812C1587.95 486.755 1588.05 486.131 1583.95 486.131C1579.19 486.131 1565.28 492.653 1566.06 483.692C1566.28 481.153 1566.73 482.484 1564.98 482.532C1562.84 482.592 1554.46 484.563 1553.23 483.532C1551.99 482.494 1553.59 478.363 1552.95 477.655C1551.83 476.397 1549.52 476.775 1548.09 476.775C1544.79 476.775 1541.48 475.705 1538.21 475.176C1536.33 474.87 1534.59 474.494 1534.47 472.457C1534.4 471.364 1532.05 470.566 1531.28 469.938C1530.01 468.897 1528.01 461.021 1527.81 461.021C1526.64 461.021 1517.26 463.731 1517.26 460.941C1517.26 460.525 1524.78 453.026 1521.56 455.184" stroke="#D9EAF9" stroke-opacity="0.3" stroke-linecap="round"/>
<!-- <path d="M1922.56 466.78C1923.04 466.297 1925.66 469.773 1931.04 470.257C1937.02 470.796 1957.76 474.722 1957.76 464.715C1957.76 457.253 1957.76 449.791 1957.76 442.329C1957.76 438.869 1955.31 428.825 1956.67 432.005C1959.14 437.749 2001.8 435.018 2009.8 431.462C2013.78 429.691 2023.16 428.046 2024.14 422.66C2025.66 414.295 2027 416.688 2033.59 411.141C2041.42 404.557 2042.28 392.527 2048.58 384.625C2053.58 378.363 2064.13 367.498 2072.27 365.173C2076.39 363.995 2061.9 369.249 2060.32 368.542C2052.38 365.012 2040.71 373.725 2034.24 378.757C2024.91 386.014 2009.97 382.669 1998.39 382.669C1989.84 382.669 1971.58 384.963 1965.8 391.471C1956.11 402.375 1948.63 398.155 1937.12 393.753C1922.07 387.997 1909.17 399.13 1904.42 414.835C1902.94 419.737 1905.45 430.869 1901.7 434.613C1897.13 439.189 1888.96 441.408 1883.02 443.742C1878.76 445.416 1876.41 448.989 1872.81 451.566C1868.76 454.454 1862.87 455.123 1859.12 458.195C1847.54 467.667 1859.7 475.642 1867.37 480.472C1872.04 483.41 1875.2 481.729 1880.41 480.907C1888.28 479.663 1911.42 482.438 1916.48 475.473C1920.34 470.158 1931.24 464.518 1924.52 474.604" stroke="#D9EAF9" stroke-opacity="0.3" stroke-linecap="round"/> -->
</svg>
