<svg width="293" height="205" viewBox="0 0 293 205" fill="none" xmlns="http://www.w3.org/2000/svg">
<path d="M102.729 204.294C101.097 204.334 99.4644 204.505 97.8285 204.557C92.5641 204.72 87.3218 204.326 82.0905 203.708C77.815 203.203 73.5175 202.92 69.2126 202.852C66.8231 202.812 64.4298 202.832 62.0403 202.844C55.5958 202.876 49.1514 202.916 42.7106 202.956C42.1077 202.952 41.5048 202.94 40.9019 202.944C36.0051 202.983 30.1084 203.983 25.2153 203.613C24.0132 203.521 22.8074 203.509 21.6089 203.418C19.8333 203.282 18.0614 203.119 16.2894 202.944C15.1424 202.828 13.9991 202.669 12.8521 202.529C11.8301 202.406 10.8118 202.282 9.78982 202.159C7.2569 201.732 4.71661 201.35 2.14692 201.298C1.98517 201.298 1.83077 201.167 1.66901 201.131C1.18375 201.031 0.698485 200.948 0.213222 200.872C0.176459 200.868 0.121316 200.983 0 201.139C0.268365 201.274 0.492616 201.434 0.735248 201.501C1.0514 201.585 1.38227 201.605 1.70577 201.625C2.61013 201.673 3.51816 201.669 4.41884 201.752C6.06947 201.908 7.7201 202.111 9.36706 202.294C9.55822 202.346 9.74571 202.422 9.94055 202.446C11.8081 202.681 13.6756 202.936 15.5468 203.127C17.8151 203.358 20.0906 203.541 22.3662 203.716C23.6934 203.82 25.0205 203.872 26.3476 203.944C28.9026 204.087 32.4539 203.27 35.0089 203.358C36.9646 203.426 38.9278 203.374 40.8872 203.366C41.1298 203.366 41.3761 203.294 41.6188 203.258C41.4791 203.258 41.3394 203.25 41.1997 203.246C41.3394 203.246 41.4791 203.254 41.6188 203.258C41.8173 203.25 42.0195 203.246 42.218 203.238C42.3172 203.25 42.4165 203.27 42.5158 203.266C49.5227 203.246 56.5333 203.222 63.5402 203.195C63.7313 203.195 63.9262 203.123 64.1173 203.083C67.7164 203.063 71.3154 203.071 74.9071 203.39C78.0393 203.669 81.1751 203.932 84.2962 204.314C88.0276 204.772 91.7627 205.015 95.5161 204.999C97.402 204.991 99.2843 204.824 101.17 204.772C103.258 204.716 105.346 204.716 107.434 204.693C107.67 204.693 107.905 204.665 108.14 204.649C108.144 204.589 108.148 204.533 108.151 204.473C107.979 204.422 107.806 204.322 107.629 204.322C105.993 204.298 104.357 204.25 102.725 204.294H102.729ZM62.0403 203.043C62.4777 203.043 62.9189 203.035 63.3564 203.031C62.9189 203.031 62.4777 203.039 62.0403 203.043Z" fill="#3B576B"/>
<path d="M108.361 27.0206C108.383 27.3154 108.405 27.6182 108.482 27.901C108.703 28.7098 108.46 29.3273 107.879 29.8332C107.703 29.9846 107.53 30.14 107.357 30.2954C106.394 31.1599 105.431 32.0244 104.468 32.8889C104.266 33.0483 104.06 33.1997 103.861 33.363C102.244 34.6976 100.655 36.0522 98.8578 37.1278C97.641 37.8569 96.5712 38.8808 95.4389 39.7732C94.9536 40.2034 94.4757 40.6456 93.9721 41.052C93.7809 41.2074 93.542 41.3229 93.3067 41.3747C92.2001 41.6177 91.0752 41.7731 89.9834 42.0719C88.6967 42.4265 87.41 42.8169 86.1748 43.3428C84.9396 43.8687 83.7668 44.5698 82.5794 45.2192C81.5501 45.781 80.5318 46.3746 79.5134 46.9602C79.2377 47.1156 79.0024 47.2869 79.0686 47.7092C79.1532 48.243 79.1863 48.7888 79.2487 49.3267C79.3259 50 79.5245 50.5975 80.0759 50.992C80.2818 51.1394 80.4803 51.3027 80.7266 51.4939C80.37 51.9122 80.1531 52.207 79.9031 52.466C78.7157 53.6811 77.5319 54.8962 76.3261 56.0914C75.9291 56.4818 75.7306 56.9081 75.7049 57.5057C75.6718 58.3184 75.5615 59.1311 75.4365 59.9319C75.3152 60.7088 75.1093 61.4697 74.9917 62.2466C74.6535 64.4776 73.9439 66.5492 72.8631 68.4854C72.1867 69.6966 71.5801 70.9475 70.9404 72.1825C70.4478 72.8957 69.9368 73.5968 69.4626 74.3219C68.9737 75.0709 68.459 75.8119 68.062 76.6207C67.5289 77.7003 66.9517 78.7361 66.2312 79.6724C66.1871 79.7321 66.1466 79.7959 66.1025 79.8556C66.018 79.9911 65.9261 80.1186 65.8525 80.262C64.7938 82.3336 63.724 84.3973 62.6873 86.4809C62.5439 86.7678 62.4777 87.1662 62.5329 87.4809C62.6138 87.9231 62.7829 88.3773 63.0218 88.7438C63.588 89.6242 64.2166 90.4569 64.8489 91.3493C64.5291 91.7955 64.1541 92.2736 63.8233 92.7835C62.9446 94.1381 62.2829 95.5802 62.2682 97.2973C62.2572 98.5762 62.2204 99.859 62.1542 101.134C62.0256 103.608 61.8675 106.078 61.7278 108.552C61.6285 110.289 61.5293 112.03 61.441 113.771C61.3455 115.619 61.0808 117.464 61.3234 119.313C61.4043 119.934 61.1947 120.372 60.8418 120.767C60.5992 121.038 60.3014 121.249 60.0073 121.456C59.6066 121.735 59.1875 121.99 58.7721 122.241C58.4596 122.428 58.2942 122.703 58.2648 123.089C58.1986 123.986 58.1214 124.878 58.0626 125.775C58.0368 126.153 58.1288 126.559 58.0368 126.914C57.7023 128.193 57.8053 129.511 57.6435 130.802C57.4597 132.256 57.3714 133.742 57.0149 135.153C56.0223 139.089 54.5444 142.802 52.3975 146.184C51.6292 147.391 50.9638 148.678 50.269 149.937C49.9271 150.555 49.9896 150.913 50.4638 151.471C50.7028 151.75 50.9527 152.021 51.1843 152.308C51.7137 152.961 52.188 153.674 52.96 154.045C53.0997 154.112 53.1805 154.327 53.2908 154.475C53.3276 154.531 53.368 154.59 53.4048 154.646C53.857 155.821 53.8055 156.993 53.2945 158.12C53.0225 158.726 52.6659 159.287 52.346 159.873C52.2909 159.981 52.2357 160.088 52.1806 160.192V160.188C52.1475 160.248 52.1144 160.311 52.0813 160.371C52.1071 160.483 52.1365 160.594 52.1622 160.71L52.1549 160.766C52.1549 160.766 52.2027 160.789 52.2063 160.789C52.2137 160.821 52.2321 160.845 52.2615 160.849C52.2688 160.909 52.2982 160.941 52.3534 160.949C52.3607 160.985 52.3791 161.005 52.4122 161.013C52.4159 161.068 52.4453 161.104 52.5004 161.112C52.7504 161.574 53.1548 161.977 53.1107 162.57C53.0078 163.981 52.9857 165.407 52.7467 166.789C52.4379 168.562 52.2063 170.327 52.2063 172.132C52.2063 174.339 52.0813 176.538 51.7137 178.713C51.3939 180.586 51.0814 182.462 50.7322 184.327C50.552 185.299 50.5667 186.163 51.4086 186.797C51.5483 186.904 51.6549 187.068 51.7762 187.203C51.8166 187.259 51.8534 187.319 51.8939 187.374C51.9233 187.434 51.9527 187.49 51.9858 187.55C52.0078 187.597 52.0299 187.645 52.0519 187.693C52.0593 188.079 52.063 188.462 52.0703 188.848C51.9563 189.056 51.7983 189.251 51.7395 189.478C51.4784 190.53 51.2285 191.581 51.0189 192.645C50.9417 193.035 50.9417 193.462 50.9785 193.864C51.0336 194.474 51.2799 194.689 51.8461 194.788C52.5372 194.912 53.221 195.083 53.9158 195.191C54.4341 195.27 54.9635 195.31 55.4892 195.326C56.2392 195.35 56.9928 195.326 57.7428 195.35C58.3677 195.37 58.9963 195.517 59.5992 195.207C59.7206 195.187 59.8419 195.175 59.9632 195.151C61.0073 194.952 62.0513 194.753 63.0954 194.553C63.5622 194.649 64.0291 194.808 64.496 194.824C66.0511 194.88 67.6061 194.884 69.1611 194.904C69.7383 194.912 70.3155 194.904 70.8927 194.896C71.7198 194.88 72.547 194.868 73.3741 194.832C73.8741 194.812 74.3741 194.741 74.8777 194.729C75.2049 194.721 75.5762 194.609 75.7821 195.079C75.8188 195.163 76.0982 195.155 76.2636 195.139C76.8371 195.091 77.4106 195.031 77.9804 194.948C78.2231 194.912 78.4657 194.824 78.6936 194.721C79.0466 194.561 79.3737 194.366 79.6862 194.828C79.7524 194.928 80.0171 194.928 80.1715 194.888C80.5281 194.796 80.8737 194.653 81.2266 194.529C80.9031 194.541 80.5906 194.609 80.2781 194.633C80.1421 194.645 79.9472 194.617 79.8737 194.525C79.5428 194.099 79.1568 194.235 78.7672 194.346C78.4841 194.426 78.2047 194.518 78.0797 194.553C77.8003 194.326 77.6606 194.127 77.4915 194.091C77.2305 194.039 76.9033 194.004 76.6827 194.127C76.0872 194.462 75.4659 194.394 74.8446 194.41C74.4182 194.422 73.9917 194.458 73.5653 194.478C72.7124 194.514 71.8632 194.549 71.0103 194.573C70.3596 194.589 69.7052 194.597 69.0545 194.577C67.2238 194.525 65.3967 194.458 63.5659 194.394C63.1027 194.394 62.6395 194.354 62.1836 194.41C61.5954 194.482 61.0109 194.613 60.4301 194.745C60.0955 194.82 59.7684 194.944 59.4412 195.047C59.1912 195.047 58.9375 195.079 58.6912 195.047C57.592 194.912 56.5002 194.832 55.39 194.92C54.8495 194.96 54.2981 194.812 53.754 194.733C53.2835 194.665 52.8203 194.545 52.346 194.49C51.4674 194.382 51.2909 194.235 51.3792 193.251C51.4674 192.283 51.6512 191.318 51.8461 190.366C51.9527 189.844 52.1659 189.35 52.3313 188.844C52.7835 187.809 52.3938 186.952 51.7211 186.279C51.1549 185.709 51.0924 185.127 51.2395 184.378C51.5226 182.912 51.7542 181.434 52.0005 179.964C52.1879 178.845 52.4122 177.729 52.5445 176.606C52.6879 175.391 52.7137 174.164 52.846 172.948C53.0225 171.327 53.1585 169.69 53.482 168.1C53.8386 166.355 54.0849 164.626 53.9599 162.841C53.9525 162.73 54.004 162.61 54.0555 162.359C54.3459 162.674 54.5518 162.905 54.765 163.12C55.787 164.164 56.8163 165.208 57.842 166.251L57.8861 166.307L57.9376 166.255L57.9596 166.251C58.4927 165.905 59.0478 165.586 59.5551 165.2C60.158 164.738 60.7646 164.383 61.5293 164.618C61.7793 164.459 62.0256 164.291 62.2792 164.136C62.7535 163.845 62.9226 163.881 63.3564 164.327C63.4225 164.263 63.485 164.2 63.5512 164.136C63.4519 163.634 63.088 163.538 62.7424 163.682C62.2866 163.869 61.8748 164.18 61.4447 164.439C61.4006 164.196 61.2609 164.279 61.1322 164.331C60.9301 164.339 60.6874 164.164 60.5624 164.487C60.2573 164.582 59.9338 164.63 59.6544 164.781C59.2537 164.996 58.8971 165.311 58.5037 165.538C58.2942 165.658 58.0442 165.694 57.8126 165.765C56.7796 164.658 55.7429 163.558 54.7135 162.447C54.0775 161.762 53.4526 161.06 52.8239 160.367C52.6732 160.176 52.6732 159.989 52.8056 159.774C53.0041 159.459 53.1989 159.14 53.3643 158.805C54.0886 157.339 54.2944 155.833 53.607 154.276C53.5592 153.71 53.3019 153.272 52.9636 152.841C52.2982 151.997 51.688 151.108 51.0446 150.224C51.1365 150.057 51.2137 149.917 51.2873 149.778C52.1622 148.156 53.0408 146.543 53.9084 144.913C54.9047 143.045 55.6179 141.041 56.3605 139.041C57.3604 136.356 57.8677 133.579 58.0111 130.703C58.0589 129.727 58.0516 128.711 58.3052 127.794C58.6103 126.687 58.7868 125.579 58.9118 124.444C59.0735 122.962 59.0883 122.962 60.2647 122.173C60.4779 122.03 60.6984 121.902 60.9117 121.767C60.9705 121.747 61.0293 121.727 61.0918 121.711C61.0918 121.803 61.0881 121.894 61.0844 121.99C60.897 122.822 60.9742 123.583 61.5881 124.201C62.0035 124.866 62.4336 125.516 63.0659 125.97C62.6248 125.269 62.1837 124.567 61.7462 123.866C61.7352 123.818 61.7204 123.771 61.6984 123.727C61.669 123.659 61.6359 123.591 61.6065 123.524C61.4374 123.01 61.5403 122.504 61.6322 121.998C61.7572 121.277 61.8969 120.556 61.9815 119.831C62.0292 119.404 62.0917 118.922 61.9594 118.54C61.7315 117.874 61.7204 117.225 61.7572 116.548C61.8528 114.755 61.9153 112.962 62.0256 111.169C62.1542 109.082 62.3086 106.994 62.4704 104.907C62.6322 102.819 62.816 100.735 62.9924 98.6519C63.0659 97.7873 63.0549 96.8949 63.2498 96.0623C63.6615 94.3014 64.6908 92.9349 65.9297 91.664C66.1062 91.9947 66.279 92.2616 66.4003 92.5564C66.7532 93.413 67.3047 93.7556 68.1906 93.6122C68.8781 93.5006 69.5913 93.5564 70.2934 93.5484C71.1169 93.5365 71.9404 93.5365 72.7639 93.5325C72.8153 93.5325 72.8778 93.5166 72.9109 93.5444C73.6425 94.1102 74.4476 94.6321 74.1976 95.8472C74.1719 95.9786 74.1976 96.1181 74.1976 96.2535C74.1902 96.624 74.3594 96.871 74.6571 97.0264C74.8152 97.1061 74.977 97.1898 75.1424 97.2495C75.5615 97.4009 75.8041 97.6917 75.885 98.1778C75.9218 98.4009 76.0357 98.6399 76.1791 98.8072C76.5467 99.2455 76.9768 99.6239 77.3334 100.074C77.6312 100.449 77.9584 100.747 78.4032 100.891C77.7415 100.074 77.043 99.3012 76.3519 98.5204C76.2673 98.4248 76.1901 98.3013 76.1681 98.1738C76.0504 97.4726 75.6424 97.0862 75.0431 96.891C74.6093 96.7475 74.4696 96.4089 74.5027 95.9468C74.5211 95.7037 74.5579 95.4488 74.5174 95.2137C74.4696 94.9309 74.4071 94.6042 74.2417 94.401C73.8998 93.9787 73.4881 93.6201 73.1058 93.2377L73.091 93.2297C73.0322 93.1859 72.9771 93.1421 72.9183 93.1022H72.9109C72.8595 93.0624 72.8043 93.0186 72.7528 92.9787L72.7308 92.9588C72.3926 92.8951 72.0507 92.8353 71.7125 92.7716H71.7088C70.6206 92.7238 69.5325 92.6759 68.4443 92.6321C67.9737 92.6122 67.5032 92.6042 67.0326 92.5883C66.7459 92.0784 66.4665 91.5604 66.176 91.0545C65.9922 90.7358 65.8084 90.4091 65.5915 90.1143C65.0879 89.441 64.5806 88.7677 64.0475 88.1263C63.5034 87.4689 63.5255 86.8315 63.8637 86.0467C64.7055 84.1065 65.4665 82.1225 66.2606 80.1584C66.3194 80.0588 66.3782 79.9632 66.437 79.8636C66.437 79.8636 66.3893 79.8237 66.3893 79.8198L66.437 79.8636C67.1907 79.1186 67.6833 78.1704 68.1392 77.2023C68.6796 76.0589 69.3339 75.0111 70.1133 74.0351C70.5361 73.5052 70.8596 72.8877 71.2309 72.306C71.8669 71.1945 72.4918 70.079 73.1388 68.9755C75.2159 65.4337 76.3776 61.5653 76.6607 57.3822C76.6827 57.0316 76.7673 56.7647 77.0099 56.5256C78.1054 55.442 79.1899 54.3464 80.2707 53.2469C80.5979 52.9122 80.9361 52.5776 81.2082 52.1871C81.6162 51.6055 81.5023 50.9163 80.9435 50.5019C80.3443 50.0597 79.9619 49.5099 79.9472 48.6972C79.9362 48.2669 79.8811 47.8367 79.8406 47.3586C80.2193 47.1275 80.5869 46.8965 80.9619 46.6813C82.2486 45.9323 83.6088 45.3706 84.9432 44.7411C86.3806 44.0639 87.8328 43.4862 89.3768 43.1954C90.8363 42.9205 92.2957 42.6456 93.7589 42.4066C94.178 42.3388 94.5529 42.1755 94.6191 41.7532C94.7073 41.2273 95.0345 40.9006 95.2624 40.4903C95.3139 40.4783 95.3396 40.4465 95.3433 40.3907C95.3838 40.3787 95.4095 40.3508 95.4168 40.307C95.4646 40.307 95.483 40.2791 95.4793 40.2313C95.5198 40.2234 95.5455 40.1955 95.5565 40.1516C96.8726 38.9326 98.2292 37.7772 99.7732 36.8968C101.534 35.8928 103.038 34.4825 104.607 33.1758C105.747 32.4029 106.887 31.63 108.03 30.8651C108.199 30.7535 108.39 30.6858 108.732 30.5185C108.365 31.6459 108.637 32.4467 109.166 33.1837C109.269 33.3271 109.317 33.5224 109.39 33.6897C109.192 34.5502 108.997 35.4107 108.795 36.2673C108.703 36.6577 108.585 37.0402 108.493 37.4306C108.379 37.9206 108.284 38.4107 108.181 38.9047C108.122 39.8807 108.008 40.8568 108.015 41.8329C108.023 42.554 108.188 43.2751 108.28 43.9922C108.354 44.8288 108.346 45.6814 108.692 46.4622L108.751 47.502C109.1 47.1315 108.883 46.8008 108.82 46.4622C108.673 45.6415 108.53 44.8168 108.387 43.9961C108.379 43.6734 108.379 43.3507 108.365 43.028C108.339 42.4384 108.28 41.8448 108.284 41.2552C108.291 40.4743 108.346 39.6975 108.379 38.9166C108.449 38.6298 108.512 38.3429 108.585 38.0561C108.773 37.331 108.96 36.6099 109.155 35.8848C109.306 35.3151 109.464 34.7494 109.618 34.1837C109.993 33.8291 110.034 33.3909 109.842 32.9248C109.688 32.5543 109.512 32.1957 109.32 31.8451C109.092 31.4188 109.085 31.0364 109.228 30.5424C109.556 29.4348 109.758 28.2914 109.313 27.1401C109.232 26.9249 109.243 26.658 109.251 26.415C109.291 25.3712 109.159 24.3593 108.809 23.3792C108.784 23.3115 108.758 23.2438 108.729 23.1761C108.703 23.0804 108.681 22.9848 108.655 22.8892C108.526 22.7816 108.401 22.6781 108.273 22.5705C108.229 22.8892 108.137 23.2079 108.151 23.5187C108.203 24.682 108.287 25.8413 108.372 27.0006L108.361 27.0206ZM108.648 30.4627C108.666 30.4826 108.681 30.5025 108.695 30.5185C108.662 30.5344 108.633 30.5583 108.596 30.5663C108.585 30.5663 108.563 30.5344 108.548 30.5185C108.581 30.4985 108.611 30.4826 108.648 30.4587V30.4627Z" fill="#3B576B"/>
<path d="M292.846 188.793C292.419 187.98 291.772 187.386 291.177 186.749C290.662 186.195 290.313 185.57 290.243 184.777C290.118 184.382 289.996 183.988 289.846 183.51C290.331 182.131 290.129 180.542 290.39 179.024C290.346 178.295 290.511 177.63 290.853 176.996C291 176.721 291.085 176.391 291.151 176.076C291.25 175.594 291.184 175.128 290.743 174.869C290.471 174.709 290.441 174.462 290.416 174.191C290.265 172.678 290.103 171.164 289.971 169.646C289.938 169.271 289.945 168.873 290.026 168.51C290.232 167.562 290.162 166.622 290.066 165.67C289.96 164.642 289.853 163.61 289.82 162.578C289.794 161.789 289.798 161.009 289.478 160.331C289.982 159.714 290.474 159.168 290.901 158.562C291.324 157.961 291.673 157.296 292.063 156.666C292.485 155.985 292.522 155.315 292.088 154.614C291.636 153.881 291.335 153.081 291.313 152.176C291.309 151.933 291.246 151.69 291.18 151.455C290.261 148.144 289.434 144.802 288.39 141.543C287.53 138.862 286.772 136.165 286.313 133.372C286.324 132.476 286.364 131.575 286.339 130.683C286.324 130.169 286.118 129.711 285.585 129.603C285.173 129.519 284.934 129.225 284.695 128.902C284.254 128.296 284.295 127.583 284.306 126.874C284.32 125.623 284.445 124.36 284.309 123.129C284.019 120.504 283.78 117.882 283.813 115.233C283.762 115.233 283.714 115.229 283.662 115.225C283.64 115.357 283.622 115.488 283.6 115.623C283.622 115.492 283.64 115.361 283.662 115.225C283.714 115.225 283.762 115.233 283.813 115.233C283.839 114.022 283.865 112.807 283.89 111.596C284.041 110.189 284.276 108.791 284.328 107.381C284.42 104.851 284.42 102.317 284.059 99.7992C284.008 99.4487 283.901 99.0981 283.923 98.7515C283.964 98.0782 283.736 97.5324 283.401 97.0065C283.188 96.6718 282.975 96.3292 282.773 95.9866C281.986 94.66 280.905 93.8114 279.457 93.5086C279.126 93.4409 278.876 93.4727 278.626 93.7118C278.361 93.9628 278.082 94.2018 277.788 94.405C277.438 94.648 277.236 94.5245 277.185 94.0664C277.17 93.9309 277.185 93.7954 277.177 93.656C277.115 91.8871 277.005 90.1143 277.012 88.3454C277.012 87.449 276.736 86.716 276.343 85.9789C275.394 84.2141 274.442 82.4492 273.516 80.6683C272.851 79.3895 272.233 78.0788 271.233 77.0629C271.556 75.8239 271.858 74.6167 272.189 73.4176C272.299 73.0152 272.266 72.6845 272.045 72.3419C271.726 71.8519 271.42 71.3499 271.141 70.832C271.009 70.585 270.876 70.2862 270.876 70.0113C270.876 68.9516 270.803 67.86 270.994 66.8361C271.222 65.609 271.137 64.3979 271.141 63.1788C271.141 60.4538 271.141 57.7288 271.134 55.0038C271.134 54.4221 271.023 54.2747 270.487 54.0636C270.086 53.9042 269.678 53.7608 269.288 53.5775C267.38 52.6652 265.487 51.721 263.572 50.8286C262.189 50.1832 260.826 49.502 259.535 48.6534C259.407 48.5697 259.267 48.498 259.123 48.4582C258.609 48.3147 258.256 47.9363 257.899 47.5458C257.421 47.0239 256.929 46.522 256.436 46.016C255.421 44.9762 254.271 44.4822 252.852 44.8965C252.425 45.02 251.914 45.0917 251.51 44.9523C250.098 44.4702 248.694 43.9444 247.415 43.1037C246.705 42.6376 246.003 42.1595 245.29 41.7054C243.966 40.8727 242.547 40.2273 241.301 39.2353C240.025 38.2234 238.728 37.2314 237.217 36.6298C236.996 36.5422 236.79 36.339 236.636 36.1358C235.978 35.2952 235.728 34.3112 235.956 33.2355C236.066 32.7216 235.926 32.4228 235.548 32.1359C233.276 30.4149 230.886 28.9169 228.427 27.5345C227.269 26.8811 226.107 26.2317 224.942 25.5863C224.405 25.2875 223.876 24.9728 223.324 24.7139C220.744 23.4948 218.163 22.2757 215.567 21.0964C213.016 19.9371 210.45 18.8256 207.884 17.7061C207.417 17.5029 206.991 17.2679 206.59 16.9053C205.553 15.9532 203.998 16.0289 203.017 17.0288C202.697 17.3515 202.447 17.7539 202.167 18.1164C201.708 18.0846 201.237 18.0527 200.881 18.0248C200.252 17.1324 199.693 16.3038 199.094 15.499C198.741 15.0249 198.502 14.4433 198.146 14.021C197.425 13.1644 196.591 12.3955 195.466 12.1644C195.245 12.1206 195.032 12.025 194.819 11.9453C192.778 11.1804 190.738 10.4035 188.694 9.64658C187.224 9.0968 185.757 8.52311 184.268 8.03707C182.415 7.43549 180.54 6.90961 178.673 6.3678C177.636 6.069 176.625 5.57897 175.507 5.77817C175.393 5.79809 175.261 5.73036 175.14 5.69451C174.294 5.42758 173.438 5.2005 172.611 4.88577C170.6 4.12085 168.611 4.21647 166.615 4.92561C166.295 5.04114 165.949 5.06505 165.585 5.13676C165.512 4.80211 165.427 4.57104 165.416 4.332C165.376 3.62684 165.004 3.20853 164.475 2.86193C163.549 2.25637 162.633 1.63487 161.74 0.97752C161.056 0.475543 160.306 0.188699 159.516 0.0134052C159.325 -0.0304182 159.064 0.0373089 158.894 0.156827C158.516 0.423751 158.159 0.730515 157.828 1.06517C155.395 3.51131 152.983 5.98932 150.527 8.41156C149.961 8.96931 149.296 9.45137 148.605 9.80196C146.557 10.8418 144.473 11.7979 142.407 12.7979C142.09 12.9533 141.789 13.1166 141.642 13.5269C141.458 14.0289 141.219 14.515 140.954 14.9731C140.127 16.4033 139.223 17.7898 138.855 19.471C138.844 19.5148 138.793 19.5507 138.708 19.6423C138.282 19.5666 137.819 19.4351 137.352 19.4072C136.069 19.3315 134.789 19.2758 133.547 18.8734C133.238 18.7738 132.903 18.73 132.58 18.7101C130.223 18.5587 127.889 17.981 125.514 18.2479C124.569 18.3555 123.867 17.8933 123.198 17.2958C122.948 17.0727 122.731 16.7978 122.489 16.5627C122.209 16.2918 121.911 16.0328 121.625 15.7699C121.301 15.4711 120.945 15.4193 120.573 15.6305C119.662 16.1524 118.698 16.5986 117.868 17.24C116.048 18.6463 114.103 19.7499 111.989 20.5227C111.798 20.5905 111.618 20.6901 111.434 20.7737C110.368 21.0207 109.456 21.6462 108.519 22.204C108.409 22.2677 108.357 22.455 108.28 22.5824C108.409 22.69 108.534 22.7936 108.662 22.9012C108.556 22.5307 108.754 22.3394 109.023 22.2159C109.96 21.7777 110.901 21.3474 111.842 20.9172C113.838 20.2479 115.787 19.4829 117.57 18.2479C118.408 17.6663 119.371 17.2958 120.265 16.8057C120.617 16.6105 120.882 16.6982 121.151 16.9611C121.485 17.2918 121.842 17.5985 122.161 17.9451C123.055 18.9212 124.088 19.3993 125.367 19.0726C125.536 19.0288 125.716 19.0128 125.889 19.0009C128.459 18.8415 131.021 19.0367 133.573 19.3156C135.142 19.4869 136.705 19.7578 138.274 19.9849C138.94 20.0805 139.285 19.957 139.458 19.2877C139.763 18.1164 140.524 17.2639 141.083 16.2719C141.149 16.1524 141.263 16.0567 141.473 15.8177C141.55 16.5468 141.609 17.1045 141.668 17.6583C141.668 18.1204 141.686 18.5826 141.66 19.0447C141.635 19.5307 141.579 20.0168 141.517 20.4988C141.458 20.9291 141.271 21.3474 141.476 21.9649C141.94 20.4351 142.065 19.0567 141.885 17.6424C142.208 16.24 142.116 14.7341 142.903 13.264C145.042 12.1844 147.344 11.029 149.641 9.8657C149.983 9.69439 150.325 9.5191 150.641 9.30396C150.799 9.1964 151.016 8.98525 151.005 8.83784C150.976 8.4753 151.211 8.36375 151.38 8.18846C153.365 6.18055 155.351 4.17264 157.343 2.1727C157.836 1.67471 158.354 1.2046 158.81 0.770355C159.88 1.10501 160.788 1.52332 161.619 2.1727C162.446 2.82209 163.35 3.35593 164.251 3.96548C163.861 4.79015 163.49 5.59889 163.552 6.53512C163.372 6.85782 163.512 7.1367 163.718 7.33589C164.041 7.64664 164.089 8.02512 164.056 8.44343C163.99 9.33583 163.924 10.2282 163.857 11.1246C163.898 11.1246 163.938 11.1246 163.982 11.1167C164.107 10.0569 164.247 8.9972 164.343 7.93747C164.361 7.75421 164.247 7.46736 164.111 7.37972C163.769 7.1606 163.835 6.84188 163.828 6.53114C164.027 6.02119 164.115 5.45149 164.501 5.02122C165.001 5.92159 165.203 6.02518 166.122 5.8698C166.394 5.822 166.662 5.75028 166.931 5.67061C167.659 5.45946 168.372 5.1766 169.111 5.04114C169.721 4.92959 170.364 4.89772 170.975 4.98537C171.919 5.12082 172.857 5.33595 173.776 5.61085C174.463 5.81801 175.206 5.92558 175.761 6.51919C175.875 6.6387 176.077 6.66659 176.246 6.7144C176.585 6.81798 176.926 6.90164 177.265 7.00124C179.423 7.63071 181.573 8.27611 183.735 8.88565C185.268 9.31591 186.775 9.82586 188.238 10.4952C188.999 10.8457 189.779 11.1605 190.565 11.4314C192.073 11.9533 193.594 12.4234 195.102 12.9413C195.627 13.1206 196.219 13.2521 196.627 13.6106C198.127 14.9373 199.539 16.3755 200.41 18.3077C200.462 18.4272 200.546 18.5268 200.557 18.5467C201.024 18.5148 201.41 18.4909 201.8 18.463C201.763 18.5866 201.741 18.718 201.69 18.8375C201.41 19.4949 201.043 20.1244 200.866 20.8096C200.668 21.5865 200.263 22.0526 199.646 22.455C198.745 23.0366 198.124 23.9051 197.837 25.0206C198.116 24.6421 198.41 24.2756 198.668 23.8812C199.046 23.2996 199.454 22.7856 200.079 22.4749C200.517 22.2597 200.782 21.8295 200.98 21.3275C201.381 20.3196 201.807 19.3196 202.447 18.4511C202.487 18.4152 202.509 18.3714 202.517 18.3156C202.55 18.2599 202.579 18.2001 202.612 18.1443C202.645 18.1045 202.667 18.0567 202.675 18.0009C202.712 17.9412 202.748 17.8774 202.781 17.8176C203.318 17.2121 204.002 16.9731 204.748 16.989C205.028 16.997 205.322 17.1205 205.579 17.2559C206.005 17.475 206.391 17.7937 206.829 17.989C210.218 19.5108 213.678 20.8335 217.056 22.4032C220.545 24.0246 224.063 25.5385 227.409 27.5146C229.467 28.7297 231.46 30.0404 233.452 31.367C233.75 31.5662 234.033 31.8053 234.276 32.0802C234.632 32.4786 234.82 32.9248 234.735 33.5463C234.658 34.1199 234.721 34.7494 234.868 35.3072C234.996 35.7972 235.007 36.2155 234.772 36.6298C234.364 37.3469 233.938 38.0561 233.511 38.7573C233.268 39.1556 233.246 39.323 233.603 39.566C234.445 40.1397 234.952 41.0122 235.474 41.8807C235.515 41.9404 235.551 41.9962 235.592 42.056C235.651 42.1317 235.709 42.2074 235.768 42.2831C235.812 42.3149 235.857 42.3468 235.904 42.3787C236.004 42.4305 236.103 42.4862 236.198 42.538H236.206C236.834 43.295 236.879 43.6456 236.404 44.4862C236.195 44.8567 235.952 45.2033 235.706 45.5459C235.353 46.0399 234.963 46.502 234.625 47.008C234.507 47.1833 234.463 47.4383 234.452 47.6614C234.434 48.0319 234.463 48.4104 234.489 48.7809C234.518 49.2111 234.5 49.6573 234.61 50.0637C235.21 52.3027 235.746 54.5496 235.882 56.8882C236.118 55.693 235.838 54.5337 235.702 53.3584C235.489 51.5338 234.739 49.8247 234.798 47.9323C234.812 47.4622 234.864 47.1235 235.132 46.765C235.698 46.0041 236.272 45.2431 236.754 44.4224C237.239 43.5858 237.084 43.052 236.338 42.3986C236.118 42.0719 235.853 41.7691 235.68 41.4185C235.261 40.558 234.919 39.6497 234.239 39.0003C234.684 38.2154 235.099 37.4864 235.467 36.837C236.084 37.1756 236.662 37.4904 237.235 37.8011C237.481 37.9366 237.735 38.0601 237.978 38.1995C239.713 39.1835 241.419 40.2353 243.191 41.1317C245.253 42.1795 247.065 43.6535 248.992 44.9284C250.33 45.8128 251.712 46.3068 253.278 45.8606C254.054 45.6415 254.719 45.8566 255.293 46.4303C255.903 47.0399 256.488 47.6813 257.109 48.2749C257.462 48.6135 257.855 48.9123 258.26 49.1793C258.62 49.4183 259.017 49.5976 259.399 49.7888C260.109 50.1434 260.701 50.8366 261.598 50.6653C261.697 50.6453 261.818 50.7768 261.928 50.8406C263.469 51.7051 264.998 52.5855 266.546 53.4301C267.866 54.1512 269.204 54.8285 270.571 55.5416C270.571 55.5934 270.597 55.705 270.582 55.8085C270.31 57.5455 270.457 59.2785 270.597 61.0195C270.715 62.4816 270.748 63.9597 270.729 65.4258C270.718 66.3979 270.557 67.366 270.461 68.338C270.413 68.8241 270.428 69.33 270.307 69.7962C270.101 70.577 270.299 71.2463 270.63 71.9076C270.751 72.1467 270.854 72.3977 271.005 72.6168C271.284 73.0232 271.318 73.4494 271.211 73.9315C270.887 75.3856 270.586 76.8477 270.303 78.1664C268.939 79.262 267.656 80.2699 266.402 81.3177C266.013 81.6444 265.708 82.0986 265.362 82.493C265.307 82.5926 265.252 82.6922 265.197 82.7918C265.178 82.8794 265.16 82.9671 265.141 83.0547V85.2738C263.627 85.5965 262.502 86.8634 261.138 87.696C261.763 87.4371 262.428 87.2219 262.95 86.8036C263.528 86.3455 264.09 85.9351 264.792 85.7718C264.914 85.7439 265.02 85.6602 265.138 85.6164C265.513 85.477 265.616 85.218 265.538 84.7957C265.454 84.3455 265.45 83.8794 265.41 83.4212C265.413 83.3217 265.421 83.2221 265.425 83.1225C265.447 83.0667 265.469 83.0149 265.491 82.9591C266.064 82.4771 266.627 81.9751 267.219 81.5169C267.873 81.011 268.553 80.5448 269.218 80.0548C269.487 79.8556 269.718 79.5688 270.012 79.4373C270.568 79.1903 270.924 78.8039 270.998 78.2023C271.413 77.9792 271.667 78.0987 271.869 78.4652C272.152 78.9792 272.479 79.4652 272.748 79.9911C273.994 82.4213 275.2 84.8714 276.086 87.4928C276.247 87.9709 276.428 88.4649 276.464 88.9669C276.56 90.3772 276.578 91.7955 276.641 93.2098C276.663 93.7715 276.718 94.3333 276.762 94.9747C276.269 95.1221 275.707 95.2575 275.167 95.4528C274.431 95.7157 274.376 95.9308 274.821 96.6081C275.273 97.2973 275.281 97.9706 274.814 98.62C273.865 99.9347 272.817 101.138 271.516 102.066C270.994 102.441 270.501 102.875 270.02 103.309C269.873 103.441 269.59 103.572 269.777 103.891C269.902 103.974 270.09 104.026 270.137 104.142C270.31 104.572 270.435 105.022 270.608 105.544C270.325 105.819 269.987 106.138 269.66 106.464C269.347 106.775 269.042 107.098 268.733 107.413C268.312 107.843 268.091 108.176 268.071 108.413C268.579 107.911 269.126 107.361 269.682 106.819C270.034 106.472 270.402 106.146 270.751 105.799C270.968 105.584 271.152 105.253 270.909 105.022C270.424 104.564 270.494 103.966 270.428 103.397C270.457 103.393 270.476 103.373 270.483 103.341C270.52 103.309 270.557 103.273 270.593 103.241C272.406 102.026 274.005 100.556 275.281 98.6877C275.733 98.0264 275.924 97.3451 275.751 96.5483C275.714 96.3691 275.655 96.1978 275.6 95.9946C275.847 95.895 276.056 95.8033 276.266 95.7197C276.828 95.4966 277.457 95.3771 277.942 95.0305C278.6 94.5604 279.155 94.3851 279.938 94.7396C280.629 95.0544 281.236 95.4129 281.732 96.0225C282.798 97.3292 283.331 98.9028 283.574 100.572C284.056 103.903 284.078 107.253 283.442 110.56C283.104 112.325 283.144 114.082 283.195 115.839C283.247 117.683 283.46 119.528 283.626 121.368C283.791 123.185 283.956 125.002 283.67 126.822C283.615 127.165 283.615 127.539 283.67 127.882C283.846 129.025 284.089 130.109 285.25 130.631C285.736 130.85 286.078 131.308 286.037 131.982C286.011 132.44 286.063 132.906 286.078 133.368C286.195 134.252 286.247 135.157 286.442 136.021C286.875 137.949 287.408 139.854 287.857 141.778C288.519 144.603 289.177 147.423 290.059 150.176C290.324 150.997 290.702 151.778 290.919 152.61C291.107 153.328 291.364 153.993 291.699 154.63C292.129 155.451 292.077 155.814 291.456 156.479C291.243 156.706 291.015 156.925 290.824 157.172C290.228 157.941 289.655 158.73 289.055 159.491C288.761 159.865 288.669 160.168 288.927 160.499C289.28 160.957 289.346 161.475 289.331 162.024C289.32 162.542 289.247 163.06 289.272 163.57C289.327 164.63 289.445 165.682 289.511 166.741C289.537 167.144 289.489 167.554 289.471 167.961C289.449 168.474 289.368 168.988 289.401 169.494C289.474 170.578 289.574 171.662 289.717 172.737C289.824 173.542 289.89 174.395 290.195 175.116C290.504 175.849 290.496 176.442 290.184 177.12C289.901 177.733 289.861 178.375 290.147 179.008C289.978 180.582 289.813 182.151 289.644 183.709C289.776 184.052 289.919 184.41 290.059 184.769C290.037 184.964 290.011 185.159 289.989 185.358C289.938 185.358 289.883 185.358 289.831 185.358C289.471 184.841 288.997 184.374 288.769 183.797C288.225 182.422 287.662 181.064 286.839 179.849C286.736 179.697 286.669 179.514 286.6 179.339C286.408 178.841 286.217 178.339 286.034 177.833C285.795 177.175 285.787 176.558 286.331 176.056C286.559 175.845 286.791 175.638 287.03 175.438C287.298 175.215 287.456 174.928 287.305 174.59C287.044 173.992 286.64 173.554 285.909 173.411C286.085 173.928 286.225 174.351 286.342 174.697C285.909 175.227 285.519 175.689 285.148 176.163C284.909 176.47 284.887 176.821 285.118 177.14C285.978 178.319 286.17 179.908 287.158 181.008C287.239 181.1 287.265 181.251 287.313 181.378C287.684 182.295 288.044 183.219 288.438 184.127C288.574 184.442 288.78 184.725 288.989 184.996C289.357 185.47 289.761 185.912 290.125 186.39C290.408 186.765 290.632 187.195 290.912 187.573C291.287 188.083 291.691 188.569 292.081 189.067H292.088C292.103 189.123 292.136 189.159 292.188 189.175V189.211H292.224C292.268 189.259 292.313 189.303 292.357 189.35L292.364 189.358C292.415 189.402 292.467 189.442 292.522 189.486C292.632 189.856 292.699 190.207 292.404 190.549C292.305 190.665 292.246 190.924 292.29 191.075C292.566 192.016 292.32 192.92 292.151 193.816C291.86 195.354 291.511 196.88 291.184 198.41C290.706 198.39 290.195 198.334 289.688 198.358C289.085 198.386 288.486 198.478 287.886 198.561C285.243 198.92 282.596 199.29 279.953 199.637C275.637 200.207 271.314 200.047 266.994 199.772C263.858 199.573 260.726 199.318 257.59 199.063C253.98 198.768 250.374 198.466 246.768 198.139C243.135 197.808 239.511 197.43 235.879 197.111C233.121 196.868 230.364 196.665 227.603 196.466C225.372 196.306 223.137 196.179 220.902 196.047C218.744 195.92 216.582 195.808 214.424 195.697C212.365 195.589 210.307 195.49 208.244 195.386C207.138 195.334 206.031 195.286 204.925 195.235C204.873 195.235 204.818 195.227 204.767 195.223C203.458 195.171 202.153 195.119 200.844 195.067C200.793 195.067 200.741 195.059 200.69 195.055C200.594 195.027 200.498 194.98 200.403 194.98C198.638 194.952 196.874 194.928 195.105 194.9C195.002 194.9 194.9 194.892 194.8 194.888C194.576 194.86 194.355 194.812 194.131 194.808C191.466 194.745 188.801 194.705 186.139 194.625C182.746 194.521 179.356 194.378 175.963 194.263C174.43 194.211 172.897 194.191 171.368 194.155C170.269 194.127 169.166 194.099 168.067 194.067C166.302 194.019 164.541 193.976 162.777 193.928C159.608 193.928 156.435 193.928 153.266 193.928C152.99 193.92 152.715 193.896 152.439 193.9C149.406 193.956 146.37 193.988 143.337 194.079C140.907 194.151 138.477 194.29 136.047 194.398C135.175 194.446 134.304 194.494 133.433 194.545C133.245 194.549 133.062 194.557 132.874 194.561C130.415 194.689 127.955 194.776 125.5 194.952C122.445 195.167 119.39 195.438 116.338 195.713C114.585 195.868 112.839 196.063 111.089 196.266C108.144 196.609 105.199 196.984 102.255 197.326C99.3357 197.669 96.4131 197.992 93.4905 198.334C93.3177 198.354 93.1486 198.446 92.8398 198.553C93.3582 198.991 93.8361 199.031 94.2919 199.111C97.2182 199.625 100.144 200.159 103.078 200.621C104.791 200.892 106.523 201.043 108.243 201.25C108.199 201.163 108.151 201.071 108.107 200.983C106.563 200.772 105.016 200.589 103.471 200.35C101.905 200.107 100.343 199.812 98.7806 199.529C97.277 199.258 95.7587 199.091 94.2699 198.669C94.5125 198.541 94.7514 198.493 94.9941 198.466C98.8688 198.015 102.747 197.609 106.615 197.111C115.258 196.004 123.922 195.235 132.62 194.868C133.345 194.836 134.073 194.772 134.797 194.725C135.326 194.697 135.855 194.673 136.385 194.645C137.069 194.617 137.749 194.593 138.433 194.565C140.116 194.51 141.8 194.426 143.484 194.402C148.16 194.326 152.836 194.255 157.516 194.223C159.931 194.207 162.343 194.267 164.758 194.298C166.868 194.326 168.982 194.354 171.092 194.386C171.166 194.402 171.239 194.434 171.313 194.438C174.099 194.553 176.89 194.673 179.676 194.776C183.069 194.9 186.459 195.015 189.852 195.127C193.973 195.262 198.094 195.382 202.215 195.537C205.153 195.649 208.09 195.792 211.027 195.948C214.391 196.123 217.751 196.322 221.115 196.521C222.747 196.617 224.376 196.733 226.004 196.832C227.133 196.9 228.261 196.952 229.39 197.007L229.438 197.015C230.125 197.067 230.816 197.119 231.504 197.171L231.552 197.179C232.191 197.227 232.827 197.278 233.463 197.326L233.529 197.338C234.162 197.394 234.798 197.446 235.43 197.501L235.478 197.509C236.015 197.557 236.555 197.605 237.092 197.653L237.162 197.665C237.742 197.721 238.323 197.772 238.908 197.828L238.956 197.836C239.492 197.888 240.029 197.94 240.569 197.992L240.617 197.999C241.154 198.051 241.694 198.103 242.231 198.155L242.279 198.163C242.816 198.215 243.356 198.266 243.893 198.318L243.941 198.326C244.477 198.378 245.018 198.43 245.554 198.482L245.606 198.489C246.143 198.541 246.679 198.593 247.216 198.645L247.268 198.653C247.804 198.701 248.341 198.752 248.878 198.8L248.94 198.812C249.473 198.86 250.006 198.912 250.539 198.96L250.606 198.972C251.186 199.019 251.764 199.067 252.344 199.119C252.411 199.127 252.477 199.139 252.543 199.147C253.135 199.195 253.723 199.246 254.315 199.294C254.591 199.322 254.863 199.35 255.138 199.374C257.969 199.621 260.8 199.892 263.634 200.103C266.094 200.282 268.557 200.394 271.016 200.533C274.722 200.736 278.402 200.493 282.071 199.916C284.556 199.525 287.048 199.167 289.541 198.84C290.048 198.772 290.585 198.876 291.099 198.968C291.618 199.059 291.827 198.912 291.915 198.33C292.04 197.501 292.173 196.669 292.342 195.848C292.618 194.51 292.912 193.139 292.647 191.804C292.485 190.996 292.54 190.346 292.846 189.657C292.868 189.609 292.882 189.557 292.901 189.506C293.085 189.247 292.982 189.052 292.846 188.789V188.793Z" fill="#3B576B"/>
<path d="M224.486 100.747C223.89 101.536 223.383 102.401 222.843 103.233C223.791 102.01 224.74 100.787 225.684 99.5602C225.795 99.4168 225.931 99.2495 225.949 99.0781C226.085 97.7834 226.298 96.4726 225.673 95.2456C225.497 94.899 225.269 94.5843 225.045 94.2217C225.346 93.9309 225.611 93.644 225.905 93.397C227.541 92.0385 229.203 90.7198 230.813 89.3294C231.452 88.7757 231.989 88.0745 232.552 87.4171C232.728 87.214 232.864 86.9431 232.724 86.6482C232.272 87.2299 231.879 87.8235 231.405 88.3295C230.868 88.8992 230.272 89.4051 229.68 89.9071C228.195 91.1621 226.695 92.3971 225.21 93.652C224.942 93.8791 224.626 94.0863 224.581 94.5683C225.409 94.9428 225.618 95.7436 225.717 96.5962C225.751 96.891 225.717 97.1937 225.703 97.4925C225.603 99.3291 225.578 99.3092 224.493 100.747H224.486Z" fill="#3B576B"/>
<path d="M130.988 82.3057C132.168 82.7719 133.337 83.2738 134.547 83.6284C136.51 84.2021 138.499 84.6722 140.524 85.1981C141.046 86.9271 140.524 88.6641 140.443 90.421C140.778 90.441 141.05 90.4569 141.322 90.4728C141.646 90.5884 141.969 90.7876 142.296 90.8075C143.179 90.8553 143.8 91.2895 144.212 92.1182C144.27 92.0664 144.326 92.0146 144.384 91.9628C144.006 90.9828 143.362 90.3971 142.355 90.3334C142.112 90.3175 141.87 90.2298 141.631 90.174C141.318 90.1103 141.006 90.0465 140.679 89.9788C140.697 88.2617 141.197 86.5686 140.738 84.9152C137.19 83.9312 133.631 83.2898 130.297 81.752C130.51 81.9791 130.731 82.2101 130.992 82.3137L130.988 82.3057Z" fill="#3B576B"/>
<path d="M127.742 155.578C127.22 156.2 127.102 156.901 127.257 157.694C127.334 158.092 127.393 158.495 127.444 158.897C127.521 159.527 127.536 159.59 128.102 159.686C129.213 159.877 130.007 160.578 130.687 161.483C130.859 161.714 131.032 161.945 131.209 162.176C131.257 162.232 131.301 162.287 131.348 162.343L131.352 162.347C131.631 162.913 132.157 163.032 132.661 163.204C133.33 163.431 134.01 163.634 134.646 163.945C136.256 164.738 137.933 165.303 139.649 165.745C138.782 165.415 137.903 165.116 137.028 164.805C136.627 164.662 136.227 164.502 135.833 164.335C134.951 163.953 134.091 163.499 133.187 163.184C132.514 162.949 131.962 162.586 131.492 162.036C131.025 161.168 130.547 160.303 130.098 159.423C129.841 158.913 129.503 158.654 128.948 158.73C128.632 158.774 128.304 158.738 128.018 158.738C127.378 157.455 127.327 156.622 127.801 155.746C128.213 154.985 128.179 154.873 127.441 154.491L127.433 154.499C128.132 154.849 128.198 155.025 127.738 155.574L127.742 155.578Z" fill="#3B576B"/>
<path d="M273.362 143.838C273.439 143.415 273.564 142.981 273.538 142.559C273.475 141.523 273.259 140.531 272.817 139.579C272.288 138.44 271.792 137.268 271.428 136.061C270.979 134.583 270.527 133.117 269.851 131.743C269.81 131.687 269.766 131.631 269.726 131.575C269.678 131.412 269.634 131.245 269.586 131.081C269.546 131.097 269.505 131.113 269.465 131.129C269.52 131.276 269.571 131.42 269.626 131.567C269.652 131.579 269.674 131.591 269.696 131.607C269.674 131.591 269.649 131.579 269.626 131.567C269.66 131.627 269.693 131.683 269.726 131.743C269.851 132.125 269.972 132.507 270.104 132.886C270.292 133.42 270.531 133.938 270.671 134.483C271.156 136.348 271.766 138.153 272.612 139.874C273.277 141.232 273.534 142.694 272.972 144.204C272.935 144.304 272.917 144.415 272.895 144.519C272.751 145.244 272.803 145.296 273.354 145.726C273.906 146.152 274.413 146.638 274.939 147.101C275.034 147.184 275.13 147.276 275.225 147.364C275.236 147.089 275.17 146.878 275.038 146.75C274.549 146.284 274.064 145.802 273.523 145.415C273.189 145.176 273.082 144.925 273.174 144.539C273.229 144.304 273.325 144.077 273.369 143.838H273.362Z" fill="#3B576B"/>
<path d="M235.875 56.9081C235.875 56.9081 235.875 56.8962 235.875 56.8922C235.875 56.9001 235.875 56.9041 235.875 56.9121H235.879L235.875 56.9081Z" fill="#3B576B"/>
<path d="M140.322 25.0724C140.164 26.4787 139.932 27.8811 139.885 29.2914C139.774 32.6698 139.756 36.0482 139.693 39.4266C139.682 39.9126 139.616 40.3986 139.591 40.8887C139.572 41.2671 139.451 41.6536 139.66 42.0321C139.771 41.7612 139.807 41.4823 139.815 41.2034C139.826 40.5779 139.734 39.9365 139.837 39.327C140.157 37.3788 140.142 35.4068 140.087 33.4546C140.024 31.0961 140.267 28.7775 140.421 26.4429C140.465 25.7935 140.528 25.1441 140.583 24.4947C140.546 24.4828 140.51 24.4669 140.473 24.4549C140.421 24.6581 140.348 24.8613 140.322 25.0684V25.0724Z" fill="#3B576B"/>
<path d="M214.67 125.962C214.725 125.97 214.777 125.978 214.832 125.982C214.873 125.731 214.928 125.484 214.95 125.229C215.027 124.388 215.112 123.548 215.152 122.707C215.248 120.775 215.336 118.842 215.398 116.91C215.439 115.667 215.428 114.42 215.442 112.99C215.277 114.09 214.994 115.03 215.027 115.958C215.115 118.42 214.88 120.858 214.777 123.308C214.74 124.193 214.703 125.077 214.667 125.958L214.67 125.962Z" fill="#3B576B"/>
<path d="M108.714 62.3024C109.074 58.3941 109.339 54.4819 109.512 50.5537C109.162 51.0358 108.545 61.641 108.714 62.3024Z" fill="#3B576B"/>
<path d="M163.589 13.8974C163.618 13.9612 163.644 14.0249 163.674 14.0887C163.674 14.1405 163.688 14.1843 163.718 14.2241C163.754 14.2879 163.791 14.3516 163.828 14.4114C163.839 14.4672 163.865 14.507 163.909 14.5349C164.133 14.6146 164.357 14.75 164.585 14.758C165.019 14.7739 165.361 14.9134 165.6 15.3277C165.662 15.4353 165.773 15.507 165.883 15.6185C166.026 15.5149 166.166 15.4512 166.258 15.3357C166.879 14.5946 167.464 13.8098 168.114 13.0967C168.997 12.1365 169.931 11.2362 170.842 10.3079C171.085 10.1286 171.331 9.95733 171.566 9.7661C171.769 9.59877 172.133 9.65057 172.261 9.22428C171.504 9.33583 171.118 9.89757 170.636 10.292C170.269 10.5669 169.861 10.7979 169.541 11.1326C168.743 11.9613 167.978 12.8298 167.206 13.6903C166.795 14.1484 166.39 14.6146 166.001 15.0528C165.743 14.8576 165.541 14.7062 165.343 14.5508C164.765 14.1524 164.431 13.6186 164.387 12.8417C164.365 12.4274 164.192 12.021 164.085 11.6107C164.056 11.5469 164.023 11.4832 163.993 11.4194C163.986 11.3159 163.982 11.2123 163.975 11.1047C163.935 11.1087 163.894 11.1127 163.85 11.1127C163.758 11.5868 163.633 12.0569 163.589 12.5349C163.545 12.9772 163.582 13.4313 163.585 13.8815L163.589 13.8974Z" fill="#3B576B"/>
<path d="M90.3767 118.384C90.4135 118.739 90.4723 119.089 90.5201 119.444C90.6488 119.002 90.6782 118.576 90.6451 118.153C90.465 116.018 90.2664 113.882 90.0789 111.747C90.0495 111.412 90.0128 111.098 89.6709 110.962C89.7003 111.385 89.7187 111.807 89.7591 112.225C89.9613 114.277 90.1672 116.333 90.3767 118.384Z" fill="#3B576B"/>
<path d="M89.6709 110.962C89.6709 110.962 89.6709 110.954 89.6709 110.95L89.6635 110.958C89.6635 110.958 89.6672 110.958 89.6709 110.958V110.962Z" fill="#3B576B"/>
<path d="M175.706 30.5902C176.301 30.7615 176.882 31.0085 177.478 31.1798C177.676 31.2356 177.908 31.1639 178.243 31.1439C177.757 30.889 177.379 30.7695 177.096 30.5224C176.573 30.0683 176.011 29.9328 175.353 29.9727C174.68 30.0125 173.982 30.0762 173.346 29.646C173.515 30.136 173.519 30.1161 174.026 30.2077C174.588 30.3113 175.151 30.4268 175.702 30.5862L175.706 30.5902Z" fill="#3B576B"/>
<path d="M234.974 70.7921C234.993 70.3021 234.989 69.8121 235.022 69.3221C235.088 68.3221 235.173 67.3261 235.243 66.3301C235.243 66.2983 235.18 66.2624 235.066 66.1429C234.658 69.4296 234.654 72.6686 234.489 75.8956C234.551 75.9155 234.614 75.9314 234.68 75.9514C234.728 75.7283 234.805 75.5012 234.812 75.2741C234.875 73.7801 234.923 72.2861 234.974 70.7882V70.7921Z" fill="#3B576B"/>
<path d="M169.504 25.2477C169.522 25.2318 169.541 25.2158 169.559 25.1999C168.857 23.1243 168.159 21.0486 167.442 18.9252C167.173 19.3276 167.295 19.6742 167.42 20.0287C167.872 21.3275 168.302 22.6342 168.784 23.9171C168.96 24.3872 169.261 24.8055 169.508 25.2477H169.504Z" fill="#3B576B"/>
<path d="M281.361 162.439C281.909 164.335 282.824 166.056 283.596 167.845C283.626 167.909 283.721 167.941 283.784 167.984C283.813 167.957 283.842 167.929 283.872 167.901C283.07 165.953 282.269 164.004 281.468 162.056C281.387 161.558 281.328 161.048 280.909 160.718C281.049 161.212 281.192 161.706 281.332 162.2C281.339 162.279 281.335 162.367 281.357 162.443L281.361 162.439Z" fill="#3B576B"/>
<path d="M65.5033 131.42C65.7349 131.691 65.9224 132.037 66.2018 132.217C67.3745 132.966 68.3928 133.898 69.2861 135.001C69.3266 135.001 69.367 135.001 69.4075 135.009C68.5288 133.272 67.0694 132.276 65.4996 131.416L65.5033 131.42Z" fill="#3B576B"/>
<path d="M88.5276 109.711C88.2408 108.632 87.4468 108.046 86.763 107.349C86.6858 107.269 86.524 107.293 86.4027 107.269C86.5939 107.715 86.8622 108.026 87.1306 108.337C87.535 108.807 88.046 109.177 88.1747 109.883C88.2225 110.154 88.4246 110.325 88.7371 110.305C88.9136 110.293 89.0937 110.385 89.2702 110.436C89.0092 110.197 88.6085 110.006 88.5312 109.711H88.5276Z" fill="#3B576B"/>
<path d="M64.8857 164.375C65.5842 163.841 66.2496 163.263 66.9297 162.698C67.0326 162.614 67.1135 162.503 67.2054 162.403C67.176 162.359 67.1466 162.315 67.1172 162.271C66.915 162.403 66.7054 162.526 66.5069 162.67C65.904 163.116 65.3195 163.582 64.7092 164.016C64.3489 164.271 63.9593 164.487 63.5365 164.136C63.4703 164.2 63.4078 164.263 63.3417 164.327C63.8049 164.757 64.3306 164.797 64.8894 164.371L64.8857 164.375Z" fill="#3B576B"/>
<path d="M141.226 51.239C141.226 51.3505 141.271 51.4581 141.296 51.5696C141.348 51.5616 141.403 51.5577 141.454 51.5497V44.9921C141.495 44.3467 141.69 43.7053 141.487 43.052C141.263 43.6814 141.186 44.3228 141.307 44.9842C141.263 45.3029 141.182 45.6216 141.182 45.9403C141.182 47.7092 141.204 49.4741 141.226 51.2429V51.239Z" fill="#3B576B"/>
<path d="M72.83 139.993C73.1535 140.129 73.3851 140.332 73.5248 140.678C73.5873 140.834 73.6939 140.969 73.7785 141.117C73.8042 140.252 73.1719 139.806 72.8558 139.073C72.7602 139.308 72.7124 139.42 72.6462 139.587C72.3889 139.085 72.1536 138.631 71.8485 138.037C71.8227 138.985 72.2345 139.746 72.83 139.993Z" fill="#3B576B"/>
<path d="M219.6 106.444C219.218 106.791 218.839 107.146 218.468 107.508C218.277 107.699 218.122 107.926 218.152 108.313C218.567 107.811 218.898 107.337 219.302 106.946C219.935 106.337 220.637 105.807 221.273 105.201C221.846 104.652 222.427 104.09 222.776 103.321C222.64 103.413 222.475 103.48 222.376 103.608C221.56 104.684 220.574 105.556 219.597 106.44L219.6 106.444Z" fill="#3B576B"/>
<path d="M222.78 103.321C222.78 103.321 222.787 103.317 222.795 103.313C222.813 103.285 222.828 103.257 222.846 103.233C222.828 103.257 222.806 103.285 222.787 103.309C222.787 103.313 222.784 103.317 222.78 103.325V103.321Z" fill="#3B576B"/>
<path d="M213.068 129.42C213.439 128.077 213.424 126.711 213.251 125.336C213.027 126.687 213.086 128.053 213.068 129.42Z" fill="#3B576B"/>
<path d="M155.884 119.249C155.781 117.998 155.685 116.866 155.59 115.735C155.215 117.297 155.336 118.707 155.884 119.249Z" fill="#3B576B"/>
<path d="M143.752 169.156C143.752 169.749 143.752 170.283 143.752 170.817C143.752 171.539 143.824 172.031 143.969 172.291C144.256 170.271 144.212 169.55 143.748 169.156H143.752Z" fill="#3B576B"/>
<path d="M145.855 170.642C145.8 170.371 145.833 170.056 145.48 169.889C145.546 170.873 145.605 171.797 145.667 172.725C145.759 172.737 145.851 172.745 145.943 172.757C146.009 172.522 146.2 172.16 146.123 172.068C145.745 171.634 145.95 171.108 145.855 170.642Z" fill="#3B576B"/>
<path d="M183.79 37.4386C184.172 36.2952 184.22 33.9964 183.886 33.3232C184.051 34.7096 183.588 35.9964 183.79 37.4386Z" fill="#3B576B"/>
<path d="M184.816 169.63C184.963 169.235 185.018 168.805 185.117 168.387C185.146 167.55 185.169 166.714 185.209 165.877C185.216 165.698 185.235 165.486 185.327 165.347C186.117 164.152 186.889 162.929 188.076 162.14C189.554 161.16 191.043 160.204 192.525 159.236C192.889 158.997 193.264 158.774 193.62 158.519C193.98 158.26 194.109 157.905 193.911 157.431C193.811 158.136 193.315 158.391 192.83 158.674C192.01 159.148 191.201 159.642 190.389 160.128C188.282 161.395 186.334 162.849 185.025 165.128C184.834 165.463 184.72 165.737 184.893 166.096C184.915 166.168 184.937 166.239 184.955 166.307C184.948 167 184.937 167.694 184.93 168.387C184.529 169.626 184.124 170.865 183.724 172.104C184.139 171.291 184.503 170.466 184.819 169.622L184.816 169.63Z" fill="#3B576B"/>
<path d="M109.177 64.2585C109.567 62.2824 109.589 61.7366 109.276 61.1271C109.148 62.2506 109.015 63.2466 109.177 64.2585Z" fill="#3B576B"/>
<path d="M110.129 63.0314L109.879 62.9756C109.695 63.3979 109.754 63.8999 109.714 64.3541C109.67 64.868 109.703 65.3899 109.703 65.9078C109.754 65.9078 109.809 65.9078 109.861 65.9078C109.949 64.9477 110.037 63.9876 110.125 63.0274L110.129 63.0314Z" fill="#3B576B"/>
<path d="M153.376 115.739C153.093 116.922 153.075 117.958 153.663 118.93C153.571 117.906 153.479 116.882 153.376 115.739Z" fill="#3B576B"/>
<path d="M92.1266 116.221C91.6855 117.269 91.7149 118.345 92.1376 118.986C92.1891 118.707 92.3141 118.46 92.2479 118.337C91.9943 117.87 92.1119 117.396 92.1266 116.918C92.134 116.687 92.1266 116.452 92.1266 116.221Z" fill="#3B576B"/>
<path d="M181.933 173.964C181.831 174.542 181.753 175.124 181.665 175.705C182.121 175.088 182.364 173.602 182.176 173.072C182.084 173.403 181.985 173.677 181.933 173.964Z" fill="#3B576B"/>
<path d="M172.526 28.4189C172.397 28.2994 172.349 28.2157 172.291 28.2038C171.78 28.0843 171.408 27.7735 171.103 27.3154C170.875 26.9728 170.578 26.6819 170.309 26.3712C170.173 26.1401 170.037 25.909 169.901 25.678C169.872 25.6979 169.842 25.7218 169.813 25.7417C169.953 25.9847 170.089 26.2278 170.228 26.4708C170.511 26.8771 170.831 27.2596 171.063 27.6978C171.386 28.3074 171.89 28.3592 172.526 28.4189Z" fill="#3B576B"/>
<path d="M64.8857 128.846C64.893 128.755 64.7938 128.655 64.6541 128.388C64.6247 128.998 64.5953 129.4 64.5842 129.802C64.5585 130.559 64.8636 131.101 65.5033 131.42C64.9371 130.663 64.8122 129.786 64.8857 128.85V128.846Z" fill="#3B576B"/>
<path d="M235.732 60.5136C235.776 60.5295 235.82 60.5375 235.864 60.5335C235.868 59.6132 235.871 58.6889 235.875 57.7686C235.875 57.4898 235.875 57.2149 235.871 56.936C235.834 57.2149 235.798 57.4937 235.761 57.7726C235.75 58.6849 235.743 59.5973 235.732 60.5136Z" fill="#3B576B"/>
<path d="M140.763 42.3109C140.653 42.1476 140.561 41.6377 140.105 41.9922C140.23 42.3548 140.352 42.7053 140.506 43.1595C140.741 42.5619 141.124 42.5301 141.605 42.7452C141.418 42.2193 141.065 42.5579 140.763 42.3109Z" fill="#3B576B"/>
<path d="M73.4513 160.989C73.7491 160.634 74.0322 160.299 74.3116 159.961C74.3263 159.945 74.2858 159.873 74.2674 159.809C74.0947 159.897 73.9219 159.981 73.7601 160.064C73.6204 159.897 73.5065 159.762 73.3741 159.598C73.2087 159.71 73.0653 159.805 72.9219 159.901C72.6389 160.032 72.3595 160.16 72.0764 160.291C72.0139 160.343 71.9514 160.395 71.8889 160.447C71.9073 160.351 71.922 160.26 71.9404 160.164C71.8889 160.032 71.8374 159.897 71.786 159.766C71.6941 159.841 71.5838 159.901 71.5139 159.997C71.4551 160.076 71.4478 160.196 71.4147 160.295C70.9294 160.487 70.6169 160.865 70.3743 161.319C70.4147 161.359 70.4515 161.403 70.4919 161.443C70.8007 161.08 71.1059 160.722 71.4147 160.363C71.4257 160.61 71.4367 160.857 71.4514 161.268C72.0543 160.785 72.5433 160.395 73.0322 160.005C73.1278 159.985 73.2197 159.965 73.3226 159.945C73.2883 160.391 73.3337 160.739 73.4587 160.989H73.4513ZM73.5837 160.248L73.5984 160.303H73.5579L73.5837 160.248Z" fill="#3B576B"/>
<path d="M125.297 153.208C123.9 152.471 122.511 151.718 121.106 151.005C119.952 150.415 118.779 149.865 117.607 149.312C117.379 149.204 117.132 149.053 116.798 149.208C117.871 149.758 118.879 150.284 119.893 150.794C121.595 151.65 123.305 152.499 125.011 153.347C125.253 153.475 125.492 153.614 125.738 153.734C126.301 153.997 126.871 154.248 127.437 154.503L127.444 154.495C126.863 153.802 126.062 153.535 125.294 153.208H125.297Z" fill="#3B576B"/>
<path d="M144.899 93.1899C145.498 93.3612 146.153 93.5484 146.752 93.1022C146.91 93.1022 147.068 93.1022 147.226 93.1062C147.417 93.1301 147.608 93.154 147.796 93.1779C148.204 93.3612 148.612 93.5445 149.02 93.7277C149.248 93.8313 149.48 94.0345 149.7 94.0225C150.469 93.9747 150.829 94.393 150.98 95.142C150.998 95.2376 151.086 95.3173 151.141 95.405C151.196 96.0782 151.329 96.7595 151.292 97.4288C151.185 99.357 150.987 101.277 150.866 103.202C150.748 105.126 150.674 107.058 150.601 108.986C150.582 109.42 150.693 109.859 150.656 110.289C150.535 111.751 150.424 113.205 150.744 114.488C150.803 113.321 150.891 112.002 150.932 110.679C150.954 109.974 150.891 109.269 150.873 108.56C150.862 108.126 150.832 107.687 150.858 107.253C150.998 104.974 151.152 102.696 151.299 100.417C151.366 99.3849 151.391 98.3531 151.494 97.3252C151.56 96.6559 151.513 96.0304 151.281 95.4129C151.167 95.0583 151.057 94.7038 150.935 94.3532C150.821 94.0185 150.586 93.7954 150.263 93.7994C149.708 93.8074 149.263 93.5245 148.8 93.2576C148.064 92.8313 147.296 92.8433 146.52 93.1142C145.589 93.1222 144.875 92.737 144.377 91.9588C144.318 92.0106 144.263 92.0624 144.204 92.1142C144.267 92.6003 144.476 93.0704 144.892 93.1899H144.899Z" fill="#3B576B"/>
<path d="M93.0089 117.99C92.9244 117.775 92.8876 117.464 92.531 117.512C92.7111 118.101 92.8766 118.647 93.0898 119.344C93.3398 118.835 93.3434 118.835 93.0089 117.99Z" fill="#3B576B"/>
<path d="M185.246 36.6139C185.246 37.327 185.047 37.9087 185.198 38.6019C185.555 37.9127 185.584 37.2035 185.246 36.6139Z" fill="#3B576B"/>
<path d="M187.334 39.2712H186.83C186.668 39.2074 186.507 39.1437 186.349 39.08C186.319 38.7055 186.293 38.335 186.264 37.9605L186.249 37.9007L186.246 37.9684C185.893 38.3628 185.944 38.817 186.055 39.311H187.334C187.334 39.311 187.334 39.2831 187.334 39.2712Z" fill="#3B576B"/>
<path d="M140.517 166.443C140.877 166.909 141.23 167.371 141.623 167.885C141.51 166.901 141.226 166.546 140.517 166.443Z" fill="#3B576B"/>
<path d="M187.672 39.5979C187.735 40.2712 187.782 40.7851 187.83 41.295C188.212 40.7094 188.032 40.2194 187.672 39.5979Z" fill="#3B576B"/>
<path d="M266.645 118.121C266.836 118.408 267.196 118.432 267.579 118.201C267.465 117.815 267.145 117.946 266.906 117.886C267.013 117.504 267.237 117.113 267.204 116.747C267.156 116.201 267.307 115.743 267.417 115.245C267.586 114.46 267.656 113.647 267.722 112.847C267.741 112.636 267.601 112.412 267.52 112.153C267.446 112.257 267.395 112.297 267.399 112.329C267.535 113.452 267.457 114.544 267.042 115.6C266.946 115.843 266.84 116.169 266.913 116.384C267.105 116.934 266.899 117.38 266.73 117.85C266.7 117.946 266.616 118.078 266.649 118.125L266.645 118.121Z" fill="#3B576B"/>
<path d="M147.13 173.303C146.822 172.745 146.884 172.199 146.506 171.777C146.48 172.948 146.509 173.04 147.13 173.303Z" fill="#3B576B"/>
<path d="M93.8434 118.289C93.9169 118.787 93.9941 119.281 94.0677 119.779C94.1265 119.767 94.1816 119.759 94.2404 119.747C94.3618 119.225 94.2184 118.743 93.8434 118.289Z" fill="#3B576B"/>
<path d="M235.614 62.6689L235.279 64.3063C235.61 63.8641 235.724 63.2705 235.709 62.6569C235.761 61.9478 235.812 61.2426 235.864 60.5335C235.82 60.5335 235.776 60.5295 235.732 60.5136C235.691 61.2307 235.654 61.9518 235.614 62.6689Z" fill="#3B576B"/>
<path d="M280.913 160.714C280.913 160.714 280.913 160.71 280.913 160.706C280.913 160.706 280.913 160.706 280.92 160.71L280.913 160.714Z" fill="#3B576B"/>
<path d="M109.905 201.434C110.052 201.466 110.195 201.509 110.342 201.525C112.192 201.748 114.037 202.011 115.835 202.553C116.287 202.689 116.757 202.784 117.235 203.266C116.746 203.39 116.368 203.537 115.985 203.577C113 203.888 110.015 203.872 107.026 203.645C106.644 203.617 106.258 203.645 105.707 203.645C105.913 203.772 105.946 203.808 105.986 203.816C108.887 204.274 111.802 204.179 114.717 204.039C115.342 204.007 115.967 203.908 116.585 203.788C116.974 203.716 117.364 203.577 117.537 203.071C117.246 202.673 116.835 202.549 116.434 202.414C114.261 201.685 112.022 201.378 109.769 201.163C109.515 201.147 109.265 201.135 109.012 201.119C108.813 201.179 108.615 201.238 108.412 201.298C108.909 201.346 109.409 201.39 109.905 201.438V201.434Z" fill="#3B576B"/>
<path d="M63.9629 127.348C63.9777 126.691 63.7608 126.452 63.3931 126.336C63.3417 126.285 63.2865 126.233 63.235 126.185C63.235 126.233 63.2424 126.284 63.2461 126.332C63.452 126.623 63.6615 126.918 63.9666 127.348H63.9629Z" fill="#3B576B"/>
<path d="M108.409 201.294C108.607 201.234 108.806 201.175 109.008 201.115C108.706 201.079 108.405 201.043 108.107 201.007C108.151 201.095 108.199 201.187 108.243 201.274C108.298 201.282 108.354 201.286 108.412 201.294H108.409Z" fill="#3B576B"/>
<path d="M280.732 160.319C280.74 160.339 280.747 160.359 280.751 160.379H280.758C280.751 160.355 280.74 160.335 280.732 160.319Z" fill="#3B576B"/>
<path d="M235.875 56.9081H235.871C235.871 56.9161 235.871 56.928 235.871 56.936V56.9041L235.875 56.9081Z" fill="#3B576B"/>
<path d="M69.4442 135.328C69.7163 135.965 70.1868 136.408 70.6978 136.814C70.4405 136.169 70.014 135.667 69.5729 135.177C69.5177 135.121 69.4663 135.069 69.4111 135.013C69.3707 135.005 69.3302 135.001 69.2898 135.005C69.3413 135.113 69.3927 135.22 69.4479 135.332L69.4442 135.328Z" fill="#3B576B"/>
<path d="M89.2812 110.436C89.2812 110.436 89.2702 110.436 89.2665 110.432C89.2665 110.432 89.2739 110.436 89.2775 110.44C89.3547 110.556 89.4319 110.675 89.5128 110.791L89.5202 110.783C89.443 110.667 89.3621 110.552 89.2849 110.436H89.2812Z" fill="#3B576B"/>
<path d="M280.909 160.706C280.857 160.594 280.81 160.487 280.758 160.375L280.751 160.379C280.802 160.487 280.854 160.598 280.901 160.706H280.909Z" fill="#3B576B"/>
<path d="M280.376 159.303C280.354 159.335 280.335 159.367 280.313 159.399C280.453 159.706 280.593 160.013 280.732 160.319C280.633 160.013 280.534 159.706 280.435 159.403C280.413 159.371 280.394 159.335 280.372 159.303H280.376Z" fill="#3B576B"/>
<path d="M63.2277 126.177C63.2277 126.177 63.2314 126.181 63.235 126.185C63.235 126.185 63.235 126.177 63.235 126.173C63.1836 126.117 63.1358 126.061 63.0843 126.006C63.0843 126.006 63.0623 125.986 63.0512 125.978C63.0586 125.99 63.0659 126.006 63.077 126.018C63.1284 126.069 63.1799 126.125 63.2314 126.177H63.2277Z" fill="#3B576B"/>
<path d="M89.6709 110.95C89.6194 110.895 89.5679 110.839 89.5165 110.783L89.5091 110.791C89.5606 110.847 89.6121 110.902 89.6635 110.958L89.6709 110.95Z" fill="#3B576B"/>
<path d="M197.807 25.0525L197.826 25.0326C197.826 25.0326 197.826 25.0286 197.826 25.0246C197.826 25.0246 197.826 25.0246 197.822 25.0286L197.807 25.0485V25.0525Z" fill="#3B576B"/>
</svg>
