<svg width="2682" height="204" viewBox="0 0 2682 204" fill="none" xmlns="http://www.w3.org/2000/svg">
<path d="M0.757812 128.725C3.40589 129.597 5.68766 129.653 8.07626 129.926C10.4725 130.198 12.9985 130.43 16.2418 130.63C43.5925 132.4 163.242 135.94 229.994 140.256C233.222 140.32 236.457 140.392 239.708 140.456C241.334 140.472 242.959 140.553 244.585 140.528C246.21 140.504 247.843 140.488 249.476 140.464C252.743 140.424 256.017 140.384 259.298 140.344C260.939 140.312 262.579 140.32 264.228 140.264C265.869 140.176 267.517 140.088 269.165 140C275.751 139.608 282.39 139.447 289.014 138.647C292.334 138.318 295.661 137.982 298.996 137.654C300.667 137.525 302.323 137.213 303.987 136.981C305.651 136.733 307.314 136.484 308.978 136.236C335.65 132.328 362.275 125.169 388.947 117.033C390.618 116.528 392.289 116.032 393.961 115.527C395.624 115.007 397.295 114.478 398.967 113.95C402.302 112.893 405.644 111.835 408.994 110.778C415.687 108.648 422.403 106.518 429.141 104.38C435.88 102.234 442.633 100.08 449.349 97.7172C456.064 95.3548 462.734 92.7762 469.488 90.4218C496.549 81.1164 523.869 71.6268 551.326 61.8729C578.799 52.1671 606.425 42.2691 634.34 32.9157C648.298 28.2549 662.324 23.7224 676.465 19.6062C690.606 15.49 704.869 11.7743 719.284 8.93941C733.692 6.12056 748.261 4.13455 762.852 3.81423C766.5 3.83825 770.147 3.6941 773.787 3.93435C775.604 4.02244 777.428 4.07049 779.244 4.19061L784.677 4.69512C785.586 4.79121 786.494 4.83926 787.394 4.96739L790.096 5.35979C791.897 5.63206 793.698 5.85629 795.491 6.1606L800.848 7.21767C801.741 7.40185 802.634 7.546 803.519 7.77023L806.167 8.44291C807.93 8.89937 809.701 9.31579 811.456 9.80428L816.676 11.4219C817.546 11.6942 818.423 11.9505 819.286 12.2387L821.85 13.1517C823.574 13.7283 825.238 14.457 826.932 15.0976C830.267 16.5151 833.579 17.9886 836.738 19.7423C839.89 21.4961 842.935 23.4581 845.713 25.7644C848.483 28.0627 850.978 30.7294 852.909 33.8046C854.84 36.8717 856.206 40.3552 856.671 44.0229C857.167 47.6826 856.939 51.4704 856.061 55.1061C855.191 58.7418 853.802 62.2413 852.115 65.5807C848.72 72.2514 844.217 78.2655 839.318 83.8151C834.38 89.3487 829.008 94.4499 823.391 99.1987C812.143 108.688 799.993 116.897 787.417 124.08C774.818 131.215 761.768 137.397 748.284 141.906C741.545 144.172 734.715 146.078 727.809 147.351C724.352 147.96 720.887 148.497 717.415 148.737C713.943 149.057 710.463 149.049 707.021 148.841C703.572 148.633 700.168 148.032 696.909 147.047C693.666 146.038 690.514 144.613 687.897 142.49C686.569 141.449 685.424 140.216 684.424 138.887C683.463 137.525 682.73 136.012 682.311 134.426C681.899 132.849 681.822 131.183 682.181 129.661C682.532 128.132 683.318 126.763 684.447 125.81C689.713 121.477 696.192 118.899 702.847 118.098C709.524 117.273 716.316 117.938 722.932 119.235C729.564 120.54 736.066 122.518 742.461 124.729C748.856 126.947 755.152 129.429 761.387 131.992C773.856 137.133 786.127 142.555 798.414 147.576C810.7 152.597 822.987 157.329 835.411 161.133C847.827 164.937 860.357 167.804 872.835 169.742C897.797 173.546 922.599 173.746 946.233 170.223C969.875 166.811 992.288 159.772 1012.59 150.002C1017.68 147.576 1022.61 144.925 1027.41 142.13C1032.21 139.335 1036.87 136.388 1041.35 133.249C1045.83 130.11 1050.13 126.811 1054.24 123.311C1056.28 121.541 1058.28 119.755 1060.19 117.874C1061.14 116.937 1062.13 116.008 1063.01 114.887C1063.88 113.781 1064.69 112.564 1065.14 111.043C1065.34 110.282 1065.46 109.425 1065.27 108.568C1065.11 107.719 1064.7 106.902 1064.14 106.326C1063.6 105.725 1062.96 105.285 1062.32 104.957C1062 104.788 1061.68 104.628 1061.35 104.516C1061.02 104.38 1060.7 104.276 1060.37 104.18C1057.73 103.435 1055.1 103.395 1052.53 103.539C1047.39 103.883 1042.46 105.157 1037.76 106.894C1028.41 110.418 1019.98 116.008 1013.5 123.271C1006.99 130.502 1002.72 139.543 1001.09 148.769C1000.64 151.067 1000.44 153.389 1000.26 155.688L1000.2 157.41C1000.17 157.978 1000.16 158.555 1000.19 159.155C1000.21 160.341 1000.39 161.518 1000.66 162.663C1001.24 164.945 1002.28 167.051 1003.58 168.877C1004.89 170.703 1006.44 172.281 1008.08 173.682C1011.37 176.477 1015 178.559 1018.65 180.353C1022.3 182.131 1026 183.58 1029.68 184.845C1037.04 187.368 1044.29 189.178 1051.27 190.691C1065.26 193.662 1078.22 195.44 1089.92 196.817C1101.61 198.171 1112.07 199.068 1121.15 199.772C1130.23 200.469 1137.95 200.95 1144.19 201.31C1150.44 201.67 1155.22 201.895 1158.44 202.047C1161.66 202.191 1163.31 202.263 1163.31 202.263C1163.31 202.263 1169.94 202.575 1182.45 202.944C1194.95 203.312 1213.34 203.664 1236.87 203.6C1248.64 203.576 1261.68 203.456 1275.92 203.288C1283.04 203.2 1290.46 203.104 1298.16 203.008C1302.01 202.968 1305.94 203.008 1309.93 203.048C1313.92 203.088 1317.99 203.056 1322.11 203C1338.64 202.767 1356.26 202.519 1374.88 202.255C1379.53 202.199 1384.25 202.151 1389.03 202.095C1393.8 202.039 1398.66 201.822 1403.57 201.686C1404.8 201.646 1406.03 201.606 1407.26 201.574C1408.5 201.526 1409.73 201.398 1410.97 201.318C1413.45 201.126 1415.95 200.942 1418.45 200.749C1420.96 200.549 1423.49 200.397 1426.02 200.141C1428.54 199.852 1431.08 199.564 1433.64 199.276C1474.56 194.631 1518.48 184.997 1564.52 172.16C1576.02 168.941 1587.67 165.53 1599.41 161.79C1605.31 160.028 1611.14 157.778 1616.8 154.807C1619.6 153.253 1622.17 151.171 1624.38 148.673C1626.6 146.182 1628.31 143.043 1629.02 139.608L1629.16 138.967C1629.19 138.751 1629.21 138.534 1629.23 138.31L1629.36 137.005C1629.42 136.581 1629.37 136.092 1629.37 135.644C1629.34 135.187 1629.28 134.723 1629.2 134.274C1628.83 132.464 1627.96 130.791 1626.8 129.477C1625.63 128.156 1624.23 127.107 1622.73 126.322C1621.97 125.946 1621.2 125.593 1620.4 125.337C1619.61 125.057 1618.81 124.857 1617.9 124.753C1616.13 124.56 1614.23 125.121 1612.88 126.37C1611.51 127.587 1610.61 129.301 1610.32 131.127C1609.99 132.953 1610.43 134.931 1611.46 136.452L1611.85 137.013C1611.99 137.197 1612.17 137.341 1612.32 137.501L1612.8 137.982C1612.96 138.134 1613.13 138.238 1613.29 138.374L1615.23 139.896C1616.53 140.913 1617.83 141.93 1619.13 142.955C1620.48 143.908 1621.87 144.805 1623.23 145.734C1625.92 147.672 1628.83 149.233 1631.69 150.915C1633.1 151.788 1634.61 152.469 1636.09 153.213C1637.58 153.942 1639.07 154.679 1640.55 155.416C1642.08 156.056 1643.61 156.697 1645.15 157.337L1647.45 158.306C1648.22 158.635 1649.02 158.867 1649.8 159.155C1651.37 159.708 1652.94 160.26 1654.51 160.813C1654.91 160.949 1655.3 161.093 1655.7 161.221L1656.89 161.566L1659.3 162.262C1660.91 162.711 1662.5 163.231 1664.13 163.624C1665.75 164 1667.39 164.385 1669.02 164.761L1671.47 165.33L1673.95 165.778C1675.61 166.074 1677.26 166.379 1678.92 166.675C1680.58 166.955 1682.25 167.131 1683.92 167.364L1686.43 167.692C1687.27 167.812 1688.11 167.908 1688.95 167.972C1702.41 169.286 1716.11 169.165 1729.79 167.764C1743.48 166.307 1756.97 163.039 1770.53 159.924C1784.11 156.857 1797.72 153.534 1811.42 150.258C1825.13 146.991 1838.96 143.932 1852.97 141.602C1866.98 139.223 1881.19 137.894 1895.48 137.541C1924.1 136.837 1952.92 139.896 1981.71 144.164C1996.11 146.286 2010.51 148.801 2024.99 151.099C2032.23 152.252 2039.48 153.381 2046.76 154.415C2054.04 155.424 2061.33 156.433 2068.62 157.442C2083.19 159.548 2097.79 161.422 2112.37 163.616L2123.3 165.249L2134.25 166.771L2156.14 169.87C2163.42 170.959 2170.73 171.872 2178.03 172.857C2185.33 173.834 2192.63 174.819 2199.92 175.796C2207.21 176.773 2214.52 177.59 2221.81 178.495C2229.11 179.36 2236.39 180.225 2243.68 181.098C2250.98 181.842 2258.27 182.587 2265.55 183.332C2269.19 183.692 2272.83 184.052 2276.46 184.413C2280.1 184.773 2283.73 185.142 2287.36 185.422C2294.64 186.022 2301.9 186.623 2309.15 187.216C2316.4 187.808 2323.64 188.441 2330.88 188.889C2388.74 193.046 2445.89 195.192 2501.46 195.8C2508.41 195.872 2515.33 195.945 2522.23 196.017C2529.12 196.009 2535.99 195.993 2542.84 195.985C2549.68 195.969 2556.5 195.961 2563.28 195.945C2570.07 195.848 2576.82 195.752 2583.55 195.648C2590.27 195.552 2596.97 194.679 2603.63 194.583C2610.29 194.407 2616.92 194.295 2623.52 194.119C2635.54 193.814 2647.42 193.686 2659.19 193.382C2663.47 193.302 2666.97 193.166 2668.72 193.142C2671.97 193.094 2673.22 192.581 2675.63 192.373C2678.03 192.173 2679.68 191.946 2684.32 192.373C2681.58 191.844 2679.31 191.956 2676.91 191.94C2674.49 191.924 2671.96 192.021 2668.72 192.221C2666.97 192.325 2663.46 192.541 2659.19 192.797C2657.12 192.909 2655.04 193.022 2652.96 193.142C2649.72 193.302 2646.46 193.478 2643.2 193.598C2636.67 193.766 2630.11 193.943 2623.52 194.119C2616.92 194.271 2610.29 194.423 2603.63 194.583C2596.97 194.647 2590.27 194.703 2583.55 194.767C2576.83 194.823 2570.07 194.879 2563.29 194.936C2556.51 194.895 2549.69 194.855 2542.85 194.815C2536.02 194.767 2529.15 194.711 2522.26 194.663C2515.37 194.519 2508.44 194.383 2501.51 194.239C2445.97 193.046 2388.9 190.179 2331.11 185.83C2323.88 185.358 2316.65 184.701 2309.4 184.101C2302.16 183.492 2294.9 182.883 2287.64 182.275C2273.12 180.945 2258.56 179.608 2243.96 178.271C2229.38 176.797 2214.77 175.316 2200.15 173.842C2192.84 173.017 2185.53 172.193 2178.22 171.36C2170.91 170.519 2163.59 169.726 2156.3 168.725L2134.39 165.81L2123.44 164.313L2112.51 162.655C2097.95 160.421 2083.41 158.082 2068.96 155.247C2054.51 152.485 2040.07 149.73 2025.66 146.983C2011.23 144.284 1996.77 141.89 1982.3 139.8C1953.38 135.636 1924.24 133.049 1895.39 134.394C1880.97 135.059 1866.66 136.725 1852.63 139.391C1838.59 142.01 1824.77 145.301 1811.09 148.729C1804.25 150.434 1797.44 152.14 1790.64 153.83C1783.84 155.496 1777.06 157.153 1770.26 158.563C1756.66 161.358 1742.99 163.087 1729.49 164.553C1715.98 165.906 1702.48 166.226 1689.17 165.29C1688.33 165.257 1687.5 165.177 1686.68 165.081L1684.19 164.825C1682.53 164.641 1680.88 164.521 1679.23 164.289C1677.59 164.04 1675.95 163.792 1674.31 163.552L1671.85 163.183L1669.42 162.695C1667.79 162.367 1666.17 162.038 1664.56 161.71C1662.94 161.366 1661.35 160.901 1659.76 160.493L1657.36 159.868L1656.16 159.556C1655.76 159.444 1655.37 159.307 1654.99 159.179C1653.42 158.667 1651.86 158.154 1650.29 157.642C1649.51 157.378 1648.72 157.161 1647.96 156.849L1645.67 155.936C1644.14 155.327 1642.62 154.719 1641.1 154.11C1639.61 153.422 1638.14 152.693 1636.66 151.996C1635.18 151.275 1633.68 150.619 1632.28 149.762C1629.44 148.128 1626.55 146.591 1623.9 144.669C1622.54 143.748 1621.18 142.851 1619.85 141.906C1618.57 140.889 1617.29 139.864 1616.02 138.847L1614.11 137.317C1613.96 137.189 1613.78 137.069 1613.65 136.933L1613.26 136.532C1613.14 136.396 1612.99 136.276 1612.88 136.124L1612.57 135.66C1611.77 134.418 1611.44 132.857 1611.73 131.375C1612 129.902 1612.77 128.524 1613.86 127.595C1614.94 126.634 1616.38 126.266 1617.76 126.434C1618.43 126.522 1619.19 126.715 1619.9 126.987C1620.61 127.235 1621.3 127.563 1621.97 127.916C1623.3 128.644 1624.51 129.597 1625.47 130.727C1626.43 131.864 1627.09 133.225 1627.38 134.659C1627.43 135.019 1627.47 135.387 1627.51 135.748C1627.49 136.124 1627.54 136.468 1627.47 136.861L1627.34 138.014C1627.32 138.206 1627.31 138.398 1627.28 138.591L1627.14 139.151C1626.48 142.17 1624.97 144.949 1622.93 147.247C1620.9 149.578 1618.44 151.444 1615.94 153.277C1613.43 155.095 1610.75 156.753 1607.92 157.978C1607.21 158.29 1606.5 158.563 1605.79 158.859C1605.06 159.115 1604.32 159.34 1603.6 159.588C1602.13 160.06 1600.67 160.533 1599.2 161.005C1587.48 164.737 1575.83 168.14 1564.33 171.32C1518.29 184.02 1474.31 193.174 1433.49 197.61C1430.94 197.89 1428.4 198.163 1425.89 198.443C1423.36 198.683 1420.84 198.819 1418.35 199.02C1415.84 199.204 1413.36 199.38 1410.89 199.556C1409.65 199.636 1408.42 199.756 1407.2 199.804C1405.97 199.836 1404.74 199.876 1403.52 199.909C1398.63 200.029 1393.8 200.229 1389.03 200.277C1384.24 200.325 1379.52 200.381 1374.86 200.429C1356.23 200.717 1338.62 201.198 1322.1 201.582C1317.97 201.67 1313.91 201.774 1309.92 201.943C1305.93 202.111 1302.01 202.271 1298.16 202.335C1290.46 202.455 1283.04 202.527 1275.93 202.567C1261.7 202.655 1248.65 202.615 1236.89 202.519C1213.37 202.327 1194.99 201.951 1182.49 201.614C1169.99 201.278 1163.37 201.014 1163.37 201.014C1163.37 201.014 1161.72 200.95 1158.51 200.829C1155.29 200.701 1150.51 200.509 1144.27 200.189C1131.78 199.524 1113.41 198.523 1090.05 195.768C1078.38 194.351 1065.44 192.517 1051.53 189.474C1044.59 187.928 1037.38 186.079 1030.12 183.524C1026.48 182.251 1022.84 180.785 1019.26 179.015C1015.69 177.23 1012.16 175.163 1009.03 172.465C1007.47 171.119 1006.02 169.614 1004.82 167.908C1003.62 166.202 1002.7 164.281 1002.19 162.23C1001.96 161.197 1001.79 160.148 1001.78 159.075C1001.76 158.547 1001.78 157.994 1001.8 157.434L1001.88 155.76C1002.06 153.534 1002.28 151.283 1002.73 149.057C1004.36 140.144 1008.5 131.479 1014.83 124.52C1021.12 117.529 1029.32 112.124 1038.42 108.728C1042.97 107.055 1047.77 105.829 1052.66 105.517C1055.09 105.373 1057.58 105.445 1059.86 106.094C1060.97 106.43 1062.08 106.918 1062.74 107.679C1063.43 108.416 1063.6 109.361 1063.29 110.434C1062.98 111.499 1062.31 112.564 1061.54 113.533C1060.78 114.518 1059.84 115.407 1058.89 116.336C1057.02 118.186 1055.05 119.948 1053.05 121.693C1049.01 125.153 1044.76 128.436 1040.34 131.567C1035.92 134.699 1031.32 137.654 1026.59 140.456C1021.85 143.267 1016.98 145.934 1011.95 148.4C991.883 158.314 969.676 165.634 946.141 169.205C934.381 171.007 922.316 171.96 910.076 171.848C907.015 171.792 903.948 171.8 900.872 171.608C899.331 171.536 897.789 171.456 896.248 171.384C894.706 171.28 893.164 171.135 891.615 171.007C885.426 170.559 879.237 169.686 873.056 168.549C860.686 166.258 848.422 162.663 836.197 158.547C823.971 154.423 811.753 149.754 799.52 144.677C787.28 139.64 775.009 134.258 762.447 129.181C756.167 126.65 749.818 124.2 743.331 121.998C736.852 119.812 730.235 117.85 723.436 116.552C716.644 115.263 709.616 114.598 702.595 115.487C695.589 116.368 688.66 119.075 682.975 123.727C681.387 125.049 680.311 126.971 679.853 128.981C679.388 130.999 679.51 133.097 680.021 135.027C680.54 136.957 681.425 138.751 682.547 140.32C683.7 141.858 685.027 143.251 686.5 144.404C689.438 146.751 692.85 148.256 696.299 149.305C699.771 150.33 703.343 150.931 706.914 151.123C714.065 151.564 721.208 150.779 728.221 149.45C735.234 148.096 742.133 146.102 748.917 143.756C762.508 139.079 775.596 132.737 788.218 125.473C800.825 118.162 812.997 109.857 824.315 100.28C829.969 95.4909 835.38 90.3417 840.386 84.7601C845.354 79.1544 849.948 73.0683 853.459 66.2454C855.206 62.8339 856.649 59.2223 857.587 55.4424C858.549 51.6626 858.892 47.6746 858.503 43.7266C858.144 39.7706 856.855 35.9027 854.947 32.4512C853.039 28.9837 850.513 25.9246 847.697 23.2819C844.873 20.6312 841.752 18.3729 838.509 16.3789C835.258 14.3929 831.847 12.7593 828.397 11.2457C826.65 10.5651 824.925 9.80428 823.155 9.21168L820.507 8.27474C819.621 7.97844 818.728 7.72218 817.836 7.4499L812.486 5.82426C810.685 5.33576 808.869 4.91934 807.068 4.46288L804.351 3.7902C803.443 3.56597 802.527 3.42984 801.611 3.23764L796.124 2.18858C794.285 1.88427 792.438 1.66806 790.599 1.4118L787.837 1.03542C786.913 0.907286 785.982 0.867246 785.059 0.779157L779.503 0.314687C777.649 0.202574 775.787 0.170541 773.932 0.0984682C770.216 -0.109742 766.507 0.0744439 762.791 0.0904601C747.948 0.578954 733.227 2.78919 718.743 5.85629C704.258 8.93941 689.988 12.9274 675.877 17.3159C661.767 21.7043 647.794 26.5012 633.905 31.4181C606.135 41.2681 578.647 51.5825 551.25 61.5366C537.559 66.5176 523.899 71.4346 510.27 76.2315C503.455 78.6259 496.655 81.0203 489.848 83.3507C486.452 84.5198 483.056 85.689 479.661 86.8582C476.257 87.9954 472.861 89.1245 469.473 90.2536C462.688 92.5279 455.813 94.4259 449.036 96.564C442.259 98.7262 435.521 100.928 428.828 103.195C425.478 104.324 422.128 105.445 418.793 106.574C415.443 107.655 412.093 108.736 408.75 109.817C405.408 110.891 402.073 111.964 398.738 113.037C397.074 113.565 395.403 114.102 393.739 114.63C392.068 115.143 390.404 115.647 388.733 116.16C362.115 124.416 335.558 131.712 308.932 135.748C307.269 136.004 305.613 136.26 303.949 136.516C302.285 136.757 300.637 137.077 298.973 137.213C295.646 137.565 292.326 137.91 289.007 138.254C282.39 139.087 275.759 139.279 269.173 139.696C267.525 139.792 265.884 139.888 264.243 139.976C262.602 140.04 260.954 140.04 259.313 140.072C256.032 140.128 252.758 140.176 249.499 140.232C247.866 140.256 246.241 140.288 244.608 140.312C242.982 140.344 241.357 140.272 239.731 140.256C236.488 140.2 233.245 140.144 230.017 140.088C204.192 139.495 114.083 137.91 89.5713 136.02C83.4434 135.547 77.3535 135.123 71.3095 134.627C65.2731 134.114 59.2749 133.601 53.3225 133.097C47.37 132.568 41.471 132.048 35.6178 131.447C31.3213 130.999 27.0478 130.558 22.82 130.126C21.8661 130.022 20.9732 129.934 20.1643 129.846C18.5388 129.669 17.2262 129.533 16.3563 129.437C13.1282 129.085 10.6022 128.877 8.19073 128.741C5.78686 128.604 3.52799 128.268 0.780706 128.676L0.757812 128.725Z" fill="#3B576B"/>
</svg>
