<svg width="123" height="64" viewBox="0 0 123 64" fill="none" xmlns="http://www.w3.org/2000/svg">
<path d="M61.5514 3.24294C61.2542 3.74054 60.8031 4.01631 60.287 4.22314C59.8242 4.4075 59.3717 4.62482 58.9177 4.83165C58.6589 4.95006 58.4474 5.11043 58.264 5.35023C58.0141 5.67847 57.6888 5.94675 57.4078 6.251C57.2067 6.46833 56.9568 6.58523 56.6876 6.67816C56.3401 6.79956 55.9985 6.94045 55.648 7.05735C55.4647 7.1188 55.3656 7.2447 55.2872 7.40957C55.1541 7.68534 55.0343 7.97011 54.8731 8.2279C54.5005 8.81993 54.1071 9.39996 53.7212 9.98298C53.6309 10.1179 53.52 10.1314 53.384 10.0279C53.3426 9.86758 53.3027 9.69672 53.2553 9.52885C53.1917 9.30403 53.0586 9.13317 52.8383 9.05523C52.4405 8.91435 52.1107 8.67154 51.8076 8.38378C51.5902 8.17695 51.3373 8.18294 51.0785 8.28786C50.978 8.32832 50.8892 8.39577 50.7916 8.44223C49.7461 8.92184 48.7524 9.52435 47.6196 9.79414C47.4067 9.8451 47.2159 9.94102 47.0518 10.0999C46.6569 10.4866 46.2029 10.6964 45.641 10.5345C45.6203 10.5285 45.5981 10.5345 45.5759 10.5345C45.5035 10.5315 45.4295 10.53 45.3571 10.527L45.3364 10.5315C45.2254 10.5195 45.1249 10.524 45.0938 10.6634C45.0643 10.6859 45.0524 10.7144 45.0554 10.7519C44.5984 11.155 44.1459 11.5642 43.6816 11.9599C41.9218 13.4572 40.2079 15.0069 38.5723 16.6436C38.0607 17.1562 37.6274 17.7272 37.2577 18.3507C36.9338 18.7809 36.6085 19.2095 36.2624 19.6681C35.9977 19.5303 35.7212 19.3714 35.4328 19.2425C35.3012 19.184 35.1814 19.241 35.1592 19.4134C34.8058 19.821 34.442 20.2227 34.0989 20.6409C33.7292 21.0905 33.3374 21.5266 33.0815 22.0602C33.0268 22.1277 32.9677 22.1921 32.9174 22.264C32.2578 23.2128 31.585 24.151 30.8485 25.0413C30.819 25.0773 30.8485 25.1642 30.853 25.2271C30.9284 25.6303 30.9299 26.0485 31.094 26.4337C31.094 26.693 31.094 26.9508 31.0955 27.21C31.0866 27.225 31.0674 27.243 31.0704 27.255C31.0778 27.288 31.094 27.318 31.1073 27.3479C31.134 27.7856 31.162 28.2232 31.1842 28.6609C31.2005 28.9666 31.2079 29.2739 31.2182 29.5811C31.2242 29.7715 31.1502 29.9184 30.9935 30.0278C30.3901 30.4504 29.8252 30.9315 29.1139 31.1758C28.8699 31.2598 28.6318 31.3752 28.4085 31.5071C28.0728 31.7049 27.7431 31.9162 27.4281 32.147C27.1589 32.3449 26.98 32.6132 26.9312 32.9639C26.8868 33.2891 26.8159 33.6114 26.7552 33.9336C26.6236 34.3638 26.3589 34.6965 26.038 34.9992C25.7866 35.2375 25.5234 35.4819 25.34 35.7711C25.0132 36.2852 24.7367 36.8338 24.4498 37.3748C24.3803 37.5067 24.3507 37.6596 24.3019 37.8035V37.8065C24.262 37.8964 24.2206 37.9878 24.1806 38.0777C24.1629 38.1092 24.1555 38.1422 24.1555 38.1797C24.1348 38.2366 24.1126 38.2936 24.0919 38.349C23.9573 38.8122 23.8405 39.2798 23.6838 39.7339C23.5462 40.1326 23.4368 40.5253 23.5063 40.9539C23.5152 41.0079 23.4634 41.0723 23.4383 41.1308C22.7935 41.1248 22.1369 41.1892 21.504 41.0948C20.6655 40.9689 19.83 40.9914 18.9915 40.9794C18.5848 40.9734 18.1782 41.0289 17.77 41.0558C17.214 41.0543 16.658 41.0528 16.1005 41.0513C15.8254 40.9869 15.5504 40.9269 15.2768 40.858C14.9012 40.7636 14.5921 40.8745 14.3363 41.1593C14.2372 41.2702 14.1396 41.3826 14.0346 41.5025C13.9414 41.4575 13.8616 41.423 13.7876 41.3796C13.1118 40.9809 12.439 40.5762 11.7602 40.182C11.5931 40.0846 11.4023 39.9452 11.2308 39.9587C10.7132 39.9977 10.1971 40.0816 9.68838 40.188C9.40002 40.248 9.1782 40.4593 9.09686 40.7531C8.91054 41.429 8.71386 42.105 8.8292 42.8259C8.88392 43.1706 8.89279 43.5228 8.92237 43.8691C8.5083 44.3052 8.1105 44.7114 7.72897 45.1325C7.45096 45.4398 7.13893 45.7381 6.94373 46.0978C6.69234 46.5609 6.32855 46.8202 5.86569 46.9865C5.74294 47.03 5.62908 47.1019 5.50338 47.1334C5.19431 47.2129 5.04199 47.4212 4.95179 47.718C4.693 48.5842 4.30703 49.3996 3.92254 50.2134C3.80128 50.4712 3.68741 50.7335 3.58981 51.0033C3.35764 51.6478 3.14321 52.3057 3.24081 52.9997C3.29701 53.4014 3.15209 53.6786 2.90217 53.9454C2.67887 54.1837 2.46001 54.4265 2.23967 54.6678C2.19087 54.7428 2.14354 54.8177 2.09474 54.8911C2.06813 54.9361 2.04299 54.9811 2.01637 55.0245C1.99862 55.0665 1.98235 55.11 1.96461 55.1519C1.84778 55.4802 1.61413 55.7065 1.29619 55.7994C0.959025 55.8983 0.751993 56.1396 0.536088 56.3839C0.370462 56.4244 0.204837 56.4649 0.0599141 56.5008C-0.0716992 56.7676 0.0332956 56.943 0.184133 57.1213C0.722417 57.7538 1.25035 58.3938 1.78567 59.0278C2.04003 59.3291 2.29734 59.6273 2.33875 59.987C2.65965 60.1924 2.93175 60.3677 3.2068 60.5401C3.37243 60.6435 3.54101 60.7424 3.70664 60.8428C3.8205 60.8863 3.93437 60.9283 4.04972 60.9717L4.08225 60.9822C4.15915 61.0197 4.23605 61.0572 4.31294 61.0946L4.35287 61.1096C4.4697 61.1531 4.58652 61.1965 4.70335 61.2415L4.72997 61.2505C4.93256 61.4124 5.17804 61.4004 5.41465 61.4274C6.06237 61.4978 6.71304 61.5488 7.3578 61.6447C8.60738 61.832 9.85993 61.9744 11.1169 62.0778C12.4168 62.1842 13.7181 62.2907 15.015 62.4211C16.1404 62.5335 17.2658 62.6564 18.3985 62.6549C18.4089 62.6264 18.4192 62.5964 18.4281 62.5664C18.4192 62.5964 18.4089 62.6249 18.3985 62.6549C18.5701 62.6714 18.7416 62.7028 18.9131 62.7028C20.2751 62.7028 21.6356 62.6983 22.9976 62.6938C24.3596 62.6938 25.723 62.6953 27.085 62.6938C27.1678 62.6938 27.2551 62.6699 27.3334 62.6414C27.3645 62.6294 27.3808 62.5739 27.4044 62.538C27.2787 62.514 27.1515 62.472 27.0258 62.4705C25.2217 62.457 23.4176 62.448 21.612 62.4405C21.5469 62.4405 21.4833 62.457 21.4182 62.4645C20.7616 62.463 20.1036 62.46 19.447 62.4585C19.1882 62.4525 18.9309 62.448 18.6721 62.442C17.98 62.3986 17.2894 62.3566 16.5973 62.3131L16.5796 62.3101C16.2395 62.2667 15.9008 62.2232 15.5607 62.1797L15.537 62.1768C15.2087 62.0374 14.8627 62.0359 14.5167 62.0404L14.5004 62.0374C13.863 61.865 13.2124 61.8095 12.5573 61.7901C12.4715 61.7781 12.3857 61.7616 12.2999 61.7526C10.8492 61.6102 9.40446 61.4289 7.97889 61.1141C7.27942 60.9597 6.57551 60.7994 5.86569 60.7184C5.01685 60.621 4.29076 60.2493 3.56763 59.8386C3.22898 59.6468 2.89034 59.458 2.51768 59.2496C2.08883 58.7071 1.62596 58.1225 1.16458 57.538C1.13057 57.4885 1.09655 57.4391 1.06254 57.3896C1.04332 57.3507 1.02261 57.3102 1.00339 57.2712C0.975292 57.2308 0.948673 57.1918 0.920576 57.1513L0.913182 57.1393C0.877691 57.0914 0.8422 57.0434 0.80523 56.9954C0.78009 56.892 0.75495 56.7886 0.73129 56.6972C0.910224 56.4229 1.1069 56.2116 1.39675 56.0722C1.68216 55.9343 1.93208 55.7245 2.19826 55.5461C2.55613 55.041 2.91252 54.5374 3.27039 54.0323L3.3044 54.0203L3.29405 53.9889C3.3325 53.9364 3.37095 53.884 3.4094 53.83C3.4508 53.788 3.49073 53.7461 3.53214 53.7041L3.54101 53.6966C3.80276 53.5153 4.07486 53.3474 4.3233 53.1466C4.43125 53.0596 4.49188 52.9097 4.56434 52.7838C4.57913 52.7569 4.56434 52.6834 4.53772 52.6654C4.4904 52.631 4.41942 52.595 4.37062 52.607C4.29224 52.6265 4.22274 52.6834 4.15176 52.7299C4.01866 52.8168 3.96543 53.0087 3.74213 53.0686C3.73178 52.9502 3.72438 52.8708 3.71847 52.7913C3.751 52.5785 3.78353 52.3657 3.81459 52.1529C3.83381 52.0959 3.85304 52.039 3.87226 51.982C4.25527 50.8579 4.63976 49.7338 5.02277 48.6097C5.09375 48.4014 5.16621 48.1931 5.23572 47.9847C5.30226 47.7869 5.42352 47.6565 5.62168 47.5696C5.96033 47.4227 6.28714 47.2428 6.61839 47.078C6.81951 46.9775 6.95408 46.8202 7.08126 46.6298C7.38293 46.1742 7.70088 45.7261 8.03952 45.2959C8.35155 44.9002 8.69463 44.53 9.03476 44.1583C9.19003 43.989 9.29207 43.8121 9.30538 43.5768C9.33051 43.1377 9.3453 42.6955 9.40593 42.2609C9.46656 41.8277 9.56712 41.3976 9.67064 40.9719C9.73866 40.6901 9.93682 40.5253 10.2148 40.4623C10.3849 40.4249 10.555 40.3874 10.725 40.3544C10.9705 40.3079 11.1938 40.3649 11.4097 40.4968C12.3206 41.0543 13.236 41.6059 14.1484 42.1589C14.2224 42.2069 14.2963 42.2534 14.3717 42.3013L14.3806 42.3058C14.4782 42.4392 14.6202 42.4497 14.7681 42.4662C14.8642 42.4767 14.9559 42.5306 15.049 42.5651C15.2028 42.9008 15.3566 43.2366 15.5415 43.6398C15.5474 43.7447 15.2945 43.893 15.4764 44.1284C15.6051 44.0999 15.7456 44.0699 15.886 44.0384C15.9541 44.1254 16.0162 44.2063 16.1019 44.3172C16.2084 44.2483 16.3105 44.1808 16.4421 44.0969C16.3755 43.941 16.3459 43.7162 16.2587 43.6892C16.0428 43.6248 16.0014 43.5154 16.0058 43.316C16.0088 43.1916 15.892 43.1317 15.7766 43.1302C15.5341 43.1287 15.4424 42.9728 15.3773 42.7705C15.3049 42.5486 15.299 42.2848 15.0402 42.1679L15.0313 42.1604C14.9086 42.081 14.7888 41.9941 14.6616 41.9251C14.5344 41.8562 14.5596 41.7528 14.5803 41.6464C14.6098 41.6359 14.6261 41.6164 14.6305 41.5849C14.6749 41.5774 14.6986 41.5519 14.7 41.5055C14.7355 41.498 14.7592 41.477 14.774 41.444C15.049 41.429 15.3241 41.4096 15.6006 41.4006C16.1108 41.3841 16.621 41.3736 17.1297 41.3616C17.1726 41.3631 17.217 41.3721 17.2584 41.3661C18.6115 41.1623 19.9675 41.1892 21.3236 41.3121C21.7303 41.3316 22.1369 41.3511 22.5436 41.3721C22.7122 41.3721 22.8808 41.3721 23.0508 41.3721C23.2076 41.3691 23.3658 41.3661 23.5226 41.3631C23.6187 41.495 23.7148 41.6284 23.8109 41.7603C23.8479 41.8097 23.8745 41.8862 23.9233 41.9057C24.293 42.0495 24.6657 42.1814 25.0383 42.3163C25.0339 42.4752 25.0857 42.6041 25.2232 42.6955C25.4864 42.8694 25.7437 43.0507 26.004 43.2291C26.0454 43.1871 26.0868 43.1466 26.1282 43.1047C25.9552 42.9458 25.7837 42.7854 25.6077 42.6296C25.4805 42.5172 25.3474 42.4107 25.2173 42.3013C25.025 42.0151 24.6893 41.9596 24.4217 41.7932C24.3758 41.7468 24.327 41.7018 24.2871 41.6509C23.9071 41.1742 23.7518 40.6617 23.9973 40.0591C24.0875 39.8388 24.1215 39.593 24.1688 39.3577C24.2723 38.8421 24.3684 38.325 24.4675 37.808C24.6006 37.5592 24.7293 37.3074 24.8683 37.0631C25.2779 36.3452 25.6092 35.5763 26.3027 35.0577C26.5719 34.8554 26.807 34.5766 26.8972 34.2184C26.9933 33.9741 27.1101 33.7343 27.1826 33.4825C27.4207 32.6656 27.99 32.1351 28.6851 31.7424C29.3845 31.3467 30.1136 31.005 30.7524 30.5044C30.8692 30.4115 31.0186 30.3605 31.1221 30.3065C31.3085 30.3875 31.4652 30.4564 31.622 30.5254C31.8674 30.6947 32.1218 30.8536 32.3584 31.0364C32.5285 31.1683 32.7044 31.2748 32.9174 31.3077C32.6172 30.954 32.348 30.5643 31.8955 30.3845L31.8837 30.3755C31.8482 30.329 31.8112 30.2811 31.7758 30.2346C31.6796 29.9453 31.5953 29.6591 31.6131 29.3428C31.6249 29.127 31.582 28.9082 31.551 28.6923C31.4401 27.892 31.3232 27.0931 31.2094 26.2943C31.199 26.1009 31.1857 25.9091 31.1783 25.7158C31.1724 25.5449 31.1724 25.374 31.1694 25.2032C31.3129 25.0443 31.4726 24.8974 31.5953 24.7236C31.8068 24.4208 31.9931 24.1016 32.1898 23.7898C32.5255 23.2577 32.8627 22.7257 33.1998 22.1951C33.3093 22.0632 33.4187 21.9328 33.5267 21.7994C34.0398 21.1594 34.5559 20.5195 35.0631 19.875C35.1607 19.7521 35.2716 19.7461 35.4018 19.7686C35.6354 19.9035 35.8706 20.0383 36.1234 20.1852C35.946 20.506 36.1249 20.7338 36.2728 20.9676C36.2994 21.4067 36.1131 21.7665 35.8395 22.0677C35.9829 22.5054 36.2447 22.8156 36.6011 23.0689C36.434 22.7242 36.2654 22.381 36.0953 22.0317C36.3778 21.7155 36.5035 21.3753 36.4355 20.9796L36.4606 20.5944C36.4843 20.5479 36.5079 20.5 36.5316 20.4535C36.607 20.2752 36.749 20.0953 36.7445 19.9199C36.7371 19.6547 36.8436 19.4583 36.9649 19.253C37.098 19.0282 37.2325 18.8048 37.3656 18.5815C37.5519 18.3387 37.7368 18.0929 37.9261 17.8531C38.1435 17.5788 38.3475 17.2881 38.5915 17.0393C39.2052 16.4128 39.8278 15.7953 40.4652 15.1958C41.2948 14.4149 42.1333 13.6445 42.9836 12.8891C43.5721 12.3661 44.1888 11.876 44.7892 11.3664C45.0509 11.1445 45.3319 11.0216 45.6868 11.0666C45.8983 11.0936 46.1172 11.0531 46.3345 11.0426L46.3907 11.0321C46.4543 10.9917 46.5194 10.9512 46.583 10.9107C46.6155 10.9047 46.6318 10.8838 46.6333 10.8508C46.7501 10.7399 46.8669 10.6275 46.9837 10.5166C47.3061 10.2498 47.6788 10.0969 48.078 9.97399C48.5513 9.82861 49.0082 9.62777 49.4622 9.42843C49.9384 9.2201 50.4057 8.99229 50.8715 8.76297C51.1333 8.63408 51.3654 8.64756 51.5887 8.84391C51.92 9.13467 52.3 9.33551 52.72 9.46291C52.7777 9.48089 52.825 9.53485 52.8975 9.58581C52.9403 9.78514 52.9832 9.99947 53.035 10.2108C53.066 10.3367 53.0749 10.4956 53.1563 10.5765C53.3958 10.8178 53.3914 11.1311 53.4609 11.4248C53.418 12.0678 53.4668 12.7198 53.2967 13.3523C53.1444 13.5096 52.9862 13.661 52.8442 13.8274C52.7762 13.9068 52.7052 14.0117 52.6963 14.1106C52.6535 14.5483 52.6254 14.9889 52.6047 15.4281C52.5884 15.7593 52.6963 16.0306 53.0084 16.1955C53.1755 16.2839 53.3308 16.3933 53.5437 16.5252C53.3588 16.3363 53.2243 16.1865 53.0764 16.0501C52.9359 15.9212 52.8708 15.7548 52.8782 15.578C52.8915 15.2947 52.9182 15.0069 52.9847 14.7311C53.0232 14.5663 53.1784 14.4314 53.2243 14.268C53.2686 14.1091 53.2331 13.9278 53.2479 13.7584C53.2539 13.697 53.3027 13.64 53.3308 13.5801C53.489 13.4722 53.5496 13.3043 53.5614 13.1274C53.6073 12.4725 53.7226 11.819 53.6383 11.158C53.7507 10.4911 54.0583 9.90205 54.431 9.36398C54.8672 8.73449 55.3286 8.12449 55.6022 7.43205C55.7486 7.37959 55.8521 7.34512 55.9527 7.30765C56.8321 6.97392 57.5917 6.45884 58.2315 5.7624C58.304 5.68296 58.3838 5.56756 58.4725 5.55557C58.8999 5.49262 59.2105 5.18986 59.5846 5.022C60.1007 4.79118 60.605 4.53489 61.1122 4.2846C61.3946 4.14521 61.6387 3.96835 61.6638 3.61014C61.7096 3.53071 61.754 3.45127 61.7998 3.37033C61.8279 3.36134 61.8398 3.34186 61.8324 3.31338C61.9034 3.24594 61.9758 3.17849 62.0468 3.10955L62.069 3.09905C61.9921 3.05859 61.9152 3.01962 61.8383 2.97915C61.7407 3.06308 61.6135 3.13053 61.5499 3.23544L61.5514 3.24294ZM23.005 62.6429C23.005 62.6249 23.0005 62.6084 22.9932 62.5919C23.0005 62.6084 23.005 62.6264 23.005 62.6429ZM14.8228 41.3961C14.9145 41.2956 15.0342 41.2612 15.1659 41.2552C15.0342 41.2627 14.9145 41.2971 14.8228 41.3961Z" fill="#6A99B1"/>
<path d="M112.384 42.3793C111.934 41.5804 111.422 40.819 110.937 40.0427C110.8 39.7444 110.676 39.4386 110.52 39.1509C110.344 38.8241 110.068 38.5169 110.464 38.1617C110.478 38.1497 110.479 38.1212 110.479 38.1002C110.497 37.7735 110.512 37.4453 110.532 37.1185C110.546 36.9087 110.478 36.7378 110.346 36.573C110.142 36.3152 109.948 36.0469 109.771 35.7696C109.491 35.332 109.129 35.1251 108.61 35.2735C108.527 35.2975 108.437 35.2915 108.351 35.3095C107.816 35.4189 107.277 35.4714 106.729 35.4684C106.517 35.4684 106.306 35.5463 106.094 35.5883C105.367 35.6242 104.697 35.876 104.031 36.1458C103.311 36.4366 102.591 36.7273 101.921 36.9986C101.531 36.5805 101.168 36.2043 100.824 35.8131C100.729 35.7052 100.689 35.5493 100.624 35.4159C100.633 35.4009 100.651 35.3844 100.648 35.3709C100.641 35.3395 100.624 35.3095 100.611 35.278C100.596 34.716 100.581 34.1539 100.567 33.5919C100.578 33.2636 100.598 32.9369 100.601 32.6087C100.605 32.237 100.595 31.8653 100.595 31.4921C100.595 31.1189 100.593 30.7457 100.448 30.3935C100.435 30.305 100.422 30.2166 100.408 30.1297C100.389 29.9918 100.37 29.8539 100.351 29.716C100.32 28.7103 100.265 27.7061 100.333 26.699C100.349 26.4517 100.293 26.2238 100.095 26.0035H99.5433C99.0745 25.8192 98.588 25.8866 98.1059 25.8971C97.8264 25.8581 97.5439 25.8342 97.2689 25.7757C96.1213 25.5329 94.9664 25.3321 93.804 25.1777C93.2258 25.1013 92.6476 24.9754 92.1448 24.6336C92.0413 24.5632 91.926 24.5092 91.8328 24.4568C91.2782 24.6726 91.2161 25.413 90.6024 25.5344C90.5418 25.404 90.4812 25.2886 90.4353 25.1672C90.2682 24.7266 89.9873 24.3728 89.6604 24.0401C89.3026 23.6759 88.9329 23.4976 88.4493 23.7748C88.433 23.7838 88.4064 23.7748 88.368 23.7748C88.3251 23.7074 88.2748 23.6369 88.2349 23.559C87.9243 22.949 87.7321 22.2985 87.5886 21.6301C87.5724 21.4997 87.5561 21.3693 87.5398 21.2404C87.4925 20.6274 87.4437 20.0144 87.3964 19.3999C87.3121 19.3999 87.2263 19.3999 87.142 19.3999C87.1672 19.7581 87.1923 20.1163 87.2175 20.473C87.2116 20.494 87.1968 20.5165 87.2027 20.5329C87.2145 20.5719 87.2352 20.6079 87.253 20.6454C87.2707 20.8927 87.2884 21.14 87.3047 21.3873C87.3269 21.4592 87.3476 21.5311 87.3698 21.6031C87.4127 21.8474 87.4555 22.0902 87.4984 22.333C87.5103 22.372 87.5206 22.4109 87.5324 22.4499C87.667 23.0284 87.9066 23.559 88.189 24.0011C88.4656 24.0761 88.7125 24.0761 88.8648 24.1975C89.3395 24.5737 89.7935 24.9873 90.0952 25.5314C90.1662 25.6603 90.2653 25.8342 90.2313 25.9526C90.1455 26.2523 90.3259 26.5131 90.2978 26.7904C90.2653 27.0931 90.1884 27.3899 90.1366 27.6912C90.1218 27.7766 90.1277 27.865 90.1233 27.9534C90.1041 28.0134 90.0849 28.0733 90.0656 28.1333C90.0494 28.2217 90.0316 28.3102 90.0154 28.3986C90.0094 28.4585 90.002 28.517 89.9961 28.5769C89.9932 28.6729 89.9887 28.7703 89.9858 28.8662C89.968 28.9307 89.9503 28.9951 89.9325 29.061L89.866 29.4223C89.8497 29.4777 89.8335 29.5332 89.8172 29.5886C89.7935 29.7625 89.7699 29.9348 89.7462 30.1087C89.7211 30.2451 89.6945 30.3815 89.6693 30.5164C89.6634 30.5613 89.6575 30.6063 89.6516 30.6513C89.6383 31.2253 89.6235 31.7993 89.6102 32.3749C89.5096 32.9969 89.4017 33.6174 89.3144 34.2409C89.2981 34.3563 89.3588 34.4837 89.4179 34.7639C89.4978 34.4912 89.5451 34.3787 89.5614 34.2618C89.6205 33.8287 89.6738 33.394 89.7196 32.9594C89.7403 32.7646 89.7388 32.5667 89.7477 32.3719C89.7906 31.7993 89.8335 31.2268 89.8763 30.6543C89.9237 30.389 89.971 30.1237 90.0183 29.8584C90.042 29.7745 90.0642 29.6905 90.0878 29.6066C90.2298 29.2334 90.1647 28.8452 90.1765 28.4615C90.2002 28.3971 90.2224 28.3326 90.246 28.2682C90.5551 27.6357 90.8612 27.0032 90.7873 26.2628C90.7799 26.1879 90.8302 26.0905 90.8834 26.0305C91.0431 25.8521 91.2235 25.6918 91.3862 25.5164C91.5429 25.3456 91.6894 25.1642 91.8417 24.9858C92.3208 25.2976 92.8132 25.4535 93.3308 25.5299C93.6739 25.5809 94.0155 25.6378 94.3586 25.6813C95.3908 25.8132 96.423 25.9391 97.4552 26.0665C97.5351 26.062 97.6149 26.0575 97.6948 26.0515C97.6149 26.056 97.5351 26.0605 97.4552 26.0665C97.6179 26.0994 97.7805 26.1369 97.9447 26.1624C98.1724 26.1969 98.4031 26.2208 98.6264 26.2493C98.7817 26.2463 98.9621 26.3003 99.0715 26.1759C99.2105 26.1804 99.3422 26.1849 99.4634 26.1894C99.6719 26.3902 99.7252 26.5851 99.7222 26.8204C99.7104 27.8515 99.8568 28.8647 100.13 29.8569C100.147 29.9154 100.161 29.9738 100.178 30.0323C100.195 30.1492 100.213 30.2661 100.231 30.383C100.249 30.945 100.263 31.5071 100.284 32.0691C100.302 32.5682 100.318 33.0658 100.348 33.5634C100.357 33.7103 100.408 33.8557 100.441 34.0011C100.431 34.3862 100.422 34.7699 100.411 35.1551C100.404 35.1746 100.385 35.1971 100.391 35.2136C100.402 35.2525 100.425 35.2885 100.444 35.3245C100.401 35.5793 100.36 35.8341 100.315 36.0964C100.426 36.3302 100.672 36.3961 100.864 36.531C101.22 36.7828 101.577 37.0286 101.708 37.4947C101.747 37.6296 101.878 37.7405 101.979 37.8514C102.088 37.9713 102.167 38.1017 102.136 38.2651C102.081 38.5559 102.245 38.7162 102.452 38.8586C102.523 38.9156 102.594 38.9725 102.666 39.0295C102.887 39.2318 103.088 39.4581 103.33 39.629C103.694 39.8853 103.925 40.2315 104.113 40.6212C104.157 40.6137 104.201 40.6062 104.246 40.5987C104.203 40.4773 104.184 40.3379 104.111 40.2375C103.74 39.7249 103.345 39.2318 102.807 38.8841C102.774 38.8601 102.739 38.8511 102.699 38.8586C102.247 38.4405 102.374 37.9174 102.442 37.3868C103.06 37.0721 103.675 36.7498 104.298 36.4426C104.936 36.1278 105.626 35.9525 106.321 35.8566C106.359 35.8655 106.402 35.87 106.449 35.87C106.955 35.867 107.461 35.867 107.967 35.8655C108.203 35.8326 108.443 35.8176 108.673 35.7636C108.971 35.6947 109.178 35.8071 109.346 36.0379C109.488 36.2312 109.611 36.4471 109.782 36.6089C110.118 36.9282 110.105 37.3059 110.019 37.7031C109.992 37.8305 109.92 37.9459 109.887 38.0733C109.777 38.4959 109.799 38.8886 110.1 39.2468C110.352 39.5451 110.568 39.8763 110.8 40.1925C110.874 40.3484 110.926 40.5208 111.025 40.6587C111.814 41.7603 112.461 42.9503 113.092 44.1478C113.704 45.3094 114.272 46.4889 114.566 47.7824C114.594 47.9083 114.66 48.0252 114.708 48.1466C114.751 48.1001 114.796 48.0537 114.838 48.0072C114.674 47.1184 114.407 46.2611 114.003 45.4563C113.482 44.4206 112.953 43.388 112.385 42.3778L112.384 42.3793Z" fill="#6A99B1"/>
<path d="M103.864 49.6963C103.91 49.6634 103.955 49.6319 104 49.5989L103.994 49.5929C103.952 49.6274 103.907 49.6619 103.864 49.6949V49.6963Z" fill="#6A99B1"/>
<path d="M102.729 50.5881C102.454 51.0438 102.063 51.3885 101.698 51.7587C101.331 52.1304 100.975 52.5096 100.62 52.8933C100.521 53.0012 100.447 53.1331 100.346 53.2755C100.428 53.3474 100.481 53.4238 100.552 53.4538C100.78 53.5512 101.018 53.5198 101.253 53.4733C101.549 53.4148 101.844 53.3534 102.139 53.2934C102.449 53.2949 102.76 53.2979 103.072 53.2979C103.181 53.2979 103.273 53.2605 103.314 53.1436C102.792 52.9892 102.125 52.9892 101.622 53.1436C101.429 53.166 101.235 53.199 101.041 53.2005C101.003 53.2005 100.916 53.0491 100.935 53.0132C101.004 52.8798 101.097 52.7539 101.202 52.646C101.587 52.2563 101.982 51.8771 102.369 51.4889C102.632 51.2251 102.884 50.9538 102.971 50.5641C102.998 50.4457 103.092 50.3273 103.187 50.2449C103.406 50.0546 103.637 49.8762 103.866 49.6963C103.595 49.8897 103.323 50.08 103.057 50.2794C102.937 50.3693 102.805 50.4637 102.73 50.5881H102.729Z" fill="#6A99B1"/>
<path d="M50.7502 52.7898C50.7355 52.4166 50.6911 52.0449 50.6659 51.6718C50.6408 51.3075 50.6748 50.9373 50.5787 50.5731C50.5269 50.5926 50.5003 50.5971 50.5003 50.6031C50.5003 51.7452 50.4855 52.8858 50.2415 54.0099C50.209 54.1567 50.2282 54.3231 50.4427 54.41C50.5565 54.3621 50.6985 54.3126 50.8316 54.2452C51.3285 53.9919 51.8342 53.827 52.3961 54.0039C52.4272 54.0144 52.4745 53.9754 52.513 53.9604C52.6535 53.9049 52.7097 53.7865 52.7052 53.6487C52.7008 53.4958 52.6875 53.3399 52.6505 53.193C52.4923 52.5785 52.3237 51.9655 52.1551 51.3525C52.1063 51.1742 52.0398 51.0003 51.9821 50.8234C52.0472 51.5773 52.1847 52.3102 52.3311 53.0401C52.3828 53.2979 52.4627 53.5512 52.3858 53.818C51.9569 53.6666 51.537 53.6891 51.1185 53.8645C51.0105 53.9094 50.8892 53.9229 50.7547 53.9544C50.7547 53.5317 50.7665 53.1615 50.7517 52.7913L50.7502 52.7898Z" fill="#6A99B1"/>
<path d="M92.4273 49.6784C92.8014 49.7368 93.1105 49.7833 93.4491 49.8372C93.4284 50.0021 93.4299 50.1325 93.3929 50.2494C93.2909 50.5836 93.1593 50.9104 93.0646 51.2461C92.9345 51.7092 92.8162 52.1753 92.7127 52.646C92.6609 52.8798 92.6447 53.1241 92.8635 53.4703C92.8547 52.58 93.1105 51.8576 93.3648 51.1337C93.4964 50.7635 93.6177 50.3873 93.7212 50.0081C93.7523 49.8957 93.7079 49.7638 93.7005 49.6529C93.0129 49.4565 92.9315 49.458 92.4273 49.6784Z" fill="#6A99B1"/>
<path d="M83.1655 13.676C83.3075 13.4257 83.4007 13.1544 83.1508 12.9011C82.7204 12.447 82.2901 11.9929 81.8065 11.4818C81.7607 11.6287 81.6986 11.7246 81.7237 11.7665C81.811 11.9134 81.913 12.0603 82.0372 12.1757C82.3078 12.4275 82.5962 12.6598 82.8772 12.8996C83.1404 13.1574 83.1389 13.4272 82.9171 13.7105C82.7426 13.9323 82.5637 14.1511 82.404 14.3834C82.2827 14.5603 82.1659 14.7491 82.0875 14.9485C81.9766 15.2302 82.0328 15.3876 82.2827 15.5645C82.6701 15.8387 83.0665 16.101 83.4598 16.3708C83.6905 16.5297 83.9212 16.6901 84.1519 16.8489C84.1992 16.9194 84.2332 17.0063 84.2954 17.0588C84.7405 17.4275 84.9786 17.8921 84.9608 18.4811C84.9608 18.5021 84.9919 18.5231 85.0096 18.5471C85.2728 18.1274 85.2137 17.7107 85.0495 17.2896C85.051 17.2896 85.054 17.2896 85.0555 17.2896C85.0555 17.2896 85.0555 17.2881 85.054 17.2866C85.1383 17.2716 85.224 17.2371 85.3039 17.2476C85.7224 17.3061 86.0093 17.1022 86.2385 16.78C86.2858 16.714 86.3479 16.6346 86.24 16.5597C85.8752 16.7905 85.4345 16.8989 84.9179 16.8849C84.875 16.8849 84.8322 16.8924 84.7878 16.8954C84.6162 16.8474 84.4462 16.7995 84.2746 16.7515C83.6121 16.1985 82.8979 15.7069 82.3049 15.0894C82.3448 14.7761 82.5459 14.5948 82.6909 14.3804C82.8491 14.1451 83.0265 13.9218 83.1655 13.676Z" fill="#6A99B1"/>
<path d="M119.825 58.9828C119.327 59.0773 118.944 58.8749 118.602 58.5227C118.019 57.9217 117.534 57.2562 117.135 56.5158C116.724 55.7544 116.523 54.9226 116.282 54.1028C116.215 53.875 116.124 53.6546 116.042 53.4313C116.032 53.217 116.038 52.9997 116.008 52.7883C115.955 52.4107 115.915 52.0225 115.652 51.7137C115.474 50.8294 115.297 49.9451 115.115 49.0624C115.093 48.9574 115.044 48.8585 115.007 48.7566C114.951 48.5063 114.895 48.256 114.838 48.0057C114.796 48.0522 114.751 48.0986 114.708 48.1451C114.765 48.4029 114.821 48.6607 114.877 48.917C114.989 49.8687 115.145 50.8099 115.523 51.6987C115.65 52.2743 115.776 52.8498 115.903 53.4253C116.084 54.1028 116.249 54.7847 116.45 55.4562C116.551 55.7904 116.705 56.1097 116.85 56.4289C117.208 57.2158 117.74 57.8842 118.28 58.5452C118.562 58.8914 118.951 59.0967 119.377 59.2196C119.628 59.2916 119.831 59.2047 120.025 59.0338C119.98 58.9948 119.966 58.9723 119.951 58.9723C119.909 58.9723 119.866 58.9753 119.826 58.9828H119.825Z" fill="#6A99B1"/>
<path d="M78.5709 42.9158C78.6212 42.754 78.6833 42.5456 78.7528 42.3403C78.846 42.063 78.8696 41.7842 78.7898 41.501C78.7676 41.423 78.7528 41.3226 78.602 41.3631C78.5354 41.9776 78.1968 42.5456 78.216 43.1781C78.7883 43.6622 79.2985 44.1553 79.3281 44.9542C79.2881 45.1955 79.4227 45.3169 79.6209 45.3933C79.9122 45.5072 80.1592 45.6646 80.242 45.9988C80.2908 45.9554 80.341 45.9134 80.3898 45.8699C80.3677 45.5537 80.1606 45.3783 79.9078 45.2539C79.7569 45.179 79.5928 45.131 79.5277 44.9512C79.5321 44.7788 79.5351 44.608 79.5395 44.4356C79.5247 44.3921 79.5114 44.3487 79.4967 44.3052C79.1965 43.8556 78.8963 43.4059 78.5709 42.9173V42.9158Z" fill="#6A99B1"/>
<path d="M85.8584 25.8911C85.8422 25.8761 85.7845 25.9106 85.7313 25.9256C85.7786 26.3572 86.2311 26.4412 86.4396 26.7844C86.3095 26.9642 86.1971 27.1201 86.0965 27.2565C86.1838 27.7436 86.3642 28.1168 86.8581 28.2322C87.0651 27.844 86.7073 27.5952 86.6171 27.2685C86.6999 27.1246 86.7827 26.9792 86.8877 26.7979C86.5357 26.4846 86.1986 26.1849 85.8584 25.8896V25.8911Z" fill="#6A99B1"/>
<path d="M103.994 49.5929L104 49.5989C104.017 49.5824 104.034 49.5675 104.051 49.5525C104.031 49.566 104.012 49.5794 103.994 49.5944V49.5929Z" fill="#6A99B1"/>
<path d="M104.973 48.3834C104.904 48.301 104.824 48.2185 104.732 48.1676C104.086 47.8079 103.679 47.2099 103.239 46.6448C103.191 46.5834 103.165 46.4829 103.026 46.5744C103.075 46.7078 103.092 46.8741 103.181 46.9805C103.523 47.4002 103.821 47.8603 104.292 48.1616C104.502 48.2965 104.758 48.3954 104.885 48.6637C104.695 49.0534 104.345 49.2767 104.049 49.551C104.343 49.3336 104.642 49.1223 104.929 48.8945C105.115 48.7461 105.123 48.5618 104.972 48.3819L104.973 48.3834Z" fill="#6A99B1"/>
<path d="M80.5096 47.8783C80.591 48.2725 80.6028 48.6607 80.6043 49.0549C80.6072 49.7353 80.5762 50.4188 80.7891 51.0797C80.795 51.2341 80.8231 51.369 80.9385 51.4964C81.4531 52.0659 81.4472 52.0704 81.4797 52.7943C81.4901 53.0282 81.4812 53.2695 81.6202 53.5138C81.6335 53.2859 81.6483 53.0941 81.6542 52.9023C81.6601 52.6834 81.6187 52.4541 81.669 52.2458C81.7681 51.8276 81.3451 51.6523 81.2949 51.312C81.1455 51.2341 80.9962 51.1547 80.8483 51.0767C80.8527 50.5282 80.8586 49.9796 80.8586 49.4311C80.8586 49.1013 80.8764 48.7686 80.8335 48.4434C80.7551 47.8588 80.622 47.2833 80.5939 46.6883C80.5806 46.4125 80.4623 46.1427 80.3928 45.8699C80.344 45.9134 80.2937 45.9554 80.2449 45.9988C80.3307 46.6268 80.3854 47.2608 80.5126 47.8783H80.5096Z" fill="#6A99B1"/>
<path d="M93.5142 54.2617C93.7685 54.3366 94.0096 54.407 94.2492 54.4775C94.4473 54.5329 94.6366 54.5599 94.8126 54.7188C95.6511 55.4757 96.4955 56.2266 97.5143 56.925C97.1683 56.4679 96.8385 56.1381 96.4836 55.8309C95.8566 55.2883 95.237 54.7368 94.6144 54.1882C94.4192 53.9949 94.3009 53.7176 94.0954 53.5602C93.8499 53.3744 93.9002 52.9637 93.5245 52.8918C93.4417 52.9382 93.3131 53.0701 93.3989 53.1151C93.6251 53.2335 93.5467 53.3999 93.5408 53.5632C93.5305 53.7985 93.3841 54.0293 93.5142 54.2602V54.2617Z" fill="#6A99B1"/>
<path d="M76.8452 24.6756C76.9605 24.8555 77.0699 25.0263 77.2001 25.2257C77.1084 24.3444 77.0344 24.2454 76.3838 24.0776C76.2428 23.7139 76.0964 23.4716 75.9446 23.3507C75.8662 23.8408 76.0644 24.3833 76.4681 24.7775C76.5849 24.746 76.7047 24.7131 76.8466 24.6756H76.8452Z" fill="#6A99B1"/>
<path d="M86.5461 29.4507C86.7058 29.3383 86.8522 29.2064 86.9942 29.0715C87.0518 29.0176 87.1006 28.9307 86.9764 28.8587C86.3479 29.2799 85.715 29.7025 85.0821 30.1282C85.0096 30.1761 84.9416 30.2331 84.8765 30.2916C84.7198 30.4354 84.7139 30.5493 84.8603 30.7487C84.912 30.8191 84.983 30.8731 85.0451 30.9345C85.054 31.2822 85.0614 31.6285 85.0702 31.9762C85.1279 32.249 85.1531 32.5352 85.2477 32.7945C85.5686 33.6698 85.9146 34.5361 86.2503 35.4054C86.2533 35.4489 86.2444 35.4968 86.2607 35.5358C86.555 36.2447 86.8478 36.9537 87.1553 37.6566C87.2027 37.7645 87.3151 37.8424 87.4008 37.9324C87.3727 37.7885 87.3609 37.6371 87.3092 37.5022C87.1243 37.0151 86.9291 36.531 86.7295 36.0484C86.623 35.7891 86.4988 35.5388 86.3834 35.284C86.2488 34.8943 86.1172 34.5031 85.9797 34.115C85.7268 33.4015 85.4695 32.6911 85.2152 31.9777C85.1738 31.6749 85.1959 31.3917 85.4266 31.1549C85.471 31.1084 85.4532 30.999 85.4636 30.918C85.3438 30.7817 85.2226 30.6438 85.0835 30.4849C85.2255 30.3695 85.3364 30.2676 85.4592 30.1836C85.82 29.9363 86.1882 29.7025 86.5461 29.4522V29.4507Z" fill="#6A99B1"/>
<path d="M44.1592 31.5805C44.1651 31.6285 44.1711 31.6764 44.177 31.7244C44.2982 31.7544 44.418 31.7873 44.5408 31.8143C44.6842 31.8473 44.8276 31.8743 44.9755 31.9057C44.9903 31.7843 44.9874 31.6764 45.0184 31.579C45.048 31.4816 45.1101 31.3932 45.1722 31.2718C45.0169 31.1743 44.9031 31.0619 44.7685 31.0245C44.2716 30.8896 43.7733 30.7322 43.2646 30.6752C42.7366 30.6153 42.1895 30.5538 41.6734 30.7876C41.5713 30.8461 41.4116 30.8641 41.4856 31.0679C41.802 31.0005 42.117 30.933 42.4305 30.8656C42.6863 30.8806 42.9451 30.8776 43.198 30.915C43.7052 30.99 44.2095 31.0829 44.7123 31.1833C44.7833 31.1983 44.838 31.3002 44.9637 31.4276C44.699 31.4381 44.5289 31.4321 44.3648 31.4561C44.2923 31.4666 44.2287 31.5385 44.1607 31.582L44.1592 31.5805Z" fill="#6A99B1"/>
<path d="M89.1369 39.2648C88.7658 39.5331 88.7037 39.65 88.8397 40.0816C88.9506 40.4338 89.1088 40.7711 89.2464 41.1158C89.2878 41.2597 89.3159 41.4096 89.3736 41.5474C89.5909 42.0645 89.8172 42.5786 90.0405 43.0942C90.1632 43.5348 90.2801 43.977 90.4087 44.4161C90.4516 44.5615 90.5122 44.7039 90.5803 44.8403C90.6113 44.9017 90.6438 45.0081 90.7947 44.9242C90.635 44.3906 90.4753 43.8496 90.3082 43.313C90.2845 43.2366 90.215 43.1751 90.1662 43.1062C90.1263 42.9368 90.0923 42.7675 90.0449 42.5996C89.9518 42.2699 89.7492 41.9686 89.8172 41.5954C89.829 41.5325 89.7521 41.4425 89.6989 41.3811C89.6161 41.2852 89.5185 41.2027 89.4283 41.1143C89.3588 40.7471 89.3395 40.3799 89.3795 40.0037C89.4046 39.7699 89.3558 39.5271 89.3425 39.2888C89.3381 39.2063 89.3425 39.1224 89.3425 39.0774C89.2967 39.1209 89.2257 39.2033 89.1399 39.2648H89.1369Z" fill="#6A99B1"/>
<path d="M37.2798 25.1342C37.2739 24.8674 37.2828 24.5947 37.1261 24.3174C37.0861 24.8195 37.0477 25.2721 37.0151 25.7262C37.0004 25.9301 37.0388 26.1309 37.2 26.2658C37.5298 26.5431 37.8374 26.8608 38.2913 26.9298L38.3165 26.9343C38.3919 26.9762 38.4673 27.0182 38.5427 27.0602L38.5842 27.0752C38.667 27.1216 38.7498 27.1681 38.8326 27.2145C38.7823 27.303 38.732 27.3899 38.6803 27.4783C38.9391 27.4678 39.1993 27.4588 39.4581 27.4484C39.4995 27.3809 39.5424 27.3135 39.6016 27.219C39.1505 27.0302 38.7513 26.8264 38.2869 26.8353C38.0237 26.6105 37.7649 26.3797 37.4958 26.1609C37.3124 26.0125 37.2148 25.8387 37.2488 25.5944C37.2695 25.443 37.2843 25.2886 37.2813 25.1357L37.2798 25.1342Z" fill="#6A99B1"/>
<path d="M72.7977 14.5933C72.669 14.5138 72.5463 14.5168 72.4901 14.6712C72.4487 14.7851 72.5241 14.8705 72.638 14.911C72.6809 14.9515 72.7237 14.9919 72.7666 15.0324L72.7711 15.0429C73.0417 15.7413 73.3123 16.4383 73.5829 17.1367C73.8876 18.2143 74.1907 19.292 74.5013 20.3666C74.5279 20.4595 74.6063 20.5374 74.7423 20.7533C74.7127 20.494 74.7142 20.3846 74.6876 20.2827C74.4702 19.4763 74.2528 18.67 74.0221 17.8681C73.9511 17.6193 73.926 17.345 73.7175 17.1532C73.6347 16.8594 73.5607 16.5612 73.4646 16.2719C73.3611 15.9601 73.2251 15.6574 73.126 15.3441C73.0668 15.1583 73.0018 14.9515 73.0269 14.7671C73.0846 14.3519 72.9293 14.0282 72.6735 13.7479C72.4117 13.4587 72.1189 13.1994 71.8394 12.9266C71.7965 12.9386 71.7655 12.9656 71.7463 13.006C72.0331 13.3178 72.3245 13.6265 72.604 13.9458C72.7637 14.1271 72.8509 14.343 72.7962 14.5963L72.7977 14.5933Z" fill="#6A99B1"/>
<path d="M18.4946 46.7392C18.3468 46.8966 18.1915 47.048 18.054 47.2159C18.0111 47.2683 18.017 47.3627 17.9978 47.4572C18.2299 47.4826 18.4384 47.3328 18.61 47.5816C18.6898 47.697 18.9176 47.7224 19.0832 47.7554C19.2725 47.7929 19.4707 47.7944 19.6644 47.8109C19.6629 47.7884 19.6659 47.7509 19.657 47.7479C19.379 47.637 19.0995 47.5306 18.8037 47.4167C18.7948 47.1679 18.7046 46.9401 18.4932 46.7392H18.4946Z" fill="#6A99B1"/>
<path d="M28.5712 50.9868C28.5712 50.9868 28.5712 50.9793 28.5712 50.9748C28.583 50.744 28.5978 50.5132 28.6111 50.2809C28.5239 50.5147 28.5046 50.744 28.5712 50.9853V50.9868Z" fill="#6A99B1"/>
<path d="M28.6762 49.0759C28.6629 49.4775 28.6377 49.8792 28.6126 50.2809C28.6303 50.2329 28.651 50.1835 28.6747 50.1355C28.8167 49.8432 28.9024 49.5225 29.003 49.2392C28.8433 48.9335 28.6998 48.6592 28.6215 48.5078C28.6318 48.5992 28.6851 48.839 28.6762 49.0759Z" fill="#6A99B1"/>
<path d="M28.5934 51.408C28.6185 51.405 28.6451 51.402 28.6703 51.3975C28.6481 51.2926 28.6363 51.1831 28.6008 51.0842C28.5889 51.0513 28.5801 51.0183 28.5712 50.9868C28.5653 51.1262 28.586 51.2671 28.5934 51.408Z" fill="#6A99B1"/>
<path d="M122.743 58.6531C122.618 58.6201 122.482 58.6321 122.358 58.5976C121.947 58.4822 121.548 58.6441 121.141 58.6306C120.995 58.5647 120.897 58.4553 120.856 58.2979C120.807 58.109 120.757 57.9187 120.709 57.7298C120.683 57.6234 120.621 57.595 120.495 57.6414V58.5916C120.573 58.5916 120.681 58.5602 120.714 58.5976C120.841 58.7445 120.933 58.9244 121.14 58.9783C121.329 59.0833 121.518 59.0982 121.657 58.9079C121.752 58.7775 121.873 58.779 122 58.7775C122.342 58.7745 122.682 58.7775 123 58.7775C122.925 58.74 122.84 58.6786 122.746 58.6546L122.743 58.6531Z" fill="#6A99B1"/>
<path d="M50.1927 46.2641C50.2977 46.6958 50.2933 47.1304 50.3243 47.5666C50.3569 48.0177 50.4353 48.4673 50.4929 48.917C50.6319 47.8439 50.5255 46.7827 50.3924 45.7231C50.4397 45.4638 50.487 45.206 50.5343 44.9467C50.5462 44.8628 50.5565 44.7803 50.5684 44.6964C50.5757 44.6454 50.5817 44.593 50.5891 44.542C50.5979 44.4281 50.6068 44.3142 50.6157 44.2003C51.0844 43.962 51.5872 43.8796 52.1004 43.9065C52.235 43.6083 52.1862 43.358 52.0753 43.1122C52.059 43.0043 52.0442 42.8949 52.0279 42.7869C51.985 42.5052 51.9569 42.2204 51.8934 41.9446C51.8608 41.8007 51.7839 41.6599 51.6967 41.54C51.6582 41.4875 51.5325 41.4545 51.4719 41.4785C51.4187 41.4995 51.3654 41.6179 51.3743 41.6838C51.392 41.8112 51.4512 41.9326 51.497 42.0555C51.6272 42.4033 51.7603 42.751 51.8919 43.0987V43.5663C51.6079 43.6353 51.3373 43.6937 51.0711 43.7686C50.8893 43.8196 50.6852 43.8331 50.5624 44.013C50.5166 44.0189 50.4722 44.0249 50.4264 44.0309C50.3066 44.013 50.2341 44.0594 50.2149 44.1838C50.1291 44.4596 50.3451 44.6889 50.3258 44.9542C50.3288 45.2195 50.3332 45.4848 50.3362 45.7515C50.0922 45.8655 50.1513 46.0933 50.1927 46.2671V46.2641Z" fill="#6A99B1"/>
<path d="M109.71 63.7115C109.411 63.686 109.111 63.671 108.812 63.6516C108.384 63.6141 107.956 63.5781 107.527 63.5406C107.391 63.5317 107.254 63.5227 107.118 63.5122C107.033 63.5062 106.951 63.5017 106.868 63.4957C106.531 63.3578 106.179 63.3578 105.824 63.3818C104.743 63.2724 103.663 63.3008 102.582 63.3803C102.572 63.4177 102.567 63.4567 102.564 63.4957C102.566 63.4567 102.572 63.4177 102.581 63.3803C102.131 63.3803 101.683 63.3833 101.235 63.3848C101.111 63.3773 100.987 63.3698 100.861 63.3623C100.768 63.3248 100.675 63.2874 100.581 63.2484C100.612 63.1914 100.651 63.1375 100.675 63.0775C100.757 62.8662 100.744 62.8392 100.493 62.6908C100.225 62.6534 99.9573 62.6159 99.6882 62.5784C99.6438 62.5754 99.598 62.5709 99.5536 62.5679C99.2534 62.5275 98.9517 62.487 98.6515 62.4465C98.4031 62.3506 98.1103 62.3716 97.8811 62.1902C97.9654 62.0404 98.0334 61.9205 98.1014 61.7991C97.8767 61.6477 97.6607 61.6866 97.4508 61.6866C97.0589 61.6717 96.6655 61.6582 96.2736 61.6432C95.7546 61.6117 95.234 61.5787 94.715 61.5473C94.6262 61.5368 94.539 61.5263 94.4503 61.5143C94.2521 61.3734 93.912 61.4738 93.8144 61.1306C93.9741 60.8833 94.2403 60.8398 94.4843 60.7799C94.7978 60.7034 95.1246 60.675 95.4411 60.6105C95.8655 60.5251 96.2869 60.4322 96.7069 60.3272C96.8311 60.2973 96.9495 60.2238 96.9287 60.0545C96.8681 60.0065 96.8075 59.9166 96.7468 59.9151C96.5117 59.9106 96.2781 59.9346 96.0429 59.9481C95.9158 59.9481 95.7886 59.9511 95.6614 59.9511C95.654 59.984 95.6437 60.017 95.6318 60.05C95.6437 60.0185 95.654 59.9855 95.6614 59.9511C94.6839 59.954 93.7064 59.9555 92.7289 59.9645C92.6461 59.9645 92.5648 60.014 92.4835 60.041C92.4081 60.041 92.3326 60.041 92.2587 60.0425C92.204 60.0425 92.1493 60.0425 92.0945 60.044C91.9274 60.053 91.7618 60.062 91.5947 60.071C91.4439 60.068 91.293 60.056 91.1422 60.062C89.6116 60.1309 88.0796 60.1489 86.5476 60.1204C85.8806 60.1084 85.2137 60.1624 84.5467 60.1879C84.5556 60.1909 84.5645 60.1939 84.5734 60.1969C84.5645 60.1939 84.5556 60.1909 84.5467 60.1894C84.288 60.1909 84.0292 60.1939 83.7704 60.1954C83.238 60.1849 82.7027 60.1159 82.1836 60.3018C81.4575 60.3332 80.7314 60.3632 80.0054 60.3947C79.5957 60.3602 79.1861 60.3138 78.7853 60.4531C78.2515 60.4561 77.7176 60.4531 77.1838 60.4681C77.0389 60.4726 76.8954 60.5281 76.752 60.5596C76.6899 60.5686 76.6263 60.576 76.5642 60.585C76.5612 60.627 76.5583 60.669 76.5568 60.7109C76.5597 60.669 76.5612 60.627 76.5642 60.585C76.2522 60.585 75.9313 60.5386 75.6444 60.7169C75.603 60.7079 75.5616 60.7109 75.5216 60.7229C75.3131 60.7184 75.1002 60.6825 74.9153 60.8203C74.8562 60.8323 74.797 60.8443 74.7364 60.8563C74.7334 60.8968 74.729 60.9358 74.726 60.9762C74.729 60.9358 74.732 60.8968 74.7364 60.8563C74.3623 60.8623 73.9807 60.7919 73.6229 60.9627C73.5593 60.9747 73.4942 60.9867 73.4306 60.9987C73.1703 60.9927 72.9086 60.9792 72.6483 60.9792C71.1473 60.9792 69.6464 60.9822 68.1439 60.9867C67.3394 60.9897 66.5335 60.9957 65.729 61.0017C64.2813 60.9942 62.8335 60.9837 61.3858 60.9807C60.7159 60.9807 60.046 60.9927 59.3761 61.0017C59.2267 61.0032 59.07 60.9912 58.9517 61.1171C58.6825 61.1231 58.4149 61.1276 58.1457 61.1336C57.918 61.1336 57.6888 61.1216 57.4625 61.1381C57.3472 61.1471 57.2348 61.21 57.1209 61.249C56.8562 61.255 56.5915 61.261 56.3268 61.267C56.0458 61.2805 55.7634 61.2895 55.4839 61.3105C55.2902 61.3239 55.0979 61.3599 54.9027 61.3764C54.2328 61.4319 53.5614 61.4798 52.8915 61.5398C52.8117 61.5473 52.7363 61.6072 52.6579 61.6432C52.2483 61.6432 51.8446 61.6717 51.4364 61.7376C50.8005 61.8425 50.1602 61.9324 49.508 61.916C48.6888 61.8965 47.8681 61.9235 47.0473 61.9309C45.5035 61.928 43.9596 61.9235 42.4157 61.9205C42.3285 61.9205 42.2353 61.9115 42.1569 61.9384C41.7769 62.0688 41.3835 62.0329 40.9931 62.0404C40.7107 62.0464 40.4164 62.0074 40.1472 62.0733C39.5868 62.2082 39.0234 62.1528 38.4614 62.1708C38.0695 62.1827 37.6791 62.1738 37.2872 62.1797C37.1379 62.1812 36.9782 62.1648 36.8702 62.3101C36.5005 62.3116 36.1308 62.3131 35.7596 62.3191C35.7301 62.3191 35.702 62.3641 35.662 62.3971C35.7463 62.5799 35.9105 62.5754 36.0465 62.5305C36.3867 62.4181 36.7356 62.442 37.0817 62.433C37.5165 62.4226 37.9527 62.433 38.3875 62.4151C38.5324 62.4091 38.6758 62.3461 38.8193 62.3101C39.4034 62.3041 39.989 62.3012 40.5731 62.2937C40.8763 62.2892 41.1883 62.3236 41.4796 62.2622C41.9736 62.1558 42.469 62.1618 42.9658 62.1573C43.9833 62.1483 45.0021 62.1468 46.0196 62.1528C46.3686 62.1558 46.7102 62.1288 47.0444 62.0269C47.7779 62.0613 48.5099 62.1078 49.2433 62.1258C50.3939 62.1543 51.5237 61.9549 52.6535 61.7691C53.0424 61.7541 53.4313 61.7526 53.8188 61.7196C54.6779 61.6492 55.5371 61.5622 56.3963 61.4843C56.5871 61.4663 56.7897 61.5173 56.9568 61.3764C57.8633 61.3269 58.7698 61.2775 59.6763 61.228C59.7842 61.2355 59.8922 61.249 60.0001 61.249C64.1674 61.249 68.3361 61.249 72.5034 61.2415C72.6956 61.2415 72.8879 61.1965 73.0801 61.1726C73.194 61.1471 73.3093 61.1216 73.4232 61.0976C73.8624 61.1081 74.3016 61.1126 74.729 60.9777C75.3397 60.8908 75.9505 60.8054 76.5627 60.7184C78.5458 60.6495 80.5274 60.582 82.5104 60.5086C82.7027 60.5011 82.8949 60.4591 83.0872 60.4337C83.0916 60.3992 83.0946 60.3647 83.1005 60.3287C83.3341 60.3257 83.5693 60.3228 83.8029 60.3183C83.5693 60.3213 83.3356 60.3242 83.1005 60.3287C83.096 60.3632 83.0916 60.3977 83.0872 60.4337C83.621 60.4022 84.1534 60.3692 84.6858 60.3377C86.5697 60.3437 88.4537 60.3647 90.3377 60.3497C91.6139 60.3392 92.8916 60.2748 94.1678 60.2403C94.4059 60.2343 94.644 60.2403 94.8806 60.2613C94.9752 60.2688 95.0122 60.3602 94.9989 60.4591C94.9117 60.4726 94.8244 60.4861 94.7372 60.4996C94.5671 60.5296 94.3911 60.5416 94.2285 60.594C94.0436 60.654 93.8691 60.7454 93.6946 60.8293C93.5497 60.8998 93.4358 61.0122 93.4462 61.1816C93.4565 61.3479 93.5807 61.4543 93.7242 61.5203C93.8617 61.5832 94.0066 61.6282 94.1516 61.6732C94.5715 61.8006 95.0033 61.814 95.4381 61.8215C96.0208 61.832 96.6019 61.8575 97.2097 61.877C97.2408 62.2757 97.4715 62.445 97.7953 62.5125C97.9432 62.544 98.0896 62.5829 98.239 62.6054C98.8172 62.6893 99.3969 62.7643 99.9751 62.8482C100.096 62.8662 100.213 62.9082 100.333 62.9411C100.231 63.2669 100.325 63.4687 100.614 63.5466C100.673 63.5691 100.732 63.6096 100.793 63.6141C101.605 63.6635 102.418 63.6995 103.225 63.5556C103.333 63.5646 103.441 63.5856 103.549 63.5826C104.528 63.5511 105.506 63.5796 106.48 63.683C106.955 63.734 107.434 63.749 107.912 63.7805C108.014 63.8119 108.113 63.8644 108.216 63.8719C108.795 63.9198 109.374 63.9603 109.954 63.9933C110.191 64.0068 110.429 63.9963 110.665 63.9933C110.757 63.9918 110.829 63.9588 110.785 63.8224C110.432 63.7879 110.069 63.749 109.707 63.719L109.71 63.7115ZM56.5531 61.3749C56.4998 61.3689 56.4481 61.3539 56.3993 61.3239C56.4481 61.3539 56.4998 61.3674 56.5531 61.3749C56.5797 61.3779 56.6063 61.3794 56.6329 61.3794C56.6063 61.3794 56.5797 61.3794 56.5531 61.3749ZM85.0407 60.2703C85.0407 60.2703 85.0407 60.2598 85.0407 60.2553C85.0407 60.2613 85.0407 60.2673 85.0407 60.2703ZM95.7043 60.3347C95.6718 60.3542 95.6392 60.3722 95.6082 60.3917C95.6407 60.3722 95.6732 60.3542 95.7043 60.3347Z" fill="#6A99B1"/>
<path d="M102.709 45.0081C102.652 44.6085 102.703 44.2028 102.863 43.7911C103.023 43.385 103.187 42.9818 103.348 42.5771C103.304 42.5771 103.259 42.5771 103.215 42.5771C102.829 43.0417 102.695 43.6308 102.489 44.1763C102.39 44.4401 102.403 44.7758 102.708 45.0096L102.709 45.0081Z" fill="#6A99B1"/>
<path d="M38.7261 27.5892C39.0086 27.6597 39.2156 27.871 39.4004 28.0569C39.5616 28.2187 39.6932 28.2892 39.9003 28.2637C40.0349 28.2472 40.1709 28.2397 40.3513 28.2232C40.0422 28.0419 39.7879 27.895 39.535 27.7436C39.4182 27.6732 39.4759 27.5488 39.4566 27.4469C39.1979 27.4573 38.9376 27.4663 38.6788 27.4768C38.6936 27.5158 38.7025 27.5832 38.7261 27.5892Z" fill="#6A99B1"/>
<path d="M87.4112 37.9384C87.4112 37.9384 87.4067 37.9339 87.4038 37.9309C87.4038 37.9339 87.4038 37.9384 87.4053 37.9414L87.4097 37.9369L87.4112 37.9384Z" fill="#6A99B1"/>
<path d="M104.235 53.1256C103.895 53.4343 103.878 53.5347 104.144 53.6936C104.278 53.7745 104.379 53.866 104.474 53.9859C104.664 54.2257 104.673 54.2182 105.078 54.0233C104.715 53.8195 104.434 53.5437 104.235 53.1256Z" fill="#6A99B1"/>
<path d="M84.9401 20.3426C84.9179 20.8912 84.9564 21.4187 84.8129 21.9343C84.7641 22.1127 84.8248 22.3225 84.8425 22.5173C84.8647 22.7557 84.8957 22.9925 84.9238 23.2308C84.8913 23.3612 84.8617 23.5095 85.0569 23.5035C85.2004 23.499 85.1811 23.3612 85.1752 23.2547C85.1664 23.0584 85.1974 22.8501 85.1427 22.6672C84.9993 22.1891 85.0525 21.7095 85.0865 21.2299C85.1102 20.8882 85.0983 20.6963 84.9431 20.3396L84.9401 20.3426Z" fill="#6A99B1"/>
<path d="M34.5736 39.3322C34.3696 39.2843 34.1537 39.2858 33.9422 39.2798C33.8964 39.2798 33.8476 39.3412 33.8017 39.3742C34.3991 39.4476 34.8945 39.7054 35.3973 39.9467C35.492 39.9917 35.594 40.1026 35.7744 39.9857C35.3663 39.7354 35.0202 39.4372 34.5736 39.3307V39.3322Z" fill="#6A99B1"/>
<path d="M26.7153 43.983C26.9356 44.1853 26.9948 44.4041 26.9135 44.6799L26.9253 44.9647C26.9726 44.9902 27.0199 45.0156 27.0687 45.0411C27.2003 45.1295 27.3334 45.2195 27.505 45.3349C27.4118 45.1161 27.3305 44.9242 27.2491 44.7339C27.2491 44.524 27.3689 44.3022 27.1678 44.1119C26.8188 43.7836 26.4802 43.4449 26.1356 43.1107C26.0942 43.1526 26.0528 43.1931 26.0114 43.2351C26.245 43.4869 26.4639 43.7537 26.7153 43.9845V43.983Z" fill="#6A99B1"/>
<path d="M34.7703 62.3521C34.4701 62.3791 34.1714 62.4226 33.8712 62.4405C33.6124 62.4555 33.3522 62.4435 33.0298 62.4435C33.3743 62.7253 33.7219 62.6953 34.0561 62.6744C34.442 62.6489 34.828 62.5934 35.2125 62.544C35.2702 62.5365 35.3219 62.496 35.3973 62.46C35.1489 62.2697 34.9567 62.3356 34.7703 62.3521Z" fill="#6A99B1"/>
<path d="M79.1136 29.091C79.0146 29.3113 78.9081 29.5287 78.8046 29.7475C78.7987 30.0952 78.7927 30.4429 78.7853 30.7906C78.7617 30.8266 78.7203 30.8611 78.7158 30.9001C78.636 31.5056 78.4541 32.1126 78.7277 32.7181C78.7632 32.7945 78.7676 32.8904 78.7691 32.9774C78.7691 33.5199 79.0663 33.9696 79.2127 34.4702C79.2245 34.2738 79.2038 34.085 79.1669 33.9006C79.0663 33.406 78.9746 32.9099 78.8474 32.4228C78.7129 31.9072 78.9436 31.4201 78.9199 30.915C78.9184 30.8716 78.9096 30.8281 78.9051 30.7832C78.9214 30.4819 78.9377 30.1821 78.9554 29.8809C79.0693 29.6785 79.1935 29.4807 79.294 29.2709C79.4848 28.8797 79.4552 28.5275 79.0811 28.2502C78.9791 28.1753 78.8874 28.0868 78.7913 28.0044C78.7898 28.0584 78.7868 28.1123 78.7853 28.1663C78.8682 28.2922 78.9391 28.4301 79.0367 28.541C79.1891 28.7118 79.2038 28.8917 79.1151 29.0895L79.1136 29.091Z" fill="#6A99B1"/>
<path d="M91.0461 46.6673C91.0535 46.2731 90.737 46.0213 90.7133 45.6646C90.5995 45.756 90.4826 45.8505 90.3791 45.9329C90.5167 46.3181 90.6276 46.6148 91.0461 46.6673Z" fill="#6A99B1"/>
<path d="M56.6714 33.0838C56.7468 32.8155 56.7675 32.5292 56.8118 32.252C56.8769 32.171 56.9686 32.0991 57.0041 32.0062C57.0736 31.8233 57.112 31.627 57.1608 31.4366C57.4329 30.3965 57.6725 29.3503 57.8367 28.2877C57.8529 28.1783 57.847 28.0599 57.6666 28.1183C57.4744 29.0356 57.2851 29.9588 57.0854 30.8776C56.9834 31.3467 56.8592 31.8113 56.7453 32.2774C56.6477 32.4708 56.5649 32.6731 56.451 32.8545C56.2898 33.1123 56.2292 33.3925 56.1612 33.7223C56.4688 33.5664 56.6004 33.3356 56.6714 33.0853V33.0838Z" fill="#6A99B1"/>
<path d="M46.9704 36.9612C47.0813 36.8008 47.2129 36.6554 47.3298 36.498C47.4392 36.3541 47.6329 36.2612 47.6374 36.0439C47.59 36.0259 47.5634 36.0079 47.5546 36.0139C47.0799 36.3347 46.7442 36.7723 46.5194 37.2999C46.515 37.3388 46.512 37.3778 46.509 37.4153C46.5608 37.4288 46.6126 37.4438 46.6643 37.4573C46.7664 37.2909 46.861 37.1185 46.9719 36.9597L46.9704 36.9612Z" fill="#6A99B1"/>
<path d="M103.907 41.1623C103.838 41.3676 103.782 41.5759 103.719 41.7828C103.464 41.9896 103.319 42.2684 103.215 42.5756C103.259 42.5756 103.304 42.5756 103.347 42.5756C103.608 42.3703 103.722 42.0645 103.864 41.7783C104.015 41.5534 104.167 41.3301 104.314 41.1113C104.289 40.9284 104.265 40.7636 104.243 40.5987C104.199 40.6062 104.154 40.6137 104.11 40.6212C104.04 40.801 103.966 40.9779 103.904 41.1608L103.907 41.1623Z" fill="#6A99B1"/>
<path d="M27.3408 52.9967C27.7416 52.658 28.2592 52.4376 28.4558 51.7812C28.0462 52.1259 27.6957 52.4181 27.3497 52.7149C27.2743 52.7809 27.1811 52.8633 27.3393 52.9967H27.3408Z" fill="#6A99B1"/>
<path d="M31.6367 35.6242C31.5584 35.7846 31.4859 35.9345 31.412 36.0889C31.5584 36.2807 31.6885 36.4516 31.8512 36.6659C32.1721 36.2612 31.8231 36.0079 31.7521 35.7157C31.7447 35.6887 31.6974 35.6707 31.6382 35.6242H31.6367Z" fill="#6A99B1"/>
<path d="M79.9329 38.376C79.8456 38.34 79.7525 38.3011 79.6564 38.2621C79.615 38.5484 79.5765 38.8182 79.5366 39.0894C79.8767 38.7702 79.8782 38.7702 79.9329 38.376Z" fill="#6A99B1"/>
<path d="M32.9337 31.3137C32.9337 31.3137 32.9263 31.3122 32.9218 31.3107C32.9233 31.3137 32.9263 31.3152 32.9277 31.3182L32.9322 31.3137H32.9337Z" fill="#6A99B1"/>
<path d="M57.0544 22.2611C57.1446 22.0422 57.3398 21.8654 57.3146 21.6016C56.8326 20.7703 56.455 20.2602 56.1819 20.0713C56.1908 20.1807 56.173 20.2722 56.207 20.3366C56.312 20.53 56.4333 20.7128 56.5531 20.8972C56.836 21.3338 56.9952 21.7959 57.0307 22.2835C56.6995 22.5308 56.6078 22.91 56.63 23.2727C56.6462 23.538 56.837 23.7913 56.9509 24.0506C57.0943 24.3968 57.2363 24.743 57.3797 25.0908C57.2555 26.0035 57.6015 26.8623 57.6503 27.7946C57.7317 27.7331 57.8086 27.7046 57.8189 27.6612C57.8441 27.5578 57.8529 27.4439 57.8381 27.3389C57.7464 26.669 57.566 26.0095 57.6074 25.3216C57.6119 25.2481 57.5394 25.1702 57.5039 25.0938C57.467 24.6636 57.2141 24.3114 57.0869 23.9142C57.0529 23.8348 57.0278 23.7508 56.9849 23.6774C56.7911 23.3522 56.7941 23.0314 56.9627 22.6912C57.0248 22.5638 57.0248 22.4049 57.0529 22.2611H57.0544Z" fill="#6A99B1"/>
<path d="M89.5865 38.0298C89.5983 37.6596 89.5998 37.2894 89.5924 36.9207C89.5924 36.8862 89.5037 36.8547 89.4253 36.8008C89.3174 37.2609 89.3484 37.6851 89.4209 38.1497C89.4992 38.0957 89.585 38.0643 89.5865 38.0313V38.0298Z" fill="#6A99B1"/>
<path d="M54.8243 35.0172C54.1663 35.4953 53.8128 35.882 53.5895 36.3437C54.1027 35.9015 54.499 35.4983 54.8243 35.0172Z" fill="#6A99B1"/>
<path d="M55.7589 18.577C55.5371 18.3627 55.4425 18.018 55.092 17.8111C55.2946 18.4167 55.2916 18.4197 55.5327 18.6385C55.5977 18.6969 55.6806 18.7209 55.7589 18.5755V18.577Z" fill="#6A99B1"/>
<path d="M14.1795 54.0263C14.3865 54.1837 14.5536 54.3741 14.8317 54.4655C14.6645 53.9964 14.4797 53.8735 14.1795 54.0263Z" fill="#6A99B1"/>
<path d="M78.3491 27.4633C78.1716 27.0257 77.8626 26.7035 77.4825 26.4292C77.3923 26.624 77.4101 26.7829 77.5224 26.9328C77.589 26.9882 77.6555 27.0422 77.7221 27.0976L77.7295 27.1036C77.7709 27.1441 77.8138 27.1846 77.8552 27.225L77.8626 27.2325C77.9055 27.273 77.9483 27.3135 77.9912 27.3524L77.9971 27.3584C78.04 27.3989 78.0814 27.4409 78.1243 27.4813L78.1302 27.4888C78.2707 27.7901 78.5029 28.0029 78.7824 28.1678C78.7839 28.1138 78.7868 28.0599 78.7883 28.0059C78.6419 27.826 78.4955 27.6462 78.3476 27.4648L78.3491 27.4633Z" fill="#6A99B1"/>
<path d="M33.1155 31.7019C32.839 32.0242 32.6246 32.2894 32.5521 32.6491C32.4235 32.874 32.2948 33.0988 32.1662 33.3251C31.5953 34.5646 31.5672 34.6575 31.656 35.1776C31.8881 34.5256 32.1588 34.016 32.2919 33.448C32.4723 33.2067 32.6098 32.9459 32.6527 32.6432C32.9149 32.3264 33.0687 32.0132 33.1141 31.7034L33.1155 31.7019Z" fill="#6A99B1"/>
<path d="M54.4428 17.327C54.4532 17.3016 54.4635 17.2761 54.4753 17.2506C54.3053 17.1307 54.1337 17.0123 53.9637 16.8924C53.9563 16.9014 53.9504 16.9089 53.943 16.9179C54.0317 16.9853 54.1219 17.0498 54.2077 17.1202C54.289 17.1862 54.3644 17.2581 54.4428 17.327Z" fill="#6A99B1"/>
<path d="M6.95704 52.3657C7.04281 52.4616 7.1833 52.5485 7.20252 52.6565C7.27202 53.0386 7.53821 53.3024 7.71419 53.6187C7.88868 53.9319 8.13417 54.1612 8.49056 54.2437C8.71533 54.41 8.94011 54.5749 9.15602 54.7353C9.59078 54.6229 9.99006 54.5284 10.2947 54.2152C10.4943 54.1388 10.6999 54.0743 10.8936 53.9814C11.0711 53.8975 11.3195 53.9814 11.5251 53.6531C11.0578 53.791 10.6733 53.803 10.3376 54.0054C10.2858 54.0368 10.2829 54.1507 10.2577 54.2257C10.2577 54.2257 10.2784 54.2197 10.2888 54.2167C10.2784 54.2197 10.2562 54.2257 10.2577 54.2257C9.92351 54.3036 9.58931 54.3816 9.25805 54.4595C9.05546 54.3861 8.91201 54.1732 8.66506 54.2242C8.3338 53.9199 7.99368 53.6262 7.67574 53.3099C7.39624 53.0326 7.16999 52.7209 7.28238 52.2788C7.33266 52.0794 7.19513 51.9595 7.06795 51.8411C6.97479 51.5833 6.74261 51.5069 6.52523 51.408C6.38622 51.345 6.27383 51.387 6.15849 51.4604C5.7252 51.6208 5.3274 51.8561 4.92517 52.0809C4.91777 52.0854 4.92813 52.1184 4.9296 52.1379C5.49746 52.0689 5.75921 51.9505 6.15109 51.5818C6.41876 51.5489 6.62431 51.6807 6.81655 51.8456C6.8136 52.033 6.78994 52.2248 6.95852 52.3642L6.95704 52.3657Z" fill="#6A99B1"/>
<path d="M52.2098 38.3655C52.34 38.3835 52.4568 38.343 52.5307 38.2201L52.5455 38.2171C52.7274 38.2081 52.9019 38.0583 53.0971 38.2111C53.1725 38.2696 53.3056 38.2861 53.4062 38.2726C53.7478 38.2291 54.0864 38.1677 54.4251 38.1062C54.4827 38.0957 54.536 38.0583 54.6513 38.0073C54.428 37.9728 54.252 37.9803 54.1101 37.9144C53.9489 37.8379 53.8173 37.6971 53.6812 37.5891C53.4239 37.5936 53.2036 37.8095 52.9448 37.6986C52.8487 37.5682 52.967 37.3688 52.7836 37.2879C52.7274 37.2879 52.6416 37.2624 52.6194 37.2894C52.4657 37.4887 52.3178 37.6941 52.1817 37.9069C52.1285 37.9908 52.1137 38.1002 52.0812 38.1992C52.0383 38.3191 52.1255 38.3535 52.2054 38.364L52.2098 38.3655Z" fill="#6A99B1"/>
<path d="M39.1905 43.1077C39.1091 43.0612 39.0278 43.0133 38.9465 42.9668C38.8592 42.9233 38.7734 42.8784 38.6862 42.8349C38.6862 42.8349 38.6817 42.8394 38.6788 42.8439L38.6862 42.8349C38.3535 42.658 38.1583 42.3448 37.9172 41.9626C37.9941 42.712 38.0828 42.8049 38.6729 42.8499C38.7586 42.8934 38.8459 42.9383 38.9317 42.9833C38.979 43.0237 39.0263 43.0657 39.0722 43.1062C39.1476 43.274 39.2792 43.358 39.4581 43.3685C39.4492 43.1976 39.359 43.1122 39.189 43.1092L39.1905 43.1077Z" fill="#6A99B1"/>
<path d="M39.4596 43.367C39.4596 43.367 39.4596 43.3715 39.4596 43.373L39.464 43.3685C39.464 43.3685 39.4611 43.3685 39.4581 43.3685L39.4596 43.367Z" fill="#6A99B1"/>
<path d="M87.4112 37.9384L87.4067 37.9429C87.4082 37.9429 87.4097 37.9459 87.4112 37.9459C87.4112 37.9429 87.4112 37.9414 87.4112 37.9384Z" fill="#6A99B1"/>
<path d="M87.5546 38.4644C87.5798 38.7012 87.6508 38.9096 87.9051 39.0909C87.9317 38.7912 87.84 38.6143 87.6611 38.4719C87.6478 38.2621 87.5857 38.0763 87.4112 37.9459C87.3846 38.1392 87.463 38.3041 87.5546 38.4644Z" fill="#6A99B1"/>
<path d="M42.4054 46.369C42.4453 46.411 42.4793 46.4785 42.5252 46.486C42.5651 46.4934 42.6168 46.435 42.6627 46.405C42.6375 46.3601 42.6139 46.3016 42.602 46.3046C42.5355 46.3181 42.4704 46.3466 42.4054 46.369Z" fill="#6A99B1"/>
<path d="M39.6607 43.5138C39.6504 43.4809 39.6489 43.4299 39.6282 43.4194C39.5794 43.3954 39.5232 43.388 39.47 43.3745C39.501 43.4209 39.5291 43.4719 39.5676 43.5094C39.5838 43.5258 39.6297 43.5124 39.6607 43.5138Z" fill="#6A99B1"/>
<path d="M39.4655 43.3685L39.4611 43.373C39.4611 43.373 39.467 43.373 39.47 43.3745C39.4685 43.3715 39.467 43.37 39.4655 43.367V43.3685Z" fill="#6A99B1"/>
<path d="M32.9337 31.3137L32.9292 31.3182C32.944 31.3497 32.9588 31.3827 32.9736 31.4141C32.9603 31.3812 32.947 31.3467 32.9337 31.3122V31.3137Z" fill="#6A99B1"/>
<path d="M42.8002 46.6133C42.8135 46.6283 42.8283 46.6583 42.8387 46.6553C42.8741 46.6493 42.9067 46.6328 42.9407 46.6208C42.9274 46.6058 42.9126 46.5759 42.9037 46.5774C42.8682 46.5834 42.8342 46.5999 42.8002 46.6133Z" fill="#6A99B1"/>
<path d="M87.3994 19.2665C87.4718 18.8258 87.6197 18.4272 87.9021 18.0689C88.1417 17.7647 88.1949 17.387 88.1432 17.0018C88.1254 16.8714 88.0973 16.741 88.0722 16.6121C88.0086 16.2689 87.8948 15.9317 88.0663 15.578C88.1269 15.4536 88.0397 15.3187 87.911 15.2527C87.8356 15.2138 87.7484 15.1943 87.667 15.1673C87.3136 14.8795 86.9557 14.5963 86.6052 14.3025C86.3716 14.1061 86.1586 13.8828 85.9176 13.697C85.2595 13.1859 84.6828 12.5939 84.1327 11.9689C83.9316 11.7411 83.7142 11.5282 83.5042 11.3079C83.1803 10.8853 82.9289 10.4341 82.8742 9.88257C82.855 9.69222 82.7737 9.49438 82.6716 9.33101C82.2901 8.71651 81.8893 8.114 81.493 7.50999C81.4708 7.47701 81.4206 7.46352 81.3348 7.41107C80.7255 7.53247 80.0896 7.46202 79.4449 7.18475C79.4641 6.5073 79.0648 6.05167 78.6049 5.632C78.4275 5.47014 78.2411 5.31726 78.0563 5.16288C77.4884 4.68477 76.9161 4.20966 76.3498 3.73004C75.532 3.0376 74.7098 2.35116 73.7619 1.84007C73.6495 1.78012 73.5312 1.70818 73.4543 1.61076C73.3286 1.45339 73.1748 1.41442 72.9944 1.41891C72.0583 1.44439 71.1252 1.48036 70.2438 1.86106C70.1491 1.90152 70.0308 1.93 69.9318 1.91351C69.5074 1.84007 69.0874 1.74715 68.6097 1.64973C68.5254 1.41742 68.4263 1.15213 68.3332 0.886844C68.2681 0.699496 68.2238 0.506152 68.1498 0.3233C68.0907 0.177918 67.9916 0.0475235 67.8215 0.0340344C67.2566 -0.012428 66.6843 -0.082871 66.2229 0.374259C66.146 0.450697 66.0617 0.522639 65.9819 0.59608C65.0236 1.13414 64.0639 1.66921 63.1101 2.21477C62.6797 2.46057 62.2627 2.72885 61.8398 2.98665C61.9167 3.02711 61.9936 3.06608 62.0705 3.10655C62.208 3.04959 62.3514 3.00313 62.4816 2.93119C63.3082 2.47106 64.1393 2.01393 64.9556 1.53432C65.38 1.28552 65.7793 0.991759 66.1904 0.717481C66.6207 0.506152 67.0629 0.368264 67.5154 0.47168C67.613 0.757949 67.6869 1.00974 67.7831 1.25105C67.9694 1.71567 68.2149 2.15482 68.3302 2.65092C68.3613 2.78581 68.4973 2.89672 68.5846 3.01812C68.5506 3.17699 68.6482 3.27291 68.7443 3.37183C68.7827 3.4138 68.8197 3.45726 68.8582 3.49923L68.8611 3.50523C68.904 3.54719 68.9454 3.58916 68.9883 3.63112L68.9927 3.63712C69.0356 3.67459 69.0785 3.71206 69.1214 3.74953C69.148 3.784 69.1835 3.80049 69.2279 3.79599C69.392 4.12722 69.6996 4.29359 69.9894 4.48243C70.3517 4.71774 70.7495 4.90809 71.0054 5.24232C71.029 5.43566 71.0497 5.60203 71.0704 5.76989C71.0808 5.85682 71.0675 5.95574 71.1045 6.02918C71.3041 6.43835 71.2361 6.82804 71.0793 7.23571C70.6357 8.38228 70.2127 9.53784 69.7794 10.6889C69.7262 10.8298 69.6597 10.9677 69.6109 11.0801C69.463 11.1326 69.3462 11.173 69.1998 11.2255C69.3269 11.5132 69.0711 11.7935 69.25 12.0528C69.4955 12.0393 69.531 11.8295 69.6478 11.7096C69.7292 11.7141 69.8105 11.7171 69.8904 11.7216L69.9096 11.7276C70.3872 12.0303 70.8649 12.3346 71.3425 12.6373C71.4786 12.7587 71.6132 12.8801 71.7492 13.0015C71.7684 12.9611 71.7995 12.9341 71.8424 12.9221C71.727 12.7198 71.5791 12.5594 71.3396 12.5144C71.0261 12.1143 70.5943 11.864 70.1891 11.5792L70.1713 11.5642C70.1299 11.5267 70.0885 11.4878 70.0486 11.4503L70.0353 11.4398C69.9939 11.3993 69.9525 11.3589 69.9096 11.3184C69.9569 11.1311 69.988 10.9392 70.053 10.7594C70.5632 9.3475 71.0793 7.93864 71.5939 6.52978C71.6028 6.48332 71.6132 6.43835 71.622 6.39189C71.6191 6.23152 71.6161 6.07115 71.6132 5.91078C71.6191 5.84483 71.6235 5.77889 71.6294 5.71294C71.6457 5.67997 71.6413 5.65149 71.6161 5.62601C71.591 5.56756 71.5762 5.49861 71.5377 5.45215C70.9122 4.70575 70.1329 4.16919 69.2633 3.75852C69.2175 3.71506 69.1731 3.67159 69.1273 3.62813C69.1273 3.63112 69.1273 3.63412 69.1273 3.63562C69.0844 3.58766 69.0415 3.5412 68.9986 3.49324V3.50223C68.9528 3.45726 68.9084 3.4138 68.8641 3.37033C68.8123 3.24144 68.762 3.11254 68.7103 2.98365C68.6807 2.92819 68.6526 2.87424 68.623 2.81878C68.6127 2.86974 68.6023 2.9192 68.592 2.97016C68.592 2.97016 68.592 2.98065 68.589 2.99264C68.589 2.98065 68.592 2.97016 68.592 2.97016C68.6023 2.9192 68.6127 2.86974 68.623 2.81878C68.592 2.60895 68.5594 2.39912 68.5254 2.16681C68.9055 2.08138 69.2648 2.07688 69.5798 2.20278C69.9658 2.35566 70.2734 2.26123 70.6298 2.11285C71.3189 1.82658 72.0553 1.76513 72.7977 1.79661C72.9485 1.8026 73.0239 1.90302 73.0713 2.03492C72.845 2.29421 72.5374 2.40362 72.2254 2.50853C71.9769 2.59246 71.7285 2.6764 71.5673 2.93868C71.591 3.5322 71.5052 4.1587 71.8542 4.71625C71.8439 4.75821 71.8512 4.79718 71.8793 4.83015C71.9163 4.86912 71.9533 4.90809 71.9903 4.94706L71.9976 4.98153C72.079 5.022 72.1618 5.06396 72.2431 5.10443C72.218 5.04748 72.1929 4.98902 72.1677 4.93207C72.1929 4.99052 72.218 5.04898 72.2431 5.10593C72.4161 5.2618 72.4901 5.45365 72.4768 5.69196C72.4679 5.84483 72.4531 6.0127 72.6261 6.18506C72.6986 5.86282 72.7134 5.60353 72.6602 5.34424C72.6069 5.08495 72.5359 4.83015 72.2624 4.71025C72.255 4.72524 72.2476 4.74173 72.2387 4.75671C72.2461 4.74173 72.2535 4.72524 72.2624 4.71025C72.2313 4.69227 72.1988 4.68177 72.1633 4.68177C72.1559 4.64131 72.1411 4.60234 72.1204 4.56637C72.0805 4.5259 72.0405 4.48393 71.9991 4.44347L71.9799 4.43897C71.9341 4.36703 71.8542 4.29958 71.8483 4.22464C71.8187 3.85444 71.7936 3.48274 71.8927 3.09156C72.2771 2.81728 72.6587 2.52952 73.0594 2.27322C73.1467 2.21777 73.3005 2.27023 73.4232 2.27322C74.4347 2.88173 75.3752 3.58616 76.2595 4.37452C76.8466 4.8976 77.4633 5.3862 78.0711 5.8853C78.5162 6.251 78.8933 6.66767 79.1225 7.20723C79.1565 7.28667 79.2068 7.35861 79.2379 7.41256C79.8102 7.66586 80.4091 7.60891 81.0021 7.71682C81.2106 8.12898 81.4176 8.53516 81.5921 8.88138C81.7607 9.03425 81.9174 9.12868 82.0062 9.26656C82.1955 9.56033 82.4114 9.85858 82.5016 10.1868C82.6317 10.6589 82.8816 11.0171 83.2395 11.3199C83.2765 11.3619 83.3149 11.4053 83.3519 11.4473C83.3519 11.4473 83.3578 11.4563 83.3593 11.4563C83.4169 11.5462 83.4643 11.6451 83.5338 11.7246C84.5911 12.9491 85.8259 13.9847 87.0282 15.0534C87.1908 15.1973 87.392 15.3022 87.4082 15.557C87.3461 15.8942 87.3831 16.2179 87.5295 16.5267L87.5103 16.5612L87.5413 16.5896C87.6966 17.2071 87.6463 17.7812 87.2677 18.3207C87.0755 18.595 87.0725 18.9337 87.1332 19.2635C87.1361 19.3084 87.1391 19.3534 87.142 19.3969C87.2263 19.3969 87.3121 19.3969 87.3964 19.3969C87.3964 19.3519 87.3964 19.3069 87.3964 19.262L87.3994 19.2665Z" fill="#6A99B1"/>
<path d="M46.4011 37.4168L46.3922 37.4288C46.3567 37.4677 46.3212 37.5082 46.2872 37.5472C46.0491 37.775 45.8332 38.0208 45.7134 38.337C45.3112 38.6368 45.2876 38.6713 45.2802 39.0235C45.3378 38.983 45.4044 38.959 45.4384 38.9111C45.5744 38.7177 45.7016 38.5184 45.8318 38.3206C45.9427 38.2216 46.0536 38.1212 46.1586 38.0283C46.268 38.1047 46.3464 38.1857 46.4395 38.2171C46.5549 38.2546 46.688 38.1977 46.7959 38.3176C46.9231 38.4569 47.0769 38.4015 47.207 38.3056C47.6462 37.9803 48.0485 37.6176 48.3428 37.147C48.4063 37.096 48.4788 37.0541 48.532 36.9926C48.5779 36.9402 48.6755 36.8892 48.5868 36.7723C48.4078 36.8368 48.2895 36.9657 48.2052 37.1335C47.8902 37.3958 47.5738 37.6596 47.2425 37.9354C47.1849 37.805 47.1434 37.712 47.102 37.6206C46.963 37.5457 46.7323 37.7255 46.6628 37.4588C46.6111 37.4453 46.5593 37.4303 46.5076 37.4168H46.4691C46.4854 37.4168 46.5076 37.4168 46.509 37.4168C46.512 37.3778 46.5164 37.3388 46.5194 37.2999C46.4809 37.3388 46.441 37.3778 46.4026 37.4153L46.4011 37.4168ZM46.4144 37.7195C46.3967 37.7345 46.3789 37.7525 46.3597 37.7675C46.3715 37.772 46.3833 37.7765 46.3937 37.781C46.3819 37.7765 46.37 37.772 46.3597 37.7675C46.3774 37.7525 46.3952 37.7345 46.4144 37.7195Z" fill="#6A99B1"/>
</svg>
