<svg width="947" height="382" viewBox="0 0 947 382" fill="none" xmlns="http://www.w3.org/2000/svg">
<g opacity="0.8">
<path d="M946.189 131.423C932.276 141.465 867.854 136.514 775.428 218.067C757.09 229.592 739.079 241.493 718.982 249.883C697.012 259.05 674.866 266.399 650.419 265.81C633.917 265.408 618.696 262.236 604.757 253.52C596.311 248.24 588.996 241.267 587.5 231.235C585.565 218.255 587.664 205.501 595.318 194.277C600.308 186.953 605.7 179.906 610.614 172.532C629.417 144.252 648.107 115.935 669.335 89.3363C677.58 79.0153 684.003 67.2521 691.255 56.141C691.494 55.7648 691.745 55.376 691.984 54.9998C699.073 43.5626 701.901 31.2476 699.613 17.8917C698.444 9.7402 692.701 5.32586 686.203 1.46331C682.833 0.0762138 675.373 -0.669288 665.778 1.26266C662.322 2.41641 658.79 3.35696 655.283 4.37276C647.918 7.14427 640.251 9.32636 633.225 12.7876C597.455 30.4074 563.682 51.3379 531.531 74.8894C522.231 81.7116 513.055 88.6968 503.817 95.6067C504.031 95.8324 504.245 96.0582 504.471 96.2839C511.547 91.1798 518.661 86.1385 525.674 80.9591C561.219 54.749 598.422 31.235 638.278 12.0352C643.796 9.37652 649.628 8.43599 655.283 6.04071C664.928 3.05846 669.235 2.65468 676.286 2.41641C687.95 2.02764 694.41 6.90599 698.168 17.8791C698.545 26.9461 698.822 36.0005 694.976 44.5784C693.455 47.977 691.984 51.388 690.476 54.7866L690.3 55.1126C685.059 63.0635 680.207 71.3027 674.488 78.8899C663.013 94.1018 650.696 108.699 639.371 124.024C624.377 144.315 610.149 165.17 595.293 185.574C586.759 197.3 582.984 209.69 582.871 224.576C582.746 240.665 589.034 248.493 601.627 256.783C622.404 270.452 645.807 272.32 669.071 269.36C698.595 265.61 725.354 250.263 750.768 235.39C764.782 227.2 841.742 155.153 928.283 137.341C938.728 137.341 946.226 131.448 946.226 131.448L946.189 131.423Z" fill="#3B576B"/>
<path d="M435.016 145.958C424.546 153.169 414.051 160.342 403.569 167.528C391.692 175.128 379.676 182.527 367.949 190.365C342.699 207.232 317.159 223.71 292.562 241.493C273.973 254.937 257.068 270.675 238.68 284.42C212.499 303.996 183.038 313.239 150.02 308.674C138.155 307.031 127.76 302.491 120.232 292.747C117.957 289.8 115.845 286.715 113.658 283.693C113.859 283.442 114.06 283.179 114.249 282.928C114.513 282.702 114.777 282.476 115.053 282.263C125.096 264.568 135.126 246.873 145.181 229.191C151.603 217.904 158.805 206.981 164.235 195.243C167.955 187.192 168.156 178.1 162.701 169.973C158.642 166.65 150.246 166.512 146.337 169.848C141.938 173.585 137.338 177.172 133.416 181.373C129.331 185.737 124.832 190.264 122.494 195.581C116.599 209.05 110.893 222.745 106.821 236.853C102.07 253.307 101.404 270.161 109.159 286.339C109.586 287.242 109.536 288.358 109.712 289.374C106.921 293.462 104.206 297.613 101.316 301.639C87.666 320.588 70.296 335.724 51.9205 349.933C37.9315 360.743 23.6282 370.889 6.99976 377.335C4.62427 378.25 2.44988 379.667 0.1875 380.846C1.77116 381.335 2.97776 381.047 4.12152 380.57C21.1522 373.585 36.5992 364.091 51.1789 352.805C73.6519 335.423 94.604 316.763 109.712 292.371C110.139 291.681 111.258 291.405 112.049 290.941C116.574 299.043 122.859 305.326 131.518 308.85C150.221 316.462 169.577 315.672 188.668 311.496C212.964 306.178 233.891 293.675 252.417 277.473C283.839 249.996 317.159 225.153 352.464 202.88C370.073 191.769 387.255 179.993 404.625 168.519C408.446 166.073 412.355 163.753 416.062 161.145C430.064 151.288 443.99 141.343 457.954 131.423C457.665 131.147 457.363 130.884 457.074 130.608C449.721 135.737 442.381 140.891 434.991 145.983L435.016 145.958ZM109.498 266.825C107.977 250.159 111.748 234.458 119.239 219.472C121.903 214.129 123.701 208.273 125.272 202.491C127.019 196.096 130.123 190.666 134.673 185.938C139.311 181.11 143.66 175.955 148.562 171.428C152.156 168.117 156.769 169.133 161.105 170.249C166.082 178.639 166.422 187.656 162.098 195.933C154.859 209.803 146.463 223.058 138.733 236.678C130.274 251.576 122.029 266.587 113.683 281.548L114.161 281.787C113.998 281.711 113.834 281.624 113.683 281.548C112.238 276.645 109.938 271.829 109.485 266.838L109.498 266.825Z" fill="#3B576B"/>
<path d="M492.707 103.583C480.817 112.549 468.964 121.579 457.087 130.583C457.376 130.859 457.677 131.122 457.967 131.398C464 126.959 470.083 122.569 476.066 118.042C485.568 110.844 494.994 103.532 504.446 96.2714C504.232 96.0457 504.006 95.8199 503.792 95.5942C500.097 98.2528 496.339 100.836 492.694 103.583H492.707Z" fill="#3B576B"/>
</g>
</svg>
