<svg width="559" height="149" viewBox="0 0 559 149" fill="none" xmlns="http://www.w3.org/2000/svg">
<path opacity="0.2" d="M557.805 78.4146C557.668 88.317 549.926 97.7748 535.713 106.375C521.526 114.959 501.031 122.601 475.704 128.914C425.057 141.538 355.202 148.818 278.149 147.751C201.096 146.685 131.469 137.474 81.1911 123.453C56.0484 116.442 35.7725 108.235 21.829 99.2619C7.85948 90.2716 0.381883 80.6031 0.518951 70.7007C0.656019 60.7983 8.39836 51.3405 22.6114 42.7403C36.7979 34.156 57.2932 26.514 82.6203 20.2013C133.267 7.57766 203.122 0.297268 280.175 1.36383C357.228 2.43039 426.855 11.6415 477.133 25.6621C502.276 32.6734 522.552 40.8798 536.495 49.8534C550.465 58.8437 557.942 68.5122 557.805 78.4146Z" stroke="#3B576B"/>
</svg>
