<svg width="960" height="384" viewBox="0 0 960 384" fill="none" xmlns="http://www.w3.org/2000/svg">
<path d="M954.309 4.54893C950.868 5.56258 947.367 6.35152 943.912 7.32023C942.114 7.82456 940.695 8.86816 940.004 10.8905C939.747 11.6495 939.257 12.5732 938.636 12.8928C934.542 14.98 930.522 17.207 926.003 18.2706C922.361 19.1295 918.818 20.5176 915.265 21.7809C911.964 22.9494 911.446 26.8991 909.112 29.0562C909.055 29.1061 909.023 29.246 909.046 29.3259C909.718 31.6727 908.005 32.7962 906.805 34.0845C904.546 36.5063 902.813 39.2177 901.978 42.5582C901.777 43.3571 901.38 44.0961 901.077 44.8551C900.554 44.8551 900.19 44.925 899.854 44.8451C897.725 44.3109 896.651 42.5882 895.712 40.6707C894.452 38.1041 894.429 38.1091 891.758 38.5785C890.964 38.7183 890.175 38.8831 889.396 39.0878C885.754 40.0565 882.141 41.1301 878.48 41.989C875.357 42.723 872.318 43.8814 869.04 43.9413C867.332 43.9713 866.851 44.7802 866.636 46.5429L866.519 46.7626L866.734 46.8375C866.762 47.1121 866.785 47.3868 866.813 47.6664C867.093 47.8511 867.369 48.0309 867.649 48.2156L867.677 48.1507C868.499 47.956 869.32 47.7563 870.142 47.5615C871.454 47.2869 872.775 47.0672 874.073 46.7326C879.367 45.3595 884.657 43.9813 889.937 42.5432C891.683 42.0689 892.907 42.2786 893.882 44.211C895.227 46.8724 897.5 48.0509 900.395 47.7662C901.824 47.6264 902.697 47.0572 902.883 45.3794C903.518 39.6671 906.917 35.8072 910.928 31.8575C912.291 33.3605 913.57 34.7736 914.854 36.1917C914.971 36.2466 915.036 36.3415 915.055 36.4813C915.237 36.7659 915.419 37.0505 915.596 37.3352C915.746 37.5499 915.9 37.7696 916.049 37.9843C916.082 38.179 916.166 38.3388 916.301 38.4736C916.409 38.6684 916.521 38.8581 916.628 39.0529C917.198 40.1963 917.763 41.3398 918.332 42.4833C919.121 43.4021 920.512 43.7566 920.48 45.4394C920.433 47.916 921.824 48.9746 923.977 49.3042C925.321 49.5139 926.577 50.0482 927.142 51.9856C925.088 54.0978 923.216 56.5345 922.459 59.9001C924.308 57.9027 926.003 56.0901 927.679 54.2476C928.972 52.8195 928.986 51.0519 927.548 49.8085C926.74 49.1094 925.709 48.5003 924.705 48.3155C922.786 47.966 921.745 47.0622 921.367 44.925C921.157 43.7516 921.012 42.1487 919.392 41.8392C919.658 36.2816 916.605 32.5915 913.225 29.3808C912.781 25.9554 914.364 24.3325 917.025 23.6384C920.578 22.7097 924.135 21.8309 927.697 20.947C928.907 20.6474 930.186 20.5576 931.33 20.0832C933.827 19.0446 936.283 17.8711 938.711 16.6628C940.438 15.8039 942.086 14.6754 942.693 12.6281C943.127 11.1651 944.075 10.7956 945.233 10.511C948.543 9.70704 951.849 8.89313 955.159 8.07922C956.891 7.65478 958.408 6.80092 960 5.51764C957.899 5.18308 956.302 3.97469 954.318 4.55892L954.309 4.54893Z" fill="#9AB1C5"/>
<path d="M931.904 373.252C931.162 372.917 930.387 372.673 929.649 372.343C927.838 371.534 926.035 370.715 924.238 369.866C921.955 368.788 919.714 367.594 917.398 366.606C915.162 365.652 912.804 365.013 910.582 364.024C906.544 362.237 902.533 360.364 898.574 358.387C896.492 357.348 894.461 356.145 892.556 354.776C889.736 352.749 887.052 350.512 884.307 348.365C883.252 346.852 881.646 346.468 880.072 346.018H880.063C879.867 345.878 879.666 345.744 879.47 345.604L879.414 345.509C879.083 345.319 878.751 345.134 878.42 344.945L878.401 344.895C878.233 344.72 878.06 344.545 877.892 344.375C874.503 341.764 870.642 339.826 867.364 336.546C868.237 335.977 868.746 335.647 869.25 335.312C869.904 334.938 869.764 334.563 869.25 334.189C869.255 334.059 869.199 333.999 869.073 334.009C868.793 333.814 868.513 333.625 868.233 333.435L868.135 333.39C868.074 333.205 867.953 333.12 867.77 333.14C867.42 332.816 867.07 332.496 866.715 332.172C866.435 331.807 866.197 331.398 865.875 331.083C864.829 330.039 863.676 329.106 862.705 327.992C861.104 326.165 861.066 325.236 862.434 323.214C863.162 322.13 864.031 321.156 864.834 320.133C866.641 317.836 867.061 313.512 865.497 311.28C863.461 308.363 861.276 305.562 858.148 303.859C857.943 303.72 857.733 303.58 857.527 303.445L857.499 303.43C856.776 302.911 856.099 302.272 855.314 301.882C851.201 299.855 847.107 297.768 842.914 295.935C838.969 294.207 834.856 293.009 830.58 292.585C830.421 292.535 830.262 292.51 830.099 292.51C829.548 292.35 828.997 292.19 828.442 292.025C822.424 289.913 816.424 287.751 810.388 285.704C807.157 284.61 803.912 283.522 800.602 282.768C797.241 282.004 793.795 281.654 790.411 281.125C790.051 278.443 789.841 275.682 789.271 273.006C788.674 270.189 789.79 268.382 791.4 267.103C790.779 267.513 789.878 268.397 788.828 268.731C787.091 269.281 786.606 270.539 786.638 272.177C786.704 275.223 786.834 278.269 787.021 281.31C787.054 281.819 787.493 282.298 787.745 282.788C786.998 282.758 786.246 282.733 785.499 282.703C785.326 282.508 785.158 282.313 784.986 282.118C784.785 281.954 784.584 281.794 784.383 281.629L784.355 281.619C780.905 279.876 777.427 278.363 773.599 277.624C768.771 276.691 763.911 276.351 759.051 275.942C758.892 275.897 758.729 275.872 758.561 275.872C757.305 275.697 756.049 275.522 754.793 275.352C754.093 275.313 753.393 275.273 752.697 275.228C752.38 275.083 752.067 274.823 751.74 274.808C747.337 274.618 742.935 274.449 738.532 274.319C738.033 274.304 737.528 274.569 737.024 274.703C736.674 274.723 736.319 274.738 735.969 274.758C734.34 274.918 732.71 275.073 731.081 275.233C730.74 275.268 730.399 275.308 730.054 275.342C729.148 275.502 728.238 275.667 727.332 275.827C727.159 275.827 726.991 275.852 726.823 275.887C725.735 276.052 724.643 276.216 723.555 276.381C723.219 276.421 722.878 276.466 722.542 276.506C721.65 276.681 720.759 276.86 719.862 277.035L719.83 277.045C718.737 277.2 717.645 277.355 716.557 277.51C716.221 277.56 715.889 277.604 715.553 277.654C714.47 277.819 713.382 277.984 712.299 278.149C712.126 278.149 711.958 278.174 711.79 278.229C711.44 278.413 711.085 278.598 710.735 278.783L710.721 278.798C709.731 279.777 710.24 280.211 711.249 280.466L711.286 280.481C711.687 280.66 712.108 281.035 712.486 280.99C715.124 280.69 717.757 280.301 720.39 279.941C720.567 279.931 720.735 279.886 720.899 279.812C723.046 279.457 725.194 279.102 727.341 278.748C727.523 278.698 727.701 278.648 727.883 278.598C729.853 278.264 731.823 277.929 733.794 277.594C733.976 277.55 734.158 277.51 734.335 277.465C736.203 277.38 738.075 277.245 739.942 277.22C745.918 277.135 751.894 276.96 757.865 277.07C761.782 277.145 765.699 277.924 769.612 277.884C773.094 277.849 776.311 278.768 779.561 279.787C780.802 280.176 781.904 280.79 782.114 282.373C781.526 283.347 782.044 283.991 782.698 284.59C782.899 284.74 783.104 284.895 783.305 285.045L783.347 285.065C783.688 285.259 784.028 285.454 784.365 285.644C788.081 289.569 788.795 288.3 790.98 285.124C791.816 283.906 792.708 283.427 794.122 283.517C799.963 283.881 805.518 285.509 810.999 287.586C815.028 289.114 819.104 290.492 823.157 291.94C823.852 292.125 824.548 292.31 825.244 292.495C825.426 292.52 825.608 292.545 825.79 292.569C826.499 292.739 827.209 292.914 827.919 293.084L827.979 293.104C828.992 293.413 829.987 293.898 831.019 294.008C838.979 294.861 846.164 298.142 853.199 301.922C854.465 302.601 855.706 303.335 856.958 304.039C859.241 306.017 861.542 307.969 862.859 310.915C863.513 312.378 863.573 313.651 862.915 315.234C862.084 317.227 861.216 319.094 859.96 320.847C858.218 323.274 858.414 324.971 860.357 327.193C861.444 328.442 862.714 329.505 863.863 330.694C864.26 331.103 864.544 331.627 864.955 332.212C863.905 332.671 863.106 333.016 862.308 333.365C862.033 333.57 861.757 333.77 861.482 333.969C861.365 334.583 861.253 335.198 861.136 335.807L861.099 335.992L861.267 336.081C861.622 336.486 861.911 337.025 862.345 337.27C867.892 340.401 873.457 343.492 879.017 346.592C880.591 347.396 882.169 348.2 883.742 349.009C884.475 349.833 885.119 350.772 885.95 351.456C888.144 353.263 890.427 354.951 892.659 356.709C893.154 357.098 893.878 357.498 894.004 358.022C894.648 360.768 896.702 361.293 898.822 361.897C900.624 362.411 902.379 363.13 904.153 363.764C908.299 365.247 912.398 366.925 916.614 368.139C918.976 368.818 921.157 369.746 923.342 370.87C927.193 372.852 931.157 374.595 935.079 376.428C935.317 376.537 935.62 376.488 935.863 376.592C936.601 376.912 937.334 377.236 938.043 377.611C941.956 379.673 945.84 381.8 949.794 383.778C950.537 384.147 951.531 383.933 952.409 383.982C952.455 383.738 952.507 383.493 952.553 383.249C949.603 381.696 946.69 380.048 943.692 378.61C939.799 376.737 935.835 375.024 931.899 373.257L931.904 373.252Z" fill="#9AB1C5"/>
<path d="M507.998 164.725C502.587 164.076 497.148 163.627 491.709 163.237C484.823 162.743 478.002 161.834 471.33 159.892C466.162 158.384 461.022 156.766 455.868 155.193C455.746 155.103 455.615 155.063 455.471 155.083C453.463 154.344 451.451 153.61 449.444 152.871L449.43 152.866C448.902 152.661 448.379 152.452 447.852 152.247H447.856C447.487 152.087 447.114 151.922 446.745 151.762C446.624 151.663 446.488 151.623 446.339 151.638C445.947 151.458 445.555 151.278 445.162 151.098C444.794 150.929 444.429 150.759 444.061 150.584L444.033 150.574C443.514 150.364 442.991 150.155 442.473 149.945H442.478C442.109 149.78 441.74 149.615 441.371 149.451L441.329 149.436C440.816 149.221 440.302 149.006 439.789 148.791H439.793C439.425 148.627 439.056 148.457 438.687 148.292L438.65 148.277C438.131 148.072 437.613 147.868 437.09 147.663C436.194 147.283 435.297 146.909 434.401 146.529L434.387 146.524C433.855 146.325 433.327 146.125 432.795 145.925H432.804C428.491 144.038 424.177 142.155 419.867 140.268C418.901 139.773 417.949 139.239 416.964 138.795C412.015 136.573 407.113 134.226 401.58 134.116C388.331 133.861 375.086 133.552 361.841 133.232C357.994 133.137 354.147 133.017 350.304 132.768C340.537 132.139 330.836 132.273 321.237 134.725C318.833 135.339 316.279 135.294 313.795 135.574C312.007 135.774 310.812 134.9 310.294 133.152C309.425 130.251 308.548 127.34 307.941 124.369C307.39 121.673 307.17 118.896 306.853 116.145C306.307 111.386 304.108 108.031 299.939 106.014C297.259 104.72 294.654 103.172 292.198 101.44C281.432 93.8497 283.911 94.7336 270.848 91.3131C266.562 90.1946 265.381 88.6017 265.335 83.903C265.32 82.3451 265.19 80.877 264.247 79.5688C259.989 73.6816 255.185 68.4786 248.887 65.0432C246.417 63.695 244.017 62.197 241.641 60.669C240.997 60.2546 240.278 59.5755 240.072 58.8564C239.181 55.7756 236.842 54.6171 234.321 53.9031C232.532 53.3987 231.673 52.6048 231.342 50.5425C230.394 44.6854 227.243 40.9304 221.58 39.8368C219.913 39.5123 218.316 38.8132 216.654 38.4587C213.181 37.7097 210.734 36.1118 210.562 31.7976C210.487 29.945 209.245 28.8016 207.345 28.5369C205.58 28.2922 203.839 27.8029 202.097 27.3585C196.42 25.9154 190.883 26.1052 185.776 29.4008C182.862 31.2832 180.019 32.0822 176.485 31.8425C172.344 31.5629 169.099 30.2147 166.233 27.1238C163.207 23.8631 159.584 21.4364 155.78 19.3142C155.266 19.0246 154.757 18.5053 154.491 17.961C152.792 14.5006 151.106 11.0253 149.533 7.49999C149.015 6.34154 148.347 5.75732 147.194 5.45272C144.892 4.83854 142.768 5.48768 140.62 6.19174C139.999 6.1418 139.383 6.08688 138.762 6.03694C138.277 5.57256 137.796 5.10319 137.31 4.63881C135.858 4.58388 134.402 4.52895 132.95 4.47902C132.165 4.32922 131.353 4.25432 130.592 4.00965C127.842 3.12084 125.657 3.79993 124.14 6.50632C124.023 6.62616 123.902 6.746 123.78 6.86584C121.208 8.60851 118.757 10.7407 115.363 9.77695C115.171 9.75698 114.98 9.73201 114.789 9.71204C114.382 9.10285 113.981 8.49366 113.575 7.88448C113.645 7.70472 113.593 7.57988 113.416 7.50498C111.931 5.00332 110.442 2.50166 108.957 0C108.719 0 108.477 0 108.238 0C104.658 1.65779 103.066 5.0233 101.758 8.63847C101.721 8.99799 101.679 9.35751 101.642 9.71703C100.699 11.0902 99.5967 12.3685 98.8357 13.8515C96.7442 17.9311 94.8674 22.1404 92.7525 26.205C91.5059 28.6018 90.0586 30.8938 88.5413 33.1008C86.912 35.4677 85.7775 37.9543 85.8708 40.9603C85.7541 41.4647 85.6327 41.974 85.516 42.4783C85.3013 43.7466 85.0865 45.0099 84.8718 46.2782C84.7691 46.5429 84.6617 46.8025 84.559 47.0672C84.5123 47.3268 84.4702 47.5865 84.4236 47.8461L84.3022 47.926L84.3815 47.9909C81.0528 52.3751 77.6213 56.6294 72.341 58.442C67.7611 60.0149 63.6947 62.5765 60.0671 65.912C59.2314 66.681 58.6852 67.8045 58.0036 68.7632C57.8915 69.0029 57.7841 69.2426 57.6721 69.4823C57.6207 69.687 57.5694 69.8917 57.518 70.0964C57.3313 70.2013 57.2799 70.3511 57.364 70.5458C57.0512 71.5245 56.7383 72.5032 56.4255 73.4819C56.3368 73.6717 56.2481 73.8664 56.1594 74.0562C55.884 74.9899 55.6085 75.9286 55.3284 76.8624C55.2304 77.0821 55.1323 77.3018 55.0343 77.5165C54.7448 78.2655 54.46 79.0095 54.1893 79.7086C53.3862 79.9533 52.6579 80.173 51.9343 80.3927C51.8409 80.4127 51.7429 80.4276 51.6495 80.4426C50.2722 80.9569 48.867 81.4014 47.5224 82.0005C45.9304 82.7096 44.385 83.5535 42.821 84.3374C42.4149 84.3374 42.004 84.3474 41.5979 84.3474C39.4783 84.3724 37.354 84.3973 35.2345 84.4173C34.973 84.4323 34.7116 84.4473 34.4501 84.4623C29.6274 86.2898 24.6039 85.4709 19.6598 85.8055C17.8483 85.9303 15.9015 86.4246 14.3188 87.3484C10.5092 89.5704 6.88162 92.147 3.17003 94.5688C2.12891 95.2479 1.05512 95.877 0 96.5312V101.13C2.27831 99.3174 4.59864 97.5598 6.83026 95.6873C12.6288 90.8188 19.0995 88.377 26.5461 89.0312C27.9186 89.151 29.3426 88.6017 30.7385 88.3321C33.367 87.8228 35.9721 87.0488 38.6146 86.8341C41.976 86.5595 45.1507 86.0951 47.9426 83.8181C49.4506 82.5848 52.6999 83.174 54.2219 84.667L54.0865 84.7768L54.1099 84.9616C53.8111 86.125 53.5123 87.2935 53.2135 88.4569C53.0314 88.8864 52.7933 89.2958 52.6766 89.7452C51.4814 94.3441 50.2909 98.9429 49.1471 103.557C49.0257 104.046 49.1844 104.61 49.2125 105.135C51.0052 105.704 52.5786 103.687 54.2966 105.155C54.2406 105.824 54.1752 106.578 54.1099 107.332C54.3527 107.561 54.5908 107.796 54.8335 108.026C54.8522 107.661 54.8662 107.292 54.8849 106.927C55.0249 106.708 55.165 106.488 55.3004 106.268C55.4451 106.188 55.5385 106.068 55.5899 105.909C55.6926 105.659 55.7999 105.409 55.9027 105.16C56.673 104.036 57.7234 103.027 57.2659 101.435C55.6225 99.9166 53.7224 100.286 51.7195 100.706C52.4198 97.0105 53.0641 93.6051 53.7131 90.1946C55.0203 86.6793 56.3555 83.179 57.6161 79.6487C58.5685 76.9772 59.4602 74.2859 60.2912 71.5695C60.8748 69.662 61.9112 68.164 63.4799 67.1454C66.3651 65.2679 69.1757 63.1707 72.2477 61.7326C75.6698 60.1248 78.6764 58.1324 81.1275 55.1064C81.8418 54.2226 82.8922 53.6534 83.7933 52.9393C83.7933 52.9393 83.8026 52.9643 83.8166 52.9943C83.826 53.0192 83.84 53.0492 83.84 53.0492C83.2424 56.5845 83.6299 57.3335 86.6645 58.6268C87.4022 58.9413 88.1118 59.3258 88.8355 59.6803C91.3052 61.9873 93.3781 64.424 91.1464 68.194C91.0998 68.2689 91.0577 68.3937 91.0811 68.4686C91.2958 69.0329 91.4266 69.9866 91.772 70.0815C93.2707 70.5059 93.9243 71.5894 94.4612 72.9976C94.6666 73.5418 95.3342 73.9063 95.8291 74.2958C97.3138 75.4493 98.8171 76.5778 100.199 77.6264C98.9338 73.6816 94.7927 71.9889 92.6638 68.204C92.8225 67.6347 93.0233 66.8058 93.28 65.9969C93.6815 64.7186 93.5788 63.4653 92.7945 62.4616C91.7207 61.0835 90.4882 59.8501 89.3257 58.5518H89.321C89.1343 58.3621 88.9522 58.1724 88.7654 57.9826L88.7701 57.9876C88.5927 57.7929 88.4153 57.5981 88.2379 57.4084C88.0651 57.1837 87.8971 56.964 87.7243 56.7393C87.2715 55.2313 86.8186 53.7183 86.3657 52.2103C86.2817 51.5512 86.1977 50.8971 86.1136 50.2379C86.2303 48.6101 86.3424 46.9773 86.4591 45.3495C86.4824 44.985 86.5105 44.6204 86.5338 44.2559C86.8466 42.8778 87.2434 41.5146 87.4582 40.1165C87.813 37.7846 88.63 35.6624 90.194 34.0446C93.0839 31.0486 94.7647 27.2886 96.4781 23.5136C96.8936 22.5998 97.4398 21.6561 98.1495 21.012C101.039 18.4054 102.902 15.1348 104.069 11.3449C104.247 10.7706 104.546 10.2413 105.022 9.16776C106.632 11.5296 107.972 13.497 109.312 15.4644C109.438 15.6641 109.56 15.8588 109.686 16.0586L109.69 16.0686C110.423 17.7813 111.156 19.499 111.885 21.2117C111.913 21.7809 111.885 22.3602 111.978 22.9194C112.697 27.3585 114.424 31.7077 112.436 36.3165C111.908 37.5449 112.744 38.3888 114 37.9843C115.293 37.5599 116.035 38.0043 116.712 39.0279C117.749 42.1487 118.883 42.4433 120.998 40.1464C121.936 39.1278 122.94 38.1641 123.822 37.0905C125.069 35.5775 126.33 34.0545 127.151 31.7726C124.854 32.4567 123.178 33.4703 121.689 34.8735C120.816 35.6924 119.929 36.4963 119.098 37.3651C118.397 38.0942 117.833 37.7646 117.244 37.2353C116.455 35.927 115.283 36.1917 114.13 36.3665C114.009 36.4464 113.888 36.5262 113.766 36.6061C113.785 36.4214 113.804 36.2316 113.822 36.0419C113.874 35.5725 113.874 35.0932 113.986 34.6438C115.162 29.94 113.747 25.5958 112.398 21.2416C112.324 19.0346 111.521 17.1321 110.279 15.4144C109.681 14.1112 109.083 12.8029 108.486 11.4997C108.374 11.255 108.262 11.0153 108.15 10.7706C107.772 9.5922 107.398 8.41377 107.02 7.23035L106.983 7.21038C107.141 6.33155 107.379 5.52762 108.799 5.55259C109.662 7.09553 110.75 8.72835 111.53 10.516C112.183 12.019 113.043 12.4684 114.494 12.1438C116.063 11.7893 117.664 11.5995 119.238 11.265C119.821 11.1401 120.475 10.9604 120.919 10.5709C124.882 7.07056 129.752 6.22669 134.556 5.20306C135.158 5.07323 135.812 5.10818 136.428 5.19806C136.829 5.25798 137.408 5.44274 137.553 5.76231C138.309 7.38015 139.663 7.26031 141.013 7.37516C142.063 7.46504 143.095 7.75465 144.528 8.03428C144.281 9.18774 144.253 10.2313 143.842 11.0602C142.885 12.9977 141.774 14.8502 140.676 16.7077C139.505 18.6901 139.449 18.9547 141.148 20.1681C143.23 21.6561 144.463 23.3688 142.941 26.4697C144.491 25.1864 145.014 23.8931 145.046 22.3002C145.088 20.0682 144.36 18.2656 142.488 17.1671C143.814 14.6405 145.042 12.3086 146.391 9.73201C146.825 10.471 147.04 10.7756 147.199 11.1152C148.487 13.8116 149.341 16.8026 152.035 18.5003C152.502 18.7949 152.567 19.8385 152.801 20.5426C153.151 21.6211 153.389 22.7696 154.617 23.1741C155.121 23.3389 155.653 23.5336 156.064 23.8631C159.211 26.3698 162.367 28.8665 165.453 31.453C167.867 33.4803 170.533 34.5039 173.614 34.5739C176.247 34.6338 178.871 34.9633 181.499 35.183C181.672 35.198 181.849 35.2629 181.999 35.3578C184.132 36.711 186.257 38.0792 188.334 39.4024C187.917 42.0356 188.407 44.2226 189.805 45.9636C192.223 47.5366 194.189 49.9583 197.429 50.7922C195.132 48.72 193.129 46.9124 191.126 45.1098C190.846 44.0462 190.566 42.9826 190.29 41.9141C190.458 41.7792 190.486 41.6145 190.374 41.4347C191.271 39.0778 190.693 37.3352 188.642 36.2067C187.769 35.7273 186.864 35.2879 186.033 34.7336C185.556 34.4191 185.187 33.9097 184.581 33.2956C186.373 31.8325 188.073 30.8538 190.08 30.6791C195.379 30.2247 200.594 30.684 205.753 32.1721C207.275 32.6115 208.045 33.2656 208.227 34.9633C208.592 38.3938 210.557 40.1814 213.694 40.6208C214.138 40.6807 214.577 40.7856 215.011 40.8904C218.064 41.6145 221.122 42.2985 224.162 43.0775C226.888 43.7766 228.349 45.8738 229.12 48.6001C229.554 50.1381 230.072 51.6261 229.521 53.3388C229.064 54.7669 229.787 55.9603 230.964 56.7243C231.487 57.0688 232.098 57.2835 232.691 57.4783C234.811 58.1823 236.608 59.216 237.43 61.6627C237.78 62.7063 238.49 63.6101 238.714 64.0046C239.96 64.3391 240.712 64.3741 241.291 64.7286C243.621 66.1517 245.857 67.7496 248.196 69.1477C252.72 71.8491 256.417 75.5242 259.783 79.6886C261.385 81.671 262.23 83.6583 262.253 86.3547C262.291 90.5991 264.728 93.4153 268.663 94.3391C271.371 94.9732 274.144 95.3278 276.81 96.1067C279.116 96.7808 281.539 97.4999 283.51 98.863C288.86 102.563 294.299 106.018 300.256 108.48C302.595 109.449 304.089 111.286 304.743 113.833C305.144 115.391 305.396 117.004 305.564 118.612C306.078 123.555 306.596 128.489 308.081 133.247C308.748 135.384 309.257 137.576 309.855 139.793C313.03 139.459 316.022 139.489 318.851 138.78C328.604 136.338 338.497 135.924 348.437 135.919C357.387 135.919 366.332 136.073 375.282 136.043C383.611 136.013 391.935 135.849 400.264 135.704C403.901 135.639 407.383 136.343 410.745 137.791C413.481 138.965 416.217 140.148 418.952 141.331C423.374 143.244 427.795 145.156 432.216 147.069L432.314 147.104C433.173 147.443 434.028 147.783 434.887 148.117C435.078 148.177 435.269 148.237 435.461 148.297C435.816 148.452 436.171 148.607 436.521 148.756L436.656 148.801C437.146 149.001 437.632 149.201 438.117 149.401L438.183 149.426C438.524 149.57 438.869 149.71 439.21 149.855L439.397 149.935C439.868 150.135 440.34 150.334 440.811 150.529L440.895 150.559C441.227 150.709 441.563 150.859 441.894 151.013L442.072 151.088C442.548 151.288 443.019 151.483 443.496 151.683L443.58 151.713C443.916 151.857 444.247 152.002 444.583 152.147L444.775 152.232C445.246 152.427 445.718 152.621 446.189 152.821L446.283 152.856C446.614 153.006 446.941 153.156 447.273 153.3L447.464 153.385C449.724 154.184 451.988 154.978 454.248 155.777C454.248 155.777 454.257 155.767 454.276 155.752C454.308 155.722 454.369 155.677 454.402 155.652C454.369 155.682 454.308 155.727 454.276 155.752C454.257 155.767 454.248 155.777 454.248 155.777C458.085 157.05 461.923 158.314 465.756 159.607C475.107 162.763 484.692 164.331 494.487 164.62C497.876 164.72 501.28 164.975 504.637 165.459C507.349 165.854 510.174 166.198 512.321 168.395C512.793 168.225 513.269 168.056 513.74 167.886C512.401 165.629 510.164 165 507.979 164.735L507.998 164.725ZM104.63 9.70205C104.583 9.64213 104.49 9.57722 104.494 9.5173C104.494 9.45738 104.592 9.40744 104.648 9.35252C104.7 9.41244 104.788 9.47735 104.784 9.53727C104.784 9.59719 104.686 9.64712 104.63 9.70205Z" fill="#9AB1C5"/>
<path d="M861.351 211.463C862.588 211.053 863.741 210.364 864.932 209.8C864.087 209.835 863.195 209.71 862.415 209.965C858.909 211.098 855.394 212.222 851.962 213.58C841.383 217.764 831.159 222.798 821.289 228.635C817.694 230.762 814.207 233.089 810.701 235.376C809.935 235.875 808.964 236.315 808.87 237.883C809.524 237.618 810.024 237.513 810.416 237.238C811.826 236.245 813.147 235.086 814.604 234.192C818.245 231.96 821.957 229.848 825.626 227.666C836.995 220.905 848.928 215.572 861.351 211.468V211.463Z" fill="#9AB1C5"/>
<path d="M809.071 193.692C809.071 193.692 809.09 193.692 809.104 193.692C809.104 193.687 809.104 193.682 809.104 193.671C809.104 193.671 809.095 193.671 809.09 193.676C809.085 193.676 809.076 193.687 809.071 193.687V193.692Z" fill="#9AB1C5"/>
<path d="M804.342 195.309C793.198 201.181 781.549 205.93 770.732 212.526C766.465 215.128 762.109 217.6 758.019 220.496C753.337 223.811 748.887 227.501 744.391 231.112C743.448 231.866 742.743 232.959 741.936 233.903C742.403 233.683 742.921 233.543 743.313 233.219C745.293 231.596 747.23 229.918 749.196 228.27C756.805 221.874 765.2 216.781 773.757 212.067C782.479 207.263 791.498 203.079 800.355 198.555C803.31 197.047 806.172 195.319 809.076 193.691C807.288 193.522 805.864 194.505 804.342 195.304V195.309Z" fill="#9AB1C5"/>
<path d="M741.903 233.938C741.903 233.938 741.922 233.918 741.931 233.903C741.917 233.908 741.903 233.913 741.889 233.923L741.903 233.938Z" fill="#9AB1C5"/>
<path d="M907.776 99.5821C910.213 97.415 912.263 95.4077 914.504 93.68C915.643 92.8011 916.315 91.8724 916.315 90.4293C916.315 88.5568 917.165 87.1237 918.36 85.9153C919.261 85.0015 920.265 84.1976 921.259 83.3887C923.001 81.9756 923.094 81.686 922.403 79.3091C922.291 79.0745 922.179 78.8398 922.067 78.6051C921.927 78.5552 921.787 78.4852 921.647 78.4753C921.591 78.4703 921.469 78.6051 921.479 78.66C921.782 80.897 920.484 81.9606 918.986 83.194C916.39 85.3311 914.247 87.9227 914.891 91.8224C912.165 93.9696 909.536 96.0268 907.786 99.5871L907.776 99.5821Z" fill="#9AB1C5"/>
<path d="M261.263 115.406C260.236 109.858 259.158 104.535 258.747 99.0528C255.792 107.851 256.361 111.566 261.263 115.406Z" fill="#9AB1C5"/>
<path d="M140.107 49.5289C138.926 48.7449 137.553 48.2905 136.288 47.6514C135.942 47.4766 135.667 47.1521 135.363 46.9024C133.767 49.439 133.813 49.6537 136.297 51.2566C137.11 51.7809 137.885 52.3651 138.561 52.8395C138.151 55.0915 137.8 57.0289 137.446 58.9663C136.349 61.4779 135.611 64.0845 135.891 67.0805C136.269 66.646 136.652 66.2116 137.03 65.8022C137.376 67.435 137.726 69.0878 138.151 71.1251C140.943 68.2589 139.449 65.4177 139.294 62.5515C138.482 63.1208 137.842 63.5701 137.203 64.0195C137.488 62.7712 137.772 61.5179 138.062 60.2696C138.09 59.9 138.113 59.5305 138.141 59.161C138.235 58.9563 138.333 58.7516 138.426 58.5469L138.608 58.402C138.804 57.8927 139.005 57.3834 139.201 56.8741C139.374 56.4497 139.542 56.0252 139.715 55.6058L139.892 55.436C139.892 55.436 139.836 55.1963 139.841 55.1963C140.2 54.5422 140.56 53.8881 140.914 53.2339C141.937 51.3365 141.876 50.7023 140.111 49.5289H140.107Z" fill="#9AB1C5"/>
<path d="M678.521 224.67C675.622 222.064 672.779 219.387 669.912 216.736C670.757 217.669 671.593 218.608 672.452 219.527C673.834 221.01 675.225 222.483 676.621 223.951C678.965 226.413 681.294 228.894 683.685 231.301C684.371 231.99 685.253 232.515 686.267 231.411C685.898 231.072 685.641 230.822 685.375 230.592C683.092 228.62 680.771 226.687 678.526 224.67H678.521Z" fill="#9AB1C5"/>
<path d="M689.978 188.448C689.777 186.781 689.46 185.128 689.189 183.47C688.003 188.603 688.797 193.572 689.385 198.61C690.991 197.162 690.319 195.269 690.37 193.572C690.422 191.869 690.184 190.151 689.978 188.448Z" fill="#9AB1C5"/>
<path d="M281.124 163.042C280.414 163.242 279.84 163.981 278.869 164.735C283.033 165.429 286.395 165.01 289.906 162.333C286.554 161.639 283.818 162.283 281.129 163.042H281.124Z" fill="#9AB1C5"/>
<path d="M829.226 153.315C829.189 153.33 829.151 153.345 828.894 153.44C829.38 155.188 829.87 156.951 830.365 158.738C831.107 158.648 831.616 158.588 832.125 158.523C832.704 159.757 833.157 160.715 833.605 161.674C833.806 161.594 834.007 161.514 834.203 161.435C833.853 159.163 833.502 156.896 833.134 154.519C832.312 154.454 831.537 154.404 830.767 154.334C830.024 154.269 828.829 153.47 829.226 153.32V153.315Z" fill="#9AB1C5"/>
<path d="M695.893 207.563C696.309 206.599 696.71 206.11 696.608 205.825C696.052 204.267 695.66 202.47 694.656 201.311C693.713 200.228 693.344 199.274 693.312 197.896C693.288 196.792 693.349 195.524 692.144 194.665C691.65 199.644 691.78 201.831 692.733 203.513C693.139 202.959 693.503 202.46 693.895 201.92C694.549 203.768 695.128 205.406 695.898 207.568L695.893 207.563Z" fill="#9AB1C5"/>
<path d="M815.873 241.283C817.783 239.93 819.053 238.267 820.477 236.744C821.919 235.201 823.661 233.973 825.271 232.61C825.215 232.5 825.159 232.39 825.103 232.275C821.985 233.963 818.866 235.655 816.116 237.143C816.018 238.771 815.958 239.815 815.869 241.283H815.873Z" fill="#9AB1C5"/>
<path d="M735.871 142.615C735.25 147.977 735.227 153.31 736.614 158.548C736.744 153.201 737.094 147.858 735.871 142.615Z" fill="#9AB1C5"/>
<path d="M864.493 60.3345C863.732 63.4653 863.027 66.6161 862.177 69.7219C861.86 70.8804 861.435 72.1737 860.674 73.0026C857.611 76.3281 854.53 79.6587 851.201 82.6647C848.582 85.0315 845.361 86.6344 843.54 90.3594C842.56 89.1011 841.822 88.1823 841.108 87.2336C840.258 86.1051 839.338 85.5758 837.863 85.9703C836.238 86.4047 834.511 86.3697 832.849 86.6643C831.047 86.9839 829.245 86.894 827.498 88.0724C824.585 90.0348 821.378 91.4979 818.292 93.1657C818.194 93.3754 818.091 93.5901 817.993 93.7998C818.012 94.0545 818.026 94.3091 818.044 94.5688C818.012 95.9869 817.979 97.405 817.946 98.8231C817.498 100.161 817.055 101.5 816.607 102.838V102.843C816.457 103.062 816.303 103.277 816.154 103.497C815.066 105.065 813.983 106.628 812.895 108.191C812.04 108.156 811.163 108.236 810.332 108.056C808.418 107.651 806.569 107.756 804.767 108.57C804.767 108.57 804.767 108.57 804.767 108.565C804.239 108.96 803.707 109.354 803.179 109.749C803.077 109.943 802.979 110.138 802.881 110.333C802.81 110.532 802.736 110.737 802.666 110.937C802.61 111.102 802.554 111.271 802.498 111.436C802.358 111.806 802.218 112.175 802.073 112.545C801.975 112.764 801.872 112.984 801.774 113.204C801.713 113.409 801.657 113.613 801.597 113.818C801.419 114.382 801.237 114.942 801.06 115.506C800.971 115.631 800.938 115.77 800.957 115.925C800.85 116.17 800.747 116.415 800.64 116.659C800.598 116.859 800.556 117.059 800.514 117.258C800.523 117.303 800.523 117.348 800.523 117.388C800.523 117.343 800.523 117.303 800.514 117.258C800.472 117.418 800.43 117.578 800.388 117.738C800.205 118.452 800.019 119.166 799.837 119.875C799.734 120.145 799.627 120.409 799.524 120.679C799.491 120.874 799.458 121.063 799.426 121.258C799.379 121.428 799.332 121.603 799.286 121.772C799.118 122.492 798.945 123.206 798.772 123.925C798.669 124.184 798.571 124.444 798.469 124.704C798.371 125.183 798.277 125.662 798.179 126.142C797.698 126.242 797.217 126.336 796.732 126.436L796.709 126.421C795.98 126.122 795.257 125.822 794.528 125.522C794.458 125.353 794.342 125.243 794.173 125.188C793.375 123.97 792.647 124.724 791.909 125.283L791.891 125.293C791.47 125.418 790.994 125.448 790.639 125.687C787.679 127.705 784.369 127.52 781.092 127.365C780.434 127.335 779.425 126.786 779.229 126.222C778.627 124.459 777.698 124.244 776.134 124.654C775.051 124.933 773.837 124.594 772.693 124.689C771.568 124.783 770.457 125.083 769.336 125.293L769.299 125.303C768.762 125.483 768.225 125.657 767.683 125.837H767.669C767.151 126.042 766.633 126.242 766.115 126.446L766.073 126.461C765.709 126.631 765.34 126.801 764.976 126.971C763.561 126.966 762.146 126.956 760.732 126.951C760.536 126.801 760.344 126.651 760.148 126.501C758.383 124.773 756.423 123.211 754.901 121.263C753.439 119.386 752.468 117.074 751.212 115.002C750.101 113.169 748.92 111.391 749.91 108.665C748.005 108.77 746.39 108.625 744.882 108.99C740.988 109.928 737.146 111.097 733.28 112.17C732.748 112.32 732.211 112.47 731.679 112.62L731.655 112.63C730.427 112.829 729.195 113.029 727.967 113.229L727.902 113.244C727.547 113.419 727.197 113.598 726.842 113.773L726.819 113.788C726.543 113.993 726.268 114.198 725.992 114.397C726.025 115.166 726.062 115.935 726.095 116.704C726.17 117.453 726.244 118.202 726.314 118.946C726.081 120.594 725.843 122.237 725.609 123.885C723.424 130.156 719.792 135.484 716.015 140.717C715.684 140.932 715.348 141.147 715.016 141.361L714.993 141.376C713.718 141.741 712.444 142.105 711.165 142.465C710.992 142.42 710.833 142.465 710.693 142.585C709.979 142.58 709.269 142.57 708.555 142.565L708.485 142.545C705.814 142.53 703.139 142.515 700.469 142.5C697.747 143.019 694.946 143.259 692.326 144.133C689.096 145.211 686.449 147.094 685.73 151.213C685.328 153.5 684.324 155.737 682.177 157.03C681.168 157.64 680.277 158.459 679.306 159.143C675.118 162.084 670.384 163.881 665.566 164.59C661.677 165.165 657.526 164.46 653.595 163.706C649.79 162.982 646.027 162.353 642.162 162.423C638.94 162.483 635.709 162.573 632.497 162.403C629.659 162.253 627.931 163.706 626.764 166.213C626.246 167.322 625.924 168.535 625.424 169.654C625.046 170.497 624.663 171.426 624.038 172.04C621.475 174.567 618.786 176.949 616.204 179.455C614.574 181.038 613.01 181.658 611.008 180.095C610.022 179.331 608.767 178.971 607.651 178.437C607.543 177.543 607.45 176.734 607.324 175.7C606.572 175.905 605.83 175.865 605.457 176.25C604.201 177.528 602.861 177.139 601.469 176.764C600.951 176.624 600.424 176.514 599.901 176.37C590.47 173.703 580.89 171.791 571.226 170.438C568.093 169.998 564.825 169.579 561.702 170.977C561.169 171.211 560.483 171.087 559.867 171.062C553.121 170.782 546.407 171.032 540.058 173.748C533.134 176.714 525.916 176.714 518.666 176.724C517.242 176.724 516.593 176.01 516.219 174.627C515.907 173.478 515.37 172.395 514.936 171.286C514.796 171.052 514.651 170.817 514.511 170.582C514.469 170.238 514.431 169.893 514.389 169.549C514.282 169.269 514.175 168.989 514.067 168.71C513.955 168.43 513.843 168.151 513.731 167.871C513.26 168.041 512.783 168.21 512.312 168.38C512.611 171.002 512.769 173.653 513.241 176.24C513.759 179.081 514.973 180.414 516.938 180.459C524.646 180.634 532.34 180.529 539.684 177.483C545.291 175.156 551.122 174.512 557.075 174.822C557.738 174.857 558.476 175.086 559.017 175.481C560.161 176.315 560.922 176.13 561.702 174.927C562.047 174.392 562.734 173.783 563.275 173.773C565.507 173.738 567.762 173.733 569.965 174.053C581.133 175.69 592.16 178.137 603.047 181.238C605.62 181.972 608.132 183.081 610.517 184.344C612.357 185.323 613.846 185.413 615.433 183.979C619.187 180.594 623.006 177.288 626.722 173.858C627.353 173.274 627.665 172.26 628.034 171.401C628.408 170.537 628.697 169.624 628.968 168.715C629.519 166.862 630.504 166.168 632.479 166.023C641.48 165.364 650.271 167.247 659.137 168.181C661.863 168.465 664.534 168.275 667.055 167.367C672.839 165.279 678.367 162.578 683.003 158.159C683.517 157.67 684.128 157.29 684.745 156.821C685.361 158.873 685.93 160.755 686.495 162.643C686.771 162.583 687.046 162.528 687.322 162.468C687.457 161.819 687.747 161.16 687.695 160.531C687.462 157.605 687.807 154.848 688.676 152.002C689.404 149.605 690.562 148.077 692.709 147.593C696.015 146.849 699.357 146.14 702.714 145.85C706.58 145.521 710.273 144.497 713.933 143.334C715.212 142.929 716.267 141.711 717.425 140.862C720.068 136.613 722.757 132.398 725.311 128.094C725.899 127.105 726.011 125.792 726.342 124.629C726.543 123.595 726.739 122.566 726.94 121.533C727.505 120.479 728.261 119.905 729.438 120.414C729.643 120.504 729.849 120.594 730.059 120.689C730.227 120.784 730.399 120.879 730.568 120.974C730.638 121.108 730.745 121.173 730.894 121.168C731.151 121.358 731.403 121.543 731.66 121.733C732.421 123.081 731.912 124.409 731.665 125.772C731.422 127.11 731.343 128.479 731.188 129.837C731.296 129.802 731.417 129.792 731.539 129.797C731.417 129.797 731.3 129.802 731.188 129.837C731.282 131.41 732.851 129.937 733.341 131.32C732.262 134.61 735.782 136.203 736.483 139.124C736.847 137.961 737.482 136.747 736.109 135.894C734.732 135.04 734.587 133.722 734.583 132.224C734.583 131.06 735.077 129.692 733.761 128.878C733.99 127.964 734.195 127.045 734.443 126.142C735.549 122.127 734.718 120.05 731.268 118.192C730.624 117.848 730.007 117.443 728.98 116.824C734.293 115.361 739.023 114.013 743.78 112.769C745.442 112.335 746.562 112.954 747.496 114.707C748.425 116.45 749.242 118.257 750.083 120.05C751.712 123.52 753.972 126.396 756.815 128.843C759.747 131.365 762.599 131.774 765.895 129.607C768.72 127.749 771.755 126.326 775.209 126.376C775.7 126.381 776.194 126.002 776.689 125.797C777.226 126.356 777.73 126.961 778.309 127.465C778.893 127.974 779.542 128.758 780.182 128.783C783.52 128.913 786.895 129.282 790.037 127.42C790.896 126.911 792.026 126.926 793.03 126.701C793.146 127.02 793.268 127.345 793.384 127.67C793.431 127.72 793.464 127.779 793.487 127.839C793.469 127.779 793.431 127.72 793.384 127.67L793.324 127.894L793.511 128.044C794.715 130.406 796.797 131.35 799.071 132.044C799.776 132.258 800.471 132.683 801.05 133.177C801.671 133.702 802.148 134.416 802.685 135.05C802.839 135.24 802.993 135.434 803.151 135.624C803.427 136.008 803.698 136.393 803.973 136.777C803.964 137.002 804.066 137.122 804.272 137.142L804.412 137.292C805.369 139.119 804.286 140.592 803.651 142.125C803.137 143.369 802.526 144.567 801.956 145.78C802.839 145.925 803.282 145.721 803.707 145.471C804.253 145.146 804.748 144.717 805.322 144.462C806.728 143.838 807.54 144.337 807.806 145.945C807.881 146.41 807.806 146.899 807.871 147.368C808.268 150.284 809.879 153.211 811.863 154.579C811.125 152.347 810.224 150.239 809.748 148.027C809.146 145.231 808.142 143.019 805.192 142.595C805.416 141.266 805.602 140.158 805.789 139.044C805.873 138.91 805.911 138.76 805.896 138.6C805.999 138.375 806.102 138.146 806.209 137.921C806.219 137.162 806.228 136.408 806.233 135.649C806.111 135.434 805.995 135.215 805.873 135C805.481 134.451 805.094 133.896 804.701 133.347C804.547 133.152 804.389 132.958 804.234 132.768L804.225 132.753C804.062 132.548 803.894 132.348 803.73 132.144C803.562 131.939 803.389 131.734 803.221 131.529L803.226 131.534C803.053 131.315 802.876 131.09 802.703 130.87C802.661 130.701 802.572 130.571 802.437 130.476C802.302 130.326 802.166 130.181 802.035 130.031L801.933 129.922C801.788 129.772 801.643 129.622 801.499 129.477L801.354 129.357C801.219 129.208 801.083 129.058 800.948 128.908C800.938 128.409 800.934 127.904 800.924 127.405C800.976 127.38 801.078 127.35 801.074 127.325C801.074 127.21 801.041 127.095 801.018 126.981C801.065 126.686 801.116 126.391 801.162 126.097C801.261 125.822 801.359 125.547 801.452 125.273C801.48 125.088 801.508 124.898 801.536 124.714C801.583 124.529 801.625 124.349 801.671 124.164C802.717 120.739 803.618 117.254 804.841 113.903C806.111 110.433 805.616 108.77 810.444 110.972C812.498 111.906 813.324 111.606 814.389 109.529C815.5 107.372 816.35 105.065 817.316 102.828C818.413 101.719 818.334 100.241 818.409 98.8181C818.577 98.3687 818.745 97.9243 818.983 97.3001C819.58 98.7033 820.066 99.8417 820.552 100.985C821.345 98.4186 820.015 96.3764 819.65 94.1344C821.714 92.9859 823.941 92.4316 826.173 91.7775C829.604 90.7688 833.04 89.92 836.556 89.3408C837.755 89.146 838.582 89.3008 839.32 90.3993C840.295 91.8524 841.416 93.1956 842.321 94.384C841.939 97.0405 840.048 98.0541 838.292 99.1876C837.303 99.8318 836.234 100.336 835.262 101.01C834.768 101.35 834.049 101.934 834.058 102.388C834.114 104.845 834.455 107.292 834.52 109.749C834.567 111.516 836.033 111.861 837.214 112.984C836.266 113.793 835.491 114.457 834.567 115.246C836.112 117.568 834.45 119.226 833.4 121.038C832.606 122.412 831.798 123.775 830.995 125.143C829.879 127.545 829.119 130.026 828.978 132.748C828.764 136.932 828.372 141.102 828.124 145.286C828.045 146.654 828.18 148.032 828.213 149.406C829.002 148.931 829.441 148.402 829.501 147.823C829.861 144.422 830.51 140.992 830.337 137.616C830.127 133.557 830.197 129.647 831.537 125.822C832.727 124.549 833.89 123.245 835.118 122.012C837.433 119.69 839.721 117.483 837.975 113.489C837.592 112.615 837.667 111.566 836.789 110.827C836.388 110.488 836.145 109.654 836.177 109.064C836.262 107.357 836.416 105.629 836.761 103.966C836.915 103.227 837.489 102.458 838.068 101.964C840.305 100.066 842.714 98.3887 844.866 96.3963C845.734 95.5924 846.649 94.1643 846.617 93.0508C846.542 90.5392 847.681 88.9862 849.418 87.9027C853.377 85.436 856.346 81.8857 859.194 78.1906C861.122 75.689 863.228 73.2672 863.653 69.8318C863.709 69.3474 863.765 68.8681 863.821 68.3837C863.919 67.5099 864.017 66.6411 864.115 65.7672C864.204 65.4826 864.292 65.198 864.381 64.9134C864.423 64.5738 864.465 64.2343 864.507 63.8947C864.633 63.4653 864.754 63.0409 864.88 62.6114C864.997 61.8674 865.119 61.1234 865.235 60.3794C866.02 56.3198 866.804 52.2602 867.588 48.2007C867.308 48.0159 867.033 47.8362 866.753 47.6514C865.128 51.696 864.759 56.0052 864.442 60.3245L864.493 60.3345Z" fill="#9AB1C5"/>
<path d="M51.1686 116.514C50.7998 117.953 49.5533 119.146 50.1322 120.874C52.3078 116.839 53.8344 112.55 54.8149 108.031C54.5721 107.801 54.334 107.566 54.0912 107.337C53.601 108.86 53.1015 110.378 52.6159 111.901C52.1257 113.439 51.5701 114.957 51.1686 116.519V116.514Z" fill="#9AB1C5"/>
<path d="M905.134 109.818C906.054 108.565 907.277 107.492 907.44 105.749C904.905 108.076 902.309 110.328 901.151 113.788C901.824 114.292 902.235 114.602 902.641 114.907C902.72 114.148 902.617 113.274 902.949 112.675C903.528 111.626 904.419 110.787 905.134 109.813V109.818Z" fill="#9AB1C5"/>
<path d="M902.669 114.927C902.659 114.922 902.65 114.912 902.641 114.907C902.641 114.922 902.641 114.942 902.641 114.957C902.641 114.957 902.65 114.957 902.655 114.952C902.659 114.942 902.664 114.937 902.673 114.927H902.669Z" fill="#9AB1C5"/>
<path d="M922.086 76.443C923.766 75.1747 924.303 74.3558 925.158 72.2785C926.101 69.9866 924.738 65.5575 922.679 64.3691C922.314 64.1594 921.838 64.1743 921.409 64.0895C924.467 66.1617 925.26 68.6084 923.879 72.1187C923.304 73.5718 922.683 75.0049 922.081 76.443H922.086Z" fill="#9AB1C5"/>
<path d="M902.094 118.851C902.608 117.234 903.696 115.83 904.784 113.873C903.738 114.402 903.192 114.677 902.65 114.952C900.764 117.438 899.919 120.324 899.77 123.495C900.955 122.167 901.553 120.574 902.099 118.846L902.094 118.851Z" fill="#9AB1C5"/>
<path d="M686.64 166.058C686.738 167.177 686.71 168.405 687.158 169.364C687.994 171.152 688.433 172.864 687.849 174.827C687.737 175.201 688.059 175.72 688.255 176.454C689.483 173.828 689.614 171.796 688.549 169.644C687.812 168.156 687.513 166.658 687.569 165C687.597 164.161 687.434 163.312 687.354 162.468C687.079 162.528 686.803 162.583 686.528 162.643C686.561 163.781 686.547 164.925 686.645 166.053L686.64 166.058Z" fill="#9AB1C5"/>
<path d="M135.947 44.9101C137.53 42.6031 139.645 35.5126 139.654 33.0059C137.334 36.706 136.605 40.8005 135.947 44.9101Z" fill="#9AB1C5"/>
<path d="M54.7542 120.659C56.3695 119.161 57.7421 116.19 58.2277 113.124C56.2481 114.737 54.5254 118.477 54.7542 120.659Z" fill="#9AB1C5"/>
<path d="M694.012 234.731C694.012 234.731 694.016 234.731 694.021 234.736C694.03 234.736 694.04 234.736 694.049 234.736C694.04 234.736 694.03 234.726 694.026 234.722C694.026 234.722 694.021 234.731 694.016 234.731H694.012Z" fill="#9AB1C5"/>
<path d="M693.652 235.101C693.778 235.096 693.89 234.866 694.012 234.731C692.345 233.288 690.674 231.841 688.652 230.093C689.17 233.044 691.594 235.221 693.652 235.101Z" fill="#9AB1C5"/>
<path d="M104.994 87.5981C105.941 89.7952 106.885 91.9922 107.916 94.1394C108.024 94.3591 108.691 94.2742 109.097 94.3291C109.219 94.1194 109.34 93.9146 109.457 93.7049C108.089 91.5228 106.721 89.3408 105.339 87.1387C105.18 87.3384 104.961 87.5282 104.989 87.5981H104.994Z" fill="#9AB1C5"/>
<path d="M886.501 185.048C886.501 185.048 886.501 185.043 886.501 185.038C886.991 184.609 887.435 184.074 887.986 183.785C889.634 182.911 891.324 182.137 893 181.323C892.935 181.143 892.869 180.963 892.804 180.784C888.341 182.287 883.882 183.79 878.831 185.487C880.745 186.291 881.972 185.817 883.238 185.502C884.302 185.238 885.409 185.183 886.496 185.033L886.487 185.048C886.487 185.048 886.496 185.048 886.501 185.048Z" fill="#9AB1C5"/>
<path d="M888.537 186.107C890.866 185.448 893.154 184.629 895.446 183.835C895.628 183.77 895.731 183.43 896.245 182.651C894.48 183.171 893.243 183.59 891.982 183.89C890.166 184.324 888.327 184.669 886.496 185.048C886.66 186.511 887.738 186.331 888.532 186.107H888.537Z" fill="#9AB1C5"/>
<path d="M694.045 234.737C695.749 235.601 696.967 237.603 699.325 237.453C697.677 235.001 696.197 234.277 694.045 234.737Z" fill="#9AB1C5"/>
<path d="M816.905 164.341C817.176 160.676 814.506 158.813 813.474 156.122C813.226 156.177 812.974 156.236 812.727 156.291C813.787 158.763 814.837 161.24 815.934 163.692C816.046 163.941 816.452 164.046 816.905 164.336V164.341Z" fill="#9AB1C5"/>
<path d="M202.177 52.6947C203.577 54.2825 204.656 56.21 206.766 57.0489C206.901 56.904 207.042 56.7592 207.177 56.6094C205.739 55.0615 204.301 53.5186 202.863 51.9706C202.634 52.2103 202.406 52.455 202.177 52.6947Z" fill="#9AB1C5"/>
<path d="M821.933 187.909C822.634 187.789 823.362 187.769 824.025 187.535C827.494 186.306 830.953 185.048 834.403 183.755C841.22 181.193 848.022 178.602 854.834 176.035C855.501 175.78 856.192 175.546 856.888 175.456C857.037 175.436 857.261 176.075 857.453 176.415C856.58 176.999 855.314 177.358 855.809 178.901C856.337 180.544 857.653 180.09 858.755 179.92C859.708 179.775 860.632 179.445 861.738 179.151C862.238 181.148 863.615 181.023 864.988 180.724C865.94 180.519 866.865 180.15 867.798 179.825C871.692 178.477 875.586 177.119 879.479 175.765C880.016 175.601 880.549 175.431 881.086 175.266L881.141 175.246C881.678 175.081 882.215 174.922 882.748 174.757C882.916 174.697 883.088 174.662 883.27 174.652C883.975 174.472 884.68 174.292 885.385 174.108L885.441 174.093C887.043 173.723 888.644 173.359 890.245 172.989L890.297 172.979C891.011 172.814 891.725 172.65 892.44 172.485C892.603 172.44 892.766 172.405 892.93 172.38C895.633 172.47 898.201 171.891 900.643 170.612C897.706 171.032 894.657 170.343 891.842 171.706C891.156 171.771 890.469 171.841 889.783 171.906C889.041 172.05 888.299 172.195 887.556 172.34C887.393 172.375 887.225 172.405 887.057 172.43C886.324 172.58 885.586 172.724 884.853 172.874C884.344 172.934 883.835 172.994 883.326 173.054C882.589 173.214 881.856 173.379 881.118 173.538C876.3 174.672 871.482 175.81 866.678 176.939C865.945 175.845 865.996 174.946 867.117 174.312C868.233 173.678 869.376 173.109 870.506 172.51C870.483 172.325 870.46 172.14 870.436 171.955C869.708 171.926 868.975 171.901 868.247 171.871C862.859 172.215 857.681 173.673 852.616 175.536C844.777 178.422 836.981 181.453 829.189 184.484C826.443 185.552 823.764 186.806 821.051 187.969C818.315 188.608 815.626 189.367 813.441 191.4C813.782 191.4 814.123 191.395 814.464 191.39C816.952 190.231 819.445 189.073 821.938 187.919L821.933 187.909Z" fill="#9AB1C5"/>
<path d="M741.184 170.587C742.029 168.59 741.45 167.282 739.293 165.949C739.093 166.568 738.887 167.187 738.686 167.811C740.162 167.981 740.283 169.684 741.184 170.587Z" fill="#9AB1C5"/>
<path d="M109.462 93.7099C109.34 93.9196 109.224 94.1244 109.102 94.3341C109.536 95.2678 109.63 96.4862 111.1 96.9856C110.816 95.5175 110.442 94.4539 109.462 93.7099Z" fill="#9AB1C5"/>
<path d="M810.192 193.102C811.616 192.528 813.04 191.959 814.464 191.385C814.123 191.385 813.782 191.39 813.441 191.395C812.176 191.569 810.761 191.424 810.192 193.102Z" fill="#9AB1C5"/>
<path d="M810.182 193.122C810.182 193.122 810.187 193.107 810.192 193.097C810.187 193.097 810.178 193.102 810.173 193.107L810.182 193.122Z" fill="#9AB1C5"/>
<path d="M739.461 236.28C740.264 235.501 741.063 234.727 741.866 233.948C740.036 234.372 740.031 234.387 739.461 236.28Z" fill="#9AB1C5"/>
<path d="M741.903 233.938L741.889 233.923C741.88 233.933 741.87 233.938 741.866 233.948C741.88 233.948 741.889 233.943 741.903 233.938Z" fill="#9AB1C5"/>
<path d="M866.963 208.357C866.346 208.811 865.73 209.266 865.119 209.72C865.824 209.435 866.524 209.151 867.229 208.871C867.14 208.701 867.051 208.527 866.967 208.357H866.963Z" fill="#9AB1C5"/>
<path d="M865.011 209.8C865.044 209.775 865.081 209.75 865.114 209.725C865.072 209.74 865.03 209.76 864.988 209.775C864.988 209.775 864.993 209.78 864.997 209.79L864.988 209.775C864.988 209.775 864.951 209.795 864.932 209.8C864.96 209.8 864.983 209.8 865.011 209.8Z" fill="#9AB1C5"/>
<path d="M739.186 164.95C739.088 164.51 738.99 164.066 738.892 163.627L738.472 163.726C738.532 164.136 738.588 164.545 738.649 164.95C738.663 165.904 738.672 166.857 738.686 167.811C738.887 167.192 739.093 166.573 739.293 165.954C739.256 165.619 739.223 165.284 739.19 164.95H739.186Z" fill="#9AB1C5"/>
<path d="M793.683 265.635C793.753 265.575 793.819 265.51 793.889 265.451C793.889 265.441 793.879 265.436 793.875 265.426C793.805 265.485 793.739 265.545 793.669 265.61C793.669 265.61 793.679 265.625 793.679 265.635H793.683Z" fill="#9AB1C5"/>
<path d="M810.182 193.122L810.173 193.107C810.173 193.107 810.164 193.107 810.159 193.112C810.168 193.112 810.173 193.118 810.182 193.122Z" fill="#9AB1C5"/>
<path d="M809.104 193.676C809.454 193.492 809.804 193.302 810.154 193.117C809.603 192.878 809.137 192.808 809.104 193.676Z" fill="#9AB1C5"/>
<path d="M669.791 216.616L669.856 216.686C669.875 216.706 669.893 216.721 669.912 216.741C669.893 216.721 669.879 216.701 669.861 216.681L669.791 216.616Z" fill="#9AB1C5"/>
<path d="M51.7756 80.3128L51.6402 80.4476C51.7335 80.4326 51.8316 80.4177 51.9249 80.3977L51.7756 80.3128Z" fill="#9AB1C5"/>
<path d="M914.845 36.3957L915.045 36.4653C915.031 36.331 914.966 36.2364 914.845 36.1767V36.3957Z" fill="#9AB1C5"/>
</svg>
