<svg width="466" height="333" viewBox="0 0 466 333" fill="none" xmlns="http://www.w3.org/2000/svg">
<path opacity="0.2" d="M457.859 191.057C449.421 202.43 441.354 213.116 431.04 222.834C428.856 224.892 424.487 224.296 421.519 225.376C419.149 226.239 409.074 233.935 406.761 230.461C404.3 226.765 407.136 220.745 403.587 216.797C400.748 213.639 393.436 218.016 390.177 218.862C386.966 219.696 382.191 218.531 379.307 219.974C377.191 221.034 375.892 223.846 374.15 225.456C363.131 235.64 366.961 221.567 364.708 215.049C362.34 208.202 347.145 229.58 345.347 232.526C343.608 235.376 339.385 235.98 336.461 237.134C330.338 239.549 330.862 242.263 327.098 246.032C325.167 247.965 323.272 245.836 324.717 248.891C326.819 253.334 329.354 259.634 328.447 264.542C327.493 269.697 325.617 274.341 324.956 279.636C324.616 282.355 321.617 285.981 322.496 280.827C324.614 268.404 318.019 293.488 317.497 296.16C316.443 301.554 324.272 304.407 319.322 306.885C313.504 309.797 306.23 312.604 299.644 312.604C295.568 312.604 292.366 308.473 288.695 308.473C287.499 308.473 285.131 313.003 283.617 313.717C282.273 314.35 277.627 307.983 276.555 307.043C271.261 302.406 260.719 307.699 255.608 309.903C249.482 312.546 243.227 315.346 237.596 318.96C235.626 320.224 233.158 323.623 230.773 324.044C228.558 324.435 216.832 335.489 216.49 330.876C215.004 310.787 190.379 323.549 178.801 327.54C172.077 329.857 169.621 331.029 163.647 329.446C161.348 328.837 154.964 328.354 157.299 324.68C164.412 313.488 154.371 321.523 147.936 321.184C140.401 320.787 139.312 295.716 126.513 306.09C119.261 311.967 108.594 308.194 100.408 304.819C97.6074 303.664 95.7323 301.927 93.6639 299.735C91.7289 297.683 93.3681 294.064 91.5216 292.585C86.5669 288.616 75.7865 292.585 70.0191 292.585C57.2194 292.585 51.0484 285.988 41.6134 277.967C39.8819 276.495 31.3093 271.426 32.5681 268.275C35.1294 261.864 37.7498 255.289 40.7406 249.05C43.6872 242.904 43.7061 245.578 49.8654 243.172C55.4546 240.988 47.5143 240.282 48.9132 238.882C51.5164 236.275 59.7625 233.462 63.1954 234.751C73.3034 238.546 41.7631 231.954 30.9812 231.414C29.3514 231.332 4.55692 231.078 14.2393 235.386C15.7071 236.039 6.11967 237.331 4.00377 236.498C-0.517917 234.72 0.789366 215.177 3.21032 211.871C7.46856 206.057 20.8485 201.692 27.3313 198.843C29.7416 197.783 32.1645 199.241 34.3137 200.273C41.1436 203.551 47.7184 206.961 55.3402 207.979C59.4442 208.526 73.4972 206.622 73.6689 200.431C73.7909 196.035 70.9712 191.683 70.9712 187.641C70.9712 184.884 76.8369 190.932 79.0644 189.31C88.4788 182.454 116.263 184.782 118.816 173.024C120.01 167.528 126.51 138.288 112.151 141.882C105.439 143.562 92.68 156.5 87.1576 149.588C86.3969 148.636 90.7381 132.729 84.2219 136.242C62.3003 148.06 45.0966 123.232 38.5983 104.147C36.0003 96.517 53.5092 95.6427 57.4825 94.2962C70.723 89.8094 80.6834 81.7098 91.9977 73.959C92.6393 73.5194 98.1693 68.7071 99.1388 69.1924C99.7386 69.4927 99.9312 72.9252 100.805 73.8001C105.577 78.5779 113.483 75.6282 119.213 75.3095C127.621 74.8418 137.282 74.4159 137.939 65.5381C138.325 60.317 146.189 58.6536 150.078 57.3555C157.802 54.7777 162.377 53.0184 168.566 47.7429C187.069 31.971 210.361 22.1803 231.407 10.4049C238.949 6.18527 247.591 -1.2668 256.798 1.66624C268.442 5.37577 296.579 3.47805 289.964 22.4007C289.234 24.489 285.238 30.8333 286.711 33.046C290.561 38.8283 309.155 34.3809 315.037 35.5088C316.177 35.7273 314.963 40.752 320.592 40.752C325.967 40.752 318.401 40.8553 316.783 43.7708C315.585 45.9289 319.529 49.666 317.894 53.145C315.959 57.2605 315.236 53.4856 318.529 55.3694C322.679 57.7439 313.744 69.3131 312.181 70.9401C311.114 72.0515 308.492 75.7138 306.785 76.0245C306.373 76.0996 306.514 73.4827 306.151 73.1645C303.308 70.6744 297.109 72.7146 294.408 74.4356C291 76.6067 283.654 76.3835 279.649 76.66C272.109 77.1807 267.906 89.9326 267.906 94.4551C267.906 101.251 248.852 91.2158 247.832 91.1185C244.92 90.8409 230.746 88.6809 233.312 93.8196C234.414 96.0272 234.905 98.1586 235.771 100.413C239.112 109.111 229.496 126.664 237.596 132.746C245.986 139.046 257.823 125.288 267.589 127.027C272.354 127.875 274.478 128.648 278.697 125.597C281.871 123.302 284.822 119.9 288.853 121.783C293.298 123.86 310.731 126.708 309.801 133.541C309.015 139.311 296.629 141.512 296.629 147.364C296.629 154.947 316.752 141.516 318.37 139.896C324.21 134.049 324.009 135.289 332.176 135.289C341.647 135.289 369.348 122.33 367.802 140.135C367.364 145.179 366.458 142.535 369.944 142.438C374.21 142.32 390.897 138.405 393.351 140.452C395.824 142.516 392.642 150.723 393.907 152.13C396.153 154.629 400.741 153.878 403.587 153.878C410.174 153.878 416.751 156.004 423.264 157.056C427.018 157.662 430.485 158.409 430.723 162.458C430.85 164.629 435.547 166.215 437.07 167.463C439.594 169.53 443.586 185.179 443.973 185.179C446.305 185.179 465 179.794 465 185.337C465 186.164 450.009 201.064 456.431 196.777" stroke="#3B576B" stroke-linecap="round"/>
</svg>
