<svg width="364" height="300" viewBox="0 0 364 300" fill="none" xmlns="http://www.w3.org/2000/svg">
<path d="M348.253 140.31C348.068 142.856 347.764 145.397 347.707 147.943C347.645 150.488 347.843 153.043 347.891 155.593C347.966 159.532 347.508 163.432 347.081 167.336C346.835 169.618 346.654 171.904 346.993 174.186C347.262 175.998 347.535 177.8 347.526 179.642C347.522 181.036 348.134 181.572 349.495 181.304C350.398 181.124 351.19 181.339 351.979 181.63C352.569 181.849 352.917 182.333 352.89 183.006C352.877 183.397 352.829 183.788 352.824 184.184C352.785 186.343 352.793 188.497 353.168 190.638C353.406 191.988 353.467 193.364 353.657 194.723C353.811 195.818 353.991 196.917 354.234 197.994C355.176 202.259 357.365 206.031 359.153 209.948C360.131 212.094 360.972 214.288 361.901 216.447C361.972 216.614 361.941 216.82 361.963 217.075C360.928 217.497 359.88 217.884 358.876 218.35C357.898 218.803 356.704 218.856 355.89 219.924C356.462 220.214 356.951 220.461 357.361 220.667C358.048 222.14 357.832 223.53 357.449 224.919C357.325 225.359 357.251 225.816 357.123 226.251C356.797 227.355 356.859 228.449 357.136 229.544C357.264 230.05 357.436 230.547 357.554 231.057C357.99 232.965 358.457 234.873 358.827 236.794C359.096 238.205 359.232 239.643 359.426 241.068C359.395 241.12 359.338 241.182 359.347 241.23C359.373 241.345 359.431 241.45 359.479 241.56C359.501 241.938 359.523 242.316 359.541 242.69C359.739 242.558 359.937 242.431 360.14 242.299C360.074 241.125 360.03 239.951 359.937 238.777C359.801 237.084 359.668 235.387 359.457 233.703C359.303 232.472 359.043 231.254 358.796 230.037C358.466 228.405 358.501 226.792 358.902 225.183C359.268 223.723 359.558 222.25 360.316 220.914C360.681 220.267 361.082 219.74 361.844 219.493C362.395 219.318 362.906 218.975 363.381 218.64C364.011 218.201 364.143 217.647 363.835 216.921C362.038 212.714 360.034 208.599 358.114 204.448C357.427 202.966 356.784 201.463 356.229 199.928C355.52 197.954 355.018 195.941 355.013 193.804C355.013 192.507 354.705 191.214 354.546 189.913C354.476 189.328 354.375 188.743 354.383 188.159C354.419 186.396 354.463 184.628 354.577 182.869C354.634 182.003 354.388 181.304 353.745 180.777C353.296 180.412 352.798 180.016 352.256 179.875C351.199 179.598 350.102 179.493 348.847 179.286C348.711 178.345 348.609 177.246 348.389 176.169C347.711 172.854 347.773 169.534 348.187 166.202C348.759 161.585 349.072 156.96 348.882 152.3C348.746 148.897 348.856 145.502 349.592 142.143C349.9 140.745 350.006 139.294 350.085 137.861C350.147 136.78 349.71 136.138 348.79 135.918C346.376 135.346 344.003 134.515 341.457 134.678C341.087 134.7 340.704 134.568 340.391 134.515C339.713 133.412 339.281 132.326 339.118 131.139C338.55 126.975 337.361 122.957 336.22 118.934C335.921 117.878 335.366 116.889 334.912 115.878C334.754 115.531 334.406 115.205 334.397 114.862C334.375 114.212 334.027 113.768 333.719 113.271C333.512 112.941 333.296 112.602 333.15 112.242C332.732 111.213 332.446 110.123 331.926 109.151C331.415 108.188 330.684 107.344 330.041 106.438C330.367 105.581 331.125 105.133 331.741 104.565C332.983 103.414 333.155 102.912 332.388 101.497C331.468 99.7907 330.9 98.0628 331.147 96.0799C331.292 94.9192 331.089 93.7146 331.252 92.5582C331.812 88.632 331.552 84.7234 331.102 80.8148C330.984 79.7816 330.684 78.766 330.433 77.7504C330.226 76.9238 329.667 76.4402 328.852 76.1632C327.487 75.7016 326.134 75.2047 324.796 74.6771C321.373 73.3274 317.863 72.2942 314.234 71.6786C313.988 71.6391 313.758 71.494 313.525 71.3972C313.437 71.1071 313.331 70.8609 313.3 70.6059C313.252 70.219 313.234 69.8233 313.239 69.432C313.239 69.1066 313.314 68.7813 313.309 68.4559C313.292 67.3787 312.948 66.8819 311.895 66.6401C310.024 66.2136 308.324 65.3563 306.602 64.5737C303.968 63.3778 301.268 62.4017 298.462 61.7027C297.511 61.4653 296.463 61.3905 295.635 60.9289C294.723 60.4233 294.45 59.2581 293.891 58.3876C293.058 57.0906 292.019 56.0618 290.619 55.3715C289.112 54.6285 287.646 53.7931 286.091 52.9622C286.395 52.0872 286.981 51.3926 287.5 50.6495C287.87 50.1219 288.187 49.5416 288.412 48.9392C288.615 48.4073 288.271 47.9192 287.725 47.7346C286.862 47.44 285.985 47.1718 285.14 46.8333C283.867 46.3189 282.607 45.7693 281.352 45.2065C279.084 44.1909 276.816 43.1709 274.556 42.1333C271.464 40.7176 268.403 39.2227 265.281 37.8729C260.894 35.978 256.446 34.2193 252.055 32.3376C248.989 31.0186 245.995 29.5325 242.925 28.2179C239.313 26.6703 235.658 25.2282 232.024 23.7378C229.36 22.6474 226.607 21.7241 224.048 20.4227C219.195 17.9518 214.262 15.7007 209.096 13.9684C208.911 13.9069 208.73 13.8233 208.55 13.7486C205.334 12.4428 202.124 11.137 198.763 10.2181C194.341 9.01343 189.928 7.76919 185.533 6.46339C184.005 6.01053 182.573 6.17761 181.12 6.63486C179.437 6.81512 177.777 6.73158 176.139 6.25235C175.584 6.08967 174.998 6.02812 174.421 5.97976C174.188 5.96217 173.941 6.11166 173.699 6.182C172.633 6.11166 171.633 5.88743 170.915 4.99931C170.202 3.68472 169.497 2.36573 168.766 1.06432C168.616 0.800525 168.374 0.576296 168.14 0.378448C167.652 -0.0260421 167.097 -0.0656118 166.48 0.0706838C165.344 0.321292 164.472 1.01596 163.631 1.72821C161.138 3.8386 158.671 5.97096 155.98 7.83953C155.558 8.13411 155.196 8.52541 154.809 8.86834C154.681 8.98266 154.553 9.09697 154.426 9.21128L154.404 9.22887C152.307 10.8952 150.176 12.5219 148.119 14.2366C144.846 16.9581 141.671 19.794 138.253 22.3396C133.845 25.6283 129.564 29.0885 124.873 31.9902C124.49 32.2277 124.151 32.5486 123.794 32.83C123.446 33.0059 123.076 33.1509 122.75 33.362C117.928 36.5188 113.14 39.7371 108.269 42.8191C106.446 43.9711 105.767 45.3648 106.322 47.4268C106.939 49.735 106.86 52.0916 106.745 54.4526C106.679 55.8244 106.679 57.2005 106.613 58.5723C106.587 59.0779 106.459 59.5835 106.366 60.1463C105.177 60.5332 104.05 60.8673 102.949 61.2674C101.839 61.6675 100.729 62.0764 99.6675 62.582C98.6104 63.0876 97.3332 62.9777 96.2938 63.8219C96.514 64.8902 96.0075 65.8267 95.6464 66.7984C95.5319 67.1017 95.435 67.4139 95.3293 67.7173C94.6466 68.5614 94.5673 69.5507 94.6598 70.5751C94.6026 70.6894 94.585 70.8125 94.6026 70.94C94.5805 71.0543 94.5585 71.1686 94.5365 71.2829C94.0212 72.4832 93.5235 73.6879 92.9906 74.8794C92.4621 76.0533 92.1626 77.3327 91.5108 78.5374C90.6211 78.1944 89.846 77.8999 89.0708 77.6053C88.2869 76.9942 87.4985 76.8974 86.7013 77.5789C86.5648 77.7064 86.4283 77.8339 86.2917 77.957C83.2616 79.8212 80.205 81.6502 77.2101 83.5715C75.7523 84.508 74.409 85.6291 73.0129 86.6624C71.8678 87.423 70.7183 88.1792 69.582 88.953C68.8112 89.4762 68.4589 90.2104 68.5778 91.1469C68.6086 91.4063 68.6395 91.6657 68.6879 91.9251C69.0402 93.8113 69.0314 95.6974 68.7143 97.588C68.3488 99.7907 68.2475 102.007 68.3003 104.24C68.4016 108.689 68.4677 113.139 68.5382 117.588C68.547 118.094 68.4897 118.599 68.4633 119.149C66.0101 119.778 64.1295 121.207 62.3061 122.697C60.3815 124.276 58.492 125.894 56.6246 127.538C55.3958 128.619 54.2507 129.793 53.0396 130.892C52.2908 131.57 51.9825 132.339 52.2116 133.346C52.5683 134.902 52.5022 136.476 52.2336 138.028C51.9781 139.505 51.6038 140.961 51.2823 142.429C51.1634 142.702 51.04 142.974 50.9211 143.247C50.8462 143.322 50.8154 143.41 50.8286 143.511C49.776 144.817 49.3796 146.399 48.9568 147.969C48.8819 148.044 48.8555 148.132 48.8775 148.237C48.7939 148.413 48.7102 148.585 48.6265 148.76C48.4151 149.24 48.2125 149.719 47.9923 150.194C44.557 157.554 40.7385 164.711 36.4575 171.618C35.6648 172.898 34.872 174.204 33.8722 175.312C32.6346 176.688 31.6833 178.24 30.6703 179.757C30.34 180.249 30.3312 180.741 30.5999 181.238C30.8509 181.696 31.168 182.118 31.4102 182.579C31.9035 183.498 32.4012 184.421 32.8328 185.371C33.26 186.308 33.26 187.257 32.802 188.216C32.0973 189.689 31.4367 191.184 30.7584 192.67C30.3708 193.263 29.948 193.839 29.6001 194.455C28.5739 196.27 27.6666 198.157 26.548 199.911C24.6145 202.931 22.7911 206.009 21.0955 209.166C19.99 211.223 18.704 213.189 17.5016 215.194C16.0394 217.273 14.5772 219.353 13.1106 221.437L13.0973 221.454C12.996 221.586 12.8903 221.718 12.789 221.854C11.8641 223.508 10.8071 225.099 10.0496 226.823C9.08066 229.025 9.38896 229.223 10.9877 230.454C11.9566 231.202 12.9608 231.971 13.4717 233.18C13.3176 233.571 13.203 233.945 13.0269 234.292C11.3004 237.669 9.60036 241.059 7.19564 244.04C4.84817 246.95 3.11289 250.279 1.06931 253.396C0.71697 253.937 0.44831 254.561 0.27214 255.181C-0.155074 256.685 -0.190308 258.149 0.990034 259.402C1.66389 260.114 2.24965 260.918 2.96314 261.587C3.69425 262.268 4.02016 263.042 3.97612 264.027C3.94529 264.678 3.99374 265.337 4.01136 265.988C4.02457 266.52 4.11706 267.03 4.49142 267.447C4.79091 268.358 5.26217 269.211 5.293 270.209C5.3018 270.406 5.4031 270.53 5.55285 270.582C5.52642 270.626 5.5088 270.683 5.49119 270.749C5.14325 271.145 5.43834 271.453 5.63212 271.769V271.774C5.72021 272.082 5.79068 272.398 5.90078 272.701C6.39846 274.042 7.41585 274.583 8.79438 274.561C9.1203 274.557 9.45062 274.561 9.77653 274.561C20.4481 274.535 31.124 274.513 41.7955 274.486C42.9758 274.486 44.1518 274.456 45.3321 274.438C45.9839 274.473 46.6358 274.535 47.2876 274.53C56.2635 274.495 65.235 274.443 74.2108 274.416C87.0493 274.381 99.8921 274.363 112.73 274.328C113.506 274.328 114.281 274.201 115.056 274.13C116.223 274.13 117.395 274.139 118.562 274.13C118.822 274.13 119.073 274.047 118.993 273.568C118.734 273.524 118.434 273.436 118.139 273.436C116.646 273.427 115.148 273.392 113.66 273.458C112.431 273.515 111.211 273.7 109.987 273.827C109.832 273.823 109.678 273.814 109.524 273.809C108.89 273.686 108.26 273.488 107.617 273.458C104.895 273.321 102.173 273.264 99.4561 273.572C99.2667 273.594 99.0861 273.682 98.9011 273.739C98.3902 273.757 97.8837 273.779 97.3728 273.796C96.1749 273.51 94.9813 273.532 93.7834 273.783C93.5279 273.783 93.2681 273.774 93.0126 273.77C92.7528 273.853 92.4929 274.007 92.2287 274.042C92.4885 274.007 92.7484 273.858 93.0126 273.77C92.5061 273.651 92.0041 273.431 91.4976 273.427C88.049 273.409 84.6049 273.436 81.1564 273.444C80.3724 273.423 79.5884 273.379 78.8001 273.379C75.4617 273.379 72.1232 273.436 68.7848 273.379C65.8339 273.33 62.8919 273.273 59.9675 273.765C59.8001 273.572 59.6504 273.229 59.4698 273.211C58.3379 273.106 57.184 272.789 56.0961 273.436C55.4311 273.831 54.6075 273.871 54.0702 273.493C53.2069 272.882 52.3305 273.168 51.4584 273.097C50.9343 273.053 50.6437 273.414 50.3926 273.805C49.8729 273.73 49.3532 273.66 48.8291 273.585C48.5032 273.576 48.1729 273.572 47.8469 273.563C46.6754 273.625 45.4995 273.691 44.3279 273.752C44.1562 273.765 43.98 273.783 43.8082 273.796C43.9448 273.941 44.0945 274.02 44.2575 274.064C44.0989 274.02 43.9492 273.941 43.8082 273.796C43.4119 273.814 43.0155 273.836 42.6191 273.853C41.9673 273.853 41.3198 273.858 40.6724 273.862C40.7341 273.721 40.7957 273.576 40.8838 273.374C39.9677 273.638 39.1236 273.673 38.3514 273.48C38.0387 273.401 37.7171 273.295 37.4 273.299C35.6383 273.313 33.8722 273.308 32.1149 273.405C30.8773 273.471 29.6574 273.686 28.4462 273.185C28.1071 273.044 27.671 273.119 27.2791 273.119C21.2056 273.102 15.1277 273.058 9.05423 273.097C7.87389 273.106 7.03268 272.798 6.47774 271.761C6.4381 271.633 6.39846 271.501 6.35442 271.374C6.27074 270.679 6.20027 269.984 6.09457 269.294C6.04612 268.986 5.914 268.692 5.8171 268.393C5.76866 268.081 5.72021 267.768 5.67176 267.456C5.53523 267.179 5.3987 266.902 5.26217 266.63C5.20051 265.328 5.13885 264.027 5.07719 262.721C5.01553 262.558 4.95827 262.4 4.89661 262.237C4.82174 261.516 4.23597 261.143 3.81757 260.659C3.05123 259.771 2.29369 258.874 1.51855 257.995C0.840289 257.221 0.7478 256.346 1.12657 255.44C1.45248 254.666 1.84006 253.91 2.27167 253.185C2.77376 252.345 3.39916 251.584 3.88363 250.736C5.20931 248.406 6.77283 246.234 8.45085 244.163C10.4328 241.714 12.0447 239.05 13.4849 236.271C13.8681 235.528 14.2469 234.785 14.7049 233.884C15.044 234.262 15.2819 234.525 15.5197 234.794C15.6254 234.794 15.7267 234.802 15.828 234.811C15.8104 234.504 15.9117 234.103 15.7575 233.906C14.3482 232.143 13.0885 230.234 11.1903 228.915C11.045 228.814 10.9701 228.608 10.8027 228.361C11.0494 227.676 11.2652 226.933 11.5779 226.229C12.1857 224.87 12.8463 223.538 13.4849 222.193C14.9471 220.008 16.4093 217.823 17.8716 215.638C18.8273 214.173 19.8623 212.749 20.7299 211.232C22.7603 207.671 24.6673 204.048 26.9664 200.641C28.5607 198.28 29.8159 195.69 31.2209 193.197L31.2297 193.18C31.3266 193.043 31.4235 192.911 31.516 192.775C32.2911 191.491 33.0574 190.203 33.837 188.919C34.4932 187.838 34.5197 186.703 34.1937 185.516C33.859 184.307 33.3129 183.199 32.6258 182.157C32.2735 181.621 31.9211 181.08 31.6613 180.68C31.9123 178.965 32.9297 177.945 33.9691 176.938C34.0792 176.85 34.1849 176.763 34.2906 176.675L34.3655 176.617C35.5811 176.028 36.5016 176.398 37.2063 177.484C37.4177 177.813 37.6114 178.165 37.8801 178.442C38.3249 178.908 38.805 179.348 39.3115 179.752C39.47 179.88 39.7519 179.853 40.1879 179.941C39.4304 178.992 38.8182 178.244 38.228 177.479C37.5938 176.653 37.0433 175.76 36.0832 175.237C35.9554 175.167 35.9466 174.89 35.885 174.709C36.9024 173.118 37.9638 171.548 38.9239 169.926C41.1525 166.171 43.5264 162.495 45.2749 158.473C46.3407 156.024 47.455 153.601 48.5472 151.165C48.6089 151.029 48.6705 150.888 48.7322 150.752C48.7895 150.603 48.8467 150.453 48.904 150.304C49.0361 149.926 49.1726 149.543 49.3048 149.165C49.362 148.976 49.4149 148.791 49.4721 148.602C50.0711 147.085 50.6701 145.573 51.2646 144.056L51.2779 144.03C51.3615 143.902 51.4496 143.779 51.5333 143.656C52.5463 142.398 53.0528 140.943 53.2994 139.365C53.6562 137.096 53.8015 134.827 53.3567 132.524C54.4137 131.222 55.6513 130.154 56.8625 129.072C58.8092 127.327 60.769 125.595 62.7642 123.906C63.808 123.023 64.9355 122.227 66.0453 121.422C66.4109 121.158 66.8425 120.978 67.2521 120.78C67.7454 120.543 68.177 120.503 68.7055 120.855C69.3045 121.251 69.7493 121.031 69.8286 120.393C69.9563 119.36 70.1017 118.309 70.0532 117.276C69.9035 114.014 69.6877 110.756 69.4675 107.498C69.2208 103.844 69.1151 100.195 69.6392 96.5504C69.855 95.0643 70.0004 93.5651 70.1061 92.0702C70.1677 91.1777 70.4144 90.4698 71.1147 89.8587C72.1453 88.9574 73.0878 87.955 74.0699 86.9921C74.343 86.8162 74.6381 86.6668 74.8891 86.4645C78.1482 83.8265 81.6673 81.5711 85.2787 79.4431C86.2521 78.8715 87.1902 78.6957 88.2516 78.7924L88.3353 78.8188C88.833 79.0562 89.3351 79.2936 89.8328 79.531C89.7711 79.4167 89.705 79.32 89.6302 79.2364C89.705 79.32 89.7755 79.4167 89.8328 79.531L89.9297 79.5882C90.1587 79.7157 90.3877 79.8432 90.6123 79.9751L90.6784 80.0059C90.8501 80.274 91.1188 80.5642 90.8193 80.8676C90.326 81.3776 89.8107 81.8656 89.2646 82.3185C88.9167 82.6087 88.4983 82.8065 88.1239 83.0615C87.6571 83.3825 87.406 83.8045 87.5513 84.3937C87.1373 84.6575 86.7277 84.9213 86.3137 85.1851C86.2873 85.4357 86.2565 85.6863 86.2301 85.9413L86.1992 85.9765C86.7542 85.5456 87.3443 85.1499 87.5425 84.4201C88.5907 83.6507 89.661 82.9164 90.674 82.1074C91.3258 81.5842 91.8851 80.9467 92.4841 80.362L92.5678 80.2697C92.7087 80.0498 92.8541 79.83 92.995 79.6102C93.0214 79.2452 93.0523 78.8847 93.0787 78.5198C93.1756 77.9658 93.2769 77.4118 93.3738 76.8579L93.3782 76.8359C93.4619 76.5765 93.5499 76.3171 93.6336 76.0577C93.9595 75.0333 94.2811 74.0088 94.607 72.9844C94.7039 72.703 94.7964 72.4217 94.8932 72.1403C94.9373 71.9117 94.9857 71.683 95.0298 71.4544C95.5539 70.4388 95.4218 69.2781 95.7389 68.2141C96.2189 67.8052 96.7607 67.7744 97.4213 67.9195C97.4609 68.3812 97.571 68.8296 97.5182 69.2605C97.3817 70.364 97.7913 71.1335 98.7514 71.6523C98.976 71.7754 99.161 71.9644 99.3636 72.1271C99.5309 72.1183 99.6939 72.1051 99.8612 72.0963C99.8084 71.8281 99.76 71.5599 99.7071 71.2873L99.76 71.217L99.6587 71.1906C99.6587 71.1906 99.6587 71.195 99.6675 71.2038C99.6675 71.195 99.6587 71.1906 99.6587 71.1906C99.2623 70.8565 98.8615 70.5179 98.6148 70.3069C98.4563 68.3108 98.3154 66.5654 98.17 64.7583C101.138 63.0832 104.323 61.9445 107.454 60.8453C108.009 59.8385 107.78 58.8493 107.776 57.882C107.767 56.7081 107.622 55.521 107.776 54.3691C108.04 52.4082 108.075 50.4693 107.868 48.5084C107.785 47.7302 107.762 46.9476 107.714 46.165C107.674 45.5187 107.943 45.0438 108.48 44.6833C109.295 44.1381 110.106 43.5842 110.894 42.9994C115.148 39.8558 119.293 36.5539 123.812 33.7753C123.922 33.7093 124.01 33.6082 124.111 33.5203C124.226 33.4323 124.345 33.3444 124.459 33.2609L124.507 33.2301C125.12 32.8652 125.772 32.5574 126.34 32.1353C131.519 28.2795 136.725 24.4588 141.838 20.5194C145.507 17.6924 149.048 14.7071 152.642 11.7877C153.347 11.2161 154.025 10.6094 154.716 10.0203C157.403 8.07255 160.089 6.12485 162.776 4.17714C163.04 3.98808 163.313 3.80782 163.591 3.64515C163.882 3.47807 164.185 3.37695 164.507 3.74627V5.60165C164.67 5.63682 164.828 5.67199 164.991 5.71156C165.124 5.43018 165.256 5.1444 165.392 4.86301C165.947 4.78827 166.498 4.71792 167.105 4.63439C167.806 5.5357 168.801 5.55768 169.832 5.45216C169.955 5.5357 170.078 5.62363 170.206 5.70717C171.166 6.45899 171.435 6.56011 173.293 6.86788L173.373 6.88986C173.668 7.19762 174.003 7.37789 174.447 7.25918L174.566 7.28116C175.711 7.34271 176.861 7.40427 178.006 7.46142C178.376 7.56694 178.75 7.67686 179.12 7.78238C178.896 8.32756 178.671 8.87714 178.446 9.42232C178.261 9.85319 178.076 10.2841 177.892 10.7149C178.037 10.8732 178.182 11.0315 178.323 11.1942C178.49 10.8292 178.662 10.4599 178.83 10.095L178.834 10.0774C178.927 9.93673 179.019 9.80043 179.111 9.65974C179.292 9.30361 179.468 8.94748 179.649 8.59136C179.741 8.42428 179.834 8.25721 179.931 8.09014C180.01 8.0154 180.05 7.92307 180.05 7.81315C180.169 7.79117 180.279 7.7472 180.376 7.68125C181.001 7.59332 181.626 7.50539 182.252 7.42185C183.322 7.25038 184.326 7.53177 185.339 7.82195C188.99 8.85955 192.646 9.89276 196.301 10.9084C199.71 11.8581 203.093 12.8649 206.334 14.3202C208.065 15.094 209.858 15.7315 211.641 16.3866C214.284 17.3582 216.909 18.3651 219.415 19.6753C221.502 20.7656 223.63 21.79 225.788 22.7309C228.307 23.8301 230.884 24.7973 233.425 25.8481C238.08 27.7783 242.784 29.5941 247.347 31.7528C250.064 33.041 252.887 34.105 255.658 35.2833C260.595 37.3849 265.576 39.3942 270.447 41.6408C274.49 43.5094 278.441 45.5626 282.638 47.0883C283.801 47.5103 284.884 48.1479 285.998 48.6974C286.1 48.7502 286.157 48.8909 286.298 49.0624C286.082 49.7702 285.752 50.5396 285.144 50.9837C283.625 52.096 282.167 53.3139 280.207 53.7052C278.278 54.0921 276.459 54.8659 274.697 55.754C274.349 55.9299 274.01 56.1365 273.706 56.3784C273.31 56.6949 273.248 57.2489 273.592 57.5874C274.151 58.137 274.754 58.6426 275.336 59.1658C275.441 59.2494 275.543 59.3285 275.648 59.4076L275.785 59.5351C276.419 60.2166 277.053 60.8937 277.688 61.5752C277.613 60.7794 277.441 60.0583 276.912 59.4824C276.727 58.6338 276.093 58.1986 275.406 57.7941C275.133 57.6314 274.838 57.4511 275.01 56.8928C276.67 56.1014 278.507 55.499 280.379 54.9934C280.55 54.9451 280.806 54.9538 280.934 55.0506C281.286 55.31 281.55 55.7936 281.929 55.8903C282.374 56.0002 283.061 55.565 283.36 55.7716C284.087 56.2772 284.699 56.009 285.355 55.8596C285.518 55.4902 285.664 55.1605 285.791 54.8659C286.025 54.8659 286.161 54.8307 286.276 54.8703C288.148 55.5254 289.579 56.8972 291.231 57.9172C291.548 58.1106 291.781 58.4755 291.993 58.7965C292.451 59.5044 292.869 60.2386 293.301 60.9596C292.636 60.7442 291.962 60.4452 291.358 61.0959C291.262 61.1399 291.16 61.1795 291.059 61.2146C291.425 61.4257 291.794 61.6323 292.16 61.8434C294.173 62.3886 296.177 62.9645 298.198 63.4789C300.167 63.9801 302.105 64.5517 303.977 65.3475C306.434 66.3895 308.896 67.4183 311.49 68.5087C311.49 68.834 311.486 69.2121 311.49 69.5946C311.499 70.0519 311.49 70.5135 311.548 70.9664C311.741 72.5536 312.279 73.0812 313.869 73.3977C315.344 73.6923 316.815 74.0088 318.277 74.3518C321.536 75.1168 324.611 76.4182 327.738 77.5745C328.61 77.8955 328.936 78.467 329.094 79.2936C329.944 83.6858 330.2 88.1001 329.636 92.5538C329.539 93.3277 329.517 94.119 329.504 94.9016C329.486 95.9436 329.539 96.99 329.508 98.032C329.486 98.8322 329.592 99.5841 329.949 100.31C330.349 101.123 330.71 101.954 331.058 102.71C330.063 103.866 329.165 104.979 328.187 106.012C327.848 106.372 327.306 106.54 326.857 106.79C326.245 106.992 325.624 107.173 325.02 107.401C324.188 107.718 323.765 108.179 323.157 109.433C323.805 109.006 324.351 108.773 324.725 108.377C325.465 107.59 326.403 107.445 327.381 107.353C327.702 107.322 328.028 107.335 328.35 107.331C329.764 108.646 330.772 110.176 331.354 112.062C331.75 113.341 332.402 114.621 333.234 115.663C334.075 116.718 334.683 117.826 335.066 119.079C336.194 122.763 337.365 126.439 337.933 130.273C338.048 131.046 338.193 131.829 338.444 132.568C338.753 133.469 338.885 134.326 338.44 135.263C338.127 135.518 337.762 135.795 337.423 136.102C337.238 136.27 337.022 136.463 336.951 136.687C336.678 137.553 336.454 138.433 336.216 139.308C336.357 139.462 336.502 139.615 336.643 139.765L336.656 139.739C336.89 139.347 337.123 138.956 337.361 138.565C337.524 138.283 337.749 138.019 337.837 137.716C338.048 136.969 338.55 136.634 339.281 136.63C341.113 136.621 342.95 136.56 344.778 136.674C345.993 136.753 347.226 136.995 348.38 137.764C348.336 138.613 348.306 139.457 348.244 140.297L348.253 140.31ZM48.8027 274.188C48.0451 274.192 47.2876 274.174 46.5301 274.17C47.2876 274.17 48.0451 274.192 48.8027 274.188ZM73.2859 86.6975C73.3344 86.6975 73.3872 86.6931 73.4357 86.6887C73.3872 86.6887 73.3344 86.6887 73.2859 86.6975ZM88.8022 78.8451C88.8726 78.8539 88.9431 78.8671 89.0136 78.8847C88.9475 78.8671 88.877 78.8539 88.8022 78.8451ZM179.318 7.17564C179.49 7.03495 179.71 6.99538 179.939 6.96021C179.71 6.99098 179.49 7.03495 179.318 7.17564Z" fill="#3B576B"/>
<path d="M81.8259 276.83C80.9803 276.759 80.1391 276.592 79.2979 276.592C65.9265 276.575 52.5552 276.579 39.1839 276.579C38.7258 276.579 38.2634 276.561 37.8097 276.614C37.5675 276.645 37.3385 276.803 37.1007 276.904C33.3042 276.821 29.5474 277.155 25.6496 277.92C27.0237 278.215 28.1556 277.766 29.3139 277.7C32.2956 277.533 35.2817 277.428 38.2678 277.296C38.3999 277.304 38.5276 277.326 38.6598 277.326C53.9954 277.326 69.3354 277.322 84.6711 277.313C85.9791 277.313 87.2828 277.199 88.5644 277.599C88.8551 277.687 89.2163 277.608 89.529 277.537C89.6655 277.507 89.7624 277.296 90.0134 277.014C87.7496 276.983 85.6664 276.961 83.5876 276.926C83.0019 276.918 82.4117 276.887 81.8259 276.838V276.83Z" fill="#3B576B"/>
<path d="M334.934 143.875C332.913 146.043 330.891 148.184 328.9 150.352C328.434 150.862 327.553 151.446 328.015 152.132C328.575 152.963 329.42 152.181 330.12 151.965C330.719 151.785 331.248 151.306 331.948 151.556C332.146 152.106 331.763 152.418 331.503 152.761C331.111 153.275 330.649 153.755 330.825 154.485C331.926 153.741 332.675 152.708 333.186 151.508C333.512 150.739 333.098 150.29 332.239 150.321C331.688 150.343 331.155 150.875 330.583 150.422C330.336 149.785 330.794 149.437 331.138 149.081C332.494 147.679 333.882 146.302 335.238 144.9C336.154 143.955 336.145 143.845 335.322 142.53C335.758 141.629 336.212 140.701 336.661 139.769C336.52 139.615 336.374 139.461 336.234 139.312C335.811 140.116 335.362 140.912 334.974 141.734C334.52 142.697 334.542 142.706 334.939 143.871L334.934 143.875Z" fill="#3B576B"/>
<path d="M229.884 273.4C229.364 273.4 228.827 273.356 228.395 273.743C228.149 273.778 227.902 273.814 227.651 273.849C226.479 273.849 225.308 273.84 224.136 273.84C223.788 273.857 223.352 273.616 223.172 274.156C223.418 274.596 223.85 274.469 224.216 274.473C227.092 274.513 229.963 274.543 232.839 274.552C233.354 274.552 233.87 274.451 234.385 274.398C234.583 274.403 234.786 274.411 234.984 274.416C236.473 274.565 237.961 274.763 239.454 274.856C243.185 275.084 246.889 274.455 250.615 274.425C250.742 274.425 250.87 274.209 251.13 273.976C249.434 273.8 247.906 273.528 246.373 273.506C240.877 273.427 235.38 273.431 229.884 273.409V273.4Z" fill="#3B576B"/>
<path d="M361.148 272.736C361.307 271.606 361.443 270.507 361.624 269.417C361.818 268.247 361.875 267.095 361.527 265.935C361.36 265.381 361.126 264.752 361.241 264.229C361.51 263.029 360.994 261.943 360.994 260.602C360.915 261.173 360.884 261.543 360.814 261.903C360.514 263.433 360.329 264.946 360.651 266.511C360.924 267.856 360.66 271.532 360.32 273.202C359.849 273.391 359.312 273.602 358.77 273.814C358.73 273.932 358.691 274.047 358.651 274.165C358.937 274.271 359.224 274.381 359.51 274.486C360.924 275.26 362.285 274.521 363.888 274.451C363.099 273.418 362.144 273.079 361.144 272.728L361.148 272.736Z" fill="#3B576B"/>
<path d="M88.6745 95.2399C88.6745 95.429 88.6745 95.662 88.7802 95.8027C88.9608 96.0533 89.1062 96.3127 89.2207 96.5677C89.1854 96.0841 89.0665 95.5653 88.8683 94.9497C88.7979 95.0465 88.6745 95.1388 88.6745 95.2355V95.2399Z" fill="#3B576B"/>
<path d="M248.756 191.856C248.562 191.166 248.302 190.497 248.025 189.833C247.941 189.627 247.743 189.385 247.444 189.618C247.422 189.688 247.373 189.754 247.386 189.803C248.549 193.949 249.677 198.103 250.905 202.228C251.421 203.96 251.883 205.736 252.808 207.323C252.698 206.629 252.641 205.921 252.456 205.244C251.24 200.772 250.003 196.31 248.756 191.852V191.856Z" fill="#3B576B"/>
<path d="M207.616 282.642C207.625 282.827 207.889 283.108 208.087 283.161C208.77 283.337 209.483 283.57 210.175 283.539C212.721 283.429 215.213 283.996 217.741 284.018C217.997 284.018 218.252 284.11 218.508 284.141C220.754 284.409 222.982 284.88 225.264 284.766C226.682 285.249 228.655 285.32 230.505 284.893C228.602 284.744 226.973 284.163 225.255 284.423C224.061 284.022 222.806 284.124 221.586 283.961C219.204 283.644 216.834 283.244 214.421 283.205C214.227 283.205 214.015 283.214 213.839 283.152C212.703 282.739 211.518 282.866 210.347 282.813C210.078 282.8 209.726 282.989 209.514 282.62C209.937 282.422 210.325 282.237 210.717 282.053C210.457 281.934 210.197 281.811 209.941 281.692C209.312 281.829 208.669 281.93 208.056 282.114C207.863 282.176 207.607 282.471 207.616 282.646V282.642Z" fill="#3B576B"/>
<path d="M338.18 176.841C337.744 176.784 337.251 176.723 336.617 176.639C336.925 176.991 337.119 177.215 337.365 177.496C337.031 178.565 336.379 179.585 336.683 180.838C336.771 181.207 336.441 181.704 336.234 182.109C335.608 183.326 334.947 184.531 334.296 185.74C334.194 185.824 334.067 185.89 334.001 185.991C332.19 188.862 330.376 191.733 328.588 194.621C327.83 195.844 327.134 197.101 326.412 198.341C326.113 198.855 325.853 199.387 325.769 200.328C326.179 199.796 326.394 199.554 326.566 199.282C329.178 195.136 331.781 190.985 334.384 186.835C334.52 186.62 334.582 186.36 334.679 186.118C335.291 185.191 335.921 184.272 336.507 183.331C337.062 182.443 337.823 181.493 337.669 180.473C337.484 179.242 338.365 178.389 338.374 177.294C338.374 177.176 338.282 177.057 338.189 176.833L338.18 176.841Z" fill="#3B576B"/>
<path d="M331.125 273.866C330.812 273.814 330.49 273.774 330.173 273.774C321.158 273.765 312.142 273.765 303.127 273.761C302.603 273.761 302.078 273.743 301.563 273.809C301.343 273.836 301.149 274.06 300.942 274.196C301.167 274.306 301.387 274.495 301.616 274.513C302.334 274.57 303.056 274.57 303.779 274.574C309.68 274.583 315.578 274.583 321.479 274.587C324.298 274.587 327.117 274.587 329.935 274.583C330.394 274.583 330.865 274.618 331.182 274.183C331.164 274.073 331.16 273.871 331.125 273.866Z" fill="#3B576B"/>
<path d="M123.266 184.399C123.345 185.177 123.596 185.96 123.53 186.712C123.446 187.688 123.666 188.514 124.217 189.271C124.86 190.159 125.058 191.148 125.04 192.212C125.027 193.245 125.04 194.283 125.04 195.316C125.688 194.125 125.776 192.898 125.811 191.662C125.838 190.783 125.639 189.948 125.107 189.275C123.97 187.833 123.636 186.114 123.266 184.39V184.399Z" fill="#3B576B"/>
<path d="M73.2332 278.5C72.5153 278.5 71.793 278.47 71.0751 278.531C70.7888 278.553 70.5202 278.786 70.2427 278.922C66.7766 278.931 63.3104 278.936 59.8443 278.949C59.329 278.949 58.7872 278.878 58.3512 279.27C57.8315 279.27 57.3118 279.274 56.7921 279.279C51.8858 279.296 46.9794 279.305 42.0731 279.344C41.7031 279.344 41.3332 279.534 40.9632 279.639C40.6417 280.008 40.8399 280.281 41.201 280.325C42.5531 280.488 43.9096 280.646 45.2706 280.707C46.7019 280.773 48.1377 280.734 49.5691 280.716C50.5248 280.707 51.5202 280.892 52.3482 280.14C52.5112 279.995 52.8415 280.004 53.0969 279.991C55.4356 279.872 57.7742 279.74 60.1129 279.652C61.8702 279.586 63.6275 279.591 65.3848 279.538C65.8296 279.525 66.2745 279.432 66.7149 279.375C66.7149 279.375 66.7237 279.375 66.7281 279.375C68.2432 279.314 69.7494 279.252 71.2645 279.191C74.0744 279.208 76.8843 279.23 79.6943 279.239C80.0158 279.239 80.3373 279.142 80.6588 279.107C81.3679 279.028 82.077 278.905 82.7904 278.892C84.6226 278.856 86.4504 278.878 88.2826 278.87C88.6613 278.87 89.0401 278.83 89.4233 278.812C88.996 278.575 88.5688 278.518 88.1416 278.518C83.1736 278.509 78.2056 278.505 73.2332 278.505V278.5Z" fill="#3B576B"/>
<path d="M278.881 160.561C278.837 159.321 278.833 158.085 278.798 156.846C278.767 155.694 278.855 154.524 278.45 153.267C277.882 153.636 277.432 153.931 276.904 154.274C277.106 154.762 277.168 155.337 277.472 155.535C278.093 155.931 278.097 156.459 278.128 157.043C278.251 159.387 278.379 161.73 278.507 164.074C278.696 164.074 278.886 164.074 279.075 164.074C279.009 162.904 278.925 161.735 278.886 160.565L278.881 160.561Z" fill="#3B576B"/>
<path d="M276.217 105.546C275.974 105.735 275.675 105.893 275.745 106.284C276.723 106.139 276.741 106.122 277.234 104.781C277.785 104.297 277.406 103.681 277.459 103.158C278.348 102.002 279.229 100.885 280.079 99.7465C280.291 99.4607 280.264 99.1353 279.956 98.8847C279.687 98.4934 279.419 98.1065 279.101 97.6493C280.048 97.0953 280.92 96.5897 282.044 95.9346C281.696 95.7367 281.524 95.5477 281.379 95.5697C279.934 95.7763 278.687 96.4138 277.657 97.4338C277.379 97.7108 277.353 98.1373 277.679 98.4802C277.908 98.6033 278.141 98.7264 278.37 98.8495L278.472 98.8803C278.67 99.1793 278.868 99.4783 279.005 99.6761C278.022 101.51 276.455 102.692 275.287 104.359C275.838 104.671 276.322 104.934 276.217 105.55V105.546Z" fill="#3B576B"/>
<path d="M120.859 293.342C122.559 293.434 124.228 293.095 125.906 292.937C127.522 292.783 129.143 292.66 130.755 292.467C131.341 292.396 131.905 292.15 132.481 291.988C131.209 291.838 129.958 291.715 128.742 291.864C126.293 292.163 123.862 292.577 121.383 292.563C120.797 292.563 120.207 292.546 119.625 292.612C119.326 292.643 119.04 292.836 118.749 292.955C117.635 292.955 116.516 292.893 115.406 292.959C114.367 293.025 113.332 293.214 112.301 293.386C112.151 293.412 111.905 293.663 111.927 293.737C111.993 293.948 112.16 294.142 112.328 294.309C112.407 294.392 112.565 294.414 112.693 294.428C113.666 294.555 114.64 294.7 115.618 294.793C119.075 295.118 122.545 295.311 125.981 295.777C127.804 296.024 129.522 295.795 131.561 295.571C130.231 295.171 129.227 294.876 128.082 295.245C127.505 295.435 126.791 295.223 126.139 295.162C125.426 295.096 124.712 294.99 123.999 294.916C122.242 294.74 120.484 294.577 118.731 294.393C117.516 294.265 116.305 294.107 115.089 293.962C116.41 293.584 117.754 293.412 119.101 293.298C119.687 293.311 120.273 293.311 120.859 293.342Z" fill="#3B576B"/>
<path d="M232.817 160.424C232.985 161.04 233.262 161.62 233.491 162.218C233.667 162.979 233.839 163.744 234.024 164.504C234.878 167.991 235.742 171.478 236.587 174.968C237.428 178.455 238.248 181.95 239.08 185.441C239.186 185.876 239.551 185.969 239.983 185.696C240.181 185.573 240.234 185.217 240.71 185.353C240.793 185.564 240.908 185.85 241.022 186.136C241.106 186.285 241.163 186.54 241.273 186.567C241.762 186.69 242.277 186.707 242.766 186.835C243.33 186.98 243.907 187.134 244.409 187.411C244.929 187.697 245.365 188.132 246.03 188.651C245.915 187.508 245.352 187.002 244.621 186.707C243.608 186.299 242.559 185.991 241.524 185.643C241.445 184.426 240.701 183.823 239.512 183.617C238.943 181.374 238.292 179.18 237.834 176.947C236.763 171.702 235.438 166.522 233.835 161.414C233.738 160.97 233.654 160.521 233.535 160.086C232.87 157.637 232.192 155.188 231.522 152.743C231.527 152.233 231.707 151.693 231.174 150.879V152.735C231.232 153.429 231.201 154.146 231.359 154.819C231.8 156.7 232.302 158.565 232.813 160.429L232.817 160.424Z" fill="#3B576B"/>
<path d="M43.3371 183.023C43.1962 182.597 42.9892 182.196 42.8086 181.783C42.7337 181.471 42.7293 181.111 42.5619 180.856C42.3329 180.513 41.9762 180.306 41.7119 180.873C41.9233 181.286 42.1259 181.682 42.3285 182.082C42.7073 184.316 43.7819 186.263 45.1649 187.96C46.3804 189.455 47.9483 190.669 49.3621 192.01C49.7541 192.744 50.3178 193.302 51.3176 193.931C50.9344 192.854 50.3619 192.41 49.7277 192.019C49.3401 191.513 49.0362 190.906 48.5473 190.524C46.0237 188.554 44.3236 186.039 43.3371 183.014V183.023Z" fill="#3B576B"/>
<path d="M116.228 140.956C116.228 140.956 116.245 140.969 116.253 140.977C116.253 140.964 116.249 140.952 116.245 140.943L116.228 140.96V140.956Z" fill="#3B576B"/>
<path d="M185.141 248.586C185.084 246.761 185.031 244.945 184.701 243.151C184.502 242.087 184.546 240.958 183.921 239.999C183.93 238.196 183.401 236.508 182.802 234.837C182.573 232.208 181.86 229.72 180.68 227.359C180.301 226.602 179.913 225.851 179.526 225.094C179.354 223.877 179.279 222.593 178.513 221.586C177.918 220.808 177.971 220.056 178.103 219.199C178.35 217.603 178.543 215.993 178.759 214.393C178.808 214.068 178.856 213.742 178.905 213.417C179.112 213.175 179.208 212.925 178.966 212.643C179.001 212.551 178.975 212.48 178.887 212.437C178.737 212.036 178.407 212.019 178.059 212.054L178.046 212.045C177.5 211.412 176.209 211.658 176.095 210.647C175.993 209.781 176.852 209.183 177.209 208.427C177.235 208.37 177.271 208.312 177.31 208.26C178.284 207.033 178.579 205.609 178.592 204.136C178.16 203.577 177.619 203.573 177.068 203.613C177.39 203.819 177.702 204.017 177.984 204.197C177.605 205.969 176.923 207.49 176.064 208.946C175.835 209.337 175.632 209.75 175.46 210.172C175.157 210.92 175.315 211.43 176.024 211.803C176.535 212.072 177.108 212.23 177.654 212.432C177.821 213.078 177.989 213.72 178.156 214.367C177.883 216.42 177.843 218.504 177.262 220.513C177.13 220.966 177.213 221.45 177.57 221.784C178.288 222.448 178.438 223.349 178.693 224.22C178.817 224.646 179.028 225.046 179.2 225.455C179.561 226.347 179.887 227.258 180.288 228.133C181.371 230.502 181.842 233.048 182.476 235.55C182.868 237.251 183.26 238.957 183.657 240.659C183.881 242.127 184.141 243.595 184.326 245.073C184.52 246.616 184.635 248.172 184.811 249.72C184.899 250.489 185.018 251.263 185.185 252.019C185.26 252.362 185.48 252.675 185.634 253.004C185.828 252.639 185.828 252.327 185.771 252.024C185.559 250.881 185.176 249.742 185.141 248.594V248.586Z" fill="#3B576B"/>
<path d="M294.917 274.178C294.613 273.712 294.133 273.796 293.68 273.783C292.182 273.734 290.671 273.937 289.205 273.453C288.971 273.374 288.663 273.378 288.43 273.457C286.897 273.967 285.311 273.805 283.757 273.761C280.634 273.677 277.494 274.134 274.385 273.413C273.719 273.26 272.958 273.295 272.398 274.17H275.239C275.578 274.565 276.041 274.543 276.494 274.543C282.286 274.543 288.073 274.543 293.865 274.543C294.257 274.543 294.653 274.543 294.917 274.178Z" fill="#3B576B"/>
<path d="M360.475 250.511C360.818 248.687 360.743 246.554 360.131 242.316C359.933 242.448 359.735 242.575 359.532 242.707C359.343 245.429 359.849 248.071 360.475 250.511Z" fill="#3B576B"/>
<path d="M227.761 279.723C227.312 279.723 226.836 279.687 226.488 280.074L224.876 280.096C224.876 280.211 224.863 280.321 224.845 280.435C223.669 280.439 222.498 280.448 221.322 280.452C220.802 280.461 220.283 280.466 219.763 280.474C218.988 280.488 218.199 280.426 217.437 280.523C215.711 280.743 213.998 281.037 212.276 281.297C211.496 281.424 210.721 281.552 209.941 281.679C210.201 281.798 210.461 281.921 210.717 282.04C211.509 281.956 212.351 282.167 213.064 281.631C215.315 281.437 217.565 281.244 219.816 281.042C219.935 281.033 220.045 280.923 220.155 280.861C221.366 280.831 222.582 280.822 223.793 280.756C224.154 280.738 224.511 280.554 224.867 280.448C226.651 280.369 228.435 280.29 230.223 280.215C230.351 280.237 230.478 280.263 230.606 280.281C232.606 280.54 234.605 279.749 236.605 280.299C236.662 280.316 236.733 280.277 236.799 280.272C237.701 280.184 238.604 280.092 239.512 280.013C239.956 279.973 240.401 279.956 240.846 279.929C236.477 279.714 232.117 279.709 227.757 279.718L227.761 279.723Z" fill="#3B576B"/>
<path d="M61.5399 201.92C60.7603 201.186 59.9764 200.478 59.0779 199.893C60.157 201.054 61.3813 202.109 61.7425 203.802C61.8526 204.312 62.4075 204.593 62.9581 204.663C63.1871 204.694 63.5042 204.786 63.557 204.408C63.1959 204.026 62.663 203.709 62.5441 203.278C62.3679 202.645 61.9671 202.324 61.5355 201.92H61.5399Z" fill="#3B576B"/>
<path d="M93.8143 119.887C93.8143 120.178 93.9817 120.358 94.3164 120.279C94.6159 118.938 94.704 114.15 94.4793 111.34C94.5322 110.883 94.5102 110.404 94.6511 109.982C95.1224 108.566 94.7568 107.278 94.1843 105.994C93.2065 103.809 91.8148 101.932 90.0222 100.344C89.736 100.089 89.4541 99.8344 89.1194 99.531C89.6214 98.4802 89.6303 97.4998 89.2207 96.5677C89.2823 97.3547 89.1238 98.045 88.745 98.8759C88.2987 99.852 88.5086 100.687 89.3748 101.382C89.4761 101.466 89.573 101.553 89.6743 101.637C92.3785 103.884 93.9332 106.724 94.1578 110.259C94.1843 110.65 94.2283 111.041 94.2635 111.433C94.1138 111.705 93.8407 111.973 93.8363 112.25C93.8011 114.796 93.8055 117.342 93.8143 119.892V119.887Z" fill="#3B576B"/>
<path d="M87.0273 87.559C87.6792 88.1481 88.1284 88.8208 88.309 89.6782C88.3706 89.964 88.4411 90.2497 88.5336 90.6586C89.7932 88.5307 88.974 87.6777 87.4898 87.0138C87.1375 86.8555 86.7851 86.6753 86.4636 86.4598C86.3315 86.3719 86.2918 86.1565 86.2082 85.9982L86.239 85.963C86.0408 85.9762 85.847 85.985 85.6488 85.9982C86.1069 86.5214 86.5165 87.093 87.0273 87.559Z" fill="#3B576B"/>
<path d="M73.9291 287.122C72.0308 287.017 70.1855 287.417 68.318 287.615C68.1507 287.632 67.9965 287.817 67.838 287.922C68.4942 287.922 69.1549 287.927 69.8111 287.931C72.784 287.76 75.7524 287.593 78.7253 287.421C77.1266 287.192 75.5234 287.21 73.9291 287.118V287.122Z" fill="#3B576B"/>
<path d="M86.8886 290.721C87.3378 290.84 87.5712 290.95 87.8091 290.959C88.6591 290.985 89.5135 291.016 90.3591 290.972C92.5084 290.862 94.6577 290.713 96.8026 290.567C97.1329 290.545 97.4632 290.484 97.7935 290.44C94.2173 290.159 90.663 290.062 86.8886 290.717V290.721Z" fill="#3B576B"/>
<path d="M229.012 121.541C229.003 121.971 229.179 122.407 229.267 122.842C229.355 123.216 229.461 123.589 229.527 123.968C229.602 124.407 229.646 124.851 229.703 125.295C229.937 125.524 230.17 125.753 230.399 125.981C230.166 125.753 229.932 125.524 229.703 125.295C229.562 125.432 229.399 125.55 229.289 125.709C228.867 126.315 228.955 126.724 229.549 126.935C229.853 127.045 230.179 127.102 230.492 127.19C230.906 127.305 231.315 127.432 231.729 127.555C231.628 128.505 231.544 129.318 231.465 130.07C231.972 129.208 232.522 128.298 233.051 127.371C233.306 126.926 233.086 126.491 232.518 126.364C231.817 126.21 231.108 126.104 230.399 125.977C230.448 124.983 230.421 124.007 229.769 123.172C229.778 123.035 229.712 122.943 229.58 122.895L229.567 122.855C229.708 121.51 229.84 120.169 229.994 118.823C230.082 118.058 230.219 117.298 230.333 116.537C230.505 115.592 230.699 114.651 230.822 113.701C230.844 113.526 230.619 113.205 230.439 113.143C230.161 113.046 229.981 113.297 229.968 113.583C229.941 114.031 229.941 114.48 229.932 114.928C229.915 115.113 229.897 115.302 229.875 115.486C229.866 115.68 229.862 115.873 229.853 116.062C229.241 117.834 229.047 119.672 229.007 121.527L229.012 121.541Z" fill="#3B576B"/>
<path d="M145.454 112.576C145.357 111.815 145.256 111.055 145.159 110.294C145.045 108.984 144.926 107.674 144.811 106.359C144.772 106.174 144.728 105.994 144.688 105.809C144.573 104.693 144.459 103.58 144.349 102.464C144.327 102.411 144.3 102.358 144.278 102.301C144.3 102.354 144.327 102.406 144.349 102.464C144.375 102.406 144.437 102.34 144.424 102.297C144.388 102.182 144.318 102.077 144.265 101.967C144.234 101.597 144.199 101.228 144.168 100.859C144.062 100.239 143.957 99.619 143.855 99.0474C143.292 98.9551 142.86 98.8891 142.248 98.7924C142.658 98.1285 142.983 97.5833 143.327 97.0513C143.644 96.5589 143.992 96.0841 144.309 95.5916C144.529 95.2487 144.688 94.8266 144.393 94.5101C144.212 94.3166 143.825 94.2595 143.521 94.2419C143.072 94.2111 142.613 94.2683 142.16 94.2858C141.904 94.0177 141.649 93.7495 141.371 93.4593C142.015 92.3909 142.613 91.3841 143.217 90.3772C143.996 89.0714 144.454 87.6381 144.864 86.1872C144.987 85.7564 144.873 85.4134 144.353 85.22C143.441 85.5541 142.688 86.0949 142.358 87.1105C142.684 87.4007 142.961 87.6469 143.252 87.9063C142.966 88.9879 142.336 89.8321 141.75 90.6806C140.971 91.8105 140.103 92.8833 139.31 94.0089C138.861 94.6464 138.478 95.3366 138.099 96.0225C137.976 96.2423 137.87 96.5413 137.923 96.7655C137.989 97.0513 138.17 97.3723 138.403 97.5394C138.54 97.6405 138.945 97.5525 139.099 97.4074C139.429 97.1041 139.702 96.726 139.953 96.3479C140.68 95.2487 141.627 94.8002 142.913 95.2883L142.961 95.3278C142.922 95.2267 142.865 95.13 142.847 95.0245C142.838 94.9805 142.917 94.9233 142.953 94.8706C143.067 94.8926 143.204 94.8882 143.292 94.9497C143.402 95.0245 143.472 95.1564 143.556 95.2663C143.464 95.3234 143.371 95.4202 143.27 95.429C143.168 95.4378 143.063 95.363 142.957 95.3234L142.909 95.2839C142.944 95.5213 143.08 95.8159 142.988 95.9873C142.719 96.5061 142.349 96.9722 142.041 97.4734C141.292 98.6781 141.416 99.0254 142.75 99.6541C142.86 99.7069 142.939 99.8256 143.032 99.9135C143.054 100.243 143.08 100.569 143.102 100.89C143.098 101.127 143.089 101.364 143.085 101.602C143.138 101.778 143.19 101.949 143.239 102.125C143.565 103.928 143.895 105.726 144.221 107.528C144.322 108.069 144.424 108.614 144.525 109.155C144.547 108.94 144.582 108.724 144.591 108.513C144.582 108.724 144.547 108.944 144.525 109.155C144.56 109.525 144.595 109.894 144.631 110.259C144.758 111.296 144.882 112.33 145.009 113.367C145.15 115.385 145.547 117.359 146.031 119.316C146.066 119.465 146.247 119.58 146.498 119.861C146.538 118.032 146.115 116.445 145.934 114.836C145.846 114.071 145.613 113.323 145.441 112.571L145.454 112.576ZM144.503 107.898C144.534 107.964 144.551 108.03 144.569 108.096C144.556 108.03 144.534 107.964 144.503 107.898Z" fill="#3B576B"/>
<path d="M278.234 68.8249C278.551 68.6095 278.89 68.4029 279.141 68.1215C279.344 67.8972 279.511 67.5675 279.533 67.2773C279.56 66.9388 279.595 66.4991 279.035 66.3057C278.921 67.0443 278.569 67.6027 277.89 67.972C277.459 68.205 276.948 68.4292 276.824 69.0096L276.811 69.0272C276.518 69.3906 276.522 69.7717 276.824 70.1703C277.115 70.6803 277.23 71.2167 277.247 71.819C277.283 72.905 277.415 73.9954 277.578 75.0726C277.846 76.8532 278.172 78.625 278.472 80.3969C278.458 80.5859 278.406 80.7838 278.432 80.9684C278.723 82.9425 278.842 84.921 278.705 86.9127C278.683 87.2248 278.789 87.5458 278.833 87.8624C279.027 87.8536 279.22 87.8448 279.414 87.836C279.405 86.8731 279.375 85.9103 279.392 84.9474C279.419 83.4042 279.361 81.8697 278.934 80.3705C278.745 78.4536 278.529 76.541 278.375 74.6197C278.3 73.6656 278.335 72.7028 278.331 71.7487C278.331 71.3662 278.353 70.9837 278.366 70.6012C278.251 70.4649 278.141 70.3242 278.027 70.1879L278.005 70.1659C277.754 69.6691 277.666 69.2031 278.221 68.8249H278.234Z" fill="#3B576B"/>
<path d="M175.896 15.0234C175.826 15.1772 175.848 15.3707 175.835 15.551C176.698 15.1597 177.257 14.5265 177.522 13.5945C177.751 12.7855 178.059 11.9985 178.336 11.2027C178.191 11.0444 178.046 10.8861 177.905 10.7235C177.231 12.1524 176.553 13.5813 175.896 15.019V15.0234Z" fill="#3B576B"/>
<path d="M110.7 128.373C110.405 128.127 110.141 127.832 109.815 127.634C108.586 126.887 107.331 126.188 106.102 125.445C102.601 123.33 98.7647 122.033 94.8625 120.907C94.6908 120.859 94.4882 120.921 94.0874 120.943C94.4089 121.264 94.5762 121.558 94.8185 121.646C95.6773 121.963 96.5494 122.244 97.4346 122.473C101.733 123.598 105.503 125.818 109.251 128.096C109.502 128.25 109.736 128.553 109.819 128.83C109.881 129.028 109.678 129.305 109.595 129.547C108.767 130.681 108.815 130.91 109.982 131.323C110.26 131.42 110.564 131.455 111.07 131.565C110.793 131.055 110.63 130.752 110.471 130.457C110.669 130.017 110.885 129.617 111.035 129.191C111.158 128.852 111.022 128.562 110.7 128.373Z" fill="#3B576B"/>
<path d="M330.46 155.478C330.821 156.78 331.23 158.068 331.618 159.36C331.873 160.147 332.129 160.939 332.384 161.726C332.666 162.302 332.596 163.071 333.472 163.603C333.388 162.781 333.287 162.209 332.763 161.774C332.732 160.772 332.569 159.8 332.054 158.921C331.948 157.364 331.644 155.865 330.794 154.524C330.336 154.713 330.358 155.126 330.455 155.478H330.46Z" fill="#3B576B"/>
<path d="M330.803 154.524C330.803 154.524 330.821 154.515 330.825 154.515C330.825 154.506 330.825 154.498 330.821 154.489C330.812 154.498 330.803 154.502 330.794 154.511C330.794 154.515 330.799 154.52 330.803 154.528V154.524Z" fill="#3B576B"/>
<path d="M113.858 137.777C113.858 137.777 113.858 137.795 113.858 137.804L113.871 137.79C113.867 137.79 113.862 137.782 113.854 137.782L113.858 137.777Z" fill="#3B576B"/>
<path d="M113.043 133.834C113.061 133.178 112.731 132.567 112.215 132.119C111.969 131.903 111.665 131.767 111.299 132.15C112.017 132.853 112.237 133.728 112.383 134.735C112.541 135.838 112.731 137.083 113.862 137.782C113.845 137.527 113.885 137.245 113.783 137.034C113.281 136.023 113.012 134.985 113.048 133.838L113.043 133.834Z" fill="#3B576B"/>
<path d="M167.427 205.019C166.621 205.041 166.251 204.615 166.145 203.876C165.621 201.876 165.115 199.871 164.551 197.884C164.437 197.475 164.097 197.127 163.864 196.749C163.71 194.907 162.935 193.28 162.094 191.68C161.635 190.225 161.177 188.765 160.715 187.31C160.587 187.05 160.46 186.787 160.336 186.527L160.327 186.51C160.297 185.556 159.834 184.637 160.103 183.647C160.156 183.445 160.015 183.137 159.869 182.948C159.473 182.438 159.041 181.946 158.346 181.84C157.817 181.48 157.284 181.124 156.756 180.759C156.456 180.548 156.17 180.319 155.795 180.038C156.258 178.837 156.694 177.703 157.126 176.569C157.399 175.852 157.733 175.144 157.619 174.34C158.121 173.161 158.623 171.979 159.121 170.8C159.61 170.189 159.698 169.521 159.438 168.782C158.804 166.993 158.447 165.151 158.376 163.251C158.368 163.071 158.257 162.891 158.103 162.456C157.94 163.023 157.76 163.361 157.764 163.7C157.777 165.269 157.984 166.813 158.451 168.316C158.707 169.134 158.856 169.956 158.671 170.814C157.91 171.878 157.403 173.047 157.165 174.331C155.817 177.272 155.144 179.295 154.972 181.027C155.434 181.264 155.941 181.528 156.447 181.792C156.808 181.928 157.17 182.06 157.535 182.196L157.597 182.214C158.209 182.557 158.821 182.9 159.53 183.3C159.53 183.946 159.508 184.584 159.552 185.217C159.583 185.652 159.706 186.083 159.79 186.514C159.834 186.914 159.874 187.31 159.918 187.71C160.028 187.991 160.134 188.268 160.244 188.55C160.68 189.565 161.116 190.581 161.556 191.596C162.217 193.294 162.878 194.995 163.538 196.692C164.111 198.679 164.67 200.671 165.269 202.65C165.392 203.063 165.37 203.582 165.868 203.815C165.85 204.197 165.828 204.584 165.82 204.967C165.815 205.296 165.877 205.604 166.242 205.736C166.621 205.732 167 205.723 167.374 205.718C169.704 205.525 170.422 205.274 171.254 204.329C170.77 204.452 170.321 204.518 169.911 204.685C169.105 205.015 168.268 204.984 167.432 205.011L167.427 205.019Z" fill="#3B576B"/>
<path d="M98.9849 73.4106C98.2054 74.2636 97.8706 75.31 97.6504 76.4091C96.774 77.7677 95.8711 79.1175 95.761 80.8058C95.6685 80.8981 95.532 80.9684 95.4967 81.0784C94.8229 82.9821 94.3428 84.9254 94.1666 86.9479C94.0257 88.557 93.8539 90.1838 93.2638 91.7138C92.7617 93.0108 92.5503 94.343 92.7088 95.7279C92.4666 97.1217 92.7221 98.4363 93.2065 99.7992C93.4135 99.619 93.5853 99.531 93.5809 99.4607C93.4708 98.1944 93.4444 96.915 92.9379 95.7191C93.0612 95.5081 93.321 95.2663 93.2814 95.086C93.0436 93.9385 93.4355 92.9361 93.876 91.9248C94.2635 91.0323 94.5102 90.109 94.6247 89.1286C94.8317 87.3392 95.118 85.5541 95.4263 83.7779C95.598 82.7667 95.8755 81.773 96.1045 80.7706C96.7608 79.4604 97.4214 78.1546 98.0776 76.8444C98.3463 76.2552 98.6546 75.6749 98.8792 75.0682C99.2404 74.0921 99.5487 73.0941 99.879 72.1048C99.7116 72.1136 99.5487 72.1268 99.3813 72.1356C99.4121 72.606 99.3196 73.0369 98.9893 73.4018L98.9849 73.4106Z" fill="#3B576B"/>
<path d="M32.3793 257.251C32.3793 257.251 32.3793 257.269 32.3793 257.278L32.3924 257.265C32.3881 257.26 32.3837 257.256 32.3793 257.247V257.251Z" fill="#3B576B"/>
<path d="M29.195 254.24C29.0805 254.178 28.8339 254.297 28.6841 254.389C28.6225 254.429 28.596 254.653 28.6489 254.737C29.0188 255.365 29.4857 255.875 30.23 256.086C31.0316 256.311 31.8244 256.574 32.3837 257.251C32.3485 256.816 32.3132 256.385 32.2912 256.06C31.1813 255.4 30.1992 254.802 29.1994 254.244L29.195 254.24Z" fill="#3B576B"/>
<path d="M217.314 273.915C213.835 273.77 210.325 273.765 206.814 273.879C208.153 274.214 214.777 274.28 217.314 273.915Z" fill="#3B576B"/>
<path d="M177.865 125.216C178.041 124.038 178.292 122.895 178.363 121.734C178.411 120.929 178.724 120.033 178.011 119.32C177.975 118.014 178.068 116.691 177.87 115.412C177.583 113.583 177.548 111.789 177.843 109.964C177.966 109.199 177.949 108.403 177.905 107.625C177.887 107.339 177.61 107.067 177.398 106.689C177.227 108.223 177.037 109.577 176.927 110.94C176.83 112.176 176.821 113.398 177.072 114.642C177.381 116.172 177.491 117.737 177.689 119.289C177.548 120.837 177.795 122.411 177.315 123.95C177.165 124.425 177.39 124.944 177.861 125.216H177.865Z" fill="#3B576B"/>
<path d="M165.309 8.55151C165.216 8.66583 165.119 8.78014 165.027 8.89445C165.868 10.3409 166.203 11.9765 166.722 13.5417C166.841 13.401 166.965 13.2647 167.084 13.124C167.097 11.8666 166.731 10.7322 166.005 9.70343C165.745 9.33851 165.542 8.93842 165.313 8.55151H165.309Z" fill="#3B576B"/>
<path d="M175.808 15.5987C175.808 15.5987 175.821 15.5943 175.83 15.59C175.83 15.577 175.83 15.564 175.83 15.5553C175.817 15.5597 175.808 15.5683 175.795 15.5727C175.795 15.5813 175.8 15.59 175.804 15.603L175.808 15.5987Z" fill="#3B576B"/>
<path d="M175.06 16.5446C175.32 17.0986 175.359 17.6394 175.333 18.2197C175.324 18.4747 175.157 18.844 175.676 19.0023C175.927 18.3956 176.165 17.8152 176.372 17.3184C176.161 16.6677 175.984 16.1307 175.808 15.5987C174.936 15.9504 174.822 16.039 175.06 16.5446Z" fill="#3B576B"/>
<path d="M287.034 62.6653C285.875 62.5553 284.977 63.3292 283.92 63.5754C283.752 63.6677 283.541 63.7248 283.422 63.8611C283.33 63.9667 283.347 64.1733 283.316 64.3316C283.484 64.2832 283.66 64.2393 283.823 64.1777C283.876 64.1557 283.907 64.081 283.951 64.0326C284.986 63.7205 286.021 63.4127 287.056 63.1049C287.958 62.8191 288.888 62.5949 289.764 62.2388C290.553 61.9178 291.332 61.7684 292.173 61.8607C291.808 61.6496 291.442 61.443 291.072 61.232C289.729 61.7112 288.381 62.1904 287.038 62.6697L287.034 62.6653Z" fill="#3B576B"/>
<path d="M177.508 51.9726C177.473 52.1573 177.438 52.3376 177.403 52.5222C177.451 52.7596 177.504 53.0015 177.552 53.2389C177.544 53.551 177.707 53.6829 178.006 53.6741L178.068 53.7049C178.187 53.7929 178.306 53.8808 178.425 53.9643C178.552 54.1402 178.684 54.3161 178.812 54.4875C178.975 55.3624 179.076 56.255 179.327 57.1035C179.534 57.7938 179.97 58.3609 180.851 58.2554C181.261 58.827 181.234 59.4645 181.19 60.124C180.217 61.2144 179.244 62.2784 178.306 63.3687C177.878 63.8611 177.456 64.3711 177.134 64.9339C176.887 65.3692 176.658 65.9012 177.156 66.3716C177.222 67.5015 177.293 68.6315 177.359 69.7614C177.35 70.799 177.337 71.841 177.328 72.8786C177.323 75.2792 177.315 77.6798 177.319 80.0803C177.319 80.3661 177.473 80.5508 177.878 80.4233C177.914 80.2078 177.989 79.9572 177.989 79.711C177.989 77.4379 177.98 75.1693 177.971 72.8962C177.971 71.8586 177.971 70.821 177.971 69.7834C177.98 68.482 177.993 67.1806 178.002 65.8836C177.786 65.2549 178.011 64.7537 178.442 64.292C179.552 63.1049 180.657 61.909 181.745 60.7044C182.084 60.3306 182.534 59.9965 182.424 59.2491C181.873 59.0204 181.706 58.1191 180.816 58.1895C180.036 57.4772 179.636 56.6111 179.618 55.5427C179.614 55.1954 179.429 54.8524 179.327 54.5051C179.235 54.0698 179.204 53.6126 179.037 53.2081C178.72 52.4475 178.328 51.722 177.966 50.979C177.425 49.7831 176.716 48.7147 175.756 47.7958C175.289 47.3518 174.817 46.8242 174.588 46.2394C173.849 44.3577 173.21 42.4364 172.549 40.5282C172.488 40.348 172.518 40.1369 172.51 39.9435C174.571 37.7759 176.557 35.5292 178.971 33.542C178.896 33.2606 178.803 32.8957 178.711 32.5307C178.579 31.9724 178.561 31.3568 178.292 30.8732C177.764 29.9147 177.094 29.0354 176.487 28.1209C176.023 26.6642 175.5 25.7687 174.919 25.4346C174.69 26.7536 175.54 27.5933 176.121 28.5254C176.381 29.031 176.641 29.5366 176.901 30.0423C177.125 30.4775 177.138 30.8908 176.746 31.2469C175.597 30.0115 174.721 28.6002 174.016 27.0745C173.989 27.0218 173.919 26.991 173.871 26.947C173.333 25.9446 172.791 24.9422 172.254 23.9397C172.466 22.9725 172.677 22.0052 172.893 21.0423C172.976 20.8665 173.069 20.695 173.148 20.5191C173.571 19.5739 173.549 19.3452 172.796 18.9144C171.461 18.145 170.14 17.3184 168.537 17.2041C168.264 16.505 167.973 15.8104 167.722 15.1069C167.493 14.4606 167.304 13.8011 167.097 13.146C166.978 13.2867 166.855 13.423 166.736 13.5637C166.973 14.5485 167.18 15.5422 167.458 16.5138C167.572 16.9227 167.705 17.3843 168.207 17.5426L168.211 17.547C168.339 17.6613 168.462 17.78 168.59 17.8944C169.841 18.5539 171.091 19.2133 172.342 19.8728C172.408 20.0839 172.457 20.2993 172.549 20.4972C172.457 20.2993 172.408 20.0795 172.338 19.8728C172.175 21.2138 172.012 22.5548 171.845 23.8958C171.686 24.4234 171.884 24.885 172.144 25.3071C172.501 25.8874 172.919 26.4282 173.307 26.9866C173.809 27.9495 174.285 28.9255 174.817 29.8708C175.165 30.4907 175.637 31.0227 176.319 31.3085C176.403 31.4712 176.447 31.6822 176.575 31.7921C177.191 32.3373 177.174 32.944 176.813 33.6035L176.795 33.6255C176.68 33.7618 176.566 33.8937 176.451 34.03L176.438 34.0476C176.324 34.1839 176.209 34.3158 176.095 34.4521C175.016 35.7315 173.937 37.0153 172.858 38.2947C172.743 38.4486 172.633 38.5981 172.518 38.752L172.505 38.7696C172.404 38.9059 172.298 39.0378 172.197 39.1741C172.104 39.2488 172.056 39.3411 172.043 39.4554C171.387 40.0446 171.563 40.7349 171.823 41.4163C172.303 42.6826 172.805 43.94 173.311 45.1974C173.531 45.7338 173.712 46.3142 174.051 46.7714C175.126 48.2047 176.271 49.5853 177.39 50.9878C177.429 51.3219 177.473 51.6605 177.513 51.9946L177.508 51.9726ZM177.39 31.3612H177.522C177.495 31.4492 177.473 31.5371 177.447 31.625C177.403 31.5811 177.345 31.5415 177.328 31.4843C177.315 31.4536 177.368 31.4008 177.39 31.3612Z" fill="#3B576B"/>
<path d="M358.656 274.174C358.695 274.055 358.735 273.941 358.775 273.822C355.868 273.822 352.961 273.822 350.05 273.822C348.632 273.844 347.209 273.862 345.791 273.901C345.725 273.901 345.663 274.082 345.601 274.178C345.615 274.236 345.61 274.337 345.637 274.35C346.962 274.79 348.319 274.508 349.667 274.543C352.948 274.526 356.233 274.513 359.514 274.495C359.228 274.389 358.942 274.28 358.656 274.174Z" fill="#3B576B"/>
<path d="M273.733 116.238C273.534 116.172 273.182 116.26 273.05 116.41C272.94 116.533 272.971 116.889 273.072 117.074C273.407 117.689 273.799 118.274 274.173 118.872C274.464 119.496 274.754 120.125 275.067 120.802C274.869 121.189 274.521 121.664 274.856 122.178C275.353 122.947 275.287 123.765 275.261 124.614C275.235 125.454 275.301 126.298 275.323 127.137C275.054 129.01 275.503 130.809 275.904 132.624C276.036 131.868 276.085 131.116 276.063 130.365C276.027 129.274 275.944 128.188 275.882 127.098C275.917 126.386 275.882 125.656 276.01 124.961C276.208 123.844 276.252 122.776 275.534 121.897C275.728 121.321 275.891 120.846 276.036 120.419C275.387 119.833 274.863 119.08 274.464 118.16C274.609 117.755 274.754 117.346 274.931 116.845C274.503 116.621 274.138 116.37 273.733 116.243V116.238Z" fill="#3B576B"/>
<path d="M318.101 113.64C319.524 112.95 320.779 112.07 321.457 110.545C320.013 111.23 318.982 112.356 318.101 113.64Z" fill="#3B576B"/>
<path d="M278.833 91.3401C278.842 91.5819 279.11 91.8193 279.476 92.3953C279.586 90.5971 279.749 89.2165 279.427 87.8316C279.234 87.8404 279.04 87.8492 278.846 87.858C278.833 89.0187 278.798 90.1794 278.833 91.3401Z" fill="#3B576B"/>
<path d="M279.168 168.14C279.22 168.123 279.317 168.101 279.317 168.088C279.238 166.747 279.154 165.406 279.071 164.069C278.881 164.069 278.692 164.069 278.503 164.069C278.45 165.749 278.626 166.83 279.163 168.14H279.168Z" fill="#3B576B"/>
<path d="M231.641 136.573C231.734 136.406 231.659 136.067 231.54 135.882C231.311 135.531 230.998 135.232 230.672 134.854C230.58 135.192 230.487 135.495 230.408 135.808C230.316 136.181 230.514 136.432 230.804 136.595C231.073 136.744 231.43 136.946 231.637 136.573H231.641Z" fill="#3B576B"/>
<path d="M285.796 294.451C287.1 294.438 288.408 294.46 289.711 294.403C291.081 294.341 292.442 294.192 293.807 294.095C295.816 293.95 297.824 293.818 300.066 293.664C298.366 293.264 296.921 293.233 295.406 293.365C292.028 293.66 288.632 293.726 285.245 293.858C283.611 293.919 281.977 293.902 280.348 293.959C279.846 293.976 279.348 294.139 278.846 294.24C278.705 294.24 278.569 294.24 278.428 294.236C277.978 294.201 277.49 294.056 277.238 294.627C277.256 295.128 277.582 295.317 278.018 295.401C278.194 295.581 278.34 295.849 278.555 295.924C280.304 296.531 281.995 297.349 283.893 297.406C284.915 297.907 285.963 298.316 287.126 298.342C287.716 298.725 288.306 299.112 289.002 299.565C290.579 298.857 292.134 300.083 293.944 299.995C293.433 299.2 292.724 299.112 292.054 298.967C291.235 298.791 290.416 298.606 289.592 298.457C288.897 298.329 288.192 298.241 287.492 298.131C286.532 297.454 285.382 297.314 284.29 297.015C282.739 296.43 281.039 296.267 279.533 295.445C279.555 295.106 279.568 294.856 279.582 294.605C281.656 294.557 283.735 294.504 285.809 294.456L285.796 294.451Z" fill="#3B576B"/>
<path d="M16.1672 236.939C16.59 237.299 16.7882 237.915 17.1097 238.403C17.2198 238.575 17.4004 238.702 17.7748 239.076C17.6206 237.704 17.0525 236.913 16.3698 236.231C15.947 235.809 15.8413 235.369 15.8281 234.842C15.7268 234.829 15.6211 234.824 15.5198 234.824C15.4053 235.629 15.4581 236.332 16.1672 236.939Z" fill="#3B576B"/>
<path d="M142.805 295.773C142.567 295.782 142.329 295.936 142.096 296.024C142.277 296.169 142.457 296.441 142.638 296.446C144.096 296.463 145.558 296.437 147.016 296.397C147.183 296.393 147.346 296.226 147.513 296.134C147.751 296.063 148.02 296.019 147.945 295.602C146.236 295.654 144.523 295.698 142.805 295.773Z" fill="#3B576B"/>
<path d="M165.014 5.72008C164.851 5.68491 164.692 5.64974 164.529 5.61017C164.075 6.79726 164.269 7.88762 165.027 8.89445C165.119 8.78014 165.216 8.66583 165.309 8.55151C165.212 7.60624 165.11 6.66536 165.014 5.72008Z" fill="#3B576B"/>
<path d="M198.667 274.658C199.613 274.957 200.433 274.992 201.679 274.376C200.234 274.195 199.23 274.288 198.667 274.658Z" fill="#3B576B"/>
<path d="M27.0898 252.631C26.8784 251.795 26.6097 251.026 25.9315 250.384C25.7333 251.646 25.8125 251.813 27.0898 252.631Z" fill="#3B576B"/>
<path d="M322.796 213.993C322.831 213.544 322.915 213.092 322.897 212.648C322.849 211.456 322.391 210.405 321.611 209.513C321.51 209.394 321.272 209.394 321.101 209.341C321.043 209.566 320.916 209.803 320.951 210.01C320.99 210.247 321.189 210.454 321.308 210.682C321.84 211.729 322.166 212.828 322.158 214.015C322.158 215.316 322.158 216.622 322.162 217.924C322.144 220.069 322.127 222.215 322.114 224.36C322.114 224.813 322.065 225.288 322.175 225.719C322.294 226.189 322.347 226.783 323.012 226.893H323.025C322.994 227.302 323.294 227.376 323.593 227.447C323.752 228.278 323.915 229.109 324.095 230.071C325.324 230.933 325.505 232.274 325.492 233.787C325.478 235.475 325.681 237.168 325.822 238.856C325.857 239.287 326.02 239.709 326.126 240.131C326.192 237.533 326.126 234.965 326.073 232.393C326.06 231.852 325.928 231.386 325.593 230.942C324.994 230.155 324.575 229.284 324.505 228.269C324.465 227.68 324.232 227.148 323.734 226.734C323.488 226.77 323.228 226.805 322.972 226.84C322.84 226.018 322.66 225.2 322.585 224.373C322.527 223.74 322.483 223.063 322.642 222.465C322.986 221.186 322.823 219.902 322.809 218.623C322.809 218.407 322.572 218.196 322.444 217.981C322.523 217.22 322.607 216.464 322.677 215.703C322.73 215.14 322.761 214.573 322.801 214.011L322.796 213.993Z" fill="#3B576B"/>
<path d="M113.862 137.799C113.862 137.799 113.875 137.803 113.884 137.808C113.884 137.799 113.88 137.795 113.88 137.786L113.867 137.799H113.862Z" fill="#3B576B"/>
<path d="M66.7237 288.846C67.8292 288.041 68.9214 288.595 69.8111 287.935C69.1549 287.935 68.4942 287.931 67.838 287.927C67.4548 287.957 66.9615 287.786 66.7237 288.846Z" fill="#3B576B"/>
<path d="M222.573 280.105C222.15 280.136 221.736 280.329 221.318 280.452C222.494 280.448 223.665 280.439 224.841 280.435C224.859 280.325 224.867 280.211 224.872 280.096C224.106 280.096 223.335 280.052 222.573 280.105Z" fill="#3B576B"/>
<path d="M315.569 115.522C316.185 115.396 316.596 115.031 316.802 114.427C316.287 114.713 315.763 114.866 315.569 115.522Z" fill="#3B576B"/>
<path d="M332.715 273.879C332.525 273.985 332.336 274.09 332.146 274.196C332.278 274.297 332.397 274.451 332.547 274.495C332.719 274.543 332.917 274.495 333.102 274.495C333.085 274.389 333.062 274.284 333.045 274.178C332.935 274.077 332.825 273.981 332.715 273.879Z" fill="#3B576B"/>
<path d="M116.228 140.956L116.245 140.938C116.236 140.93 116.232 140.925 116.223 140.917C116.223 140.93 116.223 140.943 116.223 140.956L116.228 140.956Z" fill="#3B576B"/>
<path d="M115.439 139.813C115.237 138.898 114.84 138.133 113.884 137.808C114.135 138.766 114.651 139.554 115.444 140.156C115.703 140.411 115.963 140.666 116.223 140.917C116.175 140.402 116.003 139.971 115.439 139.813Z" fill="#3B576B"/>
<path d="M58.0253 198.877C58.0341 198.93 58.0253 199.018 58.0473 199.027C58.153 199.066 58.2675 199.08 58.3776 199.102C58.5186 199.313 58.6155 199.603 58.8137 199.721C58.9017 199.774 58.9898 199.831 59.0779 199.889C58.8401 199.629 58.6067 199.37 58.3909 199.093C58.2675 199.018 58.1486 198.948 58.0253 198.873V198.877Z" fill="#3B576B"/>
<path d="M85.6488 85.9982C85.847 85.985 86.0408 85.9762 86.239 85.963C86.2654 85.7124 86.2962 85.4574 86.3227 85.2068C85.9879 85.3783 85.64 85.5365 85.6488 85.9982Z" fill="#3B576B"/>
<path d="M186.07 254.66C186.1 254.551 186.122 254.486 186.14 254.42C186.096 254.433 186.022 254.442 186.022 254.459C186.022 254.507 186.044 254.56 186.07 254.66Z" fill="#3B576B"/>
<path d="M118.324 152.831C118.364 152.95 118.43 153.06 118.487 153.17C118.998 154.942 119.509 156.714 120.02 158.485C120.262 157.536 120.31 156.608 120.028 155.698C119.65 154.471 119.262 153.245 118.879 152.018C118.905 150.404 119.007 148.786 118.932 147.182C118.87 145.893 118.531 144.627 117.98 143.453C117.549 142.539 117.113 141.607 116.254 140.978C116.307 141.215 116.324 141.479 116.439 141.682C117.892 144.179 118.337 146.887 118.218 149.732C118.187 150.501 118.306 151.275 118.359 152.049C118.368 152.251 118.377 152.453 118.386 152.656C118.364 152.717 118.306 152.787 118.324 152.836V152.831Z" fill="#3B576B"/>
<path d="M32.3924 257.265L32.3793 257.278C32.4316 257.304 32.4795 257.33 32.5318 257.356C32.4839 257.326 32.4359 257.295 32.3924 257.269L32.3924 257.265Z" fill="#3B576B"/>
<path d="M252.817 207.354C252.817 207.354 252.808 207.336 252.804 207.332C252.804 207.341 252.804 207.354 252.808 207.363L252.852 207.402L252.817 207.358V207.354Z" fill="#3B576B"/>
</svg>
