<svg width="666" height="380" viewBox="0 0 666 380" fill="none" xmlns="http://www.w3.org/2000/svg">
<path d="M62.6681 23.9884C66.2611 22.1213 69.892 20.9992 74.0579 20.9521C76.7515 20.9191 79.3078 20.9756 81.8594 21.7677C82.8345 22.5174 83.8145 23.267 84.7896 24.0167L86.5175 25.0775C86.6122 24.8937 86.7069 24.7051 86.8016 24.5212C86.1293 24.2053 85.4571 23.8847 84.7849 23.5688C84.0038 22.7767 83.2227 21.9846 82.4416 21.1972C80.709 19.2029 78.2379 19.283 75.9514 19.0991C74.252 18.9624 72.5146 19.283 70.7962 19.4339C69.7831 19.5235 68.6328 19.4198 67.7902 19.8677C64.6469 21.5414 61.0159 22.3147 58.3792 24.9597C57.759 25.582 56.746 25.8225 55.9554 26.2138C54.7577 24.9078 53.8109 23.6254 54.0618 21.9563C54.2843 20.49 54.7719 19.0614 55.2122 17.3547C54.1518 17.5244 53.4654 17.6328 52.7789 17.7413C52.6322 17.5621 52.4854 17.3782 52.3387 17.1991C52.5801 16.7512 52.8263 16.2985 53.2239 15.5583H48.0498C48.6178 14.5635 49.0344 13.828 49.4557 13.0972L49.0628 12.7671C48.4758 13.0972 47.903 13.4602 47.2971 13.7525C46.8237 13.9836 46.2746 14.3466 45.8201 14.2759C42.8803 13.8138 39.969 13.1632 37.0292 12.7436C34.9842 12.4513 32.977 11.2961 30.8325 12.3051C30.2171 12.7577 29.6017 13.2103 28.9863 13.663C29.7627 13.4791 30.5438 13.2952 31.3201 13.1113C36.3191 14.1297 41.3182 15.1481 46.3834 16.176C46.4828 16.3787 46.7006 16.8219 46.8805 17.1896C48.4474 17.1991 49.7114 15.8506 51.3919 16.7889C50.6155 18.0383 49.1859 18.9153 49.8818 20.8531C50.8759 20.3863 51.818 19.9431 52.76 19.4999C52.921 19.6602 53.0819 19.8205 53.2429 19.9808C53.418 22.3759 53.5932 24.7758 53.7589 27.0672C50.7718 28.4581 48.864 30.9616 46.9799 33.4935C46.1325 35.3606 43.652 36.0395 43.4247 38.3639C44.7739 36.7514 47.1314 35.9923 47.4722 33.5454C49.309 32.2771 51.1505 31.0041 53.0062 29.7216C53.3565 30.7589 54.3269 30.5939 55.2406 29.8914C56.727 28.7551 58.2703 27.6424 59.52 26.2751C60.4479 25.2567 61.4515 24.6108 62.6539 23.9837L62.6681 23.9884Z" fill="#3B576B"/>
<path d="M419.425 207.451C419.425 207.451 419.434 207.466 419.444 207.475C419.444 207.475 419.449 207.475 419.453 207.475L419.425 207.447V207.451Z" fill="#3B576B"/>
<path d="M184.86 49.3966C188.831 51.0373 192.941 52.348 197.002 53.7813C198.304 54.2387 199.658 55.0119 200.946 54.9365C203.256 54.7997 205.528 54.135 207.819 53.6871C210.835 53.522 213.85 53.3712 216.866 53.1684C217.192 53.1448 217.505 52.8195 217.822 52.6357C218.059 52.5461 218.3 52.4565 218.537 52.3669L218.579 52.4282C218.996 52.5225 219.479 52.5225 219.81 52.7394C220.085 52.9185 220.184 53.3617 220.359 53.6871C220.033 53.9181 219.701 54.1491 219.043 54.6159H220.738C221.254 55.9832 221.964 57.143 223.564 57.4353C225.642 57.8125 227.711 58.218 229.789 58.5905C230.083 58.6423 230.414 58.68 230.689 58.5999C232.35 58.119 234.002 57.5956 235.451 57.1524C234.935 57.0157 234.088 56.7894 233.122 56.5301C235.697 54.2764 238.116 52.1595 240.54 50.0425C241.013 49.6936 241.487 49.3447 241.799 49.1184C241.222 48.6658 240.871 48.3923 240.526 48.1236C240.54 48.1047 240.554 48.0811 240.568 48.0623C240.54 48.0717 240.516 48.0811 240.488 48.0953L240.521 48.1283C239.759 48.0057 239.21 48.199 239.12 49.076C238.627 50.5423 237.562 51.4994 236.317 52.3433C234.017 53.9086 231.957 55.6956 228.904 56.068C227.209 56.2755 225.614 56.6998 223.886 56.3226C222.996 56.1293 222.561 55.738 222.3 54.8705C221.955 53.7012 221.429 52.5791 220.918 51.2636C220.009 51.4711 219.28 51.6361 218.556 51.8011L218.513 51.8624C217.969 51.7398 217.424 51.6125 216.88 51.4899C213.703 51.9756 210.527 52.4565 207.351 52.9421C206.726 52.9751 206.087 52.928 205.481 53.0553C202.503 53.7012 199.729 53.1213 197.026 51.8483C196.264 51.4899 195.397 51.3296 194.574 51.108C193.149 50.7214 191.643 50.5281 190.304 49.9482C184.112 47.2749 177.641 45.6813 170.933 45.3371C167.07 45.1391 163.533 44.3329 160.239 42.3479C159.727 42.0367 159.022 42.0415 158.407 41.9047C161.167 44.7383 164.442 46.2046 168.277 46.3744C173.934 46.629 179.51 47.1995 184.841 49.4013L184.86 49.3966Z" fill="#3B576B"/>
<path d="M119.158 38.5289C120.687 39.7831 121.572 41.7727 123.556 42.5978C123.74 42.6732 123.963 42.9467 123.963 43.1259C123.93 45.5729 125.913 46.6808 127.291 48.2084C128.73 49.802 129.738 51.6267 130.017 53.8002C130.084 54.3047 130.283 54.7856 130.462 55.4363C131.92 54.663 133.208 53.9794 134.491 53.3004C135.433 51.7257 136.375 50.1462 137.317 48.5715C138.68 47.3645 140.276 46.3225 140.503 44.281C140.281 44.281 140.053 44.2904 139.831 44.2951C138.856 45.7237 137.88 47.1523 136.9 48.5809C136.091 49.8068 135.277 51.0326 134.467 52.2585C133.554 52.4376 132.645 52.6168 131.741 52.796C130.514 50.9053 129.331 49.0854 128.053 47.1193C129.473 44.7902 131.646 43.8567 134.415 44.0311C136.219 44.1443 138.022 44.2103 139.826 44.2999C140.049 44.2999 140.276 44.2904 140.498 44.2857C142.113 42.8713 143.732 41.4568 145.346 40.0424C148.678 40.1131 151.954 38.5431 155.33 39.9056C153.076 38.0103 150.629 37.4398 147.85 38.1942C146.899 38.4535 145.762 38.1706 145.294 39.3964C145.076 39.4813 144.82 39.5237 144.645 39.6652C141.904 41.8811 138.931 43.0221 135.239 42.942C132.593 42.8807 129.53 42.6167 127.381 45.323C126.708 44.7666 125.672 44.314 125.648 43.8095C125.553 41.867 124.218 41.1834 122.817 40.429C122.486 40.2498 122.135 39.9669 121.96 39.6416C120.379 36.7137 117.757 35.6717 114.618 35.5256L101.481 31.848C105.567 34.1441 109.856 35.8839 114.599 36.3224C116.138 37.039 117.889 37.4917 119.158 38.5383V38.5289Z" fill="#3B576B"/>
<path d="M465.59 159.464C466.097 160.284 466.636 160.855 467.607 161.26C468.71 161.718 469.718 162.59 470.537 163.486C471.204 164.217 471.545 165.24 472.009 166.15C474.092 170.237 476.672 173.92 480.544 176.72C481.723 176.112 482.888 175.509 484.251 174.801C484.928 176.48 485.562 178.055 486.197 179.629C486.438 179.7 486.675 179.766 486.916 179.837C487.063 179.691 487.205 179.544 487.352 179.398C486.987 178.63 486.609 177.866 486.263 177.088C485.979 176.447 485.799 175.754 485.468 175.141C484.62 173.585 484.265 173.514 482.722 174.391C481.988 174.806 481.24 175.202 480.578 175.565C476.573 172.798 474.476 168.832 472.563 164.792C471.531 162.609 470.068 161.072 467.91 160.063C467.327 159.789 466.75 159.304 466.404 158.761C464.975 156.527 463.635 154.231 462.257 151.958C461.363 150.487 460.444 149.025 459.587 147.536C459.365 147.149 459.289 146.673 459.199 146.225C458.991 145.155 458.821 144.08 458.631 143.009C458.465 143.009 458.295 143.014 458.129 143.019C458.129 143.929 458.262 144.857 458.096 145.734C457.874 146.904 458.144 147.738 458.825 148.752C461.187 152.25 463.365 155.871 465.581 159.464H465.59Z" fill="#3B576B"/>
<path d="M630.008 255.081C625.298 255.038 620.588 255.029 615.873 255.033C608.54 255.033 601.207 255.048 593.874 255.071C587.332 255.09 580.79 255.132 574.243 255.165C570.181 255.043 566.119 254.915 562.058 254.793C559.8 254.736 557.537 254.68 555.279 254.623C551.605 254.496 547.936 254.331 544.263 254.27C543.051 254.251 541.839 254.491 540.627 254.614C540.111 254.642 539.595 254.67 539.079 254.694C539.089 254.788 539.098 254.887 539.103 254.981H540.632C543.302 255.024 545.972 255.066 548.642 255.109C547.913 255.255 547.179 255.524 546.445 255.528C540.542 255.571 534.634 255.561 528.731 255.58C528.096 255.58 527.462 255.637 526.823 255.67C526.818 255.825 526.814 255.981 526.809 256.137C527.699 256.245 528.589 256.443 529.484 256.453C533.001 256.49 536.523 256.471 540.04 256.471C547.6 256.471 555.156 256.486 562.716 256.481C570.034 256.476 577.358 256.453 584.676 256.438C585.793 256.335 586.915 256.231 588.033 256.127C588.16 256.127 588.288 256.099 588.411 256.061C588.411 256.056 588.411 256.052 588.411 256.047C588.88 256.193 589.349 256.335 589.817 256.481C590.149 256.481 590.475 256.486 590.807 256.49C599.025 256.471 607.243 256.453 615.461 256.429C624.592 256.613 633.724 256.797 642.856 256.981C643.201 257.122 643.538 257.358 643.893 257.391C648.101 257.754 652.324 258.023 656.527 258.452C659.638 258.767 662.729 259.277 666 259.725C665.716 259.432 665.489 258.984 665.176 258.918C663.96 258.659 662.719 258.503 661.489 258.343C659.089 258.032 656.688 257.749 654.288 257.452C653.749 257.386 653.105 257.428 653.318 256.556C653.881 256.401 654.653 256.424 654.961 256.056C655.694 255.189 656.277 254.171 656.75 253.138C656.849 252.921 656.262 252.072 655.926 252.03C653.545 251.724 651.869 250.149 649.99 248.937C649.053 247.763 647.907 246.938 646.198 246.995C647.273 247.834 648.347 248.668 649.422 249.508C651.178 250.898 652.934 252.289 654.762 253.737C654.359 255.005 653.379 255.472 651.808 255.429C648.267 255.335 644.716 255.462 641.171 255.481C638.032 255.495 634.894 255.477 631.755 255.472C631.168 255.345 630.586 255.109 629.999 255.099L630.008 255.081ZM611.56 255.599C603.853 255.585 596.151 255.576 588.444 255.561C588.274 255.561 588.108 255.566 587.938 255.571C588.108 255.571 588.274 255.566 588.444 255.561C596.151 255.576 603.853 255.585 611.56 255.599C611.967 255.599 612.374 255.599 612.781 255.599C612.37 255.599 611.967 255.599 611.56 255.599ZM652.262 257.169C652.239 257.146 652.215 257.117 652.191 257.089C652.215 257.113 652.239 257.146 652.262 257.169Z" fill="#3B576B"/>
<path d="M130.273 277.66C128.824 277.839 127.381 278.013 125.932 278.193C125.776 278.193 125.653 278.188 125.558 278.169C125.463 278.15 125.392 278.117 125.345 278.079C125.392 278.117 125.463 278.145 125.558 278.169C125.653 278.188 125.776 278.197 125.932 278.193C125.923 276.854 127.224 276.83 127.944 276.231C128.294 275.939 128.763 275.783 129.151 275.529C129.53 275.279 129.875 274.982 130.235 274.704C130.126 274.553 130.017 274.402 129.904 274.251C128.427 275.17 126.95 276.094 125.473 277.014C124.848 277.316 124.228 277.617 123.305 278.065C124.318 278.725 124.914 279.107 125.937 279.772C124.076 280.102 122.713 280.352 121.345 280.583C115.276 281.62 109.709 283.798 105.003 287.853C104.454 288.325 104.095 289.013 103.47 289.833C105.822 291.366 108.421 292.177 109.804 294.506C111.536 296.128 113.785 296.58 115.962 297.193C116.128 298.075 116.294 298.957 116.459 299.838C115.546 300.442 114.637 301.045 113.723 301.653C113.837 301.804 113.946 301.955 114.059 302.106C115.148 301.715 116.251 301.352 116.568 299.942C117.842 298.287 117.804 298.004 116.175 296.953C115.65 296.66 115.129 296.359 114.599 296.076C113.051 295.265 111.498 294.459 109.95 293.652C109.297 291.168 106.471 291.007 105.022 289.301C109.662 285.02 115.077 282.832 121.07 281.766C123.745 281.29 126.377 280.526 128.981 279.744C129.62 279.55 130.079 278.768 130.619 278.259C130.505 278.061 130.391 277.867 130.278 277.669L130.273 277.66Z" fill="#3B576B"/>
<path d="M505.705 228.291C503.296 227.975 500.881 227.706 498.462 227.452C497.795 227.381 497.118 227.442 496.441 227.442C496.441 227.702 496.441 227.956 496.441 228.215C499.613 228.56 502.798 228.828 505.956 229.267C511.324 230.012 516.664 231.007 522.047 231.629C527.121 232.214 532.234 232.454 537.328 232.85C538.042 233.048 538.757 233.246 539.822 233.538C538.828 234.25 538.161 234.727 537.489 235.208C537.555 235.396 537.621 235.585 537.683 235.769C541.011 235.797 544.244 234.019 547.913 234.873C547.004 235.901 546.246 236.749 545.494 237.598L545.849 238.131L549.887 237.381C550 237.518 550.114 237.655 550.232 237.796C549.849 238.154 549.465 238.517 549.044 238.909C549.394 239.46 549.749 239.88 549.953 240.366C550.957 242.737 551.577 243.161 554.138 243.218C557.608 243.293 560.391 241.629 563.123 239.8C562.252 239.875 561.442 240.149 560.614 240.337C558.554 240.809 556.505 241.384 554.417 241.624C553.555 241.723 551.998 241.261 551.818 240.714C551.387 239.39 552.907 239.083 553.797 238.546C554.621 238.051 555.506 237.664 556.713 237.056C555.132 236.377 554.034 235.566 552.893 235.505C551.572 235.434 550.213 236.018 548.751 236.349C549.347 233.878 549.106 233.538 546.994 233.51C546.005 233.496 545.02 233.51 544.031 233.51C544.007 233.373 543.988 233.237 543.965 233.1C544.414 232.94 544.864 232.779 545.46 232.563C542.999 232.251 540.788 231.954 538.573 231.719C538.322 231.69 538.033 232.011 537.763 232.171C534.478 231.841 531.193 231.554 527.917 231.172C522.368 230.53 516.83 229.842 511.291 229.144C509.421 228.909 507.57 228.541 505.7 228.296L505.705 228.291Z" fill="#3B576B"/>
<path d="M501.407 219.144C500.919 219.38 500.621 220.016 500.237 220.469C500.384 220.634 500.536 220.799 500.682 220.964C502.036 220.257 503.343 219.436 504.754 218.871C508.162 217.494 511.618 216.235 515.05 214.929C518.927 214.326 522.837 213.873 526.411 212.072C528.096 212.171 529.782 212.27 531.652 212.383C530.894 210.629 532.177 209.686 533.261 208.701C534.994 207.121 536.75 205.565 538.573 204.094C538.98 203.769 539.723 203.694 540.282 203.764C540.963 203.849 541.607 204.391 542.275 204.41C544.144 204.467 545.262 205.481 546.1 206.989C546.137 207.06 546.36 207.027 546.597 207.06C546.483 206.452 546.379 205.872 546.246 205.151C548.064 204.971 549.754 204.806 551.7 204.613C551.127 206.702 550.639 208.498 550.147 210.29C549.783 211.61 549.413 212.93 549.006 214.401C550.142 214.901 551.028 215.509 551.984 215.646C552.907 215.783 554.142 216.381 554.791 215.009C553.163 215.047 551.591 214.854 550.043 213.75C550.332 212.6 550.625 211.431 550.919 210.257C551.326 209.413 551.747 208.574 552.145 207.725C554.128 203.496 553.854 202.977 549.267 203.326C546.256 203.557 543.373 203.491 540.566 202.242C540.125 202.048 539.24 202.199 538.899 202.529C535.794 205.584 531.808 207.739 529.602 211.577C528.461 211.657 527.448 211.728 526.435 211.794C522.629 212.638 518.823 213.482 515.017 214.326C513.221 214.741 511.768 213.766 510.657 211.402C511.012 211.082 511.367 210.761 511.746 210.417C510.004 209.094 508.691 207.451 507.807 205.49C507.779 205.429 507.689 205.391 507.627 205.344C507.513 205.462 507.395 205.58 507.281 205.698C506.964 206.188 506.652 206.673 506.311 207.206C507.149 207.984 507.996 208.776 508.853 209.578C508.413 209.776 508.011 209.95 507.424 210.214C508.001 210.884 508.886 211.473 508.815 211.893C508.474 213.849 510.008 214.118 511.736 214.99C509.781 215.721 508.276 216.254 506.789 216.848C504.981 217.574 503.168 218.296 501.411 219.135L501.407 219.144Z" fill="#3B576B"/>
<path d="M177.432 131.312C179.26 131.812 180.467 132.245 181.712 132.448C182.606 132.594 183.548 132.387 184.467 132.425C187.667 132.547 190.867 132.707 194.062 132.854H203.63L203.639 132.566C200.444 132.425 197.253 132.288 194.058 132.146C190.635 131.84 187.212 131.533 183.78 131.232V128.959C181.376 128.558 179.387 129.581 177.314 130.176C176.386 130.444 175.401 130.524 174.445 130.689C175.761 129.728 177.077 128.771 178.393 127.809C178.341 127.625 178.284 127.446 178.232 127.262C176.632 127.432 175.027 127.606 173.224 127.795C173.446 127.191 173.593 126.786 173.74 126.385C172.055 126.757 170.365 127.134 168.471 127.554C168.996 128.224 169.228 128.516 169.456 128.804C168.698 129.223 167.941 129.643 167.183 130.058C167.273 130.265 167.363 130.473 167.458 130.675C168.608 130.322 169.754 129.968 170.904 129.614C171.917 129.421 172.935 129.223 173.924 129.035C174.118 129.398 174.265 129.581 174.317 129.789C174.388 130.077 174.384 130.383 174.412 130.685C174.123 130.732 173.797 130.713 173.55 130.845C172.997 131.142 171.993 131.595 172.031 131.845C172.211 132.99 173.162 132.608 173.877 132.406C175.302 132.005 176.708 131.529 177.432 131.302V131.312Z" fill="#3B576B"/>
<path d="M330.607 256.717C331.838 257.056 333.561 256.599 334.607 255.279C333.249 255.217 331.952 255.491 330.65 255.495C328.548 255.505 326.451 255.297 324.349 255.245C321.291 255.17 318.204 255.387 315.184 255.033C312.15 254.68 309.248 254.958 306.327 255.613C304.765 255.745 303.203 255.92 301.631 255.995C295.131 256.306 288.637 256.585 282.137 256.877C281.526 256.877 280.911 256.877 280.3 256.877C280.291 257.051 280.281 257.221 280.272 257.395C280.901 257.395 281.531 257.395 282.16 257.391C288.968 257.197 295.775 257.032 302.578 256.778C304.036 256.721 305.475 256.339 306.928 256.104C309.513 256.104 312.098 256.052 314.678 256.104C317.57 256.165 320.463 256.297 323.35 256.443C325.76 256.566 328.141 256.033 330.603 256.712L330.607 256.717Z" fill="#3B576B"/>
<path d="M443.09 263.482C444.728 263.364 446.356 263.148 447.989 262.978C452.113 262.549 456.231 262.096 460.354 261.7C462.769 261.469 465.197 261.342 467.616 261.134C467.801 261.12 467.966 260.861 468.137 260.715H471.332C470.21 259.437 468.908 259.875 467.716 259.824C466.797 259.965 465.884 260.139 464.96 260.234C462.215 260.526 459.464 260.785 456.719 261.059C451.303 261.596 445.944 262.907 440.439 262.19C439.819 262.11 439.17 262.134 438.55 262.223C436.775 262.483 435.004 262.78 433.243 263.115C432.793 263.199 432.382 263.482 431.956 263.676C431.998 263.845 432.041 264.01 432.079 264.18C435.747 263.949 439.421 263.742 443.09 263.478V263.482Z" fill="#3B576B"/>
<path d="M304.221 272.021C309.773 271.733 315.326 271.422 320.879 271.134C327.223 270.809 333.566 270.479 339.909 270.196C344.535 269.989 349.164 269.861 353.789 269.668C354.163 269.654 354.528 269.418 354.892 269.291C354.864 269.131 354.84 268.966 354.812 268.805C353.837 268.853 352.857 268.881 351.882 268.956C351.186 269.008 350.494 269.168 349.799 269.206C346.982 269.376 344.17 269.531 341.353 269.663C334.461 269.989 327.563 270.305 320.671 270.621C316.907 270.795 313.144 270.922 309.39 271.153C307.222 271.285 305.063 271.592 302.9 271.818C302.9 271.856 302.895 271.894 302.89 271.931C303.335 271.964 303.785 272.044 304.225 272.021H304.221Z" fill="#3B576B"/>
<path d="M288.234 374.757C284.035 374.332 279.841 373.851 275.651 373.375C272.39 373.003 269.128 372.602 265.871 372.211C261.677 371.711 257.483 371.206 253.288 370.702C246.931 369.853 240.564 369.061 234.215 368.142C229.822 367.505 225.453 366.685 221.069 365.964C216.828 365.266 212.586 364.592 208.345 363.908C208.345 364.082 208.335 364.252 208.335 364.427C210.48 364.841 212.619 365.308 214.773 365.667C220.17 366.567 225.576 367.43 230.982 368.288C234.604 368.868 238.22 369.514 241.856 369.957C245.657 370.424 249.487 370.683 253.303 371.032C253.714 371.206 254.107 371.48 254.533 371.537C257.326 371.904 260.124 372.225 262.922 372.55C269.459 373.314 275.997 374.092 282.539 374.827C285.574 375.172 288.613 375.45 291.652 375.723C293.901 375.921 296.149 376.063 298.403 376.228C298.417 376.067 298.431 375.907 298.445 375.747C297.229 375.577 296.017 375.36 294.791 375.252C292.608 375.054 290.416 374.974 288.239 374.752L288.234 374.757Z" fill="#3B576B"/>
<path d="M326.692 265.331C331.204 264.925 335.701 264.397 340.217 264.072C342.641 263.897 345.084 264.039 347.517 264.039L347.507 263.544C343.876 263.544 340.246 263.492 336.619 263.553C329.074 263.685 321.523 263.878 313.977 264.043C313.74 264.048 313.504 264.053 313.267 264.076C309.844 264.373 306.417 264.675 302.994 264.972L301.091 264.996C300.58 265.029 300.069 265.067 299.558 265.1C299.567 265.217 299.577 265.335 299.586 265.453H301.101C301.73 265.453 302.36 265.453 302.99 265.453C306.516 265.283 310.038 265.133 313.565 264.934C314.966 264.854 316.363 264.6 317.764 264.562C320.131 264.501 322.498 264.543 324.87 264.543L324.879 264.779C324.477 264.911 324.079 265.043 323.18 265.34C324.709 265.34 325.708 265.415 326.692 265.326V265.331Z" fill="#3B576B"/>
<path d="M382.775 45.521C384.522 47.7794 385.402 50.4008 386.335 53.0506C387.168 55.4221 388.508 57.6145 389.625 59.887C390.108 61.8625 390.591 63.8381 391.074 65.8136C391.225 65.7806 391.381 65.7476 391.533 65.7146V62.7961C391.911 63.4892 392.167 63.9654 392.427 64.4416C392.622 64.3661 392.82 64.2954 393.014 64.22L391.651 59.9861C392.366 60.2265 393.085 60.4717 393.8 60.7121C394.558 61.3298 395.23 62.1171 396.091 62.5273C398.7 63.7768 401.512 63.8145 404.333 63.5505C407.036 63.6966 409.252 64.4321 409.654 67.6146C409.716 68.1144 410.227 68.5434 410.431 69.0479C410.871 70.1276 411.268 71.2215 411.652 72.3247C412.263 74.0928 412.793 75.8891 413.455 77.6336C413.9 78.8029 414.639 79.8637 415.022 81.0424C415.624 82.9142 416.798 84.3145 418.194 85.6111C419.453 86.7851 421.655 86.9501 422.005 89.1048C424.571 91.1982 424.523 91.2123 425.096 93.4943C425.655 95.7102 426.554 97.7612 428.14 99.4962C430.569 102.151 432.912 104.885 435.298 107.577C435.97 108.341 436.562 109.228 437.371 109.803C438.379 110.519 439.08 111.307 439.478 112.5C440.013 114.112 441.173 115.06 442.995 115.116C444.77 115.173 446.541 115.343 448.311 115.461C448.24 116.649 447.909 117.714 448.179 118.596C448.884 120.906 449.854 123.141 450.716 125.404L451.611 125.418C451.26 123.891 451.118 122.278 450.517 120.859C449.627 118.77 449.196 116.743 450.186 114.433C449.466 114.31 448.955 114.178 448.439 114.14C446.792 114.023 445.14 113.9 443.487 113.858C441.873 113.815 440.87 113.084 440.297 111.576C440.032 110.883 439.558 110.237 439.061 109.666C437.934 108.374 436.699 107.167 435.568 105.875C433.863 103.923 432.401 101.712 430.483 100.005C427.638 97.4736 426.469 94.3476 426.029 90.7455C425.953 90.142 425.513 89.4348 425.025 89.0482C423.198 87.6055 421.262 86.2995 419.401 84.8992C418.909 84.5267 418.388 84.0788 418.123 83.546C416.533 80.3352 414.767 77.1763 413.555 73.8193C412.707 71.4855 412.291 69.0479 411.017 66.799C409.455 64.0455 407.609 62.7159 404.366 62.9234C403.524 62.8621 402.672 62.7018 401.834 62.7584C400.006 62.8857 398.269 62.5792 396.669 61.7353C395.684 61.2166 394.804 60.5094 393.876 59.8918C393.265 59.5853 392.669 59.0384 392.044 59.0101C390.212 58.9299 389.625 57.9068 389.54 56.3038C389.516 55.8464 389.507 55.3184 389.279 54.9459C387.348 51.7681 386.425 48.0481 383.921 45.1721C383.409 44.5827 383.267 43.6775 382.955 42.9184C382.661 43.2154 382.368 43.5125 382.074 43.8095C382.302 44.3753 382.42 45.0306 382.78 45.4974L382.775 45.521Z" fill="#3B576B"/>
<path d="M162.109 123.528C154.856 123.537 147.604 123.542 140.352 123.556C135.073 123.565 129.79 123.589 124.512 123.603C122.505 123.462 120.498 123.32 118.49 123.179C112.431 122.538 106.372 121.901 100.307 121.26C102.689 122.024 105.108 122.523 107.555 122.825C111.176 123.273 114.817 123.575 118.452 123.943C120.483 123.952 122.514 123.961 124.54 123.971C125.198 124.126 125.861 124.423 126.519 124.419C138.955 124.301 151.396 124.15 163.832 123.999C164.031 123.999 164.229 123.872 164.423 123.801C163.642 123.523 162.875 123.523 162.104 123.523L162.109 123.528Z" fill="#3B576B"/>
<path d="M437.172 254.227C441.546 253.421 445.897 253.261 450.228 254.524C450.726 254.67 451.374 254.628 451.852 254.43C453.883 253.595 455.971 253.789 458.077 253.888C459.701 253.963 461.329 253.902 462.958 253.902C461.566 253.152 460.146 252.572 458.697 252.473C456.326 252.313 453.888 251.785 451.592 253.133C451.104 253.421 450.243 253.228 449.604 253.072C445.168 251.997 440.78 251.53 436.51 253.723C434.076 253.666 431.648 253.529 429.219 253.581C427.847 253.609 426.365 253.595 425.588 255.198C425.394 255.604 424.817 255.962 424.348 256.085C421.252 256.91 418.133 257.641 415.032 258.452C414.156 258.683 413.328 259.079 412.476 259.399C412.518 259.55 412.561 259.696 412.603 259.847C416.93 258.98 421.262 258.126 425.584 257.226C425.91 257.16 426.318 256.787 426.422 256.476C427.08 254.501 428.542 254.614 430.228 254.732C432.547 254.892 434.933 255.345 437.172 254.232V254.227Z" fill="#3B576B"/>
<path d="M204.728 114.249C204.728 114.357 205.424 114.48 205.807 114.522C206.555 114.607 207.303 114.64 208.179 114.706C207.814 115.036 207.597 115.234 207.379 115.432C206.47 115.508 205.561 115.578 204.657 115.654C204.671 115.88 204.681 116.111 204.695 116.338C205.429 116.408 206.162 116.474 206.896 116.545C208.326 117.139 209.751 117.738 211.18 118.332C211.46 117.941 211.744 117.549 212.113 117.04C211.256 116.71 210.579 116.446 209.4 115.993C210.901 115.654 211.895 115.428 212.837 115.215C212.88 113.579 210.02 114.918 210.844 112.754C207.8 112.764 204.979 111.175 201.428 112.118C202.91 112.877 204.666 112.368 204.737 114.244L204.728 114.249Z" fill="#3B576B"/>
<path d="M277.124 145.145C279.723 146.479 281.966 147.672 284.272 148.752C284.57 148.893 285.162 148.412 285.711 148.177C286.705 150.577 288.679 151.685 291.25 152.844C290.937 151.831 290.781 151.331 290.625 150.826C290.97 150.605 291.316 150.383 291.661 150.166C292.258 150.435 292.85 150.699 293.446 150.968L293.465 150.944C294.095 151.906 294.847 152.392 295.908 151.543C295.444 151.331 294.961 151.105 294.478 150.883C294.507 150.421 294.53 149.964 294.568 149.318C295.605 149.865 296.353 150.261 297.105 150.652C298.303 152.448 300.088 153.438 302.033 154.212C302.033 154.212 302.033 154.207 302.033 154.202C302.578 154.801 303.127 155.395 303.671 155.994C303.776 155.909 303.884 155.824 303.989 155.735C303.799 155.39 303.61 155.051 303.416 154.707C303.87 154.664 304.344 154.532 304.784 154.594C305.939 154.754 307.085 155.004 308.235 155.216C307.274 154.537 306.266 154.122 305.219 153.919C304.202 153.721 303.141 153.74 302.1 153.665C300.528 152.552 298.956 151.435 297.385 150.322C296.353 149.176 295.198 148.295 293.498 148.356C293.333 148.955 293.195 149.45 293.063 149.945L293.03 149.926C293.03 149.926 293.039 149.935 293.044 149.945C292.736 149.94 292.428 149.935 292.121 149.931C291.396 149.035 290.672 148.144 289.943 147.248C289.792 147.361 289.64 147.474 289.489 147.592C289.702 148.054 289.948 148.511 290.095 148.992C290.118 149.073 289.711 149.285 289.498 149.436C288.4 148.361 287.302 147.286 286.137 146.149C285.152 147.413 284.277 146.951 283.368 146.253C281.668 144.947 279.827 144.202 277.114 145.145H277.124Z" fill="#3B576B"/>
<path d="M199.611 198.361C202.423 197.555 205.107 198.041 207.767 198.866C208.051 198.955 208.387 198.866 208.7 198.856C208.274 197.8 209.017 197.946 209.632 197.951C210.338 197.951 211.048 197.932 211.753 197.932C215.341 197.942 218.93 197.951 222.518 197.96L223.469 198.031C224.042 198.182 224.615 198.46 225.188 198.465C229.505 198.498 233.823 198.479 238.14 198.479C240.218 198.701 242.292 198.922 244.37 199.144C244.389 198.965 244.408 198.786 244.427 198.606C242.448 197.508 240.232 198.258 238.14 198.045C233.245 197.89 228.35 197.734 223.455 197.583L222.537 197.616C220.009 197.442 217.481 197.272 214.953 197.098C214.958 197.088 214.963 197.084 214.967 197.079C214.944 197.079 214.925 197.079 214.901 197.079C214.475 196.89 214.044 196.702 213.618 196.513C212.387 196.079 211.171 195.608 209.921 195.231C209.665 195.155 209.211 195.325 209.003 195.537C208.013 196.537 206.901 197.084 205.443 197.154C203.483 197.249 201.537 197.56 199.582 197.781L199.611 198.361Z" fill="#3B576B"/>
<path d="M187.975 63.4986C188.808 64.4887 189.679 65.4505 190.493 66.4548C190.782 66.8131 190.952 67.261 191.336 67.9447C192.069 66.9357 192.533 66.4972 192.751 65.9597C193.717 63.607 195.52 62.6782 197.968 62.7254C198.517 62.7348 199.095 62.7772 199.601 62.6169C199.852 62.5368 200.075 62.0511 200.108 61.7258C200.127 61.5325 199.682 61.0846 199.573 61.1223C197.334 61.8673 194.612 61.2638 192.893 63.4656C192.477 63.9984 192.041 64.517 191.482 65.2054C190.697 62.8762 188.671 62.3246 187.018 61.3062L186.218 61.3486C186.801 62.0653 187.378 62.7914 187.97 63.4986H187.975Z" fill="#3B576B"/>
<path d="M242.85 196.546C244.72 196.735 246.453 196.989 248.19 197.065C250.604 197.173 253.056 196.89 255.357 197.904C254.567 198.107 253.781 198.451 252.985 198.479C250.855 198.559 248.715 198.507 246.58 198.507C249.482 198.955 252.375 198.979 255.267 198.918C255.57 198.913 255.859 198.371 256.157 198.078C262.032 199.719 267.982 200.723 274.122 200.176C273.318 199.903 272.494 199.667 271.661 199.597C268.626 199.347 265.582 199.21 262.557 198.903C261.166 198.762 259.802 198.352 258.439 198.012C257.378 197.744 256.361 197.234 255.291 197.102C251.276 196.607 247.248 196.225 243.224 195.82C243.177 195.815 243.101 196.051 242.855 196.546H242.85Z" fill="#3B576B"/>
<path d="M492.909 186.258C492.98 190.624 495.305 193.576 498.931 195.702C499.03 195.877 499.125 196.046 499.224 196.221L498.978 195.664C498.699 195.207 498.481 194.693 498.136 194.297C495.603 191.393 493.766 188.239 493.724 184.207C493.714 183.382 492.928 182.293 492.185 181.808C490.694 180.832 488.98 180.181 487.361 179.398C487.214 179.544 487.072 179.691 486.926 179.837C487.783 180.327 488.597 180.912 489.501 181.289C492.531 182.552 492.862 183.015 492.919 186.258H492.909Z" fill="#3B576B"/>
<path d="M601.553 262.657C595.754 262.407 589.945 262.332 584.141 262.176C577.84 262.176 571.54 262.172 565.244 262.167C560.069 262.337 554.9 262.497 549.726 262.686C549.517 262.695 549.319 262.893 549.115 263.001C547.25 263.049 545.39 263.091 543.524 263.138C540.504 263.275 537.489 263.426 534.468 263.548C533.143 263.6 531.514 263.115 530.558 263.713C528.773 264.826 527.188 264.303 525.483 264.039C525.483 264.039 525.483 264.034 525.483 264.029C525.474 264.029 525.464 264.029 525.46 264.029C524.783 263.789 524.106 263.548 523.685 263.402C524.328 263.049 525.143 262.601 525.952 262.153C525.952 262.011 525.957 261.865 525.962 261.724C524.376 261.875 522.79 262.025 521.199 262.176C519.637 262.19 518.075 262.205 516.508 262.219C515.755 262.252 515.007 262.285 514.255 262.322C514.297 262.587 514.34 262.855 514.382 263.119C515.083 262.935 515.784 262.752 516.484 262.568C518.056 262.582 519.632 262.591 521.204 262.605C523 266.5 531.682 263.928 544.514 264.439C545.247 264.468 546.18 264.807 546.298 263.562C547.245 263.558 548.187 263.553 549.134 263.544C553.267 263.374 557.404 263.223 561.537 263.02C562.772 262.959 564.003 262.742 565.239 262.591C571.54 262.587 577.836 262.582 584.132 262.577C585.211 262.747 586.286 263.016 587.365 263.063C592.222 263.261 597.089 263.331 601.945 263.572C606.234 263.784 610.514 264.18 614.803 264.463C615.806 264.529 616.819 264.472 617.823 264.472C616.834 263.94 615.858 263.661 614.869 263.581C610.429 263.232 605.993 262.846 601.543 262.657H601.553Z" fill="#3B576B"/>
<path d="M472.615 253.058C473.822 253.308 475.176 253.553 476.109 254.265C477.628 255.429 479.2 255.618 480.956 255.42C481.889 255.453 482.826 255.557 483.754 255.5C488.497 255.203 493.241 254.868 497.984 254.543C504.938 254.552 511.892 254.567 518.846 254.576C521.848 254.571 524.849 254.562 527.85 254.557C528.792 254.571 529.734 254.585 530.677 254.604C531.15 254.6 531.628 254.595 532.101 254.59C532.22 254.505 532.338 254.416 532.452 254.331L532.106 254.227C531.628 254.213 531.15 254.204 530.672 254.189C529.73 254.194 528.788 254.199 527.846 254.204C524.849 254.171 521.853 254.142 518.856 254.109C511.911 252.921 504.934 253.506 497.965 253.784C492.299 254.076 486.628 254.369 480.961 254.661C479.285 254.378 477.747 253.944 476.308 252.846C475.266 252.049 473.728 251.818 472.369 251.559C471.772 251.445 470.717 251.686 470.475 252.105C469.708 253.444 468.179 253.562 467.195 254.482H464.795C464.785 254.534 464.776 254.585 464.766 254.637C465.595 254.774 466.423 254.915 467.252 255.052C468.705 255.114 469.993 254.878 470.977 253.595C471.271 253.209 472.113 252.959 472.615 253.067V253.058Z" fill="#3B576B"/>
<path d="M650.269 260.163C646.345 260.691 642.345 259.093 638.378 260.328C639.017 260.611 639.665 260.677 640.314 260.71C643.594 260.875 646.875 261.021 650.156 261.196C651.552 261.271 653.285 261.964 654.265 261.38C655.827 260.441 657.29 260.908 658.776 260.752C659.822 260.639 660.887 260.729 661.943 260.729C661.943 260.465 661.943 260.201 661.943 259.937C658.057 259.871 654.208 259.63 650.269 260.163Z" fill="#3B576B"/>
<path d="M236.8 258.164C237.955 258.47 239.191 259.201 240.403 258.409C238.471 257.707 236.63 257.037 234.556 256.288C233.984 256.768 233.217 257.867 232.204 258.173C229.671 258.942 227.034 259.357 224.435 259.913C221.6 259.979 218.721 259.149 215.947 260.361C214.328 260.187 212.837 260.592 211.426 261.516C212.946 261.346 214.466 261.181 215.98 261.012C217.415 260.828 218.844 260.554 220.284 260.488C221.661 260.427 223.043 260.583 224.426 260.649C225.183 260.677 225.96 260.837 226.689 260.715C229.126 260.3 231.55 259.786 234.192 259.267C234.225 257.443 235.423 257.806 236.791 258.169L236.8 258.164Z" fill="#3B576B"/>
<path d="M429.456 279.918C416.495 280.116 403.528 280.319 390.567 280.517C390.132 279.871 389.829 280.093 389.582 280.668C389.573 280.918 389.563 281.168 389.549 281.417C389.9 281.422 390.255 281.427 390.605 281.432C391.372 281.3 392.139 281.069 392.91 281.054C401.403 280.866 409.9 280.687 418.398 280.55C422.085 280.493 425.773 280.541 429.466 280.541C429.466 280.333 429.461 280.126 429.456 279.918Z" fill="#3B576B"/>
<path d="M83.0428 199.446C91.2372 197.475 99.3701 195.245 107.688 193.816C99.2754 194.835 90.9911 196.423 83.0428 199.446Z" fill="#3B576B"/>
<path d="M306.834 262.106C308.192 262.139 309.48 262.12 310.564 261.177C312.226 261.332 313.887 261.554 315.553 261.62C316.254 261.648 316.964 261.356 317.67 261.21C318.924 261.346 320.183 261.483 321.438 261.615C322.394 261.464 323.35 261.313 324.306 261.158C327.582 261.021 330.858 260.814 334.134 260.767C339.711 260.691 345.282 260.715 350.859 260.696C351.479 260.696 352.104 260.696 352.724 260.696C352.715 260.635 352.705 260.573 352.696 260.507C350.939 260.272 349.188 260.036 347.432 259.795C347.304 259.465 347.171 259.14 347.043 258.81C346.239 258.838 345.415 258.772 344.634 258.933C344.284 259.003 344.033 259.536 343.734 259.861C337.258 260.007 330.782 260.154 324.306 260.3C323.345 260.319 322.385 260.338 321.424 260.356C320.174 260.484 318.919 260.611 317.67 260.738C315.303 260.743 312.936 260.748 310.569 260.752C308.462 260.899 306.36 261.097 304.254 261.177C299.311 261.37 294.365 261.474 289.427 261.686C287.42 261.771 285.427 262.04 283.424 262.228C288.532 262.459 293.612 262.228 298.691 262.082C301.404 262.002 304.116 262.021 306.829 262.087L306.834 262.106ZM346.319 260.135C346.409 260.059 346.499 259.946 346.584 259.786C346.494 259.946 346.404 260.064 346.319 260.135Z" fill="#3B576B"/>
<path d="M441.584 286.906H471.583C461.533 285.948 451.554 285.882 441.584 286.906Z" fill="#3B576B"/>
<path d="M370.495 275.632C370.959 276.024 371.452 276.292 371.934 276.278C377.416 276.142 382.893 275.967 388.37 275.774C388.636 275.764 388.886 275.486 389.142 275.331H396.778C396.778 275.184 396.778 275.038 396.778 274.892H389.152C382.912 274.458 376.744 275.609 370.495 275.632Z" fill="#3B576B"/>
<path d="M367.816 43.3616C367.697 43.6303 367.579 43.9038 367.461 44.1726L367.948 43.47C370.003 42.4092 371.395 41.0231 371.182 38.4158C370.992 36.0819 371.139 33.7245 371.139 31.3765C371.139 29.0427 371.139 26.7136 371.139 24.177C370.022 27.501 370.206 30.7542 370.197 33.9885C370.188 37.3125 370.718 40.7685 367.816 43.3616Z" fill="#3B576B"/>
<path d="M563.648 212.732C565.542 213.1 567.298 212.765 569.102 212.463C569.49 213.439 570.119 213.821 571.118 213.27C574.673 211.318 578.229 209.366 581.784 207.409C582.749 206.923 583.744 206.475 584.681 205.943C586.612 204.849 587.133 202.939 585.921 201.068C584.818 199.361 583.204 198.187 581.386 197.296C581.964 198.092 582.683 198.757 583.27 199.521C584.018 200.492 584.738 201.497 585.325 202.567C585.954 203.717 585.637 204.608 584.345 205.174C583.426 205.575 582.593 206.169 581.722 206.678C579.426 207.73 577.13 208.781 574.655 209.913C574.508 207.994 575.705 207.14 576.742 206.504C578.451 205.462 578.953 204.028 579 202.204C579.038 200.808 579.062 199.375 579.388 198.036C579.597 197.187 580.359 196.475 580.87 195.712C580.463 195.579 579.772 195.348 578.924 195.07C579.436 194.731 579.753 194.523 580.065 194.316C582.65 194.052 585.24 193.835 587.815 193.51C589.954 193.236 591.839 193.359 593.254 195.334C593.926 196.277 594.972 196.947 595.772 197.814C596.606 198.724 597.401 198.927 598.684 198.588C600.956 197.984 603.342 197.546 605.486 199.158C607.621 200.761 609.752 202.355 611.891 203.953C612.753 204.594 612.914 205.419 612.725 206.452C611.996 210.459 611.3 214.476 610.632 218.498C610.301 220.502 609.984 222.511 609.804 224.528C609.756 225.047 610.14 225.707 610.514 226.141C612.133 228.032 614.145 229.338 616.545 230.087C618.424 230.677 620.086 231.478 619.811 233.986C619.769 234.373 620.573 235.104 621.104 235.25C624.351 236.151 627.636 236.924 630.908 237.744C631.935 238.602 633.057 239.163 635.021 238.88C633.53 238.168 632.508 237.683 631.48 237.192C628.11 235.962 624.744 234.731 621.156 233.425C621.724 230.804 619.797 229.691 617.515 228.847C617.222 228.739 616.924 228.63 616.621 228.541C614.202 227.857 612.322 226.386 610.495 224.396C611.162 221.365 611.858 218.248 612.535 215.127C612.9 213.444 613.26 211.765 613.567 210.073C614.793 203.368 614.855 204.703 610.107 200.61C606.765 197.729 603.115 195.834 598.471 197.074C597.926 197.22 597.136 196.881 596.61 196.537C595.896 196.07 595.148 195.485 594.736 194.769C593.202 192.095 590.74 192.138 588.189 192.34C586.073 192.51 583.952 192.656 581.845 192.92C580.856 193.048 579.9 193.434 578.924 193.703C577.949 195.952 577.391 198.314 577.684 200.747C578.011 203.449 576.908 205.4 574.943 207.074C574.427 207.513 573.722 208.102 573.684 208.663C573.509 211.242 571.54 211.563 569.689 212.1C569.229 211.921 568.784 211.652 568.306 211.591C567.696 211.516 567.028 211.747 566.441 211.61C562.725 210.742 559.255 211.002 556.206 213.562C555.761 214.024 555.316 214.491 554.876 214.953C555.515 214.679 556.154 214.406 556.793 214.132C558.881 212.727 561.234 212.27 563.634 212.737L563.648 212.732Z" fill="#3B576B"/>
<path d="M422.029 272.12C418.611 272.318 415.202 272.756 411.784 272.969C407.803 273.214 403.812 273.317 399.822 273.492C399.689 273.497 399.561 273.629 399.211 273.827C400.03 273.869 400.646 273.954 401.251 273.93C404.295 273.794 407.339 273.6 410.383 273.473C414.762 273.289 419.146 273.19 423.524 272.959C425.371 272.865 427.203 272.535 429.044 272.308C426.706 272.096 424.362 271.988 422.033 272.125L422.029 272.12Z" fill="#3B576B"/>
<path d="M525.015 259.729C525.01 259.611 525.01 259.498 525.015 259.38C523.784 259.206 522.558 258.885 521.327 258.881C510.401 258.843 499.48 258.857 488.554 258.857C485.345 259.008 482.14 259.182 478.93 259.305C477.434 259.362 475.938 259.329 474.438 259.314C473.481 259.31 472.643 259.456 472.317 260.432C477.77 260.055 483.162 259.677 488.549 259.305C500.701 259.446 512.858 259.583 525.01 259.725L525.015 259.729Z" fill="#3B576B"/>
<path d="M363.934 59.2128C363.588 59.953 363.309 60.7357 363.295 61.5231C363.238 64.7197 362.448 67.6759 360.938 70.519C360.313 71.6977 360.256 73.1734 359.943 74.5171C359.943 74.5171 359.986 74.5124 360.033 74.5077C360.076 74.503 360.123 74.4983 360.123 74.4983C362.68 69.7363 364.734 64.8423 363.939 59.2175L363.934 59.2128Z" fill="#3B576B"/>
<path d="M70.3749 116.427C73.1348 117.167 75.6627 117.243 78.0959 117.743C80.4581 118.398 82.8393 118.511 85.2488 118.063C82.8724 117.705 80.5007 117.347 78.1243 116.988C77.1586 116.668 76.1929 116.347 74.7964 115.88C76.7278 115.154 78.1432 114.626 79.5587 114.098C80.212 113.711 80.8652 113.325 81.599 112.891C80.6901 111.613 79.7196 111.316 78.6024 111.33C77.8829 111.147 77.168 110.901 76.439 110.784C74.3419 110.439 72.2353 110.142 70.0861 109.822V108.016C68.9642 109.506 69.0352 109.921 70.5453 110.496C71.0471 110.689 71.5962 110.788 72.1359 110.859C74.2946 111.151 76.4532 111.415 78.6119 111.693C79.2131 112.019 79.8096 112.344 80.5575 112.745C80.1315 113.117 79.8474 113.363 79.5634 113.608C77.6462 113.707 72.1075 115.31 70.3701 116.427H70.3749Z" fill="#3B576B"/>
<path d="M363.082 379.094C357.718 378.948 352.36 378.802 346.996 378.656C340.25 378.345 333.504 378.048 326.759 377.722C323.308 377.557 319.852 377.406 316.406 377.157C313.286 376.926 310.181 376.534 307.061 376.275C304.547 376.067 302.024 375.95 299.51 375.794C299.501 375.978 299.491 376.162 299.482 376.346C315.293 377.831 331.104 379.222 347.02 379.127C347.758 379.264 348.497 379.514 349.235 379.519C353.86 379.556 358.485 379.538 363.11 379.542C363.361 379.698 363.617 379.985 363.868 379.99C369.359 380.009 374.846 380 380.337 379.971C380.545 379.971 380.754 379.693 380.962 379.547C380.929 379.401 380.896 379.255 380.862 379.109H363.087L363.082 379.094Z" fill="#3B576B"/>
<path d="M205.945 363.111C199.956 361.829 193.958 360.579 187.965 359.316C184.969 358.67 181.972 358.024 178.975 357.383C177.167 356.779 175.354 356.171 173.546 355.567C173.47 355.836 173.394 356.105 173.318 356.374C175.212 356.831 177.101 357.288 178.994 357.746C181.986 358.406 184.978 359.071 187.97 359.731C188.301 359.9 188.614 360.15 188.969 360.23C191.615 360.839 194.266 361.428 196.922 361.998C200.723 362.819 204.524 363.616 208.326 364.427C208.326 364.252 208.335 364.082 208.335 363.908C207.54 363.639 206.759 363.286 205.94 363.111H205.945Z" fill="#3B576B"/>
<path d="M237.103 85.3376C237.288 84.2909 237.165 83.1924 237.165 81.9524C239.058 81.1132 241.203 80.1608 243.347 79.2131C240.606 79.3357 235.816 81.2404 234.76 82.2871C236.051 83.3841 236.396 84.7137 235.797 86.2759C236.261 85.9694 237.037 85.7195 237.103 85.3423V85.3376Z" fill="#3B576B"/>
<path d="M360.123 74.4935L359.943 74.5124C359.186 76.3842 357.936 77.8977 356.72 79.4913C355.583 80.9859 354.414 81.3819 352.757 81.2075C352.241 81.1509 351.716 81.198 351.195 81.198C351.176 81.3678 351.157 81.5375 351.134 81.7119C352.947 81.976 354.764 82.2447 356.227 82.4569C357.023 81.0236 357.387 79.8213 358.182 79.0622C359.531 77.7609 360.109 76.2805 360.118 74.4888L360.123 74.4935Z" fill="#3B576B"/>
<path d="M192.453 81.0189C191.639 82.1174 191.241 83.5366 190.753 84.8473C190.593 85.2811 190.73 85.8233 190.73 86.4692C192.249 83.81 193.641 81.3678 195.132 78.7652C194.313 78.058 193.561 77.412 192.808 76.7661C192.666 76.5869 192.524 76.4125 192.382 76.2333L192.098 75.4978C191.696 74.7482 191.288 73.9985 190.886 73.2488C191.17 74.1541 191.454 75.0593 191.738 75.9646C191.88 76.1343 192.022 76.2993 192.159 76.4691C192.316 76.6246 192.477 76.7802 192.633 76.9358C193.807 78.355 193.523 79.5855 192.458 81.0189H192.453Z" fill="#3B576B"/>
<path d="M326.726 71.5232C326.886 71.41 327.052 71.3016 327.213 71.1885C326.195 69.411 325.443 67.3883 324.084 65.9267C322.725 64.4651 320.794 63.5033 318.635 63.0837C321.944 65.3185 325.14 67.6288 326.726 71.5232Z" fill="#3B576B"/>
<path d="M200.974 105.96C200.742 105.097 200.373 104.452 200.439 103.853C200.723 101.227 200.297 100.255 198.02 98.9493C197.414 98.6004 196.794 98.2751 196.235 97.9733C196.287 97.2944 196.33 96.7192 196.387 95.9837C195.719 96.7711 195.18 97.4028 194.493 98.2138C195.658 98.8409 196.647 99.4066 197.665 99.9206C199.767 100.981 200.146 101.571 199.535 103.74C199.147 105.116 199.866 105.46 200.969 105.96H200.974Z" fill="#3B576B"/>
<path d="M270.345 260.743C270.345 260.743 270.345 260.734 270.345 260.724C270.34 260.724 270.335 260.724 270.33 260.724L270.345 260.743Z" fill="#3B576B"/>
<path d="M287.851 259.767C290.057 259.767 292.267 259.767 294.473 259.767C294.473 259.626 294.473 259.479 294.473 259.338C292.267 259.338 290.057 259.338 287.851 259.343C285.375 259.239 282.904 260.338 280.414 259.38C280.163 259.281 279.808 259.479 279.495 259.508C276.882 259.748 274.288 260.356 271.642 259.871C270.96 259.743 270.368 259.838 270.345 260.724C275.585 260.569 280.826 260.422 286.061 260.234C286.662 260.21 287.254 259.927 287.851 259.762V259.767Z" fill="#3B576B"/>
<path d="M464.705 216.278C469.888 217.532 474.703 218.696 479.347 219.818C477.553 218.13 468.108 215.665 464.705 216.278Z" fill="#3B576B"/>
<path d="M248.417 42.777C249.752 41.7586 251.04 40.6742 252.351 39.6228L252.342 39.6133C250.519 40.4856 248.73 41.4332 246.864 42.2112C245.075 42.9608 244.166 44.3753 243.484 46.0679C243.948 45.9642 244.308 45.7379 244.654 45.4927C245.913 44.5922 247.186 43.7199 248.417 42.777Z" fill="#3B576B"/>
<path d="M485.501 292.653C485.501 292.889 485.501 293.129 485.501 293.365C486.85 293.516 488.194 293.667 489.544 293.817C489.562 293.709 489.581 293.605 489.6 293.497C489.065 293.351 488.531 293.2 487.603 292.945C492.512 292.535 496.976 292.163 501.435 291.785C496.072 291.526 490.755 291.762 485.501 292.653Z" fill="#3B576B"/>
<path d="M474.637 187.692C474.163 188.498 473.557 189.115 473.429 189.813C472.947 192.534 472.601 195.278 472.255 198.022C472.213 198.361 472.502 198.738 472.634 199.101L473.103 199.12C473.605 195.391 474.102 191.657 474.632 187.692H474.637Z" fill="#3B576B"/>
<path d="M597.865 202.925C600.44 205.745 598.651 208.531 597.936 211.516C601.16 208.3 601.212 205.485 597.865 202.925Z" fill="#3B576B"/>
<path d="M124.285 85.6111C124.588 84.7011 124.9 83.7676 123.963 83.0981C122.831 82.2919 122.917 81.3159 123.248 80.1938C123.442 79.5431 123.527 78.8595 123.712 77.9684C123.182 78.3361 122.888 78.5389 122.595 78.7416C122.827 77.0537 123.059 75.3658 123.291 73.6779C123.371 72.9235 123.447 72.1691 123.57 71.0329C122.737 71.4808 122.377 71.6741 122.135 71.8014C122.358 72.3294 122.528 72.7302 122.694 73.131C122.121 75.1489 121.53 77.1574 120.995 79.1848C120.8 79.9297 120.668 80.7077 120.658 81.4715C120.649 82.042 120.914 82.5748 121.7 82.2211C121.634 82.8954 121.567 83.5696 121.534 83.9043C122.585 84.555 123.399 85.0595 124.285 85.6111Z" fill="#3B576B"/>
<path d="M222.636 195.683C221.803 195.664 220.894 195.598 220.766 196.862C222.48 196.782 224.085 196.669 225.694 196.636C227.583 196.598 229.477 196.669 231.361 196.593C231.91 196.57 232.44 196.202 232.98 195.994C234.911 195.985 236.848 195.976 238.779 195.966C239.593 195.966 240.407 195.966 241.217 195.966C241.217 195.778 241.207 195.584 241.203 195.396C239.219 195.202 237.236 194.91 235.243 194.868C234.481 194.849 233.709 195.4 232.942 195.688C232.483 195.768 232.019 195.928 231.564 195.919C228.587 195.862 225.609 195.759 222.627 195.693L222.636 195.683Z" fill="#3B576B"/>
<path d="M367.333 44.3989C367.333 44.3989 367.366 44.3706 367.38 44.3564C367.404 44.2999 367.432 44.2386 367.456 44.182C367.423 44.2338 367.385 44.2857 367.352 44.3376C367.347 44.3611 367.338 44.38 367.333 44.4036V44.3989Z" fill="#3B576B"/>
<path d="M366.339 53.4843C364.748 50.1745 366.552 47.3598 367.333 44.3941C364.175 47.124 363.693 50.4055 366.339 53.4843Z" fill="#3B576B"/>
<path d="M644.901 245.307C645.308 245.722 646.028 245.83 646.842 246.179C646.302 244.01 642.903 241.851 641.076 242.275C640.688 242.365 640.432 243.02 640.11 243.411C642.241 243.27 643.637 244.01 644.896 245.307H644.901Z" fill="#3B576B"/>
<path d="M303.828 246.641C303.861 246.782 303.894 246.924 303.927 247.07C307.279 246.91 310.626 246.749 313.977 246.594C314.966 246.914 315.975 247.174 316.936 247.57C319.156 248.484 321.651 247.952 323.885 249.187C325.509 250.083 327.526 249.328 329.391 249.145C328.349 247.81 327.043 247.754 325.608 247.938C324.619 248.065 323.483 248.301 322.626 247.956C320.278 246.999 317.831 246.782 315.374 246.518C314.967 246.24 314.569 245.745 314.152 245.726C312.188 245.641 310.214 245.571 308.259 245.731C306.767 245.854 305.305 246.325 303.828 246.646V246.641Z" fill="#3B576B"/>
<path d="M124.957 64.3614C126.017 63.5882 126.732 62.6594 127.291 61.6457C127.613 61.061 127.835 60.3397 127.84 59.6796C127.849 58.5669 127.655 57.4542 127.523 56.1105C126.827 56.9497 126.202 57.7088 125.577 58.4632C125.416 58.5999 125.25 58.7366 125.089 58.8734C127.717 59.5853 126.865 60.6838 126.136 61.8578C125.653 62.6358 125.345 63.5269 124.962 64.3661L124.957 64.3614Z" fill="#3B576B"/>
<path d="M65.409 95.3236C66.4742 95.1727 67.5819 95.2953 68.6659 95.2953C68.6849 95.1492 68.6991 94.9983 68.718 94.8521H63.6101C63.2551 95.8941 62.9 96.9267 62.5545 97.9451C61.5367 98.4684 60.4621 99.0295 59.3827 99.5858L59.6668 100.114C61.2763 99.4585 62.8811 98.8031 64.519 98.1384C63.5628 96.2949 63.8232 95.5546 65.4137 95.3283L65.409 95.3236Z" fill="#3B576B"/>
<path d="M361.264 128.2C361.922 127.083 362.235 125.97 362.968 125.423C364.587 124.211 364.441 122.688 364.038 120.991C363.319 123.372 361.141 125.183 361.264 128.195V128.2Z" fill="#3B576B"/>
<path d="M527.689 219.809C527.803 219.96 527.921 220.111 528.035 220.262C529.824 218.852 531.614 217.447 533.408 216.037C530.956 216.551 528.636 217.258 527.689 219.804V219.809Z" fill="#3B576B"/>
<path d="M501.246 198.63C501.222 198.597 501.113 198.63 500.82 198.63C502.221 201.775 504.29 204.146 507.281 205.712C507.395 205.594 507.513 205.476 507.627 205.358C505.118 203.477 503.135 201.105 501.246 198.635V198.63Z" fill="#3B576B"/>
<path d="M418.54 97.2897C417.896 98.2845 417.441 99.5198 416.561 100.208C415.42 101.095 415.491 101.74 416.277 102.674C416.75 103.24 417.2 103.824 417.707 104.461C418.535 103.089 417.148 102.547 416.949 102.099C417.721 100.373 418.36 98.9399 418.999 97.5019C418.847 97.4311 418.696 97.3557 418.544 97.285L418.54 97.2897Z" fill="#3B576B"/>
<path d="M77.9018 203.26C77.329 203.581 76.7562 203.906 76.1787 204.226C76.0224 202.553 74.9431 203.284 74.091 203.434C75.6769 202.722 77.258 201.992 78.8581 201.299C79.8616 200.865 80.8936 200.483 81.9114 200.082C81.8309 199.889 81.7505 199.7 81.67 199.507C78.4651 200.672 75.1277 201.473 72.0507 203.01C72.5146 203.599 72.7702 203.929 73.0259 204.259C72.0412 204.373 71.0566 204.491 70.0719 204.604L70.0909 204.594C70.0909 204.594 70.0814 204.594 70.0767 204.594C70.5311 204.203 70.9808 203.807 71.4353 203.416C71.3548 203.279 71.2696 203.137 71.1891 203.001L68.0647 204.613C67.4493 204.981 66.673 205.792 66.2564 205.636C64.9924 205.16 64.3628 206.122 63.4729 206.461C62.545 206.82 61.6124 207.178 60.6846 207.536C60.7603 207.781 60.8361 208.022 60.9165 208.267C61.5887 208.13 62.261 207.994 62.9332 207.857C63.7474 207.725 64.5664 207.593 65.3806 207.461H65.3664C65.3664 207.461 65.3759 207.461 65.3806 207.461C65.4469 208.809 66.3369 208.371 67.0564 208.201C69.3997 207.649 71.7998 207.249 74.0579 206.447C75.9798 205.768 77.7361 204.613 79.5634 203.67C81.457 202.779 83.5778 202.308 85.14 200.695C82.7067 201.086 80.3682 201.742 78.0486 202.449C77.9302 202.487 77.9491 202.972 77.9018 203.246V203.26Z" fill="#3B576B"/>
<path d="M214.281 56.1623C210.915 57.1006 207.545 58.0435 204.193 59.0384C203.937 59.1138 203.795 59.5806 203.606 59.8776C207.393 58.9724 211.171 58.0294 215.124 56.4829C214.556 56.2613 214.395 56.1293 214.281 56.1623Z" fill="#3B576B"/>
<path d="M203.611 59.8776C203.611 59.8776 203.597 59.8776 203.587 59.8823L203.563 59.9012C203.563 59.9012 203.587 59.8965 203.601 59.8918C203.601 59.887 203.611 59.8776 203.611 59.8729V59.8776Z" fill="#3B576B"/>
<path d="M129.426 89.6281C131.83 91.6083 134.041 93.4283 136.247 95.2482C135.035 92.5136 131.755 89.977 129.426 89.6281Z" fill="#3B576B"/>
<path d="M183.7 261.163C185.759 260.917 187.814 260.587 189.868 260.295C195.374 260.257 200.875 260.224 206.38 260.187C207.616 260.149 208.965 260.71 210.394 259.215C208.742 259.338 207.53 259.432 206.314 259.522C204.368 259.611 202.423 259.748 200.477 259.772C196.945 259.819 193.419 259.8 189.887 259.809C186.091 259.527 182.502 260.625 178.871 261.46C180.49 261.441 182.105 261.351 183.705 261.158L183.7 261.163Z" fill="#3B576B"/>
<path d="M187.984 206.098C187.449 206.193 186.919 206.339 186.384 206.376C184.49 206.504 182.791 208.083 180.713 207.103C180.481 206.994 179.903 207.612 179.122 208.135C181.925 208.512 185.575 207.744 187.965 206.471C189.65 206.362 191.336 206.259 193.291 206.136C192.846 206.937 192.533 207.494 192.022 208.404C193.423 208.404 194.489 208.404 195.554 208.404C195.099 209.375 194.896 210.224 196.453 210.195H203.554C203.554 210.078 203.549 209.96 203.544 209.842H196.799C196.178 208.965 196.78 208.833 197.471 208.682C198.659 208.423 199.838 208.111 201.021 207.819C200.969 207.602 200.917 207.39 200.87 207.173C199.114 207.291 197.353 207.404 195.596 207.522C195.066 207.475 194.536 207.433 193.973 207.381V205.764C191.89 205.353 189.925 205.528 187.979 206.098H187.984Z" fill="#3B576B"/>
<path d="M438.848 282.95C434.45 282.95 430.053 282.931 425.655 282.959C425.091 282.959 424.528 283.2 423.965 283.327C424.003 283.45 424.045 283.572 424.083 283.695C429.002 283.563 433.915 283.435 438.834 283.303C438.843 283.186 438.848 283.063 438.848 282.945V282.95Z" fill="#3B576B"/>
<path d="M230.466 218.423C230.466 218.508 230.466 218.588 230.466 218.673H248.668C248.668 218.588 248.668 218.508 248.668 218.423H230.466Z" fill="#3B576B"/>
<path d="M221.372 270.988C225.003 270.507 228.634 270.031 232.27 269.55C232.246 269.291 232.222 269.027 232.199 268.768C228.563 269.315 224.928 269.857 221.292 270.404C221.32 270.597 221.349 270.795 221.377 270.988H221.372Z" fill="#3B576B"/>
<path d="M334.29 35.5727C334.716 35.3794 335.171 35.2238 335.573 34.9881C338.414 33.319 341.178 31.5086 344.085 29.9762C348.946 27.4114 353.87 24.9597 358.826 22.5693C361.988 21.0417 365.118 19.3773 368.928 20.1411C370.254 20.4052 371.201 20.8483 371.641 22.0129C372.687 24.7664 373.96 27.2228 376.881 27.4208C377.909 30.9475 378.822 34.0923 379.736 37.2371C379.878 38.1564 379.949 39.09 380.19 39.9811C380.38 40.6789 380.782 41.3201 381.094 41.9849L381.08 41.9707C381.232 42.3385 381.379 42.7062 381.53 43.074C381.544 42.8713 381.554 42.6638 381.568 42.4611C381.412 42.3008 381.255 42.1452 381.094 41.9849C381.251 42.1452 381.407 42.3008 381.568 42.4611C381.554 42.6638 381.544 42.8713 381.53 43.074C381.71 43.3239 381.894 43.5738 382.074 43.8284C382.368 43.5313 382.661 43.2343 382.955 42.9373C382.496 41.438 382.041 39.9386 381.582 38.4393C381.629 38.7364 381.696 39.0287 381.748 39.3257C381.696 39.0287 381.625 38.7364 381.582 38.4393C381.62 37.4869 381.577 36.5817 380.451 36.2234C379.878 33.4888 379.338 30.7495 378.713 28.0243C378.586 27.468 378.193 26.9305 377.814 26.4778C377.426 26.0158 376.839 25.7188 376.451 25.2614C375.229 23.8187 374.036 22.3524 372.876 20.8578C371.073 18.5239 368.602 18.1185 365.974 18.7031C364.237 19.0897 362.552 19.8252 360.938 20.5985C355.493 23.2058 350.026 25.7848 344.691 28.6042C341.098 30.4996 337.713 32.7721 334.233 34.8749C331.63 36.1385 329.722 38.18 327.975 40.4007C327.743 40.5799 327.511 40.7637 327.279 40.9429C327.559 40.825 327.843 40.7072 328.122 40.5893C330.181 38.9155 332.241 37.2418 334.3 35.568L334.29 35.5727Z" fill="#3B576B"/>
<path d="M501.019 242.143C497.265 241.898 493.529 241.771 490.05 243.581C493.705 243.1 497.364 242.619 501.019 242.143Z" fill="#3B576B"/>
<path d="M341.443 77.9919C338.778 77.7609 336.563 75.7477 333.367 76.8557C336.279 77.2753 338.527 79.1093 341.443 77.9919Z" fill="#3B576B"/>
<path d="M444.865 288.084C443.061 287.919 441.139 288.537 439.501 287.217C439.336 287.085 438.853 287.344 438.517 287.419C438.479 287.575 438.441 287.731 438.403 287.882C438.91 288.094 439.402 288.457 439.918 288.499C442.716 288.711 445.518 288.848 448.321 289.008H451.776V288.565H448.321C447.17 288.4 446.025 288.193 444.87 288.084H444.865Z" fill="#3B576B"/>
<path d="M593.633 259.329H593.623C591.01 259.178 588.397 258.923 585.779 258.89C580.236 258.819 574.692 258.815 569.149 258.89C565.707 258.932 562.271 259.178 558.834 259.314C558.105 259.343 557.371 259.314 556.642 259.314C556.642 259.47 556.647 259.63 556.651 259.786H593.633C593.614 259.635 593.614 259.484 593.623 259.329C593.623 259.329 593.628 259.329 593.633 259.329Z" fill="#3B576B"/>
<path d="M609.728 258.862C604.772 258.852 599.815 258.843 594.864 258.876C594.452 258.876 594.045 259.168 593.637 259.329H610.32C610.13 258.984 609.932 258.862 609.733 258.862H609.728Z" fill="#3B576B"/>
<path d="M454.001 131.552C454.191 132.024 454.375 132.495 454.565 132.967C454.702 132.924 454.835 132.877 454.972 132.835C454.844 132.406 454.711 131.977 454.584 131.548C453.594 129.506 452.6 127.465 451.611 125.428C451.313 125.423 451.014 125.418 450.716 125.414C451.814 127.46 452.908 129.506 454.006 131.552H454.001Z" fill="#3B576B"/>
<path d="M274.7 37.2606C276.688 36.3365 278.676 35.4171 280.953 34.361C278.634 33.5689 278.089 34.163 274.7 37.2606Z" fill="#3B576B"/>
<path d="M253.265 222.454C250.618 222.831 247.977 223.208 245.331 223.59C245.378 223.864 245.421 224.137 245.468 224.415C248.223 224.59 250.704 223.345 253.265 222.459V222.454Z" fill="#3B576B"/>
<path d="M392.162 71.2356C391.954 74.998 391.746 78.7605 391.533 82.5229L392.134 82.5512C392.792 78.8359 392.366 75.0688 392.162 71.2356Z" fill="#3B576B"/>
<path d="M104.128 310.154C102.04 313.464 102.215 316.397 104.686 318.57C103.1 315.85 102.958 313.04 104.128 310.154Z" fill="#3B576B"/>
<path d="M389.739 150.544C388.399 149.827 386.813 149.563 385.336 149.101C384.091 148.705 382.747 148.573 382.112 147.092C380.588 143.514 378.969 139.978 377.397 136.418C376.957 135.418 376.346 135.084 375.177 135.343C373.908 135.626 372.555 135.56 371.238 135.616C370.448 135.649 369.653 135.621 368.488 135.621C369.828 137.125 371.22 136.522 372.417 136.555C373.714 136.592 375.016 136.357 376.138 136.258C377.757 139.633 379.603 142.613 380.607 145.852C381.421 148.474 382.737 149.676 385.322 149.794C386.373 150.096 387.466 150.303 388.47 150.718C389.762 151.251 390.789 152.085 390.581 153.721C390.562 154.221 390.458 154.74 390.539 155.225C390.652 155.904 391.149 156.602 391.04 157.215C390.775 158.691 391.561 159.45 392.498 160.374C394.255 162.109 395.836 164.023 397.483 165.871C397.725 166.145 397.938 166.442 398.165 166.725C398.392 166.027 398.421 165.358 398.108 164.947C396.688 163.094 395.244 161.246 393.672 159.521C392.143 157.847 391.656 155.829 391.277 153.726C392.044 152.057 390.827 151.123 389.734 150.539L389.739 150.544Z" fill="#3B576B"/>
<path d="M537.422 211.525C535.098 212.675 532.769 213.826 530.445 214.981C530.525 215.198 530.605 215.419 530.681 215.636C533.034 214.481 535.382 213.326 537.735 212.166C537.631 211.954 537.526 211.737 537.422 211.525Z" fill="#3B576B"/>
<path d="M401.446 253.096C403.008 253.209 404.759 253.331 407.013 253.492C404.726 251.662 403.363 251.705 401.446 253.096Z" fill="#3B576B"/>
<path d="M315.393 206.796C317.954 207.583 320.515 208.366 323.076 209.153C320.941 207.107 318.162 206.961 315.577 206.235C315.516 206.424 315.454 206.607 315.393 206.796Z" fill="#3B576B"/>
<path d="M247.13 278.631C249.099 278.306 251.068 277.98 253.038 277.655C253.047 277.433 253.056 277.212 253.071 276.99C252.408 276.811 251.726 276.429 251.092 276.495C249.724 276.632 248.365 276.948 247.03 277.297C246.689 277.386 246.457 277.867 246.173 278.169C244.053 278.589 241.662 277.584 239.754 279.145C239.787 279.343 239.816 279.546 239.849 279.744C242.277 279.371 244.701 279.003 247.13 278.631Z" fill="#3B576B"/>
<path d="M259.954 257.858C263.253 257.858 266.553 257.858 269.852 257.858C273.327 257.702 276.802 257.546 280.276 257.391C280.286 257.216 280.295 257.047 280.305 256.872C276.825 257.056 273.341 257.24 269.862 257.419C266.562 257.438 263.258 257.457 259.958 257.476C257.412 257.476 254.865 257.48 252.318 257.485C249.099 257.476 245.842 257.032 242.732 258.145H252.337C254.893 258.433 257.45 258.768 259.963 257.853L259.954 257.858Z" fill="#3B576B"/>
<path d="M379.868 281.474C383.097 281.465 386.321 281.436 389.549 281.417C389.559 281.168 389.568 280.918 389.582 280.668C386.226 280.781 382.87 280.889 379.139 281.017C379.641 281.337 379.755 281.479 379.873 281.479L379.868 281.474Z" fill="#3B576B"/>
<path d="M486.178 179.658C486.178 179.658 486.197 179.658 486.206 179.653L486.197 179.629C486.197 179.629 486.178 179.625 486.168 179.62C486.168 179.629 486.168 179.643 486.173 179.653L486.178 179.658Z" fill="#3B576B"/>
<path d="M480.601 183.736C482.736 182.255 484.464 181.053 486.192 179.846C486.22 179.827 486.192 179.733 486.182 179.658C483.882 180.049 481.87 180.874 480.606 183.736H480.601Z" fill="#3B576B"/>
<path d="M136.867 193.877H125.643C125.96 194.08 126.074 194.208 126.188 194.212C129.151 194.382 132.115 194.575 135.078 194.67C135.712 194.688 136.361 194.358 137 194.193C136.957 194.09 136.91 193.981 136.867 193.877Z" fill="#3B576B"/>
<path d="M215.109 269.795C215.067 269.579 215.024 269.362 214.982 269.145C212.345 269.56 209.708 269.979 207.071 270.394C207.114 270.649 207.156 270.903 207.199 271.158C209.836 270.705 212.473 270.253 215.109 269.8V269.795Z" fill="#3B576B"/>
<path d="M421.333 249.248C421.659 249.404 421.991 249.701 422.303 249.682C423.222 249.635 424.13 249.371 425.044 249.352C427.061 249.31 429.077 249.385 431.094 249.361C431.359 249.361 431.619 249.079 432.235 248.725C429.219 248.565 426.658 248.338 424.093 248.329C422.833 248.324 421.574 248.711 420.315 248.923C419.595 249.187 418.876 249.451 418.038 249.757C416.864 248.852 415.624 248.659 414.667 249.956C415.898 250.168 417.219 250.399 418.383 250.601C419.397 250.139 420.367 249.691 421.337 249.248H421.333Z" fill="#3B576B"/>
<path d="M265.833 44.1254C264.397 44.6692 263.84 45.8212 264.162 47.5814C265.412 46.5535 266.07 45.587 265.833 44.1254Z" fill="#3B576B"/>
<path d="M601.25 228.145C602.878 227.041 604.511 225.938 606.258 224.755C604.038 224.585 601.874 226.122 601.25 228.145Z" fill="#3B576B"/>
<path d="M601.25 228.145C601.25 228.145 601.212 228.173 601.193 228.182C601.193 228.182 601.16 228.225 601.145 228.248C601.174 228.239 601.198 228.225 601.226 228.215C601.231 228.192 601.245 228.168 601.25 228.145Z" fill="#3B576B"/>
<path d="M450.191 282.695C446.73 282.455 443.279 282.441 439.828 282.474C439.497 282.474 439.17 282.785 438.843 282.95C438.843 283.068 438.834 283.19 438.829 283.308C442.616 283.101 446.403 282.898 450.191 282.69V282.695Z" fill="#3B576B"/>
<path d="M477.221 181.119C477.818 179.728 478.414 178.337 478.977 177.017C476.795 177.211 476.772 177.258 477.221 181.119Z" fill="#3B576B"/>
<path d="M237.567 58.4867C237.889 58.9205 238.135 59.6183 238.547 59.7409C240.133 60.2029 241.771 60.4811 243.39 60.8253C243.428 60.7121 243.461 60.5943 243.499 60.4811C241.629 59.7079 239.759 58.9299 237.889 58.1567C237.78 58.2651 237.671 58.3783 237.567 58.4867Z" fill="#3B576B"/>
<path d="M317.234 258.626C317.225 258.47 317.22 258.315 317.21 258.159C313.258 258.395 309.305 258.635 305.352 258.871C305.357 259.013 305.357 259.154 305.352 259.296C309.309 259.074 313.272 258.848 317.229 258.626H317.234Z" fill="#3B576B"/>
<path d="M533.739 261.276L525.962 261.724C525.957 261.865 525.952 262.011 525.952 262.153C527.401 262.459 532.793 262.073 533.744 261.276H533.739Z" fill="#3B576B"/>
<path d="M400.906 196.225C401.554 195.702 401.99 195.358 402.539 194.915C401.133 193.797 399.793 193.151 398.151 193.283C397.516 193.019 396.906 192.647 396.248 192.51C392.106 191.628 387.949 190.799 383.798 189.959C383.476 189.893 383.149 189.86 382.822 189.813C387.675 192.241 392.958 192.798 398.155 193.698C399.211 194.311 400.972 194.019 400.906 196.23V196.225Z" fill="#3B576B"/>
<path d="M358.069 86.092C357.046 86.9407 357.206 88.2152 358.547 89.9157C358.395 88.7087 358.244 87.5017 358.069 86.092Z" fill="#3B576B"/>
<path d="M42.7147 46.9401C41.5454 49.1373 41.4128 50.9383 42.3265 53.4042C42.4448 51.4051 42.5679 49.406 42.7147 46.9401Z" fill="#3B576B"/>
<path d="M28.8964 13.696C28.8964 13.696 28.92 13.696 28.9295 13.7054C28.9485 13.6913 28.9674 13.6771 28.9863 13.663C28.9579 13.6677 28.9342 13.6771 28.9058 13.6818C28.9058 13.6865 28.9011 13.6913 28.8964 13.696Z" fill="#3B576B"/>
<path d="M23.2394 13.2103C21.9991 13.0359 20.7588 12.8614 19.5138 12.6917C19.4854 12.2344 19.4617 11.7818 19.4333 11.3244C19.1067 10.8812 18.8747 10.2683 18.4344 10.042C17.7622 9.6978 16.9101 9.70723 16.2095 9.39605C15.7314 9.17917 15.1112 8.72655 15.026 8.28807C14.652 6.39271 13.2981 5.2423 11.807 4.52565C9.01396 3.18664 6.05053 2.19653 3.16758 1.0414C2.42909 0.739648 1.71901 0.357748 0.994718 0.0135663C0.526061 0.0512849 -0.160356 -0.241034 0.0337344 0.725504C0.109477 1.10269 0.0479361 1.50816 0.0479361 1.89949C3.91081 2.63501 7.53225 4.02588 10.9643 5.92595C12.2141 6.61431 13.2413 7.41112 13.6437 8.96229C13.7952 9.55164 14.7941 10.0561 15.5136 10.3343C16.645 10.7728 17.8664 10.9897 19.0498 11.3008C19.1493 11.8148 19.2487 12.324 19.3481 12.8379C19.5138 13.9317 20.4179 13.828 21.147 13.8421C21.8381 13.8563 22.534 13.6818 23.2299 13.5875C24.3992 13.8374 25.5684 14.0637 26.7282 14.3419C27.5993 14.5493 28.3946 14.6201 28.8964 13.6913C28.0963 13.4979 27.2584 13.3989 26.5105 13.0878C25.3696 12.6116 24.3045 12.4654 23.2394 13.2056V13.2103Z" fill="#3B576B"/>
<path d="M139.476 194.406C141.914 195.495 143.618 195.363 145.351 194.406H139.476Z" fill="#3B576B"/>
<path d="M289.2 64.2624C291.605 63.8192 294.009 63.3713 296.599 62.8951C293.763 62.2586 291.43 62.9753 289.2 64.2624Z" fill="#3B576B"/>
<path d="M500.976 288.56C503.646 288.933 506.316 289.31 508.986 289.683C509.009 289.485 509.028 289.287 509.052 289.089C506.444 288.028 503.665 288.74 500.976 288.56Z" fill="#3B576B"/>
<path d="M309.395 205.716C310.99 205.509 312.472 207.018 314.654 205.999C312.59 205.419 311.085 204.665 309.395 205.716Z" fill="#3B576B"/>
<path d="M144.262 109.709C141.615 108.544 140.692 108.662 139.064 109.991C140.778 109.897 142.52 109.803 144.262 109.709Z" fill="#3B576B"/>
<path d="M623.816 259.673H634.004C634.004 259.593 634.004 259.512 634.004 259.437H623.816C623.816 259.517 623.816 259.597 623.816 259.673Z" fill="#3B576B"/>
<path d="M94.7592 28.7551C94.8303 28.5948 94.9013 28.4345 94.9723 28.2742C93.5095 27.1709 91.8668 26.4967 89.9827 26.4165C89.0975 25.9215 88.2123 25.4264 87.327 24.9314C87.2276 25.186 87.1282 25.4406 87.0335 25.6999C88.0182 25.9403 88.9981 26.1808 89.9827 26.4165C91.5733 27.1945 93.1687 27.9724 94.7592 28.7551Z" fill="#3B576B"/>
<path d="M302.493 60.0379C305.134 58.9016 305.248 58.7602 305.262 56.6857C304.197 57.9728 303.345 59.0054 302.493 60.0379Z" fill="#3B576B"/>
<path d="M254.628 226.669C254.609 226.495 254.59 226.32 254.571 226.146C252.985 227.013 251.172 225.278 249.634 226.683C249.667 226.919 249.705 227.159 249.738 227.395C251.366 227.15 253 226.909 254.628 226.664V226.669Z" fill="#3B576B"/>
<path d="M130.855 274.388C132.436 273.572 134.013 272.752 135.594 271.936C135.532 271.818 135.471 271.7 135.409 271.582C133.819 272.374 132.223 273.167 130.633 273.959C130.709 274.1 130.78 274.246 130.855 274.388Z" fill="#3B576B"/>
<path d="M289.844 270.54C287.818 270.814 285.791 271.092 283.761 271.365C283.794 271.587 283.827 271.804 283.86 272.026C285.862 271.738 287.87 271.446 289.872 271.158L289.844 270.54Z" fill="#3B576B"/>
<path d="M473.439 287.429H480.024C476.413 286.888 474.218 286.888 473.439 287.429Z" fill="#3B576B"/>
<path d="M593.671 259.795C593.671 259.795 593.652 259.791 593.637 259.786H593.628C593.628 259.786 593.628 259.791 593.628 259.795H593.671Z" fill="#3B576B"/>
<path d="M602.736 260.323C602.736 260.149 602.745 259.975 602.75 259.795H593.675C596.677 260.861 599.725 259.927 602.741 260.323H602.736Z" fill="#3B576B"/>
<path d="M500.758 288.546C500.791 288.546 500.824 288.551 500.858 288.556C500.9 288.556 500.938 288.556 500.981 288.56C500.943 288.556 500.905 288.551 500.867 288.546H500.758Z" fill="#3B576B"/>
<path d="M493.624 288.546H500.758C498.391 288.329 496.024 288.113 493.657 287.891C493.648 288.108 493.634 288.325 493.624 288.546Z" fill="#3B576B"/>
<path d="M122.841 334.28C121.279 333.318 120.038 332.554 118.798 331.791C120.176 333.809 120.938 334.242 122.841 334.28Z" fill="#3B576B"/>
<path d="M144.006 345.973C145.464 346.595 146.922 347.217 148.38 347.84C148.465 347.637 148.551 347.434 148.636 347.232C147.178 346.614 145.715 345.996 144.257 345.383C144.177 345.581 144.091 345.775 144.011 345.973H144.006Z" fill="#3B576B"/>
<path d="M281.474 65.9126C283.325 65.5684 285.171 65.2242 287.022 64.88C287.008 64.748 286.994 64.6207 286.98 64.4887C285.129 64.7056 283.278 64.9225 281.427 65.1394C281.441 65.3987 281.46 65.6533 281.474 65.9126Z" fill="#3B576B"/>
<path d="M296.694 259.296H305.357C305.361 259.154 305.361 259.013 305.357 258.871H296.694C296.694 259.013 296.694 259.154 296.694 259.296Z" fill="#3B576B"/>
<path d="M274.132 68.0107C275.827 67.5722 277.521 67.1337 279.216 66.6952C279.164 66.5019 279.112 66.3039 279.06 66.1106C277.365 66.5538 275.67 66.9923 273.976 67.4355L274.132 68.0154V68.0107Z" fill="#3B576B"/>
<path d="M390.302 220.464C389.133 220.742 387.963 221.021 386.794 221.299C385.516 221.436 384.238 221.577 382.96 221.714C382.557 221.525 382.174 221.247 381.752 221.167C376.678 220.2 371.612 219.187 366.514 218.347C363.513 217.852 360.469 217.65 357.444 217.315C357.42 217.485 357.401 217.654 357.378 217.824C358.817 218.022 360.27 218.173 361.7 218.428C366.178 219.229 370.647 220.059 375.116 220.912C376.19 221.12 377.241 221.459 378.301 221.737C377.819 221.832 377.34 221.926 376.858 222.016C376.881 222.204 376.905 222.397 376.929 222.586C377.359 222.661 377.795 222.817 378.221 222.803C380.029 222.756 381.762 222.892 383.48 223.652C384.508 224.104 385.79 224.208 386.927 224.114C388.243 224.005 388.314 223.293 387.211 222.553C388.281 221.992 389.35 221.431 390.425 220.87L390.307 220.46L390.302 220.464Z" fill="#3B576B"/>
<path d="M252.654 63.1497C251.272 62.6829 249.889 62.2209 248.507 61.7541C248.441 61.9616 248.375 62.169 248.304 62.3765C249.691 62.8762 251.078 63.3807 252.465 63.8805C252.526 63.6353 252.593 63.3949 252.654 63.1497Z" fill="#3B576B"/>
<path d="M298.379 63.1073C299.799 62.6924 301.172 62.6216 302.275 60.9007C300.04 61.7054 298.742 62.4409 298.379 63.1073Z" fill="#3B576B"/>
<path d="M364.516 132.467C364.516 132.467 364.516 132.495 364.521 132.509L364.592 132.547C364.592 132.547 364.559 132.505 364.545 132.486C364.535 132.481 364.526 132.472 364.516 132.467Z" fill="#3B576B"/>
<path d="M364.516 132.467C364.436 130.92 363.427 129.959 362.244 128.771C362.201 130.737 363.271 131.661 364.516 132.467Z" fill="#3B576B"/>
<path d="M159.008 198.092C159.036 197.909 159.069 197.72 159.098 197.536C157.512 197.239 155.926 196.947 154.34 196.65C152.608 195.928 150.487 195.598 149.261 194.372C148.148 193.265 147.486 193.486 146.416 193.92C148.816 195.688 151.538 196.673 154.397 197.357C155.936 197.602 157.469 197.843 159.008 198.088V198.092Z" fill="#3B576B"/>
<path d="M235.115 262.756C235.101 262.568 235.082 262.384 235.068 262.195C233.392 262.37 231.716 262.544 230.04 262.719C231.778 262.964 233.496 263.435 235.115 262.756Z" fill="#3B576B"/>
<path d="M454.48 195.754C454.177 196.046 453.878 196.339 453.575 196.631C453.571 196.786 453.566 196.942 453.556 197.098L453.547 197.14C443.79 197.258 434.029 197.376 424.272 197.494C424.575 196.919 424.736 196.174 425.2 195.801C427.023 194.33 428.959 193.001 430.81 191.567C432.263 190.44 433.655 189.229 435.075 188.055C434.947 187.89 434.82 187.72 434.692 187.555C429.806 190.789 425.186 194.41 420.428 197.824C420.102 197.696 419.775 197.564 419.449 197.437C419.174 197.319 418.899 197.201 418.62 197.084C418.568 197.178 418.521 197.272 418.469 197.366C418.786 197.593 419.103 197.819 419.42 198.045L420.126 199.79C421.049 199.733 421.763 199.691 422.635 199.634C422.881 202.176 423.113 204.509 423.34 206.839C423.43 206.839 423.52 206.839 423.614 206.839C423.936 204.335 424.258 201.831 424.627 198.936C427.473 198.635 430.318 198.13 433.172 198.078C439.994 197.951 446.82 198.036 453.93 198.036C454.143 201.732 454.337 205.061 454.527 208.39C454.371 211.558 453.509 212.298 450.172 212.157C449.864 212.143 449.552 212.19 449.239 212.209C448.292 212.129 447.35 212.048 446.403 211.968C444.245 211.662 442.091 211.351 439.932 211.044C438.105 210.818 436.282 210.488 434.45 210.393C432.509 210.294 430.55 210.544 428.618 210.393C427.525 210.309 426.483 209.686 425.399 209.366C424.836 209.201 424.126 208.908 423.671 209.111C421.64 210.002 420.471 208.955 419.425 207.484C417.451 206.796 416.504 205.169 415.837 203.321C413.768 204.707 412.783 204.623 410.383 202.906C411.799 202.425 413.171 201.963 414.54 201.501C414.502 201.275 414.459 201.044 414.421 200.818C411.141 200.662 407.86 200.507 404.328 200.341C404.826 199.63 405.043 199.318 405.261 199.007C405.858 198.833 406.454 198.663 407.05 198.489C407.022 198.333 406.994 198.182 406.965 198.027H405.223C403.652 197.876 402.075 197.753 400.508 197.569C399.718 197.475 398.937 197.277 398.151 197.126L398.084 197.051C398.113 197.084 398.151 197.126 398.151 197.126C398.397 197.069 398.638 197.008 398.884 196.952C398.856 196.848 398.823 196.744 398.795 196.645C398.548 196.772 398.302 196.9 398.056 197.027C397.379 197.074 396.617 197.027 396.764 198.437C398.103 198.46 399.453 198.437 400.792 198.531C401.966 198.616 403.131 198.842 404.3 199.007L402.97 200.464C403.618 200.808 404.229 201.308 404.92 201.468C405.91 201.695 406.951 201.666 407.974 201.761C408.092 201.77 408.201 201.883 408.333 201.959C407.926 202.397 407.529 202.821 406.89 203.51C408.002 203.906 408.83 204.316 409.711 204.486C411.661 204.872 413.56 205.259 414.208 207.598C415.969 206.938 417.072 207.631 418.341 208.677C419.832 209.908 421.285 212.063 423.813 210.455C423.913 210.389 424.135 210.445 424.268 210.507C427.383 211.987 430.616 211.671 433.915 211.365C435.842 211.186 437.816 211.539 439.767 211.657C441.887 212.642 444.131 212.779 446.422 212.633C447.364 212.638 448.306 212.647 449.249 212.652C451.611 213.015 453.968 213.383 456.33 213.746C456.33 213.576 456.33 213.402 456.33 213.232L455.152 208.371C455.109 205.297 455.067 202.223 455.024 199.149C455.459 198.913 455.89 198.682 456.458 198.375C455.649 197.494 456.099 195.905 454.465 195.773L454.48 195.754Z" fill="#3B576B"/>
<path d="M437.471 185.395C438.872 185.815 440.112 186.192 441.352 186.565C439.724 184.924 439.042 184.754 437.471 185.395Z" fill="#3B576B"/>
<path d="M216.577 269.508C218.134 269.371 219.692 269.234 221.249 269.098C221.24 268.918 221.226 268.744 221.216 268.565C219.659 268.683 218.101 268.796 216.544 268.914C216.558 269.112 216.567 269.31 216.582 269.508H216.577Z" fill="#3B576B"/>
<path d="M172.731 51.4569C172.76 51.2919 172.788 51.1269 172.817 50.9666C171.491 50.6696 170.161 50.3678 168.835 50.0708C168.793 50.3207 168.745 50.5658 168.703 50.8157C170.047 51.0326 171.392 51.2448 172.736 51.4617L172.731 51.4569Z" fill="#3B576B"/>
<path d="M285.678 32.9749C284.542 33.1917 283.401 33.4039 282.265 33.6208C282.298 33.8235 282.336 34.0263 282.369 34.2337C283.514 34.0593 284.66 33.8848 285.806 33.7104C285.763 33.4652 285.72 33.22 285.678 32.9749Z" fill="#3B576B"/>
<path d="M201.717 195.575H206.077C204.737 195.443 203.426 193.934 201.717 195.575Z" fill="#3B576B"/>
<path d="M318.526 258.254H324.382C324.382 258.178 324.382 258.103 324.382 258.027H318.526V258.254Z" fill="#3B576B"/>
<path d="M295.638 203.199C296.367 203.373 297.087 203.642 297.82 203.703C298.729 203.779 299.657 203.703 300.575 203.684C298.98 203.335 297.38 202.986 295.785 202.638C295.737 202.826 295.685 203.015 295.638 203.203V203.199Z" fill="#3B576B"/>
<path d="M298.616 204.481C298.625 204.566 298.639 204.651 298.649 204.736C300.315 204.509 301.977 204.288 303.643 204.061C303.638 203.939 303.634 203.816 303.629 203.689H300.623L300.637 203.675C300.637 203.675 300.594 203.675 300.575 203.675C300.59 203.675 300.599 203.68 300.613 203.684C299.946 203.948 299.283 204.212 298.616 204.476V204.481Z" fill="#3B576B"/>
<path d="M309.47 155.636C310.531 155.909 311.591 156.187 312.647 156.461C312.694 156.253 312.742 156.046 312.789 155.838C311.728 155.574 310.668 155.31 309.612 155.046C309.565 155.244 309.518 155.442 309.47 155.636Z" fill="#3B576B"/>
<path d="M247.868 75.9174L250.453 74.6774C253.298 73.4516 256.143 72.2257 259.291 70.8679C256.119 71.0564 253.279 71.1319 251.286 73.6024C251.106 73.8288 250.746 73.9136 250.472 74.0692C249.52 74.4888 248.569 74.9132 247.617 75.3328C247.702 75.5261 247.783 75.7241 247.868 75.9174Z" fill="#3B576B"/>
<path d="M529.19 243.326C529.176 243.468 529.162 243.605 529.152 243.746H533.64C533.64 243.605 533.64 243.468 533.64 243.326H529.19Z" fill="#3B576B"/>
<path d="M211.019 259.913C212.705 259.602 213.916 259.376 215.128 259.149C213.869 259.083 212.482 258.263 211.019 259.913Z" fill="#3B576B"/>
<path d="M298.313 265.595H293.484V265.835H298.298C298.303 265.755 298.308 265.675 298.313 265.595Z" fill="#3B576B"/>
<path d="M505.35 263.336H507.755C507.736 263.105 507.722 262.874 507.703 262.638C506.903 262.69 506.108 262.742 505.307 262.789C505.322 262.968 505.336 263.152 505.35 263.331V263.336Z" fill="#3B576B"/>
<path d="M529.843 259.38H525.015C525.01 259.498 525.01 259.611 525.015 259.729H529.843C529.843 259.611 529.843 259.498 529.843 259.38Z" fill="#3B576B"/>
<path d="M184.561 59.953C185.115 60.4198 185.669 60.8866 186.223 61.3534C186.488 61.3392 186.758 61.3251 187.023 61.3109C186.483 60.4622 185.934 59.6324 184.561 59.9578V59.953Z" fill="#3B576B"/>
<path d="M447.189 189.488C447.095 189.662 447.005 189.842 446.91 190.016C447.511 190.374 448.112 190.733 448.709 191.091C448.837 190.879 448.96 190.667 449.088 190.459C448.453 190.139 447.819 189.813 447.185 189.493L447.189 189.488Z" fill="#3B576B"/>
<path d="M594.215 227.994V232.039C594.3 232.034 594.385 232.03 594.471 232.02V227.994C594.385 227.994 594.3 227.994 594.215 227.994Z" fill="#3B576B"/>
<path d="M164.002 353.771C164.878 353.87 165.754 353.974 166.634 354.073C165.479 353.191 165.47 353.191 164.002 353.771Z" fill="#3B576B"/>
<path d="M166.634 354.073C166.634 354.073 166.653 354.087 166.663 354.092C166.663 354.092 166.7 354.092 166.719 354.092C166.705 354.087 166.691 354.078 166.677 354.073C166.663 354.073 166.648 354.073 166.634 354.073Z" fill="#3B576B"/>
<path d="M357.449 176.433C358.05 176.763 358.651 177.088 359.252 177.418C359.39 177.225 359.531 177.031 359.669 176.838C359.02 176.522 358.372 176.202 357.728 175.886C357.633 176.07 357.543 176.249 357.449 176.433Z" fill="#3B576B"/>
<path d="M464.17 215.952C464.203 215.764 464.236 215.575 464.269 215.386C463.384 215.221 462.494 215.052 461.609 214.887L456.349 213.218C456.349 213.387 456.349 213.562 456.349 213.732C458.096 214.274 459.843 214.816 461.585 215.358C462.447 215.556 463.308 215.749 464.17 215.948V215.952Z" fill="#3B576B"/>
<path d="M270.245 260.743C270.278 260.743 270.312 260.743 270.34 260.743L270.326 260.724C270.297 260.729 270.269 260.734 270.245 260.743Z" fill="#3B576B"/>
<path d="M267.968 261.205C268.73 261.049 269.488 260.899 270.245 260.743C269.488 260.743 268.726 260.738 267.968 260.734C267.968 260.889 267.968 261.045 267.968 261.2V261.205Z" fill="#3B576B"/>
<path d="M233.349 87.4782C234.144 87.0868 234.94 86.6955 235.735 86.3042C234.859 86.4645 233.984 86.6295 233.108 86.7898C233.188 87.0208 233.269 87.2471 233.354 87.4782H233.349Z" fill="#3B576B"/>
<path d="M235.735 86.3042C235.735 86.3042 235.773 86.2995 235.787 86.2947C235.787 86.2853 235.792 86.2806 235.797 86.2712C235.792 86.2712 235.782 86.2806 235.778 86.2806C235.763 86.29 235.749 86.2947 235.735 86.3042Z" fill="#3B576B"/>
<path d="M281.37 274.289C281.37 274.209 281.37 274.133 281.37 274.053H278.212C278.212 274.133 278.212 274.209 278.212 274.289H281.37Z" fill="#3B576B"/>
<path d="M420.812 284.789C420.949 284.397 421.082 284.001 421.337 283.261C419.903 283.567 418.791 283.808 417.683 284.048C417.673 284.237 417.659 284.426 417.65 284.614C418.559 284.817 419.472 285.02 420.381 285.222H423.302C423.293 285.076 423.288 284.93 423.278 284.784H420.812V284.789Z" fill="#3B576B"/>
<path d="M168.845 354.554L168.745 355.049C169.475 355.19 170.204 355.336 170.933 355.478C171.449 355.61 171.969 355.737 172.485 355.869C172.514 355.662 172.542 355.459 172.566 355.252C172.017 355.19 171.467 355.124 170.918 355.063C170.227 354.893 169.531 354.723 168.84 354.549L168.845 354.554Z" fill="#3B576B"/>
<path d="M152.073 348.764C151.453 348.047 150.738 347.76 149.781 348.5C150.482 348.66 151.178 348.821 151.879 348.981C152.551 349.259 153.223 349.542 153.9 349.82C156.826 351.367 159.983 352.225 163.103 353.191C163.169 353.007 163.235 352.819 163.301 352.635C160.163 351.555 157.029 350.48 153.89 349.4L152.082 348.769L152.073 348.764Z" fill="#3B576B"/>
<path d="M554.89 214.948L554.805 214.986C554.805 214.986 554.796 215.005 554.791 215.014C554.805 215.014 554.815 215.014 554.829 215.014C554.848 214.995 554.872 214.972 554.89 214.953V214.948Z" fill="#3B576B"/>
<path d="M276.485 274.798C276.546 274.713 276.612 274.633 276.674 274.548H274.037C274.037 274.633 274.037 274.713 274.037 274.798H276.485Z" fill="#3B576B"/>
<path d="M455.398 135.668C455.573 135.621 455.748 135.569 455.923 135.522C455.715 134.867 455.507 134.211 455.294 133.551C455.152 133.589 455.01 133.632 454.868 133.669C455.043 134.334 455.223 135.004 455.398 135.668Z" fill="#3B576B"/>
<path d="M325.864 42.7581C326.105 42.3621 326.352 41.966 326.593 41.57L325.471 42.3668C325.604 42.4988 325.731 42.6261 325.864 42.7581Z" fill="#3B576B"/>
<path d="M216.951 55.1439C216.501 55.3325 216.047 55.5211 215.597 55.7097C215.659 55.8559 215.725 56.0067 215.786 56.1529C216.236 55.9643 216.691 55.7757 217.14 55.5871C217.079 55.4363 217.012 55.2901 216.951 55.1392V55.1439Z" fill="#3B576B"/>
<path d="M321.727 159.238C321.769 159.073 321.816 158.908 321.859 158.747C321.367 158.639 320.879 158.53 320.387 158.417C320.354 158.535 320.325 158.653 320.292 158.771C320.77 158.927 321.248 159.082 321.722 159.238H321.727Z" fill="#3B576B"/>
<path d="M416.57 196.56C417.006 196.749 417.437 196.933 417.872 197.121C417.924 197.008 417.976 196.895 418.028 196.777C417.607 196.565 417.186 196.353 416.764 196.141C416.698 196.282 416.637 196.419 416.57 196.56Z" fill="#3B576B"/>
<path d="M323.44 160.204C323.506 160.025 323.568 159.846 323.634 159.667C323.317 159.582 322.995 159.502 322.678 159.417L322.56 159.723C322.853 159.884 323.151 160.044 323.445 160.204H323.44Z" fill="#3B576B"/>
<path d="M106.424 320.848C106.301 320.937 106.177 321.027 106.054 321.116C106.338 321.46 106.618 321.805 106.902 322.149C107.039 322.229 107.181 322.304 107.318 322.385C107.247 322.238 107.176 322.092 107.105 321.946C106.878 321.578 106.651 321.211 106.424 320.843V320.848Z" fill="#3B576B"/>
<path d="M500.114 196.933C499.911 196.848 499.703 196.758 499.499 196.673C499.636 196.843 499.774 197.018 499.911 197.187C499.977 197.102 500.048 197.018 500.114 196.933Z" fill="#3B576B"/>
<path d="M291.666 270.338C291.633 270.309 291.335 270.465 291.34 270.507C291.363 270.677 291.463 270.842 291.534 271.017C291.732 270.913 291.851 270.852 291.969 270.786C291.87 270.63 291.794 270.456 291.666 270.338Z" fill="#3B576B"/>
<path d="M361.842 178.616C361.969 178.762 362.083 178.922 362.235 179.035C362.263 179.059 362.433 178.894 362.613 178.762C362.448 178.625 362.315 178.474 362.145 178.403C362.088 178.38 361.946 178.545 361.842 178.62V178.616Z" fill="#3B576B"/>
<path d="M363.252 179.672C363.399 179.78 363.584 179.841 363.754 179.922C363.802 179.799 363.849 179.676 363.925 179.483C363.74 179.427 363.565 179.351 363.385 179.337C363.347 179.337 363.224 179.648 363.252 179.672Z" fill="#3B576B"/>
<path d="M309.357 50.3584C309.371 50.5328 309.47 50.6979 309.546 50.877C309.745 50.7639 309.863 50.6979 309.982 50.6319C309.887 50.4763 309.807 50.3018 309.683 50.1792C309.655 50.1509 309.352 50.3065 309.357 50.3631V50.3584Z" fill="#3B576B"/>
<path d="M183.686 59.2835C183.799 59.3213 183.96 59.2222 184.102 59.1798C183.984 59.0195 183.866 58.8545 183.747 58.6942C183.648 58.7791 183.544 58.8592 183.44 58.9441C183.52 59.0619 183.577 59.2458 183.686 59.2835Z" fill="#3B576B"/>
<path d="M321.291 265.354C321.547 265.335 321.807 265.316 322.067 265.302C322.063 265.217 322.058 265.137 322.053 265.052C321.793 265.066 321.537 265.081 321.277 265.095C321.282 265.184 321.286 265.269 321.291 265.359V265.354Z" fill="#3B576B"/>
<path d="M167.785 354.577C167.827 354.445 167.87 354.309 167.912 354.177C167.515 354.148 167.117 354.12 166.715 354.092C167.07 354.252 167.425 354.412 167.785 354.577Z" fill="#3B576B"/>
<path d="M266.548 260.734C266.184 260.734 265.814 260.734 265.45 260.734C265.45 260.889 265.45 261.045 265.45 261.205H266.548C267.021 261.205 267.495 261.205 267.968 261.205C267.968 261.049 267.968 260.894 267.968 260.738C267.495 260.738 267.021 260.738 266.548 260.738V260.734Z" fill="#3B576B"/>
<path d="M272.749 141.873C272.584 141.133 272.2 140.859 271.003 141.397C271.822 141.67 272.248 141.816 272.674 141.963L273.592 142.462C273.744 142.514 273.89 142.561 274.042 142.613C273.924 142.528 273.805 142.448 273.687 142.363C273.374 142.203 273.062 142.038 272.745 141.878L272.749 141.873Z" fill="#3B576B"/>
<path d="M70.5974 107.658C70.427 107.761 70.2613 107.865 70.0909 107.969V108.016C70.0909 108.016 70.1051 108.002 70.1098 107.992C70.2707 107.884 70.4364 107.771 70.5974 107.662V107.658Z" fill="#3B576B"/>
<path d="M499.409 196.64C499.437 196.654 499.466 196.664 499.494 196.678C499.475 196.659 499.461 196.636 499.442 196.617L499.22 196.221C499.281 196.362 499.347 196.504 499.409 196.64Z" fill="#3B576B"/>
<path d="M232.317 87.497C232.265 87.4404 232.204 87.3273 232.161 87.332C232.019 87.3556 231.882 87.4169 231.744 87.464C231.796 87.5253 231.853 87.6385 231.896 87.629C232.038 87.6055 232.175 87.5442 232.312 87.4923L232.317 87.497Z" fill="#3B576B"/>
<path d="M503.286 241.596L503.078 241.62L503.262 241.69L503.286 241.596Z" fill="#3B576B"/>
<path d="M202.948 60.0285C202.986 60.1228 203.028 60.2124 203.066 60.3067C203.232 60.1746 203.398 60.0379 203.563 59.9059C203.36 59.9483 203.152 59.986 202.948 60.0285Z" fill="#3B576B"/>
<path d="M533.484 254.552C533.593 254.548 533.697 254.435 533.801 254.364C533.668 254.312 533.541 254.251 533.408 254.222C533.361 254.213 533.294 254.298 533.238 254.34C533.323 254.416 533.408 254.552 533.488 254.548L533.484 254.552Z" fill="#3B576B"/>
<path d="M44.0591 218.291C43.4295 218.607 42.7951 218.923 42.1655 219.238C41.9383 219.29 41.7063 219.342 41.4791 219.394C41.5312 219.493 41.5832 219.592 41.6353 219.696C41.8199 219.55 41.9998 219.403 42.1845 219.257C42.9419 219.191 43.9218 219.578 44.0875 218.319L44.8496 218.192C44.8118 218.093 44.7692 217.998 44.7313 217.899C44.5088 218.031 44.2863 218.159 44.0638 218.291H44.0591Z" fill="#3B576B"/>
<path d="M481.543 220.856C481.472 220.837 481.401 220.804 481.33 220.808C481.307 220.808 481.283 220.889 481.259 220.931C481.33 220.95 481.401 220.983 481.468 220.983C481.491 220.983 481.515 220.903 481.539 220.86L481.543 220.856Z" fill="#3B576B"/>
<path d="M351.621 173.203C351.597 173.278 351.569 173.349 351.545 173.425C351.768 173.458 351.995 173.491 352.218 173.519C352.416 173.613 352.611 173.707 352.809 173.806C352.615 173.707 352.421 173.608 352.232 173.509C352.028 173.41 351.825 173.307 351.621 173.208V173.203Z" fill="#3B576B"/>
<path d="M352.809 173.806C352.928 173.868 353.046 173.929 353.164 173.99C353.174 173.99 353.179 173.99 353.188 173.99C353.183 173.99 353.179 173.981 353.169 173.981C353.046 173.924 352.928 173.863 352.805 173.806H352.809Z" fill="#3B576B"/>
<path d="M218.541 54.9412C218.489 54.8893 218.437 54.8375 218.385 54.7856C218.262 54.8375 218.134 54.894 218.011 54.9459C218.063 54.9978 218.125 55.1015 218.163 55.0921C218.291 55.0638 218.414 54.9931 218.537 54.9412H218.541Z" fill="#3B576B"/>
<path d="M110.826 326.255C110.556 325.897 110.291 325.534 110.021 325.176C109.846 325.034 109.671 324.893 109.496 324.751C109.344 324.586 109.193 324.417 109.041 324.252C108.881 324.096 108.72 323.94 108.563 323.785C108.407 323.629 108.246 323.474 108.09 323.313C107.986 323.21 107.877 323.106 107.773 323.002C107.825 323.163 107.872 323.327 107.924 323.488C108.085 323.643 108.241 323.799 108.402 323.955C108.549 324.12 108.696 324.289 108.847 324.454C109.008 324.61 109.169 324.766 109.33 324.921C109.482 325.077 109.638 325.237 109.789 325.393C110.13 325.685 110.466 325.977 110.807 326.27C111.115 326.435 111.427 326.595 111.735 326.76C112.171 327.354 112.611 327.948 113.046 328.542C113.221 328.377 113.401 328.212 113.577 328.047C112.971 327.609 112.369 327.165 111.763 326.727C111.451 326.567 111.134 326.411 110.821 326.251L110.826 326.255Z" fill="#3B576B"/>
<path d="M126.008 336.59C125.927 336.487 125.847 336.383 125.766 336.279C125.695 336.345 125.629 336.416 125.558 336.482C125.681 336.543 125.804 336.604 125.927 336.666C126.216 336.85 126.505 337.038 126.794 337.222C126.955 337.288 127.116 337.359 127.276 337.425C127.168 337.302 127.063 337.184 126.955 337.062C126.637 336.901 126.32 336.746 126.003 336.586L126.008 336.59Z" fill="#3B576B"/>
<path d="M130.548 339.169C130.524 339.24 130.5 339.311 130.477 339.381C130.699 339.419 130.917 339.457 131.139 339.499C132.588 340.876 134.226 341.876 136.247 342.092C134.761 340.805 133.156 339.759 131.177 339.457C130.969 339.363 130.756 339.268 130.548 339.174V339.169Z" fill="#3B576B"/>
<path d="M140.697 344.11C140.512 343.988 140.333 343.865 140.153 343.743C139.253 342.856 138.141 342.587 136.806 342.861C137.923 343.295 139.045 343.724 140.162 344.158C140.299 344.2 140.437 344.228 140.579 344.238C140.896 344.393 141.213 344.549 141.535 344.709L141.592 344.643C141.563 344.676 141.535 344.709 141.535 344.709C141.805 344.836 142.07 344.969 142.34 345.096C142.378 344.992 142.42 344.888 142.458 344.785C142.188 344.719 141.918 344.648 141.644 344.582C141.327 344.426 141.014 344.271 140.697 344.11Z" fill="#3B576B"/>
<path d="M365.757 181.426C365.974 181.468 366.192 181.506 366.41 181.548C366.528 181.605 366.642 181.661 366.76 181.718C366.656 181.647 366.552 181.581 366.448 181.51C366.244 181.411 366.041 181.312 365.837 181.209C365.813 181.279 365.79 181.35 365.761 181.421L365.757 181.426Z" fill="#3B576B"/>
<path d="M353.936 174.094C353.69 174.061 353.439 174.028 353.193 173.99C353.401 174.118 353.614 174.245 353.822 174.377C353.86 174.283 353.898 174.188 353.941 174.094H353.936Z" fill="#3B576B"/>
<path d="M173.825 126.328C173.801 126.338 173.778 126.347 173.754 126.357C173.754 126.366 173.745 126.38 173.74 126.39C173.754 126.39 173.768 126.385 173.778 126.38C173.792 126.361 173.806 126.342 173.82 126.324L173.825 126.328Z" fill="#3B576B"/>
<path d="M173.967 126.149C173.92 126.21 173.872 126.267 173.825 126.328C173.863 126.314 173.901 126.295 173.929 126.272C173.958 126.248 173.958 126.192 173.967 126.149Z" fill="#3B576B"/>
<path d="M211.497 118.544C211.389 118.473 211.284 118.403 211.176 118.332H211.171C211.171 118.332 211.157 118.351 211.147 118.36C211.265 118.422 211.379 118.483 211.497 118.544Z" fill="#3B576B"/>
<path d="M364.923 133C365.491 134.112 366.239 134.909 367.48 134.853C367.598 134.64 367.716 134.428 367.835 134.216C366.907 133.749 365.979 133.278 365.051 132.811C364.895 132.722 364.744 132.637 364.587 132.547C364.701 132.698 364.81 132.849 364.923 133Z" fill="#3B576B"/>
<path d="M274.667 143.099C274.714 143.141 274.757 143.217 274.804 143.221C274.851 143.221 274.908 143.155 274.946 143.127C274.903 143.08 274.866 143.005 274.818 143C274.771 142.995 274.714 143.066 274.667 143.099Z" fill="#3B576B"/>
<path d="M419.425 96.1864C419.397 96.2383 419.363 96.2901 419.335 96.342C419.373 96.2949 419.406 96.2524 419.444 96.2053C419.6 96.0497 419.761 95.8894 419.917 95.7338C419.946 95.6914 419.974 95.6536 420.007 95.6112C419.974 95.6442 419.936 95.6819 419.903 95.7149C419.903 95.7149 419.903 95.7149 419.913 95.7244L419.903 95.7149C419.747 95.8705 419.586 96.0261 419.43 96.1864H419.425Z" fill="#3B576B"/>
<path d="M255.826 35.9971C256.858 34.658 257.951 33.3568 258.903 31.9612C259.575 30.9711 260.148 29.9574 261.478 29.7641C263.949 29.4057 266.425 29.0521 268.896 28.6938C273.942 28.4439 278.993 28.1987 284.153 27.9441C282.604 29.7861 281.9 31.2351 282.042 32.2912C282.549 31.452 282.819 30.4524 283.477 30.0045C285.659 28.5146 287.978 27.2228 290.241 25.8555C292.338 27.2369 294.35 28.7032 295.382 31.1219C293.735 30.8108 292.088 30.5043 290.44 30.1931C290.398 30.4336 290.36 30.674 290.317 30.9145C292.192 31.2445 294.062 31.5793 295.936 31.9093C296.608 32.0838 297.29 32.4279 297.953 32.3949C299.269 32.3242 299.993 33.022 300.538 34.0168C302 36.6807 303.43 39.3587 304.869 42.0367C305.38 42.9844 305.679 44.1631 306.431 44.8421C307.738 46.0113 309.324 46.8694 310.843 47.8925C310.82 48.3074 310.786 48.8355 310.749 49.4909C311.601 48.9439 312.188 48.3593 312.888 48.1519C315.274 47.4446 317.712 46.9024 320.108 46.2282C321.239 45.9123 322.342 45.4786 323.426 45.0212C324.093 44.743 324.647 44.2951 324.155 43.5313C322.593 44.0971 321.13 44.6535 319.653 45.1532C318.479 45.5493 317.305 46.016 316.088 46.2188C313.409 46.6667 310.753 47.0627 308.348 45.0684C307.08 44.017 306.46 42.7581 305.787 41.3248C304.344 38.2555 302.602 35.3228 300.893 32.3808C300.623 31.9187 299.936 31.6076 299.378 31.4237C298.729 31.2115 298.005 31.2162 297.872 31.1974C296.963 29.7546 296.523 28.3779 295.581 27.7178C293.962 26.5863 292.021 25.9073 290.218 25.0398C289.74 25.0304 289.261 25.0257 288.783 25.0162L288.802 24.9974C288.75 24.9644 288.703 24.9314 288.651 24.8984C288.693 24.9361 288.731 24.9738 288.774 25.0115C287.676 25.4594 286.577 25.9026 285.484 26.3505C283.756 24.922 281.895 25.3887 280.087 26.0865C279.708 26.2327 279.538 26.9069 279.273 27.3407C276.574 27.2086 273.876 27.0625 271.173 26.9588C270.733 26.9399 270.283 27.1049 269.833 27.1851C267.017 26.7702 264.37 27.3076 261.857 28.6042C261.757 28.6561 261.582 28.5524 261.407 28.5146C261.45 28.1799 261.492 27.8404 261.568 27.2699C260.796 27.5858 259.868 27.6707 259.584 28.1375C258.103 30.5844 256.792 33.1257 255.419 35.6387C255.315 35.865 255.206 36.0866 255.101 36.3129C253.951 36.9494 252.981 37.7227 252.815 39.1418L252.824 39.1513C253.767 38.2083 254.709 37.2606 255.655 36.3177C255.736 36.2234 255.793 36.1196 255.826 35.9971Z" fill="#3B576B"/>
<path d="M355.849 175.207L355.787 175.061L355.697 175.188L355.849 175.207Z" fill="#3B576B"/>
<path d="M124.796 335.803C124.739 335.803 124.678 335.878 124.616 335.921C124.668 335.973 124.72 336.058 124.777 336.062C124.834 336.062 124.895 335.987 124.957 335.944C124.905 335.893 124.853 335.808 124.796 335.803Z" fill="#3B576B"/>
<path d="M356.781 175.674L356.729 175.546L356.649 175.659L356.781 175.674Z" fill="#3B576B"/>
<path d="M127.901 337.807C127.958 337.859 128.01 337.953 128.067 337.958C128.124 337.958 128.19 337.877 128.252 337.835C128.2 337.778 128.148 337.722 128.095 337.67C128.024 337.722 127.963 337.764 127.901 337.811V337.807Z" fill="#3B576B"/>
<path d="M361.027 177.932L360.881 177.979L361.013 178.059L361.027 177.932Z" fill="#3B576B"/>
<path d="M364.81 180.28L364.654 180.336L364.796 180.426L364.81 180.28Z" fill="#3B576B"/>
<path d="M143.249 345.228C143.187 345.228 143.126 345.308 143.059 345.35C143.116 345.402 143.173 345.487 143.234 345.492C143.296 345.492 143.358 345.412 143.424 345.369C143.367 345.317 143.31 345.233 143.249 345.228Z" fill="#3B576B"/>
<path d="M252.82 39.1371C252.664 39.2974 252.503 39.453 252.346 39.6133L252.356 39.6228C252.517 39.4672 252.673 39.3069 252.834 39.1513L252.82 39.1371Z" fill="#3B576B"/>
<path d="M536.031 254.595C536.693 254.703 537.351 254.807 538.014 254.915L538 254.298C537.441 254.326 536.878 254.354 536.319 254.383C536.225 254.453 536.125 254.524 536.031 254.6V254.595Z" fill="#3B576B"/>
<path d="M534.539 254.383C534.587 254.43 534.634 254.505 534.686 254.51C534.738 254.51 534.79 254.439 534.842 254.397C534.795 254.35 534.748 254.274 534.696 254.27C534.643 254.27 534.591 254.34 534.539 254.383Z" fill="#3B576B"/>
<path d="M367.579 182.227C367.66 182.317 367.74 182.402 367.821 182.491C368.005 182.75 368.19 183.01 368.379 183.269C368.469 183.18 368.559 183.095 368.649 183.005C368.389 182.821 368.124 182.637 367.863 182.453C367.769 182.378 367.679 182.303 367.584 182.227H367.579Z" fill="#3B576B"/>
<path d="M327.152 41.0419C327.189 41.0089 327.232 40.9806 327.27 40.9476C327.218 40.9665 327.171 40.9901 327.118 41.0089C326.957 41.1692 326.801 41.3295 326.64 41.4898C326.621 41.5181 326.607 41.5464 326.588 41.57C326.612 41.5511 326.64 41.5323 326.664 41.5134C326.825 41.3531 326.986 41.1975 327.147 41.0372L327.152 41.0419Z" fill="#3B576B"/>
<path d="M446.209 189.158C446.153 189.158 446.091 189.243 446.03 189.295L446.2 189.45C446.261 189.403 446.318 189.351 446.38 189.304C446.323 189.252 446.266 189.163 446.209 189.158Z" fill="#3B576B"/>
<path d="M415.728 195.9C415.785 195.952 415.841 196.046 415.903 196.046C415.964 196.046 416.031 195.966 416.092 195.919C416.035 195.867 415.979 195.773 415.917 195.773C415.856 195.773 415.789 195.853 415.728 195.9Z" fill="#3B576B"/>
<path d="M190.583 72.8811C190.645 72.9329 190.706 72.9801 190.768 73.032C190.749 72.9942 190.735 72.9565 190.706 72.9235C190.682 72.8952 190.626 72.8952 190.583 72.8811Z" fill="#3B576B"/>
<path d="M190.772 73.032C190.782 73.0555 190.791 73.0791 190.806 73.1027C190.829 73.1498 190.858 73.197 190.881 73.2441C190.862 73.1875 190.848 73.131 190.829 73.0744C190.81 73.0602 190.791 73.0414 190.772 73.0272V73.032Z" fill="#3B576B"/>
<path d="M601.013 228.432C601.055 228.371 601.103 228.31 601.145 228.244C601.108 228.258 601.07 228.277 601.041 228.3C601.013 228.324 601.022 228.385 601.013 228.428V228.432Z" fill="#3B576B"/>
<path d="M240.725 47.8454C240.677 47.9161 240.625 47.9916 240.578 48.0623C240.625 48.0434 240.668 48.0246 240.706 47.9963C240.734 47.9727 240.725 47.8973 240.729 47.8454H240.725Z" fill="#3B576B"/>
<path d="M480.237 220.535C480.289 220.535 480.346 220.469 480.402 220.431C480.35 220.389 480.303 220.313 480.251 220.309C480.199 220.309 480.142 220.375 480.085 220.412C480.137 220.455 480.185 220.53 480.237 220.535Z" fill="#3B576B"/>
<path d="M308.599 51.7964C308.557 51.9379 308.509 52.084 308.467 52.2255C308.557 52.1264 308.647 52.0274 308.737 51.9284C308.789 51.7775 308.836 51.6267 308.888 51.4758C308.793 51.5795 308.699 51.688 308.599 51.7917V51.7964Z" fill="#3B576B"/>
<path d="M351.489 258.588C352.426 258.343 353.387 258.164 354.291 257.829C354.859 257.617 355.536 257.282 355.815 256.801C356.814 255.057 358.443 255.132 359.882 255.58C361.354 256.042 362.68 256.023 364.19 255.962C366.083 255.882 367.21 254.567 368.786 254.109C372.375 254.27 375.968 254.43 379.556 254.604C380.02 254.628 380.687 254.557 380.905 254.821C382.571 256.858 384.375 255.811 386.25 255.264C387.49 254.901 388.82 254.864 390.113 254.675C391.22 256.038 392.806 256.259 394.406 256.434C397.729 257.329 401.081 258.084 403.77 260.521C404.437 261.13 405.63 261.285 406.615 261.394C407.983 261.545 409.384 261.469 410.767 261.455C410.961 261.455 411.15 261.257 411.534 261.049C410.681 260.611 410.146 260.333 409.294 259.894C409.787 259.762 410.156 259.663 410.53 259.564C410.388 259.343 410.241 259.121 410.099 258.9C409.408 259.074 408.608 259.079 408.054 259.451C406.269 260.644 405.583 260.597 404.073 259.281C403.088 258.423 401.99 257.485 400.778 257.131C398.7 256.523 396.499 256.344 394.349 255.986C392.958 255.524 391.561 255.066 390.169 254.604C388.754 252.761 388.617 252.789 386.529 253.562C385.076 254.1 383.547 255.17 382.027 253.496C381.752 253.195 380.995 253.294 380.455 253.279C379.054 253.251 377.648 253.204 376.247 253.265C373.766 253.383 371.286 253.576 368.81 253.737C367.589 253.954 366.377 254.218 365.151 254.373C363.849 254.543 362.443 254.963 361.25 254.647C358.826 254.006 356.686 254.609 354.447 255.326C354.585 255.774 354.689 256.104 354.798 256.457C353.207 256.481 351.602 256.839 350.334 255.547C349.316 253.859 346.376 252.822 344.359 253.426C346.111 254.138 347.877 254.854 349.642 255.571C349.822 255.99 349.997 256.405 350.229 256.952C348.975 257.315 347.735 257.674 346.551 258.018C346.774 258.381 346.911 258.598 347.048 258.819C348.388 258.909 349.728 259.003 351.067 259.093C351.209 258.923 351.347 258.758 351.489 258.588ZM390.122 254.656L390.16 254.609C390.16 254.609 390.136 254.642 390.122 254.656Z" fill="#3B576B"/>
<path d="M441.939 202.803C440.197 202.133 438.668 202.006 437.092 202.638V207.517C438.531 207.588 439.833 207.654 441.135 207.72C441.172 207.56 441.206 207.4 441.244 207.239C440.216 206.985 439.184 206.735 438.034 206.452C437.665 203.647 440.581 204.156 441.939 202.798V202.803Z" fill="#3B576B"/>
</svg>
