<svg width="257" height="138" viewBox="0 0 257 138" fill="none" xmlns="http://www.w3.org/2000/svg">
<g opacity="0.7">
<path d="M173.621 22.5941L173.609 22.5726C173.532 22.4648 173.455 22.3539 173.378 22.2461C173.211 21.6857 173.041 21.1282 172.878 20.5647C172.792 20.2629 172.751 19.9426 172.628 19.6562C171.925 18.024 170.811 16.6566 169.82 15.2369C169.012 15.2708 168.293 15.2985 167.574 15.3262C166.939 15.1291 166.248 15.1045 165.587 14.6734C165.748 13.3584 164.899 12.5207 164.042 11.7015C163.616 11.2981 163.15 10.9378 162.7 10.5621C161.552 9.61045 160.401 8.66192 159.257 7.71032C157.52 6.2629 155.789 4.81239 153.759 3.77148C153.561 3.66985 153.308 3.56822 153.209 3.39577C152.96 2.95538 152.58 2.94614 152.161 2.94306C150.019 2.93074 147.918 3.13708 146.024 3.98089C145.493 3.83615 145.061 3.68217 144.62 3.61134C144.136 3.53127 143.639 3.52819 143.075 3.48507C142.862 2.87839 142.633 2.29326 142.448 1.69581C141.918 -0.0195381 141.924 -0.0102992 140.082 0.00201934C139.471 0.00817859 138.913 0.0913285 138.477 0.56867C137.447 1.21539 136.435 1.89599 135.38 2.50267C133.418 3.62674 131.44 4.72308 129.447 5.79171C128.91 6.0812 128.429 6.4138 128.123 6.91886C127.676 7.65797 127.025 8.08911 126.257 8.41863C125.134 8.89906 124.017 9.38564 122.906 9.89377C122.332 10.1555 121.842 10.5066 121.438 11.0394C120.953 11.683 120.296 12.1943 119.741 12.7886C119.324 13.2352 118.825 13.5031 118.254 13.6879C117.523 13.925 116.807 14.2052 116.085 14.4639C115.681 14.6087 115.425 14.8704 115.239 15.277C114.946 15.9329 114.61 16.5827 114.212 17.1802C113.487 18.2704 112.611 19.2589 112.049 20.4569C111.886 20.8049 111.568 20.8203 111.235 20.7587C111.179 20.4045 111.133 20.0473 111.065 19.6931C110.963 19.1696 110.673 18.7723 110.164 18.5937C109.334 18.3042 108.653 17.7992 108.011 17.2202C107.514 16.7737 106.974 16.7798 106.382 17.0785C105.089 17.7253 103.79 18.3597 102.479 18.9663C101.825 19.2682 101.158 19.5854 100.464 19.7486C99.1531 20.0565 98.0115 20.6263 97.052 21.5625C96.4535 21.8735 95.8457 21.6857 95.241 21.5902C94.8492 21.5286 94.4542 21.4116 94.1334 21.7719C94.0562 21.7934 94.0161 21.8427 94.0161 21.9228C93.939 22.046 93.8619 22.1692 93.7847 22.2923L93.7786 22.2985C93.6953 22.3878 93.612 22.4771 93.5287 22.5664L93.5132 22.5818C91.875 23.9338 90.2213 25.2673 88.6046 26.6469C87.3983 27.6724 86.2228 28.738 85.0659 29.8189C83.3443 31.4234 81.6382 33.0402 79.9505 34.6817C79.1731 35.4393 78.5036 36.2923 78.0007 37.2655L77.9914 37.2809C77.9235 37.3671 77.8557 37.4533 77.7878 37.5396C77.0597 38.485 76.3346 39.4274 75.5849 40.4005C75.0327 40.1049 74.5236 39.8246 74.0084 39.5567C73.6073 39.3504 73.4345 39.5906 73.3234 39.9324C71.0157 42.236 69.072 44.8229 67.3659 47.5915L67.3597 47.6007C67.2856 47.69 67.2147 47.7793 67.1406 47.8686C66.1935 49.0728 65.2432 50.2769 64.296 51.481C64.4904 52.642 64.6817 53.8 64.8761 54.9548C64.8977 55.6786 64.9223 56.4023 64.9439 57.126C64.947 57.3015 64.9501 57.474 64.9563 57.6495C64.9871 58.0221 65.0211 58.3979 65.0519 58.7705C65.0828 58.8968 65.1105 59.0199 65.1414 59.1462C65.1445 59.3433 65.1476 59.5404 65.1507 59.7375C65.1599 59.8699 65.1692 60.0023 65.1784 60.1317C65.1599 60.529 65.1414 60.9262 65.1229 61.3235C64.9655 61.4559 64.8051 61.5884 64.6478 61.7208L64.6262 61.7362C64.2467 61.9579 63.824 62.1304 63.497 62.4106C62.8491 62.968 62.1086 63.3499 61.3466 63.7102C61.072 63.8396 60.8128 63.9997 60.5444 64.1444L60.5259 64.1506C60.2852 64.2553 60.0415 64.36 59.8008 64.4616L59.7268 64.4894C59.5695 64.5694 59.4121 64.6495 59.2517 64.7326C58.4094 65.0683 57.6659 65.558 56.9964 66.1616C56.6292 66.4911 56.3114 66.8607 56.2158 67.3811C56.0307 68.3912 55.8209 69.3983 55.6234 70.4084C55.7067 70.5008 55.79 70.5901 55.8703 70.6825C56.1387 70.0635 56.4781 69.463 56.6632 68.8193C57.1475 67.1255 58.3446 66.0784 59.77 65.2131C60.1155 65.0037 60.4858 64.8281 60.8437 64.6372C60.9239 64.5817 61.0041 64.5263 61.0843 64.4709L61.1182 64.4524C62.3184 63.9781 63.3828 63.2791 64.3886 62.4845C64.4812 62.4291 64.5737 62.3706 64.6663 62.3151C64.7557 62.3059 64.836 62.2751 64.9069 62.2228C64.9964 62.2351 65.0889 62.2474 65.1784 62.2597L65.2062 62.2905C65.2895 62.3675 65.3697 62.4445 65.453 62.5184L65.5024 62.5461C66.2953 62.8479 67.0326 63.239 67.6528 63.8365C67.8101 63.9874 68.023 64.0859 68.2266 64.1722C68.3809 64.2368 68.4796 64.4832 68.7696 64.3569C68.3315 63.9042 67.9521 63.4608 67.5201 63.0789C67.1561 62.7586 66.7241 62.5122 66.323 62.2351C66.249 62.0719 66.175 61.9117 66.1009 61.7485C66.0639 61.6561 66.0238 61.5637 65.9868 61.4713C65.9466 61.0094 65.9065 60.5444 65.8664 60.0824C65.8387 59.9562 65.8109 59.8299 65.7831 59.7036C65.6937 58.9122 65.6042 58.1176 65.5116 57.3262C65.5271 57.2984 65.561 57.2646 65.5548 57.243C65.5363 57.1845 65.5024 57.1321 65.4777 57.0767C65.453 56.8149 65.4283 56.5532 65.4036 56.2945C65.3913 56.2082 65.382 56.122 65.3697 56.0327C65.3203 55.8264 65.271 55.617 65.2216 55.4106C65.2802 55.3306 65.271 55.2536 65.1969 55.1858C65.2309 55.0996 65.2216 55.0195 65.1784 54.9394C65.0704 53.9601 64.9625 52.9839 64.8606 52.0723C66.0083 50.7789 66.8475 49.353 67.6775 47.9179C67.8502 47.7146 68.0384 47.5237 68.1896 47.3051C68.7758 46.4582 69.3342 45.5928 69.9297 44.752C70.991 43.2553 72.1572 41.8449 73.453 40.5884C73.7307 40.6561 73.9467 40.7085 74.1626 40.7609L74.2428 40.7855C74.3971 40.8717 74.5545 40.9579 74.7087 41.0442L74.755 41.0719C74.9586 41.3213 75.3227 41.4692 75.2579 41.8849C75.2733 42.0635 75.2887 42.2452 75.3042 42.4239C75.3751 42.5224 75.4492 42.6209 75.5201 42.7226C75.5479 42.8827 75.5726 43.0429 75.6004 43.2061C75.733 43.203 75.8688 43.1999 76.0014 43.1968C76.0014 42.6487 76.1033 42.1313 76.3994 41.6509C76.5352 41.4291 76.6648 41.1427 76.6432 40.8994C76.5845 40.302 76.8807 39.8647 77.1676 39.4089C77.5255 38.8392 77.8865 38.2694 78.2444 37.6966C78.3431 37.6073 78.4696 37.5303 78.5406 37.4225C79.8426 35.4362 81.5271 33.7886 83.2764 32.2149C86.1673 29.6157 88.9656 26.9056 92.0292 24.5004C92.7049 23.9707 93.3343 23.3856 93.9853 22.8282C94.5468 22.511 95.133 22.6958 95.713 22.745C96.4195 22.8036 97.015 22.6742 97.5271 22.0798C98.2799 21.2052 99.2857 20.7187 100.415 20.4261C101.282 20.2013 102.115 19.8317 102.939 19.4683C104.216 18.9048 105.472 18.295 106.78 17.6852C107.196 17.9532 107.563 18.2057 107.946 18.4336C108.409 18.7107 108.856 19.0711 109.362 19.2035C110.093 19.3944 110.427 19.7886 110.513 20.5031C110.562 20.9004 110.584 21.3869 110.818 21.661C111.195 22.1014 111.241 22.6465 111.506 23.1115C111.587 23.1115 111.667 23.1084 111.747 23.0992L111.756 23.0561C111.772 22.9637 111.79 22.8682 111.806 22.7758C111.83 22.6865 111.852 22.5941 111.877 22.5048C112.302 21.3623 112.79 20.2413 113.503 19.2558C114.425 17.9747 115.4 16.7367 115.934 15.3108C116.548 15.0768 117.041 14.8335 117.563 14.7011C119.136 14.3038 120.244 13.2721 121.246 12.0834C121.333 11.9787 121.41 11.8678 121.503 11.7693C121.592 11.6738 121.688 11.5291 121.796 11.5106C122.771 11.3566 123.48 10.6575 124.35 10.291C125.223 9.92457 126.056 9.46263 126.923 9.07459C127.729 8.71428 128.432 8.29853 128.71 7.3654C128.855 6.88806 129.259 6.5801 129.703 6.30601C132.471 4.59682 135.466 3.29106 138.172 1.471C138.925 0.962862 139.813 0.775005 140.696 0.922827C140.893 1.36321 141.057 1.72969 141.22 2.09308C141.677 3.2849 142.127 4.47671 142.59 5.66545C142.636 5.78247 142.751 5.87486 142.834 5.97649C142.948 6.5339 143.284 6.95273 143.676 7.33769C144.484 8.13531 145.327 8.8775 146.317 9.45955C147.017 9.86914 147.65 10.3958 148.313 10.8669C147.931 11.4798 148.137 12.1049 148.363 12.6747C148.616 13.3152 148.566 13.8819 148.329 14.5009C147.357 17.0231 146.419 19.5546 145.456 22.0798C145.364 22.3262 145.243 22.5941 145.055 22.7666C144.913 22.899 144.648 22.8959 144.423 22.9575C144.358 23.5519 144.296 24.1124 144.235 24.676C144.956 24.9008 144.972 23.9985 145.558 24.0354C145.882 24.174 146.252 24.3341 146.626 24.4974C146.98 24.7653 147.326 25.0548 147.693 25.3011C149.168 26.2866 150.393 27.5431 151.543 28.8704C151.676 29.0244 151.793 29.2893 151.753 29.4648C151.713 29.6403 151.466 29.7697 151.309 29.9206C151.543 29.9329 151.738 30.0006 151.886 30.1361C151.738 30.0006 151.54 29.9329 151.309 29.9206C151.053 30.1423 151.059 30.3425 151.337 30.5519C151.51 30.6812 151.658 30.8475 151.815 30.9954C152.194 31.9808 152.574 32.9663 152.953 33.9549C154.058 36.8035 154.524 39.8585 155.761 42.6795C155.829 42.4608 155.844 42.2514 155.792 42.0605C155.236 40.0156 154.694 37.9646 154.101 35.932C153.876 35.1621 153.743 34.3398 153.213 33.6839C152.867 32.7846 152.518 31.8854 152.173 30.983C152.151 30.8106 152.13 30.635 152.108 30.4626C152.349 30.0961 152.373 29.7296 152.219 29.3046C151.929 28.5163 151.426 27.8849 150.828 27.3275C150.266 26.804 149.686 26.2959 149.081 25.8216C148.375 25.2642 147.631 24.753 146.906 24.2202C146.533 23.8414 146.046 23.5735 145.771 23.0222C145.876 22.6989 145.978 22.3601 146.101 22.0275C147.073 19.4191 148.039 16.8075 149.035 14.2052C149.297 13.5216 149.378 12.8379 149.412 12.1111C149.439 11.526 149.205 11.178 148.791 10.8669C148.452 10.5097 148.147 10.1063 147.761 9.80754C147.048 9.25629 146.32 8.69888 145.533 8.26465C144.515 7.70108 143.719 6.95273 143.127 5.96417C143.053 5.48991 142.979 5.01257 142.896 4.46748C143.781 4.2827 144.571 4.27962 145.348 4.5691C145.842 4.75388 146.317 4.76928 146.789 4.51675C147.684 4.03941 148.674 3.91314 149.655 3.753C150.189 3.75608 150.723 3.753 151.253 3.76532C151.543 3.77148 151.926 3.60826 152.062 4.01169C152.161 4.30733 151.88 4.47671 151.692 4.66149C151.63 4.72308 151.593 4.80623 151.543 4.88014C151.54 4.92018 151.537 4.96021 151.534 5.00025C151.534 4.96021 151.537 4.92018 151.543 4.88014C150.92 5.10804 150.294 5.32053 149.68 5.57306C149.371 5.70241 149.208 5.97341 149.242 6.32449C149.322 7.19294 149.402 8.0614 149.486 8.92985C149.535 8.75431 149.584 8.57569 149.634 8.40016C149.658 8.37552 149.708 8.34472 149.705 8.32317C149.695 8.25541 149.665 8.19074 149.643 8.12607C149.729 6.93118 150.29 5.98573 151.324 5.28974C151.398 5.24046 151.463 5.18195 151.534 5.12651C151.756 5.01565 151.975 4.89246 152.207 4.797C152.435 4.70461 152.673 4.63993 152.907 4.56602C155.15 5.82559 157.199 7.35 159.112 9.06228C159.51 9.41951 159.957 9.72439 160.38 10.0539L160.414 10.134C160.414 10.134 160.497 10.1432 160.5 10.1432C160.531 10.2387 160.599 10.2941 160.7 10.3034C160.821 10.3958 160.944 10.4912 161.065 10.5836L161.095 10.6082C161.179 10.6791 161.259 10.7499 161.342 10.8238L161.413 10.8731C161.441 10.9686 161.506 11.0209 161.608 11.0271C161.638 11.1071 161.697 11.1503 161.786 11.1533L161.796 11.2149L161.854 11.2057C161.925 11.2673 161.996 11.332 162.067 11.3936C162.188 11.4921 162.305 11.5876 162.425 11.683L162.444 11.6984C162.53 11.7723 162.616 11.8463 162.703 11.9202L162.764 11.9633C162.835 12.0218 162.906 12.0803 162.974 12.1388C162.98 12.2066 163.017 12.2374 163.085 12.2343C163.101 12.3298 163.156 12.3821 163.252 12.3944C163.258 12.4683 163.298 12.5053 163.372 12.5084C163.385 12.5946 163.434 12.6439 163.523 12.6562C163.536 12.7363 163.585 12.7794 163.665 12.7855C163.668 12.8625 163.709 12.8933 163.783 12.8841C163.844 12.9457 163.909 13.0042 163.971 13.0658C163.965 13.1428 163.999 13.1828 164.076 13.1921C164.066 13.2629 164.097 13.306 164.165 13.3214C164.227 13.4015 164.286 13.4785 164.347 13.5554L164.375 13.5986C164.449 13.7002 164.526 13.8049 164.6 13.9065C164.637 13.9897 164.674 14.0697 164.711 14.1529C164.782 14.273 164.853 14.3962 164.924 14.5163C164.995 14.6672 165.063 14.8181 165.134 14.969C165.196 15.3016 165.467 15.3724 165.732 15.4155C166.751 15.5849 167.769 15.7358 168.947 15.9206C169.358 16.7459 169.833 17.6945 170.289 18.6091C170.289 18.6091 170.268 18.5537 170.286 18.5198C170.302 18.4859 170.367 18.4397 170.388 18.449C170.502 18.4982 170.65 18.5321 170.709 18.6245C171.15 19.2989 171.576 19.9857 172.005 20.6663C172.066 20.7987 172.131 20.9311 172.193 21.0636C172.242 21.2976 172.295 21.5286 172.344 21.7596C172.397 21.852 172.452 21.9474 172.505 22.0398V22.046C172.696 22.2769 172.887 22.511 173.078 22.745C173.328 23.0037 173.581 23.2624 173.831 23.5211C173.844 23.3179 173.853 23.1146 173.865 22.9083L173.822 22.8498C173.754 22.7604 173.683 22.6742 173.615 22.588L173.621 22.5941ZM150.565 3.53435C150.923 3.50971 151.281 3.54359 151.633 3.54975C151.281 3.54359 150.92 3.50971 150.565 3.53435ZM150.411 3.54667C150.411 3.54667 150.43 3.54667 150.436 3.54667C150.427 3.54667 150.417 3.54667 150.411 3.54667Z" fill="#3B576B"/>
<path d="M120.105 53.415C120.012 53.1348 119.972 52.7714 120.071 52.5035C120.262 51.9768 120.114 51.5365 119.911 51.0745C119.691 50.5818 119.559 50.0336 119.256 49.5963C118.359 48.2998 118.457 46.9817 119.034 45.6236C119.074 45.5435 119.102 45.4542 119.155 45.3834C119.596 44.8044 119.574 44.2593 119.118 43.6834C118.815 43.2985 118.593 42.8519 118.325 42.4392C118.041 42.0019 117.785 41.5338 117.202 41.1581C117.189 41.423 117.128 41.6047 117.189 41.7186C117.399 42.1128 117.637 42.4947 117.893 42.8581C118.494 43.7019 118.988 44.5827 118.966 45.6605C118.581 45.8238 118.51 46.2025 118.377 46.5321C118.056 47.3112 117.948 48.0719 118.399 48.8757C118.794 49.584 119.087 50.3508 119.392 51.1053C119.525 51.4317 119.695 51.8198 119.627 52.1339C119.488 52.7899 119.67 53.3812 119.772 54.0002C119.941 55.0226 120.093 56.0481 120.231 57.0767C120.259 57.2954 120.222 57.5294 120.179 57.7481C119.926 59.0785 119.704 60.415 119.398 61.73C119.071 63.1343 118.862 64.5725 118.331 65.9275C118.133 66.4326 117.954 66.9438 117.766 67.452C117.445 67.9324 117.288 68.4652 117.199 69.1242C117.643 68.9117 117.834 68.5853 118.029 68.265C118.066 68.1726 118.1 68.0771 118.137 67.9847C118.155 67.8092 118.174 67.6367 118.192 67.4612C118.334 67.184 118.516 66.9223 118.609 66.6328C119.272 64.5325 119.744 62.3798 120.213 60.2302C120.309 59.7929 120.469 59.3495 120.463 58.9091C120.441 57.0736 120.71 55.2166 120.108 53.412L120.105 53.415Z" fill="#3B576B"/>
<path d="M213.77 137.455C213.02 137.313 212.261 137.233 211.502 137.128C210.746 137.024 209.987 136.928 209.234 136.802C207.775 136.559 206.316 136.297 204.856 136.038C203.487 135.795 202.117 135.552 200.747 135.305C199.596 135.096 198.455 134.843 197.298 134.686C196.699 134.606 194.876 134.024 194.373 133.704C194.999 133.602 197.338 133.396 197.338 133.396C197.338 133.396 196.594 133.076 196.208 133.045C195.866 133.017 193.052 133.165 192.83 132.78L195.261 132.722C195.832 132.709 196.403 132.694 196.971 132.681C197.557 132.688 198.143 132.709 198.729 132.688C198.862 132.681 198.988 132.531 199.297 132.333C198.67 132.164 198.248 131.961 197.819 131.952C196.826 131.93 195.841 131.89 194.873 131.668C194.012 131.659 193.148 131.659 192.287 131.641C191.926 131.634 191.565 131.597 191.207 131.561C190.67 131.505 190.137 131.385 189.6 131.382C186.832 131.363 184.065 131.373 181.294 131.37C180.933 131.37 180.542 131.431 180.215 131.317C179.459 131.055 178.694 131.108 177.925 131.105C175.611 131.099 173.298 131.105 170.984 131.099C170.576 131.099 170.138 131.154 169.768 131.028C169.098 130.797 168.426 130.858 167.75 130.831C165.584 130.738 163.4 131.065 161.25 130.572C161.034 130.523 160.796 130.56 160.571 130.56C159.889 130.56 159.21 130.56 158.528 130.557C157.942 130.553 157.359 130.581 156.782 130.363C156.501 130.255 156.156 130.279 155.838 130.292C155.135 130.319 154.502 130.079 153.885 129.796C153.753 129.734 153.663 129.577 153.469 129.377C154.08 129.226 154.549 129.103 155.021 128.995C155.196 128.955 155.378 128.931 155.557 128.934C157.007 128.958 158.424 128.487 159.88 128.638C160.012 128.65 160.164 128.644 160.284 128.592C160.935 128.308 161.623 128.395 162.299 128.382C163.206 128.367 164.14 128.49 165.014 128.315C166.01 128.114 166.991 128.136 167.985 128.102C168.349 128.09 168.738 128.17 169.068 128.065C170.002 127.773 170.953 127.874 171.9 127.816C172.295 127.791 172.684 127.646 173.075 127.557C173.834 127.551 174.593 127.563 175.349 127.529C175.596 127.517 175.84 127.375 176.083 127.292C184.315 127.292 192.546 127.292 200.778 127.292C202.45 127.292 204.125 127.277 205.797 127.271C206.248 127.268 206.695 127.261 207.143 127.258C207.244 127.268 207.343 127.277 207.445 127.286C207.75 127.344 208.053 127.446 208.358 127.458C210.576 127.551 212.795 127.662 215.016 127.692C216.099 127.708 217.185 127.572 218.271 127.489C218.444 127.477 218.626 127.4 218.768 127.301C218.851 127.243 218.866 127.086 218.95 126.883C218.672 126.858 218.462 126.824 218.252 126.821C213.989 126.793 209.725 126.769 205.464 126.75C204.832 126.75 204.196 126.778 203.564 126.793C202.583 126.762 201.598 126.735 200.617 126.707C200.497 126.649 200.377 126.544 200.256 126.544C199.093 126.538 197.927 126.55 196.764 126.556C195.502 126.556 194.243 126.556 192.981 126.556C191.155 126.556 189.328 126.556 187.502 126.556C186.515 126.562 185.524 126.565 184.537 126.568C183.608 126.485 182.674 126.316 181.77 126.704C180.437 126.725 179.104 126.741 177.774 126.778C177.293 126.79 176.79 126.722 176.358 127.033C176.272 127.024 176.185 127.018 176.099 127.018C175.284 126.79 174.464 126.602 173.615 126.802C173.517 127.061 173.43 127.32 173.085 127.292C172.495 127.298 171.872 127.184 171.323 127.335C170.379 127.594 169.435 127.526 168.491 127.557C168.13 127.569 167.738 127.502 167.411 127.616C166.655 127.88 165.89 127.81 165.122 127.825C164.443 127.84 163.73 127.733 163.088 127.896C162.231 128.114 161.382 128.068 160.525 128.102C160.028 128.121 159.531 128.151 159.038 128.198C158.544 128.244 158.056 128.321 157.563 128.37C156.486 128.478 155.406 128.555 154.333 128.687C153.981 128.73 153.632 128.881 153.308 129.035C153.176 129.1 153.04 129.306 153.037 129.451C153.037 129.596 153.163 129.824 153.293 129.879C153.873 130.125 154.456 130.399 155.067 130.526C156.443 130.806 157.844 130.874 159.25 130.831C159.744 130.815 160.241 130.883 160.737 130.929C161.231 130.975 161.722 131.074 162.215 131.086C163.258 131.111 164.304 131.089 165.347 131.095C165.665 131.095 166.01 131.052 166.291 131.157C166.954 131.407 167.633 131.354 168.309 131.354C171.169 131.36 174.029 131.357 176.889 131.366C177.296 131.366 177.7 131.407 178.107 131.447C178.644 131.499 179.181 131.619 179.718 131.622C182.76 131.641 185.802 131.594 188.841 131.65C190.371 131.678 191.901 131.868 193.429 131.992C193.515 131.998 193.598 132.05 193.685 132.081C193.564 132.195 193.46 132.364 193.318 132.414C193.028 132.512 192.704 132.521 192.414 132.62C192.272 132.669 192.093 132.817 192.065 132.952C192.006 133.224 192.238 133.344 192.463 133.377C192.987 133.454 193.518 133.504 194.046 133.562C194.209 133.873 194.376 134.184 194.576 134.566C195.076 134.656 195.604 134.757 196.131 134.84C196.934 134.967 197.742 135.05 198.538 135.207C201.015 135.693 203.487 136.211 205.995 136.537C208.136 136.817 210.441 137.141 212.585 137.384C213.295 137.464 214.023 137.51 214.436 138C214.522 137.84 214.149 138.028 214.236 137.868C214.084 137.717 213.952 137.47 213.776 137.436L213.77 137.455ZM198.43 126.781C197.982 126.682 197.501 126.83 197.06 126.701C197.504 126.83 197.982 126.682 198.43 126.781ZM198.399 126.996C200.121 127.009 201.845 127.021 203.567 127.033C204.06 127.037 204.557 127.015 205.051 127.052C204.56 127.015 204.063 127.037 203.567 127.033C201.845 127.021 200.121 127.009 198.399 126.996C194.589 127.006 190.778 127.018 186.965 127.027C190.775 127.018 194.586 127.009 198.399 126.996ZM193.666 132.062C193.666 132.062 193.666 132.075 193.669 132.084L193.663 132.062H193.666ZM193.907 132.207C194.243 132.195 194.604 132.078 194.842 132.444C194.755 132.454 194.669 132.469 194.586 132.497C194.709 132.685 194.873 132.752 195.064 132.749C194.876 132.749 194.709 132.685 194.586 132.497C194.348 132.423 194.049 132.5 193.904 132.207H193.907Z" fill="#3B576B"/>
<path d="M63.1175 128.228C61.5779 128.219 60.0415 128.361 58.502 128.376C55.463 128.407 52.424 128.367 49.3851 128.419C47.3951 128.453 45.4051 128.592 43.4151 128.684C43.1899 128.672 42.9616 128.647 42.7364 128.653C40.7495 128.724 38.7657 128.623 36.7757 128.872C35.0819 129.084 33.3418 128.854 31.645 129.214C31.5401 129.235 31.4475 129.306 31.2686 129.399C31.4722 129.516 31.5833 129.639 31.6851 129.63C34.2489 129.414 36.8189 129.266 39.392 129.214C41.1598 129.18 42.9277 129.192 44.6924 129.174C45.0904 129.171 45.5162 129.26 45.8587 128.946C52.5752 128.82 59.2887 128.579 66.0083 128.659C65.9065 128.74 65.8109 128.884 65.7029 128.894C64.512 129.007 63.3211 129.109 62.1271 129.195C61.507 129.238 60.8807 129.242 60.2575 129.266C59.7268 129.359 59.1931 129.445 58.6655 129.55C58.6038 129.562 58.5143 129.688 58.5236 129.747C58.5452 129.864 58.5976 130.036 58.6871 130.073C58.9308 130.175 59.1992 130.264 59.4584 130.273C60.0939 130.298 60.7295 130.273 61.3651 130.273C61.3651 130.236 61.3681 130.199 61.3651 130.162C61.3651 130.199 61.3651 130.236 61.3651 130.273C62.3955 130.35 63.4353 130.212 64.4596 130.52C64.836 130.634 65.2617 130.544 65.5702 130.895C65.6381 130.972 65.8171 130.978 65.9436 130.972C66.5729 130.929 67.1992 130.883 67.8256 130.809C68.0415 130.784 68.2606 130.707 68.4519 130.606C68.5321 130.563 68.566 130.39 68.5722 130.273C68.5722 130.215 68.4735 130.116 68.4056 130.101C68.2328 130.061 68.0508 130.036 67.8718 130.036C65.7029 130.036 63.534 130.045 61.3651 130.051C60.9115 130.045 60.4549 130.039 60.0014 130.033C59.9952 129.934 59.989 129.836 59.9829 129.737L60.0199 129.703C60.6524 129.694 61.2879 129.703 61.9173 129.667C62.6362 129.623 63.352 129.503 64.0708 129.482C65.4746 129.442 66.8784 129.439 68.2822 129.448C68.8406 129.451 69.5039 129.439 69.8094 129.057C70.1364 128.644 70.4511 128.672 70.8367 128.647C71.2964 128.616 71.7716 128.718 72.2066 128.422C71.0342 128.422 69.8618 128.422 68.6894 128.422C66.8321 128.355 64.9779 128.244 63.1206 128.231L63.1175 128.228Z" fill="#3B576B"/>
<path d="M226.894 126.599C226.533 126.599 226.169 126.59 225.808 126.615C225.645 126.627 225.435 126.63 225.358 127.04C231.892 126.99 238.353 127.129 244.813 126.858C241.241 126.732 237.668 126.652 234.095 126.608C231.695 126.578 229.295 126.599 226.894 126.599Z" fill="#3B576B"/>
<path d="M108.767 110.447C107.887 110.25 107.061 110.397 106.255 110.767C106.144 110.819 105.999 110.804 105.839 110.825C105.786 109.221 105.734 107.644 105.678 106.067C105.666 105.707 105.663 105.341 105.601 104.986C105.552 104.697 105.425 104.423 105.345 104.173C105.305 106.354 105.268 108.559 104.811 110.733C104.74 111.075 104.679 111.463 105.142 111.734C105.351 111.663 105.626 111.617 105.851 111.491C106.878 110.909 107.952 110.678 109.125 110.902C109.266 110.93 109.439 110.788 109.597 110.724C109.498 110.622 109.402 110.521 109.303 110.422C109.121 110.434 108.933 110.487 108.764 110.447H108.767Z" fill="#3B576B"/>
<path d="M195.104 101.842C194.546 101.636 193.753 101.667 192.855 101.944C193.444 102.393 194.249 102.048 194.795 102.587C194.771 102.8 194.777 103.025 194.715 103.231C194.502 103.918 194.24 104.592 194.04 105.285C193.774 106.194 193.527 107.105 193.318 108.026C193.203 108.534 193.17 109.064 193.5 109.692C193.592 109.44 193.66 109.335 193.663 109.227C193.722 107.995 194.073 106.834 194.481 105.686C194.752 104.922 195.024 104.158 195.277 103.388C195.375 103.089 195.453 102.781 195.499 102.473C195.545 102.172 195.394 101.953 195.104 101.845V101.842Z" fill="#3B576B"/>
<path d="M163.832 88.147C163.946 87.7898 164.091 87.3248 164.248 86.8659C164.415 86.3916 164.468 85.9143 164.332 85.4216C164.363 85.1167 164.369 84.8241 163.894 84.7194C163.872 84.9658 163.854 85.1937 163.835 85.4216C163.631 86.1638 163.44 86.906 163.218 87.642C163.021 88.301 162.931 88.8892 163.749 89.2064C163.9 89.2649 164.008 89.4435 164.125 89.5791C164.915 90.4814 165.492 91.4792 165.492 92.7264C165.625 92.8927 165.726 93.1545 165.899 93.213C166.859 93.5271 167.349 94.1831 167.473 95.1563C167.482 95.224 167.59 95.2764 167.655 95.338C167.673 96.0124 167.667 96.693 167.716 97.3674C167.775 98.1774 167.904 98.9812 167.963 99.788C168.074 101.275 168.154 102.766 168.259 104.253C168.265 104.352 168.386 104.441 168.549 104.669C168.605 104.358 168.667 104.201 168.657 104.047C168.599 102.874 168.444 101.7 168.478 100.53C168.525 98.9319 168.08 97.389 168.062 95.803C168.062 95.5967 167.889 95.3903 167.797 95.184C167.753 94.8729 167.689 94.5619 167.676 94.2478C167.655 93.6904 167.365 93.3085 166.896 93.0652C166.621 92.9205 166.313 92.8465 166.019 92.7388C165.961 92.206 165.902 91.6763 165.84 91.1435C165.8 91.048 165.757 90.9495 165.717 90.854C165.109 89.9825 164.505 89.1079 163.832 88.1409V88.147Z" fill="#3B576B"/>
<path d="M165.933 127.295C166.158 127.295 166.387 127.292 166.612 127.271C166.667 127.264 166.717 127.184 166.775 127.135C166.673 127.095 166.59 127.064 166.507 127.03C166.161 126.599 165.674 126.759 165.242 126.759C157.149 126.75 149.054 126.753 140.961 126.759C140.696 126.759 140.427 126.793 140.162 126.821C140.156 126.821 140.165 126.95 140.168 127.018C140.461 127.443 140.909 127.289 141.294 127.289C149.507 127.298 157.72 127.295 165.933 127.295Z" fill="#3B576B"/>
<path d="M52.8837 73.4018C52.2297 74.4827 51.6065 75.5822 51.0079 76.6908C50.7765 77.122 50.6469 77.6055 50.468 78.0643C50.4279 78.1259 50.4063 78.1937 50.4032 78.2676C50.3538 78.3877 50.3076 78.5078 50.2582 78.6279C49.9805 79.5857 49.7337 80.5496 49.4159 81.495C49.1136 82.3974 48.768 83.2843 49.0118 84.2236C48.6169 84.55 48.1911 84.5562 47.7962 84.5439C46.5312 84.5008 45.254 84.6301 43.9983 84.3468C43.6033 84.2575 43.1868 84.2205 42.7827 84.2236C40.9223 84.2359 39.0588 84.202 37.2046 84.316C35.3781 84.4268 33.5794 84.4422 31.8116 83.9064C31.1328 83.7001 30.559 83.9002 30.0592 84.3591C29.7691 84.627 29.5007 84.9165 29.2076 85.2122C28.9454 85.0767 28.7418 84.9843 28.5505 84.8734C27.1775 84.0758 25.817 83.2628 24.4348 82.4836C24.0892 82.2896 23.6789 82.0617 23.3087 82.0833C22.3152 82.1418 21.3218 82.2773 20.3468 82.4713C19.6434 82.6129 19.0881 83.078 18.9122 83.7894C18.6561 84.8395 18.255 85.8712 18.3538 86.986C18.4186 87.7067 18.4556 88.4273 18.5481 89.1448C18.6284 89.7762 18.4648 90.2843 18.0082 90.7339C17.3603 91.3683 16.7155 92.0089 16.1139 92.6864C15.4536 93.4317 14.7718 94.1739 14.2381 95.0054C13.8431 95.6182 13.368 96.0155 12.7232 96.2834C12.0136 96.576 11.3163 96.8962 10.7487 97.1457C9.76446 99.4369 8.83581 101.596 7.90406 103.755C7.76214 104.087 7.58628 104.407 7.46905 104.749C7.00935 106.08 6.51879 107.419 6.71933 108.851C6.80881 109.492 6.67305 110.003 6.35528 110.517C6.19793 110.681 6.04058 110.844 5.88015 111.01L5.79685 111.084C5.73514 111.146 5.67652 111.207 5.61482 111.269L5.54077 111.358C5.37725 111.512 5.21374 111.669 5.0533 111.823L4.97926 111.888C4.92064 111.953 4.85893 112.014 4.80032 112.079C4.72318 112.128 4.67691 112.199 4.66456 112.291C4.58435 112.399 4.50413 112.507 4.42392 112.615L4.41775 112.624C4.32519 112.803 4.23263 112.978 4.14007 113.157C4.09071 113.249 4.03826 113.341 3.9889 113.434C3.94262 113.6 3.89943 113.766 3.85315 113.933C3.35951 114.204 2.8813 114.515 2.36606 114.74C1.94338 114.921 1.62869 115.177 1.42198 115.58L1.41272 115.596C1.25846 115.697 1.10729 115.796 0.953024 115.898L0.875893 115.919C0.592051 115.91 0.265016 115.771 0.110754 116.165C-0.188514 116.732 0.178629 117.102 0.502579 117.484C1.44049 118.586 2.38457 119.679 3.31015 120.791C3.9673 121.579 4.7417 122.291 4.92372 123.356C5.64567 123.455 6.35836 123.23 7.0402 123.809C6.14239 124.825 4.77872 125.226 4.08454 126.35C4.33753 126.658 4.58743 126.963 4.88362 127.326C5.02245 127.326 5.17054 127.326 5.31864 127.326C5.32172 127.332 5.32789 127.335 5.33098 127.335C5.64567 127.363 5.96345 127.363 6.27814 127.363C16.6013 127.363 26.9246 127.363 37.2478 127.363C37.6087 127.363 37.9759 127.378 38.3307 127.329C38.343 127.329 38.3584 127.323 38.3708 127.32C39.065 127.32 39.7622 127.32 40.4564 127.317C40.4225 127.221 40.3916 127.129 40.3577 127.033C40.3916 127.129 40.4225 127.221 40.4626 127.32C43.4275 127.304 46.3862 127.286 49.345 127.268C49.7522 127.286 50.1564 127.323 50.5636 127.323C63.3365 127.32 76.1125 127.314 88.8854 127.304C89.3389 127.304 89.7924 127.295 90.2429 127.252C90.4002 127.237 90.5483 127.101 90.6995 127.018C90.8723 126.984 91.0481 126.947 91.224 126.913C90.6563 126.778 90.1133 126.778 89.5703 126.778C75.3381 126.769 61.1059 126.762 46.8706 126.759C46.4202 126.759 45.9697 126.812 45.5193 126.839C44.7942 126.827 44.0692 126.802 43.3442 126.799C31.7375 126.784 20.1339 126.769 8.52728 126.756C7.48447 126.756 6.44166 126.784 5.40194 126.799C5.35257 126.876 5.30629 126.953 5.25693 127.027C15.8856 127.03 26.5142 127.033 37.1429 127.04C26.5142 127.037 15.8856 127.033 5.25693 127.027C5.30629 126.95 5.35257 126.873 5.40194 126.799C5.40194 126.495 5.40194 126.187 5.40194 125.854C5.74748 125.691 6.05909 125.5 6.39538 125.392C7.27468 125.112 7.78683 124.425 8.28355 123.732C8.55196 123.356 8.38845 122.913 7.94726 122.756C7.27159 122.513 6.58667 122.285 5.90174 122.069C5.45439 121.931 5.13661 121.684 4.85893 121.29C4.21103 120.372 3.47983 119.513 2.81034 118.611C2.38149 118.035 2.002 117.422 1.60092 116.825C1.41889 116.55 1.55156 116.313 1.69657 116.079C2.05754 115.765 2.39074 115.439 2.84427 115.226C3.39345 114.967 3.884 114.583 4.40232 114.253L4.4486 114.225C4.52881 114.145 4.60595 114.065 4.68616 113.982L4.70467 113.948C4.80032 113.779 4.89287 113.612 4.98851 113.446L4.9916 113.44C5.04713 113.345 5.10267 113.252 5.16129 113.157L5.21991 113.052C5.30629 112.907 5.39268 112.762 5.47907 112.621C5.96654 112.017 6.45092 111.414 6.93838 110.81C7.61714 110.29 8.30823 109.788 8.96539 109.242C9.19678 109.052 9.36647 108.771 9.52073 108.506C9.57009 108.42 9.5269 108.183 9.45594 108.14C9.32327 108.063 9.11039 108.02 8.98081 108.075C8.53654 108.266 8.24653 108.765 7.67884 108.728C7.66033 108.771 7.6449 108.814 7.62948 108.858C7.59863 108.944 7.57086 109.033 7.54618 109.119C7.52149 109.206 7.49681 109.298 7.47213 109.387C7.49681 109.298 7.51841 109.209 7.54618 109.119C7.57086 109.03 7.59863 108.944 7.62948 108.858C7.6449 108.814 7.66033 108.771 7.67884 108.728C7.77757 108.205 7.8763 107.681 7.97503 107.161C8.05216 107.108 8.06141 107.047 8.00279 106.976C8.08301 106.671 8.16322 106.366 8.24344 106.058C8.33291 105.796 8.42238 105.535 8.50877 105.273C8.55813 105.214 8.57665 105.143 8.56122 105.066C8.61675 104.956 8.67229 104.842 8.72782 104.731C8.7525 104.638 8.77719 104.549 8.80187 104.457C8.87283 104.272 8.94687 104.09 9.01783 103.905C9.53924 102.461 10.1409 101.041 10.5574 99.5694C10.8813 98.4237 11.4706 97.7 12.6091 97.3058C13.7352 96.9147 14.7194 96.2711 15.1945 95.0793C15.2593 94.9161 15.3858 94.7744 15.503 94.6358C16.5859 93.3608 17.6534 92.0766 18.7641 90.8263C19.1405 90.4013 19.4027 89.9763 19.4305 89.3943C19.4675 88.5381 19.5015 87.6789 19.6218 86.832C19.7483 85.942 19.9488 85.0613 20.1771 84.1897C20.2512 83.9064 20.4486 83.5615 20.6924 83.4321C21.7228 82.887 22.7996 82.613 23.9041 83.2751C25.9157 84.4854 28.0414 85.5109 29.9327 86.9214C30.0036 86.9737 30.0993 86.9891 30.1826 87.023C30.3492 87.023 30.5189 87.023 30.6947 87.023H30.1826C30.5219 87.1184 30.8613 87.2139 31.1976 87.3094C31.6172 88.0485 32.0337 88.7814 32.4533 89.5298C32.4286 89.8809 31.9257 90.1765 32.2528 90.6015C32.3268 90.6138 32.3731 90.6354 32.4163 90.6261C32.6754 90.5707 32.9315 90.506 33.1845 90.4475C33.527 90.9095 33.6473 90.9803 33.8972 90.8694C34.2026 90.737 34.2767 90.4906 34.1224 90.0687C34.0792 89.9517 33.9928 89.7577 33.9219 89.7577C33.1876 89.7454 33.5331 89.0524 33.2863 88.7599C32.6322 88.5813 32.2003 88.2045 31.9905 87.6297C31.898 87.3771 31.8208 87.1061 31.6727 86.8906C31.5555 86.7212 31.3395 86.6226 31.1668 86.4902L31.1482 86.481C30.9693 86.4101 30.7934 86.3424 30.6176 86.2715C30.3831 86.0929 30.2288 85.8989 30.4386 85.5971C30.8459 85.0027 31.429 84.858 32.1047 84.9319C33.9651 85.1413 35.8008 84.9165 37.655 84.7533C39.4969 84.5901 41.3758 84.547 43.2146 84.7133C44.9732 84.8734 46.7194 85.0181 48.4842 84.935C48.9346 84.9134 49.274 85.052 49.4746 85.4832C49.5486 85.6433 49.6813 85.7757 49.78 85.9174C50.1471 86.0129 50.4958 86.1022 50.8444 86.1915C51.264 86.444 51.6836 86.6965 52.1001 86.946C52.3253 87.8083 53.1707 87.9623 53.763 88.4026C54.6516 89.2773 55.5401 90.1488 56.4379 91.0296C56.367 91.2544 56.3022 91.4669 56.2343 91.6763C55.9937 92.1352 55.9937 92.2799 56.2621 92.4339C56.586 92.6187 56.9192 92.7788 57.2895 92.9697C57.1383 92.6156 56.9995 92.2984 56.8637 91.9781C56.9408 91.2636 56.7927 90.6877 56.151 90.2135C55.6142 89.8162 55.2131 89.2372 54.7411 88.7476C54.5251 88.5258 54.2906 88.3226 54.0623 88.1101L54.0407 88.0978C53.9512 88.0208 53.8618 87.9407 53.7692 87.8637C52.8652 87.2201 52.1587 86.2839 51.0203 85.979C50.7673 85.6649 50.4526 85.3815 50.2706 85.0305C49.8695 84.2698 49.5887 83.4845 49.9404 82.5883C50.1687 82.0063 50.3014 81.3842 50.4248 80.7683C50.5791 79.9768 50.6809 79.173 50.8043 78.3723C51.1714 77.6055 51.5139 76.8233 51.9119 76.0718C52.6925 74.5998 53.4792 73.1369 54.8182 72.0468C55.2563 71.6895 55.7407 71.3015 55.8857 70.6856C55.8024 70.5932 55.7191 70.5039 55.6389 70.4115C55.0156 71.0613 54.3832 71.7049 53.7692 72.364C53.4638 72.6904 53.1306 73.0138 52.8992 73.3926L52.8837 73.4018Z" fill="#3B576B"/>
<path d="M109.927 28.8858C109.803 29.8189 109.735 30.7613 109.689 31.7006C109.652 32.4335 109.967 33.0002 110.646 33.339C110.936 33.4837 111.219 33.6469 111.42 33.7578C111.272 33.6038 111.084 33.3544 110.846 33.1665C110.285 32.723 110.161 32.1256 110.232 31.4758C110.3 30.8537 110.371 30.2193 110.8 29.7081C111.093 29.3601 111.127 28.9844 110.932 28.5809C110.757 28.4793 110.578 28.3746 110.402 28.273C110.238 28.4793 109.958 28.6672 109.93 28.892L109.927 28.8858Z" fill="#3B576B"/>
<path d="M195.024 111.451C195.585 111.577 196.057 111.685 196.532 111.792C196.804 111.891 197.103 111.949 197.344 112.097C197.609 112.26 197.819 112.516 198.063 112.716C199.355 113.779 200.651 114.838 201.947 115.901C202.271 116.307 202.57 116.744 203.391 116.911C203.061 116.289 202.829 115.919 202.265 115.873C201.944 115.506 201.657 115.1 201.293 114.78C200.003 113.649 198.683 112.547 197.378 111.435C197.137 111.173 196.918 110.884 196.647 110.656C196.412 110.459 196.535 110.037 196.104 109.954C195.662 109.871 195.891 109.301 195.591 109.076C195.45 108.968 195.335 108.824 195.19 108.725C195.141 108.691 195.008 108.716 194.956 108.762C194.897 108.811 194.832 108.965 194.857 108.99C195.329 109.464 195.085 109.994 194.999 110.514C194.944 110.856 194.774 111.213 195.03 111.454L195.024 111.451Z" fill="#3B576B"/>
<path d="M111.954 77.1682C111.513 77.3037 111.044 77.4453 110.575 77.5901C110.312 77.6702 110.053 77.741 109.813 77.5377C109.93 77.4084 110.084 77.2975 110.161 77.1497C110.334 76.8079 110.241 76.5707 109.846 76.4968C109.479 76.9742 109.128 77.4145 108.794 77.8703C108.64 78.0797 108.461 78.2953 108.619 78.5879C108.828 78.9482 109.066 78.8127 109.31 78.6279L109.344 78.6187C109.859 78.4986 110.365 78.2707 110.905 78.5786C111.047 78.6587 111.263 78.6587 111.432 78.6279C112.256 78.4801 113.074 78.3107 113.894 78.1475C113.561 77.9535 113.194 78.0243 112.913 77.9042C112.571 77.7564 112.302 77.4453 111.957 77.1713L111.954 77.1682Z" fill="#3B576B"/>
<path d="M173.23 28.2668C173.739 27.6755 173.933 27.0719 173.328 26.4221C172.486 25.5567 171.647 24.6914 170.798 23.8322C170.746 23.7798 170.641 23.7829 170.558 23.7582C170.225 24.0631 170.422 24.3495 170.644 24.5559C171.431 25.2827 172.248 25.9756 173.054 26.6839C173.297 27.1366 173.214 27.5985 173.085 28.0605C172.6 28.6456 172.097 29.2184 171.641 29.8251C171.428 30.1054 171.27 30.441 171.156 30.7767C170.971 31.3064 171.067 31.6051 171.545 31.9316C172.319 32.4643 173.122 32.9602 173.911 33.4683C174.276 34.0226 174.812 34.3398 175.417 34.5677C175.488 34.6817 175.54 34.8203 175.639 34.9003C176.589 35.6733 177.179 36.628 177.2 37.8845C177.2 37.9184 177.253 37.9522 177.302 38.0077C177.604 37.2039 177.965 36.4217 177.185 35.6887C177.413 35.5655 177.629 35.3931 177.87 35.3346C178.123 35.273 178.407 35.3407 178.672 35.3192C179.304 35.2637 179.545 35.0174 179.758 34.2444C179.678 34.2444 179.567 34.2105 179.527 34.2505C178.82 34.8911 178.012 34.925 177.145 34.6786C176.889 34.6047 176.614 34.5924 176.349 34.5523C176.265 34.5185 176.176 34.5123 176.09 34.5277C175.442 34.0904 174.791 33.6531 174.143 33.2158C173.294 32.5013 172.443 31.7837 171.644 31.1093C171.61 30.4564 172.011 30.1177 172.273 29.7142C172.588 29.2277 172.915 28.7472 173.236 28.2668H173.23Z" fill="#3B576B"/>
<path d="M181.291 59.8145C181.433 59.6851 181.637 59.5004 181.461 59.2417C177.608 61.6315 177.262 61.884 176.676 62.7555C176.907 63.0573 177.148 63.3776 177.392 63.6948C177.401 64.0428 177.41 64.3908 177.419 64.7388C177.142 65.6103 177.426 66.4388 177.716 67.2241C178.416 69.115 179.19 70.9812 179.937 72.8536C180.017 72.7736 180.094 72.6966 180.174 72.6165C179.687 71.2769 179.181 69.9434 178.715 68.5945C178.41 67.7106 178.151 66.8114 177.888 65.9121C177.722 65.3424 177.737 64.7634 177.941 64.1999C178.228 63.9966 178.354 63.7441 178.188 63.3992C177.873 63.1774 177.558 62.9588 177.16 62.6785C178.225 61.9733 179.237 61.3204 180.23 60.646C180.6 60.3935 180.958 60.1132 181.288 59.8114L181.291 59.8145Z" fill="#3B576B"/>
<path d="M254.705 120.249C253.912 120.194 253.103 120.308 252.215 120.351C251.99 119.612 251.777 118.906 251.561 118.192C251.215 118.383 251.305 118.626 251.298 118.842C251.357 118.949 251.416 119.057 251.471 119.168C251.477 119.337 251.487 119.507 251.496 119.673C251.11 120.101 250.765 120.575 250.327 120.945C249.947 121.265 249.494 121.345 248.948 121.158C248.303 120.936 247.744 120.6 247.189 120.24C247.288 120.474 247.334 120.757 247.501 120.92C248.386 121.789 249.802 121.841 250.796 121.068C251.144 120.797 251.474 120.502 251.811 120.218C251.946 120.449 252.045 120.714 252.224 120.905C252.727 121.432 253.026 121.425 253.745 120.997C253.927 120.89 254.149 120.779 254.35 120.782C254.846 120.782 255.34 120.85 255.837 120.89C256.019 120.905 256.201 120.945 256.377 120.93C256.556 120.911 256.784 121.044 257 120.711C256.185 120.542 255.448 120.308 254.698 120.252L254.705 120.249Z" fill="#3B576B"/>
<path d="M38.6546 95.8861C38.2165 96.3419 37.8216 96.7515 37.1891 97.4106C37.6704 97.4321 37.834 97.4721 37.9882 97.4413C38.2073 97.3952 38.3708 97.3551 38.5898 97.5307C39.3365 98.1312 39.9288 98.2359 41.2123 98.0757C40.5397 97.8571 39.9504 97.6631 39.355 97.4691C39.1328 96.9702 38.9107 96.4713 38.6515 95.883L38.6546 95.8861Z" fill="#3B576B"/>
<path d="M216.207 85.6649C215.362 87.0568 214.532 88.4519 213.973 90.001C213.748 90.6231 213.674 91.2174 213.748 91.8457C213.763 91.9843 213.902 92.1074 213.983 92.2368C214.032 92.2152 214.078 92.1967 214.128 92.1752C214.06 91.8857 213.992 91.5993 213.921 91.2975C214.087 90.9372 214.294 90.583 214.424 90.2011C214.948 88.6429 215.667 87.1893 216.667 85.8774C216.775 85.7357 216.827 85.5571 216.904 85.3938C216.772 85.3969 216.639 85.4 216.503 85.4031C216.401 85.4893 216.269 85.554 216.204 85.6618L216.207 85.6649Z" fill="#3B576B"/>
<path d="M160.293 50.5849C160.417 51.0684 160.596 51.5211 161.034 51.9861C161.089 51.2654 161.024 50.7265 160.623 50.2677C160.444 50.0736 160.296 49.8149 160.074 49.7041C159.821 49.5778 159.503 49.5809 159.247 49.5347C158.966 48.7135 158.626 48.1776 158.229 47.9271C158.371 49.1036 158.553 50.1537 159.352 50.8682C159.83 50.9452 159.895 50.3477 160.293 50.5849Z" fill="#3B576B"/>
<path d="M104.697 94.026C104.673 94.6512 104.623 95.3041 104.765 95.9046C104.953 96.7084 104.953 97.506 104.978 98.3129C104.997 98.8518 104.996 99.3907 105.03 99.9297C105.037 100.022 105.166 100.108 105.342 100.324C105.413 99.979 105.49 99.7819 105.484 99.5848C105.453 98.4669 105.512 97.3551 105.305 96.231C105.126 95.2733 105.231 94.2632 105.212 93.2746C105.32 92.5694 105.425 91.8672 105.533 91.162C105.672 90.7339 106.008 90.5183 106.416 90.4321C107.144 90.2812 107.878 90.1642 108.69 90.0225C108.875 88.9847 108.585 87.9715 108.313 86.9583C108.279 86.4194 108.214 85.8835 107.884 85.4339C107.724 85.2183 107.517 85.0274 107.125 85.2707C107.172 85.5263 107.181 85.8342 107.283 86.1052C107.505 86.6904 107.776 87.254 108.026 87.8268C107.998 88.3873 108.424 88.92 108.116 89.5606C107.89 89.6037 107.631 89.6314 107.384 89.7023C106.502 89.9517 105.57 90.0564 104.796 90.6107C104.768 90.8633 104.697 91.1189 104.722 91.3652C104.787 92.012 104.892 92.6587 104.981 93.3023C104.882 93.5456 104.71 93.7828 104.7 94.0291L104.697 94.026Z" fill="#3B576B"/>
<path d="M181.029 55.1365C181.06 55.0565 181.038 54.9949 180.967 54.9456C180.881 54.8594 180.798 54.7701 180.711 54.6838L180.69 54.6684C180.128 54.1511 179.57 53.6337 179.005 53.1225C178.984 53.1009 178.919 53.1286 178.873 53.1317C178.858 53.4212 179.285 54.0515 180.153 55.0226C180.002 55.2659 179.841 55.5246 179.681 55.7833C179.357 56.3684 179.838 56.7934 180.008 57.2646C180.174 57.7296 180.693 57.7635 181.091 57.8928C181.575 57.0644 180.643 56.624 180.563 55.9126C180.684 55.7555 180.816 55.58 180.952 55.4045C180.977 55.3152 181.001 55.2258 181.026 55.1335L181.029 55.1365Z" fill="#3B576B"/>
<path d="M97.3359 77.1343C97.4099 76.7617 97.4839 76.3921 97.558 76.0195C97.3667 76.1119 97.1168 76.1581 96.9996 76.3059C96.1326 77.3961 95.2873 78.5078 94.445 79.6226C94.3586 79.7397 94.1827 79.8936 94.4388 80.0815C95.2533 79.6196 95.4878 78.5324 96.3177 78.1814C96.5676 78.3384 96.7342 78.4893 96.9317 78.5509C97.1384 78.6187 97.3698 78.6033 97.5888 78.6248C97.5919 78.2614 97.595 77.895 97.6012 77.5316C97.5086 77.3991 97.4192 77.2698 97.3266 77.1374C97.3266 77.1374 97.3266 77.1374 97.3297 77.1435L97.3328 77.1497C97.4222 77.1682 97.5117 77.1836 97.6074 77.202C97.5672 77.1466 97.4839 77.1189 97.3359 77.1405V77.1343Z" fill="#3B576B"/>
<path d="M100.322 76.4321C100.23 76.5153 100.134 76.5984 100.042 76.6816L100.032 76.6908C99.9398 76.7771 99.8442 76.8633 99.7516 76.9495C99.369 77.2513 98.9834 77.5531 98.5761 77.8734C98.4033 77.6116 98.2676 77.4084 98.2028 77.3129C97.9652 77.2667 97.7801 77.2328 97.6104 77.199C97.6629 77.2729 97.6444 77.393 97.6043 77.5316C97.6012 77.895 97.5981 78.2614 97.5919 78.6248L97.5981 78.631C97.6876 78.708 97.777 78.785 97.8665 78.862L97.919 78.8743L98.0084 78.9574L98.0794 78.862C99.0821 78.323 99.8256 77.4915 100.563 76.6539C101.26 76.2289 101.624 75.5575 101.942 74.8461C101.402 75.3728 100.865 75.9024 100.325 76.4291L100.319 76.4352L100.322 76.4321Z" fill="#3B576B"/>
<path d="M163.307 56.276C162.953 55.4476 162.376 54.8132 161.564 54.3204C161.293 54.7547 161.419 55.1181 161.709 55.4106C162.114 55.8233 162.564 56.1928 162.996 56.5778C163.206 57.2646 163.795 57.628 164.279 58.0807C164.566 58.3486 164.875 58.595 165.143 58.829C165.057 59.7498 164.684 60.4581 164.307 61.1634C164.431 61.1788 164.554 61.1972 164.677 61.2126C165.165 60.6645 165.442 60.0147 165.507 59.291C165.529 59.0507 165.476 58.7366 165.331 58.5611C164.68 57.7789 163.983 57.0336 163.301 56.2729L163.307 56.276Z" fill="#3B576B"/>
<path d="M217.386 109.052C217.111 109.329 216.907 109.535 216.664 109.788C217.216 110.308 217.719 110.779 218.283 111.312C218.515 111.247 218.799 111.17 219.385 111.007C218.317 110.502 217.679 110.003 217.386 109.052Z" fill="#3B576B"/>
<path d="M70.4789 80.9592C70.5436 81.0208 70.6115 81.1347 70.6701 81.1316C71.7623 81.0701 72.6941 81.5289 73.6289 81.997C73.8695 82.1171 74.1441 82.1787 74.4002 82.268C73.524 81.3842 72.5182 80.8021 71.3119 80.642C71.0033 80.602 70.6701 80.6328 70.4758 80.9561L70.4789 80.9592Z" fill="#3B576B"/>
<path d="M177.407 42.4885C177.407 42.236 177.361 41.9804 177.314 41.4969C177.16 42.5347 177.015 43.3293 176.929 44.13C176.802 45.3033 176.873 46.4736 177.169 47.6223C177.089 47.8132 176.938 48.0195 177.163 48.192C177.234 48.2443 177.407 48.2351 177.49 48.1827C177.675 48.0688 177.608 47.8963 177.521 47.7393C177.546 47.4744 177.604 47.2065 177.589 46.9447C177.543 46.2272 177.441 45.5127 177.41 44.7921C177.379 44.0253 177.41 43.2554 177.404 42.4854L177.407 42.4885Z" fill="#3B576B"/>
<path d="M80.8175 87.873C80.003 87.6112 79.5094 87.1246 79.2996 86.3147C79.281 86.2469 79.1854 86.1976 78.9756 86.0005C78.9756 86.2685 78.954 86.3978 78.9787 86.5148C79.1576 87.411 79.5495 88.0947 80.546 88.3164C80.9748 88.4119 81.3512 88.7229 81.7677 88.8954C82.0763 89.0217 82.2737 89.3881 82.7303 89.3881C82.0979 88.5997 81.5857 88.1224 80.8144 87.873H80.8175Z" fill="#3B576B"/>
<path d="M188.714 94.9838C189.103 95.7168 189.245 95.7968 189.896 95.6336C189.628 95.03 189.362 94.4325 189.119 93.8844C188.458 94.4541 188.449 94.4818 188.714 94.9838Z" fill="#3B576B"/>
<path d="M88.8823 62.9896C88.1264 62.9896 87.352 62.9834 86.6486 63.3499C86.4758 63.4392 86.3462 63.5501 86.5252 63.8149C86.8399 63.7348 87.1762 63.6517 87.5094 63.5655C88.5861 63.5839 89.6598 63.5963 90.7334 63.6271C91.7979 63.6579 92.6 63.8858 93.3898 64.3569C93.3405 64.474 93.288 64.591 93.2356 64.7111C92.9332 64.7049 92.6216 64.6526 92.3347 64.7111C92.0107 64.7727 91.9213 64.9944 92.1835 65.2623C92.2637 65.2685 92.3408 65.2777 92.4211 65.2839C92.6926 65.2962 92.9641 65.3085 93.2325 65.3209C93.4269 65.4625 93.6212 65.6073 93.9452 65.8444C93.9452 65.4163 93.9298 65.1638 93.9483 64.9113C93.9668 64.6587 94.0161 64.4062 94.0532 64.1568C93.1214 63.4577 92.1002 63.2206 91.0265 63.1436C90.3108 63.0881 89.595 62.9865 88.8792 62.9865L88.8823 62.9896Z" fill="#3B576B"/>
<path d="M83.3289 57.6403C82.9833 57.3662 82.6625 57.1044 82.2058 57.0428C82.1627 57.0367 82.1657 56.7256 82.1441 56.5562C81.9467 56.6517 81.7492 56.7472 81.5518 56.8396C81.5518 56.8827 81.5363 56.9443 81.561 56.972C81.8757 57.3262 82.1966 57.6772 82.539 58.0529C83.0728 58.0252 83.5973 58.0006 84.1218 57.9729C83.8688 57.7912 83.5325 57.8004 83.3289 57.6403Z" fill="#3B576B"/>
<path d="M247.177 120.228H247.174C247.174 120.228 247.183 120.237 247.186 120.24C247.186 120.234 247.183 120.228 247.18 120.221C247.18 120.221 247.18 120.221 247.177 120.224V120.228Z" fill="#3B576B"/>
<path d="M21.294 111.537C21.294 111.537 21.3191 111.534 21.3317 111.531L21.3191 111.521C21.3097 111.528 21.3034 111.531 21.294 111.537Z" fill="#3B576B"/>
<path d="M18.6191 111.475C18.3013 111.247 17.8971 111.133 17.53 110.967C17.1814 110.69 16.8358 110.416 16.4872 110.139C16.1108 109.714 15.7344 109.286 15.3611 108.861C15.6449 109.289 15.9288 109.717 16.2126 110.145C16.2743 110.299 16.2959 110.496 16.407 110.597C16.6631 110.838 16.9654 111.032 17.2462 111.244C17.6287 111.472 18.0422 111.66 18.3815 111.94C18.9893 112.439 19.6187 112.408 20.2697 112.11C20.6245 111.946 20.9546 111.731 21.2971 111.534C20.9145 111.592 20.5289 111.629 20.1525 111.715C19.6033 111.842 19.1096 111.823 18.6191 111.472V111.475Z" fill="#3B576B"/>
<path d="M104.065 126.96C104.139 127.301 104.389 127.138 104.58 127.141C106.116 127.406 107.653 127.345 109.192 127.16C109.553 127.206 109.967 127.397 110.189 126.855C108.045 126.624 104.996 126.679 104.065 126.963V126.96Z" fill="#3B576B"/>
<path d="M13.6951 105.787C13.3557 105.424 13.2354 105.427 12.7911 105.796C11.918 106.015 10.9369 106.471 10.2057 107.034C10.4556 107.053 10.6283 107.118 10.7641 107.068C11.3163 106.868 11.8624 106.653 12.3962 106.409C12.8096 106.221 13.2107 106.009 13.6889 106.083C14.0807 106.246 14.1979 106.563 14.1856 106.957C14.1764 107.25 14.3059 107.475 14.5373 107.653C14.7348 107.804 15.0094 107.727 15.0711 107.481C15.1019 107.352 15.1729 107.182 15.1204 107.09C14.7903 106.508 14.5096 105.852 13.7012 105.784L13.6951 105.787Z" fill="#3B576B"/>
<path d="M164.066 65.2839C163.715 65.6103 163.798 66.0261 163.869 66.4111C164.002 67.1532 164.168 67.8924 164.341 68.6253C164.403 68.8809 164.529 69.1211 164.625 69.3675C164.668 69.774 164.832 70.1312 165.177 70.7656C165.137 70.0758 165.294 69.6908 164.952 69.3675C164.896 69.0133 164.844 68.6592 164.788 68.305C164.628 67.2918 164.468 66.2786 164.307 65.2685C164.483 63.9227 164.767 62.5892 164.677 61.2188C164.554 61.2034 164.431 61.1849 164.307 61.1695C164.227 62.543 164.144 63.9135 164.063 65.287L164.066 65.2839Z" fill="#3B576B"/>
<path d="M65.9405 73.1431C65.7985 73.5281 65.6659 73.8884 65.5394 74.2271C65.8633 74.5936 66.1256 74.8892 66.5051 75.3204C66.576 74.917 66.6994 74.6552 66.6501 74.4304C66.5637 74.0424 66.3724 73.679 66.212 73.3094C66.1873 73.254 66.0917 73.2324 65.9436 73.1431H65.9405Z" fill="#3B576B"/>
<path d="M59.7206 101.747C59.6929 102.067 59.6867 102.396 59.7823 102.957C60.06 102.129 60.2544 101.55 60.4241 101.038C60.3007 100.774 60.0816 100.601 59.9212 100.413C59.9088 100.509 59.8903 100.604 59.8749 100.7C59.8163 101.048 59.7484 101.396 59.7206 101.747Z" fill="#3B576B"/>
<path d="M59.733 99.8342V99.8435C59.696 100.087 59.7885 100.256 59.9243 100.413C59.9489 100.204 59.9304 100.007 59.733 99.8342Z" fill="#3B576B"/>
<path d="M109.612 110.711C109.686 110.616 109.757 110.521 109.831 110.425C109.951 109.381 109.492 108.451 109.273 107.472C109.155 106.357 108.773 105.322 108.322 104.303C108.458 105.482 108.461 106.68 108.955 107.792C109.032 108.229 109.121 108.664 109.183 109.104C109.242 109.541 109.27 109.982 109.31 110.422C109.408 110.524 109.504 110.625 109.603 110.724L109.615 110.711H109.612Z" fill="#3B576B"/>
<path d="M166.587 79.5056C166.837 78.8835 166.738 78.6926 166.078 78.6649C166.004 79.1853 165.93 79.6966 165.847 80.2786C166.436 79.8844 166.439 79.8844 166.59 79.5056H166.587Z" fill="#3B576B"/>
<path d="M170.095 109.923C170.416 109.135 170.456 108.349 170.262 106.85C170.194 106.643 170.178 106.317 170.046 106.255C169.583 106.049 169.657 105.562 169.419 105.251C169.126 105.177 168.852 104.934 168.457 105.239C168.71 105.581 169.034 105.889 169.185 106.268C169.33 106.628 169.657 106.653 169.882 106.853C169.731 108.528 169.777 109.215 170.095 109.923Z" fill="#3B576B"/>
<path d="M23.938 110.607C23.9997 110.588 24.0337 110.48 24.1108 110.373C24.0028 110.317 23.8887 110.203 23.8023 110.222C23.2007 110.357 22.5991 110.505 22.0067 110.678C21.7105 110.764 21.4236 110.905 21.3279 111.25C21.3279 111.337 21.3279 111.426 21.3279 111.512C21.4328 111.438 21.5377 111.361 21.6426 111.287C22.4078 111.063 23.1729 110.841 23.9319 110.607H23.938Z" fill="#3B576B"/>
<path d="M69.072 64.9605C68.3809 65.946 67.8286 66.8237 67.4029 67.7815C66.7426 68.9671 66.2058 70.2051 65.8294 71.5078C65.78 71.6803 65.8294 71.8835 65.8356 72.0714C66.6994 70.7934 67.19 69.4075 67.6497 68.0063C68.9301 66.1554 69.0288 65.9583 69.0751 64.9605H69.072Z" fill="#3B576B"/>
<path d="M97.5736 75.9979C97.5736 75.9979 97.5674 75.9979 97.5642 75.9979C97.5642 75.9979 97.5642 76.0105 97.5611 76.0169C97.5674 76.0169 97.5705 76.0137 97.5768 76.0105C97.5768 76.0074 97.5768 76.0011 97.5768 75.9979H97.5736Z" fill="#3B576B"/>
<path d="M99.3567 74.1009C99.3814 74.0701 99.2981 73.9561 99.2209 73.7868C98.6008 74.4643 97.8819 74.997 97.5765 75.8778C97.5642 75.9148 97.5703 75.9579 97.5703 76.001C97.6937 75.9702 97.8573 75.9702 97.922 75.8932C98.4126 75.3081 98.8846 74.7076 99.3536 74.104L99.3567 74.1009Z" fill="#3B576B"/>
<path d="M216.633 102.024C216.633 102.024 216.652 102.018 216.661 102.015L216.652 102.005C216.652 102.005 216.639 102.021 216.633 102.027V102.024Z" fill="#3B576B"/>
<path d="M214.217 103.915C213.754 104.811 212.967 105.43 212.286 106.138C211.632 106.813 210.987 107.496 210.339 108.177C210.252 108.282 210.169 108.383 210.083 108.488L210.08 108.491C209.993 108.583 209.907 108.673 209.821 108.765L209.805 108.781C209.497 108.935 209.315 109.165 209.336 109.529C209.629 109.972 210.098 110.022 210.542 109.954C211.301 109.84 212.039 109.597 212.798 109.495C213.591 109.39 214.399 109.39 215.198 109.344C213.921 108.978 212.65 108.931 211.372 109.224C211.067 109.295 210.749 109.344 210.438 109.332C210.305 109.326 210.178 109.144 210.049 109.042C211.132 107.989 212.227 106.945 213.291 105.873C213.726 105.433 214.097 104.931 214.498 104.454C214.775 103.844 215.183 103.36 215.744 102.966C216.09 102.723 216.346 102.344 216.636 102.024C215.627 102.393 214.809 103.009 214.22 103.915H214.217Z" fill="#3B576B"/>
<path d="M56.873 108.596C57.9651 108.343 58.4002 107.974 58.6069 107.231C57.8787 107.509 57.3388 107.998 56.873 108.596Z" fill="#3B576B"/>
<path d="M114.943 36.5633C115.051 37.4164 115.286 37.8937 115.85 38.4049C115.986 38.525 116.159 38.5682 116.344 38.2879C115.86 37.7736 115.594 37.053 114.943 36.5633Z" fill="#3B576B"/>
<path d="M186.465 75.5791V78.5294C186.776 77.0963 186.776 76.1129 186.465 75.5791Z" fill="#3B576B"/>
<path d="M29.4082 110.838C30.0221 111.287 30.3584 111.697 31.1205 112.045C30.8305 111.281 30.4942 110.998 30.0653 110.819C29.945 110.77 29.7846 110.822 29.4051 110.838H29.4082Z" fill="#3B576B"/>
<path d="M101.945 74.844L101.974 74.8156L101.961 74.8061C101.955 74.8187 101.948 74.8304 101.942 74.8461L101.945 74.844Z" fill="#3B576B"/>
<path d="M82.3416 56.2791C82.2614 56.1005 82.1812 55.9249 82.104 55.7463L82.0917 55.7371C81.487 55.4784 80.9255 55.1242 80.2313 55.075C79.9444 55.0534 79.6513 54.8501 79.3983 54.6777C78.991 54.3974 78.6239 54.0618 78.2259 53.7692C77.7816 53.4427 77.6366 53.027 77.686 52.4788C77.7353 51.8999 77.7199 51.3116 77.6921 50.7265C77.6767 50.4278 77.6705 50.0921 77.3744 49.9381C77.3219 50.7727 77.3188 51.6227 77.1985 52.4542C77.072 53.3196 77.3373 53.9663 78.0655 54.4097C78.7535 54.8317 79.4631 55.2228 80.1789 55.5985C80.4966 55.7648 80.654 55.9865 80.6694 56.3314C80.7003 56.4146 80.7311 56.4977 80.762 56.5778C81.0242 56.6579 81.2864 56.7379 81.5456 56.8211L81.5549 56.8488C81.7523 56.7533 81.9498 56.6579 82.1472 56.5655C82.212 56.4731 82.2768 56.3776 82.3416 56.2852V56.2791Z" fill="#3B576B"/>
<path d="M129.536 127.304C129.975 127.304 130.416 127.32 130.854 127.301C131.292 127.283 131.752 127.397 132.452 127.08H129.549C129.549 127.157 129.543 127.231 129.54 127.308L129.536 127.304Z" fill="#3B576B"/>
<path d="M255.852 123.606C256.142 123.886 256.411 124.145 256.695 124.422C256.994 123.778 256.725 123.535 255.852 123.606Z" fill="#3B576B"/>
<path d="M180.48 74.2364C181.054 75.9394 181.782 77.5747 182.646 79.1515C182.732 79.3793 182.819 79.6072 182.93 79.8936C183.247 79.5179 183.105 79.3239 182.849 79.1607C182.464 78.1136 182.1 77.0573 181.683 76.0226C181.399 75.3204 181.045 74.6521 180.721 73.9654C180.671 73.4634 180.545 72.9922 180.174 72.6196C180.094 72.6996 180.014 72.7766 179.937 72.8567C180.119 73.3186 180.301 73.7775 180.483 74.2395L180.48 74.2364Z" fill="#3B576B"/>
<path d="M15.3241 108.824C15.3241 108.824 15.3487 108.851 15.3611 108.864C15.3487 108.845 15.3395 108.83 15.3271 108.811V108.824H15.3241Z" fill="#3B576B"/>
<path d="M218.848 100.33C219.197 99.9328 219.2 99.9266 218.854 99.554C218.854 99.554 218.86 99.554 218.863 99.554C218.817 99.0674 218.388 98.9288 218.064 98.7102C217.423 98.279 216.843 97.8078 216.386 97.1611C215.963 96.5606 215.43 96.034 214.856 95.378C215 96.113 215.209 96.6437 215.485 96.9702C216.358 98.0172 217.321 98.9627 218.542 99.6063C218.641 100.001 218.53 100.321 218.197 100.555C217.972 100.712 217.78 100.887 217.762 101.183C218.293 101.118 218.647 100.826 218.848 100.336V100.33Z" fill="#3B576B"/>
<path d="M217.762 101.177C217.762 101.177 217.753 101.177 217.747 101.177L217.759 101.193C217.759 101.186 217.759 101.18 217.759 101.174L217.762 101.177Z" fill="#3B576B"/>
<path d="M149.504 9.013C149.504 9.013 149.495 9.00376 149.492 9.00068C149.492 8.98836 149.492 8.97297 149.489 8.96065C149.483 8.97913 149.479 8.99452 149.473 9.013C149.483 9.013 149.492 9.013 149.504 9.013Z" fill="#3B576B"/>
<path d="M149.773 9.63509C149.822 9.77983 149.871 9.92457 149.921 10.0724C150.081 10.4327 150.433 10.4666 150.751 10.5621L150.788 10.5959C151.189 11.1071 151.025 11.7231 151.099 12.2928C151.124 12.4837 151.207 12.6254 151.513 12.5145C151.516 11.8863 151.766 11.2211 151.29 10.6113C151.161 10.0724 151.121 10.017 150.754 9.8599C150.673 9.81678 150.59 9.77983 150.507 9.74903C150.325 9.07151 150.322 9.06228 149.501 9.013C149.566 9.08691 149.631 9.1639 149.695 9.23781C149.72 9.37024 149.748 9.50266 149.773 9.63509Z" fill="#3B576B"/>
<path d="M247.161 120.221C247.161 120.221 247.167 120.228 247.171 120.231C247.171 120.231 247.17 120.231 247.174 120.228L247.177 120.224C247.17 120.224 247.164 120.224 247.161 120.224V120.221Z" fill="#3B576B"/>
<path d="M186.391 80.1092C186.052 80.411 185.833 80.6081 185.614 80.8021C185.136 81.1686 185.009 81.6306 185.222 82.1941C185.453 82.8039 185.679 83.4167 185.907 84.0296C186.046 84.4484 186.16 84.8765 186.333 85.283C186.728 86.2253 187.153 87.1523 187.564 88.0885C188.03 89.4836 188.489 90.8817 188.967 92.2737C189.001 92.3784 189.149 92.4431 189.313 92.5879C189.313 92.3815 189.344 92.246 189.31 92.1321C188.992 91.0604 188.677 89.9856 188.329 88.9231C188.205 88.5474 187.996 88.2025 187.826 87.8422C187.632 87.2447 187.44 86.6473 187.246 86.0498C187.564 85.3015 186.857 84.9689 186.601 84.4515C186.505 84.2544 186.499 84.0173 186.438 83.7986C186.379 83.5861 186.302 83.3767 186.234 83.1642C186.234 83.0349 186.234 82.9055 186.234 82.7762C186.265 82.653 186.293 82.5298 186.323 82.4066C186.323 82.1572 186.41 81.8615 186.302 81.6706C186.154 81.4057 186.391 81.2795 186.388 81.0855V80.1092H186.391Z" fill="#3B576B"/>
<path d="M217.478 101.423C217.561 101.349 217.645 101.272 217.731 101.198C217.651 101.198 217.574 101.202 217.497 101.22C217.102 101.356 216.839 101.636 216.667 102.005C217.062 101.987 217.339 101.805 217.481 101.423H217.478Z" fill="#3B576B"/>
<path d="M216.652 102.005L216.661 102.015C216.661 102.012 216.664 102.005 216.667 102.002C216.661 102.002 216.658 102.002 216.651 102.002L216.652 102.005Z" fill="#3B576B"/>
<path d="M75.5911 44.0714C75.3011 44.5088 75.0111 44.943 74.7365 45.3557C75.3721 46.7538 75.3936 46.7815 76.2915 47.2435C75.9366 46.5721 75.6065 45.9408 75.2641 45.2941C75.6405 44.7644 76.0786 44.2809 75.9829 43.5879C75.9891 43.4617 75.9953 43.3354 76.0045 43.2092C75.8719 43.2122 75.7361 43.2153 75.6034 43.2184C75.6004 43.5017 75.5973 43.7881 75.5942 44.0714H75.5911Z" fill="#3B576B"/>
<path d="M82.104 55.7463C82.1842 55.9249 82.2645 56.1005 82.3416 56.2791C82.6316 55.9064 82.6038 55.8479 82.104 55.7463Z" fill="#3B576B"/>
<path d="M59.5108 99.5909C59.5849 99.6741 59.6589 99.7603 59.733 99.8435V99.8342C59.7114 99.7234 59.6929 99.6125 59.6713 99.4985C59.6188 99.5293 59.5633 99.5601 59.5108 99.5909Z" fill="#3B576B"/>
<path d="M15.3241 108.824L15.3241 108.814C15.3055 108.75 15.287 108.685 15.2685 108.62C15.287 108.688 15.3055 108.756 15.3241 108.824Z" fill="#3B576B"/>
<path d="M21.3317 111.531C21.3317 111.531 21.3312 111.518 21.3312 111.512C21.3281 111.512 21.3223 111.518 21.3191 111.521L21.3317 111.531Z" fill="#3B576B"/>
<path d="M245.825 118.857C245.659 118.491 245.554 118.078 245.316 117.767C244.138 116.236 243.419 114.487 242.873 112.664C242.614 111.802 242.478 110.905 242.234 110.037C242.114 109.618 242.145 109.125 241.759 108.802C241.74 108.038 241.725 107.284 241.432 106.554C240.873 105.171 240.583 103.721 240.334 102.255C240.219 101.599 240.028 100.955 239.871 100.305C239.849 100.081 239.849 99.8496 239.8 99.634C238.991 96.034 237.615 92.6618 235.684 89.5144C234.468 87.0107 232.972 84.6732 231.414 82.3727C231.084 81.6829 230.791 80.9746 230.414 80.3125C230.044 79.6627 229.68 79.0591 230.307 78.3661C230.359 78.3076 230.371 78.206 230.381 78.1198C230.424 77.6301 230.452 77.1405 230.504 76.6508C230.572 76.041 230.47 75.5052 230.044 75.0217C229.689 74.6182 229.403 74.1532 229.082 73.719C228.017 72.2839 227.869 72.2161 226.138 72.4933C224.935 72.6842 223.735 72.8567 222.507 72.8536C221.936 72.8536 221.366 73.06 220.795 73.1708C219.505 73.2139 218.333 73.6974 217.157 74.1594C215.578 74.7815 214.001 75.4159 212.523 76.0072C211.656 75.0463 210.845 74.144 209.929 73.1308C209.91 72.9922 209.867 72.6812 209.824 72.3701C209.864 71.2615 210.049 70.1436 209.706 69.0472C209.716 68.6992 209.725 68.3512 209.734 68.0063C209.743 67.9108 209.756 67.8123 209.765 67.7168C209.728 67.3534 209.691 66.99 209.654 66.6235C209.672 66.5897 209.716 66.5496 209.709 66.525C209.691 66.4542 209.648 66.3864 209.617 66.3187C209.635 65.792 209.672 65.2624 209.672 64.7357C209.672 63.7225 209.679 62.7093 209.311 61.7393C209.299 61.5606 209.287 61.3789 209.274 61.2003C209.259 60.9324 209.241 60.6675 209.225 60.3996C209.083 60.5598 209.018 60.7137 209.043 60.8616C209.018 60.7137 209.08 60.5567 209.225 60.3996C209.231 60.3103 209.25 60.221 209.244 60.1317C209.096 58.3547 209.037 56.5778 209.228 54.7947C209.281 54.3143 209.17 53.8185 208.731 53.4859C208.694 53.4643 208.657 53.4212 208.617 53.4181C206.754 53.2949 204.893 53.1717 203.03 53.0516C201.148 52.5312 199.226 52.214 197.294 51.9368C196.264 51.789 195.227 51.6473 194.212 51.4102C193.558 51.2593 192.917 50.9944 192.321 50.6834C191.315 50.1568 191.22 50.1506 190.547 51.0006C190.239 51.3917 189.927 51.7797 189.588 52.1401C189.443 52.294 189.227 52.3803 188.992 52.5343C188.81 52.1431 188.65 51.8259 188.508 51.5026C188.159 50.7019 187.635 50.0336 187.021 49.4146C186.246 48.6324 185.432 48.2043 184.349 48.9126C183.633 47.7424 183.072 46.5567 182.889 45.2479C182.633 43.4124 182.479 41.5646 182.279 39.7199C182.384 39.1625 182.492 38.602 182.596 38.0446C182.698 37.8783 182.8 37.7151 182.902 37.5488C182.982 37.4533 183.062 37.3579 183.142 37.2624L183.155 37.2439C183.217 37.1608 183.275 37.0776 183.337 36.9945C183.374 36.9144 183.408 36.8313 183.445 36.7512C183.494 36.6526 183.544 36.5541 183.596 36.4555C183.892 35.6302 183.803 34.8079 183.59 33.9826C183.55 33.8656 183.51 33.7516 183.466 33.6346C183.448 33.4806 183.426 33.3266 183.408 33.1727C183.46 32.8185 183.516 32.4643 183.568 32.1102C183.692 31.9162 183.667 31.7345 183.522 31.562C183.405 31.4388 183.312 31.2664 183.17 31.2048C182.337 30.8321 181.634 30.284 180.964 29.6804C180.329 29.1106 179.662 28.5779 179.024 28.0081C178.086 27.1705 177.163 26.3174 176.238 25.4674C175.942 25.1964 175.655 24.9162 175.362 24.639C174.865 24.0631 174.368 23.4842 173.871 22.9083C173.859 23.1115 173.85 23.3148 173.837 23.5211C174.251 24.0015 174.664 24.482 175.078 24.9624C175.432 25.3627 175.759 25.7908 176.145 26.1604C177.956 27.8973 179.823 29.5787 181.779 31.1524C182.09 31.405 182.254 31.6698 182.235 32.0548C182.106 32.7569 182.282 33.4098 182.55 34.0473C182.504 34.1335 182.519 34.2105 182.603 34.2721C182.624 34.4938 182.621 34.7186 182.67 34.9342C182.856 35.7195 182.689 36.4278 182.266 37.0961C182.124 37.3209 181.976 37.5488 181.878 37.7921C181.631 38.4111 181.418 39.0455 181.686 39.7199C181.813 41.2505 181.911 42.7842 182.075 44.3117C182.248 45.9069 182.859 47.3666 183.574 48.7894C183.793 49.2267 184.093 49.5008 184.62 49.5101C184.873 49.5162 185.182 49.584 185.364 49.741C186.289 50.5356 187.237 51.3209 187.854 52.4049C187.986 52.639 188.178 52.9069 188.156 53.144C188.057 54.2496 188.474 55.3552 188.045 56.4762C187.777 57.1814 187.752 57.976 187.616 58.7335C187.533 59.217 187.465 59.7036 187.36 60.181C186.906 62.2012 186.774 64.2461 186.814 66.3094C186.647 67.3288 186.468 68.3481 186.317 69.3737C186.259 69.774 186.252 70.1836 186.265 70.587C186.271 70.7348 186.404 70.8765 186.57 71.1999C186.78 69.7956 186.965 68.6037 187.129 67.4088C187.178 67.0547 187.166 66.6913 187.181 66.3341C187.224 65.8382 187.255 65.3424 187.317 64.8497C187.465 63.6856 187.57 62.5122 187.81 61.3697C188.026 60.3442 188.147 59.3248 188.088 58.2839C188.727 56.9381 189.452 55.62 189.298 54.0371C189.276 53.8123 189.458 53.5197 189.628 53.3319C190.232 52.6667 190.871 52.0292 191.497 51.3825C192.105 51.635 192.713 51.9491 193.355 52.1431C194.046 52.3495 194.768 52.4881 195.483 52.5805C198.899 53.0208 202.299 53.6275 205.757 53.6799C206.39 53.6891 207.019 53.8031 207.652 53.8708C207.834 54.2773 207.951 54.6808 207.966 55.1458C208.009 56.393 208.05 57.6495 208.238 58.8783C208.438 60.1994 208.809 61.4929 209.105 62.7986C209.145 63.4207 209.2 64.0428 209.219 64.6649C209.265 66.1339 209.293 67.6029 209.327 69.0718C209.308 70.0019 209.268 70.9319 209.278 71.862C209.281 72.2038 209.407 72.5457 209.478 72.8875C209.358 73.2694 209.241 73.6512 209.133 73.9962C209.191 74.1255 209.204 74.2364 209.265 74.2856C209.546 74.5043 209.839 74.7106 210.132 74.9139C210.944 75.4775 211.814 75.9856 212.076 77.0573C212.125 77.2575 212.292 77.4638 212.462 77.5962C212.863 77.9042 213.029 78.283 212.949 78.7727C212.878 79.2038 213.162 79.4317 213.436 79.6688C213.585 79.7859 213.733 79.8998 213.881 80.0168C214.34 80.3741 214.8 80.7313 215.26 81.0855C215.865 81.8184 216.654 82.4035 217.031 83.3151C216.852 84.0111 216.673 84.704 216.491 85.4C216.623 85.3969 216.756 85.3939 216.892 85.3908C216.984 85.2368 217.055 85.0674 217.17 84.9319C217.447 84.6055 217.623 84.2821 217.416 83.8356C217.349 83.6877 217.398 83.4814 217.395 83.3028C217.052 82.3635 216.515 81.5782 215.649 81.0424C215.288 80.4572 214.819 79.9922 214.174 79.7243C214.106 79.6596 214.029 79.6411 213.942 79.6688C213.233 78.8189 213.458 77.8426 213.56 76.8325C214.427 76.386 215.306 75.9456 216.173 75.4805C217.444 74.7999 218.774 74.2733 220.175 73.9315C221.291 73.7467 222.402 73.565 223.544 73.7436C223.849 73.7898 224.176 73.7252 224.494 73.6974C225.262 73.6297 226.027 73.5527 226.796 73.4757C227.234 73.4326 227.598 73.5558 227.872 73.913C228.202 74.3442 228.499 74.8123 228.887 75.1849C229.659 75.9302 229.581 76.7925 229.338 77.6979C229.279 77.9134 229.156 78.1136 229.094 78.3292C228.86 79.1699 229.001 79.9214 229.569 80.6174C230.112 81.2826 230.59 81.997 231.096 82.693C231.352 83.1611 231.59 83.6385 231.871 84.0912C232.722 85.4647 233.589 86.8259 234.447 88.1932C234.777 88.7229 235.095 89.2619 235.419 89.7977C235.595 90.1611 235.758 90.5307 235.946 90.891C236.884 92.6926 237.838 94.4911 238.415 96.4497C238.825 97.8325 239.18 99.2337 239.559 100.626C239.75 102.47 240.121 104.269 240.772 106.015C241.099 106.896 241.268 107.835 241.509 108.75C241.549 108.756 241.589 108.762 241.626 108.768C241.586 108.759 241.549 108.753 241.509 108.75C241.531 109.015 241.518 109.292 241.583 109.547C241.814 110.468 242.077 111.38 242.317 112.294C242.897 114.502 243.789 116.563 245.171 118.398C245.341 118.623 245.486 118.842 245.791 118.869C245.788 118.956 245.791 119.042 245.81 119.128C246.143 119.633 246.461 120.157 247.155 120.212C246.806 119.849 246.458 119.485 246.109 119.122C246.013 119.03 245.915 118.94 245.819 118.848L245.825 118.857ZM204.545 53.3781C205.588 53.4643 206.633 53.5413 207.679 53.6214C206.633 53.5413 205.591 53.4643 204.545 53.3781ZM245.816 118.866C245.816 118.866 245.813 118.869 245.81 118.872C245.81 118.872 245.813 118.869 245.816 118.866Z" fill="#3B576B"/>
<path d="M217.747 101.18L217.731 101.196C217.731 101.196 217.75 101.196 217.762 101.196L217.75 101.18H217.747Z" fill="#3B576B"/>
<path d="M111.519 23.3979C111.263 23.8168 111.408 24.2571 111.432 24.6944C111.509 26.0064 111.38 27.2598 110.399 28.2668C110.575 28.3684 110.754 28.4732 110.929 28.5748C111.423 27.808 111.725 27.0165 111.781 26.0649C111.836 25.1595 111.713 24.2725 111.738 23.3764C111.772 23.2901 111.775 23.2008 111.744 23.1115C111.664 23.1208 111.583 23.1238 111.503 23.1238C111.509 23.2132 111.513 23.3055 111.519 23.3948V23.3979Z" fill="#3B576B"/>
<path d="M102.51 73.99L102.507 73.9869C102.325 74.2579 102.146 74.532 101.964 74.803L101.976 74.8123C102.155 74.5382 102.337 74.2672 102.516 73.9931C102.516 73.9931 102.516 73.9931 102.513 73.99L102.516 73.9931L102.575 73.9284L102.51 73.9869C102.51 73.9869 102.51 73.9869 102.513 73.99H102.51Z" fill="#3B576B"/>
</g>
</svg>
