<svg width="16" height="16" viewBox="0 0 16 16" fill="none" xmlns="http://www.w3.org/2000/svg">
<path d="M5.14613 12.222C5.74212 11.6308 6.21916 10.9287 6.56461 10.1346C6.91005 9.33802 7.08594 8.47711 7.08594 7.5721C7.08594 6.66708 6.91132 5.80492 6.56461 5.00956C6.21916 4.21546 5.74338 3.51338 5.14613 2.92222C4.55014 2.3298 3.84407 1.85586 3.05069 1.51553C2.2611 1.1752 1.40191 1.00252 0.498443 1L0.498443 2.66886C1.15137 2.67264 1.78152 2.80499 2.36992 3.06465C2.9697 3.32935 3.50242 3.68858 3.95416 4.13101C4.40589 4.57344 4.76652 5.09779 5.02719 5.69147C5.28659 6.28264 5.41945 6.91413 5.41945 7.5721C5.41945 8.23006 5.28785 8.86156 5.02719 9.45398C4.76779 10.0464 4.40589 10.572 3.95542 11.0144C3.50242 11.4569 2.9697 11.8174 2.37118 12.0808C1.78279 12.3405 1.15264 12.4741 0.499707 12.4766L0.499707 14.1455C1.40318 14.1417 2.2611 13.9702 3.05195 13.6299C3.8466 13.2871 4.55267 12.8144 5.1474 12.2232L5.14613 12.222Z" fill="#C4E0FA"/>
<path d="M13.5602 12.222C14.1562 11.6308 14.6332 10.9287 14.9787 10.1346C15.3241 9.33802 15.5 8.47711 15.5 7.5721C15.5 6.66708 15.3254 5.80492 14.9787 5.00956C14.6332 4.21546 14.1574 3.51338 13.5602 2.92222C12.9642 2.3298 12.2581 1.85586 11.4647 1.51553C10.6752 1.1752 9.81598 1.00252 8.91251 1L8.91251 2.66886C9.56543 2.67264 10.1956 2.80499 10.784 3.06465C11.3838 3.32935 11.9165 3.68858 12.3682 4.13101C12.82 4.57344 13.1806 5.09779 13.4412 5.69147C13.7006 6.28264 13.8335 6.91413 13.8335 7.5721C13.8335 8.23006 13.7019 8.86156 13.4412 9.45398C13.1818 10.0464 12.82 10.572 12.3695 11.0144C11.9165 11.4569 11.3838 11.8174 10.7852 12.0808C10.1969 12.3405 9.5667 12.4741 8.91377 12.4766L8.91377 14.1455C9.81724 14.1417 10.6752 13.9702 11.466 13.6299C12.2607 13.2871 12.9667 12.8144 13.5615 12.2232L13.5602 12.222Z" fill="#C4E0FA"/>
</svg>
