<svg width="58" height="44" viewBox="0 0 58 44" fill="none" xmlns="http://www.w3.org/2000/svg">
<g clip-path="url(#clip0_5534_84066)">
<path d="M4.34756 0C3.14163 1.45443 2.38284 2.8545 1.75954 4.39728C1.17013 5.95366 0.716208 7.66636 0.384237 9.88199C0.309713 10.4869 0.174215 11.384 0.0996909 12.5054C0.0387167 13.0627 0.0387167 13.6812 0.00484214 14.3404L-0.00870768 14.6327C-0.0154826 14.7958 -0.00870768 14.9589 -0.00870768 15.122C-0.00870768 15.4483 -0.00193277 15.7813 0.00484214 16.1143C0.00484214 16.7804 0.086141 17.46 0.113241 18.1396C0.255514 19.5057 0.438436 20.899 0.777182 22.299C1.4208 25.0924 2.46413 27.9469 4.09689 30.5703C5.71609 33.2005 7.85019 35.62 10.4111 37.5774C12.9652 39.5416 15.9394 41.0707 19.1236 41.9135C22.3078 42.7631 25.7156 42.9058 28.954 42.2261C32.1992 41.5873 35.2615 40.0241 37.653 37.8221C38.8522 36.721 39.8955 35.4637 40.7288 34.0908C41.5554 32.7112 42.1583 31.2227 42.5242 29.7003C42.8765 28.1847 43.0391 26.6148 42.9103 25.1264C42.829 23.6108 42.4496 22.1087 41.8535 20.7834C40.6611 18.126 38.5947 15.9784 36.0812 14.9997C34.8347 14.5171 33.5 14.3268 32.2737 14.4764C31.9621 14.4832 31.6708 14.5579 31.3794 14.6191L30.9459 14.7142C30.8104 14.7278 30.5258 14.8366 30.4242 14.8842C29.8551 15.122 29.3334 15.4279 28.8727 15.7949C27.9581 16.5153 27.2061 17.5619 27.0164 18.7853C26.9758 19.0843 26.9554 19.3834 26.9758 19.6756C26.9758 19.8251 27.0029 19.9611 27.0232 20.097L27.0638 20.3349C27.0842 20.4232 27.118 20.5116 27.1248 20.5456C27.2332 20.899 27.3416 21.232 27.4365 21.5446C27.8294 22.7476 27.9107 23.502 27.8362 23.8622C27.8091 24.0525 27.7616 24.1613 27.7278 24.236C27.7007 24.3176 27.6668 24.3516 27.6668 24.3516C27.6668 24.3516 27.6397 24.3855 27.5991 24.4603C27.5381 24.5283 27.4636 24.6438 27.2942 24.7797C26.9283 25.0924 26.2644 25.5205 25.2888 25.6837C24.3335 25.84 22.965 25.7176 21.6981 24.9564C20.3567 24.1817 19.0356 22.836 18.1548 21.0145C17.2673 19.2067 16.8134 16.8823 17.0979 14.4968C17.4638 12.084 18.3784 9.51498 20.1128 7.35372C21.8133 5.17207 24.2387 3.37102 27.0571 2.24961L28.1275 1.85542L29.2318 1.52919C29.6044 1.43404 29.9838 1.36608 30.3632 1.28452C30.7426 1.19617 31.1288 1.135 31.5149 1.09422C33.0664 0.863145 34.6585 0.849552 36.2506 0.999073C37.05 1.05344 37.8359 1.21656 38.6286 1.35249C39.4077 1.54958 40.2004 1.73309 40.9592 2.00494C42.4903 2.52827 43.9876 3.19432 45.3764 4.05066C48.1609 5.73618 50.6202 7.98579 52.4968 10.5956C54.4006 13.1918 55.7488 16.1211 56.5279 19.0979C56.7515 19.8319 56.8463 20.5999 57.0089 21.334C57.158 22.0748 57.1918 22.8292 57.2867 23.5632C57.3748 24.2972 57.3477 25.038 57.3815 25.7652C57.4019 26.1254 57.3815 26.4924 57.3612 26.8458C57.3477 27.1585 57.3274 27.4643 57.3138 27.7702C57.3003 28.4906 57.1783 29.177 57.097 29.8159C57.0564 30.1353 57.0157 30.4412 56.9751 30.7402C56.9141 31.0324 56.8531 31.3179 56.7989 31.583C56.6837 32.1199 56.5753 32.6024 56.4873 33.0238C56.3653 33.4384 56.2637 33.7918 56.1824 34.0704C55.593 36.1569 54.9358 37.7201 54.4074 39.2357C54.1296 39.9901 53.8315 40.7105 53.5876 41.4989C53.3098 42.2669 53.0117 43.0621 52.7407 43.9796C53.364 43.2864 53.9331 42.6203 54.4141 41.9271C54.8613 41.2203 55.2949 40.527 55.6539 39.7726C56.345 38.257 56.948 36.5715 57.3545 34.3559C57.4087 34.0568 57.4832 33.683 57.5645 33.2481C57.6187 32.8063 57.6796 32.2966 57.7542 31.7393C57.788 31.4606 57.8219 31.1684 57.8626 30.8625C57.8761 30.5567 57.8964 30.2373 57.9168 29.9042C57.9506 29.245 58.0116 28.5382 57.9777 27.7973C57.9777 27.4847 57.971 27.1721 57.9642 26.8526C57.9642 26.4856 57.9574 26.1186 57.91 25.7516C57.8287 25.0176 57.8151 24.27 57.6864 23.5224C57.5509 22.7816 57.4764 22.0272 57.2935 21.2796C57.097 20.5388 56.9683 19.7776 56.7176 19.0436C55.8301 16.0735 54.4209 13.1783 52.5036 10.5956C48.7368 5.39636 42.8019 1.47482 36.3116 0.536917C34.6992 0.299042 33.0596 0.217485 31.4472 0.36021C31.0407 0.380599 30.641 0.414581 30.2413 0.482546C29.8415 0.543713 29.4418 0.584492 29.0421 0.659252L27.8633 0.924313C27.4771 1.03306 27.0909 1.14859 26.7115 1.25734C23.6628 2.22922 20.8919 3.95551 18.8255 6.2527C16.7253 8.5363 15.4652 11.35 14.8893 14.1298C14.3744 16.9842 14.7741 19.7776 15.7904 22.1019C16.8134 24.4331 18.4529 26.2546 20.2618 27.3488C22.1385 28.5178 24.1303 28.7556 25.7292 28.511C27.3416 28.2595 28.4798 27.5459 29.1505 26.9614C29.5163 26.6555 29.7602 26.3361 29.9228 26.1322C30.0651 25.9011 30.1396 25.7856 30.1396 25.7856C30.1396 25.7856 30.2209 25.6701 30.3293 25.4186C30.4445 25.1739 30.5936 24.7797 30.6613 24.2836C30.8442 23.2573 30.5732 21.9456 30.1396 20.6747C30.038 20.3689 29.9364 20.0494 29.828 19.7096C29.8077 19.6552 29.8144 19.662 29.8144 19.662C29.8144 19.6552 29.8144 19.6484 29.8144 19.6281C29.8144 19.5805 29.7941 19.5397 29.7941 19.4921C29.7873 19.4038 29.7941 19.3154 29.7941 19.2203C29.8348 18.8601 30.099 18.3843 30.6071 17.9629C30.8578 17.759 31.1627 17.5687 31.4878 17.426C31.6098 17.3784 31.5556 17.392 31.664 17.3716L31.9621 17.3037C32.1586 17.2561 32.3618 17.1881 32.5718 17.1881C33.3984 17.059 34.2791 17.1677 35.1599 17.4804C36.9213 18.0989 38.6422 19.6756 39.699 21.8029C40.2275 22.8699 40.5866 24.0389 40.7153 25.3099C40.8914 26.608 40.8169 27.9333 40.5798 29.2722C39.6719 34.6685 34.8618 39.7658 28.7372 41.2814C25.6885 42.097 22.3891 42.131 19.2456 41.4242C16.0953 40.7241 13.1007 39.3241 10.5195 37.4279C7.92471 35.5453 5.74997 33.1597 4.11721 30.5431C2.47091 27.9333 1.40047 25.072 0.838156 22.2651C0.54006 20.865 0.411337 19.4649 0.343588 18.1057C0.343588 17.426 0.309713 16.7532 0.350363 16.0939C0.370687 15.7677 0.384237 15.4347 0.404562 15.1152C0.411337 14.9521 0.418112 14.789 0.445211 14.6327L0.479086 14.3472C0.55361 13.7016 0.607809 13.0967 0.716208 12.5598C0.88558 11.4724 1.10915 10.6092 1.24465 10.0315C2.39639 5.82453 3.43972 3.65647 4.34756 0Z" fill="#3B576B"/>
</g>
<defs>
<clipPath id="clip0_5534_84066">
<rect width="58" height="44" fill="white"/>
</clipPath>
</defs>
</svg>
