<svg width="102" height="97" viewBox="0 0 102 97" fill="none" xmlns="http://www.w3.org/2000/svg">
<path d="M61.2222 59.3958C73.4208 51.4957 81.3518 38.5942 82.3208 25.126C82.5099 21.8663 82.6294 18.2428 81.0432 15.2813C79.0588 11.455 74.0811 10.2472 69.6842 10.3814C55.3387 10.5275 43.18 21.6575 43.1037 34.6277C43.1103 34.7201 42.9577 34.738 42.9278 34.6575C40.6746 30.9654 38.1957 27.1271 34.2767 24.7651C27.9053 20.8314 20.9532 22.7312 17.0607 28.5199C13.8783 33.4139 14.2235 39.5336 15.6139 44.8958C18.1027 54.0575 24.6665 61.8831 32.581 67.8806C36.2843 70.5706 39.9412 73.3621 44.003 75.6435C47.0227 77.4329 50.7261 78.2441 53.3476 80.5614C55.3984 82.3806 56.2745 85.8371 53.7027 87.6265C50.9252 89.4576 46.6411 88.3691 44.9388 85.7685C43.5583 83.8509 43.2032 81.5157 43.2497 79.2879C43.4753 72.6731 46.3756 66.3924 49.8666 60.6961C53.7127 54.0933 63.8405 41.7256 64.0894 34.735C63.9234 30.8163 59.0951 30.2556 56.1285 32.3164C54.6684 33.2528 53.4936 34.5173 52.3753 35.7699C50.517 37.8873 48.964 40.2225 47.7362 42.6799C45.785 46.6226 44.7363 50.9141 44.6866 55.1878C44.6866 55.4622 44.4344 55.6829 44.1291 55.6739C43.8238 55.665 43.5882 55.4294 43.6081 55.155C44.0262 49.8554 42.44 44.3351 39.1879 39.8467C36.8717 36.6706 33.1185 35.9637 30.3875 39.1906C28.9207 40.9204 28.3267 43.1213 28.3301 45.2716C28.2703 49.59 30.4107 53.8786 33.8751 56.8519C35.6173 58.3401 37.7013 59.5151 39.9844 60.2041C37.7013 59.5181 35.6107 58.3461 33.8652 56.8609C30.4804 53.98 28.3964 49.8673 28.2703 45.6742C28.2902 44.4723 28.3599 43.2138 28.7449 42.0566C29.6641 38.9878 32.946 35.6924 36.6925 37.5354C40.1635 39.3338 42.7088 45.2656 43.6877 48.6714C44.2817 50.7889 44.6036 52.9689 44.6832 55.1729L43.6081 55.1401C43.7906 53.4968 44.0328 51.8655 44.451 50.258C45.8978 44.4097 48.9574 38.8894 53.3443 34.3801C54.9139 32.7637 56.8585 31.1294 59.3606 30.9206C60.5785 30.8222 61.8793 31.0578 62.8615 31.7676C64.9123 33.2618 64.5573 35.9518 63.8504 37.9649C62.3638 42.1163 60.1471 46.0052 57.7877 49.7868C53.0822 57.2784 47.64 64.5612 45.2905 72.9893C44.149 77.3763 42.8813 84.8351 48.1078 87.3939C49.8533 88.1723 52.2028 88.217 53.7359 87.0271C55.8033 85.3301 54.977 82.321 53.195 80.6837C51.5325 79.1001 49.2328 78.271 47.0825 77.3494L43.7939 75.9776C41.5971 75.065 39.3837 74.1404 37.2633 73.0459C26.7472 67.466 18.8659 57.9494 15.657 47.395C13.3739 39.462 12.3685 28.1232 20.7375 22.755C25.2373 19.8652 31.0313 20.5988 35.2589 23.5275C39.251 26.2265 41.554 30.4494 43.0904 34.5949C43.097 34.5978 42.9178 34.6306 42.9178 34.6306C42.8282 32.2358 43.1468 29.8112 43.847 27.485C45.556 21.75 49.6011 16.5876 55.1529 13.3369C61.1492 9.75808 69.963 7.77484 76.8852 10.1756C82.7522 12.2334 84.0895 17.7209 83.7245 22.8028C83.6282 23.766 83.5751 25.0813 83.4158 26.0177C83.2333 27.5178 82.8517 29.3042 82.5 30.7745C81.5907 34.1326 80.3164 37.4758 78.6672 40.6013C74.7581 48.0571 68.7219 54.642 61.2189 59.3929L61.2222 59.3958Z" fill="url(#paint0_linear_5009_80587)"/>
<path d="M60.2267 59.3958C71.6885 51.952 80.051 40.3746 81.9956 27.7266C83.2897 18.541 82.5365 10.2681 69.8568 10.3754C61.7432 10.4917 53.716 14.0795 48.808 19.9218C45.2308 24.118 43.2298 29.3161 43.1004 34.6306C43.1004 34.7201 42.9577 34.735 42.9278 34.6575C41.7697 32.7697 40.6049 30.8998 39.2178 29.1969C35.4016 24.2373 28.2571 20.5541 21.9388 24.0553C17.9534 26.1579 15.6537 30.2079 14.2898 34.0789C11.7711 41.8777 16.991 51.6001 22.1213 57.7675C25.599 62.0412 29.7006 65.9033 34.2734 69.2375C36.958 71.176 39.8218 73.4128 42.7187 75.0918C45.6589 76.9528 49.2726 77.8505 51.8776 80.1468C53.6662 81.5873 54.904 83.9225 53.998 86.0727C52.9992 88.4287 49.9993 89.1415 47.6101 87.9903C41.7763 85.0468 43.1236 77.7073 44.1257 72.7596C45.5261 66.3476 48.7616 60.4218 52.6076 54.9462C56.311 49.4617 60.1869 43.9653 62.5164 37.8754C63.0308 36.3843 63.4091 34.7261 62.7421 33.2409C62.0784 31.7318 60.2134 30.9982 58.4746 31.1473C54.904 31.4396 52.3853 34.5352 50.4307 36.9598C46.3823 42.2773 44.7231 48.8086 44.6832 55.1878C44.6633 55.8409 43.5815 55.823 43.6081 55.155C43.93 50.8634 42.2608 46.6047 40.0872 42.8141C38.959 40.9412 37.8738 38.8566 35.7998 37.6905C32.1363 35.6864 28.798 38.9162 27.8356 41.9672C26.8434 45.1075 27.3345 48.5372 28.7515 51.5106C30.6563 55.492 34.3696 58.8352 38.9888 60.2041C32.0401 58.1492 27.1686 51.7074 27.2748 45.1761C27.2947 43.005 27.9119 40.7862 29.4285 39.0564C30.9417 37.2193 33.5665 36.3425 35.8529 37.6159C37.4358 38.4719 38.4678 39.9064 39.3904 41.2991C40.9434 43.6432 42.3073 46.0828 43.3028 48.6774C44.0926 50.7531 44.6036 52.9332 44.6899 55.1759L43.6147 55.1431C44.0295 50.8217 44.9852 46.5241 46.8137 42.5219C48.1742 39.5246 50.0558 36.7093 52.4517 34.2877C53.2448 33.4795 54.0976 32.7011 55.0931 32.0778C57.4558 30.4256 61.6868 30.3331 63.0242 33.1365C65.6988 38.7194 52.7603 55.149 49.8036 60.9109C47.693 64.7282 46.077 68.7663 45.1445 72.9445C44.524 76.0402 43.9565 79.2522 44.524 82.3717C44.9023 84.3639 45.9874 86.362 47.9751 87.3909C49.412 88.1544 51.3665 88.2081 52.6408 87.1613C55.0035 85.2824 53.8885 81.9422 51.7515 80.2751C49.3058 78.0473 45.5162 76.9319 42.4466 75.5451C39.7322 74.385 36.9978 73.1563 34.5156 71.5935C33.0621 70.7108 31.5854 69.5566 30.2614 68.5098C21.1789 60.9586 13.8617 50.0701 13.1284 38.8089C12.9558 34.9676 14.2832 31.2189 16.0652 27.7624C18.0795 23.8794 22.4697 20.7599 27.3976 20.912C35.833 21.249 40.7708 28.0278 43.0937 34.5978L42.9212 34.6306C42.8548 32.4923 43.0672 30.3301 43.6446 28.2395C45.2772 21.8961 49.7969 16.1969 56.0223 12.8418C64.5075 7.95974 81.6505 6.27473 83.5088 18.1384C84.0596 21.3832 83.6813 24.6757 83.1039 27.8817C80.5155 40.5476 71.8611 52.0265 60.2267 59.3929V59.3958Z" fill="url(#paint1_linear_5009_80587)"/>
<path d="M59.2312 59.3958C70.6797 51.9221 79.6129 40.6579 81.9093 27.9831C82.6161 23.3455 83.2698 16.7755 79.4138 13.1878C75.2492 9.57019 68.3867 10.0354 63.1502 11.2552C51.476 14.0854 43.2961 23.7869 43.1004 34.6277C43.107 34.7231 42.9577 34.738 42.9278 34.6605C41.7829 32.7935 40.6314 30.9385 39.2609 29.2505C33.4437 21.7917 23.6046 19.7846 17.3925 28.0546C13.3341 34.0759 12.6173 39.4531 15.0232 46.1573C17.1868 52.2085 21.4377 57.4275 26.047 62.1605C29.0966 65.3515 32.5478 68.1669 36.1151 70.8718C38.7665 72.9266 41.5341 74.9845 44.6401 76.4995C45.6754 77.0214 46.7705 77.43 47.7992 77.9668C48.8346 78.5006 49.7671 79.1806 50.6265 79.9172C51.5026 80.6419 52.3123 81.471 52.7835 82.4731C54.6086 85.7983 51.3101 90.2748 47.2086 87.8293C43.9499 85.9653 43.0871 82.2166 43.2497 78.9748C43.6512 71.4653 45.8746 64.0006 50.2084 57.5438C54.3929 51.1766 58.8894 44.7974 61.5574 37.768C62.7952 34.5054 62.0618 30.9713 57.4592 31.1473C53.9582 31.4396 51.3798 34.4845 49.5182 36.9121C45.6124 42.2892 44.7231 48.8951 44.6832 55.1878C44.6633 55.8439 43.5749 55.82 43.6081 55.152C43.7806 53.0495 43.2497 50.8992 42.4201 48.8742C41.1624 45.8203 39.2842 42.9633 37.4325 40.1658C35.2556 36.9688 31.5423 35.755 28.5856 38.9699C24.776 43.345 26.1764 50.0075 29.4716 54.308C31.5224 57.013 34.5156 59.1722 37.99 60.2041C30.9981 58.1373 26.1167 51.6299 26.276 45.0598C26.3191 42.8738 26.9728 40.649 28.5358 38.9341C30.1087 37.097 32.7967 36.3544 35.0366 37.7203C37.104 38.961 38.1758 41.0605 39.47 42.8887C40.7277 44.7616 41.9455 46.6673 42.9178 48.6953C43.8868 50.7173 44.6069 52.8884 44.6799 55.1759C44.6799 55.1759 43.6014 55.1431 43.6048 55.1431C44.3481 46.8164 46.3292 37.4728 54.1009 32.0718C56.0156 30.8073 58.8894 30.3719 60.8738 31.7766C62.8914 33.2379 62.5762 35.8802 61.8959 37.8635C59.709 43.9802 56.1882 49.587 52.664 55.1371C51.6254 56.7416 50.152 59.0588 49.2726 60.714C47.2451 64.5195 45.8513 68.5784 45.0649 72.7358C44.3514 77.4061 42.8415 83.994 47.6433 87.2627C49.7737 88.7359 51.9439 87.719 52.7802 85.5926C53.1253 84.6203 52.976 83.5318 52.5479 82.5685C52.1231 81.5724 51.3433 80.7761 50.5004 80.0425C49.6708 79.2909 48.735 78.6348 47.7163 78.1069C45.9442 77.2301 43.1667 76.1326 41.3217 75.3036C36.9779 73.4784 32.8896 71.0836 29.5114 67.9969C20.0838 59.5002 10.5201 46.0172 13.8252 33.5809C14.9469 29.349 16.8649 24.8576 21.1955 22.4747C25.7052 19.8294 31.4593 20.7957 35.4779 23.6736C39.3638 26.4382 41.5706 30.5031 43.097 34.5949L42.9245 34.6277C42.8581 32.4804 43.0738 30.3093 43.6545 28.2127C45.3005 21.8424 49.8633 16.1313 56.1318 12.7851C63.4887 8.64866 78.2524 6.35227 82.5663 15.1263C83.5552 17.199 83.7975 19.4596 83.7842 21.6725C83.3395 36.9121 72.7139 50.771 59.2378 59.3899L59.2312 59.3958Z" fill="url(#paint2_linear_5009_80587)"/>
<defs>
<linearGradient id="paint0_linear_5009_80587" x1="13.1133" y1="-0.813593" x2="52.0699" y2="122.075" gradientUnits="userSpaceOnUse">
<stop offset="0.0413924" stop-color="#D7BBA9" stop-opacity="0"/>
<stop offset="0.131995" stop-color="#D7BBA9" stop-opacity="0.3"/>
<stop offset="0.456271" stop-color="#D7BBA9"/>
<stop offset="0.653201" stop-color="#D7BBA9" stop-opacity="0.3"/>
<stop offset="0.842678" stop-color="#D7BBA9" stop-opacity="0"/>
</linearGradient>
<linearGradient id="paint1_linear_5009_80587" x1="13.1133" y1="-0.813593" x2="52.0699" y2="122.075" gradientUnits="userSpaceOnUse">
<stop offset="0.0413924" stop-color="#D7BBA9" stop-opacity="0"/>
<stop offset="0.131995" stop-color="#D7BBA9" stop-opacity="0.3"/>
<stop offset="0.456271" stop-color="#D7BBA9"/>
<stop offset="0.653201" stop-color="#D7BBA9" stop-opacity="0.3"/>
<stop offset="0.842678" stop-color="#D7BBA9" stop-opacity="0"/>
</linearGradient>
<linearGradient id="paint2_linear_5009_80587" x1="13.1133" y1="-0.813593" x2="52.0699" y2="122.075" gradientUnits="userSpaceOnUse">
<stop offset="0.0413924" stop-color="#D7BBA9" stop-opacity="0"/>
<stop offset="0.131995" stop-color="#D7BBA9" stop-opacity="0.3"/>
<stop offset="0.456271" stop-color="#D7BBA9"/>
<stop offset="0.653201" stop-color="#D7BBA9" stop-opacity="0.3"/>
<stop offset="0.842678" stop-color="#D7BBA9" stop-opacity="0"/>
</linearGradient>
</defs>
</svg>
