<svg width="894" height="416" viewBox="0 0 894 416" fill="none" xmlns="http://www.w3.org/2000/svg">
<path d="M54.0001 385.175L44.7408 388.839L15.2294 380.109V384.489L6.30711 388.027V395.607L1 397.78V401.795L44.7408 415L54.0001 411.178L67.059 415L87.654 406.73L105.195 411.803L125.653 403.767L141.274 408.396L161.982 400.222L177.607 404.707L198.316 396.605L214.101 401.162L259.063 383.416L268.385 386.155L659.989 231.818L667.253 233.972L688.017 225.757L704.654 230.875L725.462 222.525L741.875 227.598L762.862 219.403L779.589 224.191L800.263 216.049L816.811 221.064L893 190.854V187.112L888.117 185.44V166.921L816.811 194.976L800.263 190.047L779.589 198.246L762.862 193.228L741.875 201.517L725.462 196.633L704.654 204.743L688.017 199.825L667.253 208.09L659.989 205.809L246.475 368.665L237.271 365.895L214.101 375.24L198.316 370.609L177.607 378.714L161.982 374.083L141.274 382.353L125.653 377.639L105.195 385.91L87.654 380.74L67.059 388.839L54.0001 385.175Z" fill="#C09776" fill-opacity="0.7"/>
<path d="M893 165L888.117 166.921M888.117 166.921L816.811 194.976L800.263 190.047L779.589 198.246L762.862 193.228L741.875 201.517L725.462 196.633L704.654 204.743L688.017 199.825L667.253 208.09L659.989 205.809L246.475 368.665L237.271 365.895L214.101 375.24L198.316 370.609L177.607 378.714L161.982 374.083L141.274 382.353L125.653 377.639L105.195 385.91L87.654 380.74L67.059 388.839L54.0001 385.175L44.7408 388.839L15.2294 380.109V384.489L6.30711 388.027V395.607L1 397.78V401.795L44.7408 415L54.0001 411.178L67.059 415L87.654 406.73L105.195 411.803L125.653 403.767L141.274 408.396L161.982 400.222L177.607 404.707L198.316 396.605L214.101 401.162L259.063 383.416L268.385 386.155L659.989 231.818L667.253 233.972L688.017 225.757L704.654 230.875L725.462 222.525L741.875 227.598L762.862 219.403L779.589 224.191L800.263 216.049L816.811 221.064L893 190.854V187.112L888.117 185.44V166.921Z" stroke="#3B576B"/>
<path d="M800.367 164.167L816.896 169.167L887.971 141V159.193L893 161.076V165.022L816.896 195.016L800.367 190.084L779.717 198.289L763.008 193.267L742.044 201.562L725.65 196.675L704.865 204.79L688.246 199.869L667.507 208.138L660.25 205.856L247.2 368.814L238.006 366.041L214.862 375.393L199.095 370.759L178.409 378.869L162.802 374.234L142.117 382.51L126.514 377.793L106.078 386.069L88.5568 380.896L67.9849 389L54.9407 385.334L45.6918 389L2 376.053V372.04L7.17704 369.803V362.215L16.1599 358.615V354.227L45.6918 362.923L54.9407 359.444L67.9849 363.192L88.5568 355.083L106.078 360.067L126.514 351.884L142.117 356.571L162.802 348.313L178.409 353.149L202.326 344L227.242 351L247.2 343.106L660.25 179.649L667.507 182.229L688.246 173.926L704.865 178.924L725.65 170.783L742.044 175.7L763.008 167.236L779.717 172.395L800.367 164.167Z" fill="#C09776" fill-opacity="0.7" stroke="#3B576B"/>
<path d="M800.577 137.195L817.112 142.27L888.409 114V132.559L893 134.243V138.292L817.112 168.44L800.577 163.426L779.921 171.677L763.207 166.504L742.236 174.991L725.837 170.06L705.045 178.224L688.422 173.213L667.675 181.538L660.416 178.951L226.696 350.335L217.5 348L201.5 343.5L178.424 352.929L162.812 348.081L142.12 356.361L126.512 351.661L106.07 359.867L88.5435 354.869L67.9651 363L54.9168 359.242L45.665 362.73L2 349.842V345.774L7.28356 343.435V335.791L16.163 332.402V326.618L6.50248 323.907V320.758L11.1622 318.473L13.5906 317.438L51.8994 328.533V332.157L67.9651 336.912L88.5435 328.74L106.07 333.769L126.512 325.597L142.12 330.287L162.812 321.97L178.424 326.661L201.5 317.5L226.5 325L247.236 316.52L660.416 153.081L667.675 155.437L688.422 147.058L705.045 152.164L725.837 143.916L742.236 148.891L763.207 140.519L779.921 145.405L800.577 137.195Z" fill="#C09776" fill-opacity="0.7" stroke="#3B576B"/>
<path d="M201 291.5L178.293 300.803L162.678 296.065L141.982 304.402L126.371 299.619L105.926 307.91L72.4645 297.966V294.719L33.7525 283.493L31.6423 284.341L21.3165 288.983V304.231L16.2424 306.199V313.736L11 315.897V318.609L13.4289 317.577L51.7447 328.644V332.258L67.8134 337L88.3955 328.849L105.926 333.865L126.371 325.715L141.982 330.393L162.678 322.098L178.293 326.776L198.988 318.577L214.764 323.159L216.545 323.717L225.743 326.5L660.373 153.651L667.634 156.002L688.384 147.645L705.011 152.737L725.806 144.511L742.209 149.473L763.183 141.123L779.9 145.996L800.56 137.808L817.098 142.869L893 112.858V108.751L888.128 107.198V89L817.098 116.985L800.56 112.019L779.9 119.946L763.183 115.208L742.209 123.408L725.806 118.488L705.011 126.688L688.384 121.814L667.634 129.923L660.373 127.599L247.268 291L226.529 299L201 291.5Z" fill="#C09776" fill-opacity="0.7" stroke="#3B576B"/>
<path d="M42.4767 253.961L55.7193 248.342L106.604 263.516V266.871L142.289 277.535L162.975 269.162L178.583 273.855L201 265.5L226.5 273L660.439 100.82L667.696 103.188L688.437 94.9653L705.056 99.9259L725.841 91.703L742.236 96.6635L763.201 88.3959L779.91 93.3118L800.561 85.2676L817.091 90.1388L888.427 62V80.4336L893 82.1542V86.3838L817.091 116.274L800.561 111.313L779.91 119.232L763.201 114.499L742.236 122.69L725.841 117.775L705.056 125.967L688.437 121.097L667.696 129.198L660.439 126.877L226.5 298.5L215.5 295L201 291L178.583 299.901L162.975 295.168L142.289 303.496L126.685 298.717L106.249 307L72.8033 297.066V293.823L34.1092 282.608L32 283.456V280.922L37.333 278.76L37.333 271.199L42.4767 269.314V253.961Z" fill="#C09776" fill-opacity="0.7" stroke="#3B576B"/>
<path d="M800.488 85.0653L817.01 89.928L888.312 61.8378L893 59.9807V56.0458L887.978 54.2134V36L817.01 63.9656L800.488 59.0564L779.847 67.1513L763.146 62.3466L742.192 70.546L725.805 65.5324L705.029 73.7839L688.418 68.7703L667.688 76.9697L660.435 74.724L247.571 237.448L238.382 234.723L215.249 243.869L199.488 239.199L178.812 247.502L137.627 235.095V231.736L76.7003 213.752L63.4005 219.221V234.548L58.264 236.69V244.207L53 246.262V249.07L56.0088 247.858L106.869 263.006V266.355L142.536 277L163.212 268.642L178.812 273.327L201 265L226.689 272.422L660.435 100.59L667.688 102.955L688.418 94.7462L705.029 99.6982L725.805 91.4895L742.192 96.4415L763.146 88.1881L779.847 93.0955L800.488 85.0653Z" fill="#C09776" fill-opacity="0.7" stroke="#3B576B"/>
<path d="M817.085 63.7618L888.034 35.8416L893 33.8702V29.8999L887.817 28.0095V20.4408L874.323 16.3218V9.70598L844.794 1V9.1523L849.419 10.3239L803.5 28.6111V31.6614L779.933 41.0544L759.219 34.855V31.6614L746.607 27.8256L728.745 34.855V38.3136L705.136 47.4583L688.529 42.7166L667.805 50.913L651.207 45.9681L215.492 217.432L181.271 207.232V203.739L94.7269 178.432V180.709L84.4532 184.861V200.039L79.3387 202.181V209.503L74 211.869V214.502L76.9826 213.305L137.892 231.26V234.614L179.066 247L199.736 238.711L215.492 243.373L238.619 234.242L247.806 236.962L660.553 74.5027L667.805 76.7448L688.529 68.5587L705.136 73.5642L725.905 65.326L742.288 70.3315L763.237 62.1454L779.933 66.9424L800.568 58.8606L817.085 63.7618Z" fill="#C09776" fill-opacity="0.7" stroke="#3B576B"/>
</svg>
