<svg width="36" height="50" viewBox="0 0 36 50" fill="none" xmlns="http://www.w3.org/2000/svg">
<path fill-rule="evenodd" clip-rule="evenodd" d="M1.11758 31.6816C1.45962 31.6816 1.67253 31.4887 1.67253 31.2112C1.67253 30.9076 1.45508 30.7477 1.11758 30.7477H0.592081V31.6816H1.11758ZM0.139063 30.3333H1.15383C1.75294 30.3333 2.13008 30.6781 2.13008 31.2078C2.13008 31.7901 1.66687 32.0938 1.1006 32.0938H0.592081V32.9272H0.139063V30.3333Z" fill="#C2DCF2"/>
<path fill-rule="evenodd" clip-rule="evenodd" d="M2.725 30.3333H4.63222V30.7409H3.17688V31.4145H4.46798V31.8232H3.17688V32.5185H4.65146V32.9261H2.725V30.3333Z" fill="#C2DCF2"/>
<path fill-rule="evenodd" clip-rule="evenodd" d="M5.32812 30.3333H5.78V31.6371L7.00316 30.3333H7.55924L6.48897 31.4487L7.6068 32.9261H7.05865L6.18092 31.7593L5.78 32.1748V32.9261H5.32812V30.3333Z" fill="#C2DCF2"/>
<path fill-rule="evenodd" clip-rule="evenodd" d="M10.082 31.6291C10.082 31.1256 9.71847 30.7066 9.20659 30.7066C8.69579 30.7066 8.34019 31.1176 8.34019 31.6291C8.34019 32.1326 8.7037 32.5516 9.21451 32.5516C9.72527 32.5516 10.082 32.1406 10.082 31.6291ZM7.86563 31.6291C7.86563 30.8995 8.42399 30.2876 9.21451 30.2876C10.005 30.2876 10.5566 30.8916 10.5566 31.6291C10.5566 32.3586 9.99823 32.9706 9.20771 32.9706C8.41719 32.9706 7.86563 32.3666 7.86563 31.6291Z" fill="#C2DCF2"/>
<path fill-rule="evenodd" clip-rule="evenodd" d="M12.2117 31.6816C12.5538 31.6816 12.7667 31.4887 12.7667 31.2112C12.7667 30.9076 12.5493 30.7477 12.2117 30.7477H11.6863V31.6816H12.2117ZM11.2344 30.3333H12.2491C12.8483 30.3333 13.2254 30.6781 13.2254 31.2078C13.2254 31.7901 12.7622 32.0938 12.1959 32.0938H11.6851V32.9272H11.2344V30.3333Z" fill="#C2DCF2"/>
<path fill-rule="evenodd" clip-rule="evenodd" d="M15.3467 32.5185V30.7443H14.4395V31.04C14.4395 31.6405 14.3364 32.1589 14.1609 32.5173H15.3467V32.5185ZM13.4281 32.5185H13.6773C13.8902 32.0926 14.0046 31.5663 14.0046 30.6998V30.3333H15.7974V32.5185H16.1179L16.0556 33.4821H15.6808V32.9261H13.8698L13.8256 33.4821H13.4292V32.5185H13.4281Z" fill="#C2DCF2"/>
<path fill-rule="evenodd" clip-rule="evenodd" d="M19.0002 30.3333H19.4487V32.9261H19.0002V30.3333ZM17.7181 32.5185C18.0522 32.5185 18.247 32.3666 18.247 32.0744C18.247 31.8072 18.0522 31.6634 17.7102 31.6634H17.1371V32.5185H17.7181ZM17.1371 30.3333V31.2672H17.7295C18.3059 31.2672 18.6955 31.556 18.6955 32.0789C18.6955 32.6007 18.3207 32.9272 17.7249 32.9272H16.6875V30.3333H17.1371Z" fill="#C2DCF2"/>
<path fill-rule="evenodd" clip-rule="evenodd" d="M22.3462 31.6556C22.6882 31.6556 22.9011 31.4627 22.9011 31.1852C22.9011 30.8804 22.6836 30.7217 22.3462 30.7217H21.8206V31.6556H22.3462ZM21.3688 30.3073H22.3835C22.9826 30.3073 23.3609 30.6521 23.3609 31.1818C23.3609 31.7629 22.8977 32.0666 22.3314 32.0666H21.8206V32.9H21.3688V30.3073Z" fill="#C2DCF2"/>
<path fill-rule="evenodd" clip-rule="evenodd" d="M26.2647 30.3073H26.7132V32.9H26.2647V30.3073ZM24.9826 32.4936C25.3167 32.4936 25.5127 32.3418 25.5127 32.0495C25.5127 31.7823 25.3179 31.6373 24.9758 31.6373H24.4028V32.4936H24.9826ZM23.9531 30.3073H24.4016V31.2412H24.994C25.5704 31.2412 25.96 31.53 25.96 32.0518C25.96 32.5747 25.5852 32.9 24.9894 32.9H23.9531V30.3073Z" fill="#C2DCF2"/>
<path fill-rule="evenodd" clip-rule="evenodd" d="M27.5219 30.3073H27.9738V31.385H29.2014V30.3073H29.6533V32.9012H29.2014V31.8075H27.9738V32.9012H27.5219V30.3073Z" fill="#C2DCF2"/>
<path fill-rule="evenodd" clip-rule="evenodd" d="M30.4609 30.3073H30.9139V31.6111L32.1371 30.3073H32.6921L31.6229 31.4227L32.7396 32.9012H32.1926L31.3149 31.7344L30.9139 32.1488V32.9012H30.4609V30.3073Z" fill="#C2DCF2"/>
<path fill-rule="evenodd" clip-rule="evenodd" d="M34.9511 31.8712L34.506 30.8334L34.0655 31.8712H34.9511ZM34.3033 30.2888H34.7224L35.8549 32.901H35.377L35.1165 32.2753H33.9001L33.6351 32.901H33.1719L34.3033 30.2888Z" fill="#C2DCF2"/>
<path fill-rule="evenodd" clip-rule="evenodd" d="M0 33.9639H0.451888V35.0416H1.67957V33.9639H2.13146V36.5567H1.67957V35.4641H0.451888V36.5567H0V33.9639Z" fill="#C2DCF2"/>
<path fill-rule="evenodd" clip-rule="evenodd" d="M2.9375 33.9639H4.84471V34.3715H3.38939V35.0462H4.67935V35.4526H3.38939V36.1491H4.86395V36.5567H2.9375V33.9639Z" fill="#C2DCF2"/>
<path fill-rule="evenodd" clip-rule="evenodd" d="M7.2545 36.1491V34.3749H6.34618V34.6706C6.34618 35.2712 6.24314 35.7895 6.06758 36.1491H7.2545ZM5.33594 36.1491H5.5851C5.79802 35.7233 5.91242 35.1969 5.91242 34.3304V33.9639H7.70526V36.1491H8.02462L7.96234 37.1127H7.58858V36.5567H5.7765L5.73234 37.1127H5.33594V36.1491Z" fill="#C2DCF2"/>
<path fill-rule="evenodd" clip-rule="evenodd" d="M9.79171 36.1537C10.0998 36.1537 10.2878 36.0315 10.2878 35.7906C10.2878 35.5725 10.1145 35.4424 9.75887 35.4424H9.04195V36.1537H9.79171ZM9.65919 35.0565C9.94915 35.0565 10.144 34.9412 10.144 34.6969C10.144 34.4925 9.98199 34.3669 9.69207 34.3669H9.04084V35.0565H9.65919ZM8.59688 33.9639H9.75095C10.0454 33.9639 10.2764 34.045 10.4237 34.1934C10.5381 34.3087 10.597 34.4491 10.597 34.6307C10.597 34.9423 10.4203 35.109 10.2289 35.2083C10.5302 35.3122 10.7397 35.4858 10.7397 35.8454C10.7397 36.3089 10.3614 36.5567 9.78831 36.5567H8.59688V33.9639Z" fill="#C2DCF2"/>
<path fill-rule="evenodd" clip-rule="evenodd" d="M11.4031 33.9639H11.8482V35.8568L13.1495 33.9639H13.572V36.5567H13.1269V34.6672L11.8301 36.5567H11.4031V33.9639Z" fill="#C2DCF2"/>
<path fill-rule="evenodd" clip-rule="evenodd" d="M15.8392 36.5567V35.8683L15.436 35.4047L14.6682 36.5567H14.1234L15.1382 35.0679L14.1755 33.9639H14.7146L15.8392 35.3122V33.9639H16.2877V35.3122L17.4124 33.9639H17.9526L16.9865 35.0679L18.0047 36.5567H17.461L16.692 35.4047L16.2877 35.8683V36.5567H15.8392Z" fill="#C2DCF2"/>
<path fill-rule="evenodd" clip-rule="evenodd" d="M18.5609 33.9639H19.0061V35.8568L20.3062 33.9639H20.7287V36.5567H20.2847V34.6672L18.9868 36.5567H18.5609V33.9639Z" fill="#C2DCF2"/>
<path fill-rule="evenodd" clip-rule="evenodd" d="M21.5359 33.9639H22.0184L22.801 35.1901L23.5836 33.9639H24.0661V36.5567H23.613V34.6969L22.801 35.9196H22.7863L21.981 34.7049V36.5567H21.5359V33.9639Z" fill="#C2DCF2"/>
<path fill-rule="evenodd" clip-rule="evenodd" d="M26.9617 35.2597C26.9617 34.7562 26.5982 34.3372 26.0863 34.3372C25.5755 34.3372 25.2199 34.7482 25.2199 35.2597C25.2199 35.7632 25.5834 36.1822 26.0942 36.1822C26.605 36.1833 26.9617 35.7712 26.9617 35.2597ZM24.7453 35.2597C24.7453 34.5302 25.3037 33.9182 26.0942 33.9182C26.8847 33.9182 27.4352 34.5222 27.4352 35.2597C27.4352 35.9892 26.8768 36.6012 26.0863 36.6012C25.2969 36.6012 24.7453 35.9972 24.7453 35.2597Z" fill="#C2DCF2"/>
<path fill-rule="evenodd" clip-rule="evenodd" d="M28.0141 35.2597C28.0141 34.5222 28.5622 33.9182 29.3403 33.9182C29.8148 33.9182 30.1013 34.0849 30.3471 34.3224L30.0572 34.6591C29.851 34.4662 29.6302 34.3372 29.3369 34.3372C28.8442 34.3372 28.4886 34.7448 28.4886 35.2597C28.4886 35.7666 28.8453 36.1822 29.3369 36.1822C29.6529 36.1822 29.8544 36.052 30.0753 35.8454L30.3663 36.1411C30.0979 36.4231 29.8035 36.6012 29.3233 36.6012C28.5724 36.6012 28.0141 36.0121 28.0141 35.2597Z" fill="#C2DCF2"/>
<path fill-rule="evenodd" clip-rule="evenodd" d="M31.6728 34.3863H30.8563V33.9639H32.9447V34.3863H32.1281V36.5567H31.6728V34.3863Z" fill="#C2DCF2"/>
<path fill-rule="evenodd" clip-rule="evenodd" d="M33.5453 33.9639H33.9893V35.8568L35.2917 33.9639H35.713V36.5567H35.2691V34.6672L33.9712 36.5567H33.5453V33.9639Z" fill="#C2DCF2"/>
<path fill-rule="evenodd" clip-rule="evenodd" d="M22.5174 17.1036C22.5174 15.6868 21.7257 14.5611 20.6815 14.5611C19.5999 14.5611 18.8796 15.6514 18.8796 17.1402C18.8796 18.5924 19.6735 19.6827 20.7177 19.6827C21.7619 19.6827 22.5174 18.5935 22.5174 17.1036ZM15.277 23.9457H26.1574V28.1951H15.277V23.9457ZM14.9157 17.1756C14.9157 13.7631 17.1853 11.0025 20.7166 11.0025C24.2105 11.0025 26.4813 13.7631 26.4813 17.0671C26.4813 20.4819 24.1392 23.2425 20.6804 23.2425C17.2216 23.2413 14.9157 20.5184 14.9157 17.1756ZM0 11.2399H4.35804L9.60856 19.7352V11.2399H14.4717V28.2339H10.3798L4.86428 19.3973V28.2339H0V11.2399Z" fill="#C2DCF2"/>
<path fill-rule="evenodd" clip-rule="evenodd" d="M27.0046 7.24855L22.3169 8.32972L20.8469 2.32218L28.991 0H35.6957V28.2338H27.0046V7.24855Z" fill="#C2DCF2"/>
<path fill-rule="evenodd" clip-rule="evenodd" d="M0.040625 49.3437L4.3794 45.3889C6.29116 43.6284 6.95596 42.6235 6.95596 41.3828C6.95596 39.8574 5.726 38.8687 4.3296 38.8687C2.84935 38.8687 1.88555 39.6394 0.920617 41.0469L0.272797 40.611C1.28643 39.0526 2.36688 38.097 4.41228 38.097C6.38968 38.097 7.86992 39.4875 7.86992 41.3485C7.86992 42.957 7.0058 44.0304 4.9604 45.9074L1.40195 49.1586H7.9866V49.9969H0.040625V49.3437Z" fill="#C2DCF2"/>
<path fill-rule="evenodd" clip-rule="evenodd" d="M18.9032 44.0321C18.9032 41.3446 17.3992 38.8387 15.0277 38.8387C12.6572 38.8387 11.1849 41.3115 11.1849 44.0321C11.1849 46.7026 12.689 49.2244 15.0605 49.2244C17.4321 49.2244 18.9032 46.7357 18.9032 44.0321ZM10.3016 44.0321C10.3016 40.8494 12.1499 38.0635 15.0616 38.0635C17.9723 38.0635 19.7878 40.8172 19.7878 44.0321C19.7878 47.2139 17.9394 49.9998 15.0277 49.9998C12.1182 49.9998 10.3016 47.2462 10.3016 44.0321Z" fill="#C2DCF2"/>
<path fill-rule="evenodd" clip-rule="evenodd" d="M34.5582 39.0011L32.3146 39.7718L32.0812 39.0845L34.7416 38.0958H35.4065V49.9122H34.5582V39.0011Z" fill="#C2DCF2"/>
<path fill-rule="evenodd" clip-rule="evenodd" d="M21.5371 49.3403L25.8747 45.3843C27.7865 43.625 28.4513 42.6189 28.4513 41.3782C28.4513 39.8527 27.2213 38.864 25.8249 38.864C24.3447 38.864 23.3809 39.6347 22.4171 41.0423L21.7681 40.6064C22.7817 39.0478 23.8622 38.0922 25.9076 38.0922C27.885 38.0922 29.3653 39.4828 29.3653 41.3439C29.3653 42.9524 28.5011 44.0254 26.4557 45.9024L22.8973 49.154H29.4819V49.9919H21.5359V49.3403H21.5371Z" fill="#C2DCF2"/>
</svg>
