<svg width="40" height="40" viewBox="0 0 40 40" fill="none" xmlns="http://www.w3.org/2000/svg">
<path fill-rule="evenodd" clip-rule="evenodd" d="M20 40C31.0457 40 40 31.0457 40 20C40 8.9543 31.0457 0 20 0C8.9543 0 0 8.9543 0 20C0 31.0457 8.9543 40 20 40ZM18.3632 11.0424C18.3632 11.1524 18.3425 11.2532 18.3012 11.3447C18.2614 11.4348 18.2051 11.5131 18.1325 11.5793C18.0613 11.6456 17.9758 11.6973 17.8762 11.7345C17.7779 11.7703 17.6711 11.7882 17.5557 11.7882C17.4404 11.7882 17.3336 11.7703 17.2353 11.7345C17.1371 11.6973 17.0516 11.6456 16.979 11.5793C16.9064 11.5131 16.8494 11.4348 16.8081 11.3447C16.7682 11.2532 16.7483 11.1524 16.7483 11.0424C16.7483 10.9323 16.7682 10.8322 16.8081 10.742C16.8494 10.6506 16.9064 10.573 16.979 10.5093C17.0516 10.4444 17.1371 10.394 17.2353 10.3582C17.3336 10.3224 17.4404 10.3045 17.5557 10.3045C17.6711 10.3045 17.7779 10.3224 17.8762 10.3582C17.9758 10.394 18.0613 10.4444 18.1325 10.5093C18.2051 10.573 18.2614 10.6506 18.3012 10.742C18.3425 10.8322 18.3632 10.9323 18.3632 11.0424ZM18.077 11.0424C18.077 10.9721 18.0648 10.9058 18.0406 10.8435C18.0164 10.7812 17.9815 10.7268 17.936 10.6804C17.8904 10.634 17.8356 10.5975 17.7715 10.571C17.7074 10.5432 17.6355 10.5292 17.5557 10.5292C17.476 10.5292 17.4041 10.5432 17.34 10.571C17.2759 10.5975 17.2211 10.634 17.1755 10.6804C17.1299 10.7268 17.0951 10.7812 17.0708 10.8435C17.0466 10.9058 17.0345 10.9721 17.0345 11.0424C17.0345 11.114 17.0466 11.1816 17.0708 11.2452C17.0965 11.3089 17.1314 11.3639 17.1755 11.4103C17.2211 11.4567 17.2759 11.4938 17.34 11.5217C17.4041 11.5482 17.476 11.5614 17.5557 11.5614C17.6341 11.5614 17.7053 11.5482 17.7694 11.5217C17.8349 11.4938 17.8897 11.4567 17.9338 11.4103C17.9794 11.3639 18.0143 11.3089 18.0385 11.2452C18.0641 11.1816 18.077 11.114 18.077 11.0424ZM16.3859 10.3423V11.7504H16.1189V10.5571H15.461V11.7504H15.194V10.3423H16.3859ZM19.535 11.3228C19.535 11.3944 19.5058 11.4481 19.4474 11.4839C19.3891 11.5184 19.3136 11.5356 19.221 11.5356H18.9946V11.1159H19.2253C19.2694 11.1159 19.31 11.1199 19.347 11.1279C19.3855 11.1358 19.4183 11.1484 19.4453 11.1657C19.4738 11.1816 19.4959 11.2028 19.5115 11.2293C19.5272 11.2558 19.535 11.287 19.535 11.3228ZM18.7276 10.3423V11.7504H19.2402C19.3186 11.7504 19.3919 11.7418 19.4603 11.7245C19.5286 11.7073 19.5877 11.6814 19.6376 11.647C19.6888 11.6112 19.7287 11.5667 19.7572 11.5137C19.7871 11.4594 19.802 11.3957 19.802 11.3228C19.802 11.2512 19.7878 11.1889 19.7593 11.1358C19.7323 11.0828 19.6938 11.039 19.644 11.0046C19.5955 10.9688 19.5372 10.9429 19.4688 10.927C19.4004 10.9098 19.3264 10.9012 19.2467 10.9012H18.9946V10.5571H19.7059V10.3423H18.7276ZM20.4462 11.5356H21.1981V11.7504H20.1856V10.3423H21.1661V10.5571H20.4462V10.923H21.1212V11.1279H20.4462V11.5356ZM21.601 12.0268V11.7504H22.8186V12.0268H23.0515V11.5356H22.8186L22.3401 10.3423H22.0795L21.5968 11.5356H21.3682V12.0268H21.601ZM22.5367 11.5356H21.8702L22.2034 10.6207L22.5367 11.5356ZM23.4172 11.7504H23.1246L23.7675 10.3423H24.0281L24.6668 11.7504H24.3678L24.2289 11.4302H23.5518L23.4172 11.7504ZM23.6351 11.2233H24.1478L23.8936 10.6187L23.6351 11.2233ZM25.5294 22.7823C25.5294 23.6427 25.3743 24.4224 25.0641 25.1214C24.7539 25.807 24.3308 26.3918 23.795 26.8758C23.2592 27.3598 22.6246 27.7362 21.8914 28.005C21.1581 28.2605 20.3614 28.3882 19.5013 28.3882C18.6411 28.3882 17.8444 28.2605 17.1111 28.005C16.3779 27.7362 15.7363 27.3598 15.1864 26.8758C14.6505 26.3918 14.2275 25.807 13.9173 25.1214C13.6211 24.4224 13.4731 23.6427 13.4731 22.7823V13.7483H16.1382V22.6815C16.1382 23.0982 16.1946 23.515 16.3074 23.9317C16.4202 24.335 16.6035 24.698 16.8573 25.0206C17.1252 25.3433 17.4707 25.6054 17.8937 25.807C18.3309 26.0087 18.8667 26.1095 19.5013 26.1095C20.1358 26.1095 20.6646 26.0087 21.0876 25.807C21.5248 25.6054 21.8702 25.3433 22.124 25.0206C22.392 24.698 22.5823 24.335 22.6951 23.9317C22.8079 23.515 22.8643 23.0982 22.8643 22.6815V13.7483H25.5294V22.7823ZM11.5033 12.0273C11.0396 12.0461 10.4983 12.2513 10.1385 12.535C9.77182 12.8186 9.47703 13.3003 9.39153 13.7281C9.36321 13.8686 9.43822 13.9598 9.58928 13.9649C10.0713 13.9909 10.6342 13.8019 10.9966 13.4898C11.3413 13.2046 11.6434 12.7229 11.7446 12.2824C11.775 12.121 11.6864 12.0135 11.5033 12.0273ZM7.49217 12.4097C7.18793 12.7555 6.97182 13.2866 6.96186 13.7205C6.92776 14.1665 7.12079 14.7028 7.44391 15.0501C7.54724 15.1585 7.68415 15.156 7.77857 15.0419C8.0828 14.6967 8.29786 14.1793 8.29314 13.7373C8.30258 13.3105 8.12424 12.7824 7.85463 12.425C7.74605 12.288 7.60232 12.2834 7.49217 12.4097ZM9.52686 14.8016C9.05373 14.8408 8.52342 15.0893 8.1982 15.4116C8.09801 15.5104 8.10903 15.6326 8.22233 15.7202C8.61311 15.9952 9.19221 16.121 9.67636 16.04C10.1442 15.9784 10.6819 15.7304 11.0061 15.4218C11.1304 15.3037 11.1126 15.1743 10.9615 15.0908C10.5649 14.8723 9.99265 14.7542 9.52686 14.8016ZM5.58074 14.6473C5.33316 15.0333 5.1994 15.5781 5.24923 16.0171C5.28962 16.4769 5.56133 16.9765 5.92851 17.2632C6.04076 17.3584 6.1719 17.334 6.2511 17.2118C6.50446 16.8477 6.6314 16.3018 6.56583 15.8618C6.50865 15.4223 6.25215 14.9238 5.94739 14.6136C5.8215 14.5031 5.67673 14.5128 5.58074 14.6473ZM7.95271 16.7458C7.48902 16.8507 6.99805 17.1593 6.72214 17.5214C6.62825 17.6349 6.66234 17.7587 6.79243 17.8269C7.21836 18.0469 7.81161 18.1029 8.27898 17.9634C8.75264 17.8381 9.24413 17.5153 9.51218 17.1598C9.60764 17.032 9.57355 16.9077 9.41356 16.8375C8.98186 16.674 8.3949 16.6328 7.95271 16.7458ZM4.31607 17.9079C4.21536 18.3412 4.29299 18.8892 4.50491 19.2991C4.7079 19.7223 5.14222 20.1001 5.59018 20.2509C5.72918 20.3053 5.8556 20.2442 5.88392 20.1042C5.98411 19.6775 5.90648 19.129 5.68722 18.7191C5.47268 18.3382 5.05463 17.9471 4.64076 17.7561C4.48865 17.6797 4.35436 17.7398 4.31607 17.9079ZM7.3091 19.1097C6.90678 19.3612 6.56216 19.8109 6.43889 20.2427C6.3964 20.3746 6.46984 20.4805 6.61199 20.4994C7.09876 20.5605 7.67995 20.4158 8.06129 20.1409C8.44841 19.8878 8.79355 19.4315 8.93203 19.0007C8.96928 18.8469 8.8885 18.7333 8.7154 18.7262C8.23964 18.7084 7.68048 18.8622 7.3091 19.1097ZM8.46309 20.8726C8.01461 20.9709 7.51105 21.2505 7.21573 21.5825C6.90521 21.9064 6.69067 22.4232 6.67074 22.8775C6.67283 23.0206 6.77145 23.1 6.92409 23.0908C7.40667 23.0308 7.93121 22.7603 8.22233 22.3993C8.52027 22.0459 8.73481 21.529 8.73795 21.0875C8.75369 20.9174 8.64091 20.8375 8.46309 20.8726ZM4.00135 21.1323C4.01289 21.5754 4.23739 22.0999 4.54634 22.4385C4.84691 22.7914 5.37512 23.0562 5.86347 23.0959C6.01296 23.1158 6.10423 23.0308 6.10318 22.881C6.07748 22.4222 5.84406 21.9186 5.53301 21.6008C5.22982 21.2759 4.72626 20.9923 4.27201 20.9123C4.09314 20.8833 3.98666 20.9668 4.00135 21.1323ZM9.33698 22.3845C8.97242 22.6397 8.63514 23.0893 8.50663 23.4992C8.35976 23.9362 8.38389 24.4943 8.56695 24.8869C8.62203 25.0269 8.74687 25.0662 8.87538 24.9908C9.28977 24.7688 9.64908 24.3206 9.7671 23.8669C9.89719 23.4427 9.86572 22.8841 9.68475 22.4701C9.62338 22.3153 9.48333 22.2761 9.33698 22.3845ZM10.7338 23.9749C10.4522 24.3155 10.245 24.8324 10.2276 25.2663C10.2161 25.7144 10.3939 26.2491 10.6725 26.5928C10.7601 26.7074 10.888 26.7176 10.9961 26.6127C11.3428 26.299 11.5663 25.7755 11.5568 25.3045C11.5668 24.8706 11.3885 24.3425 11.0963 23.9835C10.9882 23.8465 10.8524 23.842 10.7338 23.9749ZM6.97602 24.1572C6.56216 23.9733 5.97624 23.9183 5.52042 24.0161C5.35047 24.0518 5.29382 24.1755 5.36306 24.3237C5.58336 24.7265 6.00824 25.1181 6.4305 25.3024C6.858 25.5087 7.45283 25.5509 7.92019 25.4043C8.06864 25.3595 8.1169 25.2495 8.04503 25.1222C7.84099 24.7133 7.41401 24.3354 6.97602 24.1572ZM8.93098 26.2644C8.47568 26.191 7.90026 26.272 7.49636 26.4671C7.33008 26.546 7.29494 26.6779 7.41873 26.8098C7.74395 27.1433 8.26377 27.4142 8.71802 27.4942C9.1943 27.5833 9.77864 27.4886 10.1878 27.2446C10.3163 27.1627 10.3352 27.043 10.2318 26.9345C9.91502 26.5949 9.39415 26.3306 8.93098 26.2639V26.2644ZM27.4973 12.0273C27.961 12.0461 28.5023 12.2513 28.8621 12.535C29.2288 12.8186 29.5236 13.3003 29.6091 13.7281C29.6374 13.8686 29.5624 13.9598 29.4113 13.9649C28.9293 13.9909 28.3665 13.8019 28.004 13.4898C27.6594 13.2046 27.3572 12.7229 27.256 12.2824C27.2256 12.121 27.3142 12.0135 27.4973 12.0273ZM31.5085 12.4097C31.8127 12.7555 32.0288 13.2866 32.0388 13.7205C32.0729 14.1665 31.8798 14.7028 31.5567 15.0501C31.4534 15.1585 31.3165 15.156 31.2221 15.0419C30.9178 14.6967 30.7028 14.1793 30.7075 13.7373C30.698 13.3105 30.8764 12.7824 31.146 12.425C31.2546 12.288 31.3983 12.2834 31.5085 12.4097ZM29.4738 14.8016C29.9469 14.8408 30.4772 15.0893 30.8024 15.4116C30.9026 15.5104 30.8916 15.6326 30.7783 15.7202C30.3875 15.9952 29.8084 16.121 29.3243 16.04C28.8564 15.9784 28.3187 15.7304 27.9946 15.4218C27.8702 15.3037 27.8881 15.1743 28.0391 15.0908C28.4357 14.8723 29.008 14.7542 29.4738 14.8016ZM33.4199 14.6473C33.6675 15.0333 33.8012 15.5781 33.7514 16.0171C33.711 16.4769 33.4393 16.9765 33.0721 17.2632C32.9599 17.3584 32.8287 17.334 32.7495 17.2118C32.4962 16.8477 32.3692 16.3018 32.4348 15.8618C32.492 15.4223 32.7485 14.9238 33.0532 14.6136C33.1791 14.5031 33.3239 14.5128 33.4199 14.6473ZM31.0479 16.7458C31.5116 16.8507 32.0026 17.1593 32.2785 17.5214C32.3724 17.6349 32.3383 17.7587 32.2082 17.8269C31.7823 18.0469 31.189 18.1029 30.7216 17.9634C30.248 17.8381 29.7565 17.5153 29.4884 17.1598C29.393 17.032 29.4271 16.9077 29.5871 16.8375C30.0188 16.674 30.6057 16.6328 31.0479 16.7458ZM34.6846 17.9079C34.7853 18.3412 34.7076 18.8892 34.4957 19.2991C34.2927 19.7223 33.8584 20.1001 33.4104 20.2509C33.2714 20.3053 33.145 20.2442 33.1167 20.1042C33.0165 19.6775 33.0941 19.129 33.3134 18.7191C33.5279 18.3382 33.946 17.9471 34.3599 17.7561C34.512 17.6797 34.6463 17.7398 34.6846 17.9079ZM31.6915 19.1097C32.0938 19.3612 32.4385 19.8109 32.5617 20.2427C32.6042 20.3746 32.5308 20.4805 32.3886 20.4994C31.9019 20.5605 31.3207 20.4158 30.9393 20.1409C30.5522 19.8878 30.2071 19.4315 30.0686 19.0007C30.0313 18.8469 30.1121 18.7333 30.2852 18.7262C30.761 18.7084 31.3201 18.8622 31.6915 19.1097ZM30.5375 20.8726C30.986 20.9709 31.4896 21.2505 31.7849 21.5825C32.0954 21.9064 32.31 22.4232 32.3299 22.8775C32.3278 23.0206 32.2292 23.1 32.0765 23.0908C31.594 23.0308 31.0694 22.7603 30.7783 22.3993C30.4804 22.0459 30.2658 21.529 30.2627 21.0875C30.2469 20.9174 30.3597 20.8375 30.5375 20.8726ZM34.9993 21.1323C34.9877 21.5754 34.7632 22.0999 34.4543 22.4385C34.1537 22.7914 33.6255 23.0562 33.1372 23.0959C32.9877 23.1158 32.8964 23.0308 32.8974 22.881C32.9231 22.4222 33.1566 21.9186 33.4676 21.6008C33.7708 21.2759 34.2744 20.9923 34.7286 20.9123C34.9075 20.8833 35.014 20.9668 34.9993 21.1323ZM29.6636 22.3845C30.0282 22.6397 30.3655 23.0893 30.494 23.4992C30.6409 23.9362 30.6167 24.4943 30.4337 24.8869C30.3786 25.0269 30.2538 25.0662 30.1252 24.9908C29.7109 24.7688 29.3515 24.3206 29.2335 23.8669C29.1034 23.4427 29.1349 22.8841 29.3159 22.4701C29.3772 22.3153 29.5173 22.2761 29.6636 22.3845ZM28.2668 23.9749C28.5485 24.3155 28.7557 24.8324 28.773 25.2663C28.7845 25.7144 28.6067 26.2491 28.3282 26.5928C28.2406 26.7074 28.1126 26.7176 28.0045 26.6127C27.6578 26.299 27.4343 25.7755 27.4438 25.3045C27.4338 24.8706 27.6122 24.3425 27.9043 23.9835C28.0124 23.8465 28.1482 23.842 28.2668 23.9749ZM32.0246 24.1572C32.4385 23.9733 33.0244 23.9183 33.4802 24.0161C33.6502 24.0518 33.7068 24.1755 33.6376 24.3237C33.4173 24.7265 32.9924 25.1181 32.5701 25.3024C32.1426 25.5087 31.5478 25.5509 31.0804 25.4043C30.932 25.3595 30.8837 25.2495 30.9556 25.1222C31.1596 24.7133 31.5866 24.3354 32.0246 24.1572ZM30.0696 26.2644C30.5249 26.191 31.1004 26.272 31.5043 26.4671C31.6705 26.546 31.7057 26.6779 31.5819 26.8098C31.2567 27.1433 30.7369 27.4142 30.2826 27.4942C29.8063 27.5833 29.222 27.4886 28.8128 27.2446C28.6843 27.1627 28.6654 27.043 28.7688 26.9345C29.0856 26.5949 29.6065 26.3306 30.0696 26.2639V26.2644ZM16.9278 32.4108L17.6331 31.7184C17.6899 31.6633 17.7347 31.6082 17.7675 31.5531C17.8019 31.4963 17.8191 31.4317 17.8191 31.3593C17.8191 31.2732 17.7907 31.2052 17.7339 31.1552C17.6788 31.1036 17.6099 31.0777 17.5272 31.0777C17.4393 31.0777 17.3687 31.1079 17.3153 31.1681C17.2619 31.2267 17.2292 31.3008 17.2172 31.3903L16.9149 31.3438C16.9235 31.268 16.945 31.1983 16.9795 31.1346C17.0139 31.0708 17.0579 31.0157 17.1112 30.9692C17.1646 30.9227 17.2266 30.8865 17.2973 30.8607C17.3696 30.8332 17.448 30.8194 17.5324 30.8194C17.6116 30.8194 17.6874 30.8306 17.7597 30.853C17.8338 30.8754 17.8992 30.9098 17.956 30.9563C18.0129 31.0011 18.0577 31.0571 18.0904 31.1242C18.1248 31.1897 18.1421 31.2663 18.1421 31.3542C18.1421 31.4127 18.1343 31.4678 18.1188 31.5195C18.1033 31.5695 18.0818 31.6168 18.0542 31.6616C18.0284 31.7064 17.9974 31.7494 17.9612 31.7908C17.9268 31.8304 17.8889 31.8691 17.8475 31.907L17.3205 32.4108H18.1446V32.695H16.9278V32.4108ZM19.7602 31.7804C19.7602 31.9286 19.7456 32.062 19.7163 32.1809C19.6888 32.2997 19.6474 32.4005 19.5923 32.4832C19.5389 32.5658 19.4718 32.6295 19.3908 32.6743C19.3116 32.7191 19.2203 32.7415 19.1169 32.7415C19.0136 32.7415 18.9215 32.7191 18.8405 32.6743C18.7596 32.6295 18.6915 32.5658 18.6364 32.4832C18.5813 32.4005 18.5391 32.2997 18.5098 32.1809C18.4823 32.062 18.4685 31.9286 18.4685 31.7804C18.4685 31.6323 18.4823 31.4988 18.5098 31.38C18.5391 31.2612 18.5813 31.1604 18.6364 31.0777C18.6915 30.9951 18.7596 30.9313 18.8405 30.8865C18.9215 30.8418 19.0136 30.8194 19.1169 30.8194C19.2203 30.8194 19.3116 30.8418 19.3908 30.8865C19.4718 30.9313 19.5389 30.9951 19.5923 31.0777C19.6474 31.1604 19.6888 31.2612 19.7163 31.38C19.7456 31.4988 19.7602 31.6323 19.7602 31.7804ZM19.4425 31.7804C19.4425 31.7167 19.4382 31.6444 19.4296 31.5634C19.4227 31.4825 19.4072 31.4058 19.383 31.3335C19.3607 31.2612 19.3279 31.2009 19.2849 31.1526C19.2418 31.1027 19.1858 31.0777 19.1169 31.0777C19.0463 31.0777 18.9895 31.1027 18.9464 31.1526C18.9034 31.2009 18.8698 31.2612 18.8457 31.3335C18.8233 31.4058 18.8078 31.4825 18.7992 31.5634C18.7906 31.6444 18.7863 31.7167 18.7863 31.7804C18.7863 31.8442 18.7906 31.9165 18.7992 31.9975C18.8078 32.0784 18.8233 32.1542 18.8457 32.2248C18.8698 32.2954 18.9034 32.3557 18.9464 32.4056C18.9895 32.4539 19.0463 32.478 19.1169 32.478C19.1858 32.478 19.2418 32.4539 19.2849 32.4056C19.3279 32.3557 19.3607 32.2954 19.383 32.2248C19.4072 32.1542 19.4227 32.0784 19.4296 31.9975C19.4382 31.9165 19.4425 31.8442 19.4425 31.7804ZM20.7868 31.7184L20.0815 32.4108V32.695H21.2983V32.4108H20.4742L21.0012 31.907C21.0426 31.8691 21.0805 31.8304 21.1149 31.7908C21.1511 31.7494 21.1821 31.7064 21.2079 31.6616C21.2355 31.6168 21.257 31.5695 21.2725 31.5195C21.288 31.4678 21.2957 31.4127 21.2957 31.3542C21.2957 31.2663 21.2785 31.1897 21.2441 31.1242C21.2114 31.0571 21.1666 31.0011 21.1097 30.9563C21.0529 30.9098 20.9875 30.8754 20.9134 30.853C20.8411 30.8306 20.7653 30.8194 20.686 30.8194C20.6016 30.8194 20.5233 30.8332 20.4509 30.8607C20.3803 30.8865 20.3183 30.9227 20.2649 30.9692C20.2115 31.0157 20.1676 31.0708 20.1332 31.1346C20.0987 31.1983 20.0772 31.268 20.0686 31.3438L20.3709 31.3903C20.3829 31.3008 20.4156 31.2267 20.469 31.1681C20.5224 31.1079 20.593 31.0777 20.6809 31.0777C20.7635 31.0777 20.8324 31.1036 20.8876 31.1552C20.9444 31.2052 20.9728 31.2732 20.9728 31.3593C20.9728 31.4317 20.9556 31.4963 20.9211 31.5531C20.8884 31.6082 20.8436 31.6633 20.7868 31.7184ZM22.0278 31.6177H22.1105C22.157 31.6177 22.2026 31.6142 22.2474 31.6073C22.2939 31.5987 22.3361 31.5841 22.374 31.5634C22.4119 31.5428 22.442 31.5152 22.4644 31.4808C22.4885 31.4446 22.5006 31.3981 22.5006 31.3412C22.5006 31.2999 22.4928 31.2629 22.4773 31.2302C22.4618 31.1974 22.4403 31.1699 22.4127 31.1475C22.3869 31.1251 22.3559 31.1079 22.3197 31.0958C22.2853 31.0838 22.2491 31.0777 22.2112 31.0777C22.1354 31.0777 22.0726 31.0993 22.0226 31.1423C21.9727 31.1854 21.9382 31.2422 21.9193 31.3128L21.6273 31.2379C21.6428 31.1759 21.6687 31.1199 21.7049 31.07C21.7427 31.0183 21.7875 30.9744 21.8392 30.9382C21.8926 30.9003 21.952 30.871 22.0175 30.8504C22.0829 30.8297 22.1518 30.8194 22.2241 30.8194C22.3034 30.8194 22.3783 30.8306 22.4489 30.853C22.5212 30.8736 22.5841 30.9055 22.6375 30.9486C22.6926 30.9899 22.7357 31.0416 22.7667 31.1036C22.7977 31.1656 22.8132 31.2379 22.8132 31.3206C22.8132 31.4187 22.783 31.5066 22.7227 31.5841C22.6642 31.6599 22.585 31.7098 22.4851 31.7339V31.7391C22.597 31.7615 22.6874 31.8123 22.7563 31.8915C22.827 31.969 22.8623 32.0646 22.8623 32.1783C22.8623 32.273 22.8433 32.3557 22.8054 32.4263C22.7693 32.4969 22.7202 32.5555 22.6582 32.602C22.5979 32.6485 22.5298 32.6829 22.4541 32.7053C22.3783 32.7294 22.3016 32.7415 22.2241 32.7415C22.1466 32.7415 22.0734 32.7329 22.0045 32.7157C21.9356 32.7002 21.8719 32.6752 21.8134 32.6407C21.7565 32.6063 21.7057 32.5615 21.6609 32.5064C21.6179 32.4513 21.5843 32.3858 21.5602 32.3101L21.8495 32.2196C21.8719 32.292 21.9133 32.3531 21.9735 32.4031C22.0355 32.453 22.1156 32.478 22.2138 32.478C22.2534 32.478 22.293 32.4728 22.3326 32.4625C22.374 32.4504 22.4101 32.4323 22.4411 32.4082C22.4739 32.3841 22.4997 32.3531 22.5187 32.3152C22.5393 32.2773 22.5497 32.2308 22.5497 32.1757C22.5497 32.1172 22.535 32.0681 22.5057 32.0285C22.4782 31.9871 22.4429 31.9553 22.3998 31.9329C22.3568 31.9088 22.3085 31.8915 22.2551 31.8812C22.2035 31.8709 22.1535 31.8657 22.1053 31.8657H22.0278V31.6177Z" fill="#C2DCF2"/>
</svg>
