<svg width="16" height="16" viewBox="0 0 16 16" fill="none" xmlns="http://www.w3.org/2000/svg">
<path fill-rule="evenodd" clip-rule="evenodd" d="M7.39999 5.40589C7.39999 5.22771 7.18456 5.13847 7.05857 5.26447L3.61593 8.70711C3.53782 8.78521 3.41119 8.78521 3.33308 8.70711L2.7674 8.14142C2.68929 8.06332 2.68929 7.93668 2.7674 7.85858L7.57572 3.05025L7.85857 2.76741C7.93667 2.6893 8.0633 2.68931 8.14141 2.76741L8.42425 3.05025L13.2326 7.85858C13.3107 7.93668 13.3107 8.06332 13.2326 8.14142L12.6669 8.70711C12.5888 8.78521 12.4622 8.78521 12.3841 8.70711L8.94141 5.26447C8.81542 5.13847 8.59999 5.22771 8.59999 5.40589L8.59999 12.4669C8.59999 12.5774 8.51044 12.6669 8.39999 12.6669L7.59999 12.6669C7.48953 12.6669 7.39999 12.5774 7.39999 12.4669L7.39999 5.40589Z" fill="currentColor"/>
</svg>
