<svg width="17" height="16" viewBox="0 0 17 16" fill="none" xmlns="http://www.w3.org/2000/svg">
<path fill-rule="evenodd" clip-rule="evenodd" d="M7.89999 10.5944C7.89999 10.7725 7.68456 10.8618 7.55857 10.7358L4.11593 7.29314C4.03782 7.21503 3.91119 7.21503 3.83308 7.29314L3.2674 7.85882C3.18929 7.93693 3.18929 8.06356 3.2674 8.14167L8.07572 12.95L8.35857 13.2328C8.43667 13.3109 8.5633 13.3109 8.64141 13.2328L8.92425 12.95L13.7326 8.14167C13.8107 8.06356 13.8107 7.93693 13.7326 7.85882L13.1669 7.29314C13.0888 7.21503 12.9622 7.21503 12.8841 7.29314L9.44141 10.7358C9.31542 10.8618 9.09999 10.7725 9.09999 10.5944L9.09999 3.53334C9.09999 3.42288 9.01044 3.33334 8.89999 3.33334L8.09999 3.33334C7.98953 3.33334 7.89999 3.42288 7.89999 3.53334L7.89999 10.5944Z" fill="#C4E0FA"/>
</svg>
