<svg width="16" height="16" viewBox="0 0 16 16" fill="none" xmlns="http://www.w3.org/2000/svg">
<g clip-path="url(#clip0_4485_3673)">
<path d="M15.9992 9.41992H0.0273438V10.3479H15.9992V9.41992Z" fill="#C2DCF2"/>
<path d="M0.0273438 15.9995H1.01152V14.9309H6.60731V11.2754H0.0273438V15.9995ZM1.01152 12.2033H5.62311V14.003H1.01152V12.2033Z" fill="#C2DCF2"/>
<path d="M7.53906 14.9309H11.2508V15.9995H12.2631V14.9309H15.9749V11.2754H7.53906V14.9309ZM12.2631 12.2034H15.0188V14.003H12.2631V12.2034ZM8.52323 12.2034H11.2508V14.003H8.52323V12.2034Z" fill="#C2DCF2"/>
<path d="M8.49456 0H4.72656V8.46397H8.49456V0ZM7.5104 7.53603H5.71073V0.956063H7.5104V7.53603Z" fill="#C2DCF2"/>
<path d="M10.4295 2.84007L12.2291 0.956063V8.4921H13.2133V2.84007L14.9848 0.956063V8.4921H15.969V0H14.5912L13.2133 1.46221V0H11.8354L9.44531 2.47452V8.4921H10.4295V2.84007Z" fill="#C2DCF2"/>
<path d="M2.78383 8.4921H3.768V7.56413V0H2.39016L0 2.47452V7.53603V8.46397H0.984183H2.78383V8.4921ZM1.0123 2.84007L2.81195 0.956063V7.53603H1.0123V2.84007Z" fill="#C2DCF2"/>
</g>
<defs>
<clipPath id="clip0_4485_3673">
<rect width="16" height="16" fill="white"/>
</clipPath>
</defs>
</svg>
