<svg width="12" height="12" viewBox="0 0 12 12" fill="none" xmlns="http://www.w3.org/2000/svg">
<g opacity="0.9">
<rect width="12" height="12" rx="6" fill="#E6453C"/>
<path fill-rule="evenodd" clip-rule="evenodd" d="M6.00005 2.0826C5.61965 2.0826 5.31128 2.39097 5.31128 2.77136V6.77716C5.31128 7.15755 5.61965 7.46592 6.00005 7.46592C6.38044 7.46592 6.68882 7.15755 6.68882 6.77716V2.77136C6.68882 2.39097 6.38044 2.0826 6.00005 2.0826ZM6.00005 8.36195C5.61965 8.36195 5.31128 8.67032 5.31128 9.05072V9.22864C5.31128 9.60903 5.61965 9.91741 6.00005 9.91741C6.38044 9.91741 6.68882 9.60903 6.68882 9.22864V9.05072C6.68882 8.67032 6.38044 8.36195 6.00005 8.36195Z" fill="#FFFDFB"/>
</g>
</svg>
