<svg width="12" height="9" viewBox="0 0 12 9" fill="none" xmlns="http://www.w3.org/2000/svg">
<path d="M0.167831 9L0 8.55804C1.88811 7.83482 3.1049 6.95089 3.1049 5.86607C3.1049 5.50446 3.06294 5.18304 2.85315 5.0625C1.34266 4.86161 0.251748 3.85714 0.251748 2.29018C0.251748 1.08482 1.38462 0 2.64336 0C4.36364 0 5.45455 1.08482 5.45455 3.01339C5.45455 5.94643 3.31469 8.03571 0.167831 9ZM6.71329 9L6.54545 8.55804C8.43357 7.83482 9.65035 6.95089 9.65035 5.86607C9.65035 5.50446 9.60839 5.18304 9.3986 5.0625C7.88811 4.86161 6.7972 3.85714 6.7972 2.29018C6.7972 1.08482 7.93007 0 9.18881 0C10.9091 0 12 1.08482 12 3.01339C12 5.94643 9.86014 8.03571 6.71329 9Z" fill="#283B49" fill-opacity="0.4"/>
</svg>
