<svg width="118" height="115" viewBox="0 0 118 115" fill="none" xmlns="http://www.w3.org/2000/svg">
<g clip-path="url(#clip0_9778_10383)">
<path d="M61.2462 97.4075C82.7908 97.4075 100.256 79.8064 100.256 58.0944C100.256 36.3823 82.7908 18.7812 61.2462 18.7812C39.7016 18.7812 22.2363 36.3823 22.2363 58.0944C22.2363 79.8064 39.7016 97.4075 61.2462 97.4075Z" stroke="#D7C8B9" stroke-width="2.74699" stroke-miterlimit="10"/>
<path d="M61.2438 84.0997C75.4941 84.0997 87.0462 72.4578 87.0462 58.0967C87.0462 43.7357 75.4941 32.0938 61.2438 32.0938C46.9935 32.0938 35.4414 43.7357 35.4414 58.0967C35.4414 72.4578 46.9935 84.0997 61.2438 84.0997Z" stroke="#D7C8B9" stroke-width="1.37349" stroke-miterlimit="10"/>
<path d="M61.2446 91.7288C79.6773 91.7288 94.62 76.6699 94.62 58.0939C94.62 39.5178 79.6773 24.459 61.2446 24.459C42.8118 24.459 27.8691 39.5178 27.8691 58.0939C27.8691 76.6699 42.8118 91.7288 61.2446 91.7288Z" stroke="#F6F1ED" stroke-width="6.69" stroke-miterlimit="10"/>
<path d="M61.2461 92.446C80.0713 92.446 95.3321 77.0666 95.3321 58.0951C95.3321 39.1236 80.0713 23.7441 61.2461 23.7441C42.421 23.7441 27.1602 39.1236 27.1602 58.0951C27.1602 77.0666 42.421 92.446 61.2461 92.446Z" stroke="#D7C8B9" stroke-width="0.6" stroke-miterlimit="10" stroke-dasharray="1 1"/>
<path d="M61.2456 79.0984C72.7559 79.0984 82.0868 69.6949 82.0868 58.0951C82.0868 46.4953 72.7559 37.0918 61.2456 37.0918C49.7353 37.0918 40.4043 46.4953 40.4043 58.0951C40.4043 69.6949 49.7353 79.0984 61.2456 79.0984Z" stroke="#D7C8B9" stroke-width="0.6" stroke-miterlimit="10" stroke-dasharray="1 1"/>
<path d="M82.0947 79.1748L82.1333 79.2039L82.0658 79.136L71.0602 63.9252L108.776 58.1826L71.093 52.0458L82.0851 37.1767L82.2489 37.0136L82.1564 37.0816L82.1853 37.0428L82.1179 37.1088L67.0244 48.1999L61.3261 10.1914L55.2367 48.1669L40.4842 37.0894L40.3224 36.9243L40.3898 37.0175L40.3513 36.9884L40.4187 37.0564L51.4243 52.2672L13.709 58.0098L51.3916 64.1465L40.3994 79.0156L40.2376 79.1787L40.3301 79.1107L40.3012 79.1496L40.3667 79.0836L55.4621 67.9924L61.1604 106.001L67.2498 68.0254L82.0023 79.103L82.1641 79.268L82.0967 79.1748H82.0947ZM61.2432 58.1263L61.2143 58.0971L61.2432 58.068L61.2721 58.0971L61.2432 58.1263Z" fill="#F6F1ED"/>
<path d="M61.3242 10.1953V58.07L67.0226 48.2038L61.3242 10.1953Z" fill="#D7C8B9"/>
<path d="M61.3242 58.07L82.247 37.0156L71.0931 52.0478L61.3242 58.07Z" fill="#D7C8B9"/>
<path d="M108.774 58.1829L61.3242 58.0684L71.0603 63.9255L108.774 58.1829Z" fill="#D7C8B9"/>
<path d="M82.1615 79.2685L61.2695 58.0977L67.2453 68.0259L82.1615 79.2685Z" fill="#D7C8B9"/>
<path d="M61.1573 106.001L61.3249 58.0684L55.459 67.9947L61.1573 106.001Z" fill="#D7C8B9"/>
<path d="M40.3613 79.086L51.3862 64.149L61.2109 58.0977L40.3613 79.086Z" fill="#D7C8B9"/>
<path d="M13.707 58.0102L61.2143 58.0956L51.4224 52.2676L13.707 58.0102Z" fill="#D7C8B9"/>
<path d="M40.4824 37.0918L61.2395 58.0685L55.2368 48.1694L40.4824 37.0918Z" fill="#D7C8B9"/>
<path d="M117.627 54.0801V56.301H117.444C117.308 55.7205 117.051 55.2779 116.676 54.9692C116.3 54.6605 115.876 54.5052 115.4 54.5052C115.004 54.5052 114.639 54.6198 114.308 54.8508C113.977 55.0799 113.734 55.3808 113.582 55.7535C113.385 56.2292 113.287 56.7592 113.287 57.3416C113.287 57.924 113.358 58.4365 113.503 58.9083C113.647 59.3801 113.873 59.7353 114.179 59.9761C114.485 60.2168 114.882 60.3372 115.37 60.3372C115.77 60.3372 116.136 60.2498 116.47 60.0731C116.803 59.8965 117.153 59.5936 117.521 59.1607V59.714C117.165 60.0887 116.793 60.3605 116.408 60.5294C116.023 60.6983 115.572 60.7817 115.056 60.7817C114.377 60.7817 113.775 60.6439 113.249 60.3702C112.723 60.0964 112.316 59.7023 112.029 59.1879C111.742 58.6753 111.6 58.1279 111.6 57.5474C111.6 56.9359 111.758 56.3573 112.075 55.8079C112.393 55.2604 112.821 54.8353 113.36 54.5324C113.9 54.2296 114.472 54.0781 115.079 54.0781C115.526 54.0781 115.998 54.1752 116.495 54.3713C116.782 54.4839 116.965 54.5421 117.044 54.5421C117.144 54.5421 117.231 54.5052 117.304 54.4315C117.377 54.3577 117.425 54.2393 117.446 54.0801H117.629H117.627Z" fill="#D7C8B9"/>
<path d="M62.8674 110.833C63.4704 110.975 63.8942 111.146 64.1388 111.348C64.4894 111.635 64.6647 112.006 64.6647 112.462C64.6647 112.944 64.4721 113.344 64.0887 113.658C63.6168 114.039 62.931 114.231 62.0294 114.231H58.7988V114.056C59.0916 114.056 59.292 114.029 59.396 113.973C59.5 113.918 59.5732 113.846 59.6156 113.757C59.658 113.67 59.6792 113.452 59.6792 113.105V108.946C59.6792 108.601 59.658 108.381 59.6156 108.292C59.5732 108.203 59.5 108.131 59.3921 108.077C59.2862 108.022 59.0878 107.997 58.7969 107.997V107.822H61.8445C62.5726 107.822 63.0889 107.888 63.3914 108.018C63.6938 108.148 63.9346 108.344 64.108 108.605C64.2833 108.865 64.37 109.14 64.37 109.434C64.37 109.742 64.2583 110.018 64.0367 110.259C63.8152 110.499 63.4241 110.692 62.8655 110.833H62.8674ZM61.1606 111.074V113.13L61.1567 113.367C61.1567 113.538 61.1991 113.666 61.2858 113.751C61.3725 113.839 61.4996 113.881 61.6672 113.881C61.9177 113.881 62.1488 113.825 62.3588 113.714C62.5707 113.602 62.7325 113.441 62.8443 113.227C62.956 113.014 63.0138 112.777 63.0138 112.517C63.0138 112.218 62.9444 111.95 62.8077 111.711C62.6709 111.474 62.4802 111.307 62.2394 111.212C61.9986 111.117 61.6383 111.072 61.1606 111.074ZM61.1606 110.705C61.6037 110.705 61.9311 110.655 62.1431 110.554C62.353 110.453 62.5148 110.311 62.6285 110.129C62.7402 109.946 62.798 109.713 62.798 109.43C62.798 109.146 62.7422 108.913 62.6324 108.733C62.5206 108.552 62.3627 108.414 62.1565 108.319C61.9504 108.224 61.6191 108.179 61.1625 108.181V110.705H61.1606Z" fill="#D7C8B9"/>
<path d="M58.2921 3.0162V0.849609H58.4829C58.5214 1.10005 58.6158 1.2243 58.766 1.2243C58.8354 1.2243 58.9548 1.18935 59.1263 1.11946C59.5828 0.93891 60.0201 0.849609 60.4362 0.849609C61.1509 0.849609 61.7038 1.02822 62.0949 1.38543C62.486 1.74265 62.6805 2.15228 62.6805 2.61821C62.6805 2.83565 62.6324 3.05697 62.5341 3.28023C62.4359 3.50349 62.2702 3.70733 62.039 3.88788C61.8079 4.07037 61.4341 4.22763 60.9217 4.36353C61.6672 4.48778 62.1912 4.73045 62.4956 5.08766C62.798 5.44682 62.9502 5.83122 62.9502 6.24473C62.9502 6.60195 62.8462 6.93781 62.6381 7.25037C62.4301 7.56488 62.1296 7.80367 61.7346 7.97063C61.3417 8.13759 60.8427 8.22107 60.2417 8.22107C59.6406 8.22107 59.2014 8.14147 58.8624 7.98227C58.5233 7.82308 58.2209 7.561 57.9512 7.19796L58.1669 6.98052C58.6447 7.50081 59.1475 7.76096 59.6734 7.76096C60.1068 7.76096 60.4478 7.61923 60.6963 7.33773C60.9448 7.05623 61.07 6.68737 61.07 6.23309C61.07 5.88752 60.9911 5.5866 60.8331 5.33034C60.6751 5.07601 60.4844 4.90712 60.2609 4.82558C60.0375 4.74404 59.7061 4.69744 59.265 4.68774V4.22957C59.3844 4.23345 59.4846 4.23539 59.5636 4.23539C60.0452 4.23539 60.3862 4.10144 60.5865 3.83352C60.7869 3.56561 60.889 3.17345 60.889 2.65704C60.889 2.14063 60.7849 1.81254 60.5788 1.59898C60.3727 1.38543 60.128 1.27865 59.8468 1.27865C59.4653 1.27865 59.1552 1.43008 58.9163 1.73294C58.6774 2.0358 58.5445 2.46484 58.5156 3.02008H58.2883L58.2921 3.0162Z" fill="#D7C8B9"/>
<path d="M3.71181 59.3179L2.61413 59.3469L2.56177 57.3635C2.55388 57.0646 2.56224 56.8702 2.58694 56.7841C2.6116 56.6961 2.67695 56.6167 2.7829 56.542C2.8889 56.4693 3.03621 56.4285 3.22686 56.4235L3.43868 56.4179L3.43407 56.2432L0.110243 56.331L0.114854 56.5056L0.326681 56.5C0.526959 56.4948 0.678043 56.5238 0.779923 56.5871C0.881804 56.6505 0.947454 56.7283 0.978799 56.8207C1.01014 56.9131 1.02875 57.1068 1.03659 57.4038L1.14781 61.6171C1.1557 61.9159 1.14734 62.1104 1.12456 62.1964C1.10183 62.2844 1.03841 62.3638 0.93246 62.4384C0.826463 62.5111 0.679153 62.5519 0.488504 62.5569L0.276671 62.5625L0.281282 62.7372L3.60512 62.6495L3.60051 62.4748L3.38867 62.4804C3.1884 62.4857 3.03732 62.4567 2.93544 62.3933C2.83356 62.33 2.76598 62.2521 2.73463 62.1597C2.70329 62.0673 2.68276 61.8737 2.67492 61.5767L2.62702 59.7622L3.72469 59.7332C3.82423 60.6569 4.20585 61.3887 4.86755 61.9267C5.52925 62.4647 6.305 62.7238 7.19277 62.7004C7.87448 62.6824 8.46544 62.5114 8.96569 62.1895C9.46594 61.8675 9.84615 61.4515 10.1006 60.9418C10.3569 60.4321 10.4753 59.8793 10.4596 59.2855C10.435 58.3539 10.1097 57.5663 9.48576 56.9244C8.85985 56.2825 8.03656 55.9741 7.01592 56.0011C5.99527 56.028 5.23484 56.3491 4.63834 56.9669C4.03991 57.5847 3.73104 58.3678 3.71373 59.3179L3.71181 59.3179ZM7.17751 62.3415C6.646 62.3556 6.22349 62.1181 5.91183 61.6272C5.5983 61.1384 5.42811 60.3854 5.40137 59.3724C5.37637 58.4253 5.49951 57.688 5.77281 57.1642C6.04612 56.6404 6.4572 56.3712 7.01181 56.3566C7.56642 56.3419 7.99487 56.585 8.29133 57.0841C8.58778 57.5831 8.74747 58.3033 8.77237 59.2465C8.82606 61.2804 8.29444 62.312 7.17944 62.3415L7.17751 62.3415Z" fill="#D7C8B9"/>
</g>
<defs>
<clipPath id="clip0_9778_10383">
<rect width="118" height="115" fill="white"/>
</clipPath>
</defs>
</svg>
