<svg width="135" height="158" viewBox="0 0 135 158" fill="none" xmlns="http://www.w3.org/2000/svg">
<path d="M67.2177 0.232432C58.4189 0.227664 49.7055 1.98362 41.5757 5.39985C33.4458 8.81607 26.059 13.8256 19.8373 20.142C13.6157 26.4585 8.68133 33.9578 5.31638 42.2116C1.95142 50.4653 0.221876 59.3115 0.226572 68.2442C0.226029 82.6329 4.72279 96.6506 13.0695 108.279C21.4162 119.908 33.1822 128.548 46.6737 132.955C50.544 134.28 54.0182 136.583 56.7687 139.648C59.5191 142.714 61.4552 146.44 62.3943 150.475L63.3233 154.102C63.4974 155.012 63.9776 155.831 64.6817 156.42C65.3857 157.009 66.2696 157.331 67.1819 157.331C68.088 157.322 68.9635 156.997 69.6602 156.408C70.3569 155.82 70.8319 155.005 71.0049 154.102L71.9338 150.475C72.8729 146.44 74.809 142.714 77.5595 139.648C80.3099 136.583 83.7841 134.28 87.6544 132.955C101.146 128.548 112.912 119.908 121.259 108.279C129.605 96.6506 134.102 82.6329 134.102 68.2442C134.102 50.2252 127.058 32.9427 114.518 20.1911C101.978 7.43952 84.9662 0.261262 67.2177 0.232432Z" fill="#3B576B"/>
<path d="M92.7589 68.142V63.6515H100.577V61.8287H92.7589V57.3023H100.929L101.854 55.4795H90.9297V57.3023V61.8287V63.6515V68.142V69.9647H92.7589H101.854L100.931 68.142H92.7589Z" fill="#C4E0FA"/>
<path d="M65.1273 57.6009C64.4724 56.9485 63.6946 56.4263 62.8149 56.0482C61.9324 55.6701 60.9786 55.4775 59.976 55.4775C58.9734 55.4775 58.0183 55.6687 57.1372 56.0482C56.2575 56.4263 55.4797 56.9471 54.8248 57.6009C54.1685 58.2533 53.6435 59.0261 53.2664 59.8946C52.8894 60.7589 52.6981 61.6994 52.6953 62.6883H54.5441C54.5483 61.9736 54.6949 61.2838 54.9826 60.6398C55.2758 59.9832 55.6738 59.4001 56.1639 58.9056C56.654 58.4112 57.2349 58.0164 57.8926 57.7311C58.5475 57.4471 59.2471 57.3017 59.976 57.3017C60.7049 57.3017 61.4045 57.4457 62.0608 57.7311C62.7171 58.015 63.2994 58.4112 63.7895 58.9042C64.2797 59.4001 64.679 59.9832 64.9709 60.6384C65.2585 61.2824 65.4065 61.9722 65.4093 62.6869H67.2581C67.254 61.698 67.064 60.7589 66.687 59.8932C66.3072 59.0234 65.7836 58.2505 65.1287 57.5995L65.1273 57.6009Z" fill="#C4E0FA"/>
<path d="M56.7226 67.6175C58.1399 67.6327 54.8375 67.0746 55.6907 66.5468C56.6053 66.0191 54.6951 66.0911 53.3476 66.051C51.9931 66.0108 53.7986 66.5468 53.7986 66.5468C54.6364 66.6673 53.7763 66.9153 53.8168 67.3294C53.86 67.7463 55.3039 67.6009 56.7254 67.6175H56.7226Z" fill="#C4E0FA"/>
<path d="M55.0978 65.4327C55.2151 65.2208 54.4108 65.164 54.3145 65.0601C54.2153 64.9548 55.1984 65.0476 54.6831 64.5102C54.5686 64.4008 54.5113 64.3232 54.4904 64.2637H52.9376C52.9181 64.5421 52.467 65.0546 52.9195 65.3399C53.4627 65.6986 54.9861 65.646 55.0978 65.4327Z" fill="#C4E0FA"/>
<path d="M65.6517 66.9834C64.0445 66.3891 62.2795 66.9917 62.9693 67.1745C63.6605 67.3573 63.6493 67.795 63.2988 67.8366C63.236 67.8449 62.1454 67.9155 62.1929 68.2632C62.2404 68.6108 64.8377 68.6108 64.3824 68.1413C63.9272 67.6704 66.9155 67.4487 65.6531 66.9834H65.6517Z" fill="#C4E0FA"/>
<path d="M59.3271 68.4346C58.9654 67.954 55.3013 68.1368 55.6169 68.6105C55.9325 69.0828 57.6431 68.7463 57.6584 68.7241C57.9852 68.2352 59.6887 68.9166 59.3271 68.436V68.4346Z" fill="#C4E0FA"/>
<path d="M65.4811 64.3254C65.1195 64.367 64.3068 64.4612 65.0189 64.9737C65.0469 64.9944 65.086 65.4016 64.748 65.464C64.4143 65.5263 64.4297 65.928 65.3834 66.0623C66.319 66.1981 66.7141 65.7091 66.4712 65.4751C66.2198 65.241 67.1191 65.0166 66.8273 64.7714C66.5717 64.5651 67.1973 64.4238 67.2476 64.2617H65.6138C65.5873 64.2922 65.5482 64.3157 65.4825 64.324L65.4811 64.3254Z" fill="#C4E0FA"/>
<path d="M61.1201 69.3697C60.6635 69.5456 60.1106 69.3877 59.2937 69.1938C58.4768 69.0013 58.3204 69.6855 58.3204 69.6855C58.3092 69.9141 59.4738 70.3518 60.5309 70.2659C61.5879 70.1772 62.4048 69.5193 62.1409 69.2298C61.877 68.9404 61.5753 69.1952 61.1187 69.3697H61.1201Z" fill="#C4E0FA"/>
<path d="M74.9333 61.8287V57.3009H80.6878C80.9252 57.3009 81.1737 57.3411 81.4237 57.4214C81.6695 57.499 81.8943 57.625 82.094 57.7967C82.2936 57.9685 82.4654 58.1984 82.5994 58.4782C82.7335 58.7566 82.8019 59.1126 82.8019 59.5364C82.8019 59.9603 82.7265 60.2996 82.5743 60.5891C82.4207 60.8841 82.2322 61.1237 82.0144 61.301C81.7923 61.4825 81.5577 61.6168 81.3162 61.7013C81.0732 61.7858 80.861 61.8287 80.6878 61.8287H74.9333ZM82.3928 65.5325L81.3902 63.6293C81.9027 63.5352 82.3676 63.2942 82.774 63.0421C82.9988 62.9119 83.225 62.7415 83.4512 62.5379C83.6775 62.3315 83.8813 62.0822 84.0559 61.7955C84.2276 61.5115 84.3687 61.1791 84.4762 60.8052C84.5823 60.4312 84.6354 59.999 84.6354 59.5198C84.6354 59.017 84.5823 58.5655 84.4762 58.179C84.3701 57.7926 84.229 57.4532 84.0559 57.1693C83.8813 56.8826 83.6775 56.636 83.4484 56.4338C83.2222 56.2358 82.9918 56.0737 82.7698 55.956C82.2406 55.6665 81.6262 55.5072 80.9336 55.4795H73.1055V69.9647H74.9361V63.6529H79.2384V63.6557H79.2998L80.7409 66.3912L80.752 66.3871L82.6344 69.9675H84.7345L82.397 65.5352H82.3942L82.3928 65.5325Z" fill="#C4E0FA"/>
<path d="M32.0859 55.2387V69.9649H33.9347V67.9621V59.056L39.6878 63.5464L45.4423 59.056V62.7223V69.9649H47.273V55.2373L39.6878 61.1516L32.0859 55.2387Z" fill="#C4E0FA"/>
<path d="M40.9147 83.8687L36.234 76.8574H33.9258L39.9316 85.6223V91.3607H41.8796V85.5821L47.884 76.8574H45.6344L40.9147 83.8687Z" fill="#C4E0FA"/>
<path d="M64.0475 85.2635C64.0475 88.2913 62.4207 89.826 59.8696 89.826C57.3184 89.826 55.6315 88.1528 55.6315 85.1652V76.8574H53.6836V85.2649C53.6836 89.4091 56.1342 91.5795 59.8291 91.5795C63.5239 91.5795 65.9745 89.3869 65.9745 85.1444V76.8574H64.0475V85.2649V85.2635Z" fill="#C4E0FA"/>
<path d="M78.5099 87.2733L73.9926 76.8574H71.75L78.4889 91.8081L85.2278 76.8574H83.0453L78.5099 87.2733Z" fill="#C4E0FA"/>
<path d="M97.4464 86.4903H92.2058L94.8254 80.6327L97.4464 86.4903ZM94.8561 76.4082L88.0977 91.3602H90.0749L91.0105 89.2591L91.4727 88.1634V88.2036H98.1977L98.6431 89.2591L99.5787 91.3602H101.616L94.8561 76.4082Z" fill="#C4E0FA"/>
</svg>
