<svg width="60" height="70" viewBox="0 0 60 70" fill="none" xmlns="http://www.w3.org/2000/svg">
<path d="M29.9999 0.81934C26.1695 0.817264 22.3762 1.5817 18.8369 3.06893C15.2976 4.55615 12.0818 6.73701 9.37331 9.48681C6.66477 12.2366 4.51664 15.5014 3.05174 19.0946C1.58684 22.6878 0.833897 26.5389 0.835942 30.4277C0.835705 36.6916 2.79333 42.7941 6.42698 47.8566C10.0606 52.919 15.1829 56.6803 21.0563 58.599C22.7412 59.1756 24.2536 60.1784 25.451 61.5128C26.6484 62.8473 27.4913 64.4693 27.9001 66.2261L28.3045 67.8052C28.3803 68.201 28.5894 68.5577 28.8959 68.8141C29.2024 69.0705 29.5872 69.2107 29.9843 69.2106C30.3788 69.207 30.7599 69.0652 31.0632 68.8091C31.3665 68.553 31.5733 68.1984 31.6486 67.8052L32.053 66.2261C32.4619 64.4693 33.3047 62.8473 34.5021 61.5128C35.6995 60.1784 37.212 59.1756 38.8968 58.599C44.7703 56.6803 49.8925 52.919 53.5261 47.8566C57.1598 42.7941 59.1174 36.6916 59.1172 30.4277C59.1172 22.5832 56.051 15.0594 50.5918 9.50816C45.1325 3.95688 37.7266 0.831891 29.9999 0.81934Z" fill="#C4E0FA"/>
</svg>
