<svg viewBox="0 0 16 16" fill="none" xmlns="http://www.w3.org/2000/svg">
  <path fill-rule="evenodd" clip-rule="evenodd" d="M10.1132 7.39999C10.4696 7.39999 10.6481 6.96913 10.3961 6.71715L7.43627 3.75735C7.28006 3.60114 7.28006 3.34787 7.43627 3.19166L7.71911 2.90882C7.87532 2.75261 8.12859 2.75261 8.2848 2.90882L12.9517 7.57572L13.0931 7.71715C13.2493 7.87336 13.2493 8.12662 13.0931 8.28283L12.9517 8.42425L8.2848 13.0912C8.12859 13.2474 7.87532 13.2474 7.71911 13.0912L7.43627 12.8083C7.28006 12.6521 7.28006 12.3988 7.43627 12.2426L10.3961 9.28283C10.6481 9.03085 10.4696 8.59999 10.1132 8.59999L3.73505 8.59999C3.51413 8.59999 3.33505 8.4209 3.33505 8.19999L3.33505 7.79999C3.33505 7.57907 3.51413 7.39999 3.73505 7.39999L10.1132 7.39999Z" fill="currentColor"/>
</svg>
