<svg viewBox="0 0 15 14" fill="none" xmlns="http://www.w3.org/2000/svg">
<path fill-rule="evenodd" clip-rule="evenodd" d="M12.2233 6.76989C12.3795 6.9261 12.3795 7.17937 12.2233 7.33558L8.03395 11.5249C7.87774 11.6811 7.62448 11.6811 7.46827 11.5249L3.27894 7.33558C3.12273 7.17937 3.12273 6.9261 3.27894 6.76989L3.56123 6.4876C3.71744 6.33139 3.9707 6.33139 4.12691 6.4876L6.46889 8.82957C6.72087 9.08156 7.15173 8.90309 7.15173 8.54673L7.15173 3.31644C7.15173 3.09552 7.33081 2.91644 7.55173 2.91644L7.95049 2.91644C8.17141 2.91644 8.35049 3.09552 8.35049 3.31644V8.54673C8.35049 8.90309 8.78135 9.08156 9.03334 8.82957L11.3753 6.4876C11.5315 6.33139 11.7848 6.33139 11.941 6.4876L12.2233 6.76989Z" fill="currentColor"/>
</svg>
