<svg viewBox="0 0 16 16" fill="none" xmlns="http://www.w3.org/2000/svg">
<path fill-rule="evenodd" clip-rule="evenodd" d="M9.41025 5.74101C9.53624 5.61501 9.44701 5.39959 9.26882 5.39959H4.4002C4.28974 5.39959 4.2002 5.31004 4.2002 5.19958V4.39958C4.2002 4.28913 4.28974 4.19958 4.4002 4.19958H11.2002H11.6002C11.7107 4.19958 11.8002 4.28913 11.8002 4.39958V4.79958V11.5996C11.8002 11.71 11.7107 11.7996 11.6002 11.7996H10.8002C10.6897 11.7996 10.6002 11.71 10.6002 11.5996V6.73096C10.6002 6.55278 10.3848 6.46354 10.2588 6.58953L5.26588 11.5824C5.18778 11.6605 5.06114 11.6605 4.98304 11.5824L4.41735 11.0167C4.33925 10.9386 4.33925 10.812 4.41735 10.7339L9.41025 5.74101Z" fill="currentColor"/>
</svg>
