<svg viewBox="0 0 14 14" fill="none" xmlns="http://www.w3.org/2000/svg">
<path fill-rule="evenodd" clip-rule="evenodd" d="M7.46873 5.68252C7.72071 5.43054 7.54225 4.99968 7.18588 4.99968H4.3126C4.09168 4.99968 3.9126 4.8206 3.9126 4.59968V4.19968C3.9126 3.97877 4.09168 3.79968 4.3126 3.79968H9.6001H9.8001C10.021 3.79968 10.2001 3.97877 10.2001 4.19968V4.39968V9.68718C10.2001 9.9081 10.021 10.0872 9.8001 10.0872H9.4001C9.17918 10.0872 9.0001 9.9081 9.0001 9.68718V6.8139C9.0001 6.45753 8.56924 6.27907 8.31725 6.53105L5.02595 9.82235C4.86974 9.97856 4.61648 9.97856 4.46027 9.82235L4.17743 9.53951C4.02122 9.3833 4.02122 9.13004 4.17743 8.97383L7.46873 5.68252Z" fill="currentColor"/>
</svg>
