<svg width="16" height="16" viewBox="0 0 16 16" fill="none" xmlns="http://www.w3.org/2000/svg">
<path fill-rule="evenodd" clip-rule="evenodd" d="M5.88873 7.40096C5.53237 7.40096 5.3539 6.97011 5.60589 6.71812L8.56569 3.75832C8.72189 3.60211 8.7219 3.34885 8.56569 3.19264L8.28284 2.9098C8.12663 2.75359 7.87337 2.75359 7.71716 2.9098L3.05025 7.5767L2.90883 7.71812C2.75262 7.87433 2.75262 8.1276 2.90883 8.28381L3.05025 8.42523L7.71716 13.0921C7.87337 13.2483 8.12663 13.2483 8.28284 13.0921L8.56569 12.8093C8.7219 12.6531 8.72189 12.3998 8.56569 12.2436L5.60589 9.28381C5.3539 9.03182 5.53237 8.60096 5.88873 8.60096L12.2669 8.60096C12.4878 8.60096 12.6669 8.42188 12.6669 8.20096L12.6669 7.80096C12.6669 7.58005 12.4878 7.40096 12.2669 7.40096L5.88873 7.40096Z" fill="currentColor"/>
</svg>
