<svg width="16" height="16" viewBox="0 0 16 16" fill="none" xmlns="http://www.w3.org/2000/svg">
<path fill-rule="evenodd" clip-rule="evenodd" d="M7.39901 5.88873C7.39901 5.53237 6.96815 5.3539 6.71617 5.60589L3.75637 8.56569C3.60016 8.72189 3.3469 8.7219 3.19069 8.56569L2.90784 8.28284C2.75163 8.12663 2.75163 7.87337 2.90784 7.71716L7.57475 3.05025L7.71617 2.90883C7.87238 2.75262 8.12564 2.75262 8.28185 2.90883L8.42328 3.05025L13.0902 7.71716C13.2464 7.87337 13.2464 8.12663 13.0902 8.28284L12.8073 8.56569C12.6511 8.72189 12.3979 8.72189 12.2417 8.56569L9.28185 5.60589C9.02987 5.3539 8.59901 5.53237 8.59901 5.88873L8.59901 12.2669C8.59901 12.4878 8.41993 12.6669 8.19901 12.6669L7.79901 12.6669C7.5781 12.6669 7.39901 12.4878 7.39901 12.2669L7.39901 5.88873Z" fill="currentColor"/>
</svg>
