<svg viewBox="0 0 16 16" fill="none" xmlns="http://www.w3.org/2000/svg">
<path fill-rule="evenodd" clip-rule="evenodd" d="M7.39901 10.1113C7.39901 10.4676 6.96815 10.6461 6.71617 10.3941L3.75637 7.43431C3.60016 7.27811 3.3469 7.2781 3.19069 7.43431L2.90784 7.71716C2.75163 7.87337 2.75163 8.12663 2.90784 8.28284L7.57475 12.9497L7.71617 13.0912C7.87238 13.2474 8.12564 13.2474 8.28185 13.0912L8.42328 12.9497L13.0902 8.28284C13.2464 8.12663 13.2464 7.87337 13.0902 7.71716L12.8073 7.43431C12.6511 7.27811 12.3979 7.27811 12.2417 7.43431L9.28185 10.3941C9.02987 10.6461 8.59901 10.4676 8.59901 10.1113L8.59901 3.7331C8.59901 3.51218 8.41993 3.3331 8.19901 3.3331L7.79901 3.3331C7.5781 3.3331 7.39901 3.51218 7.39901 3.7331L7.39901 10.1113Z" fill="currentColor"/>
</svg>
