<svg viewBox="0 0 24 24" fill="none" xmlns="http://www.w3.org/2000/svg">
<path fill-rule="evenodd" clip-rule="evenodd" d="M13.6037 9.12407C13.9817 8.74609 13.714 8.0998 13.1795 8.0998H6.90078C6.56941 8.0998 6.30078 7.83118 6.30078 7.4998V6.89981C6.30078 6.56843 6.56941 6.2998 6.90078 6.2998H16.8008H17.1008C17.4322 6.2998 17.7008 6.56843 17.7008 6.8998V7.1998V17.0998C17.7008 17.4312 17.4322 17.6998 17.1008 17.6998H16.5008C16.1694 17.6998 15.9008 17.4312 15.9008 17.0998V10.8211C15.9008 10.2866 15.2545 10.0189 14.8765 10.3969L8.11144 17.1619C7.87713 17.3963 7.49723 17.3963 7.26291 17.1619L6.83865 16.7377C6.60433 16.5034 6.60433 16.1235 6.83865 15.8891L13.6037 9.12407Z" fill="currentColor"/>
</svg>
