<svg viewBox="0 0 16 16" fill="none" xmlns="http://www.w3.org/2000/svg">
  <path fill-rule="evenodd" clip-rule="evenodd" d="M0.544968 13.27C6.64343e-07 12.2004 9.09151e-07 10.8003 1.39876e-06 8C1.88838e-06 5.19974 2.13318e-06 3.79961 0.54497 2.73005C1.02434 1.78924 1.78924 1.02433 2.73005 0.544968C3.79961 6.64344e-07 5.19974 9.09151e-07 8 1.39876e-06C10.8003 1.88838e-06 12.2004 2.13318e-06 13.27 0.54497C14.2108 1.02434 14.9757 1.78924 15.455 2.73005C16 3.79961 16 5.19974 16 8C16 10.8003 16 12.2004 15.455 13.27C14.9757 14.2108 14.2108 14.9757 13.27 15.455C12.2004 16 10.8003 16 8 16C5.19974 16 3.79961 16 2.73005 15.455C1.78924 14.9757 1.02433 14.2108 0.544968 13.27ZM7.53047 11.1895L7.19144 11.1895C6.29374 11.1895 5.4328 10.8534 4.79803 10.2552C4.16325 9.65701 3.80664 8.84569 3.80664 7.99972C3.80644 7.58071 3.89384 7.16577 4.06385 6.7786C4.23386 6.39144 4.48315 6.03963 4.79747 5.74328C5.1118 5.44693 5.48501 5.21184 5.89577 5.05145C6.30654 4.89106 6.74681 4.80851 7.19144 4.80851L7.53047 4.80851C7.55119 4.80851 7.57105 4.81626 7.5857 4.83007C7.60035 4.84387 7.60858 4.8626 7.60858 4.88212L7.60858 11.1158C7.60858 11.1354 7.60035 11.1541 7.5857 11.1679C7.57105 11.1817 7.55118 11.1895 7.53047 11.1895ZM11.2337 11.1895L8.54257 11.1895C8.49857 11.1895 8.46289 11.1558 8.46289 11.1144L8.46289 8.47158C8.46289 8.43011 8.49857 8.39649 8.54257 8.39649L11.2337 8.3965C11.2777 8.3965 11.3134 8.43011 11.3134 8.47158L11.3134 11.1144C11.3134 11.1558 11.2777 11.1895 11.2337 11.1895ZM8.54257 7.625L11.2337 7.625C11.2777 7.625 11.3134 7.59138 11.3134 7.54991L11.3134 4.88579C11.3134 4.84432 11.2777 4.8107 11.2337 4.8107L8.54257 4.8107C8.49857 4.8107 8.46289 4.84432 8.46289 4.88579L8.46289 7.54991C8.46289 7.59138 8.49857 7.625 8.54257 7.625Z" fill="currentColor"/>
</svg>
