<svg width="16" height="16" viewBox="0 0 16 16" fill="none" xmlns="http://www.w3.org/2000/svg">
<path fill-rule="evenodd" clip-rule="evenodd" d="M8.28296 9.22516C8.12675 9.06895 7.87348 9.06895 7.71727 9.22516L4.72362 12.2188C4.64552 12.2969 4.51889 12.2969 4.44078 12.2188L3.78081 11.5588C3.70271 11.4807 3.70271 11.3541 3.78081 11.276L6.77446 8.28235C6.93067 8.12614 6.93067 7.87288 6.77446 7.71667L3.78116 4.72336C3.70305 4.64526 3.70305 4.51862 3.78116 4.44052L4.44113 3.78055C4.51923 3.70245 4.64586 3.70245 4.72397 3.78055L7.71727 6.77386C7.87348 6.93007 8.12675 6.93007 8.28296 6.77386L11.2761 3.78067C11.3543 3.70256 11.4809 3.70256 11.559 3.78067L12.219 4.44063C12.2971 4.51874 12.2971 4.64537 12.219 4.72348L9.22577 7.71667C9.06956 7.87288 9.06956 8.12614 9.22577 8.28235L12.2193 11.2759C12.2974 11.354 12.2974 11.4806 12.2193 11.5587L11.5593 12.2187C11.4812 12.2968 11.3546 12.2968 11.2765 12.2187L8.28296 9.22516Z" fill="currentColor"/>
</svg>
