<svg width="17" height="16" viewBox="0 0 17 16" fill="none" xmlns="http://www.w3.org/2000/svg">
<path d="M12.4327 2.94141H4.56532C3.94548 2.94141 3.44141 3.44548 3.44141 4.06532V11.9327C3.44141 12.5526 3.94548 13.0566 4.56532 13.0566H9.06098C9.13479 13.0567 9.20789 13.0423 9.27608 13.014C9.34426 12.9857 9.40619 12.9443 9.45828 12.892L13.392 8.95829C13.4382 8.91038 13.4755 8.85462 13.5021 8.79363C13.51 8.77677 13.5145 8.75935 13.5207 8.74137C13.5367 8.69435 13.5463 8.6454 13.5493 8.59582C13.5505 8.58402 13.5566 8.57278 13.5566 8.56098V4.06532C13.5566 3.44548 13.0526 2.94141 12.4327 2.94141ZM4.56532 4.06532H12.4327V7.59902C12.4327 7.81994 12.2536 7.99902 12.0327 7.99902H9.06098C8.91194 7.99902 8.769 8.05823 8.66362 8.16362C8.55823 8.26901 8.49902 8.41194 8.49902 8.56098V11.5327C8.49902 11.7536 8.31994 11.9327 8.09902 11.9327H4.56532V4.06532ZM9.62294 11.1381V9.12294H11.6381L9.62294 11.1381Z" fill="currentColor"/>
</svg>
