<svg viewBox="0 0 16 16" fill="none" xmlns="http://www.w3.org/2000/svg">
<path d="M11.8889 14H4.11111C3.49833 14 3 13.5007 3 12.8868V3.11323C3 2.49928 3.49833 2 4.11111 2H8.55556C8.62852 1.9999 8.70079 2.01425 8.7682 2.04224C8.83561 2.07023 8.89683 2.1113 8.94833 2.16309L12.8372 6.05938C12.8829 6.10683 12.9198 6.16205 12.9461 6.22246C12.9539 6.23916 12.9583 6.25642 12.9644 6.27423C12.9803 6.3208 12.9898 6.36928 12.9928 6.41839C12.9939 6.43008 13 6.44121 13 6.4529V12.8868C13 13.5007 12.5017 14 11.8889 14ZM4.11111 12.8868H11.8889V7.40951C11.8889 7.1886 11.7098 7.00951 11.4889 7.00951H8.55556C8.40821 7.00951 8.26691 6.95087 8.16272 6.84648C8.05853 6.7421 8 6.60052 8 6.4529V3.51323C8 3.29231 7.82091 3.11323 7.6 3.11323H4.11111V12.8868ZM9.11111 3.90028V5.89629H11.1033L9.11111 3.90028Z" fill="currentColor"/>
</svg>
