<svg width="17" height="16" viewBox="0 0 17 16" fill="none" xmlns="http://www.w3.org/2000/svg">
<g clip-path="url(#clip0_8277_73750)">
<path d="M16.4992 9.41992H0.527344V10.3479H16.4992V9.41992Z" fill="currentColor"/>
<path d="M0.527344 15.9995H1.51152V14.9309H7.10731V11.2754H0.527344V15.9995ZM1.51152 12.2033H6.12311V14.003H1.51152V12.2033Z" fill="currentColor"/>
<path d="M8.03906 14.9309H11.7508V15.9995H12.7631V14.9309H16.4749V11.2754H8.03906V14.9309ZM12.7631 12.2034H15.5188V14.003H12.7631V12.2034ZM9.02323 12.2034H11.7508V14.003H9.02323V12.2034Z" fill="currentColor"/>
<path d="M8.99456 0H5.22656V8.46397H8.99456V0ZM8.0104 7.53603H6.21073V0.956063H8.0104V7.53603Z" fill="currentColor"/>
<path d="M10.9295 2.84007L12.7291 0.956063V8.4921H13.7133V2.84007L15.4848 0.956063V8.4921H16.469V0H15.0912L13.7133 1.46221V0H12.3354L9.94531 2.47452V8.4921H10.9295V2.84007Z" fill="currentColor"/>
<path d="M3.28383 8.4921H4.268V7.56413V0H2.89016L0.5 2.47452V7.53603V8.46397H1.48418H3.28383V8.4921ZM1.5123 2.84007L3.31195 0.956063V7.53603H1.5123V2.84007Z" fill="currentColor"/>
</g>
<defs>
<clipPath id="clip0_8277_73750">
<rect width="16" height="16" fill="white" transform="translate(0.5)"/>
</clipPath>
</defs>
</svg>
