<svg viewBox="0 0 16 16" fill="none" xmlns="http://www.w3.org/2000/svg">
  <path fill-rule="evenodd" clip-rule="evenodd" d="M4.00436 11.8C4.00436 11.5791 4.18345 11.4 4.40436 11.4L11.6044 11.4C11.8253 11.4 12.0044 11.5791 12.0044 11.8V12.2C12.0044 12.4209 11.8253 12.6 11.6044 12.6L4.40436 12.6C4.18345 12.6 4.00436 12.4209 4.00436 12.2L4.00436 11.8ZM8.60451 7.53046C8.60451 7.88682 9.03536 8.06529 9.28735 7.8133L11.2703 5.8304C11.4265 5.67419 11.6797 5.67419 11.8359 5.8304L12.1188 6.11324C12.275 6.26945 12.275 6.52271 12.1188 6.67892L8.42856 10.3691L8.28714 10.5106C8.13093 10.6668 7.87766 10.6668 7.72145 10.5106L7.58003 10.3691L3.8898 6.67892C3.7336 6.52271 3.73359 6.26945 3.8898 6.11324L4.17265 5.8304C4.32886 5.67419 4.58212 5.67419 4.73833 5.8304L6.72167 7.81373C6.97365 8.06571 7.40451 7.88725 7.40451 7.53089L7.40451 2.39594C7.40451 2.17503 7.5836 1.99594 7.80451 1.99594L8.20451 1.99594C8.42542 1.99594 8.60451 2.17503 8.60451 2.39594L8.60451 7.53046Z" fill="currentColor"/>
</svg>
