<svg width="16" height="16" viewBox="0 0 16 16" fill="none" xmlns="http://www.w3.org/2000/svg">
<path d="M9.33289 8.00065C8.60289 8.00065 7.99955 7.39732 7.99955 6.66732C7.99955 6.43132 8.06822 6.21198 8.17822 6.01865C8.11822 6.01398 8.06089 6.00065 7.99955 6.00065C7.4702 6.00415 6.96352 6.21598 6.5892 6.5903C6.21488 6.96462 6.00305 7.4713 5.99955 8.00065C5.99955 9.09532 6.90489 10.0007 7.99955 10.0007C9.09355 10.0007 9.99955 9.09532 9.99955 8.00065C9.99955 7.93932 9.98622 7.88198 9.98155 7.82198C9.78822 7.93198 9.56889 8.00065 9.33289 8.00065Z" fill="currentColor"/>
<path d="M7.99954 3.33398C2.91088 3.33398 1.38154 7.74532 1.36754 7.78998L1.29688 8.00065L1.36688 8.21132C1.38154 8.25598 2.91088 12.6673 7.99954 12.6673C13.0882 12.6673 14.6175 8.25598 14.6315 8.21132L14.7022 8.00065L14.6322 7.78998C14.6175 7.74532 13.0882 3.33398 7.99954 3.33398ZM7.99954 11.334C4.43221 11.334 3.05021 8.76998 2.71554 8.00065C3.05154 7.22865 4.43421 4.66732 7.99954 4.66732C11.5669 4.66732 12.9489 7.23132 13.2835 8.00065C12.9475 8.77265 11.5649 11.334 7.99954 11.334Z" fill="currentColor"/>
</svg>
