<svg width="16" height="17" viewBox="0 0 16 17" fill="none" xmlns="http://www.w3.org/2000/svg">
<path fill-rule="evenodd" clip-rule="evenodd" d="M1.2 4.40039C1.08954 4.40039 1 4.48993 1 4.60039V5.40039C1 5.51085 1.08954 5.60039 1.2 5.60039H14.8C14.9105 5.60039 15 5.51085 15 5.40039V4.60039C15 4.48993 14.9105 4.40039 14.8 4.40039H1.2ZM2.5 8.10039C2.5 7.98993 2.58954 7.90039 2.7 7.90039H13.3C13.4105 7.90039 13.5 7.98993 13.5 8.10039V8.90039C13.5 9.01085 13.4105 9.10039 13.3 9.10039H2.7C2.58954 9.10039 2.5 9.01085 2.5 8.90039V8.10039ZM4 11.6004C4 11.4899 4.08954 11.4004 4.2 11.4004H11.8C11.9105 11.4004 12 11.4899 12 11.6004V12.4004C12 12.5108 11.9105 12.6004 11.8 12.6004H4.2C4.08954 12.6004 4 12.5108 4 12.4004V11.6004Z" fill="currentColor"/>
</svg>
