<svg width="20" height="20" viewBox="0 0 20 20" fill="none" xmlns="http://www.w3.org/2000/svg">
<path fill-rule="evenodd" clip-rule="evenodd" d="M9.12735 3.45054C9.50286 2.75316 10.5032 2.75316 10.8787 3.45054L13.6705 8.63524C14.0272 9.29784 13.5473 10.1013 12.7948 10.1013C12.684 10.1013 12.6156 10.2221 12.6726 10.3171L14.5977 13.5257C14.9955 14.1885 14.518 15.0319 13.7449 15.0319H10.7989C10.69 15.0319 10.6017 15.1202 10.6017 15.2292L10.6018 16.7032C10.6018 16.8122 10.5135 16.9005 10.4046 16.9005L9.59912 16.9006C9.49017 16.9006 9.40183 16.8123 9.40182 16.7033L9.40166 15.2292C9.40165 15.1202 9.31333 15.0319 9.20439 15.0319H6.26122C5.48816 15.0319 5.01067 14.1885 5.4084 13.5257L7.33349 10.3172C7.39049 10.2222 7.32206 10.1013 7.21126 10.1013C6.45871 10.1013 5.9788 9.29784 6.33559 8.63524L9.12735 3.45054ZM11.8239 8.90131C11.8234 8.90131 11.823 8.90106 11.8228 8.90066C11.8225 8.90025 11.8221 8.9 11.8216 8.9H11.4826H10.005H8.52351H8.18456C8.18408 8.9 8.18364 8.90025 8.1834 8.90066C8.18316 8.90106 8.18272 8.90131 8.18225 8.90131H7.88551C7.73624 8.90131 7.64105 8.74194 7.71182 8.6105L9.82933 4.67798C9.90381 4.53965 10.1022 4.53965 10.1767 4.67798L12.2942 8.6105C12.365 8.74194 12.2698 8.90131 12.1205 8.90131H11.8239ZM8.97413 10.1013C8.90484 10.1013 8.84062 10.1377 8.80497 10.1971L6.80335 13.5331C6.72446 13.6646 6.81917 13.8319 6.97251 13.8319H13.0336C13.187 13.8319 13.2817 13.6646 13.2028 13.5331L11.2012 10.1971C11.1655 10.1377 11.1013 10.1013 11.032 10.1013H8.97413Z" fill="currentColor"/>
</svg>
