<svg width="74" height="79" viewBox="0 0 74 79" fill="none" xmlns="http://www.w3.org/2000/svg">
  <path d="M29.5818 48.3738C20.7319 41.9397 14.978 31.4323 14.275 20.4633C14.1378 17.8085 14.0511 14.8574 15.2019 12.4455C16.6416 9.32925 20.2528 8.34554 23.4427 8.45484C33.8503 8.57386 42.6713 17.6385 42.7266 28.2018C42.7218 28.2771 42.8326 28.2917 42.8542 28.2261C44.4889 25.2191 46.2873 22.0931 49.1305 20.1694C53.7529 16.9657 58.7966 18.5129 61.6206 23.2274C63.9293 27.2132 63.679 32.1974 62.6702 36.5645C60.8646 44.0261 56.1026 50.3995 50.3608 55.2841C47.674 57.4749 45.021 59.7484 42.0742 61.6065C39.8834 63.0638 37.1967 63.7245 35.2947 65.6118C33.8069 67.0934 33.1713 69.9085 35.0371 71.3658C37.0522 72.8572 40.1603 71.9706 41.3953 69.8526C42.3968 68.2908 42.6544 66.389 42.6207 64.5746C42.457 59.1873 40.3529 54.072 37.8202 49.4328C35.0299 44.0553 27.6823 33.9826 27.5017 28.2893C27.6221 25.0977 31.125 24.641 33.2773 26.3194C34.3366 27.0821 35.1888 28.1119 36.0001 29.1321C37.3483 30.8566 38.475 32.7584 39.3658 34.7598C40.7814 37.9709 41.5422 41.466 41.5783 44.9467C41.5783 45.1701 41.7612 45.3499 41.9827 45.3426C42.2042 45.3353 42.3751 45.1434 42.3607 44.9199C42.0574 40.6038 43.2081 36.1079 45.5675 32.4524C47.2479 29.8656 49.9708 29.29 51.9521 31.918C53.0162 33.3268 53.4472 35.1193 53.4447 36.8706C53.4881 40.3876 51.9353 43.8804 49.4218 46.302C48.1579 47.514 46.646 48.471 44.9897 49.0321C46.646 48.4734 48.1627 47.5189 49.4291 46.3093C51.8847 43.963 53.3966 40.6135 53.4881 37.1985C53.4736 36.2196 53.4231 35.1946 53.1438 34.2522C52.4769 31.7529 50.0959 29.0689 47.3779 30.57C44.8597 32.0346 43.0131 36.8657 42.3029 39.6395C41.872 41.364 41.6385 43.1396 41.5807 44.9345L42.3607 44.9078C42.2283 43.5695 42.0525 42.2409 41.7492 40.9317C40.6995 36.1686 38.4798 31.6727 35.2971 28.0002C34.1584 26.6838 32.7476 25.3527 30.9324 25.1827C30.0488 25.1025 29.1051 25.2944 28.3925 25.8725C26.9047 27.0894 27.1623 29.2802 27.6751 30.9198C28.7536 34.3008 30.3618 37.4681 32.0735 40.5479C35.4873 46.6493 39.4356 52.5807 41.1401 59.4448C41.9683 63.0177 42.8879 69.0924 39.0962 71.1764C37.8298 71.8103 36.1253 71.8467 35.0131 70.8776C33.5132 69.4956 34.1127 67.0448 35.4055 65.7113C36.6116 64.4216 38.28 63.7464 39.8401 62.9958L42.2259 61.8785C43.8196 61.1353 45.4254 60.3823 46.9638 59.4909C54.5931 54.9464 60.3109 47.1958 62.6389 38.5999C64.2953 32.1391 65.0247 22.9044 58.9531 18.5324C55.6885 16.1787 51.4851 16.7763 48.4179 19.1614C45.5217 21.3596 43.8509 24.7989 42.7363 28.1751C42.7315 28.1775 42.8615 28.2042 42.8615 28.2042C42.9265 26.2538 42.6953 24.2791 42.1874 22.3846C40.9475 17.7138 38.0128 13.5094 33.9851 10.8619C29.6348 7.9472 23.2405 6.33198 18.2185 8.28725C13.962 9.96319 12.9918 14.4324 13.2567 18.5712C13.3265 19.3558 13.365 20.4269 13.4805 21.1896C13.613 22.4113 13.8898 23.8662 14.145 25.0637C14.8047 27.7986 15.7291 30.5214 16.9257 33.0669C19.7617 39.1392 24.1409 44.5022 29.5842 48.3714L29.5818 48.3738Z" fill="currentColor"/>
  <path d="M30.304 48.3738C21.9886 42.3113 15.9217 32.8823 14.5109 22.5813C13.572 15.1003 14.1185 8.36254 23.3175 8.44999C29.2038 8.54471 35.0275 11.4667 38.5882 16.2249C41.1834 19.6424 42.6352 23.8759 42.729 28.2042C42.729 28.2771 42.8326 28.2893 42.8542 28.2261C43.6944 26.6886 44.5395 25.1657 45.5458 23.7788C48.3144 19.7395 53.4977 16.7398 58.0816 19.5914C60.9729 21.3037 62.6413 24.6022 63.6308 27.7549C65.4581 34.1065 61.6711 42.0247 57.9491 47.0477C55.4261 50.5283 52.4505 53.6737 49.1329 56.3892C47.1853 57.968 45.1076 59.7897 43.0059 61.1572C40.8729 62.6728 38.2511 63.4039 36.3613 65.2741C35.0636 66.4473 34.1656 68.3491 34.8229 70.1004C35.5475 72.0192 37.7239 72.5997 39.4573 71.6621C43.6896 69.2648 42.7122 63.2873 41.9851 59.2577C40.9692 54.0356 38.6219 49.2094 35.8316 44.7499C33.1449 40.2832 30.3329 35.8067 28.6429 30.8469C28.2697 29.6324 27.9953 28.282 28.4792 27.0724C28.9607 25.8433 30.3137 25.2458 31.5752 25.3673C34.1656 25.6053 35.9929 28.1265 37.4109 30.1012C40.348 34.4319 41.5518 39.7512 41.5807 44.9467C41.5951 45.4786 42.38 45.464 42.3607 44.9199C42.1272 41.4248 43.3381 37.9563 44.915 34.8691C45.7336 33.3438 46.5208 31.646 48.0255 30.6963C50.6834 29.0641 53.1053 31.6946 53.8035 34.1793C54.5233 36.737 54.167 39.5302 53.139 41.9518C51.7571 45.1944 49.0631 47.9172 45.7119 49.0321C50.7532 47.3586 54.2874 42.1121 54.2103 36.7928C54.1959 35.0246 53.7481 33.2175 52.6479 31.8087C51.5501 30.3125 49.6457 29.5984 47.987 30.6356C46.8386 31.3327 46.0899 32.501 45.4206 33.6353C44.2939 35.5444 43.3044 37.5312 42.5822 39.6444C42.0092 41.3349 41.6385 43.1104 41.5759 44.9369L42.3559 44.9102C42.055 41.3908 41.3616 37.8907 40.0351 34.6311C39.048 32.1901 37.683 29.8972 35.9448 27.9249C35.3694 27.2667 34.7507 26.6327 34.0284 26.1251C32.3143 24.7795 29.2447 24.7042 28.2745 26.9874C26.3341 31.5343 35.7209 44.9151 37.8659 49.6077C39.3971 52.7167 40.5695 56.0055 41.246 59.4083C41.6962 61.9295 42.1079 64.5455 41.6962 67.0861C41.4218 68.7086 40.6345 70.336 39.1925 71.1739C38.15 71.7957 36.732 71.8395 35.8075 70.9869C34.0934 69.4567 34.9023 66.7363 36.4527 65.3786C38.2271 63.5642 40.9764 62.6558 43.2033 61.5263C45.1726 60.5815 47.1564 59.5808 48.9572 58.308C50.0117 57.5891 51.083 56.6491 52.0436 55.7966C58.6329 49.6466 63.9414 40.7787 64.4734 31.6071C64.5986 28.4787 63.6356 25.4256 62.3428 22.6105C60.8815 19.4481 57.6964 16.9074 54.1213 17.0313C48.0014 17.3058 44.4191 22.8267 42.7339 28.1775L42.8591 28.2042C42.9072 26.4627 42.7531 24.7018 42.3342 22.9991C41.1497 17.8328 37.8707 13.1912 33.3543 10.4587C27.1984 6.48257 14.7613 5.11025 13.4131 14.7724C13.0135 17.4151 13.2879 20.0966 13.7068 22.7076C15.5847 33.0232 21.8634 42.372 30.304 48.3714V48.3738Z" fill="currentColor"/>
  <path d="M31.0263 48.3738C22.7205 42.287 16.2395 33.1131 14.5735 22.7902C14.0607 19.0133 13.5865 13.6624 16.384 10.7404C19.4054 7.79418 24.384 8.17309 28.183 9.16651C36.6526 11.4715 42.587 19.3728 42.729 28.2018C42.7242 28.2795 42.8326 28.2917 42.8542 28.2285C43.6848 26.708 44.5202 25.1973 45.5145 23.8225C49.7348 17.7478 56.873 16.1132 61.3798 22.8485C64.3242 27.7525 64.8442 32.1318 63.0988 37.5919C61.5291 42.5202 58.4451 46.7708 55.1011 50.6254C52.8886 53.2244 50.3848 55.5172 47.7968 57.7203C45.8732 59.3938 43.8654 61.0697 41.612 62.3036C40.8608 62.7286 40.0664 63.0614 39.3201 63.4986C38.5689 63.9334 37.8924 64.4872 37.2689 65.0871C36.6333 65.6773 36.0459 66.3526 35.704 67.1687C34.3799 69.8769 36.7729 73.5227 39.7486 71.531C42.1127 70.0129 42.7387 66.9598 42.6207 64.3196C42.3294 58.2036 40.7164 52.1241 37.5722 46.8655C34.5364 41.6798 31.2742 36.4844 29.3386 30.7594C28.4406 28.1022 28.9727 25.224 32.3119 25.3673C34.8518 25.6053 36.7224 28.0852 38.073 30.0623C40.9066 34.4417 41.5518 39.8217 41.5807 44.9467C41.5951 45.481 42.3848 45.4616 42.3607 44.9175C42.2355 43.2051 42.6207 41.4539 43.2226 39.8047C44.135 37.3175 45.4977 34.9906 46.841 32.7123C48.4203 30.1085 51.1143 29.1199 53.2594 31.7383C56.0232 35.3015 55.0072 40.7277 52.6166 44.2301C51.1288 46.4331 48.9572 48.1917 46.4366 49.0321C51.5091 47.3488 55.0505 42.049 54.935 36.6981C54.9037 34.9177 54.4294 33.1058 53.2955 31.7091C52.1543 30.2129 50.2043 29.6081 48.5792 30.7206C47.0794 31.731 46.3018 33.441 45.3628 34.9299C44.4504 36.4552 43.5669 38.0073 42.8615 39.6589C42.1585 41.3057 41.6361 43.074 41.5831 44.9369C41.5831 44.9369 42.3655 44.9102 42.3631 44.9102C41.8238 38.1287 40.3866 30.519 34.7482 26.1202C33.3591 25.0904 31.2743 24.7358 29.8346 25.8798C28.3708 27.0699 28.5995 29.222 29.0931 30.8372C30.6796 35.8188 33.2339 40.3852 35.7907 44.9054C36.5442 46.2121 37.6131 48.0994 38.2511 49.4474C39.7221 52.5467 40.7332 55.8524 41.3038 59.2383C41.8214 63.042 42.9168 68.4074 39.4332 71.0695C37.8876 72.2694 36.3131 71.4411 35.7064 69.7093C35.456 68.9175 35.5644 68.0309 35.8749 67.2464C36.1831 66.4352 36.7489 65.7866 37.3604 65.1891C37.9622 64.577 38.6411 64.0427 39.3802 63.6128C40.6658 62.8987 42.6809 62.0048 44.0195 61.3296C47.1709 59.8431 50.1369 57.8927 52.5877 55.3788C59.4273 48.4589 66.3657 37.4778 63.9679 27.3493C63.1541 23.9027 61.7626 20.2447 58.6208 18.304C55.3491 16.1496 51.1745 16.9366 48.259 19.2805C45.4399 21.532 43.8389 24.8426 42.7315 28.1751L42.8566 28.2018C42.9048 26.453 42.7483 24.6848 42.327 22.9772C41.1329 17.7891 37.8226 13.1378 33.2749 10.4125C27.9375 7.04365 17.2266 5.1734 14.0969 12.3192C13.3794 14.0073 13.2037 15.8484 13.2133 17.6507C13.5359 30.0624 21.2447 41.3495 31.0215 48.369L31.0263 48.3738Z" fill="currentColor"/>
</svg>