<svg width="16" height="16" viewBox="0 0 16 16" fill="none" xmlns="http://www.w3.org/2000/svg">
<path d="M11.3347 3.33398H5.9987C4.77336 3.33398 3.60803 3.82532 2.71603 4.71798C1.82336 5.61065 1.33203 6.77598 1.33203 8.00065C1.33203 9.22599 1.82336 10.3913 2.71603 11.2833C3.60803 12.176 4.77336 12.6673 5.9987 12.6673H11.332V11.334H5.9987C5.13003 11.334 4.2987 10.9813 3.6587 10.3407C3.01803 9.70065 2.66536 8.86932 2.66536 8.00065C2.66536 7.13265 3.01803 6.30132 3.6587 5.66065C4.2987 5.01998 5.13003 4.66732 5.9987 4.66732H11.332H11.3347C11.8614 4.66732 12.3607 4.87665 12.7407 5.25798C13.1214 5.63865 13.3314 6.13932 13.332 6.66865C13.3318 6.93046 13.2796 7.18962 13.1784 7.43109C13.0773 7.67256 12.9292 7.89154 12.7427 8.07532C12.5582 8.26209 12.3386 8.41054 12.0965 8.51214C11.8544 8.61374 11.5946 8.66647 11.332 8.66732H5.9987C5.91179 8.66626 5.82594 8.64805 5.74608 8.61373C5.66623 8.57941 5.59394 8.52965 5.53336 8.46732C5.47066 8.40668 5.42058 8.33422 5.38603 8.25412C5.35147 8.17402 5.33312 8.08788 5.33203 8.00065C5.33203 7.83265 5.40536 7.66265 5.5327 7.53532C5.59317 7.47257 5.6655 7.42247 5.7455 7.3879C5.8255 7.35334 5.91156 7.33501 5.9987 7.33398H11.332V6.00065H5.9987C5.47203 6.00065 4.97136 6.21065 4.58936 6.59332C4.20803 6.97465 3.9987 7.47465 3.9987 8.00065C3.9987 8.52665 4.20803 9.02732 4.5907 9.40998C4.7747 9.59661 4.99388 9.74491 5.23556 9.84629C5.47724 9.94768 5.73662 10.0001 5.9987 10.0007H11.3327C11.7702 10.0003 12.2032 9.9134 12.6069 9.74486C13.0106 9.57631 13.3769 9.3295 13.6847 9.01865C13.9952 8.71075 14.2417 8.3444 14.4098 7.94075C14.578 7.5371 14.6645 7.10413 14.6645 6.66685C14.6644 6.22956 14.5777 5.79662 14.4095 5.39301C14.2412 4.98941 13.9946 4.62313 13.684 4.31532C13.3769 4.00432 13.0111 3.75742 12.6078 3.58896C12.2045 3.42049 11.7718 3.33383 11.3347 3.33398Z" fill="currentColor"/>
</svg>
