<svg width="17" height="17" viewBox="0 0 17 17" fill="none" xmlns="http://www.w3.org/2000/svg">
<path fill-rule="evenodd" clip-rule="evenodd" d="M8.50039 2.2C7.87003 2.2 7.26155 2.45818 6.80991 2.92416C6.35766 3.39077 6.10039 4.02751 6.10039 4.69524V5.475C6.10039 5.69591 6.27948 5.875 6.50039 5.875H10.5004C10.7213 5.875 10.9004 5.69591 10.9004 5.475V4.69524C10.9004 4.02751 10.6431 3.39077 10.1909 2.92416C9.73923 2.45818 9.13075 2.2 8.50039 2.2ZM4.90039 4.69524V5.475C4.90039 5.69591 4.7213 5.875 4.50039 5.875H4.00039C3.11674 5.875 2.40039 6.59134 2.40039 7.475V12.975C2.40039 14.6871 3.78831 16.075 5.50039 16.075H11.5004C13.2125 16.075 14.6004 14.6871 14.6004 12.975V7.475C14.6004 6.59134 13.884 5.875 13.0004 5.875H12.5004C12.2795 5.875 12.1004 5.69591 12.1004 5.475V4.69524C12.1004 3.72115 11.7255 2.78332 11.0526 2.08899C10.379 1.39402 9.46133 1 8.50039 1C7.53945 1 6.62181 1.39402 5.94823 2.08899C5.27527 2.78332 4.90039 3.72115 4.90039 4.69524ZM4.00039 7.075C3.77948 7.075 3.60039 7.25409 3.60039 7.475V12.975C3.60039 14.0243 4.45105 14.875 5.50039 14.875H11.5004C12.5497 14.875 13.4004 14.0243 13.4004 12.975V7.475C13.4004 7.25409 13.2213 7.075 13.0004 7.075H4.00039ZM11.0004 11.8734C11.5527 11.8734 12.0004 11.4257 12.0004 10.8734C12.0004 10.3212 11.5527 9.87344 11.0004 9.87344C10.4481 9.87344 10.0004 10.3212 10.0004 10.8734C10.0004 11.4257 10.4481 11.8734 11.0004 11.8734Z" fill="currentColor"/>
</svg>
