<svg viewBox="0 0 154 16" fill="none" xmlns="http://www.w3.org/2000/svg">
  <path d="M93.8996 7.75998L89.2676 0.737846H86.9834L92.9268 9.51621V15.2635H94.8545V9.47598L100.796 0.737846H98.5703L93.8996 7.75998Z" fill="currentColor"/>
  <path d="M116.79 9.15691C116.79 12.1894 115.18 13.7264 112.656 13.7264C110.131 13.7264 108.462 12.0507 108.462 9.05842V0.737846H106.534V9.1583C106.534 13.3089 108.959 15.4827 112.616 15.4827C116.272 15.4827 118.697 13.2867 118.697 9.03762V0.737846H116.79V9.1583V9.15691Z" fill="currentColor"/>
  <path d="M131.105 11.1698L126.634 0.737846H124.415L131.084 15.7116L137.753 0.737846H135.593L131.105 11.1698Z" fill="currentColor"/>
  <path d="M149.839 10.3858H144.653L147.246 4.51923L149.839 10.3858ZM147.276 0.288193L140.588 15.2633H142.545L143.47 13.1589L143.928 12.0616V12.1018H150.583L151.024 13.1589L151.95 15.2633H153.966L147.276 0.288193Z" fill="currentColor"/>
  <path d="M60.0739 13.4285V8.93116H67.8109V7.10557H60.0739V2.57212H68.1592L69.074 0.746529H58.2637V2.57212V7.10557V8.93116V13.4285V15.2541H60.0739H69.074L68.1605 13.4285H60.0739Z" fill="currentColor"/>
  <path d="M32.727 2.87054C32.0789 2.21716 31.3092 1.69418 30.4386 1.31546C29.5653 0.936752 28.6215 0.743927 27.6293 0.743927C26.6372 0.743927 25.692 0.935364 24.82 1.31546C23.9494 1.69418 23.1797 2.21577 22.5317 2.87054C21.8822 3.52393 21.3626 4.298 20.9895 5.16779C20.6164 6.03342 20.4271 6.97534 20.4243 7.96582H22.2539C22.258 7.25001 22.4031 6.55917 22.6878 5.91411C22.978 5.25657 23.3718 4.67255 23.8569 4.17731C24.3419 3.68207 24.9167 3.28671 25.5676 3.00094C26.2157 2.71656 26.908 2.5709 27.6293 2.5709C28.3507 2.5709 29.043 2.71517 29.6924 3.00094C30.3419 3.28532 30.9181 3.68207 31.4032 4.17592C31.8882 4.67255 32.2834 5.25657 32.5722 5.91273C32.8569 6.55779 33.0034 7.24863 33.0061 7.96443H34.8357C34.8316 6.97395 34.6436 6.03342 34.2705 5.1664C33.8947 4.29522 33.3765 3.52115 32.7284 2.86916L32.727 2.87054Z" fill="currentColor"/>
  <path d="M24.4113 12.9018C25.8139 12.9171 22.5458 12.358 23.3901 11.8295C24.2952 11.301 22.4048 11.3731 21.0713 11.3329C19.7309 11.2927 21.5177 11.8295 21.5177 11.8295C22.3468 11.9502 21.4956 12.1985 21.5356 12.6133C21.5785 13.0308 23.0073 12.8852 24.4141 12.9018H24.4113Z" fill="currentColor"/>
  <path d="M22.8026 10.7151C22.9187 10.5028 22.1227 10.446 22.0274 10.3419C21.9292 10.2365 22.9021 10.3294 22.3922 9.7912C22.2789 9.68161 22.2222 9.60392 22.2015 9.54427H20.6648C20.6455 9.82311 20.1992 10.3364 20.6469 10.6221C21.1844 10.9814 22.692 10.9287 22.8026 10.7151Z" fill="currentColor"/>
  <path d="M33.2486 12.2666C31.6581 11.6715 29.9114 12.2749 30.594 12.4581C31.278 12.6412 31.267 13.0795 30.9201 13.1211C30.858 13.1295 29.7787 13.2002 29.8257 13.5484C29.8727 13.8966 32.4429 13.8966 31.9925 13.4263C31.542 12.9547 34.4992 12.7327 33.25 12.2666H33.2486Z" fill="currentColor"/>
  <path d="M26.988 13.7211C26.6301 13.2397 23.0041 13.4228 23.3164 13.8973C23.6287 14.3703 25.3215 14.0332 25.3367 14.011C25.66 13.5213 27.3459 14.2038 26.988 13.7225V13.7211Z" fill="currentColor"/>
  <path d="M33.0823 9.60462C32.7244 9.64623 31.9202 9.74056 32.6249 10.2538C32.6525 10.2746 32.6912 10.6825 32.3568 10.7449C32.0266 10.8073 32.0418 11.2096 32.9856 11.3442C33.9114 11.4801 34.3025 10.9905 34.062 10.756C33.8133 10.5216 34.7032 10.2968 34.4144 10.0513C34.1615 9.84461 34.7806 9.70311 34.8304 9.5408H33.2136C33.1873 9.57132 33.1486 9.5949 33.0837 9.60323L33.0823 9.60462Z" fill="currentColor"/>
  <path d="M28.7644 14.6569C28.3125 14.8331 27.7653 14.675 26.9569 14.4808C26.1485 14.2879 25.9937 14.9732 25.9937 14.9732C25.9827 15.2021 27.1351 15.6405 28.1812 15.5545C29.2273 15.4657 30.0357 14.8068 29.7745 14.5168C29.5133 14.2269 29.2148 14.4821 28.763 14.6569H28.7644Z" fill="currentColor"/>
  <path d="M42.4339 7.10557V2.57073H48.1285C48.3634 2.57073 48.6094 2.61096 48.8567 2.69142C49.0999 2.7691 49.3224 2.89534 49.52 3.06736C49.7176 3.23937 49.8876 3.46965 50.0203 3.74987C50.1529 4.0287 50.2206 4.38522 50.2206 4.80971C50.2206 5.2342 50.146 5.57407 49.9954 5.864C49.8434 6.15948 49.6568 6.39947 49.4413 6.57703C49.2215 6.75876 48.9894 6.89332 48.7503 6.97794C48.5099 7.06256 48.2998 7.10557 48.1285 7.10557H42.4339ZM49.8157 10.815L48.8236 8.90896C49.3307 8.81463 49.7909 8.57325 50.193 8.32078C50.4155 8.19038 50.6393 8.01975 50.8632 7.81583C51.0871 7.60913 51.2888 7.35943 51.4615 7.07227C51.6315 6.78789 51.7711 6.45496 51.8775 6.08041C51.9825 5.70586 52.035 5.27304 52.035 4.79306C52.035 4.2895 51.9825 3.83727 51.8775 3.45023C51.7725 3.06319 51.6329 2.72332 51.4615 2.43894C51.2888 2.15179 51.0871 1.90486 50.8604 1.70233C50.6366 1.50395 50.4086 1.34165 50.1888 1.22373C49.6651 0.933803 49.0571 0.774273 48.3717 0.746529H40.625V15.2541H42.4366V8.93254H46.6941V8.93532H46.7549L48.181 11.6751L48.1921 11.6709L50.0548 15.2569H52.1331L49.8199 10.8178H49.8171L49.8157 10.815Z" fill="currentColor"/>
  <path d="M0.0297852 0.503988V15.253H1.85937V13.247V4.32718L7.55262 8.82456L13.2473 4.32718V7.99916V15.253H15.0589V0.502602L7.55262 6.42605L0.0297852 0.503988Z" fill="currentColor"/>
</svg>
