<svg viewBox="0 0 24 24" fill="none" xmlns="http://www.w3.org/2000/svg">
<path fill-rule="evenodd" clip-rule="evenodd" d="M20 4H4C2.897 4 2 4.897 2 6V18C1.99935 18.6665 2.39844 19.9996 4 20H7.333H20C21.103 20 22 19.103 22 18V6C22 4.897 21.103 4 20 4ZM6.667 18H19.6C19.8209 18 20 17.8209 20 17.6V10.0479V8.00049V6.4C20 6.17909 19.8209 6 19.6 6H4.4C4.17909 6 4 6.17909 4 6.4V8.00049V10.0479V17.6C4 17.8209 4.17909 18 4.4 18H6.667Z" fill="currentColor"/>
<path d="M12.198 12.3902C12.0763 12.4587 11.9276 12.4587 11.8058 12.3902L4 8.00049V10.0479L11.7992 14.6314C11.9244 14.7049 12.0795 14.7049 12.2046 14.6313L20 10.0479V8.00049L12.198 12.3902Z" fill="currentColor"/>
</svg>
