<svg viewBox="0 0 168 43" fill="none" xmlns="http://www.w3.org/2000/svg">
<path d="M122.894 43C121.701 41.1439 120.457 39.8539 119.109 38.529C117.755 37.2099 116.257 35.8849 114.422 34.1163C113.798 33.521 112.803 32.5287 110.747 30.445C106.592 26.2483 99.6726 19.0865 93.9197 12.8352C91.0405 9.7125 88.4432 6.82327 86.5808 4.70449C86.1166 4.17334 85.6966 3.69472 85.3263 3.26863C85.144 3.0585 84.9726 2.86005 84.8124 2.67327C84.735 2.57988 84.6576 2.49233 84.5858 2.41062L84.5305 2.34641L84.431 2.23551C84.3592 2.15963 84.2929 2.08375 84.2211 2.01371C83.9503 1.72187 83.7126 1.45921 83.5026 1.23741C83.2871 0.986426 83.1047 0.770463 82.9555 0.601195C82.6626 0.256821 82.5079 0.0758789 82.5079 0.0758789C82.5079 0.0758789 82.5079 0.0700421 82.4582 0.0175105C82.4526 0.0175105 82.4471 0 82.4361 0L82.4139 0.0233474C82.4139 0.0233474 82.3753 0.0642052 82.3476 0.0933894C82.2979 0.145921 82.2316 0.215963 82.1487 0.303516C81.9774 0.484458 81.7287 0.747116 81.364 1.13818C81.1816 1.32496 80.9716 1.54676 80.7229 1.80358C80.6013 1.93199 80.4687 2.06624 80.3305 2.21216C80.2587 2.29388 80.1813 2.37559 80.0984 2.46315C79.9492 2.63241 78.9379 3.76476 77.3795 5.50998C75.8266 7.26103 73.7432 9.65413 71.4332 12.3216C69.1176 14.989 66.5976 17.9191 64.0832 20.7091C61.5687 23.505 59.0818 26.149 56.9708 28.3437C54.2629 31.1571 52.511 32.8147 51.5992 33.6844C49.7534 35.4413 48.2834 36.7954 46.9682 38.1613C45.6584 39.5329 44.4758 40.8871 43.3153 42.7665C45.1224 41.5816 46.4376 40.3734 47.7639 39.0193C49.0903 37.6651 50.4055 36.1476 52.1132 34.2389C52.9587 33.2992 54.5724 31.4898 57.3024 28.6939C59.43 26.5168 61.9942 23.9544 64.7021 21.3687C67.3989 18.783 70.2505 16.1622 72.8258 13.7983C75.4066 11.4285 77.7166 9.28641 79.4132 7.69296C81.1042 6.08782 82.1984 5.04887 82.3587 4.89711C82.4305 4.82707 82.5355 4.72784 82.5576 4.69866L82.5355 4.68698C82.5355 4.68698 82.5079 4.67531 82.4968 4.66364C82.4968 4.64612 82.4858 4.63445 82.4858 4.62861C82.4803 4.61694 82.4858 4.6111 82.4858 4.6111C82.4858 4.6111 82.4858 4.59943 82.4968 4.58192C82.4968 4.57608 82.5024 4.56441 82.5079 4.5469C82.5079 4.5469 82.5079 4.55857 82.5134 4.57025C83.0661 5.0547 83.8674 5.76096 84.8511 6.62481C86.9511 8.48093 89.8137 11.0725 92.9084 13.95C99.1145 19.6993 106.227 26.6393 110.41 30.8068C112.483 32.8672 113.472 33.8653 114.069 34.4957C115.832 36.3402 117.163 37.8519 118.479 39.2119C119.799 40.5719 121.082 41.821 122.9 42.9825L122.894 43Z" fill="currentColor"/>
<path d="M110.521 27.0538C112.217 26.009 113.284 24.7307 114.461 23.4291C115.616 22.1041 116.843 20.7149 118.539 19.0865C119.109 18.532 120.032 17.6156 121.999 15.7828C123.375 14.5045 125.309 12.7593 127.161 11.2126C128.083 10.4363 128.984 9.70083 129.78 9.08796C129.979 8.9362 130.167 8.79028 130.349 8.6502L130.487 8.55097C130.521 8.52762 130.509 8.55097 130.526 8.55097L130.576 8.57432C130.576 8.57432 130.603 8.6502 130.603 8.65603C131.797 9.65413 132.825 10.518 133.698 11.2476C134.665 12.0531 135.461 12.7185 136.091 13.238C137.351 14.2827 137.948 14.7789 137.948 14.7789C137.948 14.7789 140.501 16.9152 143.833 19.5592C145.502 20.8784 147.348 22.3376 149.139 23.7559C150.929 25.1801 152.637 26.5868 154.046 27.7834C156.776 30.1064 158.417 31.6007 159.268 32.3945C160.993 33.9879 162.313 35.2837 163.623 36.4219C164.944 37.5542 166.226 38.5757 168 39.4804C166.812 37.8227 165.607 36.6962 164.292 35.558C162.971 34.4257 161.512 33.3167 159.688 31.8516C158.788 31.1279 157.069 29.7212 154.372 27.3631C152.985 26.1432 151.333 24.6548 149.658 23.0847C147.984 21.5088 146.259 19.892 144.707 18.4269C141.595 15.5026 139.103 13.2846 139.103 13.2846C139.103 13.2846 138.523 12.7652 137.307 11.6678C136.693 11.1192 135.925 10.4304 134.98 9.58993C133.941 8.67354 132.72 7.59957 131.305 6.34465C131.09 6.1637 130.852 5.96525 130.587 5.74929C130.554 5.72594 130.521 5.68508 130.487 5.67341L130.393 5.77847C130.333 5.84851 130.266 5.91856 130.206 5.9886C130.078 6.13452 129.946 6.28044 129.808 6.43803C129.681 6.58979 129.542 6.74155 129.404 6.89915C129.338 6.97502 129.272 7.0509 129.205 7.12678L129.1 7.26687C128.957 7.44781 128.807 7.64042 128.653 7.84471C128.023 8.64436 127.277 9.54907 126.486 10.4771C124.911 12.3391 123.148 14.2711 121.855 15.6486C120.004 17.6156 119.081 18.532 118.523 19.0981C116.882 20.7908 115.494 21.9991 114.174 23.1372C112.869 24.2988 111.598 25.3494 110.51 27.0713L110.521 27.0538Z" fill="currentColor"/>
<path d="M57.4847 27.0538C56.3905 25.3319 55.125 24.2754 53.8208 23.1197C52.5 21.9815 51.1129 20.7733 49.4716 19.0806C48.9134 18.5145 47.9905 17.5981 46.1392 15.6369C44.8461 14.2652 43.0776 12.3391 41.4916 10.483C40.6958 9.56074 39.9442 8.65603 39.3142 7.86806C39.1539 7.66961 39.0047 7.47699 38.861 7.29605L38.7561 7.1618L38.7008 7.09176L38.5958 6.97502C38.4576 6.81743 38.325 6.66567 38.1924 6.51391C38.0542 6.36216 37.9216 6.21623 37.7945 6.07031C37.7282 6.00027 37.6674 5.93023 37.6066 5.86019L37.5126 5.76096C37.4795 5.77263 37.4463 5.81349 37.4132 5.83684C37.1534 6.05864 36.9103 6.25709 36.7058 6.44387C31.406 11.2651 29.0242 13.4364 29.0242 13.4364C29.0242 13.4364 28.4053 13.9967 27.3884 14.9073C26.3771 15.8237 24.9679 17.1019 23.3874 18.532C21.8179 19.9737 20.0716 21.573 18.3805 23.1197C16.6839 24.6665 15.0205 26.1374 13.6224 27.3398C10.9034 29.6745 9.17921 31.0637 8.27289 31.7874C6.44368 33.2466 4.99026 34.3615 3.68053 35.5113C2.37632 36.667 1.19368 37.8169 0 39.4745C1.77395 38.5757 3.07816 37.5776 4.41 36.4569C5.73632 35.3304 7.06263 34.0463 8.78131 32.447C9.63237 31.6532 11.2682 30.1473 13.9705 27.795C15.3687 26.5868 17.0653 25.1568 18.8337 23.7092C20.6076 22.2675 22.4368 20.785 24.0892 19.4425C25.7305 18.0942 27.195 16.886 28.2505 16.0221C29.3005 15.1524 29.9416 14.6213 29.9416 14.6213C29.9416 14.6213 30.5384 14.1252 31.8039 13.0862C32.4395 12.5667 33.2353 11.913 34.2134 11.1133C34.6997 10.7164 35.2358 10.2845 35.8105 9.81173C36.0979 9.57825 36.4018 9.33311 36.7113 9.08212C36.8661 8.95371 37.0263 8.8253 37.1866 8.69689L37.3082 8.59767C37.3468 8.56848 37.4076 8.51595 37.391 8.53346L37.4021 8.54513C37.4021 8.54513 37.4021 8.55681 37.4076 8.56264C37.4132 8.56264 37.4187 8.51011 37.4353 8.4926L37.485 8.46926H37.4961C37.4961 8.46926 37.5347 8.4926 37.5568 8.51011L37.6895 8.61518C37.8718 8.75526 38.0597 8.90702 38.2587 9.05878C39.0434 9.67748 39.9442 10.4188 40.8616 11.2009C42.7074 12.7593 44.636 14.5045 46.0121 15.7887C47.9795 17.6273 48.8968 18.5436 49.4716 19.0981C51.1682 20.7266 52.395 22.1158 53.55 23.4408C54.7216 24.7424 55.7937 26.0206 57.4903 27.0654L57.4847 27.0538Z" fill="currentColor"/>
</svg>
