<svg viewBox="0 0 186 67" fill="none" xmlns="http://www.w3.org/2000/svg">
<path d="M135.691 66.2917C134.373 63.4302 133 61.4415 131.512 59.3988C130.017 57.3652 128.363 55.3225 126.337 52.596C125.648 51.6782 124.549 50.1484 122.28 46.936C117.691 40.4661 110.052 29.425 103.7 19.7876C100.521 14.9734 97.6528 10.5192 95.5965 7.25276C95.0839 6.4339 94.6202 5.69603 94.2114 5.03914C94.01 4.71519 93.8209 4.40925 93.6439 4.1213C93.5585 3.97732 93.4731 3.84234 93.3937 3.71636L93.3327 3.61738L93.2229 3.44641C93.1436 3.32943 93.0703 3.21245 92.991 3.10447C92.692 2.65455 92.4297 2.24962 92.1978 1.90767C91.9598 1.52074 91.7585 1.1878 91.5937 0.926841C91.2703 0.395932 91.0995 0.11698 91.0995 0.11698C91.0995 0.11698 91.0995 0.107982 91.0446 0.0269954C91.0385 0.0269954 91.0323 0 91.0201 0L90.9957 0.0359938C90.9957 0.0359938 90.953 0.0989831 90.9225 0.143975C90.8676 0.224962 90.7944 0.332943 90.7029 0.46792C90.5137 0.746872 90.2391 1.1518 89.8364 1.7547C89.635 2.04265 89.4032 2.38459 89.1286 2.78052C88.9944 2.97849 88.8479 3.18546 88.6954 3.41042C88.616 3.5364 88.5306 3.66237 88.4391 3.79735C88.2743 4.05831 87.1577 5.80401 85.437 8.49455C83.7224 11.1941 81.4221 14.8835 78.8715 18.9958C76.3149 23.108 73.5325 27.6253 70.7562 31.9265C67.9799 36.2368 65.234 40.3131 62.9032 43.6965C59.9133 48.0338 57.979 50.5893 56.9722 51.9301C54.9343 54.6387 53.3112 56.7263 51.859 58.8319C50.4128 60.9466 49.1071 63.0342 47.8257 65.9317C49.821 64.105 51.2732 62.2424 52.7376 60.1547C54.202 58.0671 55.6543 55.7275 57.5397 52.785C58.4733 51.3362 60.255 48.5467 63.2693 44.2364C65.6185 40.88 68.4497 36.9297 71.4396 32.9434C74.4172 28.9571 77.5657 24.9167 80.4092 21.2724C83.2587 17.619 85.8092 14.3166 87.6825 11.86C89.5496 9.3854 90.7578 7.78367 90.9347 7.54971C91.014 7.44173 91.13 7.28875 91.1544 7.24376L91.13 7.22576C91.13 7.22576 91.0995 7.20777 91.0873 7.18977C91.0873 7.16278 91.0751 7.14478 91.0751 7.13578C91.069 7.11778 91.0751 7.10878 91.0751 7.10878C91.0751 7.10878 91.0751 7.09079 91.0873 7.06379C91.0873 7.05479 91.0934 7.0368 91.0995 7.0098C91.0995 7.0098 91.0995 7.0278 91.1056 7.04579C91.7158 7.79267 92.6005 8.88148 93.6866 10.2133C96.0053 13.0748 99.166 17.0701 102.583 21.5063C109.435 30.3698 117.288 41.069 121.907 47.4939C124.195 50.6703 125.288 52.2091 125.947 53.1809C127.893 56.0244 129.364 58.355 130.816 60.4517C132.274 62.5483 133.69 64.474 135.697 66.2647L135.691 66.2917Z" fill="currentColor"/>
<path d="M122.029 41.7079C123.903 40.0971 125.08 38.1265 126.38 36.1198C127.655 34.0772 129.01 31.9355 130.883 29.425C131.512 28.5701 132.531 27.1574 134.703 24.3318C136.222 22.3612 138.358 19.6706 140.402 17.286C141.421 16.0892 142.415 14.9554 143.294 14.0106C143.514 13.7766 143.721 13.5517 143.923 13.3357L144.075 13.1827C144.112 13.1468 144.099 13.1827 144.118 13.1827L144.173 13.2187C144.173 13.2187 144.203 13.3357 144.203 13.3447C145.521 14.8835 146.656 16.2152 147.62 17.34C148.688 18.5818 149.567 19.6076 150.262 20.4085C151.653 22.0192 152.312 22.7841 152.312 22.7841C152.312 22.7841 155.131 26.0775 158.811 30.1538C160.654 32.1875 162.692 34.4371 164.669 36.6237C166.646 38.8194 168.531 40.988 170.087 42.8327C173.101 46.4141 174.913 48.7177 175.853 49.9415C177.757 52.398 179.215 54.3957 180.661 56.1504C182.12 57.8961 183.535 59.4708 185.494 60.8656C184.182 58.31 182.852 56.5733 181.4 54.8186C179.941 53.0729 178.33 51.3632 176.317 49.1046C175.322 47.9888 173.425 45.8202 170.447 42.1848C168.915 40.3041 167.091 38.0095 165.242 35.5889C163.393 33.1593 161.49 30.6668 159.775 28.4081C156.34 23.8999 153.588 20.4805 153.588 20.4805C153.588 20.4805 152.947 19.6796 151.605 17.9879C150.927 17.1421 150.079 16.0803 149.036 14.7845C147.889 13.3717 146.54 11.716 144.978 9.78133C144.74 9.50237 144.478 9.19643 144.185 8.86348C144.148 8.82749 144.112 8.7645 144.075 8.7465L143.971 8.90848C143.904 9.01646 143.831 9.12444 143.764 9.23242C143.624 9.45738 143.477 9.68234 143.325 9.9253C143.184 10.1593 143.032 10.3932 142.879 10.6362C142.806 10.7532 142.733 10.8701 142.659 10.9871L142.544 11.2031C142.385 11.482 142.22 11.779 142.049 12.0939C141.354 13.3267 140.53 14.7215 139.657 16.1522C137.918 19.0227 135.972 22.0012 134.544 24.1249C132.5 27.1574 131.481 28.5701 130.865 29.443C129.052 32.0525 127.521 33.9152 126.063 35.6699C124.623 37.4606 123.219 39.0803 122.017 41.7349L122.029 41.7079Z" fill="currentColor"/>
<path d="M63.4706 41.7079C62.2625 39.0533 60.8652 37.4246 59.4252 35.6429C57.9668 33.8882 56.4353 32.0255 54.6231 29.416C54.0068 28.5431 52.9878 27.1304 50.9437 24.1069C49.5159 21.9922 47.5633 19.0227 45.8121 16.1612C44.9335 14.7395 44.1036 13.3447 43.408 12.1299C43.2311 11.824 43.0663 11.527 42.9077 11.2481L42.7917 11.0411L42.7307 10.9331L42.6148 10.7532C42.4622 10.5102 42.3158 10.2762 42.1694 10.0423C42.0168 9.80832 41.8704 9.58336 41.73 9.3584C41.6568 9.25042 41.5897 9.14244 41.5226 9.03446L41.4188 8.88148C41.3822 8.89948 41.3456 8.96247 41.309 8.99846C41.0222 9.3404 40.7537 9.64635 40.528 9.9343C34.6764 17.367 32.0465 20.7145 32.0465 20.7145C32.0465 20.7145 31.3631 21.5783 30.2404 22.9821C29.1238 24.3948 27.5678 26.3655 25.8227 28.5701C24.0898 30.7927 22.1616 33.2583 20.2945 35.6429C18.4213 38.0275 16.5846 40.2951 15.0409 42.1488C12.0388 45.7482 10.135 47.8898 9.13435 49.0056C7.11467 51.2552 5.5099 52.9739 4.06378 54.7466C2.62376 56.5283 1.31798 58.301 0 60.8566C1.95867 59.4708 3.39869 57.9321 4.86921 56.2044C6.33364 54.4677 7.79807 52.488 9.69572 50.0224C10.6354 48.7987 12.4415 46.4771 15.4253 42.8507C16.969 40.988 18.8423 38.7834 20.7948 36.5518C22.7535 34.3291 24.7732 32.0435 26.5976 29.9739C28.4099 27.8952 30.0268 26.0325 31.1923 24.7008C32.3516 23.36 33.0594 22.5411 33.0594 22.5411C33.0594 22.5411 33.7184 21.7763 35.1157 20.1746C35.8174 19.3737 36.6961 18.3659 37.7761 17.1331C38.313 16.5212 38.9049 15.8553 39.5395 15.1264C39.8568 14.7665 40.1924 14.3885 40.5341 14.0016C40.7049 13.8036 40.8819 13.6057 41.0588 13.4077L41.1931 13.2547C41.2358 13.2097 41.3029 13.1288 41.2846 13.1558L41.2968 13.1737C41.2968 13.1737 41.2968 13.1917 41.3029 13.2007C41.309 13.2007 41.3151 13.1198 41.3334 13.0928L41.3883 13.0568H41.4005C41.4005 13.0568 41.4432 13.0928 41.4676 13.1198L41.6141 13.2817C41.8154 13.4977 42.0229 13.7317 42.2426 13.9656C43.109 14.9194 44.1036 16.0623 45.1165 17.268C47.1545 19.6706 49.284 22.3612 50.8034 24.3408C52.9756 27.1754 53.9885 28.5881 54.6231 29.443C56.4963 31.9535 57.8509 34.0952 59.1262 36.1378C60.4198 38.1445 61.6035 40.1151 63.4767 41.7259L63.4706 41.7079Z" fill="currentColor"/>
</svg>
