<svg width="20" height="20" viewBox="0 0 20 20" fill="none" xmlns="http://www.w3.org/2000/svg">
<path fill-rule="evenodd" clip-rule="evenodd" d="M13.3908 4.46747C13.0359 3.72217 11.9824 3.7021 11.5994 4.43335L9.68607 8.08598C9.6032 8.24419 9.37599 8.24205 9.29612 8.0823L8.02551 5.54108C7.66639 4.82285 6.65044 4.79808 6.25676 5.49796L1.88204 13.2752C1.50649 13.9429 1.98895 14.7678 2.75497 14.7678H6.00779C6.13974 14.7678 6.23987 14.885 6.25654 15.0159C6.31681 15.4894 6.71612 15.8938 7.25155 15.8938H17.2457C17.9818 15.8938 18.4664 15.1262 18.1499 14.4616L13.3908 4.46747ZM7.94152 14.6938C7.77688 14.6938 7.67109 14.5189 7.74749 14.3731L12.2747 5.73014C12.3585 5.57021 12.5889 5.5746 12.6665 5.7376L16.7822 14.3805C16.8515 14.5259 16.7455 14.6938 16.5845 14.6938H7.94152ZM3.46881 13.5678C3.30128 13.5678 3.19576 13.3874 3.27789 13.2414L6.91708 6.77173C7.00318 6.61867 7.22537 6.62408 7.30391 6.78116L8.68951 9.55236C8.72034 9.61403 8.72034 9.68661 8.68951 9.74828L6.84028 13.4467C6.80318 13.5209 6.72733 13.5678 6.64436 13.5678H3.46881Z" fill="currentColor"/>
</svg>
