<svg width="16" height="16" viewBox="0 0 16 16" fill="none" xmlns="http://www.w3.org/2000/svg">
<path fill-rule="evenodd" clip-rule="evenodd" d="M2.60039 3.99941C2.60039 3.7785 2.77948 3.59941 3.00039 3.59941H9.5C9.72091 3.59941 9.9 3.7785 9.9 3.99941L9.9 11.9994C9.9 12.2203 9.72091 12.3994 9.5 12.3994H3.00039C2.77948 12.3994 2.60039 12.2203 2.60039 11.9994V3.99941ZM11.1 11.9994C11.1 12.2203 11.2791 12.3994 11.5 12.3994H13.0004C13.2213 12.3994 13.4004 12.2203 13.4004 11.9994V3.99941C13.4004 3.7785 13.2213 3.59941 13.0004 3.59941H11.5C11.2791 3.59941 11.1 3.7785 11.1 3.99941V11.9994ZM3.00039 2.39941C2.11673 2.39941 1.40039 3.11576 1.40039 3.99941V11.9994C1.40039 12.8831 2.11673 13.5994 3.00039 13.5994H13.0004C13.884 13.5994 14.6004 12.8831 14.6004 11.9994V3.99941C14.6004 3.11576 13.884 2.39941 13.0004 2.39941H3.00039Z" fill="currentColor"/>
</svg>
