<svg width="16" height="16" viewBox="0 0 16 16" fill="none" xmlns="http://www.w3.org/2000/svg">
<path d="M5.15016 6.88549C5.15016 7.22409 5.09119 7.51081 4.97324 7.74565C4.8553 7.97503 4.69633 8.16072 4.49634 8.30272C4.29634 8.44471 4.06558 8.54848 3.80405 8.61402C3.54252 8.67955 3.27074 8.71232 2.98869 8.71232H2.43487C2.37964 8.71232 2.33487 8.75709 2.33487 8.81232V10.7996C2.33487 10.8548 2.2901 10.8996 2.23487 10.8996H1.11953C1.0643 10.8996 1.01953 10.8548 1.01953 10.7996V5.19961C1.01953 5.14438 1.0643 5.09961 1.11953 5.09961H3.01946C3.31689 5.09961 3.5938 5.13238 3.8502 5.19791C4.11173 5.25799 4.33737 5.35903 4.5271 5.50102C4.72197 5.63756 4.87325 5.82051 4.98093 6.04989C5.09375 6.27381 5.15016 6.55234 5.15016 6.88549ZM3.83482 6.89368C3.83482 6.75714 3.80918 6.64518 3.7579 6.5578C3.70662 6.47042 3.63739 6.40215 3.55021 6.353C3.46304 6.30385 3.36304 6.27108 3.25022 6.25469C3.14254 6.23831 3.02972 6.23012 2.91177 6.23012H2.43487C2.37964 6.23012 2.33487 6.27489 2.33487 6.33012V7.4982C2.33487 7.55343 2.37964 7.5982 2.43487 7.5982H2.8887C3.01177 7.5982 3.12972 7.58727 3.24253 7.56543C3.35535 7.54358 3.45534 7.50535 3.54252 7.45074C3.63483 7.39613 3.70662 7.32513 3.7579 7.23775C3.80918 7.1449 3.83482 7.03021 3.83482 6.89368Z" fill="currentColor"/>
<path d="M10.7934 7.98323C10.7934 8.49113 10.7037 8.93078 10.5242 9.30215C10.3498 9.66807 10.1165 9.97117 9.82422 10.2115C9.53705 10.4463 9.21142 10.6211 8.84733 10.7358C8.48324 10.845 8.11402 10.8996 7.73967 10.8996H5.80897C5.75375 10.8996 5.70897 10.8548 5.70897 10.7996V5.19961C5.70897 5.14438 5.75375 5.09961 5.80897 5.09961H7.67814C8.06274 5.09961 8.44221 5.14876 8.81656 5.24707C9.19091 5.33991 9.52423 5.49829 9.81652 5.72221C10.1088 5.94066 10.3447 6.23558 10.5242 6.60695C10.7037 6.97833 10.7934 7.43709 10.7934 7.98323ZM9.42423 7.98323C9.42423 7.65554 9.37295 7.3852 9.27039 7.17221C9.17296 6.95375 9.03963 6.78172 8.8704 6.65611C8.70631 6.52503 8.51657 6.43219 8.30119 6.37758C8.09094 6.32296 7.873 6.29565 7.64737 6.29565H7.09354C7.03832 6.29565 6.99355 6.34043 6.99355 6.39565V9.58718C6.99355 9.64241 7.03832 9.68718 7.09354 9.68718H7.6166C7.85249 9.68718 8.07812 9.65987 8.2935 9.60526C8.51401 9.54518 8.70631 9.44961 8.8704 9.31854C9.03963 9.18746 9.17296 9.0127 9.27039 8.79424C9.37295 8.57579 9.42423 8.30545 9.42423 7.98323Z" fill="currentColor"/>
<path d="M12.835 6.29565C12.7798 6.29565 12.735 6.34043 12.735 6.39565V7.3917C12.735 7.44693 12.7798 7.4917 12.835 7.4917H14.7426C14.7978 7.4917 14.8426 7.53647 14.8426 7.5917V8.54678C14.8426 8.60201 14.7978 8.64678 14.7426 8.64678H12.835C12.7798 8.64678 12.735 8.69156 12.735 8.74678V10.7996C12.735 10.8548 12.6902 10.8996 12.635 10.8996H11.535C11.4798 10.8996 11.435 10.8548 11.435 10.7996V5.19961C11.435 5.14438 11.4798 5.09961 11.535 5.09961H14.9195C14.9748 5.09961 15.0195 5.14438 15.0195 5.19961V6.19565C15.0195 6.25088 14.9748 6.29565 14.9195 6.29565H12.835Z" fill="currentColor"/>
</svg>
