<svg viewBox="0 0 24 24" fill="none" xmlns="http://www.w3.org/2000/svg">
<path d="M6.04642 3.00038L5.68449 3.01624C5.45159 3.03395 5.22324 3.09552 5.01535 3.21065C4.85938 3.29703 4.71458 3.42186 4.48708 3.65441C4.27225 3.87398 4.14775 4.06574 4.01657 4.25063C3.35111 5.18848 2.99345 6.3397 3.00009 7.52226C3.00371 8.4782 3.2331 9.4072 3.59537 10.2746C4.33 12.0337 5.5415 13.8933 7.1418 15.6178C7.52621 16.032 7.90282 16.4507 8.30892 16.8377C10.2951 18.7308 12.6621 20.0959 15.2215 20.8246C15.2215 20.8246 16.2295 20.9921 16.2443 20.9931C16.5782 21.0126 16.9116 20.9865 17.2458 20.968C17.7702 20.9387 18.2821 20.7852 18.7454 20.5181C19.0433 20.3464 19.1842 20.2611 19.4342 20.0904C19.4342 20.0904 19.5109 20.0343 19.6589 19.915C19.9019 19.719 20.052 19.5811 20.2541 19.3539C20.4032 19.1863 20.5313 18.9884 20.6303 18.7653C20.7711 18.4473 20.9128 17.8404 20.9691 17.3363C21.0121 16.9513 20.9992 16.7409 20.9945 16.6105C20.9867 16.4009 20.8267 16.1852 20.6514 16.0936L19.6047 15.5843C19.6047 15.5843 18.0396 14.847 17.0824 14.3743C16.9827 14.325 16.8736 14.3022 16.764 14.295C16.5238 14.279 16.2547 14.3468 16.0836 14.5421C16.0746 14.5382 15.9554 14.6496 14.6531 16.3574C14.5813 16.4504 14.413 16.6524 14.1219 16.6335C14.078 16.6302 14.0343 16.6234 13.9916 16.6113C13.8737 16.5776 13.7589 16.5332 13.6465 16.4817C13.4239 16.3794 13.3458 16.3407 13.1937 16.2697C12.1545 15.7783 11.2009 15.121 10.358 14.3164C10.1319 14.101 9.92164 13.8689 9.70492 13.6415C8.94856 12.8479 8.32935 12.0039 7.86869 11.1713C7.84355 11.1259 7.80479 11.0602 7.76305 10.9868C7.68769 10.8541 7.60456 10.6963 7.5785 10.5879C7.51159 10.3013 7.68909 10.071 7.68909 10.071C7.68909 10.071 8.12721 9.55255 8.33077 9.27062C8.52661 8.9992 8.69567 8.73383 8.80331 8.54464C9.01534 8.17566 9.08248 7.79434 8.97107 7.50014C8.46606 6.16746 7.94503 4.84197 7.40806 3.52402C7.30208 3.26392 6.98684 3.07495 6.70017 3.03912L6.6965 3.03866C6.60063 3.02667 6.50483 3.01469 6.40858 3.00784C6.28784 3.00147 6.16723 2.99897 6.04642 3.00038Z" fill="currentColor"/>
</svg>
