<svg viewBox="0 0 16 16" fill="none" xmlns="http://www.w3.org/2000/svg">
<path fill-rule="evenodd" clip-rule="evenodd" d="M9.0665 8.66619C8.84559 8.66619 8.6665 8.84528 8.6665 9.06619V13.2998C8.6665 13.4103 8.57696 13.4998 8.4665 13.4998H7.53317C7.42271 13.4998 7.33317 13.4103 7.33317 13.2998L7.33317 9.06619C7.33317 8.84527 7.15408 8.66619 6.93317 8.66619H2.7C2.58954 8.66619 2.5 8.57665 2.5 8.46619V7.53286C2.5 7.4224 2.58954 7.33286 2.7 7.33286H6.93317C7.15408 7.33286 7.33317 7.15377 7.33317 6.93286V2.69985C7.33317 2.58939 7.42271 2.49985 7.53317 2.49985H8.4665C8.57696 2.49985 8.6665 2.58939 8.6665 2.69985V6.93286C8.6665 7.15377 8.84559 7.33286 9.0665 7.33286L13.3 7.33286C13.4105 7.33286 13.5 7.4224 13.5 7.53286V8.46619C13.5 8.57665 13.4105 8.66619 13.3 8.66619H9.0665Z" fill="currentColor"/>
</svg>
