<svg width="20" height="20" viewBox="0 0 20 20" fill="none" xmlns="http://www.w3.org/2000/svg">
<path fill-rule="evenodd" clip-rule="evenodd" d="M1.25 7.27499C1.25 7.38545 1.33971 7.47554 1.45001 7.46969C2.29857 7.42468 2.98855 7.10158 3.58064 6.82431L3.64639 6.79354C4.31814 6.47954 4.89212 6.22499 5.625 6.22499C6.35414 6.22499 6.89535 6.47647 7.55365 6.79128L7.58173 6.80472C8.22439 7.11215 8.98287 7.47499 10 7.47499C11.0171 7.47499 11.7756 7.11215 12.4183 6.80472L12.4464 6.79128C13.1047 6.47647 13.6459 6.22499 14.375 6.22499C15.1079 6.22499 15.6819 6.47954 16.3536 6.79354L16.4194 6.82431C17.0114 7.10158 17.7014 7.42468 18.55 7.46969C18.6603 7.47554 18.75 7.38545 18.75 7.27499V6.47499C18.75 6.36454 18.6603 6.27581 18.5501 6.26746C17.9724 6.22371 17.4771 5.9941 16.8618 5.70645C16.1965 5.39545 15.4032 5.02499 14.375 5.02499C13.3579 5.02499 12.5994 5.38784 11.9567 5.69527L11.9286 5.7087C11.2703 6.02351 10.7291 6.27499 10 6.27499C9.27086 6.27499 8.72965 6.02351 8.07135 5.7087L8.04327 5.69527C7.40062 5.38784 6.64213 5.02499 5.625 5.02499C4.59675 5.02499 3.80355 5.39545 3.13823 5.70645C2.52285 5.9941 2.02764 6.22371 1.44986 6.26746C1.33972 6.27581 1.25 6.36454 1.25 6.47499V7.27499ZM3.58064 10.5743C2.98855 10.8516 2.29857 11.1747 1.45001 11.2197C1.33971 11.2255 1.25 11.1355 1.25 11.025V10.225C1.25 10.1145 1.33972 10.0258 1.44986 10.0175C2.02764 9.97371 2.52285 9.7441 3.13823 9.45645C3.80355 9.14545 4.59675 8.77499 5.625 8.77499C6.64213 8.77499 7.40062 9.13784 8.04327 9.44527L8.07135 9.4587C8.72965 9.77351 9.27086 10.025 10 10.025C10.7291 10.025 11.2703 9.77351 11.9286 9.4587L11.9567 9.44527C12.5994 9.13784 13.3579 8.77499 14.375 8.77499C15.4032 8.77499 16.1965 9.14545 16.8618 9.45645C17.4771 9.7441 17.9724 9.97371 18.5501 10.0175C18.6603 10.0258 18.75 10.1145 18.75 10.225V11.025C18.75 11.1355 18.6603 11.2255 18.55 11.2197C17.7014 11.1747 17.0114 10.8516 16.4194 10.5743L16.3536 10.5435C15.6819 10.2295 15.1079 9.97499 14.375 9.97499C13.6459 9.97499 13.1047 10.2265 12.4464 10.5413L12.4183 10.5547C11.7756 10.8621 11.0171 11.225 10 11.225C8.98287 11.225 8.22439 10.8622 7.58173 10.5547L7.55365 10.5413C6.89535 10.2265 6.35414 9.97499 5.625 9.97499C4.89212 9.97499 4.31814 10.2295 3.64639 10.5435L3.58064 10.5743ZM3.58064 14.3243C2.98855 14.6016 2.29857 14.9247 1.45001 14.9697C1.33971 14.9755 1.25 14.8855 1.25 14.775V13.975C1.25 13.8645 1.33972 13.7758 1.44986 13.7675C2.02764 13.7237 2.52285 13.4941 3.13823 13.2064C3.80355 12.8954 4.59675 12.525 5.625 12.525C6.64213 12.525 7.40062 12.8878 8.04327 13.1953L8.07135 13.2087C8.72965 13.5235 9.27086 13.775 10 13.775C10.7291 13.775 11.2703 13.5235 11.9286 13.2087L11.9567 13.1953C12.5994 12.8878 13.3579 12.525 14.375 12.525C15.4032 12.525 16.1965 12.8954 16.8618 13.2064C17.4771 13.4941 17.9724 13.7237 18.5501 13.7675C18.6603 13.7758 18.75 13.8645 18.75 13.975V14.775C18.75 14.8855 18.6603 14.9755 18.55 14.9697C17.7014 14.9247 17.0114 14.6016 16.4194 14.3243L16.3536 14.2935C15.6819 13.9795 15.1079 13.725 14.375 13.725C13.6459 13.725 13.1047 13.9765 12.4464 14.2913L12.4183 14.3047C11.7756 14.6121 11.0171 14.975 10 14.975C8.98287 14.975 8.22439 14.6122 7.58174 14.3047L7.58173 14.3047L7.55365 14.2913C6.89535 13.9765 6.35414 13.725 5.625 13.725C4.89212 13.725 4.31814 13.9795 3.64639 14.2935L3.58064 14.3243Z" fill="currentColor"/>
</svg>
