<svg viewBox="0 0 16 16" fill="none" xmlns="http://www.w3.org/2000/svg">
<path fill-rule="evenodd" clip-rule="evenodd" d="M1 5.90039C1 6.01085 1.08971 6.10105 1.19994 6.094C1.88754 6.05007 2.44702 5.78796 2.91085 5.57066L2.96793 5.54394C3.50597 5.29243 3.94323 5.10039 4.5 5.10039C5.05303 5.10039 5.46354 5.28937 5.99115 5.54168L6.01803 5.55454C6.53104 5.8 7.15887 6.10039 8 6.10039C8.84113 6.10039 9.46896 5.8 9.98197 5.55454L10.0089 5.54168C10.5365 5.28937 10.947 5.10039 11.5 5.10039C12.0568 5.10039 12.494 5.29243 13.0321 5.54394L13.0892 5.57066C13.553 5.78796 14.1125 6.05007 14.8001 6.094C14.9103 6.10105 15 6.01085 15 5.90039V5.10039C15 4.98993 14.9102 4.90147 14.8003 4.89044C14.3845 4.84871 14.0169 4.67966 13.5402 4.45684L13.5359 4.45482C13.0051 4.20668 12.3498 3.90039 11.5 3.90039C10.6589 3.90039 10.031 4.20078 9.51803 4.44624L9.49115 4.4591C8.96354 4.71141 8.55303 4.90039 8 4.90039C7.44697 4.90039 7.03646 4.71141 6.50885 4.4591L6.48197 4.44624C5.96896 4.20078 5.34113 3.90039 4.5 3.90039C3.65017 3.90039 2.99494 4.20668 2.4641 4.45482L2.45977 4.45684C1.9831 4.67966 1.61549 4.84871 1.1997 4.89044C1.0898 4.90147 1 4.98993 1 5.10039V5.90039ZM2.91085 8.57066C2.44702 8.78796 1.88754 9.05007 1.19994 9.094C1.08971 9.10105 1 9.01085 1 8.90039V8.10039C1 7.98993 1.0898 7.90147 1.1997 7.89044C1.61549 7.84871 1.9831 7.67966 2.45977 7.45684L2.4641 7.45482C2.99494 7.20668 3.65017 6.90039 4.5 6.90039C5.34113 6.90039 5.96896 7.20078 6.48197 7.44624L6.50885 7.4591C7.03646 7.71141 7.44697 7.90039 8 7.90039C8.55303 7.90039 8.96354 7.71141 9.49115 7.4591L9.51803 7.44624C10.031 7.20078 10.6589 6.90039 11.5 6.90039C12.3498 6.90039 13.0051 7.20668 13.5359 7.45482L13.5402 7.45684C14.0169 7.67966 14.3845 7.84871 14.8003 7.89044C14.9102 7.90147 15 7.98993 15 8.10039V8.90039C15 9.01085 14.9103 9.10105 14.8001 9.094C14.1125 9.05007 13.553 8.78796 13.0892 8.57066L13.0321 8.54394C12.494 8.29243 12.0568 8.10039 11.5 8.10039C10.947 8.10039 10.5365 8.28937 10.0089 8.54168L9.98197 8.55454C9.46896 8.8 8.84113 9.10039 8 9.10039C7.15887 9.10039 6.53104 8.8 6.01803 8.55454L5.99115 8.54168C5.46354 8.28937 5.05303 8.10039 4.5 8.10039C3.94323 8.10039 3.50597 8.29243 2.96793 8.54394L2.91085 8.57066ZM2.91085 11.5707C2.44702 11.788 1.88754 12.0501 1.19994 12.094C1.08971 12.101 1 12.0108 1 11.9004V11.1004C1 10.9899 1.0898 10.9015 1.1997 10.8904C1.61549 10.8487 1.9831 10.6797 2.45977 10.4568L2.4641 10.4548C2.99494 10.2067 3.65017 9.90039 4.5 9.90039C5.34113 9.90039 5.96896 10.2008 6.48197 10.4462L6.50885 10.4591C7.03646 10.7114 7.44697 10.9004 8 10.9004C8.55303 10.9004 8.96354 10.7114 9.49115 10.4591L9.51803 10.4462C10.031 10.2008 10.6589 9.90039 11.5 9.90039C12.3498 9.90039 13.0051 10.2067 13.5359 10.4548L13.5402 10.4568C14.0169 10.6797 14.3845 10.8487 14.8003 10.8904C14.9102 10.9015 15 10.9899 15 11.1004V11.9004C15 12.0108 14.9103 12.101 14.8001 12.094C14.1125 12.0501 13.553 11.788 13.0892 11.5707L13.0321 11.5439C12.494 11.2924 12.0568 11.1004 11.5 11.1004C10.947 11.1004 10.5365 11.2894 10.0089 11.5417L9.98197 11.5545C9.46896 11.8 8.84113 12.1004 8 12.1004C7.15887 12.1004 6.53104 11.8 6.01803 11.5545L5.99115 11.5417C5.46354 11.2894 5.05303 11.1004 4.5 11.1004C3.94323 11.1004 3.50597 11.2924 2.96793 11.5439L2.91085 11.5707Z" fill="currentColor"/>
</svg>
