<svg width="16" height="16" viewBox="0 0 16 16" fill="none" xmlns="http://www.w3.org/2000/svg">
<path d="M3.35 10.75H2.65C2.42909 10.75 2.25 10.5709 2.25 10.35V5.65C2.25 5.42909 2.42909 5.25 2.65 5.25H3.35C3.57091 5.25 3.75 5.42909 3.75 5.65V10.35C3.75 10.5709 3.57091 10.75 3.35 10.75Z" fill="currentColor"/>
<path d="M5.85 14.75H5.15C4.92909 14.75 4.75 14.5709 4.75 14.35V1.65C4.75 1.42909 4.92909 1.25 5.15 1.25H5.85C6.07091 1.25 6.25 1.42909 6.25 1.65V14.35C6.25 14.5709 6.07091 14.75 5.85 14.75Z" fill="currentColor"/>
<path d="M8.35 12.75H7.65C7.42909 12.75 7.25 12.5709 7.25 12.35V3.65C7.25 3.42909 7.42909 3.25 7.65 3.25H8.35C8.57091 3.25 8.75 3.42909 8.75 3.65V12.35C8.75 12.5709 8.57091 12.75 8.35 12.75Z" fill="currentColor"/>
<path d="M10.85 10.75H10.15C9.92909 10.75 9.75 10.5709 9.75 10.35V5.65C9.75 5.42909 9.92909 5.25 10.15 5.25H10.85C11.0709 5.25 11.25 5.42909 11.25 5.65V10.35C11.25 10.5709 11.0709 10.75 10.85 10.75Z" fill="currentColor"/>
<path fill-rule="evenodd" clip-rule="evenodd" d="M13.35 4.25C13.5709 4.25 13.75 4.42909 13.75 4.65V11.35C13.75 11.5709 13.5709 11.75 13.35 11.75H12.65C12.4291 11.75 12.25 11.5709 12.25 11.35V4.65C12.25 4.42909 12.4291 4.25 12.65 4.25H13.35Z" fill="currentColor"/>
</svg>
