<svg fill="none" xmlns="http://www.w3.org/2000/svg">
<path d="M0.018533 6.60573C0.82712 6.24334 1.47522 5.78147 2.1295 5.39066C2.79612 5.01405 3.3825 4.54508 4.04295 4.16848C4.37009 3.96241 4.69723 3.75635 5.03054 3.54318C5.37002 3.33001 5.73419 3.15947 6.10454 2.9463C6.84523 2.51285 7.68468 2.17178 8.62906 1.78097C8.95002 1.65306 9.38209 1.52516 10.0055 1.3262C10.3203 1.22672 10.6783 1.11303 11.1104 1.02776C11.5424 0.935389 12.0301 0.828803 12.5979 0.708007C15.1163 0.246137 18.5605 0.104023 22.2207 0.58721C25.8871 1.0704 29.7202 2.18599 33.1706 3.47922C36.6272 4.74404 39.7442 6.05148 42.028 6.96101C44.3242 7.85633 45.75 8.41768 45.75 8.41768C45.75 8.41768 46.9474 8.88665 48.935 9.59012C50.9287 10.2794 53.7309 11.1747 56.9468 11.8497C60.1626 12.5177 63.792 12.9653 67.2856 12.9937C70.7792 13.0364 74.1431 12.7877 76.9146 12.2974C77.6676 12.1482 78.3527 12.0061 78.97 11.8853C79.581 11.736 80.1242 11.601 80.6056 11.4802C81.0871 11.3452 81.4945 11.2102 81.8525 11.1036C82.2043 10.9899 82.5067 10.9189 82.7475 10.8265C83.7042 10.457 84.5745 10.1728 85.3461 9.77486C85.7349 9.58301 86.1176 9.42668 86.4694 9.22062C86.8151 9.00745 87.1546 8.80138 87.4879 8.59532C88.8088 7.74974 89.9507 6.6981 91 5.14196C90.2099 5.5683 89.5865 6.06569 88.9384 6.47782C88.2841 6.88285 87.7163 7.37314 87.0682 7.77106C86.7534 7.99134 86.4324 8.21161 86.1114 8.439C85.7843 8.66638 85.4263 8.86534 85.0683 9.09272C84.3585 9.5688 83.5437 9.96672 82.6302 10.4428C82.4018 10.5565 82.1179 10.6702 81.7784 10.8123C81.4328 10.9544 81.0377 11.132 80.5686 11.2955C80.0933 11.4447 79.5625 11.6152 78.9576 11.8071C78.3527 11.9705 77.6676 12.1126 76.9146 12.2832C74.1493 12.8161 70.7545 12.8943 67.3226 12.3898C63.8846 11.9066 60.4589 10.7697 57.4159 9.66828C54.3667 8.54558 51.6755 7.47262 49.7127 6.74074C47.7499 6.00885 46.5524 5.56119 46.5524 5.56119C46.5524 5.56119 45.1204 5.02116 42.7934 4.21111C40.4664 3.40817 37.2321 2.34231 33.6027 1.51095C29.998 0.665373 25.9797 0.118235 22.2639 0.0187551C18.542 -0.0807245 15.1163 0.22482 12.6041 0.715113C12.0424 0.843015 11.5486 0.9496 11.1165 1.04197C10.6845 1.12724 10.3203 1.23383 10.0055 1.3191C9.37592 1.49674 8.93768 1.58911 8.60437 1.6957C7.64147 2.01545 6.75882 2.24994 5.97492 2.58391C5.57988 2.74023 5.19102 2.86814 4.82685 3.03867C4.46885 3.21631 4.11702 3.38685 3.77136 3.55739C2.40109 4.26085 1.16043 5.15617 0.0123606 6.61283L0.018533 6.60573Z" fill="currentColor"/>
<path d="M0.0185173 19.3959C0.827104 19.0335 1.47521 18.5717 2.12948 18.1808C2.79611 17.8042 3.38249 17.3353 4.04293 16.9587C4.37007 16.7526 4.69721 16.5465 5.03052 16.3334C5.37001 16.1202 5.73418 15.9497 6.10452 15.7365C6.84521 15.303 7.68466 14.962 8.62904 14.5711C8.95001 14.4432 9.38208 14.3153 10.0055 14.1164C10.3203 14.0169 10.6783 13.9032 11.1104 13.8179C11.5424 13.7256 12.03 13.619 12.5979 13.4982C15.1163 13.0363 18.5605 12.8942 22.2207 13.3774C25.8871 13.8606 29.7202 14.9762 33.1706 16.2694C36.6271 17.5342 39.7442 18.8417 42.028 19.7512C44.3241 20.6465 45.75 21.2079 45.75 21.2079C45.75 21.2079 46.9474 21.6768 48.9349 22.3803C50.9286 23.0696 53.7309 23.9649 56.9467 24.6399C60.1626 25.3078 63.792 25.7555 67.2856 25.7839C70.7791 25.8266 74.1431 25.5779 76.9145 25.0876C77.6676 24.9383 78.3527 24.7962 78.9699 24.6754C79.581 24.5262 80.1242 24.3912 80.6056 24.2704C81.0871 24.1354 81.4945 24.0004 81.8525 23.8938C82.2043 23.7801 82.5067 23.7091 82.7475 23.6167C83.7042 23.2472 84.5745 22.963 85.3461 22.5651C85.7349 22.3732 86.1176 22.2169 86.4694 22.0108C86.8151 21.7976 87.1546 21.5916 87.4879 21.3855C88.8088 20.5399 89.9507 19.4883 91 17.9321C90.2099 18.3585 89.5865 18.8559 88.9384 19.268C88.2841 19.673 87.7163 20.1633 87.0682 20.5612C86.7534 20.7815 86.4324 21.0018 86.1114 21.2292C85.7843 21.4566 85.4263 21.6555 85.0683 21.8829C84.3585 22.359 83.5437 22.7569 82.6302 23.233C82.4018 23.3467 82.1179 23.4604 81.7784 23.6025C81.4327 23.7446 81.0377 23.9222 80.5686 24.0857C80.0933 24.2349 79.5625 24.4054 78.9576 24.5973C78.3527 24.7607 77.6676 24.9028 76.9145 25.0734C74.1493 25.6063 70.7544 25.6844 67.3226 25.1799C63.8845 24.6968 60.4589 23.5598 57.4159 22.4585C54.3667 21.3358 51.6755 20.2628 49.7127 19.5309C47.7498 18.799 46.5524 18.3514 46.5524 18.3514C46.5524 18.3514 45.1204 17.8113 42.7934 17.0013C40.4664 16.1984 37.232 15.1325 33.6027 14.3011C29.9856 13.4342 25.9674 12.8871 22.2516 12.7805C18.5296 12.681 15.1039 12.9866 12.5917 13.4769C12.03 13.6048 11.5363 13.7114 11.1042 13.8037C10.6721 13.889 10.3079 13.9956 9.99315 14.0809C9.36356 14.2585 8.92532 14.3509 8.59201 14.4575C7.62911 14.7772 6.74646 15.0117 5.96256 15.3457C5.56752 15.502 5.17866 15.6299 4.81449 15.8004C4.45649 15.9781 4.10466 16.1486 3.759 16.3191C2.38873 17.0226 1.14807 17.9179 0 19.3746L0.0185173 19.3959Z" fill="currentColor"/>
<path d="M0.0185173 33.6073C0.827104 33.2449 1.47521 32.783 2.12948 32.3922C2.79611 32.0156 3.38249 31.5466 4.04293 31.17C4.37007 30.964 4.69721 30.7579 5.03052 30.5447C5.37001 30.3316 5.73418 30.161 6.10452 29.9479C6.84521 29.5144 7.68466 29.1733 8.62904 28.7825C8.95001 28.6546 9.38208 28.5267 10.0055 28.3278C10.3203 28.2283 10.6783 28.1146 11.1104 28.0293C11.5424 27.9369 12.03 27.8304 12.5979 27.7096C15.1163 27.2477 18.5605 27.1056 22.2207 27.5888C25.8871 28.072 29.7202 29.1875 33.1706 30.4808C36.6271 31.7456 39.7442 33.053 42.028 33.9626C44.3241 34.8579 45.75 35.4192 45.75 35.4192C45.75 35.4192 46.9474 35.8882 48.9349 36.5917C50.9286 37.2809 53.7309 38.1762 56.9467 38.8513C60.1626 39.5192 63.792 39.9669 67.2856 39.9953C70.7791 40.0379 74.1431 39.7892 76.9145 39.2989C77.6676 39.1497 78.3527 39.0076 78.9699 38.8868C79.581 38.7376 80.1242 38.6026 80.6056 38.4818C81.0871 38.3468 81.4945 38.2118 81.8525 38.1052C82.2043 37.9915 82.5067 37.9204 82.7475 37.8281C83.7042 37.4586 84.5745 37.1743 85.3461 36.7764C85.7349 36.5846 86.1176 36.4282 86.4694 36.2222C86.8151 36.009 87.1546 35.8029 87.4879 35.5969C88.8088 34.7513 89.9507 33.6997 91 32.1435C90.2099 32.5699 89.5865 33.0673 88.9384 33.4794C88.2841 33.8844 87.7163 34.3747 87.0682 34.7726C86.7534 34.9929 86.4324 35.2132 86.1114 35.4406C85.7843 35.6679 85.4263 35.8669 85.0683 36.0943C84.3585 36.5704 83.5437 36.9683 82.6302 37.4444C82.4018 37.558 82.1179 37.6717 81.7784 37.8139C81.4327 37.956 81.0377 38.1336 80.5686 38.297C80.0933 38.4463 79.5625 38.6168 78.9576 38.8087C78.3527 38.9721 77.6676 39.1142 76.9145 39.2847C74.1493 39.8177 70.7544 39.8958 67.3226 39.3913C63.8845 38.9081 60.4589 37.7712 57.4159 36.6698C54.3667 35.5471 51.6755 34.4742 49.7127 33.7423C47.7498 33.0104 46.5524 32.5628 46.5524 32.5628C46.5524 32.5628 45.1204 32.0227 42.7934 31.2127C40.4664 30.4097 37.232 29.3439 33.6027 28.5125C29.9856 27.6456 25.9674 27.0985 22.2516 26.9919C18.5296 26.8924 15.1039 27.198 12.5917 27.6882C12.03 27.8162 11.5363 27.9227 11.1042 28.0151C10.6721 28.1004 10.3079 28.207 9.99315 28.2922C9.36356 28.4699 8.92532 28.5622 8.59201 28.6688C7.62911 28.9886 6.74646 29.2231 5.96256 29.557C5.56752 29.7134 5.17866 29.8413 4.81449 30.0118C4.45649 30.1895 4.10466 30.36 3.759 30.5305C2.38873 31.234 1.14807 32.1293 0 33.586L0.0185173 33.6073Z" fill="currentColor"/>
</svg>
