<svg viewBox="0 0 244 55" fill="none" xmlns="http://www.w3.org/2000/svg">
<path d="M0.0496802 9.49399C2.2172 9.00401 3.95453 8.37953 5.7084 7.85112C7.49536 7.34192 9.06723 6.70783 10.8377 6.19863C11.7146 5.92001 12.5915 5.64139 13.485 5.35317C14.395 5.06495 15.3712 4.83437 16.364 4.54614C18.3495 3.96009 20.5998 3.49893 23.1313 2.97051C23.9917 2.79758 25.1499 2.62464 26.8211 2.35564C27.6649 2.22113 28.6246 2.06741 29.7828 1.95212C30.941 1.82722 32.2481 1.68311 33.7704 1.51978C40.5211 0.895298 49.7538 0.703148 59.5655 1.35646C69.3938 2.00977 79.6689 3.51814 88.9181 5.2667C98.1838 6.97683 106.54 8.74461 112.662 9.97437C118.817 11.1849 122.639 11.9439 122.639 11.9439C122.639 11.9439 125.849 12.578 131.176 13.5291C136.521 14.4611 144.033 15.6716 152.653 16.5843C161.274 17.4874 171.003 18.0927 180.368 18.1311C189.733 18.1888 198.75 17.8525 206.179 17.1896C208.198 16.9878 210.035 16.7957 211.689 16.6324C213.327 16.4306 214.783 16.2481 216.074 16.0847C217.364 15.9022 218.456 15.7196 219.416 15.5755C220.359 15.4218 221.17 15.3257 221.815 15.2008C224.38 14.7013 226.713 14.317 228.781 13.7789C229.823 13.5195 230.849 13.3082 231.792 13.0295C232.719 12.7413 233.629 12.4627 234.523 12.1841C238.063 11.0408 241.124 9.61889 243.937 7.51485C241.819 8.0913 240.148 8.76383 238.411 9.32106C236.657 9.86869 235.135 10.5316 233.397 11.0696C232.554 11.3675 231.693 11.6653 230.833 11.9727C229.956 12.2802 228.996 12.5492 228.037 12.8566C226.134 13.5003 223.95 14.0383 221.501 14.682C220.889 14.8358 220.128 14.9895 219.218 15.1816C218.291 15.3738 217.232 15.614 215.975 15.8349C214.7 16.0367 213.278 16.2673 211.656 16.5267C210.035 16.7476 208.198 16.9398 206.179 17.1704C198.767 17.8909 189.666 17.9966 180.467 17.3145C171.251 16.6612 162.068 15.124 153.911 13.6348C145.737 12.1168 138.523 10.6661 133.261 9.67654C128 8.68697 124.79 8.08169 124.79 8.08169C124.79 8.08169 120.951 7.35153 114.713 6.25627C108.475 5.17063 99.8053 3.72951 90.0763 2.60543C80.4134 1.46214 69.642 0.722363 59.6813 0.587858C49.7041 0.453354 40.5211 0.866475 33.7869 1.52939C32.2812 1.70233 30.9575 1.84644 29.7993 1.97134C28.6411 2.08663 27.6649 2.23074 26.8211 2.34603C25.1334 2.58621 23.9586 2.71111 23.0651 2.85522C20.4839 3.28756 18.1179 3.60461 16.0165 4.05616C14.9576 4.26752 13.9152 4.44046 12.939 4.67104C11.9793 4.91123 11.0362 5.14181 10.1096 5.37239C6.43642 6.32353 3.11068 7.53407 0.0331342 9.5036L0.0496802 9.49399Z" fill="currentColor"/>
<path d="M0.0496379 26.7874C2.21716 26.2974 3.95449 25.6729 5.70836 25.1445C7.49532 24.6353 9.06719 24.0012 10.8376 23.492C11.7145 23.2134 12.5915 22.9348 13.485 22.6466C14.395 22.3583 15.3712 22.1278 16.364 21.8395C18.3495 21.2535 20.5997 20.7923 23.1313 20.2639C23.9916 20.091 25.1499 19.918 26.821 19.649C27.6649 19.5145 28.6245 19.3608 29.7827 19.2455C30.941 19.1206 32.2481 18.9765 33.7703 18.8132C40.5211 18.1887 49.7537 17.9965 59.5655 18.6499C69.3938 19.3032 79.6688 20.8115 88.918 22.5601C98.1838 24.2702 106.539 26.038 112.661 27.2678C118.817 28.4783 122.639 29.2373 122.639 29.2373C122.639 29.2373 125.849 29.8714 131.176 30.8225C136.521 31.7545 144.033 32.965 152.653 33.8777C161.274 34.7808 171.003 35.3861 180.368 35.4245C189.733 35.4822 198.75 35.1459 206.179 34.483C208.198 34.2812 210.034 34.0891 211.689 33.9258C213.327 33.724 214.783 33.5415 216.074 33.3781C217.364 33.1956 218.456 33.013 219.416 32.8689C220.359 32.7152 221.17 32.6191 221.815 32.4942C224.38 31.9946 226.713 31.6103 228.781 31.0723C229.823 30.8129 230.849 30.6016 231.792 30.3229C232.719 30.0347 233.629 29.7561 234.523 29.4775C238.063 28.3342 241.124 26.9123 243.937 24.8082C241.819 25.3847 240.148 26.0572 238.411 26.6145C236.657 27.1621 235.135 27.825 233.397 28.363C232.554 28.6609 231.693 28.9587 230.833 29.2661C229.956 29.5736 228.996 29.8426 228.036 30.15C226.134 30.7937 223.95 31.3317 221.501 31.9754C220.889 32.1292 220.128 32.2829 219.217 32.475C218.291 32.6672 217.232 32.9074 215.974 33.1283C214.7 33.3301 213.277 33.5607 211.656 33.8201C210.034 34.041 208.198 34.2332 206.179 34.4638C198.767 35.1843 189.666 35.29 180.467 34.6079C171.251 33.9546 162.068 32.4174 153.911 30.9282C145.737 29.4102 138.523 27.9595 133.261 26.9699C128 25.9804 124.79 25.3751 124.79 25.3751C124.79 25.3751 120.951 24.6449 114.713 23.5497C108.475 22.464 99.8053 21.0229 90.0762 19.8988C80.3803 18.7267 69.6089 17.9869 59.6482 17.8428C49.671 17.7083 40.488 18.1214 33.7538 18.7844C32.2481 18.9573 30.9244 19.1014 29.7662 19.2263C28.608 19.3416 27.6318 19.4857 26.7879 19.601C25.1002 19.8412 23.9255 19.9661 23.032 20.1102C20.4508 20.5425 18.0847 20.8596 15.9834 21.3111C14.9245 21.5225 13.8821 21.6954 12.9059 21.926C11.9462 22.1662 11.0031 22.3968 10.0765 22.6274C6.40329 23.5785 3.07755 24.789 0 26.7586L0.0496379 26.7874Z" fill="currentColor"/>
<path d="M0.0496379 46.0024C2.21716 45.5124 3.95449 44.8879 5.70836 44.3595C7.49532 43.8503 9.06719 43.2162 10.8376 42.707C11.7145 42.4284 12.5915 42.1498 13.485 41.8615C14.395 41.5733 15.3712 41.3427 16.364 41.0545C18.3495 40.4684 20.5997 40.0073 23.1313 39.4789C23.9916 39.3059 25.1499 39.133 26.821 38.864C27.6649 38.7295 28.6245 38.5758 29.7827 38.4605C30.941 38.3356 32.2481 38.1915 33.7703 38.0281C40.5211 37.4037 49.7537 37.2115 59.5655 37.8648C69.3938 38.5181 79.6688 40.0265 88.918 41.7751C98.1838 43.4852 106.539 45.253 112.661 46.4827C118.817 47.6933 122.639 48.4523 122.639 48.4523C122.639 48.4523 125.849 49.0864 131.176 50.0375C136.521 50.9694 144.033 52.18 152.653 53.0927C161.274 53.9958 171.003 54.6011 180.368 54.6395C189.733 54.6971 198.75 54.3609 206.179 53.698C208.198 53.4962 210.034 53.304 211.689 53.1407C213.327 52.939 214.783 52.7564 216.074 52.5931C217.364 52.4105 218.456 52.228 219.416 52.0839C220.359 51.9302 221.17 51.8341 221.815 51.7092C224.38 51.2096 226.713 50.8253 228.781 50.2873C229.823 50.0279 230.849 49.8165 231.792 49.5379C232.719 49.2497 233.629 48.9711 234.523 48.6925C238.063 47.5492 241.124 46.1273 243.937 44.0232C241.819 44.5997 240.148 45.2722 238.411 45.8294C236.657 46.377 235.135 47.04 233.397 47.578C232.554 47.8758 231.693 48.1736 230.833 48.4811C229.956 48.7885 228.996 49.0575 228.036 49.365C226.134 50.0087 223.95 50.5467 221.501 51.1904C220.889 51.3441 220.128 51.4978 219.217 51.69C218.291 51.8821 217.232 52.1223 215.974 52.3433C214.7 52.5451 213.277 52.7756 211.656 53.035C210.034 53.256 208.198 53.4482 206.179 53.6787C198.767 54.3993 189.666 54.505 180.467 53.8228C171.251 53.1695 162.068 51.6323 153.911 50.1432C145.737 48.6252 138.523 47.1745 133.261 46.1849C128 45.1953 124.79 44.5901 124.79 44.5901C124.79 44.5901 120.951 43.8599 114.713 42.7646C108.475 41.679 99.8053 40.2379 90.0762 39.1138C80.3803 37.9417 69.6089 37.2019 59.6482 37.0578C49.671 36.9233 40.488 37.3364 33.7538 37.9993C32.2481 38.1723 30.9244 38.3164 29.7662 38.4413C28.608 38.5566 27.6318 38.7007 26.7879 38.816C25.1002 39.0561 23.9255 39.181 23.032 39.3252C20.4508 39.7575 18.0847 40.0745 15.9834 40.5261C14.9245 40.7375 13.8821 40.9104 12.9059 41.141C11.9462 41.3812 11.0031 41.6117 10.0765 41.8423C6.40329 42.7935 3.07755 44.004 0 45.9735L0.0496379 46.0024Z" fill="currentColor"/>
</svg>
