<svg viewBox="0 0 16 16" fill="none" xmlns="http://www.w3.org/2000/svg">
<path fill-rule="evenodd" clip-rule="evenodd" d="M4.60996 0.919708C5.43769 0.576855 6.32483 0.400391 7.22075 0.400391C8.11667 0.400391 9.00381 0.576855 9.83154 0.919708C10.6593 1.26256 11.4113 1.76509 12.0449 2.3986C12.6784 3.03211 13.1809 3.7842 13.5237 4.61192C13.8666 5.43964 14.0431 6.32678 14.0431 7.2227C14.0431 8.11862 13.8666 9.00577 13.5237 9.83349C13.3046 10.3626 13.0201 10.8608 12.678 11.3169C12.5536 11.4827 12.5628 11.7163 12.7094 11.8628L14.7152 13.8686C14.8714 14.0248 14.8714 14.2781 14.7152 14.4343L14.4324 14.7172C14.2762 14.8734 14.0229 14.8734 13.8667 14.7172L11.8609 12.7114C11.7143 12.5648 11.4808 12.5556 11.315 12.68C10.1408 13.5609 8.70575 14.045 7.22075 14.045C5.41136 14.045 3.67608 13.3262 2.39665 12.0468C1.11721 10.7674 0.398438 9.03209 0.398438 7.2227C0.398438 5.41331 1.11721 3.67803 2.39665 2.3986C3.03016 1.76509 3.78224 1.26256 4.60996 0.919708ZM7.22075 1.60039C6.48242 1.60039 5.75131 1.74582 5.06918 2.02836C4.38705 2.31091 3.76725 2.72505 3.24517 3.24713C2.19079 4.30152 1.59844 5.73157 1.59844 7.2227C1.59844 8.71383 2.19079 10.1439 3.24517 11.1983C4.29956 12.2527 5.72962 12.845 7.22075 12.845C8.71188 12.845 10.1419 12.2527 11.1963 11.1983C11.7184 10.6762 12.1325 10.0564 12.4151 9.37427C12.6976 8.69214 12.8431 7.96103 12.8431 7.2227C12.8431 6.48437 12.6976 5.75327 12.4151 5.07114C12.1325 4.38901 11.7184 3.76921 11.1963 3.24713C10.6742 2.72505 10.0544 2.31091 9.37231 2.02836C8.69018 1.74582 7.95908 1.60039 7.22075 1.60039Z" fill="currentColor"/>
</svg>
