<svg width="92" height="32" viewBox="0 0 92 32" fill="none" xmlns="http://www.w3.org/2000/svg">
<g clip-path="url(#clip0_7273_95599)">
<mask id="mask0_7273_95599" style="mask-type:luminance" maskUnits="userSpaceOnUse" x="0" y="-11" width="105" height="43">
<path d="M0.5 32H104.68V-10.65H0.5V32Z" fill="white"/>
</mask>
<g mask="url(#mask0_7273_95599)">
<path d="M10.7729 -0.000366211C12.9504 -0.000366211 13.6346 1.56158 14.2087 3.12108C14.4498 3.78332 20.1083 19.2804 20.2785 19.7456C20.3237 19.8753 20.2931 20.0883 20.0936 20.1654C19.8929 20.2413 16.9529 21.3846 16.7901 21.4458C16.6273 21.5083 16.4449 21.4177 16.3862 21.2549C16.325 21.0945 15.1046 17.716 14.9676 17.339H6.58078C6.44859 17.716 5.21359 21.1019 5.15851 21.2549C5.1022 21.4103 4.92717 21.5156 4.75337 21.4458C4.57956 21.3773 1.62852 20.234 1.45226 20.1654C1.28335 20.0993 1.20624 19.9071 1.26499 19.7456C1.47307 19.1653 7.0459 3.91675 7.32986 3.12108C7.88311 1.58484 8.59057 -0.000366211 10.7729 -0.000366211ZM0.817013 27.7291C0.640759 27.7291 0.5 27.876 0.5 28.0547V31.6768C0.5 31.8556 0.640759 32 0.817013 32H20.7203C20.9002 32 21.041 31.8556 21.041 31.6768V28.0547C21.041 27.876 20.9002 27.7291 20.7203 27.7291H0.817013ZM10.7534 5.06005L7.9186 13.5737H13.6346L10.7901 5.06005H10.7534ZM53.2907 19.0197C52.8733 19.1604 52.5979 19.1947 52.2699 19.1947C51.5918 19.1947 51.216 18.9266 51.216 18.2313C51.216 17.5067 51.6934 17.2643 52.631 17.2643C52.8599 17.2643 53.0851 17.2974 53.1903 17.3341V17.8531C53.1903 18.4125 53.2209 18.7797 53.2907 19.0197ZM55.7007 19.8496C55.2001 19.0894 55.0691 18.6414 55.0691 17.683V15.7366C55.0691 14.6888 54.9467 14.3106 54.6701 13.9286C54.2846 13.3876 53.642 13.1526 52.4608 13.1526C51.6248 13.1526 50.8133 13.2431 50.0275 13.4439L50.3115 14.8271C50.8427 14.7525 51.3996 14.6888 51.7925 14.6888C53.0471 14.6888 53.1903 14.87 53.1903 15.8113V16.1626C52.9113 16.088 52.5979 16.0341 52.2344 16.0341C50.3458 16.0341 49.3482 16.9583 49.3482 18.4884C49.3482 19.9231 50.4143 20.7052 51.713 20.7052C52.1977 20.7052 52.7044 20.6159 53.1059 20.4519C53.3482 20.3466 53.4535 20.2842 53.7668 20.081C53.9553 20.3552 54.3335 20.6355 54.4878 20.6881L55.7007 19.8496ZM74.3825 19.0197C73.9627 19.1604 73.6922 19.1947 73.3617 19.1947C72.6811 19.1947 72.3005 18.9266 72.3005 18.2313C72.3005 17.5067 72.784 17.2643 73.724 17.2643C73.9529 17.2643 74.1793 17.2974 74.2821 17.3341V17.8531C74.2821 18.4125 74.3115 18.7797 74.3825 19.0197ZM76.795 19.8496C76.2907 19.0894 76.1622 18.6414 76.1622 17.683V15.7366C76.1622 14.6888 76.0373 14.3106 75.7583 13.9286C75.3776 13.3876 74.7338 13.1526 73.549 13.1526C72.7142 13.1526 71.8978 13.2431 71.112 13.4439L71.3923 14.8271C71.9247 14.7525 72.4829 14.6888 72.8868 14.6888C74.134 14.6888 74.2821 14.87 74.2821 15.8113V16.1626C74.0031 16.088 73.6922 16.0341 73.3213 16.0341C71.4302 16.0341 70.429 16.9583 70.429 18.4884C70.429 19.9231 71.4975 20.7052 72.8023 20.7052C73.2931 20.7052 73.795 20.6159 74.1928 20.4519C74.4388 20.3466 74.5404 20.2842 74.8537 20.081C75.0447 20.3552 75.4229 20.6355 75.5783 20.6881L76.795 19.8496ZM91.5 20.5424C91.5 20.5424 90.4645 18.3354 90.2111 17.8335C89.9259 17.268 89.6616 16.8775 89.0789 16.7367V16.7049C89.4694 16.6302 89.7803 16.394 90.1206 15.6718C90.4425 14.9679 90.5379 14.8161 90.7276 14.6484C90.9137 14.4819 91.1683 14.5419 91.1683 14.5419L91.2638 13.2407C90.9933 13.204 90.6934 13.2028 90.3837 13.2199C89.8696 13.2505 89.604 13.3986 89.3507 13.6532C89.1524 13.8479 89.0177 14.1392 88.8513 14.4734C88.675 14.8381 88.5355 15.1319 88.3519 15.5028C88.1695 15.8835 88.0838 16.0549 87.593 16.0549H87.2736V10.2906H85.3825V20.5424H87.2736V17.5948L87.5318 17.5899C88.074 17.5899 88.1695 17.7258 88.4559 18.2974C88.7913 18.9793 89.4339 20.5424 89.4339 20.5424H91.5ZM38.227 20.5424H40.4094L37.1083 10.462C36.7607 10.3457 36.3311 10.2735 35.8721 10.2735C35.3715 10.2735 35.1928 10.3396 34.8011 10.462L31.3078 20.5424H33.4021C33.4021 20.5424 33.6848 19.6586 34.0177 18.5631H37.6359C37.959 19.6574 38.227 20.5424 38.227 20.5424ZM34.549 16.8726C34.549 16.8726 35.1536 14.8492 35.2479 14.5346C35.4878 13.7193 35.8525 12.4242 35.8525 12.4242H35.9125C35.9125 12.4242 36.2503 13.7658 36.4706 14.5199C36.5539 14.8198 37.1316 16.8726 37.1316 16.8726H34.549ZM58.9223 15.7195C58.2552 15.7195 57.713 16.2642 57.713 16.9314C57.713 17.6034 58.2552 18.1444 58.9223 18.1444C59.5906 18.1444 60.1304 17.6034 60.1304 16.9314C60.1304 16.2642 59.5906 15.7195 58.9223 15.7195ZM43.0006 10.2906H41.1046V20.5412H43.0006V10.2906ZM80.6689 14.7818C81.7166 14.8039 81.8464 15.0205 81.8464 15.8994V20.5424H83.7252V15.7366C83.7252 14.6888 83.6028 14.3106 83.3237 13.9286C82.9382 13.3876 82.1805 13.1526 80.899 13.1526C79.631 13.1526 78.8231 13.2872 77.784 13.5969V20.5424H79.6824V14.87C80.1805 14.7978 80.2687 14.7818 80.6689 14.7818ZM47.6897 10.1082C46.5049 10.1082 45.8598 10.3433 45.4804 10.8831C45.2013 11.2662 45.0777 11.653 45.0777 12.7033V13.5969H44.1365V15.1295H45.0777V20.5424H46.9578L46.9529 15.1295H48.8268V13.5969H46.9529L46.9578 12.7755C46.9578 11.8354 47.101 11.653 48.3568 11.653C48.4926 11.653 48.6457 11.6604 48.8084 11.6726L49.1046 10.2C48.6408 10.1388 48.1658 10.1082 47.6897 10.1082ZM62.7742 10.2037C63.4192 10.1658 64.8611 10.1119 65.7656 10.1119C65.9308 10.1119 66.1022 10.1131 66.2736 10.1217C68.052 10.1217 69.0716 11.4168 69.0716 12.9371C69.0716 13.9715 68.5979 14.6582 67.4877 15.0671C68.7937 15.3559 69.478 16.3756 69.478 17.623C69.478 18.5386 69.2197 19.2657 68.746 19.7615C68.1316 20.3662 67.2013 20.7052 65.9627 20.7052C64.8611 20.7052 63.478 20.671 62.7742 20.6294V10.2037ZM65.7656 11.8832C65.4523 11.8832 65.0642 11.8893 64.6799 11.9028V14.3644H65.7668C66.1977 14.3644 66.5441 14.2445 66.7803 14.0131C67.0055 13.7952 67.123 13.4867 67.123 13.1207C67.123 12.3336 66.6971 11.8881 65.9051 11.8832H65.7656ZM65.8048 18.9377H65.8868C66.8745 18.9377 67.4792 18.4125 67.4865 17.3549C67.4767 16.9754 67.3311 16.6253 67.0704 16.3719C66.7852 16.0855 66.3813 15.9362 65.9076 15.9362H64.6799V18.9266C65.0263 18.934 65.4082 18.9352 65.8048 18.9377Z" fill="#C4E0FA"/>
</g>
</g>
<defs>
<clipPath id="clip0_7273_95599">
<rect width="91" height="32" fill="white" transform="translate(0.5)"/>
</clipPath>
</defs>
</svg>
