<svg width="168" height="28" viewBox="0 0 168 28" fill="none" xmlns="http://www.w3.org/2000/svg">
<path d="M75.1211 8.12412L78.6218 5.50781H66.8984V21.1818H78.6218V18.5633H70.2471V14.5628H77.405V11.9465H70.2471V8.12412H75.1211Z" fill="#C4E0FA"/>
<path d="M58.035 11.6118H53.9736V8.12412H60.4709L63.9738 5.50781H50.625V21.1818H57.6025C61.5118 21.1818 63.7696 19.3847 63.7696 16.2555C63.7696 13.2546 61.74 11.6118 58.035 11.6118ZM57.4765 18.5633H53.9736V14.2281H57.4765C59.6082 14.2281 60.597 14.9474 60.597 16.4098C60.597 17.8723 59.5322 18.5633 57.4765 18.5633Z" fill="#C4E0FA"/>
<path d="M88.1113 5.50781H81.7422V21.1818H85.0908V16.7423H88.1374C92.1966 16.7423 94.7346 14.5888 94.7346 11.1251C94.7346 7.66127 92.1966 5.50781 88.1113 5.50781ZM88.0352 14.126H85.0669V8.12412H88.0352C90.193 8.12412 91.3599 9.20194 91.3599 11.1251C91.3599 13.0482 90.193 14.126 88.0352 14.126Z" fill="#C4E0FA"/>
<path d="M44.8941 17.7934C44.0075 18.2824 43.0166 18.5388 42.0019 18.5388C38.9814 18.5388 36.7997 16.3571 36.7997 13.3561C36.7997 10.3552 38.9814 8.17351 42.0019 8.17351C43.0927 8.1496 44.1597 8.50815 45.0462 9.14919L47.4583 7.35428L47.3062 7.2C45.9111 5.94182 44.0314 5.30078 41.8997 5.30078C39.592 5.30078 37.4842 6.0961 35.963 7.53247C34.4398 9.02098 33.5771 11.0984 33.6271 13.254C33.601 15.4335 34.4398 17.537 35.963 19.0755C37.5602 20.5901 39.6919 21.4376 41.8758 21.3854C44.2857 21.3854 46.3913 20.538 47.8125 18.9995L45.6569 17.3827L44.8941 17.7934Z" fill="#C4E0FA"/>
<path d="M135.005 5.53389V21.2057H138.354V14.7931H145.486V21.2057H148.837V5.53389H145.486V11.9725H138.354V5.53389H135.005ZM129.245 21.2057H132.772L126.224 5.53389H122.823L116.15 21.2057H119.525L120.87 18.0504H127.976L129.245 21.2057ZM121.885 15.4341L124.473 9.14978L126.909 15.4341H121.885ZM156.349 14.8713H158.428L163.554 21.1818H167.868L161.016 13.0742L167.005 5.50781H163.174L158.2 12.2289H156.349V5.50781H152.998V21.1818H156.349V14.8713ZM105.085 11.6379V8.1502H113.84V5.53389H101.734V21.2057H108.714C112.621 21.2057 114.881 19.4108 114.881 16.2816C114.881 13.2807 112.852 11.6379 109.144 11.6379H105.085ZM105.085 18.5894V14.2542H108.588C110.718 14.2542 111.709 14.9735 111.709 16.4359C111.709 17.8983 110.668 18.6154 108.588 18.6154H105.085V18.5894Z" fill="#C4E0FA"/>
<path d="M23.1471 5.4043C23.7556 6.19962 24.2641 7.071 24.6943 7.99453L12.9709 16.7409L8.04688 13.6118V9.86767L12.9448 12.9707L23.1471 5.4043Z" fill="#C4E0FA"/>
<path d="M3.04646 13.3566C3.04646 13.1762 3.04646 13.0241 3.07254 12.8437L0.104201 12.6895C0.104201 12.8959 0.078125 13.1262 0.078125 13.3305C0.078125 16.9225 1.52535 20.1798 3.85917 22.5397L5.96482 20.4102C4.16339 18.6153 3.04646 16.1272 3.04646 13.3566Z" fill="#C4E0FA"/>
<path d="M12.9447 3.35249C13.1229 3.35249 13.275 3.35249 13.4532 3.37857L13.6053 0.377638C13.4011 0.377638 13.1729 0.351562 12.9708 0.351562C9.41794 0.351562 6.19536 1.814 3.85938 4.17389L5.96502 6.30345C7.74255 4.48246 10.2285 3.35249 12.9447 3.35249Z" fill="#C4E0FA"/>
<path d="M12.9418 23.3611C12.7637 23.3611 12.6115 23.3611 12.4334 23.335L12.2812 26.336C12.4855 26.336 12.7137 26.362 12.9158 26.362C16.4686 26.362 19.6934 24.8996 22.0272 22.5397L19.9216 20.4102C18.144 22.2572 15.682 23.3611 12.9418 23.3611Z" fill="#C4E0FA"/>
<path d="M18.52 5.09616L21.032 3.22302C18.8242 1.42811 16.008 0.324219 12.9375 0.324219V3.32515C15.0192 3.35123 16.9467 3.99227 18.52 5.09616Z" fill="#C4E0FA"/>
<path d="M25.8368 13.3553C25.8368 12.56 25.7608 11.7907 25.6326 11.0215L22.8663 13.0989C22.8663 13.1749 22.8663 13.2792 22.8663 13.3553C22.8663 16.3063 21.5973 18.9486 19.5938 20.7696L21.5973 23.0013C24.1875 20.6414 25.8368 17.1776 25.8368 13.3553Z" fill="#C4E0FA"/>
<path d="M12.948 23.3603C10.0296 23.3603 7.41546 22.0782 5.61403 20.0508L3.40625 22.0782C5.76614 24.7206 9.16691 26.3612 12.948 26.3612V23.3603Z" fill="#C4E0FA"/>
<path d="M6.32119 5.94067L4.3155 3.70898C1.70137 6.09495 0.078125 9.53266 0.078125 13.355H3.04646C3.04646 10.4301 4.3155 7.76383 6.32119 5.94067Z" fill="#C4E0FA"/>
</svg>
