<svg width="104" height="32" viewBox="0 0 104 32" fill="none" xmlns="http://www.w3.org/2000/svg">
<path d="M0 0H31.8426V16.0937C31.8426 20.2194 29.6525 24.0318 26.0973 26.0949L15.9213 32L5.74535 26.0949C2.19008 24.0318 0 20.2194 0 16.0937V0Z" fill="#C4E0FA"/>
<path fill-rule="evenodd" clip-rule="evenodd" d="M8.73438 8.4707V13.4762C9.41549 12.7032 10.6539 12.1801 12.0698 12.1801H13.6085V17.9989C13.6085 19.547 13.19 20.902 12.5689 21.6473H19.262C18.6423 20.9013 18.2247 19.548 18.2247 18.0019V12.1801H19.7635C21.1794 12.1801 22.4178 12.7032 23.0989 13.4762V8.4707H8.73438Z" fill="#707152"/>
<path d="M51.7748 14.81C53.4267 15.281 54.1713 16.5816 54.1713 17.8821C54.1713 19.4328 53.2618 20.7334 51.8017 21.2878C51.0863 21.5639 50.2317 21.6473 49.0755 21.6473H39.3516V8.4707H48.8826C50.0938 8.4707 50.9483 8.5541 51.6089 8.77499C53.1239 9.27424 53.8955 10.4362 53.8955 11.8483C53.8955 13.2874 52.9591 14.2837 51.7748 14.81ZM48.3589 13.6751C48.7447 13.6751 49.0475 13.6469 49.2404 13.5646C49.7361 13.3426 49.957 12.955 49.957 12.512C49.957 12.0691 49.7361 11.6815 49.2673 11.5158C49.0475 11.4324 48.7447 11.4054 48.3589 11.4054H43.1532V13.6751H48.3589ZM48.4969 18.6022C48.8826 18.6022 49.1854 18.5752 49.4052 18.4918C49.9009 18.298 50.1218 17.9103 50.1218 17.4403C50.1218 16.9963 49.9009 16.6368 49.4602 16.4711C49.2404 16.3877 48.9376 16.3607 48.4969 16.3607H43.1532V18.6022H48.4969Z" fill="#C4E0FA"/>
<path d="M59.6524 19.7371L58.9089 21.6473H54.3906L59.7623 8.4707H65.6016L70.9733 21.6473H66.4831L65.7126 19.7371H59.6524ZM60.6438 16.8306H64.7482L62.8474 11.5158H62.5446L60.6438 16.8306Z" fill="#C4E0FA"/>
<path d="M75.7844 8.4707L82.698 15.6958V8.4707H86.4997V21.6473H82.9739L75.8954 14.3671V21.6473H72.0938V8.4707H75.7844Z" fill="#C4E0FA"/>
<path d="M92.8227 16.665V21.6473H88.8281V8.4707H92.8227V13.426H93.9239L98.7439 8.4707H103.758L97.3667 14.7829L104.006 21.6473H98.6889L93.9239 16.665H92.8227Z" fill="#C4E0FA"/>
</svg>
