<svg width="90" height="32" viewBox="0 0 90 32" fill="none" xmlns="http://www.w3.org/2000/svg">
<g clip-path="url(#clip0_7273_95609)">
<path fill-rule="evenodd" clip-rule="evenodd" d="M6.54683 0L5.03418 4.15332H25.9961L27.5088 0H6.54683ZM4.27738 6.22904L2.76473 10.3814H23.7267L25.2393 6.22904H4.27738ZM2.01265 12.4581L0.5 16.6104H21.462L22.9737 12.4581H2.01265Z" fill="#C4E0FA"/>
<mask id="mask0_7273_95609" style="mask-type:luminance" maskUnits="userSpaceOnUse" x="31" y="6" width="59" height="26">
<path d="M31.9531 31.7503H89.3341V6.30859H31.9531V31.7503Z" fill="white"/>
</mask>
<g mask="url(#mask0_7273_95609)">
<path fill-rule="evenodd" clip-rule="evenodd" d="M45.0673 18.1929V18.2805C46.0253 18.633 46.9403 19.2493 47.4198 19.6451C48.9011 20.8777 49.555 22.5061 49.555 24.6189C49.555 28.0973 47.7248 30.6059 44.7184 31.3984C43.8034 31.6623 42.8454 31.7509 41.0581 31.7509H31.9531V6.30859H40.0134C41.6691 6.30859 42.8015 6.39623 43.8034 6.66009C46.723 7.45263 48.6399 9.4778 48.6399 12.6903C48.6399 14.4074 48.0299 15.8605 47.028 16.8283C46.5924 17.2684 45.9824 17.7971 45.0673 18.1929ZM37.007 20.8777V27.5686H40.4929C41.5376 27.5686 42.4965 27.4809 43.1943 26.8203C43.891 26.1597 44.1961 25.3238 44.1961 24.2231C44.1961 23.3873 43.9778 22.5947 43.5422 22.0227C42.8015 21.0982 41.8865 20.8777 40.3184 20.8777H37.007ZM36.9632 16.4759H39.7951C40.6664 16.4759 41.102 16.4759 41.5376 16.3439C42.7148 15.9915 43.4554 14.936 43.4554 13.4829C43.4554 11.7668 42.6709 11.0176 41.5376 10.6661C41.0581 10.5342 40.5796 10.4899 39.6207 10.4899H36.9632V16.4759ZM57.1358 31.7509V10.5775H49.86V6.30859H70.0765L68.6391 10.5775H62.1897V31.7509H57.1358ZM71.6445 31.7509V6.30859H88.0272L86.5898 10.5775H76.6555V16.212H80.7076C83.9752 16.212 85.6747 17.0046 86.851 18.0167C87.7661 18.8092 89.3341 20.5696 89.3341 24.0479C89.3341 27.4809 87.7222 29.3732 86.3715 30.342C84.8035 31.4417 83.1478 31.7509 79.7925 31.7509H71.6445ZM76.6555 27.4809H80.4464C81.8838 27.4809 82.7551 27.1285 83.3651 26.336C83.6701 25.9402 84.1058 25.2352 84.1058 23.915C84.1058 22.5947 83.6701 21.6703 82.7989 21.0096C82.2766 20.6138 81.5788 20.3943 80.4026 20.3943H76.6555V27.4809Z" fill="#C4E0FA"/>
</g>
</g>
<defs>
<clipPath id="clip0_7273_95609">
<rect width="89" height="32" fill="white" transform="translate(0.5)"/>
</clipPath>
</defs>
</svg>
