<svg width="389" height="43" viewBox="0 0 389 43" fill="none" xmlns="http://www.w3.org/2000/svg">
  <path d="M1 1C13.4875 2.22333 28.8523 1.47662 40.7321 7.03702C42.0635 7.66016 41.9558 11.4832 43.8455 12.2414C46.7908 13.423 49.8573 14.1145 52.7407 15.5721C54.4575 16.4399 53.1292 18.5439 55.0387 19.7356C59.4141 22.4662 66.1746 19.7356 71.1984 19.7356C82.0429 19.7356 92.6735 23.4827 103.37 23.4827C108.56 23.4827 135.668 25.0587 136.356 21.1928C137.236 16.2488 157.914 13.686 160.818 16.4048C168.164 23.2811 186.892 15.9885 195.806 15.9885C208.854 15.9885 221.841 17.862 234.945 17.862C236.467 17.862 244.444 16.5151 240.431 19.7356C233.945 24.9396 235.112 25.7688 242.136 27.2298C263.914 31.7603 285.451 30.9574 306.997 37.5344C319.579 41.3752 337.743 44.0495 350.584 39.9284C356.155 38.1402 360.567 36.885 366.298 36.5976C369.367 36.4438 389.191 34.8463 387.944 36.5976" stroke="url(#paint0_linear_6085_11741)" stroke-width="0.6" stroke-linecap="round"/>
  <defs>
  <linearGradient id="paint0_linear_6085_11741" x1="1" y1="21.5" x2="388" y2="21.5" gradientUnits="userSpaceOnUse">
  <stop stop-color="#3B576B"/>
  <stop offset="1" stop-color="#B7CBD9"/>
  </linearGradient>
  </defs>
</svg>
