<svg width="2012" height="867" viewBox="0 0 2012 867" fill="none" xmlns="http://www.w3.org/2000/svg">
<path d="M0 10.2572C94.5572 109.507 205.322 193.538 323.13 265.158C382.119 300.57 443.509 333.162 507.839 358.446C572.025 384.076 640.76 397.628 710.062 399.743C777.518 402.256 845.331 397.064 907.551 428.309C992.283 468.632 1081.95 507.045 1167.76 545.676C1232.29 574.062 1295.16 606.859 1362.45 628.655C1380.84 634.169 1406.77 640.784 1425.15 645.759C1626.33 698.557 1827.3 759.484 2011.14 856.478C1809.62 748.984 1586.32 690.313 1365.16 634.54C1295.64 613.706 1231.01 580.64 1164.78 551.997C1078.53 513.853 988.894 475.697 904.109 435.053C896.42 431.361 888.587 428.014 880.569 425.104C826.116 405.077 767.034 409.167 709.759 406.334C663.245 404.321 616.758 397.615 571.959 385.127C504.898 366.28 441.939 335.547 381.473 302.096C241.444 222.591 110.62 125.829 0 10.2572Z" fill="url(#paint0_linear_7015_17175)"/>
<defs>
<linearGradient id="paint0_linear_7015_17175" x1="0" y1="433.374" x2="2303.92" y2="433.374" gradientUnits="userSpaceOnUse">
<stop offset="0.0470575" stop-color="#D8E8F6" stop-opacity="0"/>
<stop offset="0.170905" stop-color="#D8E8F6" stop-opacity="0.3"/>
<stop offset="0.394782" stop-color="#D8E8F6"/>
<stop offset="0.713926" stop-color="#D8E8F6" stop-opacity="0.3"/>
<stop offset="0.828247" stop-color="#D8E8F6" stop-opacity="0"/>
</linearGradient>
</defs>
</svg>
