<svg width="659" height="333" viewBox="0 0 659 333" fill="none" xmlns="http://www.w3.org/2000/svg">
<path d="M659 332.293C657.332 331.248 655.929 330.383 654.428 329.477C652.928 328.578 651.409 327.528 649.42 326.271C648.879 325.932 648.074 325.413 647.109 324.722C646.62 324.383 646.086 324.011 645.52 323.612C645.108 323.327 644.696 323.041 644.285 322.749C643.409 322.157 642.56 321.527 641.718 320.883C640.027 319.595 638.283 318.347 636.619 316.968C634.942 315.602 633.225 314.268 631.587 312.805C629.924 311.373 628.247 309.942 626.623 308.413C620.054 302.406 613.699 295.806 607.555 288.729C595.242 274.589 584.101 258.409 572.993 241.594C561.878 224.765 550.9 207.145 539 189.765C533.041 181.092 526.932 172.41 520.269 164.11C513.626 155.796 506.461 147.838 498.622 140.582C494.705 136.947 490.606 133.513 486.323 130.314C482.046 127.114 477.56 124.182 472.869 121.627C468.178 119.072 463.295 116.863 458.233 115.183C456.968 114.764 455.702 114.346 454.416 114.006C453.777 113.829 453.137 113.633 452.491 113.476L450.552 113.012C447.961 112.43 445.355 111.894 442.676 111.639C440.01 111.384 437.263 111.41 434.582 112.026C433.244 112.341 431.925 112.8 430.701 113.483C429.476 114.159 428.354 115.026 427.392 116.039C425.481 118.098 424.245 120.621 423.372 123.162C422.932 124.435 422.563 125.729 422.259 127.017C421.975 128.312 421.697 129.606 421.412 130.901C419.413 141.32 419.706 151.937 421.227 162.114C422.741 172.311 425.393 182.132 428.216 191.674C431.058 201.221 434.11 210.516 436.722 219.727C439.353 228.932 441.513 238.08 442.747 247.141C442.878 248.276 443.01 249.404 443.141 250.532C443.279 251.661 443.34 252.788 443.439 253.91C443.631 256.152 443.778 258.401 443.311 260.5C443.074 261.54 442.656 262.532 442.014 263.338C441.377 264.151 440.523 264.772 439.586 265.228C438.642 265.684 437.629 265.989 436.59 266.221C435.545 266.427 434.488 266.548 433.444 266.708C429.229 267.172 425.01 266.725 421.043 265.665C417.063 264.598 413.322 262.957 409.816 261.043C402.793 257.201 396.725 252.313 391.117 247.476C379.987 237.606 369.852 228.617 360.899 220.675C351.927 212.758 344.109 205.934 337.673 200.355C331.223 194.796 326.18 190.442 322.75 187.487C319.313 184.545 317.488 182.981 317.488 182.981C317.488 182.981 315.657 181.43 312.207 178.494C308.757 175.558 303.681 171.25 297.087 165.86C283.919 155.059 264.986 139.558 241.342 121.521C229.517 112.516 216.401 103.033 202.311 93.1275C195.233 88.2238 187.87 83.2715 180.13 78.4793C178.179 77.3139 176.215 76.1352 174.238 74.9564C173.252 74.3572 172.247 73.7906 171.229 73.2369C170.218 72.6768 169.2 72.1166 168.182 71.5499C164.096 69.3155 159.861 67.2436 155.467 65.3928C151.074 63.5749 146.555 61.926 141.918 60.4988C137.274 59.0978 132.492 57.9576 127.575 57.386C125.122 57.0872 122.636 56.9388 120.142 56.9607C117.648 56.9891 115.14 57.1615 112.655 57.5897C110.17 58.0113 107.709 58.6232 105.304 59.4453C102.9 60.2739 100.564 61.3391 98.3362 62.6151C93.8682 65.1405 89.9144 68.739 87.0477 73.1473C85.6013 75.3481 84.5092 77.7684 83.6429 80.2631C82.7897 82.7644 82.2075 85.3666 81.9099 88.0043C81.5994 90.6419 81.5219 93.3014 81.6387 95.9628C81.775 98.6178 82.1056 101.268 82.5856 103.887C83.0654 106.513 83.7141 109.107 84.5316 111.651L85.1349 113.563C85.3426 114.194 85.5892 114.819 85.8098 115.45L86.5042 117.331L87.2765 119.186C89.3535 124.12 91.9181 128.863 94.913 133.321C97.947 137.76 101.333 141.959 105.019 145.907C108.712 149.847 112.849 153.432 117.414 156.372C118.547 157.11 119.808 157.902 121.398 158.337C122.193 158.541 123.086 158.635 123.981 158.493C124.416 158.405 124.844 158.291 125.267 158.132C125.677 157.926 126.106 157.753 126.459 157.449C127.228 156.912 127.741 156.144 128.15 155.401C128.507 154.638 128.767 153.854 128.885 153.095C129.159 151.564 129.115 150.077 128.928 148.64C128.741 147.21 128.392 145.784 127.899 144.456L126.452 140.688C125.479 138.175 124.512 135.67 123.539 133.164C122.442 130.709 121.345 128.261 120.248 125.813L118.599 122.148C118.028 120.937 117.392 119.758 116.794 118.566C115.58 116.189 114.359 113.812 113.145 111.435C112.853 110.836 112.522 110.256 112.184 109.682L109.203 104.491C106.657 99.827 103.687 95.4346 100.893 90.9718C100.535 90.418 100.198 89.8512 99.8272 89.3104L96.4409 84.4684C95.6934 83.3932 94.9394 82.3179 94.1919 81.2426L93.0739 79.6331C92.7033 79.0988 92.2872 78.5903 91.8907 78.0688C90.3043 75.9961 88.7178 73.93 87.1442 71.864L85.9608 70.3193L85.3724 69.5471L84.7448 68.8006C83.9122 67.8098 83.0798 66.8189 82.2537 65.8281C80.5952 63.8464 78.9431 61.8714 77.2973 59.903C75.5667 58.0058 73.8425 56.1152 72.1248 54.2313C71.2659 53.2861 70.407 52.3408 69.5546 51.4022C68.6956 50.4635 67.7712 49.5962 66.8861 48.69C65.0962 46.8971 63.3062 45.1108 61.5291 43.3311C61.0799 42.8943 60.6503 42.4315 60.1816 42.0077L58.7882 40.7427C57.8571 39.9016 56.9324 39.0606 56.0013 38.2261C55.0765 37.3916 54.1454 36.557 53.2206 35.7225C52.2894 34.9011 51.3909 34.0341 50.4136 33.2711C48.4919 31.7063 46.5767 30.1546 44.6349 28.6486C43.6642 27.8923 42.6998 27.1426 41.7354 26.3929C40.7447 25.6823 39.7541 24.9651 38.7634 24.2544C36.8082 22.8072 34.8659 21.3667 32.9236 19.9261C32.4347 19.5741 31.9655 19.1896 31.47 18.8572L29.9769 17.8534C28.9858 17.1821 27.9948 16.5108 27.0037 15.8394C25.0215 14.5099 23.0785 13.1414 21.0958 11.8577C19.4279 10.8457 17.7729 9.84042 16.1243 8.83514C14.7913 8.02948 13.5806 7.29706 12.563 6.68445C12.0543 6.37814 11.597 6.09857 11.1912 5.85876C10.7855 5.61899 10.4309 5.44519 10.1473 5.29178C8.06573 4.19061 6.42218 3.34265 4.849 2.5871C3.27576 1.83154 1.75995 1.16171 0 0.292969C1.72021 1.25305 3.1239 2.12494 4.64423 2.99136C6.15802 3.86429 7.78198 4.73172 9.86371 5.81976C10.4375 6.10049 11.2621 6.57364 12.2861 7.17978C13.3104 7.7728 14.5342 8.48569 15.874 9.2652C17.5425 10.2248 19.2172 11.1975 20.8984 12.1703C22.9076 13.4019 24.8769 14.7247 26.8855 16.0087C27.8832 16.6604 28.8875 17.3057 29.8917 17.9575L31.3979 18.9417C31.9 19.2675 32.3758 19.6391 32.8647 19.9911C34.8072 21.412 36.7625 22.8461 38.7243 24.2802C39.7018 25.0104 40.6729 25.7405 41.6373 26.4902C42.5688 27.2854 43.5004 28.0807 44.4319 28.8759C46.295 30.473 48.1973 32.0376 50.119 33.5959C51.0962 34.3588 51.9883 35.2192 52.9196 36.0407C53.8444 36.8686 54.7756 37.6967 55.7003 38.5311C56.6316 39.3591 57.5627 40.1937 58.4939 41.0282L59.894 42.2801C60.3628 42.6974 60.7989 43.1537 61.2482 43.584C75.8185 57.4251 89.2929 73.3983 100.333 91.3137C102.996 95.8473 105.816 100.31 108.174 105.051L110.94 110.326C111.252 110.912 111.557 111.498 111.824 112.103C112.94 114.506 114.057 116.915 115.174 119.323C115.726 120.534 116.31 121.719 116.83 122.95L118.329 126.647C119.329 129.107 120.328 131.574 121.328 134.04C122.211 136.552 123.093 139.063 123.976 141.575L125.306 145.342C125.716 146.538 125.976 147.74 126.107 148.973C126.237 150.193 126.226 151.425 126.001 152.53C125.905 153.093 125.712 153.582 125.501 154.032C125.251 154.436 125.001 154.82 124.656 155.027C124.512 155.176 124.297 155.22 124.121 155.329C123.92 155.393 123.699 155.45 123.492 155.494C123.07 155.555 122.617 155.511 122.132 155.376C121.151 155.098 120.114 154.478 119.039 153.747C114.694 150.862 110.521 147.709 106.63 144.186C102.738 140.669 99.2661 136.658 96.283 132.325C93.2933 127.991 90.7275 123.373 88.6299 118.563L87.8506 116.754L87.1494 114.919C86.9221 114.308 86.6753 113.696 86.4611 113.078L85.8443 111.211C85.0132 108.726 84.3511 106.191 83.8512 103.631C83.3512 101.07 82.994 98.4854 82.8377 95.8957C82.7008 93.2997 82.7453 90.7054 83.0162 88.1395C83.2742 85.5734 83.8169 83.0429 84.6177 80.6132C85.4249 78.19 86.4581 75.8346 87.8391 73.6922C90.5687 69.4071 94.3664 65.8661 98.7177 63.3591C100.887 62.0958 103.164 61.0234 105.517 60.1943C107.877 59.3717 110.292 58.7463 112.732 58.3112C115.172 57.8629 117.648 57.6771 120.11 57.6287C122.572 57.5869 125.039 57.7089 127.472 57.9944C132.344 58.5327 137.107 59.627 141.738 60.9951C146.363 62.3828 150.882 64.012 155.276 65.7972C159.656 67.6085 163.892 69.6608 167.984 71.869C169.002 72.4292 170.02 72.9829 171.038 73.5365C172.057 74.0836 173.062 74.6437 174.047 75.2363C176.024 76.4086 177.995 77.5676 179.953 78.7266C187.706 83.4796 195.089 88.3994 202.186 93.2705C216.362 103.045 229.123 113.016 240.837 122.152C264.245 140.468 283.028 156.138 296.058 167.088C309.096 178.038 316.433 184.209 316.433 184.209C316.433 184.209 318.264 185.76 321.721 188.676C325.171 191.612 330.234 195.92 336.723 201.44C349.681 212.488 368.15 228.522 390.469 248.204C396.122 253.035 402.248 257.936 409.368 261.818C412.919 263.746 416.725 265.414 420.789 266.495C424.84 267.576 429.162 268.037 433.487 267.554C434.564 267.381 435.647 267.26 436.725 267.048C437.796 266.809 438.874 266.492 439.902 265.997C440.924 265.503 441.896 264.811 442.624 263.881C443.358 262.958 443.829 261.842 444.086 260.717C444.594 258.435 444.435 256.121 444.249 253.872C444.15 252.737 444.096 251.603 443.958 250.468C443.827 249.333 443.702 248.192 443.57 247.051C442.356 237.925 440.236 228.725 437.657 219.474C435.091 210.217 432.117 200.891 429.365 191.344C426.627 181.804 424.079 172.016 422.654 161.918C421.229 151.847 421.012 141.42 423.002 131.244C423.28 129.982 423.564 128.72 423.842 127.452C424.139 126.19 424.494 124.955 424.914 123.753C425.747 121.344 426.903 119.048 428.585 117.25C430.273 115.47 432.5 114.267 434.935 113.733C437.363 113.173 439.935 113.139 442.484 113.38C445.034 113.614 447.601 114.143 450.148 114.699L452.054 115.143C452.687 115.293 453.314 115.483 453.947 115.646C455.214 115.973 456.46 116.365 457.706 116.763C462.698 118.345 467.543 120.416 472.235 122.826C481.633 127.628 490.284 133.949 498.176 141.075C506.055 148.234 513.221 156.166 519.845 164.459C526.488 172.746 532.545 181.454 538.453 190.153C550.235 207.584 561.148 225.243 572.386 242.014C583.631 258.771 595.215 274.635 607.535 288.755C613.686 295.819 620.034 302.432 626.583 308.458C628.201 309.987 629.878 311.425 631.535 312.87C633.173 314.333 634.883 315.68 636.554 317.052C638.205 318.444 639.948 319.7 641.633 321C642.475 321.65 643.324 322.287 644.192 322.885C644.604 323.178 645.016 323.47 645.428 323.756C646 324.161 646.528 324.533 647.01 324.878C647.975 325.576 648.773 326.101 649.308 326.447C651.291 327.717 652.809 328.774 654.323 329.647C655.856 330.5 657.286 331.326 659 332.293Z" fill="#5c463e"/>
</svg>
