<svg width="1553" height="925" viewBox="0 0 1553 925" fill="none" xmlns="http://www.w3.org/2000/svg">
<path d="M0 0C3.09652 2.48918 5.70285 4.55028 8.47657 6.7065C11.2622 8.84688 14.0838 11.3519 17.7661 14.3484C18.7704 15.157 20.2648 16.3937 22.0582 18.0426C22.9668 18.8511 23.9591 19.739 25.0112 20.6903C25.8242 21.4196 26.6492 22.1489 27.4741 22.8941C29.2196 24.4003 30.8934 26.065 32.5911 27.698C34.2888 29.331 35.9865 30.9799 37.6962 32.6447C39.4178 34.2777 41.0438 36.0851 42.7415 37.7974C44.4153 39.5414 46.101 41.2854 47.7987 43.0453C49.4486 44.8686 51.0985 46.7077 52.7603 48.5468C56.1079 52.1775 59.3479 56.0461 62.6238 59.9305L65.0866 62.8477L67.4897 65.8601C69.0918 67.8736 70.7058 69.8872 72.3198 71.9165C75.5359 75.9912 78.6563 80.2561 81.8485 84.4575C88.0893 93.0825 94.3182 101.913 100.344 111.173C112.443 129.643 124.112 149.319 135.386 169.946C146.672 190.557 157.707 211.96 168.754 233.808C190.896 277.456 213.014 322.99 237.607 367.209C249.849 389.358 262.941 410.983 277.264 431.261C284.437 441.393 291.945 451.143 299.788 460.418C307.655 469.661 315.916 478.366 324.56 486.372C341.86 502.258 360.87 515.37 381.29 522.869C386.371 524.835 391.56 526.246 396.749 527.515C401.973 528.688 407.341 529.37 412.745 528.767C418.113 528.165 423.637 526.088 428.12 521.601C432.663 517.178 435.652 510.677 437.637 504.098C438.653 500.784 439.418 497.407 440.1 494.014C440.781 490.621 441.236 487.197 441.81 483.804C442.36 480.395 442.67 476.939 443.113 473.514C443.483 470.074 443.687 466.617 443.985 463.177C444.882 449.367 444.595 435.51 443.555 421.876C441.439 394.574 436.274 368.223 430.476 342.713C424.653 317.172 418.137 292.327 412.554 267.578C406.959 242.861 402.26 218.144 400.06 193.458C399.726 190.382 399.594 187.291 399.343 184.215C399.104 181.139 398.925 178.079 398.96 175.067C398.996 172.07 399.235 169.074 399.965 166.347C400.67 163.604 401.89 161.194 403.575 159.418C406.995 155.851 411.574 154.583 415.985 153.758C417.085 153.457 418.209 153.409 419.321 153.282C420.433 153.203 421.545 152.981 422.669 153.013C424.904 153.045 427.128 152.981 429.34 153.314C433.775 153.695 438.127 154.9 442.395 156.231C446.64 157.753 450.824 159.466 454.865 161.622C462.971 165.808 470.659 171.008 477.975 176.668C492.597 188.052 505.808 201.179 518.111 214.481C530.401 227.815 541.771 241.418 552.555 254.593C563.351 267.784 573.692 280.294 583.078 292.771C592.511 305.17 601.119 317.33 609.081 328.856C625.006 351.925 638.229 372.615 649.097 389.595C670.761 423.651 682.979 442.835 682.979 442.835C682.979 442.835 686.064 447.608 691.874 456.613C694.815 461.084 698.438 466.601 702.706 473.118C704.894 476.32 707.166 479.856 709.724 483.455C712.211 487.149 714.925 491.002 717.806 495.076C729.272 511.407 743.487 531.019 760.918 552.216C778.314 573.43 799.057 596.134 823.733 617.331C825.276 618.663 826.818 619.995 828.372 621.342C829.938 622.658 831.576 623.863 833.19 625.148C836.43 627.668 839.706 630.205 843.006 632.774C846.377 635.183 849.833 637.498 853.288 639.908C855.021 641.097 856.767 642.302 858.512 643.507C860.306 644.585 862.111 645.679 863.928 646.773C878.275 655.953 893.877 663.278 910.173 669.715C926.54 675.914 943.852 680.068 961.69 682.938C970.621 684.301 946.692 685.363 955.886 686.156C965.08 686.885 974.382 687.425 983.791 687.742C1021.4 689.089 972.599 687.361 1012.65 690.849C1032.65 692.688 1063.87 695.764 1083.84 701.646C1093.77 704.738 1103.99 707.354 1112.82 714.029C1113.94 714.79 1114.97 715.757 1116.05 716.613L1117.58 718.071C1118.09 718.547 1118.59 719.054 1119.05 719.609C1121.01 721.671 1122.68 724.128 1124.07 726.776C1126.88 732.071 1127.75 738.825 1126.54 745.009C1125.32 751.224 1121.99 756.408 1118.21 760.863C1114.41 765.366 1110.13 769.345 1106.04 773.832C1101.97 778.335 1097.96 783.408 1095.28 790.02C1094.03 793.365 1092.98 796.932 1092.62 800.69C1092.24 804.4 1092.16 808.237 1092.65 811.931C1094.41 826.787 1101.11 836.38 1110.97 843.578C1113.4 845.385 1116.09 846.811 1118.65 848.159C1121.22 849.427 1123.57 850.3 1126.21 851.188C1131.47 852.964 1137.43 853.977 1142.71 854.786C1145.35 855.198 1148.64 855.684 1151.27 856.001C1153.9 856.302 1158.68 857.011 1161.27 857.376C1166.44 858.2 1173.33 860.265 1178.46 861.501C1188.72 863.927 1198.59 867.782 1208.71 871.127C1228.98 877.881 1245.17 886.004 1265.22 892.837C1285.27 899.734 1305.02 907.233 1325.05 911.894C1345.09 916.54 1387.07 919.98 1406.88 921.946C1411.83 922.422 1416.78 922.723 1421.71 923.119C1426.63 923.325 1431.55 923.516 1436.44 923.706C1441.33 923.706 1446.2 923.817 1451.07 924.039C1455.92 924.118 1460.77 924.039 1465.58 923.785C1475.2 923.04 1484.73 922.073 1494.11 920.614C1496.45 920.249 1498.81 919.98 1501.13 919.536C1503.46 919.108 1505.78 918.68 1508.09 918.252C1510.39 917.824 1512.7 917.396 1515.01 916.968C1516.16 916.762 1517.3 916.54 1518.45 916.27L1519.47 916.048C1525.12 914.796 1529.76 913.765 1532.08 913.242C1540.63 911.244 1545.39 909.548 1552.49 907.677C1545.32 908.993 1540.45 909.881 1531.87 911.45C1529.55 911.847 1524.88 912.639 1519.22 913.606L1518.2 913.781C1517.05 913.987 1515.91 914.161 1514.76 914.304C1512.45 914.605 1510.14 914.922 1507.82 915.224C1505.5 915.541 1503.18 915.842 1500.85 916.159C1498.52 916.492 1496.18 916.651 1493.84 916.904C1484.46 917.982 1474.99 918.68 1465.43 919.346C1460.65 919.552 1455.84 920.044 1451.02 920.503C1446.19 920.852 1441.34 921.137 1436.46 921.217C1431.58 921.185 1426.68 921.137 1421.77 921.106C1416.85 920.884 1411.92 920.757 1406.97 920.44C1387.17 919.187 1345.13 916.286 1325.11 911.577C1322.6 911.038 1320.12 910.34 1317.61 909.706C1315.11 909.04 1312.6 908.454 1310.1 907.724C1305.11 906.282 1300.09 904.886 1295.12 903.253C1285.12 900.146 1275.16 896.579 1265.22 892.837C1245.31 885.354 1225.52 876.681 1205.38 868.912C1195.3 865.044 1185.12 861.429 1174.78 858.527C1169.62 857.053 1164.39 855.816 1159.15 854.786C1156.53 854.326 1153.86 853.787 1151.27 853.407C1148.66 853.01 1146.08 852.582 1143.51 852.106C1133.26 850.204 1123.07 847.35 1114.48 840.707C1112.35 838.995 1110.33 837.266 1108.51 835.11C1106.7 832.986 1104.96 830.687 1103.48 828.118C1102.68 826.882 1102.06 825.502 1101.34 824.186C1100.74 822.791 1100.05 821.444 1099.55 819.969C1098.41 817.099 1097.62 814.04 1097.07 810.916C1095.97 804.669 1096.35 798.011 1098.43 792.208C1100.54 786.357 1104.21 781.537 1108.11 777.146C1112.03 772.722 1116.3 768.679 1120.25 763.891C1122.23 761.497 1124.13 758.913 1125.73 755.948C1127.36 753.015 1128.62 749.638 1129.32 746.023C1129.64 744.216 1129.88 742.377 1129.88 740.522L1129.85 737.731C1129.81 736.812 1129.65 735.892 1129.56 734.973C1129.01 731.342 1127.93 727.822 1126.3 724.873C1124.71 721.908 1122.84 719.245 1120.72 717.057C1120.21 716.47 1119.68 715.931 1119.13 715.44L1117.49 713.918C1116.36 713.014 1115.24 712.015 1114.06 711.238C1109.41 707.877 1104.46 705.451 1099.41 703.628C1094.38 701.963 1089.4 700.283 1084.34 698.951C1064.19 693.307 1032.87 690.469 1012.81 688.851C972.635 685.823 1021.46 687.884 983.863 686.79C974.465 686.552 965.164 686.061 955.982 685.395C946.8 684.666 970.74 683.667 961.809 682.351C943.971 679.576 926.672 675.518 910.304 669.414C893.997 663.104 878.442 655.636 864.251 646.107C862.458 644.966 860.676 643.84 858.907 642.714C857.173 641.462 855.452 640.225 853.742 638.989C850.323 636.499 846.915 634.09 843.592 631.616C840.328 628.984 837.1 626.368 833.908 623.784C832.317 622.484 830.703 621.247 829.149 619.916C827.607 618.552 826.089 617.188 824.558 615.841C800.157 594.342 779.677 571.464 762.496 550.108C745.292 528.751 731.268 509.012 719.97 492.571C708.684 476.114 700.052 463.018 694.17 454.108C688.323 445.166 685.227 440.41 685.227 440.41C685.227 440.41 672.936 421.321 651.105 387.439C640.142 370.554 626.788 349.943 610.719 326.97C602.673 315.491 593.993 303.378 584.477 291.012C575.008 278.581 564.582 266.088 553.762 252.976C542.919 239.864 531.501 226.261 519.151 212.927C506.789 199.625 493.518 186.45 478.788 174.987C471.424 169.28 463.676 164.048 455.475 159.783C451.386 157.595 447.142 155.851 442.838 154.281C438.486 152.918 434.062 151.665 429.519 151.253C427.26 150.904 424.976 150.952 422.681 150.904C421.533 150.873 420.397 151.079 419.249 151.158C418.101 151.269 416.954 151.332 415.818 151.634L412.399 152.363C411.263 152.648 410.127 153.013 408.991 153.473C406.744 154.376 404.508 155.661 402.571 157.69C400.634 159.704 399.176 162.557 398.387 165.617C397.562 168.693 397.299 171.912 397.251 175.067C397.203 178.238 397.382 181.361 397.598 184.453C397.825 187.544 397.944 190.683 398.279 193.775C400.395 218.683 404.974 243.59 410.438 268.466C415.902 293.358 422.262 318.281 427.929 343.776C433.572 369.254 438.57 395.414 440.578 422.304C441.57 435.732 441.822 449.32 440.925 462.844C440.626 466.205 440.435 469.598 440.064 472.959L439.466 477.985C439.263 479.666 439.096 481.346 438.797 483.011C438.235 486.325 437.781 489.702 437.123 492.968C436.465 496.234 435.736 499.468 434.792 502.56C432.927 508.711 430.236 514.482 426.315 518.319C422.441 522.235 417.54 524.217 412.53 524.851C407.509 525.501 402.344 524.978 397.239 523.963C392.122 522.838 386.993 521.601 381.96 519.825C361.731 513.087 342.59 500.752 325.266 485.135C316.61 477.287 308.36 468.647 300.494 459.467C292.651 450.255 285.155 440.536 278.017 430.405C263.73 410.159 250.758 388.486 238.611 366.289C214.234 321.944 192.235 276.346 169.878 232.857C147.521 189.383 124.698 148.019 100.404 111.173C97.4147 106.511 94.2824 102.072 91.2337 97.5693C88.173 93.0983 84.9928 88.8017 81.9082 84.4417C78.7161 80.2244 75.5957 75.9595 72.3915 71.8848C70.7775 69.8554 69.1755 67.8261 67.5734 65.8125L65.1703 62.8001L62.7194 59.8829C59.4555 55.9985 56.2275 52.0983 52.8799 48.4517C51.23 46.5967 49.5801 44.7576 47.9303 42.9184C46.2445 41.1586 44.5707 39.3987 42.8969 37.6389C41.2112 35.9107 39.5852 34.0874 37.8755 32.4385C36.1778 30.7738 34.4801 29.1091 32.7824 27.4602C31.0967 25.8113 29.4229 24.1466 27.6774 22.6087C26.8524 21.8635 26.0394 21.1183 25.2264 20.389C24.1624 19.4219 23.182 18.534 22.2734 17.7096C20.48 16.0449 18.9975 14.7924 17.9933 13.9679C14.3109 10.9397 11.4894 8.4188 8.67981 6.34185C5.83436 4.26489 3.18021 2.29892 0 0Z" fill="#E8C5A7"/>
</svg>
